<?xml version="1.0" encoding="UTF-8"?> <svg xmlns="http://www.w3.org/2000/svg" width="148" height="86" viewBox="0 0 148 86" fill="none"> <ellipse cx="74" cy="43" rx="74" ry="43" fill="url(#paint0_radial_251_516)" fill-opacity="0.6"></ellipse> <path d="M34.228 47.8747L33.5874 47.6872C32.8166 47.458 32.1707 47.2914 31.6499 47.1872C31.1395 47.0726 30.603 47.0153 30.0405 47.0153C29.3947 47.0153 28.7905 47.0622 28.228 47.1559C27.6655 47.2497 27.1187 47.4268 26.5874 47.6872H26.4624L25.7905 46.4372V46.2809C27.9364 43.7289 29.5509 41.5414 30.6343 39.7184C32.0718 37.2809 32.7905 35.1143 32.7905 33.2184C32.7905 32.5205 32.7072 31.8591 32.5405 31.2341C33.0093 31.0987 33.5405 31.0309 34.1343 31.0309C35.0926 31.0309 35.8478 31.2966 36.3999 31.8278C36.6499 32.0778 36.8426 32.3747 36.978 32.7184C37.1134 33.0518 37.1812 33.4112 37.1812 33.7966C37.1812 34.7653 36.728 35.958 35.8218 37.3747C35.0614 38.5622 34.0197 39.8539 32.6968 41.2497C31.4468 42.5518 30.2853 43.6195 29.2124 44.4528L29.2437 44.5466C29.6291 44.3903 30.077 44.2549 30.5874 44.1403C31.1082 44.0257 31.6082 43.9684 32.0874 43.9684C32.452 43.9684 32.827 43.9997 33.2124 44.0622C33.6082 44.1143 34.1447 44.2028 34.8218 44.3278L35.4155 44.4372L38.0093 36.9684H40.0562L38.478 44.4059C39.1864 44.1351 39.8634 43.6299 40.5093 42.8903L40.603 42.9528C40.9468 43.5362 41.1187 44.1195 41.1187 44.7028C41.1187 45.5466 40.7957 46.2914 40.1499 46.9372C39.5041 47.5726 38.6812 47.9841 37.6812 48.1716L36.2905 54.7653H31.8374L34.228 47.8747ZM42.2905 45.1403H48.6812L48.1499 47.6559H41.7124L42.2905 45.1403ZM55.978 54.8903C54.9884 54.8903 54.2124 54.5466 53.6499 53.8591C53.0666 53.1612 52.7749 52.2132 52.7749 51.0153C52.7749 49.5257 53.2645 47.8643 54.2437 46.0309C54.9416 44.7393 56.0197 43.1872 57.478 41.3747C58.0197 40.6872 58.5978 39.9945 59.2124 39.2966C60.452 37.8591 61.3062 36.7601 61.7749 35.9997C62.0457 35.5518 62.1812 35.182 62.1812 34.8903C61.6603 35.0466 61.2541 35.1559 60.9624 35.2184C60.6707 35.2809 60.3634 35.3122 60.0405 35.3122C59.728 35.3122 59.4103 35.2809 59.0874 35.2184C58.7749 35.1559 58.4103 35.0674 57.9937 34.9528C57.5562 34.8382 57.1759 34.7549 56.853 34.7028C56.5405 34.6403 56.2124 34.6091 55.8687 34.6091C55.2332 34.6091 54.6707 34.7393 54.1812 34.9997C53.702 35.2497 53.2124 35.6716 52.7124 36.2653L52.6187 36.2341C52.3374 35.6299 52.1968 34.9789 52.1968 34.2809C52.1968 33.7289 52.3009 33.2237 52.5093 32.7653C52.728 32.2966 53.0353 31.9007 53.4312 31.5778C53.827 31.2549 54.2957 31.0049 54.8374 30.8278C55.3791 30.6507 55.9676 30.5622 56.603 30.5622C57.0718 30.5622 57.4989 30.6039 57.8843 30.6872C58.2801 30.7601 58.8322 30.8903 59.5405 31.0778C60.1864 31.2549 60.7332 31.3851 61.1812 31.4684C61.6395 31.5518 62.1447 31.5934 62.6968 31.5934C63.9051 31.5934 65.3426 31.3695 67.0093 30.9216L67.0718 31.0466C67.0718 31.3799 66.9468 31.8174 66.6968 32.3591C66.4468 32.9007 66.0822 33.5622 65.603 34.3434C65.1759 35.0309 64.6707 35.8226 64.0874 36.7184C62.6812 38.8539 61.5301 40.708 60.6343 42.2809C59.4259 44.4164 58.5666 46.3851 58.0562 48.1872C57.7853 49.1768 57.6499 50.1091 57.6499 50.9841C57.6499 52.1195 57.8426 53.2237 58.228 54.2966C57.5093 54.6924 56.7593 54.8903 55.978 54.8903ZM74.4624 54.9528C73.2957 54.9528 72.3999 54.5726 71.7749 53.8122C71.5041 53.4893 71.3009 53.1143 71.1655 52.6872C71.0197 52.2497 70.9468 51.8018 70.9468 51.3434C70.9468 50.583 71.1239 49.9684 71.478 49.4997C71.8322 49.0205 72.3166 48.7809 72.9312 48.7809C73.4312 48.7809 73.8322 48.9372 74.1343 49.2497C74.4468 49.5518 74.603 49.9528 74.603 50.4528C74.603 50.9112 74.4937 51.2757 74.2749 51.5466C74.0666 51.807 73.8062 51.9372 73.4937 51.9372C73.4207 51.9372 73.3634 51.932 73.3218 51.9216C73.3426 52.2132 73.4312 52.4372 73.5874 52.5934C73.7957 52.8226 74.1239 52.9372 74.5718 52.9372C75.0718 52.9372 75.4832 52.7757 75.8062 52.4528C76.1291 52.1299 76.4051 51.6612 76.6343 51.0466C76.853 50.4216 77.0353 49.7549 77.1812 49.0466C77.2853 48.4528 77.4103 47.8434 77.5562 47.2184L77.6655 46.7028C77.9989 45.0674 78.3687 43.7289 78.7749 42.6872C79.1916 41.6455 79.6603 40.8278 80.1812 40.2341C80.6499 39.682 81.1759 39.3018 81.7593 39.0934C82.353 38.8747 83.0353 38.7653 83.8062 38.7653H88.5249L86.8218 46.7028L86.2593 49.1716C86.1239 49.7757 86.0562 50.2237 86.0562 50.5153C86.0562 51.4112 86.4832 51.8591 87.3374 51.8591C87.6499 51.8591 87.9259 51.807 88.1655 51.7028C88.4051 51.5882 88.6291 51.4112 88.8374 51.1716C89.0249 50.9528 89.2072 50.6768 89.3843 50.3434C89.5718 50.0101 89.7853 49.5726 90.0249 49.0309H91.3687C90.0249 52.9789 88.0405 54.9528 85.4155 54.9528C84.1968 54.9528 83.2437 54.6091 82.5562 53.9216C82.2541 53.6195 82.0249 53.2653 81.8687 52.8591C81.7124 52.4424 81.6343 52.0101 81.6343 51.5622C81.6343 50.6664 81.8687 49.2184 82.3374 47.2184L83.7437 40.8747C83.1812 40.8747 82.702 40.9893 82.3062 41.2184C81.9103 41.4476 81.5614 41.807 81.2593 42.2966C80.9676 42.7653 80.702 43.3747 80.4624 44.1247C80.2228 44.8747 79.9728 45.8382 79.7124 47.0153L79.6499 47.3278C79.327 48.8382 79.0509 49.9997 78.8218 50.8122C78.603 51.6247 78.3374 52.3174 78.0249 52.8903C77.6395 53.5882 77.1603 54.1091 76.5874 54.4528C76.0249 54.7862 75.3166 54.9528 74.4624 54.9528ZM94.6187 54.9528C93.0457 54.9528 91.8322 54.557 90.978 53.7653C90.0718 52.9216 89.6187 51.6247 89.6187 49.8747C89.6187 49.2184 89.6864 48.4893 89.8218 47.6872C89.9468 46.8851 90.1395 46.083 90.3999 45.2809C90.6916 44.3851 91.0614 43.5362 91.5093 42.7341C91.9676 41.932 92.4989 41.2237 93.103 40.6091C94.4989 39.1924 96.2176 38.4841 98.2593 38.4841C99.5614 38.4841 100.509 38.7966 101.103 39.4216C101.561 39.9112 101.791 40.6195 101.791 41.5466C101.791 42.4528 101.593 43.307 101.197 44.1091C100.801 44.9007 100.254 45.6039 99.5562 46.2184C98.8582 46.8226 98.0666 47.307 97.1812 47.6716C96.2957 48.0257 95.3791 48.2341 94.4312 48.2966C94.3791 48.8382 94.353 49.2653 94.353 49.5778C94.353 50.6195 94.5509 51.3382 94.9468 51.7341C95.2905 52.0882 95.8634 52.2653 96.6655 52.2653C97.8218 52.2653 98.8791 51.9528 99.8374 51.3278C100.244 51.0674 100.634 50.7601 101.009 50.4059C101.384 50.0414 101.822 49.583 102.322 49.0309H103.416C102.405 50.7393 101.244 52.0987 99.9312 53.1091C98.3166 54.3382 96.5457 54.9528 94.6187 54.9528ZM94.6812 46.7653C95.2749 46.7237 95.853 46.5518 96.4155 46.2497C96.978 45.9476 97.478 45.5518 97.9155 45.0622C98.353 44.5622 98.6968 44.0049 98.9468 43.3903C99.1968 42.7653 99.3218 42.1299 99.3218 41.4841C99.3218 41.057 99.2593 40.7341 99.1343 40.5153C99.0197 40.2862 98.8166 40.1716 98.5249 40.1716C98.1395 40.1716 97.7489 40.3591 97.353 40.7341C96.9676 41.1091 96.5926 41.6247 96.228 42.2809C95.8947 42.8955 95.5926 43.5934 95.3218 44.3747C95.0509 45.1559 94.8374 45.9528 94.6812 46.7653ZM121.775 54.9528C120.452 54.9528 119.473 54.5778 118.837 53.8278C118.285 53.182 118.009 52.3539 118.009 51.3434C118.009 50.8643 118.067 50.307 118.181 49.6716C118.306 49.0362 118.488 48.2184 118.728 47.2184C118.968 46.1976 119.145 45.3851 119.259 44.7809C119.384 44.1664 119.447 43.6351 119.447 43.1872C119.447 42.0934 119.061 41.5466 118.291 41.5466C117.749 41.5466 117.249 41.833 116.791 42.4059C116.405 42.8955 116.072 43.5934 115.791 44.4997L113.619 54.7653H109.009L111.353 43.7184C111.416 43.4684 111.447 43.2028 111.447 42.9216C111.447 42.4945 111.379 42.1664 111.244 41.9372C111.067 41.6559 110.811 41.5153 110.478 41.5153C109.874 41.5153 109.348 41.807 108.9 42.3903C108.504 42.8903 108.166 43.5934 107.884 44.4997L105.712 54.7653H101.103L104.494 38.7653H109.103L108.759 40.4216C109.384 39.7237 110.067 39.2289 110.806 38.9372C111.389 38.7184 112.009 38.6091 112.666 38.6091C113.561 38.6091 114.275 38.8174 114.806 39.2341C115.4 39.7028 115.78 40.4112 115.947 41.3591C116.634 40.2966 117.426 39.5466 118.322 39.1091C118.957 38.7966 119.65 38.6403 120.4 38.6403C121.473 38.6403 122.322 38.9216 122.947 39.4841C123.613 40.0987 123.947 41.0205 123.947 42.2497C123.947 42.9476 123.817 43.9112 123.556 45.1403C123.452 45.6507 123.327 46.1664 123.181 46.6872C122.921 47.6872 122.707 48.6091 122.541 49.4528C122.457 49.8903 122.416 50.2445 122.416 50.5153C122.416 50.9424 122.509 51.2757 122.697 51.5153C122.895 51.7445 123.228 51.8591 123.697 51.8591C124.332 51.8591 124.869 51.5987 125.306 51.0778C125.639 50.682 125.999 49.9997 126.384 49.0309H127.728C126.936 51.3747 125.936 53.0153 124.728 53.9528C123.874 54.6195 122.889 54.9528 121.775 54.9528Z" fill="#16578D"></path> <defs> <radialGradient id="paint0_radial_251_516" cx="0" cy="0" r="1" gradientUnits="userSpaceOnUse" gradientTransform="translate(55.5) rotate(77.8597) scale(87.9673 1151.58)"> <stop stop-color="#FAEE8A"></stop> <stop offset="0.505208" stop-color="#79BDF1"></stop> <stop offset="0.984375" stop-color="#EDD8FF"></stop> </radialGradient> </defs> </svg> 