<?xml version="1.0" encoding="UTF-8"?> <svg xmlns="http://www.w3.org/2000/svg" width="700" height="600" viewBox="0 0 700 600" fill="none"> <ellipse cx="342" cy="308.5" rx="259" ry="246.5" fill="url(#paint0_radial_327_239)" fill-opacity="0.59"></ellipse> <ellipse cx="383" cy="362" rx="218" ry="227" fill="url(#paint1_radial_327_239)" fill-opacity="0.59"></ellipse> <path d="M645 458.593C645 481.462 570.007 500 477.5 500C384.992 500 310 481.462 310 458.593C310 435.723 384.992 417.183 477.5 417.183C570.007 417.183 645 435.723 645 458.593Z" fill="url(#paint2_radial_327_239)"></path> <path d="M405.549 199.504L413.105 215.957L546.186 214.97L555.832 195.772L505.133 152.751C505.133 152.751 416.823 177.378 416.234 178.86C415.645 180.339 405.549 199.504 405.549 199.504Z" fill="#B77D4A"></path> <path d="M537.663 408.02C543.897 415.706 585.287 446.349 594.695 464.116C594.695 464.116 589.319 470.039 582.597 472.671C575.878 475.304 503.135 431.212 503.135 431.212L537.663 408.02" fill="#54BFB2"></path> <path d="M581.51 472.772C572.682 472.097 529.254 446.773 511.116 435.992L539.272 421.669C537.702 436.533 544.293 456.697 584.881 467.096C582.744 470.285 581.4 472.585 581.4 472.585C581.436 472.646 581.473 472.71 581.51 472.772" fill="#49AEA5"></path> <path d="M581.399 472.585C581.399 472.585 600.605 439.751 609.153 450.214C617.703 460.677 599.946 475.414 596.785 477.002C592.911 478.946 587.412 482.816 581.399 472.585Z" fill="#276365"></path> <path d="M590.085 479.348C588.98 479.348 587.826 479.082 586.631 478.394C587.412 471.38 597.964 460.786 604.024 456.073C605.88 454.631 607.963 454.101 610.034 454.101C610.413 454.101 610.788 454.119 611.161 454.151C613.628 464.039 599.567 475.605 596.785 477.002C594.896 477.949 592.62 479.348 590.085 479.348" fill="#2F7A7C"></path> <path d="M424.101 408.02C417.867 415.706 376.478 446.349 367.069 464.116C367.069 464.116 372.446 470.039 379.166 472.671C385.886 475.304 458.629 431.212 458.629 431.212L424.101 408.02" fill="#54BFB2"></path> <path d="M380.254 472.772C380.29 472.71 380.327 472.646 380.364 472.585C380.364 472.585 379.019 470.285 376.882 467.096C420.767 455.852 424.907 433.196 421.962 418.161L453.579 434.246C437.751 443.702 389.602 472.057 380.254 472.772Z" fill="#49AEA5"></path> <path d="M456.843 289.84C438.841 292.702 399.566 311.812 380.233 279.582L368.833 286.146C368.833 286.146 384.927 333.521 416.488 329.93C455.586 325.48 474.846 286.979 456.843 289.84" fill="#4F5D92"></path> <path d="M380.233 279.582C380.233 279.582 391.988 260.778 386.442 258.899C380.897 257.02 377.817 272.245 377.817 272.245C377.817 272.245 363.617 251.762 358.319 256.267C353.022 260.772 341.917 271.803 368.833 286.146L380.233 279.582Z" fill="#F0AA9F"></path> <path d="M469.578 270.824L472.911 293.281H491.99L494.652 267.945L469.578 270.824Z" fill="#E19893"></path> <path d="M426.886 214.97C426.886 220.15 422.109 224.349 416.217 224.349C410.325 224.349 405.549 220.15 405.549 214.97C405.549 209.791 410.325 205.592 416.217 205.592C422.109 205.592 426.886 209.791 426.886 214.97Z" fill="#F0AA9F"></path> <path d="M534.495 214.97C534.495 220.15 539.272 224.349 545.164 224.349C551.055 224.349 555.832 220.15 555.832 214.97C555.832 209.791 551.055 205.592 545.164 205.592C539.272 205.592 534.495 209.791 534.495 214.97Z" fill="#F0AA9F"></path> <path d="M493.063 283.07C493.063 283.07 489.001 290.009 471.594 284.406C471.594 284.406 426.886 298.086 419.256 317.446C414.818 328.708 497.197 345.926 497.197 345.926L529.118 329.474L534.397 322.664C534.08 336.342 542.048 395.848 561.09 381.464C570.181 374.594 562.323 355.29 559.397 342.919C553.638 318.577 519.336 287.195 493.063 283.07" fill="#4F5D92"></path> <path d="M476.641 341.201C470.277 339.639 463.062 337.772 455.943 335.731L447.72 330.584L465.072 328.24C465.17 328.864 465.263 329.489 465.351 330.124L476.739 341.157C476.707 341.172 476.674 341.187 476.641 341.201V341.201ZM528.209 325.703C527.291 322.232 525.614 316.604 522.91 309.85C523.444 310.32 523.962 310.814 524.464 311.334C527.806 314.799 530.007 319.054 531.586 323.589L528.209 325.703ZM437.471 324.17L429.059 318.905C431.784 317.966 434.449 316.848 437.089 315.653C437.363 318.371 437.496 321.209 437.471 324.17Z" fill="#3E4B79"></path> <path d="M430.33 139.127C428.818 141.595 401.097 176.143 419.241 208.719C419.241 208.719 410.673 253.632 462.083 271.4C513.493 289.168 547.262 236.357 539.198 210.692C539.198 210.692 555.831 180.585 533.654 150.48C511.477 120.373 430.33 139.127 430.33 139.127" fill="#F0AA9F"></path> <path d="M452.843 204.275C452.843 210.727 449.308 215.957 444.947 215.957C440.586 215.957 437.051 210.727 437.051 204.275C437.051 197.824 440.586 192.597 444.947 192.597C449.308 192.597 452.843 197.824 452.843 204.275Z" fill="#181825"></path> <path d="M448.369 184.482C448.961 185.815 446.197 188.275 442.197 189.976C438.197 191.677 434.475 191.976 433.883 190.64C433.292 189.307 436.056 186.847 440.056 185.146C444.056 183.445 447.778 183.147 448.369 184.482" fill="#3A1414"></path> <path d="M452.616 232.842C452.616 238.215 448.167 242.572 442.68 242.572C437.192 242.572 432.743 238.215 432.743 232.842C432.743 227.468 437.192 223.112 442.68 223.112C448.167 223.112 452.616 227.468 452.616 232.842Z" fill="#F57D8E"></path> <path d="M529.272 232.842C529.272 238.215 524.823 242.572 519.336 242.572C513.848 242.572 509.399 238.215 509.399 232.842C509.399 227.468 513.848 223.112 519.336 223.112C524.823 223.112 529.272 227.468 529.272 232.842Z" fill="#F57D8E"></path> <path d="M476.463 211.217C476.463 211.217 473.783 225.908 482.536 225.559C491.288 225.21 493.179 217.164 487.947 216.463C482.714 215.765 477.534 214.016 476.463 211.217" fill="#D47770"></path> <path d="M508.538 204.275C508.538 210.727 512.073 215.957 516.434 215.957C520.795 215.957 524.33 210.727 524.33 204.275C524.33 197.824 520.795 192.597 516.434 192.597C512.073 192.597 508.538 197.824 508.538 204.275Z" fill="#181825"></path> <path d="M513.012 184.482C512.421 185.815 515.184 188.275 519.184 189.976C523.185 191.677 526.907 191.976 527.498 190.64C528.089 189.307 525.326 186.847 521.326 185.146C517.326 183.445 513.604 183.147 513.012 184.482Z" fill="#3A1414"></path> <path d="M450.997 201.89C450.997 203.209 449.906 204.275 448.559 204.275C447.213 204.275 446.122 203.209 446.122 201.89C446.122 200.573 447.213 199.504 448.559 199.504C449.906 199.504 450.997 200.573 450.997 201.89Z" fill="white"></path> <path d="M522.692 201.89C522.692 203.209 521.601 204.275 520.255 204.275C518.908 204.275 517.817 203.209 517.817 201.89C517.817 200.573 518.908 199.504 520.255 199.504C521.601 199.504 522.692 200.573 522.692 201.89Z" fill="white"></path> <path d="M431.951 295.906C419.748 268.509 390.656 258.9 379.037 256.081C394.1 257.585 429.024 264.003 449.863 291.367C444.624 292.704 438.478 294.507 431.951 295.906Z" fill="#B683C8"></path> <path d="M434.153 301.618C433.5 299.633 432.763 297.731 431.95 295.906C438.477 294.507 444.623 292.704 449.863 291.367C450.153 291.748 450.438 292.13 450.722 292.519C445.214 295.057 439.359 298.122 434.153 301.618Z" fill="#744FAC"></path> <path d="M437.088 315.653C436.574 310.572 435.56 305.902 434.152 301.618C439.358 298.122 445.214 295.057 450.722 292.519C453.719 296.617 456.406 301.176 458.67 306.236C458.475 306.298 458.28 306.361 458.085 306.425C450.824 308.811 444.044 312.502 437.088 315.653" fill="#744FAC"></path> <path d="M447.721 330.584L437.471 324.17C437.497 321.209 437.364 318.371 437.089 315.653C444.045 312.502 450.825 308.811 458.086 306.425C458.281 306.361 458.476 306.298 458.671 306.236C461.567 312.708 463.775 320.007 465.072 328.24L447.721 330.584" fill="#6F49A8"></path> <path d="M453.955 290.39C440.379 272.581 416.852 255.039 376.857 255.039C375.949 255.039 375.046 255.047 374.121 255.066C374.121 255.066 375.97 255.337 379.037 256.081C374.496 255.627 371.758 255.62 371.758 255.62C375.518 254.679 379.196 253.972 382.783 253.479C401.735 255.864 436.142 263.517 461.29 288.054C459.894 288.595 458.401 289.192 456.839 289.841C455.93 289.986 454.967 290.172 453.955 290.39" fill="#8FDAE9"></path> <path d="M454.341 290.901C454.214 290.732 454.083 290.56 453.954 290.39C454.966 290.172 455.929 289.986 456.838 289.841C456.023 290.181 455.19 290.534 454.341 290.901Z" fill="#54B4D3"></path> <path d="M463.139 304.982C460.84 300.508 457.947 295.699 454.342 290.901C455.191 290.534 456.024 290.181 456.839 289.841C458.401 289.192 459.894 288.595 461.289 288.054C465.821 292.476 470.048 297.441 473.833 303.027C470.23 303.501 466.652 304.117 463.139 304.982" fill="#54B4D3"></path> <path d="M476.739 341.157L465.35 330.124C465.262 329.489 465.17 328.864 465.072 328.24L471.379 327.388C471.379 327.388 469.555 317.473 463.138 304.982C466.651 304.117 470.229 303.501 473.833 303.027C475.083 304.871 476.283 306.78 477.431 308.762V336.899L478.871 340.347C478.173 340.567 477.461 340.835 476.739 341.157Z" fill="#4FACCA"></path> <path d="M449.863 291.367C429.024 264.003 394.1 257.585 379.037 256.081C375.97 255.337 374.121 255.066 374.121 255.066C375.045 255.047 375.949 255.039 376.856 255.039C416.852 255.039 440.379 272.581 453.955 290.39C452.667 290.669 451.299 291 449.863 291.367" fill="#76C4EE"></path> <path d="M450.722 292.519C450.438 292.13 450.152 291.748 449.862 291.367C451.298 291 452.666 290.669 453.954 290.39C454.084 290.56 454.214 290.732 454.341 290.901C453.16 291.414 451.949 291.953 450.722 292.519Z" fill="#61AAE1"></path> <path d="M458.671 306.236C456.407 301.176 453.72 296.617 450.723 292.519C451.95 291.953 453.16 291.414 454.342 290.901C457.948 295.699 460.84 300.508 463.139 304.982C461.637 305.352 460.146 305.767 458.671 306.236Z" fill="#61AAE1"></path> <path d="M465.072 328.24C463.775 320.007 461.567 312.708 458.671 306.236C460.146 305.767 461.637 305.352 463.138 304.982C469.555 317.473 471.38 327.388 471.38 327.388L465.072 328.24Z" fill="#5FA7E0"></path> <path d="M483.449 339.533L483.459 339.517L479.603 312.719C482.07 317.474 484.236 322.6 486.04 328.134L484.787 339.517L484.798 339.528C484.593 339.521 484.386 339.517 484.178 339.517C483.937 339.517 483.694 339.522 483.449 339.533" fill="#4FACCA"></path> <path d="M483.46 339.517L477.432 297.631V336.899L480.445 344.112L483.46 339.517" fill="#AFC394"></path> <path d="M479.877 340.061L462.882 297.631V325.982L477.431 344.112L479.877 340.061Z" fill="#C1D7A4"></path> <path d="M484.787 339.517L489.399 297.631V344.116L484.787 339.517Z" fill="#AFC394"></path> <path d="M477.432 340.865L448.391 300.014V325.447L468.889 351.951L477.432 340.865" fill="#CCE7AC"></path> <path d="M474.612 342.254L430.62 304.565L432.534 337.762L468.889 351.951L474.612 342.254" fill="#D4EEB4"></path> <path d="M467.449 285.785C451.77 269.598 427.665 252.591 395.598 252.591C391.456 252.591 387.189 252.873 382.782 253.479C374.237 252.404 368.833 252.399 368.833 252.399C368.833 252.399 380.101 249.183 396.686 249.183C407.647 249.183 420.934 250.588 434.828 255.254C441.179 261.515 449.965 267.212 462.083 271.4C463.994 272.06 465.883 272.624 467.744 273.094C468.568 273.746 469.395 274.419 470.214 275.105L471.594 284.406C471.594 284.406 470.035 284.883 467.449 285.785" fill="#F6F56B"></path> <path d="M482.053 286.548C479.266 286.389 475.825 285.768 471.594 284.406L470.214 275.105C474.25 278.487 478.206 282.281 482.053 286.548" fill="#EFCE4A"></path> <path d="M481.165 302.224C477.716 297.419 473.136 291.656 467.449 285.785C470.035 284.883 471.594 284.406 471.594 284.406C475.825 285.768 479.266 286.389 482.053 286.548C486.072 291.006 489.963 295.972 493.677 301.501C492.248 301.512 490.819 301.554 489.399 301.62V297.631L488.957 301.642C487.084 301.735 485.227 301.869 483.402 302.025C482.656 302.089 481.911 302.155 481.165 302.224" fill="#AAB14B"></path> <path d="M489.399 336.725V301.621C490.819 301.555 492.249 301.512 493.678 301.501C495.872 304.768 498.009 308.239 500.069 311.91L489.399 336.725ZM487.778 312.357C486.533 310.218 484.321 306.622 481.165 302.224C481.911 302.155 482.657 302.09 483.402 302.026C485.228 301.869 487.084 301.736 488.958 301.642L487.778 312.357" fill="#A2A843"></path> <path d="M467.744 273.094C465.883 272.624 463.994 272.06 462.083 271.4C449.965 267.212 441.179 261.515 434.828 255.254C445.703 258.906 456.946 264.555 467.744 273.094" fill="#F4D64E"></path> <path d="M461.289 288.054C436.141 263.517 401.735 255.864 382.782 253.479C387.189 252.873 391.456 252.591 395.599 252.591C427.665 252.591 451.77 269.598 467.449 285.785C465.778 286.368 463.675 287.13 461.289 288.054" fill="#BBE272"></path> <path d="M473.833 303.027C470.047 297.44 465.821 292.475 461.289 288.054C463.675 287.13 465.778 286.368 467.449 285.785C473.136 291.656 477.716 297.419 481.165 302.224C480.155 302.317 479.145 302.415 478.135 302.521L477.431 297.631V302.596C476.23 302.727 475.031 302.869 473.833 303.027" fill="#9FD967"></path> <path d="M486.04 328.134C484.236 322.6 482.07 317.474 479.603 312.719L478.135 302.521C479.144 302.415 480.155 302.317 481.165 302.224C484.321 306.622 486.532 310.218 487.777 312.357L486.04 328.134V328.134ZM477.431 308.762C476.283 306.78 475.083 304.871 473.833 303.027C475.031 302.869 476.23 302.727 477.431 302.596V308.762Z" fill="#9DD864"></path> <path d="M479.603 312.719C478.904 311.372 478.178 310.05 477.432 308.762V302.597V297.631L478.135 302.521L479.603 312.719" fill="#D8DF4D"></path> <path d="M488.791 338.138C488.004 334.663 487.083 331.333 486.04 328.134L487.777 312.357L488.957 301.642L489.399 297.631V301.62V336.725L488.791 338.138Z" fill="#D8DF4D"></path> <path d="M488.032 339.904L505.529 299.211V342.254L496.409 351.185L488.032 339.904" fill="#C1D7A4"></path> <path d="M490.93 340.863L519.336 301.204V334.014L498.836 351.951L490.93 340.863Z" fill="#CCE7AC"></path> <path d="M522.911 309.849C521.785 308.858 520.589 307.975 519.336 307.191V301.647C520.689 304.509 521.875 307.262 522.911 309.849Z" fill="#B83557"></path> <path d="M519.336 331.256V307.191C520.589 307.975 521.785 308.858 522.911 309.85C525.614 316.604 527.292 322.232 528.21 325.703L519.336 331.256" fill="#B02F4E"></path> <path d="M513.527 290.641C506.583 286.791 499.576 284.093 493.063 283.07L494.043 273.741C496.136 273.285 498.165 272.71 500.14 272.027C505.458 278.061 509.88 284.432 513.527 290.641V290.641ZM368.833 252.399C389.712 244.225 407.977 240.447 423.928 239.898C424.933 242.043 426.125 244.211 427.532 246.361C422.77 245.723 417.765 245.381 412.522 245.381C399.514 245.381 385.007 247.482 368.833 252.399" fill="#F4667C"></path> <path d="M492.842 283.372C490.499 280.539 487.935 277.702 485.127 274.917C488.201 274.77 491.176 274.367 494.043 273.741L493.063 283.07C493.06 283.074 492.993 283.188 492.842 283.372" fill="#F14E5C"></path> <path d="M516.252 305.509C513.014 303.978 509.484 302.976 505.802 302.356C505.712 302.195 505.621 302.033 505.529 301.87V299.211L504.877 300.728C501.811 295.422 497.837 289.415 492.842 283.372C492.993 283.188 493.06 283.074 493.063 283.07C499.576 284.093 506.583 286.791 513.527 290.641C515.682 294.311 517.565 297.92 519.209 301.38L516.252 305.509Z" fill="#B83557"></path> <path d="M511.023 312.809C509.793 310.012 508.071 306.419 505.802 302.357C509.484 302.976 513.014 303.978 516.252 305.509L511.023 312.809" fill="#B02F4E"></path> <path d="M485.127 274.917C471.797 261.697 453.068 249.782 427.532 246.361C426.125 244.211 424.933 242.043 423.928 239.898C425.307 239.85 426.66 239.827 428.005 239.827C430.768 239.827 433.46 239.926 436.081 240.117C437.836 241.644 440.147 242.572 442.68 242.572C444.291 242.572 445.813 242.196 447.158 241.53C470.706 245.885 487.836 258.066 500.141 272.027C498.165 272.71 496.136 273.285 494.043 273.741C491.176 274.367 488.201 274.77 485.127 274.917" fill="#F25360"></path> <path d="M442.679 242.572C440.147 242.572 437.836 241.644 436.081 240.117C439.925 240.397 443.611 240.874 447.158 241.53C445.812 242.196 444.29 242.572 442.679 242.572" fill="#F1475A"></path> <path d="M505.802 302.356C505.712 302.341 505.62 302.326 505.529 302.311V301.87C505.621 302.033 505.712 302.195 505.802 302.356Z" fill="#E8553E"></path> <path d="M505.529 320.479V302.311C505.62 302.326 505.712 302.341 505.802 302.357C508.071 306.419 509.793 310.012 511.023 312.809L505.529 320.479" fill="#E4533C"></path> <path d="M470.214 275.105C469.395 274.419 468.568 273.746 467.744 273.094C468.499 273.285 469.247 273.46 469.993 273.621L470.214 275.105V275.105ZM434.828 255.254C420.934 250.588 407.647 249.183 396.686 249.183C380.101 249.183 368.833 252.399 368.833 252.399C385.007 247.482 399.514 245.381 412.522 245.381C417.765 245.381 422.77 245.724 427.532 246.361C429.508 249.384 431.911 252.378 434.828 255.254Z" fill="#F4694D"></path> <path d="M483.522 286.592C483.054 286.592 482.565 286.578 482.053 286.548C478.206 282.281 474.25 278.487 470.214 275.105L469.993 273.621C474.301 274.548 478.47 274.98 482.477 274.981C483.367 274.981 484.252 274.959 485.127 274.917C487.935 277.702 490.499 280.539 492.842 283.372C492.143 284.225 489.652 286.591 483.522 286.592" fill="#F35F42"></path> <path d="M504.277 302.123C501.057 301.674 497.739 301.498 494.417 301.498C494.17 301.498 493.924 301.499 493.677 301.501C489.963 295.972 486.071 291.006 482.053 286.548C482.565 286.578 483.054 286.592 483.522 286.592C489.652 286.591 492.143 284.225 492.842 283.372C497.837 289.415 501.811 295.422 504.877 300.728L504.277 302.123Z" fill="#E8553E"></path> <path d="M500.069 311.91C498.008 308.239 495.871 304.767 493.677 301.501C493.924 301.499 494.17 301.498 494.417 301.498C497.739 301.498 501.056 301.674 504.277 302.122L500.069 311.91" fill="#E4533C"></path> <path d="M482.477 274.98C478.471 274.98 474.302 274.548 469.994 273.621C469.248 273.46 468.499 273.285 467.744 273.094C456.947 264.555 445.704 258.906 434.829 255.254C431.912 252.378 429.509 249.384 427.532 246.361C453.068 249.782 471.797 261.697 485.128 274.917C484.253 274.959 483.368 274.98 482.477 274.98Z" fill="#F36244"></path> <path d="M504.949 321.289C503.373 318.02 501.746 314.898 500.069 311.91L504.278 302.123L504.877 300.728L505.529 299.211V301.871V302.311V320.48L504.949 321.289Z" fill="#F05F5D"></path> <path d="M511.375 336.239C509.354 330.95 507.206 325.972 504.949 321.289L505.529 320.48L511.023 312.809L516.252 305.509L519.209 301.38C519.252 301.47 519.294 301.558 519.336 301.647V307.191V331.256L511.375 336.239" fill="#F36360"></path> <path d="M493.737 342.253L534.301 304.565L533.005 331.751L503.629 350.211L492.68 348.604L493.737 342.253" fill="#D4EEB4"></path> <path d="M497.392 344.99C497.392 344.99 485.43 332.675 470.737 344.99L484.338 352.62L497.392 344.99" fill="#3F86CE"></path> <path d="M470.737 344.99C470.737 344.99 476.955 347.916 483.459 347.668C490.044 347.416 496.923 343.996 497.938 344.99C499.957 346.967 497.938 442.974 497.938 442.974L496.379 443.997C488.954 448.868 479.237 448.78 471.906 443.774L470.737 442.974V344.99Z" fill="#79BDF1"></path> <path d="M484.311 447.591C484.275 447.591 484.239 447.591 484.202 447.591C484.239 447.591 484.275 447.591 484.311 447.591ZM484.414 447.591C488.541 447.57 492.668 446.399 496.264 444.072C492.668 446.399 488.541 447.57 484.414 447.591ZM473.832 444.946C473.174 444.592 472.531 444.2 471.906 443.773L471.686 443.622L471.906 443.773C472.531 444.2 473.174 444.592 473.832 444.946ZM496.277 444.064C496.298 444.051 496.319 444.037 496.34 444.024C496.319 444.037 496.298 444.051 496.277 444.064Z" fill="#F0DEDE"></path> <path d="M484.311 447.591C484.274 447.591 484.239 447.591 484.202 447.591C480.626 447.572 477.054 446.69 473.831 444.946C473.174 444.592 472.531 444.2 471.906 443.773L471.685 443.622L470.737 442.974V403.848L471.906 404.645C473.291 405.592 474.76 406.362 476.284 406.957C477.075 409.468 477.977 411.702 479.003 413.56L479.762 447.063C481.276 447.38 482.814 447.543 484.351 447.543C485.603 447.543 486.854 447.436 488.094 447.22L488.449 419.166C492.192 418.614 495.111 417.196 497.392 415.324V442.974L497.944 442.694C497.941 442.878 497.938 442.974 497.938 442.974L496.379 443.997C496.366 444.005 496.353 444.013 496.34 444.024C496.319 444.037 496.298 444.051 496.276 444.064C496.272 444.067 496.268 444.069 496.264 444.072C492.668 446.399 488.541 447.57 484.414 447.591C484.379 447.591 484.345 447.591 484.311 447.591V447.591ZM473.136 392.308C472.719 392.063 472.309 391.802 471.906 391.527L470.737 390.73V378.878L471.718 379.547C472.068 383.831 472.529 388.16 473.136 392.308V392.308ZM470.927 365.889L470.737 365.76V359.059C470.777 361.187 470.837 363.48 470.927 365.889Z" fill="#3F86CE"></path> <path d="M497.938 365.76L496.379 366.783C488.954 371.654 479.237 371.565 471.906 366.558L470.737 365.76V378.878L471.906 379.675C479.237 384.684 488.954 384.772 496.379 379.902L497.938 378.878V365.76" fill="#FBE76E"></path> <path d="M497.938 390.73L496.379 391.751C488.954 396.624 479.237 396.533 471.906 391.527L470.737 390.73V403.848L471.906 404.645C479.237 409.652 488.954 409.742 496.379 404.869L497.938 403.848V390.73Z" fill="#FBE76E"></path> <path d="M418.655 312.393C416.144 310.821 412.85 312.587 412.85 315.507V411.28C412.85 412.659 413.634 413.925 414.884 414.559L470.738 442.974V344.99L418.655 312.393Z" fill="#79BDF1"></path> <path d="M418.802 312.485L418.655 312.393L418.802 312.485" fill="#3E4B79"></path> <path d="M470.738 442.974L414.884 414.559C413.634 413.925 412.85 412.659 412.85 411.28V315.507C412.85 313.338 414.668 311.806 416.633 311.806C417.312 311.806 418.01 311.989 418.655 312.393L418.802 312.485C420.582 333.444 429.26 410.299 445.076 414.327C446.461 414.679 447.781 414.842 449.043 414.842C464.386 414.842 470.738 390.73 470.738 390.73V403.848V442.974Z" fill="#3F86CE"></path> <path d="M549.814 312.181L497.393 344.99V442.974L553.366 414.501C554.543 413.901 555.281 412.709 555.281 411.411V315.113C555.281 312.364 552.179 310.701 549.814 312.181Z" fill="#79BDF1"></path> <path d="M544.921 315.243L549.813 312.181L544.921 315.243Z" fill="#C2C3C1"></path> <path d="M497.393 442.974V428.384C500.578 428.931 504.115 429.584 508.15 430.389C508.621 430.482 509.084 430.53 509.546 430.53C514.93 430.527 519.736 424.244 523.95 414.479L546.186 403.352V383.495L531.962 389.693C533.205 384.809 534.368 379.726 535.45 374.573L546.186 369.582V336.393L541.763 338.76C543.133 329.553 544.187 321.364 544.921 315.243L549.814 312.181C550.422 311.801 551.078 311.628 551.719 311.628C553.569 311.628 555.281 313.071 555.281 315.113V332.143V383.69V411.411C555.281 412.709 554.543 413.901 553.366 414.501L497.393 442.974Z" fill="#3F86CE"></path> <path d="M505.529 388.48V358.153L541.762 338.76C540.115 349.837 538.007 362.393 535.449 374.573L505.529 388.48Z" fill="#C6E8E9"></path> <path d="M535.449 374.573C538.007 362.393 540.114 349.837 541.762 338.76L546.186 336.393V369.582L535.449 374.573Z" fill="#79BDF1"></path> <path d="M505.529 423.698V401.209L531.962 389.693C529.584 399.031 526.913 407.612 523.949 414.479L505.529 423.698" fill="#CFECF9"></path> <path d="M523.949 414.479C526.913 407.612 529.584 399.031 531.962 389.693L546.186 383.495V403.352L523.949 414.479" fill="#79BDF1"></path> <path d="M486.521 419.35C483.469 419.35 481.001 417.172 479.004 413.56L478.873 407.786C480.655 408.236 482.483 408.463 484.311 408.463C485.745 408.463 487.178 408.324 488.591 408.047L488.45 419.166C488.009 419.23 487.557 419.283 487.093 419.323C486.901 419.339 486.709 419.35 486.521 419.35" fill="#C7ECED"></path> <path d="M484.352 447.543C482.815 447.543 481.277 447.38 479.763 447.063L479.004 413.56C481.001 417.172 483.469 419.35 486.521 419.35C486.709 419.35 486.901 419.339 487.093 419.323C487.557 419.283 488.009 419.23 488.45 419.166L488.095 447.22C486.855 447.436 485.603 447.543 484.352 447.543" fill="#3EA7E3"></path> <path d="M484.312 395.344C482.381 395.344 480.451 395.094 478.574 394.59L478.305 382.663C480.265 383.218 482.288 383.492 484.311 383.492C485.852 383.492 487.394 383.333 488.907 383.013L488.757 394.894C487.292 395.195 485.801 395.344 484.312 395.344" fill="#CFECF9"></path> <path d="M482.667 347.683C480.86 347.683 479.095 347.454 477.5 347.131V347.129C479.097 347.453 480.863 347.682 482.671 347.682C482.933 347.682 483.196 347.678 483.46 347.668C483.194 347.678 482.931 347.683 482.667 347.683V347.683ZM483.484 347.667C485.476 347.588 487.492 347.219 489.366 346.773C487.493 347.221 485.476 347.588 483.484 347.667Z" fill="#52842E"></path> <path d="M484.311 370.376C482.185 370.376 480.059 370.07 478.006 369.459L477.5 347.129C479.095 347.454 480.86 347.683 482.667 347.683C482.931 347.683 483.194 347.678 483.46 347.668C483.468 347.667 483.476 347.667 483.484 347.667C485.476 347.588 487.493 347.221 489.366 346.774L489.074 369.858C487.507 370.203 485.909 370.376 484.311 370.376" fill="#CFECF9"></path> <path d="M484.311 383.492C482.288 383.492 480.264 383.218 478.304 382.663L478.005 369.459C480.058 370.07 482.184 370.376 484.311 370.376C485.908 370.376 487.506 370.203 489.073 369.858L488.907 383.013C487.393 383.332 485.852 383.492 484.311 383.492" fill="#FBEC86"></path> <path d="M484.311 408.463C482.483 408.463 480.655 408.236 478.873 407.786L478.574 394.59C480.45 395.094 482.381 395.345 484.311 395.345C485.801 395.345 487.292 395.195 488.757 394.894L488.591 408.047C487.178 408.324 485.745 408.463 484.311 408.463" fill="#FBEC86"></path> <path d="M444.613 375.093C442.025 375.093 439.607 374.237 437.582 372.371C436.053 370.963 434.773 369.116 434.215 367.142C433.813 365.722 433.743 364.158 433.914 362.654C433.74 362.507 433.562 362.369 433.395 362.207C430.471 359.378 429.326 355.103 429.864 351.184C430.07 349.679 430.573 348.513 431.204 347.119C431.306 346.896 431.347 346.807 431.349 346.807C431.357 346.807 430.846 347.975 430.808 348.057C431.749 346.007 432.684 344.293 434.736 343.088C436.005 342.342 437.365 342.022 438.732 342.022C441.716 342.022 444.734 343.548 446.915 345.508C450.114 348.384 451.199 353.768 449.848 357.928C449.916 357.988 449.999 358.046 450.065 358.107C452.917 360.735 454.379 365.39 453.202 369.025C452.342 371.682 450.216 374.186 447.303 374.802C446.392 374.994 445.493 375.093 444.613 375.093" fill="#C7EAFF"></path> <path d="M561.403 363.495C561.795 365.253 562.188 367.011 562.58 368.769C563.465 372.733 564.336 376.953 562.911 380.765C561.487 384.575 556.799 387.502 553.121 385.633C550.38 384.239 549.355 380.957 548.747 377.993C547.653 372.659 545.067 362.393 548.994 357.455C554.198 350.91 560.154 357.9 561.403 363.495" fill="#F0AA9F"></path> <path d="M380.364 472.585C380.364 472.585 361.158 439.751 352.61 450.214C344.062 460.677 361.817 475.414 364.977 477.002C368.852 478.946 374.353 482.816 380.364 472.585Z" fill="#276365"></path> <path d="M371.677 479.348C369.143 479.348 366.866 477.949 364.977 477.002C362.196 475.605 348.134 464.039 350.602 454.151C350.976 454.119 351.351 454.101 351.727 454.101C353.8 454.101 355.883 454.631 357.738 456.073C363.798 460.786 374.351 471.38 375.132 478.394C373.938 479.082 372.784 479.348 371.677 479.348" fill="#2F7A7C"></path> <path d="M494.603 232.946C494.504 232.786 494.253 232.818 494.2 232.996C493.185 236.423 492.649 240.067 490.019 242.759C487.041 245.807 482.655 246.795 478.544 245.648C474.703 244.577 471.735 241.904 469.506 238.756C468.252 236.984 467.624 235.151 465.853 233.853C465.752 233.779 465.607 233.86 465.575 233.964C464.515 237.489 467.421 241.699 469.806 244.201C473.06 247.616 477.775 249.783 482.581 249.561C490.295 249.205 499.414 240.699 494.603 232.946" fill="#E24E5E"></path> <path d="M469.579 106.308C373.625 112.181 405.55 199.504 405.55 199.504C405.55 199.504 411.973 194.593 423.076 189.099C423.518 174.317 430.62 166.027 430.62 166.027C430.52 169.428 430.558 179.625 430.591 185.636C433.401 184.434 436.402 183.248 439.602 182.118C439.126 171.382 446.123 146.777 446.123 146.777C444.421 152.666 446.504 170.721 447.676 179.534C462.793 175.168 481.139 172.55 501.329 175.248C501.329 167.035 501.329 152.751 501.329 152.751L507.352 176.208C511.856 177.039 516.442 178.143 521.096 179.553L520.255 159.117L526.207 181.216C535.866 184.594 545.783 189.331 555.833 195.772C555.833 195.772 574.412 99.8918 469.579 106.308Z" fill="#D09151"></path> <path d="M530.674 162.599C528.047 156.726 523.845 151.538 518.605 147.694C518.199 151.213 517.295 154.676 515.924 157.952C512.119 151.283 508.313 144.613 504.507 137.943C502.933 141.534 501.359 145.122 499.785 148.713C498.349 145.421 496.525 142.291 494.36 139.404C493.796 143.477 493.571 147.593 493.689 151.701C489.977 151.618 486.265 151.578 482.552 151.578C473.154 151.578 463.756 151.842 454.374 152.368C453.321 147.22 452.268 142.072 451.214 136.925C445.354 141.427 440.176 146.78 435.904 152.757C435.789 148.819 435.153 144.895 434.019 141.113C427.972 146.482 422.492 152.463 417.692 158.931C417.692 158.931 420.823 142.627 423.424 137.788C430.262 125.062 441.123 116.636 469.578 114.204C472.18 113.983 474.693 113.876 477.12 113.876C507.859 113.876 524.628 130.761 528.396 140.428C531.134 147.455 531.974 155.188 530.674 162.599" fill="#D8A561"></path> <path d="M364.948 236.454L374.217 250.334L391.148 250.725L380.532 263.647L385.384 279.536L369.554 273.642L355.621 283.07L356.454 266.506L342.991 256.444L359.336 252.101L364.948 236.454" fill="#FBE76E"></path> <path d="M476.982 253.084L479.24 256.464L483.363 256.56L480.778 259.707L481.96 263.576L478.104 262.141L474.711 264.438L474.914 260.403L471.635 257.953L475.616 256.895L476.982 253.084" fill="white"></path> <path d="M440.646 291.954L442.903 295.334L447.027 295.43L444.441 298.577L445.623 302.447L441.767 301.011L438.374 303.307L438.577 299.273L435.298 296.823L439.279 295.765L440.646 291.954Z" fill="white"></path> <path d="M418.722 243.352L420.459 245.953L423.632 246.026L421.643 248.448L422.552 251.426L419.585 250.321L416.974 252.088L417.13 248.984L414.607 247.098L417.671 246.284L418.722 243.352" fill="white"></path> <path d="M505.131 289.333L506.868 291.934L510.041 292.008L508.052 294.429L508.961 297.407L505.994 296.302L503.383 298.069L503.539 294.965L501.017 293.08L504.08 292.266L505.131 289.333" fill="white"></path> <path d="M395.263 251.252L397 253.853L400.173 253.926L398.184 256.348L399.093 259.326L396.126 258.221L393.515 259.988L393.671 256.884L391.148 254.998L394.211 254.184L395.263 251.252" fill="white"></path> <path d="M441.796 263.739L445.156 268.772L451.295 268.913L447.446 273.598L449.205 279.359L443.466 277.222L438.414 280.64L438.716 274.635L433.835 270.987L439.761 269.412L441.796 263.739" fill="white"></path> <path d="M376.164 259.762L355.692 281.657L355.621 283.07L369.554 273.642L385.384 279.535L380.532 263.647L391.148 250.725L374.217 250.333L364.948 236.454V255.62L376.164 259.762" fill="#F9D72F"></path> <defs> <radialGradient id="paint0_radial_327_239" cx="0" cy="0" r="1" gradientUnits="userSpaceOnUse" gradientTransform="translate(342 308.5) rotate(90) scale(246.5 259)"> <stop stop-color="#FAEE8A"></stop> <stop offset="1" stop-color="#FAEE8A" stop-opacity="0"></stop> </radialGradient> <radialGradient id="paint1_radial_327_239" cx="0" cy="0" r="1" gradientUnits="userSpaceOnUse" gradientTransform="translate(383 362) rotate(90) scale(227 218)"> <stop stop-color="#FEC5F8"></stop> <stop offset="1" stop-color="#FEC5F8" stop-opacity="0"></stop> </radialGradient> <radialGradient id="paint2_radial_327_239" cx="0" cy="0" r="1" gradientUnits="userSpaceOnUse" gradientTransform="translate(477.5 458.591) rotate(-90) scale(41.4087 167.5)"> <stop stop-color="#F2E3E2"></stop> <stop offset="1" stop-color="#F2E3E2" stop-opacity="0"></stop> </radialGradient> </defs> </svg> 