<?xml version="1.0" encoding="UTF-8"?> <svg xmlns="http://www.w3.org/2000/svg" width="50" height="51" viewBox="0 0 50 51" fill="none"> <circle cx="25" cy="25.9482" r="25" fill="#79BDF1"></circle> <path d="M32.226 14.9492H17.024C15.3077 14.9492 14 16.2569 14 17.9733V33.1752C14 34.8916 15.3077 36.1993 17.024 36.1993H32.226C33.9423 36.1993 35.25 34.8916 35.25 33.1752V17.9733C35.25 16.2569 33.9423 14.9492 32.226 14.9492ZM24.625 31.9493C28.1394 31.9493 31 29.1704 31 25.8195C31 25.2473 30.9183 24.5935 30.7548 24.1031H32.5529V32.7666C32.5529 33.1752 32.226 33.5839 31.7356 33.5839H17.5144C17.1058 33.5839 16.6971 33.257 16.6971 32.7666V24.0214H18.5769C18.4135 24.5935 18.3317 25.1656 18.3317 25.7377C18.25 29.1704 21.1106 31.9493 24.625 31.9493ZM24.625 29.4973C22.3365 29.4973 20.5385 27.6993 20.5385 25.4925C20.5385 23.2858 22.3365 21.4877 24.625 21.4877C26.9135 21.4877 28.7115 23.2858 28.7115 25.4925C28.7115 27.781 26.9135 29.4973 24.625 29.4973ZM32.4712 20.7521C32.4712 21.2425 32.0625 21.6512 31.5721 21.6512H29.2837C28.7933 21.6512 28.3846 21.2425 28.3846 20.7521V18.5454C28.3846 18.055 28.7933 17.6463 29.2837 17.6463H31.5721C32.0625 17.6463 32.4712 18.055 32.4712 18.5454V20.7521Z" fill="white"></path> </svg> 