<?xml version="1.0" encoding="UTF-8"?> <svg xmlns="http://www.w3.org/2000/svg" width="50" height="50" viewBox="0 0 50 50" fill="none"> <circle cx="25" cy="25" r="25" fill="#79BDF1"></circle> <path d="M11.6884 25.4678L17.436 27.6109L19.6766 34.8192C19.774 35.3062 20.3585 35.4037 20.7482 35.1114L23.9629 32.4814C24.2552 32.1891 24.7423 32.1891 25.1319 32.4814L30.8795 36.67C31.2692 36.9622 31.8537 36.7674 31.9511 36.2803L36.2375 15.8242C36.3349 15.3372 35.8478 14.8501 35.3607 15.045L11.6884 24.2015C11.1039 24.3963 11.1039 25.273 11.6884 25.4678ZM19.3843 26.5393L30.6847 19.6232C30.8795 19.5258 31.0744 19.8181 30.8795 19.9155L21.6249 28.585C21.3327 28.8772 21.0404 29.2668 21.0404 29.7539L20.7482 32.0917C20.7482 32.3839 20.2611 32.4814 20.1637 32.0917L18.9946 27.8057C18.7024 27.3186 18.8973 26.7342 19.3843 26.5393Z" fill="white"></path> </svg> 