<?xml version="1.0" encoding="UTF-8"?> <svg xmlns="http://www.w3.org/2000/svg" width="468" height="154" viewBox="0 0 468 154" fill="none"> <g filter="url(#filter0_d_332_481)"> <rect x="4" width="460" height="146" rx="73" fill="#BAFCBC"></rect> <path d="M172.809 43.1406C172.043 43.1406 171.434 42.9141 170.98 42.4609C170.48 41.9609 170.23 41.2305 170.23 40.2695C170.23 39.8477 170.297 39.3242 170.43 38.6992L170.547 38.1016C170.07 38.6172 169.566 38.9805 169.035 39.1914C168.621 39.3633 168.164 39.4492 167.664 39.4492C166.898 39.4492 166.293 39.2227 165.848 38.7695C165.348 38.2695 165.098 37.5352 165.098 36.5664C165.098 36.168 165.164 35.6484 165.297 35.0078L166.129 31H169.586L168.648 35.4648C168.602 35.6992 168.578 35.9219 168.578 36.1328C168.578 36.7891 168.82 37.1172 169.305 37.1172C169.758 37.1172 170.16 36.918 170.512 36.5195C170.848 36.1367 171.082 35.6328 171.215 35.0078L172.059 31H175.516L173.793 39.1562C173.723 39.3906 173.688 39.6484 173.688 39.9297C173.688 40.2578 173.766 40.4883 173.922 40.6211C174.078 40.7539 174.328 40.8203 174.672 40.8203C175.117 40.8203 175.516 40.6211 175.867 40.2227C176.18 39.8711 176.43 39.3633 176.617 38.6992H177.625C177.195 39.918 176.676 40.8828 176.066 41.5938C175.551 42.1797 174.969 42.6016 174.32 42.8594C173.844 43.0469 173.34 43.1406 172.809 43.1406ZM191.207 43.1406C190.215 43.1406 189.48 42.8594 189.004 42.2969C188.59 41.8125 188.383 41.1914 188.383 40.4336C188.383 40.0742 188.426 39.6562 188.512 39.1797C188.605 38.7031 188.742 38.0898 188.922 37.3398C189.102 36.5742 189.234 35.9648 189.32 35.5117C189.414 35.0508 189.461 34.6523 189.461 34.3164C189.461 33.4961 189.172 33.0859 188.594 33.0859C188.188 33.0859 187.812 33.3008 187.469 33.7305C187.18 34.0977 186.93 34.6211 186.719 35.3008L185.09 43H181.633L183.391 34.7148C183.438 34.5273 183.461 34.3281 183.461 34.1172C183.461 33.7969 183.41 33.5508 183.309 33.3789C183.176 33.168 182.984 33.0625 182.734 33.0625C182.281 33.0625 181.887 33.2812 181.551 33.7188C181.254 34.0938 181 34.6211 180.789 35.3008L179.16 43H175.703L178.246 31H181.703L181.445 32.2422C181.914 31.7188 182.426 31.3477 182.98 31.1289C183.418 30.9648 183.883 30.8828 184.375 30.8828C185.047 30.8828 185.582 31.0391 185.98 31.3516C186.426 31.7031 186.711 32.2344 186.836 32.9453C187.352 32.1484 187.945 31.5859 188.617 31.2578C189.094 31.0234 189.613 30.9062 190.176 30.9062C190.98 30.9062 191.617 31.1172 192.086 31.5391C192.586 32 192.836 32.6914 192.836 33.6133C192.836 34.1367 192.738 34.8594 192.543 35.7812C192.465 36.1641 192.371 36.5508 192.262 36.9414C192.066 37.6914 191.906 38.3828 191.781 39.0156C191.719 39.3438 191.688 39.6094 191.688 39.8125C191.688 40.1328 191.758 40.3828 191.898 40.5625C192.047 40.7344 192.297 40.8203 192.648 40.8203C193.125 40.8203 193.527 40.625 193.855 40.2344C194.105 39.9375 194.375 39.4258 194.664 38.6992H195.672C195.078 40.457 194.328 41.6875 193.422 42.3906C192.781 42.8906 192.043 43.1406 191.207 43.1406ZM198.098 43.1406C196.918 43.1406 196.008 42.8438 195.367 42.25C194.688 41.6172 194.348 40.6445 194.348 39.332C194.348 38.8398 194.398 38.293 194.5 37.6914C194.594 37.0898 194.738 36.4883 194.934 35.8867C195.152 35.2148 195.43 34.5781 195.766 33.9766C196.109 33.375 196.508 32.8438 196.961 32.3828C198.008 31.3203 199.297 30.7891 200.828 30.7891C201.805 30.7891 202.516 31.0234 202.961 31.4922C203.305 31.8594 203.477 32.3906 203.477 33.0859C203.477 33.7656 203.328 34.4062 203.031 35.0078C202.734 35.6016 202.324 36.1289 201.801 36.5898C201.277 37.043 200.684 37.4062 200.02 37.6797C199.355 37.9453 198.668 38.1016 197.957 38.1484C197.918 38.5547 197.898 38.875 197.898 39.1094C197.898 39.8906 198.047 40.4297 198.344 40.7266C198.602 40.9922 199.031 41.125 199.633 41.125C200.5 41.125 201.293 40.8906 202.012 40.4219C202.316 40.2266 202.609 39.9961 202.891 39.7305C203.172 39.457 203.5 39.1133 203.875 38.6992H204.695C203.938 39.9805 203.066 41 202.082 41.7578C200.871 42.6797 199.543 43.1406 198.098 43.1406ZM198.145 37C198.59 36.9688 199.023 36.8398 199.445 36.6133C199.867 36.3867 200.242 36.0898 200.57 35.7227C200.898 35.3477 201.156 34.9297 201.344 34.4688C201.531 34 201.625 33.5234 201.625 33.0391C201.625 32.7188 201.578 32.4766 201.484 32.3125C201.398 32.1406 201.246 32.0547 201.027 32.0547C200.738 32.0547 200.445 32.1953 200.148 32.4766C199.859 32.7578 199.578 33.1445 199.305 33.6367C199.055 34.0977 198.828 34.6211 198.625 35.207C198.422 35.793 198.262 36.3906 198.145 37ZM212.582 43.1406C211.66 43.1406 210.949 42.8828 210.449 42.3672C210.223 42.1406 210.051 41.875 209.934 41.5703C209.816 41.2578 209.758 40.9336 209.758 40.5977C209.758 40.3008 209.801 39.8984 209.887 39.3906C209.98 38.8828 210.121 38.1641 210.309 37.2344H207.648L206.418 43H202.961L205.504 31H208.961L207.93 35.8047H210.613L211.703 31H214.914L213.648 36.9531L213.227 38.8047C213.117 39.2891 213.062 39.625 213.062 39.8125C213.062 40.4844 213.383 40.8203 214.023 40.8203C214.266 40.8203 214.477 40.7812 214.656 40.7031C214.836 40.6172 215.004 40.4844 215.16 40.3047C215.301 40.1406 215.434 39.9375 215.559 39.6953C215.691 39.4531 215.852 39.1211 216.039 38.6992H217.047C216.039 41.6602 214.551 43.1406 212.582 43.1406ZM218.418 43.1406C217.652 43.1406 217.047 42.9141 216.602 42.4609C216.102 41.9609 215.852 41.2305 215.852 40.2695C215.852 39.8164 215.914 39.293 216.039 38.6992L217.668 31H221.125L219.402 39.1562C219.355 39.3984 219.332 39.625 219.332 39.8359C219.332 40.4922 219.57 40.8203 220.047 40.8203C220.484 40.8203 220.879 40.6211 221.23 40.2227C221.512 39.8867 221.758 39.3789 221.969 38.6992L223.598 31H227.055L225.332 39.1562C225.262 39.3906 225.227 39.6484 225.227 39.9297C225.227 40.2578 225.305 40.4883 225.461 40.6211C225.617 40.7539 225.867 40.8203 226.211 40.8203C226.656 40.8203 227.055 40.6211 227.406 40.2227C227.719 39.8711 227.969 39.3633 228.156 38.6992H229.164C228.734 39.918 228.215 40.8828 227.605 41.5938C227.09 42.1797 226.508 42.6016 225.859 42.8594C225.383 43.0469 224.879 43.1406 224.348 43.1406C223.66 43.1406 223.113 42.9492 222.707 42.5664C222.301 42.1836 222.055 41.6172 221.969 40.8672C221.422 41.7422 220.805 42.3672 220.117 42.7422C219.625 43.0078 219.059 43.1406 218.418 43.1406ZM231.59 43.1406C230.41 43.1406 229.5 42.8438 228.859 42.25C228.18 41.6172 227.84 40.6445 227.84 39.332C227.84 38.8398 227.891 38.293 227.992 37.6914C228.086 37.0898 228.23 36.4883 228.426 35.8867C228.645 35.2148 228.922 34.5781 229.258 33.9766C229.602 33.375 230 32.8438 230.453 32.3828C231.5 31.3203 232.789 30.7891 234.32 30.7891C235.297 30.7891 236.008 31.0234 236.453 31.4922C236.797 31.8594 236.969 32.3906 236.969 33.0859C236.969 33.7656 236.82 34.4062 236.523 35.0078C236.227 35.6016 235.816 36.1289 235.293 36.5898C234.77 37.043 234.176 37.4062 233.512 37.6797C232.848 37.9453 232.16 38.1016 231.449 38.1484C231.41 38.5547 231.391 38.875 231.391 39.1094C231.391 39.8906 231.539 40.4297 231.836 40.7266C232.094 40.9922 232.523 41.125 233.125 41.125C233.992 41.125 234.785 40.8906 235.504 40.4219C235.809 40.2266 236.102 39.9961 236.383 39.7305C236.664 39.457 236.992 39.1133 237.367 38.6992H238.188C237.43 39.9805 236.559 41 235.574 41.7578C234.363 42.6797 233.035 43.1406 231.59 43.1406ZM231.637 37C232.082 36.9688 232.516 36.8398 232.938 36.6133C233.359 36.3867 233.734 36.0898 234.062 35.7227C234.391 35.3477 234.648 34.9297 234.836 34.4688C235.023 34 235.117 33.5234 235.117 33.0391C235.117 32.7188 235.07 32.4766 234.977 32.3125C234.891 32.1406 234.738 32.0547 234.52 32.0547C234.23 32.0547 233.938 32.1953 233.641 32.4766C233.352 32.7578 233.07 33.1445 232.797 33.6367C232.547 34.0977 232.32 34.6211 232.117 35.207C231.914 35.793 231.754 36.3906 231.637 37ZM244.949 43.1406C244.184 43.1406 243.578 42.9141 243.133 42.4609C242.633 41.9609 242.383 41.2305 242.383 40.2695C242.383 39.8164 242.445 39.293 242.57 38.6992L244.199 31H247.656L245.934 39.1562C245.887 39.3984 245.863 39.625 245.863 39.8359C245.863 40.4922 246.102 40.8203 246.578 40.8203C247.016 40.8203 247.41 40.6211 247.762 40.2227C248.043 39.8867 248.289 39.3789 248.5 38.6992L250.129 31H253.586L251.863 39.1562C251.793 39.3906 251.758 39.6484 251.758 39.9297C251.758 40.2578 251.836 40.4883 251.992 40.6211C252.148 40.7539 252.398 40.8203 252.742 40.8203C253.188 40.8203 253.586 40.6211 253.938 40.2227C254.25 39.8711 254.5 39.3633 254.688 38.6992H255.695C255.266 39.918 254.746 40.8828 254.137 41.5938C253.621 42.1797 253.039 42.6016 252.391 42.8594C251.914 43.0469 251.41 43.1406 250.879 43.1406C250.191 43.1406 249.645 42.9492 249.238 42.5664C248.832 42.1836 248.586 41.6172 248.5 40.8672C247.953 41.7422 247.336 42.3672 246.648 42.7422C246.156 43.0078 245.59 43.1406 244.949 43.1406ZM261.719 30.1094H265.176L264.789 31.9141C265.602 31.2266 266.535 30.8828 267.59 30.8828C268.488 30.8828 269.184 31.1562 269.676 31.7031C270.238 32.3438 270.52 33.332 270.52 34.668C270.52 35.957 270.355 37.168 270.027 38.3008C269.613 39.7461 269.012 40.8672 268.223 41.6641C267.254 42.6484 266.051 43.1406 264.613 43.1406C264.059 43.1406 263.602 43.0547 263.242 42.8828C262.969 42.7578 262.746 42.5586 262.574 42.2852L261.332 48.1328L257.711 49L261.719 30.1094ZM263.875 41.0547C264.648 41.0547 265.312 40.6602 265.867 39.8711C266.305 39.2539 266.656 38.3867 266.922 37.2695C267.133 36.3711 267.238 35.4805 267.238 34.5977C267.238 33.8086 267.094 33.2461 266.805 32.9102C266.617 32.707 266.359 32.6055 266.031 32.6055C265.742 32.6055 265.449 32.707 265.152 32.9102C264.855 33.1133 264.598 33.4062 264.379 33.7891L262.961 40.5039C263.016 40.6602 263.117 40.793 263.266 40.9023C263.422 41.0039 263.625 41.0547 263.875 41.0547ZM274.926 43.1406C273.746 43.1406 272.836 42.8438 272.195 42.25C271.516 41.6172 271.176 40.6445 271.176 39.332C271.176 38.8398 271.227 38.293 271.328 37.6914C271.422 37.0898 271.566 36.4883 271.762 35.8867C271.98 35.2148 272.258 34.5781 272.594 33.9766C272.938 33.375 273.336 32.8438 273.789 32.3828C274.836 31.3203 276.125 30.7891 277.656 30.7891C278.633 30.7891 279.344 31.0234 279.789 31.4922C280.133 31.8594 280.305 32.3906 280.305 33.0859C280.305 33.7656 280.156 34.4062 279.859 35.0078C279.562 35.6016 279.152 36.1289 278.629 36.5898C278.105 37.043 277.512 37.4062 276.848 37.6797C276.184 37.9453 275.496 38.1016 274.785 38.1484C274.746 38.5547 274.727 38.875 274.727 39.1094C274.727 39.8828 274.871 40.4219 275.16 40.7266C275.418 40.9922 275.82 41.125 276.367 41.125C276.828 41.125 277.32 40.9688 277.844 40.6562C278.367 40.3359 278.875 39.8945 279.367 39.332C279.875 38.7539 280.316 38.0938 280.691 37.3516C281.066 36.6016 281.336 35.8203 281.5 35.0078L282.344 31H285.801L284.863 35.4648C284.816 35.6992 284.793 35.9219 284.793 36.1328C284.793 36.7891 285.031 37.1172 285.508 37.1172C285.961 37.1172 286.363 36.918 286.715 36.5195C287.043 36.1445 287.281 35.6406 287.43 35.0078L288.273 31H291.754L290.02 39.1562C289.957 39.3594 289.926 39.6172 289.926 39.9297C289.926 40.2578 290 40.4883 290.148 40.6211C290.305 40.7539 290.559 40.8203 290.91 40.8203C291.113 40.8203 291.262 40.8086 291.355 40.7852C291.449 40.7617 291.555 40.7227 291.672 40.668C291.617 41.4648 291.324 42.0898 290.793 42.543C290.559 42.7461 290.289 42.8984 289.984 43C289.688 43.0938 289.371 43.1406 289.035 43.1406C288.27 43.1406 287.664 42.9141 287.219 42.4609C286.719 41.9609 286.469 41.2305 286.469 40.2695C286.469 40.0039 286.488 39.7305 286.527 39.4492L286.668 38.6172C286.691 38.5156 286.707 38.4219 286.715 38.3359C286.73 38.25 286.746 38.1719 286.762 38.1016C286.293 38.6172 285.785 38.9805 285.238 39.1914C284.824 39.3633 284.371 39.4492 283.879 39.4492C283.324 39.4492 282.844 39.332 282.438 39.0977C282.039 38.8555 281.742 38.4844 281.547 37.9844C281.195 38.6406 280.785 39.2773 280.316 39.8945C279.855 40.5039 279.352 41.043 278.805 41.5117C278.211 42.0273 277.586 42.4297 276.93 42.7188C276.281 43 275.613 43.1406 274.926 43.1406ZM274.973 37C275.418 36.9688 275.852 36.8398 276.273 36.6133C276.695 36.3867 277.07 36.0898 277.398 35.7227C277.727 35.3477 277.984 34.9297 278.172 34.4688C278.359 34 278.453 33.5234 278.453 33.0391C278.453 32.7188 278.406 32.4766 278.312 32.3125C278.227 32.1406 278.074 32.0547 277.855 32.0547C277.566 32.0547 277.273 32.1953 276.977 32.4766C276.688 32.7578 276.406 33.1445 276.133 33.6367C275.883 34.0977 275.656 34.6211 275.453 35.207C275.25 35.793 275.09 36.3906 274.973 37ZM295.223 43.1406C294.668 43.1406 294.168 43.0703 293.723 42.9297C293.277 42.7891 292.902 42.5859 292.598 42.3203C292.285 42.0625 292.043 41.7422 291.871 41.3594C291.707 40.9766 291.625 40.5469 291.625 40.0703C291.625 39.5469 291.68 39.0898 291.789 38.6992L293.418 31H296.875L296.066 34.8906C296.566 34.6797 297.023 34.543 297.438 34.4805C297.734 34.4336 298.074 34.4102 298.457 34.4102C298.934 34.4102 299.363 34.4805 299.746 34.6211C300.137 34.7617 300.465 34.9688 300.73 35.2422C300.996 35.5156 301.199 35.8555 301.34 36.2617C301.488 36.6602 301.562 37.1055 301.562 37.5977C301.562 37.9414 301.508 38.3164 301.398 38.7227C301.297 39.1289 301.145 39.5312 300.941 39.9297C300.457 40.8516 299.777 41.5898 298.902 42.1445C297.879 42.8086 296.652 43.1406 295.223 43.1406ZM296.066 41.1016C296.363 41.1016 296.652 41 296.934 40.7969C297.223 40.5859 297.48 40.3047 297.707 39.9531C297.918 39.6172 298.086 39.2539 298.211 38.8633C298.344 38.4648 298.41 38.0898 298.41 37.7383C298.41 37.2539 298.301 36.875 298.082 36.6016C297.863 36.3203 297.543 36.1797 297.121 36.1797C296.941 36.1797 296.699 36.2266 296.395 36.3203C296.066 36.4141 295.836 36.5117 295.703 36.6133L295.105 39.4492C295.059 39.5586 295.035 39.6953 295.035 39.8594C295.035 40.0156 295.035 40.1016 295.035 40.1172C295.035 40.7734 295.379 41.1016 296.066 41.1016Z" fill="#16578D"></path> <path d="M72.123 63.7842C72.123 64.3877 71.9473 64.8594 71.5957 65.1992C71.2441 65.5332 70.79 65.7588 70.2334 65.876V65.9463C70.8369 66.0283 71.3555 66.2451 71.7891 66.5967C72.2285 66.9424 72.4482 67.4727 72.4482 68.1875C72.4482 68.7383 72.3164 69.2246 72.0527 69.6465C71.7891 70.0684 71.376 70.3994 70.8135 70.6396C70.251 70.8799 69.5186 71 68.6162 71H64.4678V61.3672H68.5811C69.2725 61.3672 69.8818 61.4463 70.4092 61.6045C70.9424 61.7568 71.3613 62.0088 71.666 62.3604C71.9707 62.7119 72.123 63.1865 72.123 63.7842ZM70.9277 68.1875C70.9277 67.6191 70.7109 67.209 70.2773 66.957C69.8496 66.7051 69.2256 66.5791 68.4053 66.5791H65.9355V69.8135H68.4404C69.249 69.8135 69.8643 69.6904 70.2861 69.4443C70.7139 69.1924 70.9277 68.7734 70.9277 68.1875ZM70.6377 63.9512C70.6377 63.4941 70.4707 63.1543 70.1367 62.9316C69.8027 62.7031 69.2549 62.5889 68.4932 62.5889H65.9355V65.3574H68.2383C69.0293 65.3574 69.627 65.2432 70.0312 65.0146C70.4355 64.7861 70.6377 64.4316 70.6377 63.9512ZM74.8037 71V61.3672H76.2715V65.3398H78.9082C79.7285 65.3398 80.4023 65.4424 80.9297 65.6475C81.4629 65.8525 81.8584 66.1572 82.1162 66.5615C82.374 66.9658 82.5029 67.4668 82.5029 68.0645C82.5029 68.6621 82.374 69.1807 82.1162 69.6201C81.8643 70.0596 81.4658 70.3994 80.9209 70.6396C80.3818 70.8799 79.6787 71 78.8115 71H74.8037ZM76.2715 69.8135H78.6709C79.3975 69.8135 79.9775 69.6846 80.4111 69.4268C80.8447 69.1689 81.0615 68.7383 81.0615 68.1348C81.0615 67.543 80.8594 67.1328 80.4551 66.9043C80.0508 66.6699 79.4707 66.5527 78.7148 66.5527H76.2715V69.8135ZM84.0938 71V61.3672H85.5527V71H84.0938ZM87.1172 61.3672H88.6816L90.8086 66.957C90.9316 67.2852 91.0459 67.6016 91.1514 67.9062C91.2568 68.2051 91.3506 68.4922 91.4326 68.7676C91.5146 69.043 91.5791 69.3096 91.626 69.5674H91.6875C91.7695 69.2744 91.8867 68.8906 92.0391 68.416C92.1914 67.9355 92.3555 67.4463 92.5312 66.9482L94.5439 61.3672H96.1172L91.9248 72.415C91.7021 73.0068 91.4414 73.5225 91.1426 73.9619C90.8496 74.4014 90.4922 74.7383 90.0703 74.9727C89.6484 75.2129 89.1387 75.333 88.541 75.333C88.2656 75.333 88.0225 75.3154 87.8115 75.2803C87.6006 75.251 87.4189 75.2158 87.2666 75.1748V74.0059C87.3955 74.0352 87.5508 74.0615 87.7324 74.085C87.9199 74.1084 88.1133 74.1201 88.3125 74.1201C88.6758 74.1201 88.9893 74.0498 89.2529 73.9092C89.5225 73.7744 89.7539 73.5752 89.9473 73.3115C90.1406 73.0479 90.3076 72.7344 90.4482 72.3711L90.9756 71.0176L87.1172 61.3672ZM98.9297 61.3672V64.8301C98.9297 65.4336 99.0938 65.8789 99.4219 66.166C99.7559 66.4531 100.239 66.5967 100.872 66.5967C101.481 66.5967 102.035 66.5029 102.533 66.3154C103.031 66.1279 103.535 65.873 104.045 65.5508V61.3672H105.504V71H104.045V66.6846C103.506 67.0303 102.976 67.3027 102.454 67.502C101.933 67.7012 101.309 67.8008 100.582 67.8008C99.5918 67.8008 98.8242 67.543 98.2793 67.0273C97.7402 66.5117 97.4707 65.8145 97.4707 64.9355V61.3672H98.9297ZM109.978 61.3672V67.4229C109.978 67.54 109.975 67.6924 109.969 67.8799C109.963 68.0615 109.954 68.2578 109.942 68.4688C109.931 68.6738 109.919 68.873 109.907 69.0664C109.901 69.2539 109.893 69.4092 109.881 69.5322L115.137 61.3672H116.93V71H115.567V65.0938C115.567 64.9062 115.57 64.666 115.576 64.373C115.582 64.0801 115.591 63.793 115.603 63.5117C115.614 63.2246 115.623 63.002 115.629 62.8438L110.391 71H108.589V61.3672H109.978ZM130.201 61.3672V71H128.883V64.7246C128.883 64.4668 128.889 64.2061 128.9 63.9424C128.918 63.6729 128.938 63.4033 128.962 63.1338H128.909L125.71 71H124.471L121.351 63.1338H121.298C121.315 63.4033 121.327 63.6729 121.333 63.9424C121.345 64.2061 121.351 64.4844 121.351 64.7773V71H120.023V61.3672H121.983L125.095 69.2422L128.25 61.3672H130.201ZM137.408 65.2168C137.408 63.8457 137.54 62.6768 137.804 61.71C138.067 60.7373 138.475 59.958 139.025 59.3721C139.582 58.7803 140.297 58.376 141.17 58.1592C141.92 57.9541 142.682 57.7783 143.455 57.6318C144.229 57.4795 144.981 57.3477 145.714 57.2363L145.969 58.5195C145.6 58.5723 145.213 58.6338 144.809 58.7041C144.404 58.7686 144 58.8389 143.596 58.915C143.191 58.9854 142.811 59.0615 142.453 59.1436C142.096 59.2197 141.779 59.2988 141.504 59.3809C141.006 59.5156 140.575 59.75 140.212 60.084C139.854 60.418 139.57 60.8779 139.359 61.4639C139.154 62.0498 139.031 62.7881 138.99 63.6787H139.096C139.271 63.4209 139.512 63.166 139.816 62.9141C140.121 62.6621 140.484 62.4541 140.906 62.29C141.328 62.1201 141.803 62.0352 142.33 62.0352C143.162 62.0352 143.856 62.2168 144.413 62.5801C144.97 62.9375 145.389 63.4414 145.67 64.0918C145.951 64.7422 146.092 65.5039 146.092 66.377C146.092 67.4258 145.91 68.3076 145.547 69.0225C145.189 69.7373 144.686 70.2764 144.035 70.6396C143.385 70.9971 142.62 71.1758 141.741 71.1758C141.062 71.1758 140.452 71.0439 139.913 70.7803C139.38 70.5166 138.926 70.1299 138.551 69.6201C138.182 69.1104 137.897 68.4863 137.698 67.748C137.505 67.0098 137.408 66.166 137.408 65.2168ZM141.855 69.9629C142.412 69.9629 142.89 69.8457 143.288 69.6113C143.692 69.377 144.003 69.0078 144.22 68.5039C144.442 67.9941 144.554 67.332 144.554 66.5176C144.554 65.498 144.357 64.7012 143.965 64.127C143.578 63.5469 142.957 63.2568 142.102 63.2568C141.568 63.2568 141.085 63.3711 140.651 63.5996C140.218 63.8223 139.852 64.0889 139.553 64.3994C139.254 64.71 139.037 64.9883 138.902 65.2344C138.902 65.832 138.946 66.4121 139.034 66.9746C139.122 67.5371 139.274 68.0439 139.491 68.4951C139.708 68.9463 140.007 69.3037 140.388 69.5674C140.774 69.8311 141.264 69.9629 141.855 69.9629ZM147.094 61.3672H148.658L150.785 66.957C150.908 67.2852 151.022 67.6016 151.128 67.9062C151.233 68.2051 151.327 68.4922 151.409 68.7676C151.491 69.043 151.556 69.3096 151.603 69.5674H151.664C151.746 69.2744 151.863 68.8906 152.016 68.416C152.168 67.9355 152.332 67.4463 152.508 66.9482L154.521 61.3672H156.094L151.901 72.415C151.679 73.0068 151.418 73.5225 151.119 73.9619C150.826 74.4014 150.469 74.7383 150.047 74.9727C149.625 75.2129 149.115 75.333 148.518 75.333C148.242 75.333 147.999 75.3154 147.788 75.2803C147.577 75.251 147.396 75.2158 147.243 75.1748V74.0059C147.372 74.0352 147.527 74.0615 147.709 74.085C147.896 74.1084 148.09 74.1201 148.289 74.1201C148.652 74.1201 148.966 74.0498 149.229 73.9092C149.499 73.7744 149.73 73.5752 149.924 73.3115C150.117 73.0479 150.284 72.7344 150.425 72.3711L150.952 71.0176L147.094 61.3672ZM163.248 61.3672H164.856L160.699 66.0166L165.19 71H163.477L159.1 66.1133V71H157.632V61.3672H159.1V66.043L163.248 61.3672ZM174.586 63.7842C174.586 64.3877 174.41 64.8594 174.059 65.1992C173.707 65.5332 173.253 65.7588 172.696 65.876V65.9463C173.3 66.0283 173.818 66.2451 174.252 66.5967C174.691 66.9424 174.911 67.4727 174.911 68.1875C174.911 68.7383 174.779 69.2246 174.516 69.6465C174.252 70.0684 173.839 70.3994 173.276 70.6396C172.714 70.8799 171.981 71 171.079 71H166.931V61.3672H171.044C171.735 61.3672 172.345 61.4463 172.872 61.6045C173.405 61.7568 173.824 62.0088 174.129 62.3604C174.434 62.7119 174.586 63.1865 174.586 63.7842ZM173.391 68.1875C173.391 67.6191 173.174 67.209 172.74 66.957C172.312 66.7051 171.688 66.5791 170.868 66.5791H168.398V69.8135H170.903C171.712 69.8135 172.327 69.6904 172.749 69.4443C173.177 69.1924 173.391 68.7734 173.391 68.1875ZM173.101 63.9512C173.101 63.4941 172.934 63.1543 172.6 62.9316C172.266 62.7031 171.718 62.5889 170.956 62.5889H168.398V65.3574H170.701C171.492 65.3574 172.09 65.2432 172.494 65.0146C172.898 64.7861 173.101 64.4316 173.101 63.9512ZM177.267 71V61.3672H178.734V65.3398H181.371C182.191 65.3398 182.865 65.4424 183.393 65.6475C183.926 65.8525 184.321 66.1572 184.579 66.5615C184.837 66.9658 184.966 67.4668 184.966 68.0645C184.966 68.6621 184.837 69.1807 184.579 69.6201C184.327 70.0596 183.929 70.3994 183.384 70.6396C182.845 70.8799 182.142 71 181.274 71H177.267ZM178.734 69.8135H181.134C181.86 69.8135 182.44 69.6846 182.874 69.4268C183.308 69.1689 183.524 68.7383 183.524 68.1348C183.524 67.543 183.322 67.1328 182.918 66.9043C182.514 66.6699 181.934 66.5527 181.178 66.5527H178.734V69.8135ZM186.557 71V61.3672H188.016V71H186.557ZM192.771 68.9082L192.885 69.1104C192.779 69.5381 192.645 69.9951 192.48 70.4814C192.322 70.9678 192.146 71.4541 191.953 71.9404C191.766 72.4326 191.575 72.8926 191.382 73.3203H190.292C190.415 72.8516 190.535 72.3564 190.652 71.835C190.77 71.3193 190.875 70.8096 190.969 70.3057C191.068 69.7959 191.147 69.3301 191.206 68.9082H192.771ZM201.902 61.3672V65.4102H207.272V61.3672H208.731V71H207.272V66.6494H201.902V71H200.435V61.3672H201.902ZM215.429 61.209C216.577 61.209 217.43 61.4668 217.986 61.9824C218.543 62.498 218.821 63.3213 218.821 64.4521V71H217.758L217.477 69.5762H217.406C217.137 69.9277 216.855 70.2236 216.562 70.4639C216.27 70.6982 215.93 70.877 215.543 71C215.162 71.1172 214.693 71.1758 214.137 71.1758C213.551 71.1758 213.029 71.0732 212.572 70.8682C212.121 70.6631 211.764 70.3525 211.5 69.9365C211.242 69.5205 211.113 68.9932 211.113 68.3545C211.113 67.3936 211.494 66.6553 212.256 66.1396C213.018 65.624 214.178 65.3428 215.736 65.2959L217.397 65.2256V64.6367C217.397 63.8047 217.219 63.2217 216.861 62.8877C216.504 62.5537 216 62.3867 215.35 62.3867C214.846 62.3867 214.365 62.46 213.908 62.6064C213.451 62.7529 213.018 62.9258 212.607 63.125L212.159 62.0176C212.593 61.7949 213.091 61.6045 213.653 61.4463C214.216 61.2881 214.808 61.209 215.429 61.209ZM217.38 66.2539L215.912 66.3154C214.711 66.3623 213.864 66.5586 213.372 66.9043C212.88 67.25 212.634 67.7393 212.634 68.3721C212.634 68.9229 212.801 69.3301 213.135 69.5938C213.469 69.8574 213.911 69.9893 214.462 69.9893C215.317 69.9893 216.018 69.752 216.562 69.2773C217.107 68.8027 217.38 68.0908 217.38 67.1416V66.2539ZM220.307 61.3672H221.871L223.998 66.957C224.121 67.2852 224.235 67.6016 224.341 67.9062C224.446 68.2051 224.54 68.4922 224.622 68.7676C224.704 69.043 224.769 69.3096 224.815 69.5674H224.877C224.959 69.2744 225.076 68.8906 225.229 68.416C225.381 67.9355 225.545 67.4463 225.721 66.9482L227.733 61.3672H229.307L225.114 72.415C224.892 73.0068 224.631 73.5225 224.332 73.9619C224.039 74.4014 223.682 74.7383 223.26 74.9727C222.838 75.2129 222.328 75.333 221.73 75.333C221.455 75.333 221.212 75.3154 221.001 75.2803C220.79 75.251 220.608 75.2158 220.456 75.1748V74.0059C220.585 74.0352 220.74 74.0615 220.922 74.085C221.109 74.1084 221.303 74.1201 221.502 74.1201C221.865 74.1201 222.179 74.0498 222.442 73.9092C222.712 73.7744 222.943 73.5752 223.137 73.3115C223.33 73.0479 223.497 72.7344 223.638 72.3711L224.165 71.0176L220.307 61.3672ZM232.119 61.3672V64.8301C232.119 65.4336 232.283 65.8789 232.611 66.166C232.945 66.4531 233.429 66.5967 234.062 66.5967C234.671 66.5967 235.225 66.5029 235.723 66.3154C236.221 66.1279 236.725 65.873 237.234 65.5508V61.3672H238.693V71H237.234V66.6846C236.695 67.0303 236.165 67.3027 235.644 67.502C235.122 67.7012 234.498 67.8008 233.771 67.8008C232.781 67.8008 232.014 67.543 231.469 67.0273C230.93 66.5117 230.66 65.8145 230.66 64.9355V61.3672H232.119ZM243.167 61.3672V67.4229C243.167 67.54 243.164 67.6924 243.158 67.8799C243.152 68.0615 243.144 68.2578 243.132 68.4688C243.12 68.6738 243.108 68.873 243.097 69.0664C243.091 69.2539 243.082 69.4092 243.07 69.5322L248.326 61.3672H250.119V71H248.757V65.0938C248.757 64.9062 248.76 64.666 248.766 64.373C248.771 64.0801 248.78 63.793 248.792 63.5117C248.804 63.2246 248.812 63.002 248.818 62.8438L243.58 71H241.778V61.3672H243.167ZM263.391 61.3672V71H262.072V64.7246C262.072 64.4668 262.078 64.2061 262.09 63.9424C262.107 63.6729 262.128 63.4033 262.151 63.1338H262.099L258.899 71H257.66L254.54 63.1338H254.487C254.505 63.4033 254.517 63.6729 254.522 63.9424C254.534 64.2061 254.54 64.4844 254.54 64.7773V71H253.213V61.3672H255.173L258.284 69.2422L261.439 61.3672H263.391ZM272.373 61.3672V64.8301C272.373 65.4336 272.537 65.8789 272.865 66.166C273.199 66.4531 273.683 66.5967 274.315 66.5967C274.925 66.5967 275.479 66.5029 275.977 66.3154C276.475 66.1279 276.979 65.873 277.488 65.5508V61.3672H278.947V71H277.488V66.6846C276.949 67.0303 276.419 67.3027 275.897 67.502C275.376 67.7012 274.752 67.8008 274.025 67.8008C273.035 67.8008 272.268 67.543 271.723 67.0273C271.184 66.5117 270.914 65.8145 270.914 64.9355V61.3672H272.373ZM283.421 61.3672V67.4229C283.421 67.54 283.418 67.6924 283.412 67.8799C283.406 68.0615 283.397 68.2578 283.386 68.4688C283.374 68.6738 283.362 68.873 283.351 69.0664C283.345 69.2539 283.336 69.4092 283.324 69.5322L288.58 61.3672H290.373V71H289.011V65.0938C289.011 64.9062 289.014 64.666 289.02 64.373C289.025 64.0801 289.034 63.793 289.046 63.5117C289.058 63.2246 289.066 63.002 289.072 62.8438L283.834 71H282.032V61.3672H283.421ZM300.041 62.6064H296.868V71H295.427V62.6064H292.298V61.3672H300.041V62.6064ZM305.552 61.209C306.7 61.209 307.553 61.4668 308.109 61.9824C308.666 62.498 308.944 63.3213 308.944 64.4521V71H307.881L307.6 69.5762H307.529C307.26 69.9277 306.979 70.2236 306.686 70.4639C306.393 70.6982 306.053 70.877 305.666 71C305.285 71.1172 304.816 71.1758 304.26 71.1758C303.674 71.1758 303.152 71.0732 302.695 70.8682C302.244 70.6631 301.887 70.3525 301.623 69.9365C301.365 69.5205 301.236 68.9932 301.236 68.3545C301.236 67.3936 301.617 66.6553 302.379 66.1396C303.141 65.624 304.301 65.3428 305.859 65.2959L307.521 65.2256V64.6367C307.521 63.8047 307.342 63.2217 306.984 62.8877C306.627 62.5537 306.123 62.3867 305.473 62.3867C304.969 62.3867 304.488 62.46 304.031 62.6064C303.574 62.7529 303.141 62.9258 302.73 63.125L302.282 62.0176C302.716 61.7949 303.214 61.6045 303.776 61.4463C304.339 61.2881 304.931 61.209 305.552 61.209ZM307.503 66.2539L306.035 66.3154C304.834 66.3623 303.987 66.5586 303.495 66.9043C303.003 67.25 302.757 67.7393 302.757 68.3721C302.757 68.9229 302.924 69.3301 303.258 69.5938C303.592 69.8574 304.034 69.9893 304.585 69.9893C305.44 69.9893 306.141 69.752 306.686 69.2773C307.23 68.8027 307.503 68.0908 307.503 67.1416V66.2539ZM318.516 62.6064H315.343V71H313.901V62.6064H310.772V61.3672H318.516V62.6064ZM321.891 65.3398H324.844C325.664 65.3398 326.347 65.4424 326.892 65.6475C327.437 65.8525 327.844 66.1572 328.113 66.5615C328.389 66.9658 328.526 67.4668 328.526 68.0645C328.526 68.6621 328.392 69.1807 328.122 69.6201C327.858 70.0596 327.448 70.3994 326.892 70.6396C326.341 70.8799 325.629 71 324.756 71H320.423V61.3672H321.891V65.3398ZM327.059 68.1348C327.059 67.543 326.848 67.1328 326.426 66.9043C326.01 66.6699 325.427 66.5527 324.677 66.5527H321.891V69.8135H324.686C325.389 69.8135 325.96 69.6846 326.399 69.4268C326.839 69.1631 327.059 68.7324 327.059 68.1348ZM339.574 71.1758C338.707 71.1758 337.942 70.9971 337.28 70.6396C336.618 70.2822 336.103 69.7373 335.733 69.0049C335.364 68.2725 335.18 67.3496 335.18 66.2363C335.18 65.0703 335.373 64.1182 335.76 63.3799C336.152 62.6357 336.691 62.085 337.377 61.7275C338.062 61.3701 338.842 61.1914 339.715 61.1914C340.195 61.1914 340.658 61.2412 341.104 61.3408C341.555 61.4346 341.924 61.5547 342.211 61.7012L341.771 62.9229C341.479 62.8057 341.139 62.7002 340.752 62.6064C340.371 62.5127 340.014 62.4658 339.68 62.4658C339.012 62.4658 338.455 62.6094 338.01 62.8965C337.57 63.1836 337.239 63.6055 337.017 64.1621C336.8 64.7188 336.691 65.4043 336.691 66.2188C336.691 66.998 336.797 67.6631 337.008 68.2139C337.225 68.7646 337.544 69.1865 337.966 69.4795C338.394 69.7666 338.927 69.9102 339.565 69.9102C340.075 69.9102 340.535 69.8574 340.945 69.752C341.355 69.6406 341.728 69.5117 342.062 69.3652V70.666C341.739 70.8301 341.379 70.9561 340.98 71.0439C340.588 71.1318 340.119 71.1758 339.574 71.1758ZM351.571 71H350.086V62.5889H347.159C347.042 64.1064 346.893 65.4072 346.711 66.4912C346.535 67.5693 346.312 68.4512 346.043 69.1367C345.779 69.8164 345.457 70.3174 345.076 70.6396C344.701 70.9561 344.253 71.1143 343.731 71.1143C343.573 71.1143 343.424 71.1055 343.283 71.0879C343.143 71.0703 343.022 71.041 342.923 71V69.8926C342.999 69.916 343.078 69.9336 343.16 69.9453C343.248 69.957 343.339 69.9629 343.433 69.9629C343.696 69.9629 343.937 69.8545 344.153 69.6377C344.376 69.415 344.575 69.0811 344.751 68.6357C344.933 68.1904 345.094 67.6279 345.234 66.9482C345.375 66.2627 345.498 65.457 345.604 64.5312C345.715 63.5996 345.812 62.5449 345.894 61.3672H351.571V71ZM362.953 66.166C362.953 66.957 362.851 67.6631 362.646 68.2842C362.44 68.9053 362.145 69.4297 361.758 69.8574C361.371 70.2852 360.902 70.6133 360.352 70.8418C359.807 71.0645 359.188 71.1758 358.497 71.1758C357.853 71.1758 357.261 71.0645 356.722 70.8418C356.188 70.6133 355.726 70.2852 355.333 69.8574C354.946 69.4297 354.645 68.9053 354.428 68.2842C354.217 67.6631 354.111 66.957 354.111 66.166C354.111 65.1113 354.29 64.2148 354.647 63.4766C355.005 62.7324 355.515 62.167 356.177 61.7803C356.845 61.3877 357.639 61.1914 358.559 61.1914C359.438 61.1914 360.205 61.3877 360.861 61.7803C361.523 62.1729 362.036 62.7412 362.399 63.4854C362.769 64.2236 362.953 65.1172 362.953 66.166ZM355.623 66.166C355.623 66.9395 355.726 67.6104 355.931 68.1787C356.136 68.7471 356.452 69.1865 356.88 69.4971C357.308 69.8076 357.858 69.9629 358.532 69.9629C359.2 69.9629 359.748 69.8076 360.176 69.4971C360.609 69.1865 360.929 68.7471 361.134 68.1787C361.339 67.6104 361.441 66.9395 361.441 66.166C361.441 65.3984 361.339 64.7363 361.134 64.1797C360.929 63.6172 360.612 63.1836 360.185 62.8789C359.757 62.5742 359.203 62.4219 358.523 62.4219C357.521 62.4219 356.786 62.7529 356.317 63.415C355.854 64.0771 355.623 64.9941 355.623 66.166ZM373.131 63.7842C373.131 64.3877 372.955 64.8594 372.604 65.1992C372.252 65.5332 371.798 65.7588 371.241 65.876V65.9463C371.845 66.0283 372.363 66.2451 372.797 66.5967C373.236 66.9424 373.456 67.4727 373.456 68.1875C373.456 68.7383 373.324 69.2246 373.061 69.6465C372.797 70.0684 372.384 70.3994 371.821 70.6396C371.259 70.8799 370.526 71 369.624 71H365.476V61.3672H369.589C370.28 61.3672 370.89 61.4463 371.417 61.6045C371.95 61.7568 372.369 62.0088 372.674 62.3604C372.979 62.7119 373.131 63.1865 373.131 63.7842ZM371.936 68.1875C371.936 67.6191 371.719 67.209 371.285 66.957C370.857 66.7051 370.233 66.5791 369.413 66.5791H366.943V69.8135H369.448C370.257 69.8135 370.872 69.6904 371.294 69.4443C371.722 69.1924 371.936 68.7734 371.936 68.1875ZM371.646 63.9512C371.646 63.4941 371.479 63.1543 371.145 62.9316C370.811 62.7031 370.263 62.5889 369.501 62.5889H366.943V65.3574H369.246C370.037 65.3574 370.635 65.2432 371.039 65.0146C371.443 64.7861 371.646 64.4316 371.646 63.9512ZM379.415 61.209C380.563 61.209 381.416 61.4668 381.973 61.9824C382.529 62.498 382.808 63.3213 382.808 64.4521V71H381.744L381.463 69.5762H381.393C381.123 69.9277 380.842 70.2236 380.549 70.4639C380.256 70.6982 379.916 70.877 379.529 71C379.148 71.1172 378.68 71.1758 378.123 71.1758C377.537 71.1758 377.016 71.0732 376.559 70.8682C376.107 70.6631 375.75 70.3525 375.486 69.9365C375.229 69.5205 375.1 68.9932 375.1 68.3545C375.1 67.3936 375.48 66.6553 376.242 66.1396C377.004 65.624 378.164 65.3428 379.723 65.2959L381.384 65.2256V64.6367C381.384 63.8047 381.205 63.2217 380.848 62.8877C380.49 62.5537 379.986 62.3867 379.336 62.3867C378.832 62.3867 378.352 62.46 377.895 62.6064C377.438 62.7529 377.004 62.9258 376.594 63.125L376.146 62.0176C376.579 61.7949 377.077 61.6045 377.64 61.4463C378.202 61.2881 378.794 61.209 379.415 61.209ZM381.366 66.2539L379.898 66.3154C378.697 66.3623 377.851 66.5586 377.358 66.9043C376.866 67.25 376.62 67.7393 376.62 68.3721C376.62 68.9229 376.787 69.3301 377.121 69.5938C377.455 69.8574 377.897 69.9893 378.448 69.9893C379.304 69.9893 380.004 69.752 380.549 69.2773C381.094 68.8027 381.366 68.0908 381.366 67.1416V66.2539ZM396.554 61.3672V67.4229C396.554 67.54 396.551 67.6924 396.545 67.8799C396.539 68.0615 396.53 68.2578 396.519 68.4688C396.507 68.6738 396.495 68.873 396.483 69.0664C396.478 69.2539 396.469 69.4092 396.457 69.5322L401.713 61.3672H403.506V71H402.144V65.0938C402.144 64.9062 402.146 64.666 402.152 64.373C402.158 64.0801 402.167 63.793 402.179 63.5117C402.19 63.2246 402.199 63.002 402.205 62.8438L396.967 71H395.165V61.3672H396.554ZM72.5361 86.3672V96H71.0684V87.624H65.9355V96H64.4678V86.3672H72.5361ZM80.1562 86.1914C81.3574 86.1914 82.3154 86.6045 83.0303 87.4307C83.7451 88.2568 84.1025 89.499 84.1025 91.1572C84.1025 92.2529 83.9385 93.1729 83.6104 93.917C83.2822 94.6611 82.8193 95.2236 82.2217 95.6045C81.6299 95.9854 80.9297 96.1758 80.1211 96.1758C79.6113 96.1758 79.1631 96.1084 78.7764 95.9736C78.3896 95.8389 78.0586 95.6572 77.7832 95.4287C77.5078 95.2002 77.2793 94.9512 77.0977 94.6816H76.9922C77.0098 94.9102 77.0303 95.1855 77.0537 95.5078C77.083 95.8301 77.0977 96.1113 77.0977 96.3516V100.307H75.6299V86.3672H76.834L77.0273 87.791H77.0977C77.2852 87.498 77.5137 87.2314 77.7832 86.9912C78.0527 86.7451 78.3809 86.5518 78.7676 86.4111C79.1602 86.2646 79.623 86.1914 80.1562 86.1914ZM79.9014 87.4219C79.2334 87.4219 78.6943 87.5508 78.2842 87.8086C77.8799 88.0664 77.584 88.4531 77.3965 88.9688C77.209 89.4785 77.1094 90.1201 77.0977 90.8936V91.1748C77.0977 91.9893 77.1855 92.6777 77.3613 93.2402C77.543 93.8027 77.8389 94.2305 78.249 94.5234C78.665 94.8164 79.2217 94.9629 79.9189 94.9629C80.5166 94.9629 81.0146 94.8018 81.4131 94.4795C81.8115 94.1572 82.1074 93.709 82.3008 93.1348C82.5 92.5547 82.5996 91.8896 82.5996 91.1396C82.5996 90.0029 82.377 89.1006 81.9316 88.4326C81.4922 87.7588 80.8154 87.4219 79.9014 87.4219ZM90.3604 86.1914C91.1807 86.1914 91.8838 86.373 92.4697 86.7363C93.0557 87.0996 93.5039 87.6094 93.8145 88.2656C94.125 88.916 94.2803 89.6777 94.2803 90.5508V91.4561H87.627C87.6445 92.5869 87.9258 93.4482 88.4707 94.04C89.0156 94.6318 89.7832 94.9277 90.7734 94.9277C91.3828 94.9277 91.9219 94.8721 92.3906 94.7607C92.8594 94.6494 93.3457 94.4854 93.8496 94.2686V95.5518C93.3633 95.7686 92.8799 95.9268 92.3994 96.0264C91.9248 96.126 91.3623 96.1758 90.7119 96.1758C89.7861 96.1758 88.9775 95.9883 88.2861 95.6133C87.6006 95.2324 87.0674 94.6758 86.6865 93.9434C86.3057 93.2109 86.1152 92.3145 86.1152 91.2539C86.1152 90.2168 86.2881 89.3203 86.6338 88.5645C86.9854 87.8027 87.4775 87.2168 88.1104 86.8066C88.749 86.3965 89.499 86.1914 90.3604 86.1914ZM90.3428 87.3867C89.5635 87.3867 88.9424 87.6416 88.4795 88.1514C88.0166 88.6611 87.7412 89.373 87.6533 90.2871H92.751C92.7451 89.7129 92.6543 89.209 92.4785 88.7754C92.3086 88.3359 92.0479 87.9961 91.6963 87.7559C91.3447 87.5098 90.8936 87.3867 90.3428 87.3867ZM103.816 86.3672V94.7607H105.196V99.3311H103.781V96H96.9609V99.3311H95.5635V94.7607H96.3193C96.8701 93.999 97.3271 93.1641 97.6904 92.2559C98.0537 91.3477 98.3291 90.3955 98.5166 89.3994C98.7041 88.3975 98.8037 87.3867 98.8154 86.3672H103.816ZM102.401 87.5273H100.116C100.063 88.3828 99.9375 89.2529 99.7383 90.1377C99.5449 91.0225 99.2871 91.8662 98.9648 92.6689C98.6426 93.4658 98.2676 94.1631 97.8398 94.7607H102.401V87.5273ZM114.337 96H112.852V87.5889H109.925C109.808 89.1064 109.658 90.4072 109.477 91.4912C109.301 92.5693 109.078 93.4512 108.809 94.1367C108.545 94.8164 108.223 95.3174 107.842 95.6396C107.467 95.9561 107.019 96.1143 106.497 96.1143C106.339 96.1143 106.189 96.1055 106.049 96.0879C105.908 96.0703 105.788 96.041 105.688 96V94.8926C105.765 94.916 105.844 94.9336 105.926 94.9453C106.014 94.957 106.104 94.9629 106.198 94.9629C106.462 94.9629 106.702 94.8545 106.919 94.6377C107.142 94.415 107.341 94.0811 107.517 93.6357C107.698 93.1904 107.859 92.6279 108 91.9482C108.141 91.2627 108.264 90.457 108.369 89.5312C108.48 88.5996 108.577 87.5449 108.659 86.3672H114.337V96ZM125.719 91.166C125.719 91.957 125.616 92.6631 125.411 93.2842C125.206 93.9053 124.91 94.4297 124.523 94.8574C124.137 95.2852 123.668 95.6133 123.117 95.8418C122.572 96.0645 121.954 96.1758 121.263 96.1758C120.618 96.1758 120.026 96.0645 119.487 95.8418C118.954 95.6133 118.491 95.2852 118.099 94.8574C117.712 94.4297 117.41 93.9053 117.193 93.2842C116.982 92.6631 116.877 91.957 116.877 91.166C116.877 90.1113 117.056 89.2148 117.413 88.4766C117.771 87.7324 118.28 87.167 118.942 86.7803C119.61 86.3877 120.404 86.1914 121.324 86.1914C122.203 86.1914 122.971 86.3877 123.627 86.7803C124.289 87.1729 124.802 87.7412 125.165 88.4854C125.534 89.2236 125.719 90.1172 125.719 91.166ZM118.389 91.166C118.389 91.9395 118.491 92.6104 118.696 93.1787C118.901 93.7471 119.218 94.1865 119.646 94.4971C120.073 94.8076 120.624 94.9629 121.298 94.9629C121.966 94.9629 122.514 94.8076 122.941 94.4971C123.375 94.1865 123.694 93.7471 123.899 93.1787C124.104 92.6104 124.207 91.9395 124.207 91.166C124.207 90.3984 124.104 89.7363 123.899 89.1797C123.694 88.6172 123.378 88.1836 122.95 87.8789C122.522 87.5742 121.969 87.4219 121.289 87.4219C120.287 87.4219 119.552 87.7529 119.083 88.415C118.62 89.0771 118.389 89.9941 118.389 91.166ZM139.526 86.3672L135.519 91.0518L139.869 96H138.199L133.98 91.1133V96H132.618V91.1133L128.408 96H126.738L131.089 91.0518L127.072 86.3672H128.681L132.618 91.043V86.3672H133.98V91.043L137.936 86.3672H139.526ZM145.187 86.1914C146.007 86.1914 146.71 86.373 147.296 86.7363C147.882 87.0996 148.33 87.6094 148.641 88.2656C148.951 88.916 149.106 89.6777 149.106 90.5508V91.4561H142.453C142.471 92.5869 142.752 93.4482 143.297 94.04C143.842 94.6318 144.609 94.9277 145.6 94.9277C146.209 94.9277 146.748 94.8721 147.217 94.7607C147.686 94.6494 148.172 94.4854 148.676 94.2686V95.5518C148.189 95.7686 147.706 95.9268 147.226 96.0264C146.751 96.126 146.188 96.1758 145.538 96.1758C144.612 96.1758 143.804 95.9883 143.112 95.6133C142.427 95.2324 141.894 94.6758 141.513 93.9434C141.132 93.2109 140.941 92.3145 140.941 91.2539C140.941 90.2168 141.114 89.3203 141.46 88.5645C141.812 87.8027 142.304 87.2168 142.937 86.8066C143.575 86.3965 144.325 86.1914 145.187 86.1914ZM145.169 87.3867C144.39 87.3867 143.769 87.6416 143.306 88.1514C142.843 88.6611 142.567 89.373 142.479 90.2871H147.577C147.571 89.7129 147.48 89.209 147.305 88.7754C147.135 88.3359 146.874 87.9961 146.522 87.7559C146.171 87.5098 145.72 87.3867 145.169 87.3867ZM153.053 86.3672V90.4102H158.423V86.3672H159.882V96H158.423V91.6494H153.053V96H151.585V86.3672H153.053ZM164.364 86.3672V92.4229C164.364 92.54 164.361 92.6924 164.355 92.8799C164.35 93.0615 164.341 93.2578 164.329 93.4688C164.317 93.6738 164.306 93.873 164.294 94.0664C164.288 94.2539 164.279 94.4092 164.268 94.5322L169.523 86.3672H171.316V96H169.954V90.0938C169.954 89.9062 169.957 89.666 169.963 89.373C169.969 89.0801 169.978 88.793 169.989 88.5117C170.001 88.2246 170.01 88.002 170.016 87.8438L164.777 96H162.976V86.3672H164.364ZM174.885 96H173.18L175.957 91.9395C175.553 91.8516 175.178 91.7021 174.832 91.4912C174.486 91.2744 174.205 90.9785 173.988 90.6035C173.777 90.2285 173.672 89.7627 173.672 89.2061C173.672 88.2803 173.979 87.5771 174.595 87.0967C175.216 86.6104 176.033 86.3672 177.047 86.3672H181.31V96H179.851V92.1328H177.407L174.885 96ZM175.087 89.2148C175.087 89.7891 175.292 90.2168 175.702 90.498C176.112 90.7734 176.698 90.9111 177.46 90.9111H179.851V87.5889H177.205C176.455 87.5889 175.913 87.7412 175.579 88.0459C175.251 88.3447 175.087 88.7344 175.087 89.2148ZM192.92 96.1758C192.053 96.1758 191.288 95.9971 190.626 95.6396C189.964 95.2822 189.448 94.7373 189.079 94.0049C188.71 93.2725 188.525 92.3496 188.525 91.2363C188.525 90.0703 188.719 89.1182 189.105 88.3799C189.498 87.6357 190.037 87.085 190.723 86.7275C191.408 86.3701 192.188 86.1914 193.061 86.1914C193.541 86.1914 194.004 86.2412 194.449 86.3408C194.9 86.4346 195.27 86.5547 195.557 86.7012L195.117 87.9229C194.824 87.8057 194.484 87.7002 194.098 87.6064C193.717 87.5127 193.359 87.4658 193.025 87.4658C192.357 87.4658 191.801 87.6094 191.355 87.8965C190.916 88.1836 190.585 88.6055 190.362 89.1621C190.146 89.7188 190.037 90.4043 190.037 91.2188C190.037 91.998 190.143 92.6631 190.354 93.2139C190.57 93.7646 190.89 94.1865 191.312 94.4795C191.739 94.7666 192.272 94.9102 192.911 94.9102C193.421 94.9102 193.881 94.8574 194.291 94.752C194.701 94.6406 195.073 94.5117 195.407 94.3652V95.666C195.085 95.8301 194.725 95.9561 194.326 96.0439C193.934 96.1318 193.465 96.1758 192.92 96.1758ZM203.757 86.3672V92.4229C203.757 92.54 203.754 92.6924 203.748 92.8799C203.742 93.0615 203.733 93.2578 203.722 93.4688C203.71 93.6738 203.698 93.873 203.687 94.0664C203.681 94.2539 203.672 94.4092 203.66 94.5322L208.916 86.3672H210.709V96H209.347V90.0938C209.347 89.9062 209.35 89.666 209.355 89.373C209.361 89.0801 209.37 88.793 209.382 88.5117C209.394 88.2246 209.402 88.002 209.408 87.8438L204.17 96H202.368V86.3672H203.757ZM215.279 86.3672V90.4102H220.649V86.3672H222.108V96H220.649V91.6494H215.279V96H213.812V86.3672H215.279ZM231.768 87.6064H228.595V96H227.153V87.6064H224.024V86.3672H231.768V87.6064ZM241.98 91.166C241.98 91.957 241.878 92.6631 241.673 93.2842C241.468 93.9053 241.172 94.4297 240.785 94.8574C240.398 95.2852 239.93 95.6133 239.379 95.8418C238.834 96.0645 238.216 96.1758 237.524 96.1758C236.88 96.1758 236.288 96.0645 235.749 95.8418C235.216 95.6133 234.753 95.2852 234.36 94.8574C233.974 94.4297 233.672 93.9053 233.455 93.2842C233.244 92.6631 233.139 91.957 233.139 91.166C233.139 90.1113 233.317 89.2148 233.675 88.4766C234.032 87.7324 234.542 87.167 235.204 86.7803C235.872 86.3877 236.666 86.1914 237.586 86.1914C238.465 86.1914 239.232 86.3877 239.889 86.7803C240.551 87.1729 241.063 87.7412 241.427 88.4854C241.796 89.2236 241.98 90.1172 241.98 91.166ZM234.65 91.166C234.65 91.9395 234.753 92.6104 234.958 93.1787C235.163 93.7471 235.479 94.1865 235.907 94.4971C236.335 94.8076 236.886 94.9629 237.56 94.9629C238.228 94.9629 238.775 94.8076 239.203 94.4971C239.637 94.1865 239.956 93.7471 240.161 93.1787C240.366 92.6104 240.469 91.9395 240.469 91.166C240.469 90.3984 240.366 89.7363 240.161 89.1797C239.956 88.6172 239.64 88.1836 239.212 87.8789C238.784 87.5742 238.23 87.4219 237.551 87.4219C236.549 87.4219 235.813 87.7529 235.345 88.415C234.882 89.0771 234.65 89.9941 234.65 91.166ZM245.971 86.3672V90.4102H251.341V86.3672H252.8V96H251.341V91.6494H245.971V96H244.503V86.3672H245.971ZM259.497 86.209C260.646 86.209 261.498 86.4668 262.055 86.9824C262.611 87.498 262.89 88.3213 262.89 89.4521V96H261.826L261.545 94.5762H261.475C261.205 94.9277 260.924 95.2236 260.631 95.4639C260.338 95.6982 259.998 95.877 259.611 96C259.23 96.1172 258.762 96.1758 258.205 96.1758C257.619 96.1758 257.098 96.0732 256.641 95.8682C256.189 95.6631 255.832 95.3525 255.568 94.9365C255.311 94.5205 255.182 93.9932 255.182 93.3545C255.182 92.3936 255.562 91.6553 256.324 91.1396C257.086 90.624 258.246 90.3428 259.805 90.2959L261.466 90.2256V89.6367C261.466 88.8047 261.287 88.2217 260.93 87.8877C260.572 87.5537 260.068 87.3867 259.418 87.3867C258.914 87.3867 258.434 87.46 257.977 87.6064C257.52 87.7529 257.086 87.9258 256.676 88.125L256.228 87.0176C256.661 86.7949 257.159 86.6045 257.722 86.4463C258.284 86.2881 258.876 86.209 259.497 86.209ZM261.448 91.2539L259.98 91.3154C258.779 91.3623 257.933 91.5586 257.44 91.9043C256.948 92.25 256.702 92.7393 256.702 93.3721C256.702 93.9229 256.869 94.3301 257.203 94.5938C257.537 94.8574 257.979 94.9893 258.53 94.9893C259.386 94.9893 260.086 94.752 260.631 94.2773C261.176 93.8027 261.448 93.0908 261.448 92.1416V91.2539ZM275.273 99.3311H273.85V96H265.896V86.3672H267.363V94.7607H272.47V86.3672H273.929V94.7783H275.273V99.3311ZM278.552 86.3672V92.4229C278.552 92.54 278.549 92.6924 278.543 92.8799C278.537 93.0615 278.528 93.2578 278.517 93.4688C278.505 93.6738 278.493 93.873 278.481 94.0664C278.476 94.2539 278.467 94.4092 278.455 94.5322L283.711 86.3672H285.504V96H284.142V90.0938C284.142 89.9062 284.145 89.666 284.15 89.373C284.156 89.0801 284.165 88.793 284.177 88.5117C284.188 88.2246 284.197 88.002 284.203 87.8438L278.965 96H277.163V86.3672H278.552ZM292.315 86.1914C293.136 86.1914 293.839 86.373 294.425 86.7363C295.011 87.0996 295.459 87.6094 295.77 88.2656C296.08 88.916 296.235 89.6777 296.235 90.5508V91.4561H289.582C289.6 92.5869 289.881 93.4482 290.426 94.04C290.971 94.6318 291.738 94.9277 292.729 94.9277C293.338 94.9277 293.877 94.8721 294.346 94.7607C294.814 94.6494 295.301 94.4854 295.805 94.2686V95.5518C295.318 95.7686 294.835 95.9268 294.354 96.0264C293.88 96.126 293.317 96.1758 292.667 96.1758C291.741 96.1758 290.933 95.9883 290.241 95.6133C289.556 95.2324 289.022 94.6758 288.642 93.9434C288.261 93.2109 288.07 92.3145 288.07 91.2539C288.07 90.2168 288.243 89.3203 288.589 88.5645C288.94 87.8027 289.433 87.2168 290.065 86.8066C290.704 86.3965 291.454 86.1914 292.315 86.1914ZM292.298 87.3867C291.519 87.3867 290.897 87.6416 290.435 88.1514C289.972 88.6611 289.696 89.373 289.608 90.2871H294.706C294.7 89.7129 294.609 89.209 294.434 88.7754C294.264 88.3359 294.003 87.9961 293.651 87.7559C293.3 87.5098 292.849 87.3867 292.298 87.3867ZM300.103 86.3672V92.4229C300.103 92.54 300.1 92.6924 300.094 92.8799C300.088 93.0615 300.079 93.2578 300.067 93.4688C300.056 93.6738 300.044 93.873 300.032 94.0664C300.026 94.2539 300.018 94.4092 300.006 94.5322L305.262 86.3672H307.055V96H305.692V90.0938C305.692 89.9062 305.695 89.666 305.701 89.373C305.707 89.0801 305.716 88.793 305.728 88.5117C305.739 88.2246 305.748 88.002 305.754 87.8438L300.516 96H298.714V86.3672H300.103ZM306.334 82.4033C306.281 82.9951 306.132 83.4902 305.886 83.8887C305.646 84.2871 305.291 84.5889 304.822 84.7939C304.354 84.9932 303.753 85.0928 303.021 85.0928C302.265 85.0928 301.655 84.9961 301.192 84.8027C300.735 84.6035 300.396 84.3047 300.173 83.9062C299.956 83.5078 299.827 83.0068 299.786 82.4033H301.157C301.222 83.0479 301.395 83.4873 301.676 83.7217C301.957 83.9561 302.414 84.0732 303.047 84.0732C303.609 84.0732 304.052 83.9502 304.374 83.7041C304.696 83.458 304.89 83.0244 304.954 82.4033H306.334ZM311.827 93.9082L311.941 94.1104C311.836 94.5381 311.701 94.9951 311.537 95.4814C311.379 95.9678 311.203 96.4541 311.01 96.9404C310.822 97.4326 310.632 97.8926 310.438 98.3203H309.349C309.472 97.8516 309.592 97.3564 309.709 96.835C309.826 96.3193 309.932 95.8096 310.025 95.3057C310.125 94.7959 310.204 94.3301 310.263 93.9082H311.827ZM327.56 86.3672V96H326.092V87.624H320.959V96H319.491V86.3672H327.56ZM338.959 91.166C338.959 91.957 338.856 92.6631 338.651 93.2842C338.446 93.9053 338.15 94.4297 337.764 94.8574C337.377 95.2852 336.908 95.6133 336.357 95.8418C335.812 96.0645 335.194 96.1758 334.503 96.1758C333.858 96.1758 333.267 96.0645 332.728 95.8418C332.194 95.6133 331.731 95.2852 331.339 94.8574C330.952 94.4297 330.65 93.9053 330.434 93.2842C330.223 92.6631 330.117 91.957 330.117 91.166C330.117 90.1113 330.296 89.2148 330.653 88.4766C331.011 87.7324 331.521 87.167 332.183 86.7803C332.851 86.3877 333.645 86.1914 334.564 86.1914C335.443 86.1914 336.211 86.3877 336.867 86.7803C337.529 87.1729 338.042 87.7412 338.405 88.4854C338.774 89.2236 338.959 90.1172 338.959 91.166ZM331.629 91.166C331.629 91.9395 331.731 92.6104 331.937 93.1787C332.142 93.7471 332.458 94.1865 332.886 94.4971C333.313 94.8076 333.864 94.9629 334.538 94.9629C335.206 94.9629 335.754 94.8076 336.182 94.4971C336.615 94.1865 336.935 93.7471 337.14 93.1787C337.345 92.6104 337.447 91.9395 337.447 91.166C337.447 90.3984 337.345 89.7363 337.14 89.1797C336.935 88.6172 336.618 88.1836 336.19 87.8789C335.763 87.5742 335.209 87.4219 334.529 87.4219C333.527 87.4219 332.792 87.7529 332.323 88.415C331.86 89.0771 331.629 89.9941 331.629 91.166ZM342.949 86.3672V90.4102H348.319V86.3672H349.778V96H348.319V91.6494H342.949V96H341.481V86.3672H342.949ZM354.261 86.3672V92.4229C354.261 92.54 354.258 92.6924 354.252 92.8799C354.246 93.0615 354.237 93.2578 354.226 93.4688C354.214 93.6738 354.202 93.873 354.19 94.0664C354.185 94.2539 354.176 94.4092 354.164 94.5322L359.42 86.3672H361.213V96H359.851V90.0938C359.851 89.9062 359.854 89.666 359.859 89.373C359.865 89.0801 359.874 88.793 359.886 88.5117C359.897 88.2246 359.906 88.002 359.912 87.8438L354.674 96H352.872V86.3672H354.261ZM374.484 86.3672V96H373.166V89.7246C373.166 89.4668 373.172 89.2061 373.184 88.9424C373.201 88.6729 373.222 88.4033 373.245 88.1338H373.192L369.993 96H368.754L365.634 88.1338H365.581C365.599 88.4033 365.61 88.6729 365.616 88.9424C365.628 89.2061 365.634 89.4844 365.634 89.7773V96H364.307V86.3672H366.267L369.378 94.2422L372.533 86.3672H374.484ZM381.12 86.209C382.269 86.209 383.121 86.4668 383.678 86.9824C384.234 87.498 384.513 88.3213 384.513 89.4521V96H383.449L383.168 94.5762H383.098C382.828 94.9277 382.547 95.2236 382.254 95.4639C381.961 95.6982 381.621 95.877 381.234 96C380.854 96.1172 380.385 96.1758 379.828 96.1758C379.242 96.1758 378.721 96.0732 378.264 95.8682C377.812 95.6631 377.455 95.3525 377.191 94.9365C376.934 94.5205 376.805 93.9932 376.805 93.3545C376.805 92.3936 377.186 91.6553 377.947 91.1396C378.709 90.624 379.869 90.3428 381.428 90.2959L383.089 90.2256V89.6367C383.089 88.8047 382.91 88.2217 382.553 87.8877C382.195 87.5537 381.691 87.3867 381.041 87.3867C380.537 87.3867 380.057 87.46 379.6 87.6064C379.143 87.7529 378.709 87.9258 378.299 88.125L377.851 87.0176C378.284 86.7949 378.782 86.6045 379.345 86.4463C379.907 86.2881 380.499 86.209 381.12 86.209ZM383.071 91.2539L381.604 91.3154C380.402 91.3623 379.556 91.5586 379.063 91.9043C378.571 92.25 378.325 92.7393 378.325 93.3721C378.325 93.9229 378.492 94.3301 378.826 94.5938C379.16 94.8574 379.603 94.9893 380.153 94.9893C381.009 94.9893 381.709 94.752 382.254 94.2773C382.799 93.8027 383.071 93.0908 383.071 92.1416V91.2539ZM394.084 87.6064H390.911V96H389.47V87.6064H386.341V86.3672H394.084V87.6064ZM397.459 90.3398H400.412C401.232 90.3398 401.915 90.4424 402.46 90.6475C403.005 90.8525 403.412 91.1572 403.682 91.5615C403.957 91.9658 404.095 92.4668 404.095 93.0645C404.095 93.6621 403.96 94.1807 403.69 94.6201C403.427 95.0596 403.017 95.3994 402.46 95.6396C401.909 95.8799 401.197 96 400.324 96H395.991V86.3672H397.459V90.3398ZM402.627 93.1348C402.627 92.543 402.416 92.1328 401.994 91.9043C401.578 91.6699 400.995 91.5527 400.245 91.5527H397.459V94.8135H400.254C400.957 94.8135 401.528 94.6846 401.968 94.4268C402.407 94.1631 402.627 93.7324 402.627 93.1348ZM146.725 121.176C145.857 121.176 145.093 120.997 144.431 120.64C143.769 120.282 143.253 119.737 142.884 119.005C142.515 118.272 142.33 117.35 142.33 116.236C142.33 115.07 142.523 114.118 142.91 113.38C143.303 112.636 143.842 112.085 144.527 111.728C145.213 111.37 145.992 111.191 146.865 111.191C147.346 111.191 147.809 111.241 148.254 111.341C148.705 111.435 149.074 111.555 149.361 111.701L148.922 112.923C148.629 112.806 148.289 112.7 147.902 112.606C147.521 112.513 147.164 112.466 146.83 112.466C146.162 112.466 145.605 112.609 145.16 112.896C144.721 113.184 144.39 113.605 144.167 114.162C143.95 114.719 143.842 115.404 143.842 116.219C143.842 116.998 143.947 117.663 144.158 118.214C144.375 118.765 144.694 119.187 145.116 119.479C145.544 119.767 146.077 119.91 146.716 119.91C147.226 119.91 147.686 119.857 148.096 119.752C148.506 119.641 148.878 119.512 149.212 119.365V120.666C148.89 120.83 148.529 120.956 148.131 121.044C147.738 121.132 147.27 121.176 146.725 121.176ZM161.666 111.367V121H160.348V114.725C160.348 114.467 160.354 114.206 160.365 113.942C160.383 113.673 160.403 113.403 160.427 113.134H160.374L157.175 121H155.936L152.815 113.134H152.763C152.78 113.403 152.792 113.673 152.798 113.942C152.81 114.206 152.815 114.484 152.815 114.777V121H151.488V111.367H153.448L156.56 119.242L159.715 111.367H161.666ZM164.698 121V111.367H166.166V115.34H168.803C169.623 115.34 170.297 115.442 170.824 115.647C171.357 115.853 171.753 116.157 172.011 116.562C172.269 116.966 172.397 117.467 172.397 118.064C172.397 118.662 172.269 119.181 172.011 119.62C171.759 120.06 171.36 120.399 170.815 120.64C170.276 120.88 169.573 121 168.706 121H164.698ZM166.166 119.813H168.565C169.292 119.813 169.872 119.685 170.306 119.427C170.739 119.169 170.956 118.738 170.956 118.135C170.956 117.543 170.754 117.133 170.35 116.904C169.945 116.67 169.365 116.553 168.609 116.553H166.166V119.813ZM173.988 121V111.367H175.447V121H173.988ZM182.391 121.176C181.523 121.176 180.759 120.997 180.097 120.64C179.435 120.282 178.919 119.737 178.55 119.005C178.181 118.272 177.996 117.35 177.996 116.236C177.996 115.07 178.189 114.118 178.576 113.38C178.969 112.636 179.508 112.085 180.193 111.728C180.879 111.37 181.658 111.191 182.531 111.191C183.012 111.191 183.475 111.241 183.92 111.341C184.371 111.435 184.74 111.555 185.027 111.701L184.588 112.923C184.295 112.806 183.955 112.7 183.568 112.606C183.188 112.513 182.83 112.466 182.496 112.466C181.828 112.466 181.271 112.609 180.826 112.896C180.387 113.184 180.056 113.605 179.833 114.162C179.616 114.719 179.508 115.404 179.508 116.219C179.508 116.998 179.613 117.663 179.824 118.214C180.041 118.765 180.36 119.187 180.782 119.479C181.21 119.767 181.743 119.91 182.382 119.91C182.892 119.91 183.352 119.857 183.762 119.752C184.172 119.641 184.544 119.512 184.878 119.365V120.666C184.556 120.83 184.195 120.956 183.797 121.044C183.404 121.132 182.936 121.176 182.391 121.176ZM194.388 121H192.902V112.589H189.976C189.858 114.106 189.709 115.407 189.527 116.491C189.352 117.569 189.129 118.451 188.859 119.137C188.596 119.816 188.273 120.317 187.893 120.64C187.518 120.956 187.069 121.114 186.548 121.114C186.39 121.114 186.24 121.105 186.1 121.088C185.959 121.07 185.839 121.041 185.739 121V119.893C185.815 119.916 185.895 119.934 185.977 119.945C186.064 119.957 186.155 119.963 186.249 119.963C186.513 119.963 186.753 119.854 186.97 119.638C187.192 119.415 187.392 119.081 187.567 118.636C187.749 118.19 187.91 117.628 188.051 116.948C188.191 116.263 188.314 115.457 188.42 114.531C188.531 113.6 188.628 112.545 188.71 111.367H194.388V121ZM210.208 111.367V121H208.74V112.624H203.607V121H202.14V111.367H210.208ZM217.828 111.191C219.029 111.191 219.987 111.604 220.702 112.431C221.417 113.257 221.774 114.499 221.774 116.157C221.774 117.253 221.61 118.173 221.282 118.917C220.954 119.661 220.491 120.224 219.894 120.604C219.302 120.985 218.602 121.176 217.793 121.176C217.283 121.176 216.835 121.108 216.448 120.974C216.062 120.839 215.73 120.657 215.455 120.429C215.18 120.2 214.951 119.951 214.77 119.682H214.664C214.682 119.91 214.702 120.186 214.726 120.508C214.755 120.83 214.77 121.111 214.77 121.352V125.307H213.302V111.367H214.506L214.699 112.791H214.77C214.957 112.498 215.186 112.231 215.455 111.991C215.725 111.745 216.053 111.552 216.439 111.411C216.832 111.265 217.295 111.191 217.828 111.191ZM217.573 112.422C216.905 112.422 216.366 112.551 215.956 112.809C215.552 113.066 215.256 113.453 215.068 113.969C214.881 114.479 214.781 115.12 214.77 115.894V116.175C214.77 116.989 214.857 117.678 215.033 118.24C215.215 118.803 215.511 119.23 215.921 119.523C216.337 119.816 216.894 119.963 217.591 119.963C218.188 119.963 218.687 119.802 219.085 119.479C219.483 119.157 219.779 118.709 219.973 118.135C220.172 117.555 220.271 116.89 220.271 116.14C220.271 115.003 220.049 114.101 219.604 113.433C219.164 112.759 218.487 112.422 217.573 112.422ZM232.629 116.166C232.629 116.957 232.526 117.663 232.321 118.284C232.116 118.905 231.82 119.43 231.434 119.857C231.047 120.285 230.578 120.613 230.027 120.842C229.482 121.064 228.864 121.176 228.173 121.176C227.528 121.176 226.937 121.064 226.397 120.842C225.864 120.613 225.401 120.285 225.009 119.857C224.622 119.43 224.32 118.905 224.104 118.284C223.893 117.663 223.787 116.957 223.787 116.166C223.787 115.111 223.966 114.215 224.323 113.477C224.681 112.732 225.19 112.167 225.853 111.78C226.521 111.388 227.314 111.191 228.234 111.191C229.113 111.191 229.881 111.388 230.537 111.78C231.199 112.173 231.712 112.741 232.075 113.485C232.444 114.224 232.629 115.117 232.629 116.166ZM225.299 116.166C225.299 116.939 225.401 117.61 225.606 118.179C225.812 118.747 226.128 119.187 226.556 119.497C226.983 119.808 227.534 119.963 228.208 119.963C228.876 119.963 229.424 119.808 229.852 119.497C230.285 119.187 230.604 118.747 230.81 118.179C231.015 117.61 231.117 116.939 231.117 116.166C231.117 115.398 231.015 114.736 230.81 114.18C230.604 113.617 230.288 113.184 229.86 112.879C229.433 112.574 228.879 112.422 228.199 112.422C227.197 112.422 226.462 112.753 225.993 113.415C225.53 114.077 225.299 114.994 225.299 116.166ZM236.426 111.367V114.83C236.426 115.434 236.59 115.879 236.918 116.166C237.252 116.453 237.735 116.597 238.368 116.597C238.978 116.597 239.531 116.503 240.029 116.315C240.527 116.128 241.031 115.873 241.541 115.551V111.367H243V121H241.541V116.685C241.002 117.03 240.472 117.303 239.95 117.502C239.429 117.701 238.805 117.801 238.078 117.801C237.088 117.801 236.32 117.543 235.775 117.027C235.236 116.512 234.967 115.814 234.967 114.936V111.367H236.426ZM247.474 111.367V117.423C247.474 117.54 247.471 117.692 247.465 117.88C247.459 118.062 247.45 118.258 247.438 118.469C247.427 118.674 247.415 118.873 247.403 119.066C247.397 119.254 247.389 119.409 247.377 119.532L252.633 111.367H254.426V121H253.063V115.094C253.063 114.906 253.066 114.666 253.072 114.373C253.078 114.08 253.087 113.793 253.099 113.512C253.11 113.225 253.119 113.002 253.125 112.844L247.887 121H246.085V111.367H247.474ZM264.094 112.606H260.921V121H259.479V112.606H256.351V111.367H264.094V112.606ZM269.604 111.209C270.753 111.209 271.605 111.467 272.162 111.982C272.719 112.498 272.997 113.321 272.997 114.452V121H271.934L271.652 119.576H271.582C271.312 119.928 271.031 120.224 270.738 120.464C270.445 120.698 270.105 120.877 269.719 121C269.338 121.117 268.869 121.176 268.312 121.176C267.727 121.176 267.205 121.073 266.748 120.868C266.297 120.663 265.939 120.353 265.676 119.937C265.418 119.521 265.289 118.993 265.289 118.354C265.289 117.394 265.67 116.655 266.432 116.14C267.193 115.624 268.354 115.343 269.912 115.296L271.573 115.226V114.637C271.573 113.805 271.395 113.222 271.037 112.888C270.68 112.554 270.176 112.387 269.525 112.387C269.021 112.387 268.541 112.46 268.084 112.606C267.627 112.753 267.193 112.926 266.783 113.125L266.335 112.018C266.769 111.795 267.267 111.604 267.829 111.446C268.392 111.288 268.983 111.209 269.604 111.209ZM271.556 116.254L270.088 116.315C268.887 116.362 268.04 116.559 267.548 116.904C267.056 117.25 266.81 117.739 266.81 118.372C266.81 118.923 266.977 119.33 267.311 119.594C267.645 119.857 268.087 119.989 268.638 119.989C269.493 119.989 270.193 119.752 270.738 119.277C271.283 118.803 271.556 118.091 271.556 117.142V116.254ZM277.471 111.367V115.41H282.841V111.367H284.3V121H282.841V116.649H277.471V121H276.003V111.367H277.471ZM288.861 111.367V115.41H294.231V111.367H295.69V121H294.231V116.649H288.861V121H287.394V111.367H288.861ZM307.09 116.166C307.09 116.957 306.987 117.663 306.782 118.284C306.577 118.905 306.281 119.43 305.895 119.857C305.508 120.285 305.039 120.613 304.488 120.842C303.943 121.064 303.325 121.176 302.634 121.176C301.989 121.176 301.397 121.064 300.858 120.842C300.325 120.613 299.862 120.285 299.47 119.857C299.083 119.43 298.781 118.905 298.564 118.284C298.354 117.663 298.248 116.957 298.248 116.166C298.248 115.111 298.427 114.215 298.784 113.477C299.142 112.732 299.651 112.167 300.313 111.78C300.981 111.388 301.775 111.191 302.695 111.191C303.574 111.191 304.342 111.388 304.998 111.78C305.66 112.173 306.173 112.741 306.536 113.485C306.905 114.224 307.09 115.117 307.09 116.166ZM299.76 116.166C299.76 116.939 299.862 117.61 300.067 118.179C300.272 118.747 300.589 119.187 301.017 119.497C301.444 119.808 301.995 119.963 302.669 119.963C303.337 119.963 303.885 119.808 304.312 119.497C304.746 119.187 305.065 118.747 305.271 118.179C305.476 117.61 305.578 116.939 305.578 116.166C305.578 115.398 305.476 114.736 305.271 114.18C305.065 113.617 304.749 113.184 304.321 112.879C303.894 112.574 303.34 112.422 302.66 112.422C301.658 112.422 300.923 112.753 300.454 113.415C299.991 114.077 299.76 114.994 299.76 116.166ZM315.457 111.367V112.606H311.08V121H309.612V111.367H315.457ZM325.688 116.166C325.688 116.957 325.585 117.663 325.38 118.284C325.175 118.905 324.879 119.43 324.492 119.857C324.105 120.285 323.637 120.613 323.086 120.842C322.541 121.064 321.923 121.176 321.231 121.176C320.587 121.176 319.995 121.064 319.456 120.842C318.923 120.613 318.46 120.285 318.067 119.857C317.681 119.43 317.379 118.905 317.162 118.284C316.951 117.663 316.846 116.957 316.846 116.166C316.846 115.111 317.024 114.215 317.382 113.477C317.739 112.732 318.249 112.167 318.911 111.78C319.579 111.388 320.373 111.191 321.293 111.191C322.172 111.191 322.939 111.388 323.596 111.78C324.258 112.173 324.771 112.741 325.134 113.485C325.503 114.224 325.688 115.117 325.688 116.166ZM318.357 116.166C318.357 116.939 318.46 117.61 318.665 118.179C318.87 118.747 319.187 119.187 319.614 119.497C320.042 119.808 320.593 119.963 321.267 119.963C321.935 119.963 322.482 119.808 322.91 119.497C323.344 119.187 323.663 118.747 323.868 118.179C324.073 117.61 324.176 116.939 324.176 116.166C324.176 115.398 324.073 114.736 323.868 114.18C323.663 113.617 323.347 113.184 322.919 112.879C322.491 112.574 321.938 112.422 321.258 112.422C320.256 112.422 319.521 112.753 319.052 113.415C318.589 114.077 318.357 114.994 318.357 116.166Z" fill="#16578D"></path> </g> <defs> <filter id="filter0_d_332_481" x="0" y="0" width="468" height="154" filterUnits="userSpaceOnUse" color-interpolation-filters="sRGB"> <feFlood flood-opacity="0" result="BackgroundImageFix"></feFlood> <feColorMatrix in="SourceAlpha" type="matrix" values="0 0 0 0 0 0 0 0 0 0 0 0 0 0 0 0 0 0 127 0" result="hardAlpha"></feColorMatrix> <feOffset dy="4"></feOffset> <feGaussianBlur stdDeviation="2"></feGaussianBlur> <feComposite in2="hardAlpha" operator="out"></feComposite> <feColorMatrix type="matrix" values="0 0 0 0 0.729412 0 0 0 0 0.988235 0 0 0 0 0.737255 0 0 0 0.58 0"></feColorMatrix> <feBlend mode="normal" in2="BackgroundImageFix" result="effect1_dropShadow_332_481"></feBlend> <feBlend mode="normal" in="SourceGraphic" in2="effect1_dropShadow_332_481" result="shape"></feBlend> </filter> </defs> </svg> 