<?xml version="1.0" encoding="UTF-8"?> <svg xmlns="http://www.w3.org/2000/svg" width="468" height="154" viewBox="0 0 468 154" fill="none"> <g filter="url(#filter0_d_163_14621)"> <rect x="4" width="460" height="146" rx="70" fill="#BAFCBC"></rect> <path d="M152.578 45.6875C151.557 45.6875 150.745 45.3854 150.141 44.7812C149.474 44.1146 149.141 43.1406 149.141 41.8594C149.141 41.2969 149.229 40.599 149.406 39.7656L149.562 38.9688C148.927 39.6562 148.255 40.1406 147.547 40.4219C146.995 40.651 146.385 40.7656 145.719 40.7656C144.698 40.7656 143.891 40.4635 143.297 39.8594C142.63 39.1927 142.297 38.2135 142.297 36.9219C142.297 36.3906 142.385 35.6979 142.562 34.8438L143.672 29.5H148.281L147.031 35.4531C146.969 35.7656 146.938 36.0625 146.938 36.3438C146.938 37.2188 147.26 37.6562 147.906 37.6562C148.51 37.6562 149.047 37.3906 149.516 36.8594C149.964 36.349 150.276 35.6771 150.453 34.8438L151.578 29.5H156.188L153.891 40.375C153.797 40.6875 153.75 41.0312 153.75 41.4062C153.75 41.8438 153.854 42.151 154.062 42.3281C154.271 42.5052 154.604 42.5938 155.062 42.5938C155.656 42.5938 156.188 42.3281 156.656 41.7969C157.073 41.3281 157.406 40.651 157.656 39.7656H159C158.427 41.3906 157.734 42.6771 156.922 43.625C156.234 44.4062 155.458 44.9688 154.594 45.3125C153.958 45.5625 153.286 45.6875 152.578 45.6875ZM177.109 45.6875C175.786 45.6875 174.807 45.3125 174.172 44.5625C173.62 43.9167 173.344 43.0885 173.344 42.0781C173.344 41.599 173.401 41.0417 173.516 40.4062C173.641 39.7708 173.823 38.9531 174.062 37.9531C174.302 36.9323 174.479 36.1198 174.594 35.5156C174.719 34.901 174.781 34.3698 174.781 33.9219C174.781 32.8281 174.396 32.2812 173.625 32.2812C173.083 32.2812 172.583 32.5677 172.125 33.1406C171.74 33.6302 171.406 34.3281 171.125 35.2344L168.953 45.5H164.344L166.688 34.4531C166.75 34.2031 166.781 33.9375 166.781 33.6562C166.781 33.2292 166.714 32.901 166.578 32.6719C166.401 32.3906 166.146 32.25 165.812 32.25C165.208 32.25 164.682 32.5417 164.234 33.125C163.839 33.625 163.5 34.3281 163.219 35.2344L161.047 45.5H156.438L159.828 29.5H164.438L164.094 31.1562C164.719 30.4583 165.401 29.9635 166.141 29.6719C166.724 29.4531 167.344 29.3438 168 29.3438C168.896 29.3438 169.609 29.5521 170.141 29.9688C170.734 30.4375 171.115 31.1458 171.281 32.0938C171.969 31.0312 172.76 30.2812 173.656 29.8438C174.292 29.5312 174.984 29.375 175.734 29.375C176.807 29.375 177.656 29.6562 178.281 30.2188C178.948 30.8333 179.281 31.7552 179.281 32.9844C179.281 33.6823 179.151 34.6458 178.891 35.875C178.786 36.3854 178.661 36.901 178.516 37.4219C178.255 38.4219 178.042 39.3438 177.875 40.1875C177.792 40.625 177.75 40.9792 177.75 41.25C177.75 41.6771 177.844 42.0104 178.031 42.25C178.229 42.4792 178.562 42.5938 179.031 42.5938C179.667 42.5938 180.203 42.3333 180.641 41.8125C180.974 41.4167 181.333 40.7344 181.719 39.7656H183.062C182.271 42.1094 181.271 43.75 180.062 44.6875C179.208 45.3542 178.224 45.6875 177.109 45.6875ZM186.297 45.6875C184.724 45.6875 183.51 45.2917 182.656 44.5C181.75 43.6562 181.297 42.3594 181.297 40.6094C181.297 39.9531 181.365 39.224 181.5 38.4219C181.625 37.6198 181.818 36.8177 182.078 36.0156C182.37 35.1198 182.74 34.2708 183.188 33.4688C183.646 32.6667 184.177 31.9583 184.781 31.3438C186.177 29.9271 187.896 29.2188 189.938 29.2188C191.24 29.2188 192.188 29.5312 192.781 30.1562C193.24 30.6458 193.469 31.3542 193.469 32.2812C193.469 33.1875 193.271 34.0417 192.875 34.8438C192.479 35.6354 191.932 36.3385 191.234 36.9531C190.536 37.5573 189.745 38.0417 188.859 38.4062C187.974 38.7604 187.057 38.9688 186.109 39.0312C186.057 39.5729 186.031 40 186.031 40.3125C186.031 41.3542 186.229 42.0729 186.625 42.4688C186.969 42.8229 187.542 43 188.344 43C189.5 43 190.557 42.6875 191.516 42.0625C191.922 41.8021 192.312 41.4948 192.688 41.1406C193.062 40.776 193.5 40.3177 194 39.7656H195.094C194.083 41.474 192.922 42.8333 191.609 43.8438C189.995 45.0729 188.224 45.6875 186.297 45.6875ZM186.359 37.5C186.953 37.4583 187.531 37.2865 188.094 36.9844C188.656 36.6823 189.156 36.2865 189.594 35.7969C190.031 35.2969 190.375 34.7396 190.625 34.125C190.875 33.5 191 32.8646 191 32.2188C191 31.7917 190.938 31.4688 190.812 31.25C190.698 31.0208 190.495 30.9062 190.203 30.9062C189.818 30.9062 189.427 31.0938 189.031 31.4688C188.646 31.8438 188.271 32.3594 187.906 33.0156C187.573 33.6302 187.271 34.3281 187 35.1094C186.729 35.8906 186.516 36.6875 186.359 37.5ZM205.609 45.6875C204.38 45.6875 203.432 45.3438 202.766 44.6562C202.464 44.3542 202.234 44 202.078 43.5938C201.922 43.1771 201.844 42.7448 201.844 42.2969C201.844 41.901 201.901 41.3646 202.016 40.6875C202.141 40.0104 202.328 39.0521 202.578 37.8125H199.031L197.391 45.5H192.781L196.172 29.5H200.781L199.406 35.9062H202.984L204.438 29.5H208.719L207.031 37.4375L206.469 39.9062C206.323 40.5521 206.25 41 206.25 41.25C206.25 42.1458 206.677 42.5938 207.531 42.5938C207.854 42.5938 208.135 42.5417 208.375 42.4375C208.615 42.3229 208.839 42.1458 209.047 41.9062C209.234 41.6875 209.411 41.4167 209.578 41.0938C209.755 40.7708 209.969 40.3281 210.219 39.7656H211.562C210.219 43.7135 208.234 45.6875 205.609 45.6875ZM213.391 45.6875C212.37 45.6875 211.562 45.3854 210.969 44.7812C210.302 44.1146 209.969 43.1406 209.969 41.8594C209.969 41.2552 210.052 40.5573 210.219 39.7656L212.391 29.5H217L214.703 40.375C214.641 40.6979 214.609 41 214.609 41.2812C214.609 42.1562 214.927 42.5938 215.562 42.5938C216.146 42.5938 216.672 42.3281 217.141 41.7969C217.516 41.349 217.844 40.6719 218.125 39.7656L220.297 29.5H224.906L222.609 40.375C222.516 40.6875 222.469 41.0312 222.469 41.4062C222.469 41.8438 222.573 42.151 222.781 42.3281C222.99 42.5052 223.323 42.5938 223.781 42.5938C224.375 42.5938 224.906 42.3281 225.375 41.7969C225.792 41.3281 226.125 40.651 226.375 39.7656H227.719C227.146 41.3906 226.453 42.6771 225.641 43.625C224.953 44.4062 224.177 44.9688 223.312 45.3125C222.677 45.5625 222.005 45.6875 221.297 45.6875C220.38 45.6875 219.651 45.4323 219.109 44.9219C218.568 44.4115 218.24 43.6562 218.125 42.6562C217.396 43.8229 216.573 44.6562 215.656 45.1562C215 45.5104 214.245 45.6875 213.391 45.6875ZM230.953 45.6875C229.38 45.6875 228.167 45.2917 227.312 44.5C226.406 43.6562 225.953 42.3594 225.953 40.6094C225.953 39.9531 226.021 39.224 226.156 38.4219C226.281 37.6198 226.474 36.8177 226.734 36.0156C227.026 35.1198 227.396 34.2708 227.844 33.4688C228.302 32.6667 228.833 31.9583 229.438 31.3438C230.833 29.9271 232.552 29.2188 234.594 29.2188C235.896 29.2188 236.844 29.5312 237.438 30.1562C237.896 30.6458 238.125 31.3542 238.125 32.2812C238.125 33.1875 237.927 34.0417 237.531 34.8438C237.135 35.6354 236.589 36.3385 235.891 36.9531C235.193 37.5573 234.401 38.0417 233.516 38.4062C232.63 38.7604 231.714 38.9688 230.766 39.0312C230.714 39.5729 230.688 40 230.688 40.3125C230.688 41.3542 230.885 42.0729 231.281 42.4688C231.625 42.8229 232.198 43 233 43C234.156 43 235.214 42.6875 236.172 42.0625C236.578 41.8021 236.969 41.4948 237.344 41.1406C237.719 40.776 238.156 40.3177 238.656 39.7656H239.75C238.74 41.474 237.578 42.8333 236.266 43.8438C234.651 45.0729 232.88 45.6875 230.953 45.6875ZM231.016 37.5C231.609 37.4583 232.188 37.2865 232.75 36.9844C233.312 36.6823 233.812 36.2865 234.25 35.7969C234.688 35.2969 235.031 34.7396 235.281 34.125C235.531 33.5 235.656 32.8646 235.656 32.2188C235.656 31.7917 235.594 31.4688 235.469 31.25C235.354 31.0208 235.151 30.9062 234.859 30.9062C234.474 30.9062 234.083 31.0938 233.688 31.4688C233.302 31.8438 232.927 32.3594 232.562 33.0156C232.229 33.6302 231.927 34.3281 231.656 35.1094C231.385 35.8906 231.172 36.6875 231.016 37.5ZM248.766 45.6875C247.745 45.6875 246.938 45.3854 246.344 44.7812C245.677 44.1146 245.344 43.1406 245.344 41.8594C245.344 41.2552 245.427 40.5573 245.594 39.7656L247.766 29.5H252.375L250.078 40.375C250.016 40.6979 249.984 41 249.984 41.2812C249.984 42.1562 250.302 42.5938 250.938 42.5938C251.521 42.5938 252.047 42.3281 252.516 41.7969C252.891 41.349 253.219 40.6719 253.5 39.7656L255.672 29.5H260.281L257.984 40.375C257.891 40.6875 257.844 41.0312 257.844 41.4062C257.844 41.8438 257.948 42.151 258.156 42.3281C258.365 42.5052 258.698 42.5938 259.156 42.5938C259.75 42.5938 260.281 42.3281 260.75 41.7969C261.167 41.3281 261.5 40.651 261.75 39.7656H263.094C262.521 41.3906 261.828 42.6771 261.016 43.625C260.328 44.4062 259.552 44.9688 258.688 45.3125C258.052 45.5625 257.38 45.6875 256.672 45.6875C255.755 45.6875 255.026 45.4323 254.484 44.9219C253.943 44.4115 253.615 43.6562 253.5 42.6562C252.771 43.8229 251.948 44.6562 251.031 45.1562C250.375 45.5104 249.62 45.6875 248.766 45.6875ZM271.125 28.3125H275.734L275.219 30.7188C276.302 29.8021 277.547 29.3438 278.953 29.3438C280.151 29.3438 281.078 29.7083 281.734 30.4375C282.484 31.2917 282.859 32.6094 282.859 34.3906C282.859 36.1094 282.641 37.724 282.203 39.2344C281.651 41.1615 280.849 42.6562 279.797 43.7188C278.505 45.0312 276.901 45.6875 274.984 45.6875C274.245 45.6875 273.635 45.5729 273.156 45.3438C272.792 45.1771 272.495 44.9115 272.266 44.5469L270.609 52.3438L265.781 53.5L271.125 28.3125ZM274 42.9062C275.031 42.9062 275.917 42.3802 276.656 41.3281C277.24 40.5052 277.708 39.349 278.062 37.8594C278.344 36.6615 278.484 35.474 278.484 34.2969C278.484 33.2448 278.292 32.4948 277.906 32.0469C277.656 31.776 277.312 31.6406 276.875 31.6406C276.49 31.6406 276.099 31.776 275.703 32.0469C275.307 32.3177 274.964 32.7083 274.672 33.2188L272.781 42.1719C272.854 42.3802 272.99 42.5573 273.188 42.7031C273.396 42.8385 273.667 42.9062 274 42.9062ZM288.734 45.6875C287.161 45.6875 285.948 45.2917 285.094 44.5C284.188 43.6562 283.734 42.3594 283.734 40.6094C283.734 39.9531 283.802 39.224 283.938 38.4219C284.062 37.6198 284.255 36.8177 284.516 36.0156C284.807 35.1198 285.177 34.2708 285.625 33.4688C286.083 32.6667 286.615 31.9583 287.219 31.3438C288.615 29.9271 290.333 29.2188 292.375 29.2188C293.677 29.2188 294.625 29.5312 295.219 30.1562C295.677 30.6458 295.906 31.3542 295.906 32.2812C295.906 33.1875 295.708 34.0417 295.312 34.8438C294.917 35.6354 294.37 36.3385 293.672 36.9531C292.974 37.5573 292.182 38.0417 291.297 38.4062C290.411 38.7604 289.495 38.9688 288.547 39.0312C288.495 39.5729 288.469 40 288.469 40.3125C288.469 41.3438 288.661 42.0625 289.047 42.4688C289.391 42.8229 289.927 43 290.656 43C291.271 43 291.927 42.7917 292.625 42.375C293.323 41.9479 294 41.3594 294.656 40.6094C295.333 39.8385 295.922 38.9583 296.422 37.9688C296.922 36.9688 297.281 35.9271 297.5 34.8438L298.625 29.5H303.234L301.984 35.4531C301.922 35.7656 301.891 36.0625 301.891 36.3438C301.891 37.2188 302.208 37.6562 302.844 37.6562C303.448 37.6562 303.984 37.3906 304.453 36.8594C304.891 36.3594 305.208 35.6875 305.406 34.8438L306.531 29.5H311.172L308.859 40.375C308.776 40.6458 308.734 40.9896 308.734 41.4062C308.734 41.8438 308.833 42.151 309.031 42.3281C309.24 42.5052 309.578 42.5938 310.047 42.5938C310.318 42.5938 310.516 42.5781 310.641 42.5469C310.766 42.5156 310.906 42.4635 311.062 42.3906C310.99 43.4531 310.599 44.2865 309.891 44.8906C309.578 45.1615 309.219 45.3646 308.812 45.5C308.417 45.625 307.995 45.6875 307.547 45.6875C306.526 45.6875 305.719 45.3854 305.125 44.7812C304.458 44.1146 304.125 43.1406 304.125 41.8594C304.125 41.5052 304.151 41.1406 304.203 40.7656L304.391 39.6562C304.422 39.5208 304.443 39.3958 304.453 39.2812C304.474 39.1667 304.495 39.0625 304.516 38.9688C303.891 39.6562 303.214 40.1406 302.484 40.4219C301.932 40.651 301.328 40.7656 300.672 40.7656C299.932 40.7656 299.292 40.6094 298.75 40.2969C298.219 39.974 297.823 39.4792 297.562 38.8125C297.094 39.6875 296.547 40.5365 295.922 41.3594C295.307 42.1719 294.635 42.8906 293.906 43.5156C293.115 44.2031 292.281 44.7396 291.406 45.125C290.542 45.5 289.651 45.6875 288.734 45.6875ZM288.797 37.5C289.391 37.4583 289.969 37.2865 290.531 36.9844C291.094 36.6823 291.594 36.2865 292.031 35.7969C292.469 35.2969 292.812 34.7396 293.062 34.125C293.312 33.5 293.438 32.8646 293.438 32.2188C293.438 31.7917 293.375 31.4688 293.25 31.25C293.135 31.0208 292.932 30.9062 292.641 30.9062C292.255 30.9062 291.865 31.0938 291.469 31.4688C291.083 31.8438 290.708 32.3594 290.344 33.0156C290.01 33.6302 289.708 34.3281 289.438 35.1094C289.167 35.8906 288.953 36.6875 288.797 37.5ZM315.797 45.6875C315.057 45.6875 314.391 45.5938 313.797 45.4062C313.203 45.2188 312.703 44.9479 312.297 44.5938C311.88 44.25 311.557 43.8229 311.328 43.3125C311.109 42.8021 311 42.2292 311 41.5938C311 40.8958 311.073 40.2865 311.219 39.7656L313.391 29.5H318L316.922 34.6875C317.589 34.4062 318.198 34.224 318.75 34.1406C319.146 34.0781 319.599 34.0469 320.109 34.0469C320.745 34.0469 321.318 34.1406 321.828 34.3281C322.349 34.5156 322.786 34.7917 323.141 35.1562C323.495 35.5208 323.766 35.974 323.953 36.5156C324.151 37.0469 324.25 37.6406 324.25 38.2969C324.25 38.7552 324.177 39.2552 324.031 39.7969C323.896 40.3385 323.693 40.875 323.422 41.4062C322.776 42.6354 321.87 43.6198 320.703 44.3594C319.339 45.2448 317.703 45.6875 315.797 45.6875ZM316.922 42.9688C317.318 42.9688 317.703 42.8333 318.078 42.5625C318.464 42.2812 318.807 41.9062 319.109 41.4375C319.391 40.9896 319.615 40.5052 319.781 39.9844C319.958 39.4531 320.047 38.9531 320.047 38.4844C320.047 37.8385 319.901 37.3333 319.609 36.9688C319.318 36.5938 318.891 36.4062 318.328 36.4062C318.089 36.4062 317.766 36.4688 317.359 36.5938C316.922 36.7188 316.615 36.849 316.438 36.9844L315.641 40.7656C315.578 40.9115 315.547 41.0938 315.547 41.3125C315.547 41.5208 315.547 41.6354 315.547 41.6562C315.547 42.5312 316.005 42.9688 316.922 42.9688Z" fill="#16578D"></path> <path d="M72.123 69.2842C72.123 69.8877 71.9473 70.3594 71.5957 70.6992C71.2441 71.0332 70.79 71.2588 70.2334 71.376V71.4463C70.8369 71.5283 71.3555 71.7451 71.7891 72.0967C72.2285 72.4424 72.4482 72.9727 72.4482 73.6875C72.4482 74.2383 72.3164 74.7246 72.0527 75.1465C71.7891 75.5684 71.376 75.8994 70.8135 76.1396C70.251 76.3799 69.5186 76.5 68.6162 76.5H64.4678V66.8672H68.5811C69.2725 66.8672 69.8818 66.9463 70.4092 67.1045C70.9424 67.2568 71.3613 67.5088 71.666 67.8604C71.9707 68.2119 72.123 68.6865 72.123 69.2842ZM70.9277 73.6875C70.9277 73.1191 70.7109 72.709 70.2773 72.457C69.8496 72.2051 69.2256 72.0791 68.4053 72.0791H65.9355V75.3135H68.4404C69.249 75.3135 69.8643 75.1904 70.2861 74.9443C70.7139 74.6924 70.9277 74.2734 70.9277 73.6875ZM70.6377 69.4512C70.6377 68.9941 70.4707 68.6543 70.1367 68.4316C69.8027 68.2031 69.2549 68.0889 68.4932 68.0889H65.9355V70.8574H68.2383C69.0293 70.8574 69.627 70.7432 70.0312 70.5146C70.4355 70.2861 70.6377 69.9316 70.6377 69.4512ZM74.8037 76.5V66.8672H76.2715V70.8398H78.9082C79.7285 70.8398 80.4023 70.9424 80.9297 71.1475C81.4629 71.3525 81.8584 71.6572 82.1162 72.0615C82.374 72.4658 82.5029 72.9668 82.5029 73.5645C82.5029 74.1621 82.374 74.6807 82.1162 75.1201C81.8643 75.5596 81.4658 75.8994 80.9209 76.1396C80.3818 76.3799 79.6787 76.5 78.8115 76.5H74.8037ZM76.2715 75.3135H78.6709C79.3975 75.3135 79.9775 75.1846 80.4111 74.9268C80.8447 74.6689 81.0615 74.2383 81.0615 73.6348C81.0615 73.043 80.8594 72.6328 80.4551 72.4043C80.0508 72.1699 79.4707 72.0527 78.7148 72.0527H76.2715V75.3135ZM84.0938 76.5V66.8672H85.5527V76.5H84.0938ZM87.1172 66.8672H88.6816L90.8086 72.457C90.9316 72.7852 91.0459 73.1016 91.1514 73.4062C91.2568 73.7051 91.3506 73.9922 91.4326 74.2676C91.5146 74.543 91.5791 74.8096 91.626 75.0674H91.6875C91.7695 74.7744 91.8867 74.3906 92.0391 73.916C92.1914 73.4355 92.3555 72.9463 92.5312 72.4482L94.5439 66.8672H96.1172L91.9248 77.915C91.7021 78.5068 91.4414 79.0225 91.1426 79.4619C90.8496 79.9014 90.4922 80.2383 90.0703 80.4727C89.6484 80.7129 89.1387 80.833 88.541 80.833C88.2656 80.833 88.0225 80.8154 87.8115 80.7803C87.6006 80.751 87.4189 80.7158 87.2666 80.6748V79.5059C87.3955 79.5352 87.5508 79.5615 87.7324 79.585C87.9199 79.6084 88.1133 79.6201 88.3125 79.6201C88.6758 79.6201 88.9893 79.5498 89.2529 79.4092C89.5225 79.2744 89.7539 79.0752 89.9473 78.8115C90.1406 78.5479 90.3076 78.2344 90.4482 77.8711L90.9756 76.5176L87.1172 66.8672ZM98.9297 66.8672V70.3301C98.9297 70.9336 99.0938 71.3789 99.4219 71.666C99.7559 71.9531 100.239 72.0967 100.872 72.0967C101.481 72.0967 102.035 72.0029 102.533 71.8154C103.031 71.6279 103.535 71.373 104.045 71.0508V66.8672H105.504V76.5H104.045V72.1846C103.506 72.5303 102.976 72.8027 102.454 73.002C101.933 73.2012 101.309 73.3008 100.582 73.3008C99.5918 73.3008 98.8242 73.043 98.2793 72.5273C97.7402 72.0117 97.4707 71.3145 97.4707 70.4355V66.8672H98.9297ZM109.978 66.8672V72.9229C109.978 73.04 109.975 73.1924 109.969 73.3799C109.963 73.5615 109.954 73.7578 109.942 73.9688C109.931 74.1738 109.919 74.373 109.907 74.5664C109.901 74.7539 109.893 74.9092 109.881 75.0322L115.137 66.8672H116.93V76.5H115.567V70.5938C115.567 70.4062 115.57 70.166 115.576 69.873C115.582 69.5801 115.591 69.293 115.603 69.0117C115.614 68.7246 115.623 68.502 115.629 68.3438L110.391 76.5H108.589V66.8672H109.978ZM130.201 66.8672V76.5H128.883V70.2246C128.883 69.9668 128.889 69.7061 128.9 69.4424C128.918 69.1729 128.938 68.9033 128.962 68.6338H128.909L125.71 76.5H124.471L121.351 68.6338H121.298C121.315 68.9033 121.327 69.1729 121.333 69.4424C121.345 69.7061 121.351 69.9844 121.351 70.2773V76.5H120.023V66.8672H121.983L125.095 74.7422L128.25 66.8672H130.201ZM137.408 70.7168C137.408 69.3457 137.54 68.1768 137.804 67.21C138.067 66.2373 138.475 65.458 139.025 64.8721C139.582 64.2803 140.297 63.876 141.17 63.6592C141.92 63.4541 142.682 63.2783 143.455 63.1318C144.229 62.9795 144.981 62.8477 145.714 62.7363L145.969 64.0195C145.6 64.0723 145.213 64.1338 144.809 64.2041C144.404 64.2686 144 64.3389 143.596 64.415C143.191 64.4854 142.811 64.5615 142.453 64.6436C142.096 64.7197 141.779 64.7988 141.504 64.8809C141.006 65.0156 140.575 65.25 140.212 65.584C139.854 65.918 139.57 66.3779 139.359 66.9639C139.154 67.5498 139.031 68.2881 138.99 69.1787H139.096C139.271 68.9209 139.512 68.666 139.816 68.4141C140.121 68.1621 140.484 67.9541 140.906 67.79C141.328 67.6201 141.803 67.5352 142.33 67.5352C143.162 67.5352 143.856 67.7168 144.413 68.0801C144.97 68.4375 145.389 68.9414 145.67 69.5918C145.951 70.2422 146.092 71.0039 146.092 71.877C146.092 72.9258 145.91 73.8076 145.547 74.5225C145.189 75.2373 144.686 75.7764 144.035 76.1396C143.385 76.4971 142.62 76.6758 141.741 76.6758C141.062 76.6758 140.452 76.5439 139.913 76.2803C139.38 76.0166 138.926 75.6299 138.551 75.1201C138.182 74.6104 137.897 73.9863 137.698 73.248C137.505 72.5098 137.408 71.666 137.408 70.7168ZM141.855 75.4629C142.412 75.4629 142.89 75.3457 143.288 75.1113C143.692 74.877 144.003 74.5078 144.22 74.0039C144.442 73.4941 144.554 72.832 144.554 72.0176C144.554 70.998 144.357 70.2012 143.965 69.627C143.578 69.0469 142.957 68.7568 142.102 68.7568C141.568 68.7568 141.085 68.8711 140.651 69.0996C140.218 69.3223 139.852 69.5889 139.553 69.8994C139.254 70.21 139.037 70.4883 138.902 70.7344C138.902 71.332 138.946 71.9121 139.034 72.4746C139.122 73.0371 139.274 73.5439 139.491 73.9951C139.708 74.4463 140.007 74.8037 140.388 75.0674C140.774 75.3311 141.264 75.4629 141.855 75.4629ZM147.094 66.8672H148.658L150.785 72.457C150.908 72.7852 151.022 73.1016 151.128 73.4062C151.233 73.7051 151.327 73.9922 151.409 74.2676C151.491 74.543 151.556 74.8096 151.603 75.0674H151.664C151.746 74.7744 151.863 74.3906 152.016 73.916C152.168 73.4355 152.332 72.9463 152.508 72.4482L154.521 66.8672H156.094L151.901 77.915C151.679 78.5068 151.418 79.0225 151.119 79.4619C150.826 79.9014 150.469 80.2383 150.047 80.4727C149.625 80.7129 149.115 80.833 148.518 80.833C148.242 80.833 147.999 80.8154 147.788 80.7803C147.577 80.751 147.396 80.7158 147.243 80.6748V79.5059C147.372 79.5352 147.527 79.5615 147.709 79.585C147.896 79.6084 148.09 79.6201 148.289 79.6201C148.652 79.6201 148.966 79.5498 149.229 79.4092C149.499 79.2744 149.73 79.0752 149.924 78.8115C150.117 78.5479 150.284 78.2344 150.425 77.8711L150.952 76.5176L147.094 66.8672ZM163.248 66.8672H164.856L160.699 71.5166L165.19 76.5H163.477L159.1 71.6133V76.5H157.632V66.8672H159.1V71.543L163.248 66.8672ZM174.586 69.2842C174.586 69.8877 174.41 70.3594 174.059 70.6992C173.707 71.0332 173.253 71.2588 172.696 71.376V71.4463C173.3 71.5283 173.818 71.7451 174.252 72.0967C174.691 72.4424 174.911 72.9727 174.911 73.6875C174.911 74.2383 174.779 74.7246 174.516 75.1465C174.252 75.5684 173.839 75.8994 173.276 76.1396C172.714 76.3799 171.981 76.5 171.079 76.5H166.931V66.8672H171.044C171.735 66.8672 172.345 66.9463 172.872 67.1045C173.405 67.2568 173.824 67.5088 174.129 67.8604C174.434 68.2119 174.586 68.6865 174.586 69.2842ZM173.391 73.6875C173.391 73.1191 173.174 72.709 172.74 72.457C172.312 72.2051 171.688 72.0791 170.868 72.0791H168.398V75.3135H170.903C171.712 75.3135 172.327 75.1904 172.749 74.9443C173.177 74.6924 173.391 74.2734 173.391 73.6875ZM173.101 69.4512C173.101 68.9941 172.934 68.6543 172.6 68.4316C172.266 68.2031 171.718 68.0889 170.956 68.0889H168.398V70.8574H170.701C171.492 70.8574 172.09 70.7432 172.494 70.5146C172.898 70.2861 173.101 69.9316 173.101 69.4512ZM177.267 76.5V66.8672H178.734V70.8398H181.371C182.191 70.8398 182.865 70.9424 183.393 71.1475C183.926 71.3525 184.321 71.6572 184.579 72.0615C184.837 72.4658 184.966 72.9668 184.966 73.5645C184.966 74.1621 184.837 74.6807 184.579 75.1201C184.327 75.5596 183.929 75.8994 183.384 76.1396C182.845 76.3799 182.142 76.5 181.274 76.5H177.267ZM178.734 75.3135H181.134C181.86 75.3135 182.44 75.1846 182.874 74.9268C183.308 74.6689 183.524 74.2383 183.524 73.6348C183.524 73.043 183.322 72.6328 182.918 72.4043C182.514 72.1699 181.934 72.0527 181.178 72.0527H178.734V75.3135ZM186.557 76.5V66.8672H188.016V76.5H186.557ZM192.771 74.4082L192.885 74.6104C192.779 75.0381 192.645 75.4951 192.48 75.9814C192.322 76.4678 192.146 76.9541 191.953 77.4404C191.766 77.9326 191.575 78.3926 191.382 78.8203H190.292C190.415 78.3516 190.535 77.8564 190.652 77.335C190.77 76.8193 190.875 76.3096 190.969 75.8057C191.068 75.2959 191.147 74.8301 191.206 74.4082H192.771ZM201.902 66.8672V70.9102H207.272V66.8672H208.731V76.5H207.272V72.1494H201.902V76.5H200.435V66.8672H201.902ZM215.429 66.709C216.577 66.709 217.43 66.9668 217.986 67.4824C218.543 67.998 218.821 68.8213 218.821 69.9521V76.5H217.758L217.477 75.0762H217.406C217.137 75.4277 216.855 75.7236 216.562 75.9639C216.27 76.1982 215.93 76.377 215.543 76.5C215.162 76.6172 214.693 76.6758 214.137 76.6758C213.551 76.6758 213.029 76.5732 212.572 76.3682C212.121 76.1631 211.764 75.8525 211.5 75.4365C211.242 75.0205 211.113 74.4932 211.113 73.8545C211.113 72.8936 211.494 72.1553 212.256 71.6396C213.018 71.124 214.178 70.8428 215.736 70.7959L217.397 70.7256V70.1367C217.397 69.3047 217.219 68.7217 216.861 68.3877C216.504 68.0537 216 67.8867 215.35 67.8867C214.846 67.8867 214.365 67.96 213.908 68.1064C213.451 68.2529 213.018 68.4258 212.607 68.625L212.159 67.5176C212.593 67.2949 213.091 67.1045 213.653 66.9463C214.216 66.7881 214.808 66.709 215.429 66.709ZM217.38 71.7539L215.912 71.8154C214.711 71.8623 213.864 72.0586 213.372 72.4043C212.88 72.75 212.634 73.2393 212.634 73.8721C212.634 74.4229 212.801 74.8301 213.135 75.0938C213.469 75.3574 213.911 75.4893 214.462 75.4893C215.317 75.4893 216.018 75.252 216.562 74.7773C217.107 74.3027 217.38 73.5908 217.38 72.6416V71.7539ZM220.307 66.8672H221.871L223.998 72.457C224.121 72.7852 224.235 73.1016 224.341 73.4062C224.446 73.7051 224.54 73.9922 224.622 74.2676C224.704 74.543 224.769 74.8096 224.815 75.0674H224.877C224.959 74.7744 225.076 74.3906 225.229 73.916C225.381 73.4355 225.545 72.9463 225.721 72.4482L227.733 66.8672H229.307L225.114 77.915C224.892 78.5068 224.631 79.0225 224.332 79.4619C224.039 79.9014 223.682 80.2383 223.26 80.4727C222.838 80.7129 222.328 80.833 221.73 80.833C221.455 80.833 221.212 80.8154 221.001 80.7803C220.79 80.751 220.608 80.7158 220.456 80.6748V79.5059C220.585 79.5352 220.74 79.5615 220.922 79.585C221.109 79.6084 221.303 79.6201 221.502 79.6201C221.865 79.6201 222.179 79.5498 222.442 79.4092C222.712 79.2744 222.943 79.0752 223.137 78.8115C223.33 78.5479 223.497 78.2344 223.638 77.8711L224.165 76.5176L220.307 66.8672ZM232.119 66.8672V70.3301C232.119 70.9336 232.283 71.3789 232.611 71.666C232.945 71.9531 233.429 72.0967 234.062 72.0967C234.671 72.0967 235.225 72.0029 235.723 71.8154C236.221 71.6279 236.725 71.373 237.234 71.0508V66.8672H238.693V76.5H237.234V72.1846C236.695 72.5303 236.165 72.8027 235.644 73.002C235.122 73.2012 234.498 73.3008 233.771 73.3008C232.781 73.3008 232.014 73.043 231.469 72.5273C230.93 72.0117 230.66 71.3145 230.66 70.4355V66.8672H232.119ZM243.167 66.8672V72.9229C243.167 73.04 243.164 73.1924 243.158 73.3799C243.152 73.5615 243.144 73.7578 243.132 73.9688C243.12 74.1738 243.108 74.373 243.097 74.5664C243.091 74.7539 243.082 74.9092 243.07 75.0322L248.326 66.8672H250.119V76.5H248.757V70.5938C248.757 70.4062 248.76 70.166 248.766 69.873C248.771 69.5801 248.78 69.293 248.792 69.0117C248.804 68.7246 248.812 68.502 248.818 68.3438L243.58 76.5H241.778V66.8672H243.167ZM263.391 66.8672V76.5H262.072V70.2246C262.072 69.9668 262.078 69.7061 262.09 69.4424C262.107 69.1729 262.128 68.9033 262.151 68.6338H262.099L258.899 76.5H257.66L254.54 68.6338H254.487C254.505 68.9033 254.517 69.1729 254.522 69.4424C254.534 69.7061 254.54 69.9844 254.54 70.2773V76.5H253.213V66.8672H255.173L258.284 74.7422L261.439 66.8672H263.391ZM272.373 66.8672V70.3301C272.373 70.9336 272.537 71.3789 272.865 71.666C273.199 71.9531 273.683 72.0967 274.315 72.0967C274.925 72.0967 275.479 72.0029 275.977 71.8154C276.475 71.6279 276.979 71.373 277.488 71.0508V66.8672H278.947V76.5H277.488V72.1846C276.949 72.5303 276.419 72.8027 275.897 73.002C275.376 73.2012 274.752 73.3008 274.025 73.3008C273.035 73.3008 272.268 73.043 271.723 72.5273C271.184 72.0117 270.914 71.3145 270.914 70.4355V66.8672H272.373ZM283.421 66.8672V72.9229C283.421 73.04 283.418 73.1924 283.412 73.3799C283.406 73.5615 283.397 73.7578 283.386 73.9688C283.374 74.1738 283.362 74.373 283.351 74.5664C283.345 74.7539 283.336 74.9092 283.324 75.0322L288.58 66.8672H290.373V76.5H289.011V70.5938C289.011 70.4062 289.014 70.166 289.02 69.873C289.025 69.5801 289.034 69.293 289.046 69.0117C289.058 68.7246 289.066 68.502 289.072 68.3438L283.834 76.5H282.032V66.8672H283.421ZM300.041 68.1064H296.868V76.5H295.427V68.1064H292.298V66.8672H300.041V68.1064ZM305.552 66.709C306.7 66.709 307.553 66.9668 308.109 67.4824C308.666 67.998 308.944 68.8213 308.944 69.9521V76.5H307.881L307.6 75.0762H307.529C307.26 75.4277 306.979 75.7236 306.686 75.9639C306.393 76.1982 306.053 76.377 305.666 76.5C305.285 76.6172 304.816 76.6758 304.26 76.6758C303.674 76.6758 303.152 76.5732 302.695 76.3682C302.244 76.1631 301.887 75.8525 301.623 75.4365C301.365 75.0205 301.236 74.4932 301.236 73.8545C301.236 72.8936 301.617 72.1553 302.379 71.6396C303.141 71.124 304.301 70.8428 305.859 70.7959L307.521 70.7256V70.1367C307.521 69.3047 307.342 68.7217 306.984 68.3877C306.627 68.0537 306.123 67.8867 305.473 67.8867C304.969 67.8867 304.488 67.96 304.031 68.1064C303.574 68.2529 303.141 68.4258 302.73 68.625L302.282 67.5176C302.716 67.2949 303.214 67.1045 303.776 66.9463C304.339 66.7881 304.931 66.709 305.552 66.709ZM307.503 71.7539L306.035 71.8154C304.834 71.8623 303.987 72.0586 303.495 72.4043C303.003 72.75 302.757 73.2393 302.757 73.8721C302.757 74.4229 302.924 74.8301 303.258 75.0938C303.592 75.3574 304.034 75.4893 304.585 75.4893C305.44 75.4893 306.141 75.252 306.686 74.7773C307.23 74.3027 307.503 73.5908 307.503 72.6416V71.7539ZM318.516 68.1064H315.343V76.5H313.901V68.1064H310.772V66.8672H318.516V68.1064ZM321.891 70.8398H324.844C325.664 70.8398 326.347 70.9424 326.892 71.1475C327.437 71.3525 327.844 71.6572 328.113 72.0615C328.389 72.4658 328.526 72.9668 328.526 73.5645C328.526 74.1621 328.392 74.6807 328.122 75.1201C327.858 75.5596 327.448 75.8994 326.892 76.1396C326.341 76.3799 325.629 76.5 324.756 76.5H320.423V66.8672H321.891V70.8398ZM327.059 73.6348C327.059 73.043 326.848 72.6328 326.426 72.4043C326.01 72.1699 325.427 72.0527 324.677 72.0527H321.891V75.3135H324.686C325.389 75.3135 325.96 75.1846 326.399 74.9268C326.839 74.6631 327.059 74.2324 327.059 73.6348ZM339.574 76.6758C338.707 76.6758 337.942 76.4971 337.28 76.1396C336.618 75.7822 336.103 75.2373 335.733 74.5049C335.364 73.7725 335.18 72.8496 335.18 71.7363C335.18 70.5703 335.373 69.6182 335.76 68.8799C336.152 68.1357 336.691 67.585 337.377 67.2275C338.062 66.8701 338.842 66.6914 339.715 66.6914C340.195 66.6914 340.658 66.7412 341.104 66.8408C341.555 66.9346 341.924 67.0547 342.211 67.2012L341.771 68.4229C341.479 68.3057 341.139 68.2002 340.752 68.1064C340.371 68.0127 340.014 67.9658 339.68 67.9658C339.012 67.9658 338.455 68.1094 338.01 68.3965C337.57 68.6836 337.239 69.1055 337.017 69.6621C336.8 70.2188 336.691 70.9043 336.691 71.7188C336.691 72.498 336.797 73.1631 337.008 73.7139C337.225 74.2646 337.544 74.6865 337.966 74.9795C338.394 75.2666 338.927 75.4102 339.565 75.4102C340.075 75.4102 340.535 75.3574 340.945 75.252C341.355 75.1406 341.728 75.0117 342.062 74.8652V76.166C341.739 76.3301 341.379 76.4561 340.98 76.5439C340.588 76.6318 340.119 76.6758 339.574 76.6758ZM351.571 76.5H350.086V68.0889H347.159C347.042 69.6064 346.893 70.9072 346.711 71.9912C346.535 73.0693 346.312 73.9512 346.043 74.6367C345.779 75.3164 345.457 75.8174 345.076 76.1396C344.701 76.4561 344.253 76.6143 343.731 76.6143C343.573 76.6143 343.424 76.6055 343.283 76.5879C343.143 76.5703 343.022 76.541 342.923 76.5V75.3926C342.999 75.416 343.078 75.4336 343.16 75.4453C343.248 75.457 343.339 75.4629 343.433 75.4629C343.696 75.4629 343.937 75.3545 344.153 75.1377C344.376 74.915 344.575 74.5811 344.751 74.1357C344.933 73.6904 345.094 73.1279 345.234 72.4482C345.375 71.7627 345.498 70.957 345.604 70.0312C345.715 69.0996 345.812 68.0449 345.894 66.8672H351.571V76.5ZM362.953 71.666C362.953 72.457 362.851 73.1631 362.646 73.7842C362.44 74.4053 362.145 74.9297 361.758 75.3574C361.371 75.7852 360.902 76.1133 360.352 76.3418C359.807 76.5645 359.188 76.6758 358.497 76.6758C357.853 76.6758 357.261 76.5645 356.722 76.3418C356.188 76.1133 355.726 75.7852 355.333 75.3574C354.946 74.9297 354.645 74.4053 354.428 73.7842C354.217 73.1631 354.111 72.457 354.111 71.666C354.111 70.6113 354.29 69.7148 354.647 68.9766C355.005 68.2324 355.515 67.667 356.177 67.2803C356.845 66.8877 357.639 66.6914 358.559 66.6914C359.438 66.6914 360.205 66.8877 360.861 67.2803C361.523 67.6729 362.036 68.2412 362.399 68.9854C362.769 69.7236 362.953 70.6172 362.953 71.666ZM355.623 71.666C355.623 72.4395 355.726 73.1104 355.931 73.6787C356.136 74.2471 356.452 74.6865 356.88 74.9971C357.308 75.3076 357.858 75.4629 358.532 75.4629C359.2 75.4629 359.748 75.3076 360.176 74.9971C360.609 74.6865 360.929 74.2471 361.134 73.6787C361.339 73.1104 361.441 72.4395 361.441 71.666C361.441 70.8984 361.339 70.2363 361.134 69.6797C360.929 69.1172 360.612 68.6836 360.185 68.3789C359.757 68.0742 359.203 67.9219 358.523 67.9219C357.521 67.9219 356.786 68.2529 356.317 68.915C355.854 69.5771 355.623 70.4941 355.623 71.666ZM373.131 69.2842C373.131 69.8877 372.955 70.3594 372.604 70.6992C372.252 71.0332 371.798 71.2588 371.241 71.376V71.4463C371.845 71.5283 372.363 71.7451 372.797 72.0967C373.236 72.4424 373.456 72.9727 373.456 73.6875C373.456 74.2383 373.324 74.7246 373.061 75.1465C372.797 75.5684 372.384 75.8994 371.821 76.1396C371.259 76.3799 370.526 76.5 369.624 76.5H365.476V66.8672H369.589C370.28 66.8672 370.89 66.9463 371.417 67.1045C371.95 67.2568 372.369 67.5088 372.674 67.8604C372.979 68.2119 373.131 68.6865 373.131 69.2842ZM371.936 73.6875C371.936 73.1191 371.719 72.709 371.285 72.457C370.857 72.2051 370.233 72.0791 369.413 72.0791H366.943V75.3135H369.448C370.257 75.3135 370.872 75.1904 371.294 74.9443C371.722 74.6924 371.936 74.2734 371.936 73.6875ZM371.646 69.4512C371.646 68.9941 371.479 68.6543 371.145 68.4316C370.811 68.2031 370.263 68.0889 369.501 68.0889H366.943V70.8574H369.246C370.037 70.8574 370.635 70.7432 371.039 70.5146C371.443 70.2861 371.646 69.9316 371.646 69.4512ZM379.415 66.709C380.563 66.709 381.416 66.9668 381.973 67.4824C382.529 67.998 382.808 68.8213 382.808 69.9521V76.5H381.744L381.463 75.0762H381.393C381.123 75.4277 380.842 75.7236 380.549 75.9639C380.256 76.1982 379.916 76.377 379.529 76.5C379.148 76.6172 378.68 76.6758 378.123 76.6758C377.537 76.6758 377.016 76.5732 376.559 76.3682C376.107 76.1631 375.75 75.8525 375.486 75.4365C375.229 75.0205 375.1 74.4932 375.1 73.8545C375.1 72.8936 375.48 72.1553 376.242 71.6396C377.004 71.124 378.164 70.8428 379.723 70.7959L381.384 70.7256V70.1367C381.384 69.3047 381.205 68.7217 380.848 68.3877C380.49 68.0537 379.986 67.8867 379.336 67.8867C378.832 67.8867 378.352 67.96 377.895 68.1064C377.438 68.2529 377.004 68.4258 376.594 68.625L376.146 67.5176C376.579 67.2949 377.077 67.1045 377.64 66.9463C378.202 66.7881 378.794 66.709 379.415 66.709ZM381.366 71.7539L379.898 71.8154C378.697 71.8623 377.851 72.0586 377.358 72.4043C376.866 72.75 376.62 73.2393 376.62 73.8721C376.62 74.4229 376.787 74.8301 377.121 75.0938C377.455 75.3574 377.897 75.4893 378.448 75.4893C379.304 75.4893 380.004 75.252 380.549 74.7773C381.094 74.3027 381.366 73.5908 381.366 72.6416V71.7539ZM396.554 66.8672V72.9229C396.554 73.04 396.551 73.1924 396.545 73.3799C396.539 73.5615 396.53 73.7578 396.519 73.9688C396.507 74.1738 396.495 74.373 396.483 74.5664C396.478 74.7539 396.469 74.9092 396.457 75.0322L401.713 66.8672H403.506V76.5H402.144V70.5938C402.144 70.4062 402.146 70.166 402.152 69.873C402.158 69.5801 402.167 69.293 402.179 69.0117C402.19 68.7246 402.199 68.502 402.205 68.3438L396.967 76.5H395.165V66.8672H396.554ZM72.5361 91.8672V101.5H71.0684V93.124H65.9355V101.5H64.4678V91.8672H72.5361ZM80.1562 91.6914C81.3574 91.6914 82.3154 92.1045 83.0303 92.9307C83.7451 93.7568 84.1025 94.999 84.1025 96.6572C84.1025 97.7529 83.9385 98.6729 83.6104 99.417C83.2822 100.161 82.8193 100.724 82.2217 101.104C81.6299 101.485 80.9297 101.676 80.1211 101.676C79.6113 101.676 79.1631 101.608 78.7764 101.474C78.3896 101.339 78.0586 101.157 77.7832 100.929C77.5078 100.7 77.2793 100.451 77.0977 100.182H76.9922C77.0098 100.41 77.0303 100.686 77.0537 101.008C77.083 101.33 77.0977 101.611 77.0977 101.852V105.807H75.6299V91.8672H76.834L77.0273 93.291H77.0977C77.2852 92.998 77.5137 92.7314 77.7832 92.4912C78.0527 92.2451 78.3809 92.0518 78.7676 91.9111C79.1602 91.7646 79.623 91.6914 80.1562 91.6914ZM79.9014 92.9219C79.2334 92.9219 78.6943 93.0508 78.2842 93.3086C77.8799 93.5664 77.584 93.9531 77.3965 94.4688C77.209 94.9785 77.1094 95.6201 77.0977 96.3936V96.6748C77.0977 97.4893 77.1855 98.1777 77.3613 98.7402C77.543 99.3027 77.8389 99.7305 78.249 100.023C78.665 100.316 79.2217 100.463 79.9189 100.463C80.5166 100.463 81.0146 100.302 81.4131 99.9795C81.8115 99.6572 82.1074 99.209 82.3008 98.6348C82.5 98.0547 82.5996 97.3896 82.5996 96.6396C82.5996 95.5029 82.377 94.6006 81.9316 93.9326C81.4922 93.2588 80.8154 92.9219 79.9014 92.9219ZM90.3604 91.6914C91.1807 91.6914 91.8838 91.873 92.4697 92.2363C93.0557 92.5996 93.5039 93.1094 93.8145 93.7656C94.125 94.416 94.2803 95.1777 94.2803 96.0508V96.9561H87.627C87.6445 98.0869 87.9258 98.9482 88.4707 99.54C89.0156 100.132 89.7832 100.428 90.7734 100.428C91.3828 100.428 91.9219 100.372 92.3906 100.261C92.8594 100.149 93.3457 99.9854 93.8496 99.7686V101.052C93.3633 101.269 92.8799 101.427 92.3994 101.526C91.9248 101.626 91.3623 101.676 90.7119 101.676C89.7861 101.676 88.9775 101.488 88.2861 101.113C87.6006 100.732 87.0674 100.176 86.6865 99.4434C86.3057 98.7109 86.1152 97.8145 86.1152 96.7539C86.1152 95.7168 86.2881 94.8203 86.6338 94.0645C86.9854 93.3027 87.4775 92.7168 88.1104 92.3066C88.749 91.8965 89.499 91.6914 90.3604 91.6914ZM90.3428 92.8867C89.5635 92.8867 88.9424 93.1416 88.4795 93.6514C88.0166 94.1611 87.7412 94.873 87.6533 95.7871H92.751C92.7451 95.2129 92.6543 94.709 92.4785 94.2754C92.3086 93.8359 92.0479 93.4961 91.6963 93.2559C91.3447 93.0098 90.8936 92.8867 90.3428 92.8867ZM103.816 91.8672V100.261H105.196V104.831H103.781V101.5H96.9609V104.831H95.5635V100.261H96.3193C96.8701 99.499 97.3271 98.6641 97.6904 97.7559C98.0537 96.8477 98.3291 95.8955 98.5166 94.8994C98.7041 93.8975 98.8037 92.8867 98.8154 91.8672H103.816ZM102.401 93.0273H100.116C100.063 93.8828 99.9375 94.7529 99.7383 95.6377C99.5449 96.5225 99.2871 97.3662 98.9648 98.1689C98.6426 98.9658 98.2676 99.6631 97.8398 100.261H102.401V93.0273ZM114.337 101.5H112.852V93.0889H109.925C109.808 94.6064 109.658 95.9072 109.477 96.9912C109.301 98.0693 109.078 98.9512 108.809 99.6367C108.545 100.316 108.223 100.817 107.842 101.14C107.467 101.456 107.019 101.614 106.497 101.614C106.339 101.614 106.189 101.605 106.049 101.588C105.908 101.57 105.788 101.541 105.688 101.5V100.393C105.765 100.416 105.844 100.434 105.926 100.445C106.014 100.457 106.104 100.463 106.198 100.463C106.462 100.463 106.702 100.354 106.919 100.138C107.142 99.915 107.341 99.5811 107.517 99.1357C107.698 98.6904 107.859 98.1279 108 97.4482C108.141 96.7627 108.264 95.957 108.369 95.0312C108.48 94.0996 108.577 93.0449 108.659 91.8672H114.337V101.5ZM125.719 96.666C125.719 97.457 125.616 98.1631 125.411 98.7842C125.206 99.4053 124.91 99.9297 124.523 100.357C124.137 100.785 123.668 101.113 123.117 101.342C122.572 101.564 121.954 101.676 121.263 101.676C120.618 101.676 120.026 101.564 119.487 101.342C118.954 101.113 118.491 100.785 118.099 100.357C117.712 99.9297 117.41 99.4053 117.193 98.7842C116.982 98.1631 116.877 97.457 116.877 96.666C116.877 95.6113 117.056 94.7148 117.413 93.9766C117.771 93.2324 118.28 92.667 118.942 92.2803C119.61 91.8877 120.404 91.6914 121.324 91.6914C122.203 91.6914 122.971 91.8877 123.627 92.2803C124.289 92.6729 124.802 93.2412 125.165 93.9854C125.534 94.7236 125.719 95.6172 125.719 96.666ZM118.389 96.666C118.389 97.4395 118.491 98.1104 118.696 98.6787C118.901 99.2471 119.218 99.6865 119.646 99.9971C120.073 100.308 120.624 100.463 121.298 100.463C121.966 100.463 122.514 100.308 122.941 99.9971C123.375 99.6865 123.694 99.2471 123.899 98.6787C124.104 98.1104 124.207 97.4395 124.207 96.666C124.207 95.8984 124.104 95.2363 123.899 94.6797C123.694 94.1172 123.378 93.6836 122.95 93.3789C122.522 93.0742 121.969 92.9219 121.289 92.9219C120.287 92.9219 119.552 93.2529 119.083 93.915C118.62 94.5771 118.389 95.4941 118.389 96.666ZM139.526 91.8672L135.519 96.5518L139.869 101.5H138.199L133.98 96.6133V101.5H132.618V96.6133L128.408 101.5H126.738L131.089 96.5518L127.072 91.8672H128.681L132.618 96.543V91.8672H133.98V96.543L137.936 91.8672H139.526ZM145.187 91.6914C146.007 91.6914 146.71 91.873 147.296 92.2363C147.882 92.5996 148.33 93.1094 148.641 93.7656C148.951 94.416 149.106 95.1777 149.106 96.0508V96.9561H142.453C142.471 98.0869 142.752 98.9482 143.297 99.54C143.842 100.132 144.609 100.428 145.6 100.428C146.209 100.428 146.748 100.372 147.217 100.261C147.686 100.149 148.172 99.9854 148.676 99.7686V101.052C148.189 101.269 147.706 101.427 147.226 101.526C146.751 101.626 146.188 101.676 145.538 101.676C144.612 101.676 143.804 101.488 143.112 101.113C142.427 100.732 141.894 100.176 141.513 99.4434C141.132 98.7109 140.941 97.8145 140.941 96.7539C140.941 95.7168 141.114 94.8203 141.46 94.0645C141.812 93.3027 142.304 92.7168 142.937 92.3066C143.575 91.8965 144.325 91.6914 145.187 91.6914ZM145.169 92.8867C144.39 92.8867 143.769 93.1416 143.306 93.6514C142.843 94.1611 142.567 94.873 142.479 95.7871H147.577C147.571 95.2129 147.48 94.709 147.305 94.2754C147.135 93.8359 146.874 93.4961 146.522 93.2559C146.171 93.0098 145.72 92.8867 145.169 92.8867ZM153.053 91.8672V95.9102H158.423V91.8672H159.882V101.5H158.423V97.1494H153.053V101.5H151.585V91.8672H153.053ZM164.364 91.8672V97.9229C164.364 98.04 164.361 98.1924 164.355 98.3799C164.35 98.5615 164.341 98.7578 164.329 98.9688C164.317 99.1738 164.306 99.373 164.294 99.5664C164.288 99.7539 164.279 99.9092 164.268 100.032L169.523 91.8672H171.316V101.5H169.954V95.5938C169.954 95.4062 169.957 95.166 169.963 94.873C169.969 94.5801 169.978 94.293 169.989 94.0117C170.001 93.7246 170.01 93.502 170.016 93.3438L164.777 101.5H162.976V91.8672H164.364ZM174.885 101.5H173.18L175.957 97.4395C175.553 97.3516 175.178 97.2021 174.832 96.9912C174.486 96.7744 174.205 96.4785 173.988 96.1035C173.777 95.7285 173.672 95.2627 173.672 94.7061C173.672 93.7803 173.979 93.0771 174.595 92.5967C175.216 92.1104 176.033 91.8672 177.047 91.8672H181.31V101.5H179.851V97.6328H177.407L174.885 101.5ZM175.087 94.7148C175.087 95.2891 175.292 95.7168 175.702 95.998C176.112 96.2734 176.698 96.4111 177.46 96.4111H179.851V93.0889H177.205C176.455 93.0889 175.913 93.2412 175.579 93.5459C175.251 93.8447 175.087 94.2344 175.087 94.7148ZM192.92 101.676C192.053 101.676 191.288 101.497 190.626 101.14C189.964 100.782 189.448 100.237 189.079 99.5049C188.71 98.7725 188.525 97.8496 188.525 96.7363C188.525 95.5703 188.719 94.6182 189.105 93.8799C189.498 93.1357 190.037 92.585 190.723 92.2275C191.408 91.8701 192.188 91.6914 193.061 91.6914C193.541 91.6914 194.004 91.7412 194.449 91.8408C194.9 91.9346 195.27 92.0547 195.557 92.2012L195.117 93.4229C194.824 93.3057 194.484 93.2002 194.098 93.1064C193.717 93.0127 193.359 92.9658 193.025 92.9658C192.357 92.9658 191.801 93.1094 191.355 93.3965C190.916 93.6836 190.585 94.1055 190.362 94.6621C190.146 95.2188 190.037 95.9043 190.037 96.7188C190.037 97.498 190.143 98.1631 190.354 98.7139C190.57 99.2646 190.89 99.6865 191.312 99.9795C191.739 100.267 192.272 100.41 192.911 100.41C193.421 100.41 193.881 100.357 194.291 100.252C194.701 100.141 195.073 100.012 195.407 99.8652V101.166C195.085 101.33 194.725 101.456 194.326 101.544C193.934 101.632 193.465 101.676 192.92 101.676ZM203.757 91.8672V97.9229C203.757 98.04 203.754 98.1924 203.748 98.3799C203.742 98.5615 203.733 98.7578 203.722 98.9688C203.71 99.1738 203.698 99.373 203.687 99.5664C203.681 99.7539 203.672 99.9092 203.66 100.032L208.916 91.8672H210.709V101.5H209.347V95.5938C209.347 95.4062 209.35 95.166 209.355 94.873C209.361 94.5801 209.37 94.293 209.382 94.0117C209.394 93.7246 209.402 93.502 209.408 93.3438L204.17 101.5H202.368V91.8672H203.757ZM215.279 91.8672V95.9102H220.649V91.8672H222.108V101.5H220.649V97.1494H215.279V101.5H213.812V91.8672H215.279ZM231.768 93.1064H228.595V101.5H227.153V93.1064H224.024V91.8672H231.768V93.1064ZM241.98 96.666C241.98 97.457 241.878 98.1631 241.673 98.7842C241.468 99.4053 241.172 99.9297 240.785 100.357C240.398 100.785 239.93 101.113 239.379 101.342C238.834 101.564 238.216 101.676 237.524 101.676C236.88 101.676 236.288 101.564 235.749 101.342C235.216 101.113 234.753 100.785 234.36 100.357C233.974 99.9297 233.672 99.4053 233.455 98.7842C233.244 98.1631 233.139 97.457 233.139 96.666C233.139 95.6113 233.317 94.7148 233.675 93.9766C234.032 93.2324 234.542 92.667 235.204 92.2803C235.872 91.8877 236.666 91.6914 237.586 91.6914C238.465 91.6914 239.232 91.8877 239.889 92.2803C240.551 92.6729 241.063 93.2412 241.427 93.9854C241.796 94.7236 241.98 95.6172 241.98 96.666ZM234.65 96.666C234.65 97.4395 234.753 98.1104 234.958 98.6787C235.163 99.2471 235.479 99.6865 235.907 99.9971C236.335 100.308 236.886 100.463 237.56 100.463C238.228 100.463 238.775 100.308 239.203 99.9971C239.637 99.6865 239.956 99.2471 240.161 98.6787C240.366 98.1104 240.469 97.4395 240.469 96.666C240.469 95.8984 240.366 95.2363 240.161 94.6797C239.956 94.1172 239.64 93.6836 239.212 93.3789C238.784 93.0742 238.23 92.9219 237.551 92.9219C236.549 92.9219 235.813 93.2529 235.345 93.915C234.882 94.5771 234.65 95.4941 234.65 96.666ZM245.971 91.8672V95.9102H251.341V91.8672H252.8V101.5H251.341V97.1494H245.971V101.5H244.503V91.8672H245.971ZM259.497 91.709C260.646 91.709 261.498 91.9668 262.055 92.4824C262.611 92.998 262.89 93.8213 262.89 94.9521V101.5H261.826L261.545 100.076H261.475C261.205 100.428 260.924 100.724 260.631 100.964C260.338 101.198 259.998 101.377 259.611 101.5C259.23 101.617 258.762 101.676 258.205 101.676C257.619 101.676 257.098 101.573 256.641 101.368C256.189 101.163 255.832 100.853 255.568 100.437C255.311 100.021 255.182 99.4932 255.182 98.8545C255.182 97.8936 255.562 97.1553 256.324 96.6396C257.086 96.124 258.246 95.8428 259.805 95.7959L261.466 95.7256V95.1367C261.466 94.3047 261.287 93.7217 260.93 93.3877C260.572 93.0537 260.068 92.8867 259.418 92.8867C258.914 92.8867 258.434 92.96 257.977 93.1064C257.52 93.2529 257.086 93.4258 256.676 93.625L256.228 92.5176C256.661 92.2949 257.159 92.1045 257.722 91.9463C258.284 91.7881 258.876 91.709 259.497 91.709ZM261.448 96.7539L259.98 96.8154C258.779 96.8623 257.933 97.0586 257.44 97.4043C256.948 97.75 256.702 98.2393 256.702 98.8721C256.702 99.4229 256.869 99.8301 257.203 100.094C257.537 100.357 257.979 100.489 258.53 100.489C259.386 100.489 260.086 100.252 260.631 99.7773C261.176 99.3027 261.448 98.5908 261.448 97.6416V96.7539ZM275.273 104.831H273.85V101.5H265.896V91.8672H267.363V100.261H272.47V91.8672H273.929V100.278H275.273V104.831ZM278.552 91.8672V97.9229C278.552 98.04 278.549 98.1924 278.543 98.3799C278.537 98.5615 278.528 98.7578 278.517 98.9688C278.505 99.1738 278.493 99.373 278.481 99.5664C278.476 99.7539 278.467 99.9092 278.455 100.032L283.711 91.8672H285.504V101.5H284.142V95.5938C284.142 95.4062 284.145 95.166 284.15 94.873C284.156 94.5801 284.165 94.293 284.177 94.0117C284.188 93.7246 284.197 93.502 284.203 93.3438L278.965 101.5H277.163V91.8672H278.552ZM292.315 91.6914C293.136 91.6914 293.839 91.873 294.425 92.2363C295.011 92.5996 295.459 93.1094 295.77 93.7656C296.08 94.416 296.235 95.1777 296.235 96.0508V96.9561H289.582C289.6 98.0869 289.881 98.9482 290.426 99.54C290.971 100.132 291.738 100.428 292.729 100.428C293.338 100.428 293.877 100.372 294.346 100.261C294.814 100.149 295.301 99.9854 295.805 99.7686V101.052C295.318 101.269 294.835 101.427 294.354 101.526C293.88 101.626 293.317 101.676 292.667 101.676C291.741 101.676 290.933 101.488 290.241 101.113C289.556 100.732 289.022 100.176 288.642 99.4434C288.261 98.7109 288.07 97.8145 288.07 96.7539C288.07 95.7168 288.243 94.8203 288.589 94.0645C288.94 93.3027 289.433 92.7168 290.065 92.3066C290.704 91.8965 291.454 91.6914 292.315 91.6914ZM292.298 92.8867C291.519 92.8867 290.897 93.1416 290.435 93.6514C289.972 94.1611 289.696 94.873 289.608 95.7871H294.706C294.7 95.2129 294.609 94.709 294.434 94.2754C294.264 93.8359 294.003 93.4961 293.651 93.2559C293.3 93.0098 292.849 92.8867 292.298 92.8867ZM300.103 91.8672V97.9229C300.103 98.04 300.1 98.1924 300.094 98.3799C300.088 98.5615 300.079 98.7578 300.067 98.9688C300.056 99.1738 300.044 99.373 300.032 99.5664C300.026 99.7539 300.018 99.9092 300.006 100.032L305.262 91.8672H307.055V101.5H305.692V95.5938C305.692 95.4062 305.695 95.166 305.701 94.873C305.707 94.5801 305.716 94.293 305.728 94.0117C305.739 93.7246 305.748 93.502 305.754 93.3438L300.516 101.5H298.714V91.8672H300.103ZM306.334 87.9033C306.281 88.4951 306.132 88.9902 305.886 89.3887C305.646 89.7871 305.291 90.0889 304.822 90.2939C304.354 90.4932 303.753 90.5928 303.021 90.5928C302.265 90.5928 301.655 90.4961 301.192 90.3027C300.735 90.1035 300.396 89.8047 300.173 89.4062C299.956 89.0078 299.827 88.5068 299.786 87.9033H301.157C301.222 88.5479 301.395 88.9873 301.676 89.2217C301.957 89.4561 302.414 89.5732 303.047 89.5732C303.609 89.5732 304.052 89.4502 304.374 89.2041C304.696 88.958 304.89 88.5244 304.954 87.9033H306.334ZM311.827 99.4082L311.941 99.6104C311.836 100.038 311.701 100.495 311.537 100.981C311.379 101.468 311.203 101.954 311.01 102.44C310.822 102.933 310.632 103.393 310.438 103.82H309.349C309.472 103.352 309.592 102.856 309.709 102.335C309.826 101.819 309.932 101.31 310.025 100.806C310.125 100.296 310.204 99.8301 310.263 99.4082H311.827ZM327.56 91.8672V101.5H326.092V93.124H320.959V101.5H319.491V91.8672H327.56ZM338.959 96.666C338.959 97.457 338.856 98.1631 338.651 98.7842C338.446 99.4053 338.15 99.9297 337.764 100.357C337.377 100.785 336.908 101.113 336.357 101.342C335.812 101.564 335.194 101.676 334.503 101.676C333.858 101.676 333.267 101.564 332.728 101.342C332.194 101.113 331.731 100.785 331.339 100.357C330.952 99.9297 330.65 99.4053 330.434 98.7842C330.223 98.1631 330.117 97.457 330.117 96.666C330.117 95.6113 330.296 94.7148 330.653 93.9766C331.011 93.2324 331.521 92.667 332.183 92.2803C332.851 91.8877 333.645 91.6914 334.564 91.6914C335.443 91.6914 336.211 91.8877 336.867 92.2803C337.529 92.6729 338.042 93.2412 338.405 93.9854C338.774 94.7236 338.959 95.6172 338.959 96.666ZM331.629 96.666C331.629 97.4395 331.731 98.1104 331.937 98.6787C332.142 99.2471 332.458 99.6865 332.886 99.9971C333.313 100.308 333.864 100.463 334.538 100.463C335.206 100.463 335.754 100.308 336.182 99.9971C336.615 99.6865 336.935 99.2471 337.14 98.6787C337.345 98.1104 337.447 97.4395 337.447 96.666C337.447 95.8984 337.345 95.2363 337.14 94.6797C336.935 94.1172 336.618 93.6836 336.19 93.3789C335.763 93.0742 335.209 92.9219 334.529 92.9219C333.527 92.9219 332.792 93.2529 332.323 93.915C331.86 94.5771 331.629 95.4941 331.629 96.666ZM342.949 91.8672V95.9102H348.319V91.8672H349.778V101.5H348.319V97.1494H342.949V101.5H341.481V91.8672H342.949ZM354.261 91.8672V97.9229C354.261 98.04 354.258 98.1924 354.252 98.3799C354.246 98.5615 354.237 98.7578 354.226 98.9688C354.214 99.1738 354.202 99.373 354.19 99.5664C354.185 99.7539 354.176 99.9092 354.164 100.032L359.42 91.8672H361.213V101.5H359.851V95.5938C359.851 95.4062 359.854 95.166 359.859 94.873C359.865 94.5801 359.874 94.293 359.886 94.0117C359.897 93.7246 359.906 93.502 359.912 93.3438L354.674 101.5H352.872V91.8672H354.261ZM374.484 91.8672V101.5H373.166V95.2246C373.166 94.9668 373.172 94.7061 373.184 94.4424C373.201 94.1729 373.222 93.9033 373.245 93.6338H373.192L369.993 101.5H368.754L365.634 93.6338H365.581C365.599 93.9033 365.61 94.1729 365.616 94.4424C365.628 94.7061 365.634 94.9844 365.634 95.2773V101.5H364.307V91.8672H366.267L369.378 99.7422L372.533 91.8672H374.484ZM381.12 91.709C382.269 91.709 383.121 91.9668 383.678 92.4824C384.234 92.998 384.513 93.8213 384.513 94.9521V101.5H383.449L383.168 100.076H383.098C382.828 100.428 382.547 100.724 382.254 100.964C381.961 101.198 381.621 101.377 381.234 101.5C380.854 101.617 380.385 101.676 379.828 101.676C379.242 101.676 378.721 101.573 378.264 101.368C377.812 101.163 377.455 100.853 377.191 100.437C376.934 100.021 376.805 99.4932 376.805 98.8545C376.805 97.8936 377.186 97.1553 377.947 96.6396C378.709 96.124 379.869 95.8428 381.428 95.7959L383.089 95.7256V95.1367C383.089 94.3047 382.91 93.7217 382.553 93.3877C382.195 93.0537 381.691 92.8867 381.041 92.8867C380.537 92.8867 380.057 92.96 379.6 93.1064C379.143 93.2529 378.709 93.4258 378.299 93.625L377.851 92.5176C378.284 92.2949 378.782 92.1045 379.345 91.9463C379.907 91.7881 380.499 91.709 381.12 91.709ZM383.071 96.7539L381.604 96.8154C380.402 96.8623 379.556 97.0586 379.063 97.4043C378.571 97.75 378.325 98.2393 378.325 98.8721C378.325 99.4229 378.492 99.8301 378.826 100.094C379.16 100.357 379.603 100.489 380.153 100.489C381.009 100.489 381.709 100.252 382.254 99.7773C382.799 99.3027 383.071 98.5908 383.071 97.6416V96.7539ZM394.084 93.1064H390.911V101.5H389.47V93.1064H386.341V91.8672H394.084V93.1064ZM397.459 95.8398H400.412C401.232 95.8398 401.915 95.9424 402.46 96.1475C403.005 96.3525 403.412 96.6572 403.682 97.0615C403.957 97.4658 404.095 97.9668 404.095 98.5645C404.095 99.1621 403.96 99.6807 403.69 100.12C403.427 100.56 403.017 100.899 402.46 101.14C401.909 101.38 401.197 101.5 400.324 101.5H395.991V91.8672H397.459V95.8398ZM402.627 98.6348C402.627 98.043 402.416 97.6328 401.994 97.4043C401.578 97.1699 400.995 97.0527 400.245 97.0527H397.459V100.313H400.254C400.957 100.313 401.528 100.185 401.968 99.9268C402.407 99.6631 402.627 99.2324 402.627 98.6348ZM146.725 126.676C145.857 126.676 145.093 126.497 144.431 126.14C143.769 125.782 143.253 125.237 142.884 124.505C142.515 123.772 142.33 122.85 142.33 121.736C142.33 120.57 142.523 119.618 142.91 118.88C143.303 118.136 143.842 117.585 144.527 117.228C145.213 116.87 145.992 116.691 146.865 116.691C147.346 116.691 147.809 116.741 148.254 116.841C148.705 116.935 149.074 117.055 149.361 117.201L148.922 118.423C148.629 118.306 148.289 118.2 147.902 118.106C147.521 118.013 147.164 117.966 146.83 117.966C146.162 117.966 145.605 118.109 145.16 118.396C144.721 118.684 144.39 119.105 144.167 119.662C143.95 120.219 143.842 120.904 143.842 121.719C143.842 122.498 143.947 123.163 144.158 123.714C144.375 124.265 144.694 124.687 145.116 124.979C145.544 125.267 146.077 125.41 146.716 125.41C147.226 125.41 147.686 125.357 148.096 125.252C148.506 125.141 148.878 125.012 149.212 124.865V126.166C148.89 126.33 148.529 126.456 148.131 126.544C147.738 126.632 147.27 126.676 146.725 126.676ZM161.666 116.867V126.5H160.348V120.225C160.348 119.967 160.354 119.706 160.365 119.442C160.383 119.173 160.403 118.903 160.427 118.634H160.374L157.175 126.5H155.936L152.815 118.634H152.763C152.78 118.903 152.792 119.173 152.798 119.442C152.81 119.706 152.815 119.984 152.815 120.277V126.5H151.488V116.867H153.448L156.56 124.742L159.715 116.867H161.666ZM164.698 126.5V116.867H166.166V120.84H168.803C169.623 120.84 170.297 120.942 170.824 121.147C171.357 121.353 171.753 121.657 172.011 122.062C172.269 122.466 172.397 122.967 172.397 123.564C172.397 124.162 172.269 124.681 172.011 125.12C171.759 125.56 171.36 125.899 170.815 126.14C170.276 126.38 169.573 126.5 168.706 126.5H164.698ZM166.166 125.313H168.565C169.292 125.313 169.872 125.185 170.306 124.927C170.739 124.669 170.956 124.238 170.956 123.635C170.956 123.043 170.754 122.633 170.35 122.404C169.945 122.17 169.365 122.053 168.609 122.053H166.166V125.313ZM173.988 126.5V116.867H175.447V126.5H173.988ZM182.391 126.676C181.523 126.676 180.759 126.497 180.097 126.14C179.435 125.782 178.919 125.237 178.55 124.505C178.181 123.772 177.996 122.85 177.996 121.736C177.996 120.57 178.189 119.618 178.576 118.88C178.969 118.136 179.508 117.585 180.193 117.228C180.879 116.87 181.658 116.691 182.531 116.691C183.012 116.691 183.475 116.741 183.92 116.841C184.371 116.935 184.74 117.055 185.027 117.201L184.588 118.423C184.295 118.306 183.955 118.2 183.568 118.106C183.188 118.013 182.83 117.966 182.496 117.966C181.828 117.966 181.271 118.109 180.826 118.396C180.387 118.684 180.056 119.105 179.833 119.662C179.616 120.219 179.508 120.904 179.508 121.719C179.508 122.498 179.613 123.163 179.824 123.714C180.041 124.265 180.36 124.687 180.782 124.979C181.21 125.267 181.743 125.41 182.382 125.41C182.892 125.41 183.352 125.357 183.762 125.252C184.172 125.141 184.544 125.012 184.878 124.865V126.166C184.556 126.33 184.195 126.456 183.797 126.544C183.404 126.632 182.936 126.676 182.391 126.676ZM194.388 126.5H192.902V118.089H189.976C189.858 119.606 189.709 120.907 189.527 121.991C189.352 123.069 189.129 123.951 188.859 124.637C188.596 125.316 188.273 125.817 187.893 126.14C187.518 126.456 187.069 126.614 186.548 126.614C186.39 126.614 186.24 126.605 186.1 126.588C185.959 126.57 185.839 126.541 185.739 126.5V125.393C185.815 125.416 185.895 125.434 185.977 125.445C186.064 125.457 186.155 125.463 186.249 125.463C186.513 125.463 186.753 125.354 186.97 125.138C187.192 124.915 187.392 124.581 187.567 124.136C187.749 123.69 187.91 123.128 188.051 122.448C188.191 121.763 188.314 120.957 188.42 120.031C188.531 119.1 188.628 118.045 188.71 116.867H194.388V126.5ZM210.208 116.867V126.5H208.74V118.124H203.607V126.5H202.14V116.867H210.208ZM217.828 116.691C219.029 116.691 219.987 117.104 220.702 117.931C221.417 118.757 221.774 119.999 221.774 121.657C221.774 122.753 221.61 123.673 221.282 124.417C220.954 125.161 220.491 125.724 219.894 126.104C219.302 126.485 218.602 126.676 217.793 126.676C217.283 126.676 216.835 126.608 216.448 126.474C216.062 126.339 215.73 126.157 215.455 125.929C215.18 125.7 214.951 125.451 214.77 125.182H214.664C214.682 125.41 214.702 125.686 214.726 126.008C214.755 126.33 214.77 126.611 214.77 126.852V130.807H213.302V116.867H214.506L214.699 118.291H214.77C214.957 117.998 215.186 117.731 215.455 117.491C215.725 117.245 216.053 117.052 216.439 116.911C216.832 116.765 217.295 116.691 217.828 116.691ZM217.573 117.922C216.905 117.922 216.366 118.051 215.956 118.309C215.552 118.566 215.256 118.953 215.068 119.469C214.881 119.979 214.781 120.62 214.77 121.394V121.675C214.77 122.489 214.857 123.178 215.033 123.74C215.215 124.303 215.511 124.73 215.921 125.023C216.337 125.316 216.894 125.463 217.591 125.463C218.188 125.463 218.687 125.302 219.085 124.979C219.483 124.657 219.779 124.209 219.973 123.635C220.172 123.055 220.271 122.39 220.271 121.64C220.271 120.503 220.049 119.601 219.604 118.933C219.164 118.259 218.487 117.922 217.573 117.922ZM232.629 121.666C232.629 122.457 232.526 123.163 232.321 123.784C232.116 124.405 231.82 124.93 231.434 125.357C231.047 125.785 230.578 126.113 230.027 126.342C229.482 126.564 228.864 126.676 228.173 126.676C227.528 126.676 226.937 126.564 226.397 126.342C225.864 126.113 225.401 125.785 225.009 125.357C224.622 124.93 224.32 124.405 224.104 123.784C223.893 123.163 223.787 122.457 223.787 121.666C223.787 120.611 223.966 119.715 224.323 118.977C224.681 118.232 225.19 117.667 225.853 117.28C226.521 116.888 227.314 116.691 228.234 116.691C229.113 116.691 229.881 116.888 230.537 117.28C231.199 117.673 231.712 118.241 232.075 118.985C232.444 119.724 232.629 120.617 232.629 121.666ZM225.299 121.666C225.299 122.439 225.401 123.11 225.606 123.679C225.812 124.247 226.128 124.687 226.556 124.997C226.983 125.308 227.534 125.463 228.208 125.463C228.876 125.463 229.424 125.308 229.852 124.997C230.285 124.687 230.604 124.247 230.81 123.679C231.015 123.11 231.117 122.439 231.117 121.666C231.117 120.898 231.015 120.236 230.81 119.68C230.604 119.117 230.288 118.684 229.86 118.379C229.433 118.074 228.879 117.922 228.199 117.922C227.197 117.922 226.462 118.253 225.993 118.915C225.53 119.577 225.299 120.494 225.299 121.666ZM236.426 116.867V120.33C236.426 120.934 236.59 121.379 236.918 121.666C237.252 121.953 237.735 122.097 238.368 122.097C238.978 122.097 239.531 122.003 240.029 121.815C240.527 121.628 241.031 121.373 241.541 121.051V116.867H243V126.5H241.541V122.185C241.002 122.53 240.472 122.803 239.95 123.002C239.429 123.201 238.805 123.301 238.078 123.301C237.088 123.301 236.32 123.043 235.775 122.527C235.236 122.012 234.967 121.314 234.967 120.436V116.867H236.426ZM247.474 116.867V122.923C247.474 123.04 247.471 123.192 247.465 123.38C247.459 123.562 247.45 123.758 247.438 123.969C247.427 124.174 247.415 124.373 247.403 124.566C247.397 124.754 247.389 124.909 247.377 125.032L252.633 116.867H254.426V126.5H253.063V120.594C253.063 120.406 253.066 120.166 253.072 119.873C253.078 119.58 253.087 119.293 253.099 119.012C253.11 118.725 253.119 118.502 253.125 118.344L247.887 126.5H246.085V116.867H247.474ZM264.094 118.106H260.921V126.5H259.479V118.106H256.351V116.867H264.094V118.106ZM269.604 116.709C270.753 116.709 271.605 116.967 272.162 117.482C272.719 117.998 272.997 118.821 272.997 119.952V126.5H271.934L271.652 125.076H271.582C271.312 125.428 271.031 125.724 270.738 125.964C270.445 126.198 270.105 126.377 269.719 126.5C269.338 126.617 268.869 126.676 268.312 126.676C267.727 126.676 267.205 126.573 266.748 126.368C266.297 126.163 265.939 125.853 265.676 125.437C265.418 125.021 265.289 124.493 265.289 123.854C265.289 122.894 265.67 122.155 266.432 121.64C267.193 121.124 268.354 120.843 269.912 120.796L271.573 120.726V120.137C271.573 119.305 271.395 118.722 271.037 118.388C270.68 118.054 270.176 117.887 269.525 117.887C269.021 117.887 268.541 117.96 268.084 118.106C267.627 118.253 267.193 118.426 266.783 118.625L266.335 117.518C266.769 117.295 267.267 117.104 267.829 116.946C268.392 116.788 268.983 116.709 269.604 116.709ZM271.556 121.754L270.088 121.815C268.887 121.862 268.04 122.059 267.548 122.404C267.056 122.75 266.81 123.239 266.81 123.872C266.81 124.423 266.977 124.83 267.311 125.094C267.645 125.357 268.087 125.489 268.638 125.489C269.493 125.489 270.193 125.252 270.738 124.777C271.283 124.303 271.556 123.591 271.556 122.642V121.754ZM277.471 116.867V120.91H282.841V116.867H284.3V126.5H282.841V122.149H277.471V126.5H276.003V116.867H277.471ZM288.861 116.867V120.91H294.231V116.867H295.69V126.5H294.231V122.149H288.861V126.5H287.394V116.867H288.861ZM307.09 121.666C307.09 122.457 306.987 123.163 306.782 123.784C306.577 124.405 306.281 124.93 305.895 125.357C305.508 125.785 305.039 126.113 304.488 126.342C303.943 126.564 303.325 126.676 302.634 126.676C301.989 126.676 301.397 126.564 300.858 126.342C300.325 126.113 299.862 125.785 299.47 125.357C299.083 124.93 298.781 124.405 298.564 123.784C298.354 123.163 298.248 122.457 298.248 121.666C298.248 120.611 298.427 119.715 298.784 118.977C299.142 118.232 299.651 117.667 300.313 117.28C300.981 116.888 301.775 116.691 302.695 116.691C303.574 116.691 304.342 116.888 304.998 117.28C305.66 117.673 306.173 118.241 306.536 118.985C306.905 119.724 307.09 120.617 307.09 121.666ZM299.76 121.666C299.76 122.439 299.862 123.11 300.067 123.679C300.272 124.247 300.589 124.687 301.017 124.997C301.444 125.308 301.995 125.463 302.669 125.463C303.337 125.463 303.885 125.308 304.312 124.997C304.746 124.687 305.065 124.247 305.271 123.679C305.476 123.11 305.578 122.439 305.578 121.666C305.578 120.898 305.476 120.236 305.271 119.68C305.065 119.117 304.749 118.684 304.321 118.379C303.894 118.074 303.34 117.922 302.66 117.922C301.658 117.922 300.923 118.253 300.454 118.915C299.991 119.577 299.76 120.494 299.76 121.666ZM315.457 116.867V118.106H311.08V126.5H309.612V116.867H315.457ZM325.688 121.666C325.688 122.457 325.585 123.163 325.38 123.784C325.175 124.405 324.879 124.93 324.492 125.357C324.105 125.785 323.637 126.113 323.086 126.342C322.541 126.564 321.923 126.676 321.231 126.676C320.587 126.676 319.995 126.564 319.456 126.342C318.923 126.113 318.46 125.785 318.067 125.357C317.681 124.93 317.379 124.405 317.162 123.784C316.951 123.163 316.846 122.457 316.846 121.666C316.846 120.611 317.024 119.715 317.382 118.977C317.739 118.232 318.249 117.667 318.911 117.28C319.579 116.888 320.373 116.691 321.293 116.691C322.172 116.691 322.939 116.888 323.596 117.28C324.258 117.673 324.771 118.241 325.134 118.985C325.503 119.724 325.688 120.617 325.688 121.666ZM318.357 121.666C318.357 122.439 318.46 123.11 318.665 123.679C318.87 124.247 319.187 124.687 319.614 124.997C320.042 125.308 320.593 125.463 321.267 125.463C321.935 125.463 322.482 125.308 322.91 124.997C323.344 124.687 323.663 124.247 323.868 123.679C324.073 123.11 324.176 122.439 324.176 121.666C324.176 120.898 324.073 120.236 323.868 119.68C323.663 119.117 323.347 118.684 322.919 118.379C322.491 118.074 321.938 117.922 321.258 117.922C320.256 117.922 319.521 118.253 319.052 118.915C318.589 119.577 318.357 120.494 318.357 121.666Z" fill="#16578D"></path> </g> <defs> <filter id="filter0_d_163_14621" x="0" y="0" width="468" height="154" filterUnits="userSpaceOnUse" color-interpolation-filters="sRGB"> <feFlood flood-opacity="0" result="BackgroundImageFix"></feFlood> <feColorMatrix in="SourceAlpha" type="matrix" values="0 0 0 0 0 0 0 0 0 0 0 0 0 0 0 0 0 0 127 0" result="hardAlpha"></feColorMatrix> <feOffset dy="4"></feOffset> <feGaussianBlur stdDeviation="2"></feGaussianBlur> <feComposite in2="hardAlpha" operator="out"></feComposite> <feColorMatrix type="matrix" values="0 0 0 0 0.729412 0 0 0 0 0.988235 0 0 0 0 0.737255 0 0 0 0.58 0"></feColorMatrix> <feBlend mode="normal" in2="BackgroundImageFix" result="effect1_dropShadow_163_14621"></feBlend> <feBlend mode="normal" in="SourceGraphic" in2="effect1_dropShadow_163_14621" result="shape"></feBlend> </filter> </defs> </svg> 