<?xml version="1.0" encoding="UTF-8"?> <svg xmlns="http://www.w3.org/2000/svg" width="468" height="145" viewBox="0 0 468 145" fill="none"> <g filter="url(#filter0_ddd_332_496)"> <rect x="4" width="460" height="137" rx="68.5" fill="#FABD99"></rect> <path d="M161.988 35.1406C161.559 35.1406 161.176 35.0625 160.84 34.9062C160.504 34.7422 160.223 34.5195 159.996 34.2383C159.785 33.9805 159.625 33.6914 159.516 33.3711C159.406 33.043 159.352 32.7148 159.352 32.3867C159.352 31.8242 159.484 31.3828 159.75 31.0625C160.008 30.7422 160.371 30.582 160.84 30.582C161.215 30.582 161.516 30.6992 161.742 30.9336C161.977 31.1602 162.094 31.4609 162.094 31.8359C162.094 32.1797 162.012 32.4531 161.848 32.6562C161.691 32.8516 161.496 32.9492 161.262 32.9492C161.207 32.9492 161.164 32.9453 161.133 32.9375C161.117 33.1719 161.172 33.3672 161.297 33.5234C161.461 33.7422 161.719 33.8516 162.07 33.8516C162.477 33.8516 162.816 33.7227 163.09 33.4648C163.363 33.1992 163.59 32.8203 163.77 32.3281C163.934 31.8594 164.074 31.3359 164.191 30.7578C164.293 30.2031 164.41 29.6016 164.543 28.9531L165.809 23H169.172L169.676 32.2109L174.141 23H177.691L176.414 28.9531L175.992 30.8047C175.891 31.2578 175.84 31.5938 175.84 31.8125C175.84 32.4844 176.16 32.8203 176.801 32.8203C177.043 32.8203 177.254 32.7812 177.434 32.7031C177.613 32.6172 177.781 32.4844 177.938 32.3047C178.078 32.1406 178.211 31.9375 178.336 31.6953C178.469 31.4531 178.629 31.1211 178.816 30.6992H179.824C178.816 33.6602 177.328 35.1406 175.359 35.1406C174.438 35.1406 173.727 34.8828 173.227 34.3672C173 34.1406 172.828 33.875 172.711 33.5703C172.594 33.2578 172.535 32.9336 172.535 32.5977C172.535 31.918 172.703 30.8555 173.039 29.4102L173.414 27.6992L169.863 35H166.5L166.078 27.6758L165.762 29.1875C165.535 30.3203 165.332 31.2227 165.152 31.8945C164.973 32.5664 164.762 33.1328 164.52 33.5938C164.246 34.1094 163.906 34.4961 163.5 34.7539C163.102 35.0117 162.598 35.1406 161.988 35.1406ZM181.711 35.1406C180.797 35.1406 180.059 34.8555 179.496 34.2852C178.84 33.6133 178.512 32.6133 178.512 31.2852C178.512 30.7227 178.57 30.1289 178.688 29.5039C178.797 28.8789 178.961 28.2617 179.18 27.6523C179.68 26.2773 180.363 25.168 181.23 24.3242C182.23 23.3633 183.383 22.8828 184.688 22.8828C185.336 22.8828 185.82 22.9961 186.141 23.2227C186.469 23.4414 186.633 23.7344 186.633 24.1016V24.2773L186.891 23H190.348L188.625 31.1562C188.555 31.3906 188.52 31.6484 188.52 31.9297C188.52 32.6172 188.848 32.9609 189.504 32.9609C189.941 32.9609 190.34 32.7383 190.699 32.293C191.004 31.918 191.254 31.3867 191.449 30.6992H192.457C192.027 31.918 191.508 32.8828 190.898 33.5938C190.383 34.1797 189.801 34.6016 189.152 34.8594C188.676 35.0469 188.172 35.1406 187.641 35.1406C186.961 35.1406 186.418 34.957 186.012 34.5898C185.613 34.2148 185.371 33.6641 185.285 32.9375C184.832 33.5781 184.355 34.0781 183.855 34.4375C183.215 34.9062 182.5 35.1406 181.711 35.1406ZM183.27 32.8203C183.449 32.8203 183.637 32.7734 183.832 32.6797C184.035 32.5859 184.23 32.4531 184.418 32.2812C184.84 31.875 185.121 31.3477 185.262 30.6992L186.41 25.2852C186.41 25.207 186.391 25.1172 186.352 25.0156C186.32 24.9062 186.273 24.8047 186.211 24.7109C186.023 24.4844 185.762 24.3711 185.426 24.3711C185.105 24.3711 184.793 24.4766 184.488 24.6875C184.191 24.8984 183.91 25.1914 183.645 25.5664C183.176 26.2461 182.789 27.1328 182.484 28.2266C182.344 28.7109 182.238 29.1914 182.168 29.668C182.098 30.1367 182.062 30.5625 182.062 30.9453C182.062 31.7422 182.211 32.2812 182.508 32.5625C182.609 32.6719 182.723 32.7422 182.848 32.7734C182.973 32.8047 183.113 32.8203 183.27 32.8203ZM206.051 35.1406C205.059 35.1406 204.324 34.8594 203.848 34.2969C203.434 33.8125 203.227 33.1914 203.227 32.4336C203.227 32.0742 203.27 31.6562 203.355 31.1797C203.449 30.7031 203.586 30.0898 203.766 29.3398C203.945 28.5742 204.078 27.9648 204.164 27.5117C204.258 27.0508 204.305 26.6523 204.305 26.3164C204.305 25.4961 204.016 25.0859 203.438 25.0859C203.031 25.0859 202.656 25.3008 202.312 25.7305C202.023 26.0977 201.773 26.6211 201.562 27.3008L199.934 35H196.477L198.234 26.7148C198.281 26.5273 198.305 26.3281 198.305 26.1172C198.305 25.7969 198.254 25.5508 198.152 25.3789C198.02 25.168 197.828 25.0625 197.578 25.0625C197.125 25.0625 196.73 25.2812 196.395 25.7188C196.098 26.0938 195.844 26.6211 195.633 27.3008L194.004 35H190.547L193.09 23H196.547L196.289 24.2422C196.758 23.7188 197.27 23.3477 197.824 23.1289C198.262 22.9648 198.727 22.8828 199.219 22.8828C199.891 22.8828 200.426 23.0391 200.824 23.3516C201.27 23.7031 201.555 24.2344 201.68 24.9453C202.195 24.1484 202.789 23.5859 203.461 23.2578C203.938 23.0234 204.457 22.9062 205.02 22.9062C205.824 22.9062 206.461 23.1172 206.93 23.5391C207.43 24 207.68 24.6914 207.68 25.6133C207.68 26.1367 207.582 26.8594 207.387 27.7812C207.309 28.1641 207.215 28.5508 207.105 28.9414C206.91 29.6914 206.75 30.3828 206.625 31.0156C206.562 31.3438 206.531 31.6094 206.531 31.8125C206.531 32.1328 206.602 32.3828 206.742 32.5625C206.891 32.7344 207.141 32.8203 207.492 32.8203C207.969 32.8203 208.371 32.625 208.699 32.2344C208.949 31.9375 209.219 31.4258 209.508 30.6992H210.516C209.922 32.457 209.172 33.6875 208.266 34.3906C207.625 34.8906 206.887 35.1406 206.051 35.1406ZM212.941 35.1406C211.762 35.1406 210.852 34.8438 210.211 34.25C209.531 33.6172 209.191 32.6445 209.191 31.332C209.191 30.8398 209.242 30.293 209.344 29.6914C209.438 29.0898 209.582 28.4883 209.777 27.8867C209.996 27.2148 210.273 26.5781 210.609 25.9766C210.953 25.375 211.352 24.8438 211.805 24.3828C212.852 23.3203 214.141 22.7891 215.672 22.7891C216.648 22.7891 217.359 23.0234 217.805 23.4922C218.148 23.8594 218.32 24.3906 218.32 25.0859C218.32 25.7656 218.172 26.4062 217.875 27.0078C217.578 27.6016 217.168 28.1289 216.645 28.5898C216.121 29.043 215.527 29.4062 214.863 29.6797C214.199 29.9453 213.512 30.1016 212.801 30.1484C212.762 30.5547 212.742 30.875 212.742 31.1094C212.742 31.8906 212.891 32.4297 213.188 32.7266C213.445 32.9922 213.875 33.125 214.477 33.125C215.344 33.125 216.137 32.8906 216.855 32.4219C217.16 32.2266 217.453 31.9961 217.734 31.7305C218.016 31.457 218.344 31.1133 218.719 30.6992H219.539C218.781 31.9805 217.91 33 216.926 33.7578C215.715 34.6797 214.387 35.1406 212.941 35.1406ZM212.988 29C213.434 28.9688 213.867 28.8398 214.289 28.6133C214.711 28.3867 215.086 28.0898 215.414 27.7227C215.742 27.3477 216 26.9297 216.188 26.4688C216.375 26 216.469 25.5234 216.469 25.0391C216.469 24.7188 216.422 24.4766 216.328 24.3125C216.242 24.1406 216.09 24.0547 215.871 24.0547C215.582 24.0547 215.289 24.1953 214.992 24.4766C214.703 24.7578 214.422 25.1445 214.148 25.6367C213.898 26.0977 213.672 26.6211 213.469 27.207C213.266 27.793 213.105 28.3906 212.988 29ZM220.441 35.1406C220.012 35.1406 219.629 35.0625 219.293 34.9062C218.957 34.7422 218.676 34.5195 218.449 34.2383C218.238 33.9805 218.078 33.6914 217.969 33.3711C217.859 33.043 217.805 32.7148 217.805 32.3867C217.805 31.8242 217.938 31.3828 218.203 31.0625C218.461 30.7422 218.824 30.582 219.293 30.582C219.668 30.582 219.969 30.6992 220.195 30.9336C220.43 31.1602 220.547 31.4609 220.547 31.8359C220.547 32.1797 220.465 32.4531 220.301 32.6562C220.145 32.8516 219.949 32.9492 219.715 32.9492C219.66 32.9492 219.617 32.9453 219.586 32.9375C219.57 33.1719 219.625 33.3672 219.75 33.5234C219.914 33.7422 220.172 33.8516 220.523 33.8516C220.93 33.8516 221.27 33.7227 221.543 33.4648C221.816 33.1992 222.043 32.8203 222.223 32.3281C222.387 31.8594 222.527 31.3359 222.645 30.7578C222.746 30.2031 222.863 29.6016 222.996 28.9531L224.262 23H227.625L228.129 32.2109L232.594 23H236.145L234.867 28.9531L234.445 30.8047C234.344 31.2578 234.293 31.5938 234.293 31.8125C234.293 32.4844 234.613 32.8203 235.254 32.8203C235.496 32.8203 235.707 32.7812 235.887 32.7031C236.066 32.6172 236.234 32.4844 236.391 32.3047C236.531 32.1406 236.664 31.9375 236.789 31.6953C236.922 31.4531 237.082 31.1211 237.27 30.6992H238.277C237.27 33.6602 235.781 35.1406 233.812 35.1406C232.891 35.1406 232.18 34.8828 231.68 34.3672C231.453 34.1406 231.281 33.875 231.164 33.5703C231.047 33.2578 230.988 32.9336 230.988 32.5977C230.988 31.918 231.156 30.8555 231.492 29.4102L231.867 27.6992L228.316 35H224.953L224.531 27.6758L224.215 29.1875C223.988 30.3203 223.785 31.2227 223.605 31.8945C223.426 32.5664 223.215 33.1328 222.973 33.5938C222.699 34.1094 222.359 34.4961 221.953 34.7539C221.555 35.0117 221.051 35.1406 220.441 35.1406ZM240.164 35.1406C239.25 35.1406 238.512 34.8555 237.949 34.2852C237.293 33.6133 236.965 32.6133 236.965 31.2852C236.965 30.7227 237.023 30.1289 237.141 29.5039C237.25 28.8789 237.414 28.2617 237.633 27.6523C238.133 26.2773 238.816 25.168 239.684 24.3242C240.684 23.3633 241.836 22.8828 243.141 22.8828C243.789 22.8828 244.273 22.9961 244.594 23.2227C244.922 23.4414 245.086 23.7344 245.086 24.1016V24.2773L245.344 23H248.801L247.078 31.1562C247.008 31.3906 246.973 31.6484 246.973 31.9297C246.973 32.6172 247.301 32.9609 247.957 32.9609C248.395 32.9609 248.793 32.7383 249.152 32.293C249.457 31.918 249.707 31.3867 249.902 30.6992H250.91C250.48 31.918 249.961 32.8828 249.352 33.5938C248.836 34.1797 248.254 34.6016 247.605 34.8594C247.129 35.0469 246.625 35.1406 246.094 35.1406C245.414 35.1406 244.871 34.957 244.465 34.5898C244.066 34.2148 243.824 33.6641 243.738 32.9375C243.285 33.5781 242.809 34.0781 242.309 34.4375C241.668 34.9062 240.953 35.1406 240.164 35.1406ZM241.723 32.8203C241.902 32.8203 242.09 32.7734 242.285 32.6797C242.488 32.5859 242.684 32.4531 242.871 32.2812C243.293 31.875 243.574 31.3477 243.715 30.6992L244.863 25.2852C244.863 25.207 244.844 25.1172 244.805 25.0156C244.773 24.9062 244.727 24.8047 244.664 24.7109C244.477 24.4844 244.215 24.3711 243.879 24.3711C243.559 24.3711 243.246 24.4766 242.941 24.6875C242.645 24.8984 242.363 25.1914 242.098 25.5664C241.629 26.2461 241.242 27.1328 240.938 28.2266C240.797 28.7109 240.691 29.1914 240.621 29.668C240.551 30.1367 240.516 30.5625 240.516 30.9453C240.516 31.7422 240.664 32.2812 240.961 32.5625C241.062 32.6719 241.176 32.7422 241.301 32.7734C241.426 32.8047 241.566 32.8203 241.723 32.8203ZM264.504 35.1406C263.512 35.1406 262.777 34.8594 262.301 34.2969C261.887 33.8125 261.68 33.1914 261.68 32.4336C261.68 32.0742 261.723 31.6562 261.809 31.1797C261.902 30.7031 262.039 30.0898 262.219 29.3398C262.398 28.5742 262.531 27.9648 262.617 27.5117C262.711 27.0508 262.758 26.6523 262.758 26.3164C262.758 25.4961 262.469 25.0859 261.891 25.0859C261.484 25.0859 261.109 25.3008 260.766 25.7305C260.477 26.0977 260.227 26.6211 260.016 27.3008L258.387 35H254.93L256.688 26.7148C256.734 26.5273 256.758 26.3281 256.758 26.1172C256.758 25.7969 256.707 25.5508 256.605 25.3789C256.473 25.168 256.281 25.0625 256.031 25.0625C255.578 25.0625 255.184 25.2812 254.848 25.7188C254.551 26.0938 254.297 26.6211 254.086 27.3008L252.457 35H249L251.543 23H255L254.742 24.2422C255.211 23.7188 255.723 23.3477 256.277 23.1289C256.715 22.9648 257.18 22.8828 257.672 22.8828C258.344 22.8828 258.879 23.0391 259.277 23.3516C259.723 23.7031 260.008 24.2344 260.133 24.9453C260.648 24.1484 261.242 23.5859 261.914 23.2578C262.391 23.0234 262.91 22.9062 263.473 22.9062C264.277 22.9062 264.914 23.1172 265.383 23.5391C265.883 24 266.133 24.6914 266.133 25.6133C266.133 26.1367 266.035 26.8594 265.84 27.7812C265.762 28.1641 265.668 28.5508 265.559 28.9414C265.363 29.6914 265.203 30.3828 265.078 31.0156C265.016 31.3438 264.984 31.6094 264.984 31.8125C264.984 32.1328 265.055 32.3828 265.195 32.5625C265.344 32.7344 265.594 32.8203 265.945 32.8203C266.422 32.8203 266.824 32.625 267.152 32.2344C267.402 31.9375 267.672 31.4258 267.961 30.6992H268.969C268.375 32.457 267.625 33.6875 266.719 34.3906C266.078 34.8906 265.34 35.1406 264.504 35.1406ZM270.34 35.1406C269.574 35.1406 268.969 34.9141 268.523 34.4609C268.023 33.9609 267.773 33.2305 267.773 32.2695C267.773 31.8164 267.836 31.293 267.961 30.6992L269.59 23H273.047L271.324 31.1562C271.277 31.3984 271.254 31.625 271.254 31.8359C271.254 32.4922 271.492 32.8203 271.969 32.8203C272.406 32.8203 272.801 32.6211 273.152 32.2227C273.434 31.8867 273.68 31.3789 273.891 30.6992L275.52 23H278.977L277.254 31.1562C277.184 31.3906 277.148 31.6484 277.148 31.9297C277.148 32.2578 277.227 32.4883 277.383 32.6211C277.539 32.7539 277.789 32.8203 278.133 32.8203C278.578 32.8203 278.977 32.6211 279.328 32.2227C279.641 31.8711 279.891 31.3633 280.078 30.6992H281.086C280.656 31.918 280.137 32.8828 279.527 33.5938C279.012 34.1797 278.43 34.6016 277.781 34.8594C277.305 35.0469 276.801 35.1406 276.27 35.1406C275.582 35.1406 275.035 34.9492 274.629 34.5664C274.223 34.1836 273.977 33.6172 273.891 32.8672C273.344 33.7422 272.727 34.3672 272.039 34.7422C271.547 35.0078 270.98 35.1406 270.34 35.1406ZM288.738 35.1406C287.785 35.1406 287.062 34.9062 286.57 34.4375C286.086 33.9688 285.844 33.3164 285.844 32.4805C285.844 32.207 285.891 31.7969 285.984 31.25C286 31.125 286.016 31.0391 286.031 30.9922C286.047 30.8359 286.062 30.7305 286.078 30.6758C286.109 30.5195 286.125 30.3594 286.125 30.1953C286.125 29.4297 285.82 29.0469 285.211 29.0469C285.008 29.0469 284.789 29.1172 284.555 29.2578L284.168 29.5391L283.676 29.9375L282.621 35H279.164L281.73 23H285.188L284.156 27.7578C284.672 27.2422 285.172 26.7227 285.656 26.1992L285.832 26C286.762 25 287.395 24.332 287.73 23.9961C288.285 23.4414 288.809 23.082 289.301 22.918C289.574 22.832 289.859 22.7891 290.156 22.7891C290.695 22.7891 291.105 22.9375 291.387 23.2344C291.668 23.5234 291.809 23.9023 291.809 24.3711C291.809 24.8633 291.676 25.2461 291.41 25.5195C291.152 25.793 290.781 25.9297 290.297 25.9297C289.852 25.9297 289.512 25.793 289.277 25.5195C289.066 25.2852 288.969 25.0117 288.984 24.6992C288.734 24.8477 288.496 25.0234 288.27 25.2266C288.051 25.4219 287.809 25.6562 287.543 25.9297L287.309 26.1875C287.199 26.2969 287.051 26.4609 286.863 26.6797C286.668 26.9062 286.43 27.1602 286.148 27.4414C286.422 27.3789 286.758 27.3477 287.156 27.3477C287.984 27.3477 288.582 27.5391 288.949 27.9219C289.277 28.2578 289.441 28.8086 289.441 29.5742C289.441 29.832 289.395 30.2109 289.301 30.7109C289.262 30.9062 289.227 31.1133 289.195 31.332C289.164 31.543 289.148 31.7422 289.148 31.9297C289.148 32.5234 289.469 32.8203 290.109 32.8203C290.352 32.8203 290.559 32.7812 290.73 32.7031C290.91 32.6172 291.074 32.4844 291.223 32.3047C291.363 32.1406 291.5 31.9336 291.633 31.6836C291.766 31.4336 291.922 31.1055 292.102 30.6992H293.109C292.102 33.6602 290.645 35.1406 288.738 35.1406ZM294.984 35.1406C294.07 35.1406 293.332 34.8555 292.77 34.2852C292.113 33.6133 291.785 32.6133 291.785 31.2852C291.785 30.7227 291.844 30.1289 291.961 29.5039C292.07 28.8789 292.234 28.2617 292.453 27.6523C292.953 26.2773 293.637 25.168 294.504 24.3242C295.504 23.3633 296.656 22.8828 297.961 22.8828C298.609 22.8828 299.094 22.9961 299.414 23.2227C299.742 23.4414 299.906 23.7344 299.906 24.1016V24.2773L300.164 23H303.621L301.898 31.1562C301.828 31.3906 301.793 31.6484 301.793 31.9297C301.793 32.6172 302.121 32.9609 302.777 32.9609C303.215 32.9609 303.613 32.7383 303.973 32.293C304.277 31.918 304.527 31.3867 304.723 30.6992H305.73C305.301 31.918 304.781 32.8828 304.172 33.5938C303.656 34.1797 303.074 34.6016 302.426 34.8594C301.949 35.0469 301.445 35.1406 300.914 35.1406C300.234 35.1406 299.691 34.957 299.285 34.5898C298.887 34.2148 298.645 33.6641 298.559 32.9375C298.105 33.5781 297.629 34.0781 297.129 34.4375C296.488 34.9062 295.773 35.1406 294.984 35.1406ZM296.543 32.8203C296.723 32.8203 296.91 32.7734 297.105 32.6797C297.309 32.5859 297.504 32.4531 297.691 32.2812C298.113 31.875 298.395 31.3477 298.535 30.6992L299.684 25.2852C299.684 25.207 299.664 25.1172 299.625 25.0156C299.594 24.9062 299.547 24.8047 299.484 24.7109C299.297 24.4844 299.035 24.3711 298.699 24.3711C298.379 24.3711 298.066 24.4766 297.762 24.6875C297.465 24.8984 297.184 25.1914 296.918 25.5664C296.449 26.2461 296.062 27.1328 295.758 28.2266C295.617 28.7109 295.512 29.1914 295.441 29.668C295.371 30.1367 295.336 30.5625 295.336 30.9453C295.336 31.7422 295.484 32.2812 295.781 32.5625C295.883 32.6719 295.996 32.7422 296.121 32.7734C296.246 32.8047 296.387 32.8203 296.543 32.8203Z" fill="#16578D"></path> <path d="M78.8066 53.3672V57.4102H84.1768V53.3672H85.6357V63H84.1768V58.6494H78.8066V63H77.3389V53.3672H78.8066ZM92.333 53.209C93.4814 53.209 94.334 53.4668 94.8906 53.9824C95.4473 54.498 95.7256 55.3213 95.7256 56.4521V63H94.6621L94.3809 61.5762H94.3105C94.041 61.9277 93.7598 62.2236 93.4668 62.4639C93.1738 62.6982 92.834 62.877 92.4473 63C92.0664 63.1172 91.5977 63.1758 91.041 63.1758C90.4551 63.1758 89.9336 63.0732 89.4766 62.8682C89.0254 62.6631 88.668 62.3525 88.4043 61.9365C88.1465 61.5205 88.0176 60.9932 88.0176 60.3545C88.0176 59.3936 88.3984 58.6553 89.1602 58.1396C89.9219 57.624 91.082 57.3428 92.6406 57.2959L94.3018 57.2256V56.6367C94.3018 55.8047 94.123 55.2217 93.7656 54.8877C93.4082 54.5537 92.9043 54.3867 92.2539 54.3867C91.75 54.3867 91.2695 54.46 90.8125 54.6064C90.3555 54.7529 89.9219 54.9258 89.5117 55.125L89.0635 54.0176C89.4971 53.7949 89.9951 53.6045 90.5576 53.4463C91.1201 53.2881 91.7119 53.209 92.333 53.209ZM94.2842 58.2539L92.8164 58.3154C91.6152 58.3623 90.7686 58.5586 90.2764 58.9043C89.7842 59.25 89.5381 59.7393 89.5381 60.3721C89.5381 60.9229 89.7051 61.3301 90.0391 61.5938C90.373 61.8574 90.8154 61.9893 91.3662 61.9893C92.2217 61.9893 92.9219 61.752 93.4668 61.2773C94.0117 60.8027 94.2842 60.0908 94.2842 59.1416V58.2539ZM97.2109 53.3672H98.7754L100.902 58.957C101.025 59.2852 101.14 59.6016 101.245 59.9062C101.351 60.2051 101.444 60.4922 101.526 60.7676C101.608 61.043 101.673 61.3096 101.72 61.5674H101.781C101.863 61.2744 101.98 60.8906 102.133 60.416C102.285 59.9355 102.449 59.4463 102.625 58.9482L104.638 53.3672H106.211L102.019 64.415C101.796 65.0068 101.535 65.5225 101.236 65.9619C100.943 66.4014 100.586 66.7383 100.164 66.9727C99.7422 67.2129 99.2324 67.333 98.6348 67.333C98.3594 67.333 98.1162 67.3154 97.9053 67.2803C97.6943 67.251 97.5127 67.2158 97.3604 67.1748V66.0059C97.4893 66.0352 97.6445 66.0615 97.8262 66.085C98.0137 66.1084 98.207 66.1201 98.4062 66.1201C98.7695 66.1201 99.083 66.0498 99.3467 65.9092C99.6162 65.7744 99.8477 65.5752 100.041 65.3115C100.234 65.0479 100.401 64.7344 100.542 64.3711L101.069 63.0176L97.2109 53.3672ZM109.023 53.3672V56.8301C109.023 57.4336 109.188 57.8789 109.516 58.166C109.85 58.4531 110.333 58.5967 110.966 58.5967C111.575 58.5967 112.129 58.5029 112.627 58.3154C113.125 58.1279 113.629 57.873 114.139 57.5508V53.3672H115.598V63H114.139V58.6846C113.6 59.0303 113.069 59.3027 112.548 59.502C112.026 59.7012 111.402 59.8008 110.676 59.8008C109.686 59.8008 108.918 59.543 108.373 59.0273C107.834 58.5117 107.564 57.8145 107.564 56.9355V53.3672H109.023ZM120.071 53.3672V59.4229C120.071 59.54 120.068 59.6924 120.062 59.8799C120.057 60.0615 120.048 60.2578 120.036 60.4688C120.024 60.6738 120.013 60.873 120.001 61.0664C119.995 61.2539 119.986 61.4092 119.975 61.5322L125.23 53.3672H127.023V63H125.661V57.0938C125.661 56.9062 125.664 56.666 125.67 56.373C125.676 56.0801 125.685 55.793 125.696 55.5117C125.708 55.2246 125.717 55.002 125.723 54.8438L120.484 63H118.683V53.3672H120.071ZM140.295 53.3672V63H138.977V56.7246C138.977 56.4668 138.982 56.2061 138.994 55.9424C139.012 55.6729 139.032 55.4033 139.056 55.1338H139.003L135.804 63H134.564L131.444 55.1338H131.392C131.409 55.4033 131.421 55.6729 131.427 55.9424C131.438 56.2061 131.444 56.4844 131.444 56.7773V63H130.117V53.3672H132.077L135.188 61.2422L138.344 53.3672H140.295ZM151.861 63.1758C150.994 63.1758 150.229 62.9971 149.567 62.6396C148.905 62.2822 148.39 61.7373 148.021 61.0049C147.651 60.2725 147.467 59.3496 147.467 58.2363C147.467 57.0703 147.66 56.1182 148.047 55.3799C148.439 54.6357 148.979 54.085 149.664 53.7275C150.35 53.3701 151.129 53.1914 152.002 53.1914C152.482 53.1914 152.945 53.2412 153.391 53.3408C153.842 53.4346 154.211 53.5547 154.498 53.7012L154.059 54.9229C153.766 54.8057 153.426 54.7002 153.039 54.6064C152.658 54.5127 152.301 54.4658 151.967 54.4658C151.299 54.4658 150.742 54.6094 150.297 54.8965C149.857 55.1836 149.526 55.6055 149.304 56.1621C149.087 56.7188 148.979 57.4043 148.979 58.2188C148.979 58.998 149.084 59.6631 149.295 60.2139C149.512 60.7646 149.831 61.1865 150.253 61.4795C150.681 61.7666 151.214 61.9102 151.853 61.9102C152.362 61.9102 152.822 61.8574 153.232 61.752C153.643 61.6406 154.015 61.5117 154.349 61.3652V62.666C154.026 62.8301 153.666 62.9561 153.268 63.0439C152.875 63.1318 152.406 63.1758 151.861 63.1758ZM164.289 55.7842C164.289 56.3877 164.113 56.8594 163.762 57.1992C163.41 57.5332 162.956 57.7588 162.399 57.876V57.9463C163.003 58.0283 163.521 58.2451 163.955 58.5967C164.395 58.9424 164.614 59.4727 164.614 60.1875C164.614 60.7383 164.482 61.2246 164.219 61.6465C163.955 62.0684 163.542 62.3994 162.979 62.6396C162.417 62.8799 161.685 63 160.782 63H156.634V53.3672H160.747C161.438 53.3672 162.048 53.4463 162.575 53.6045C163.108 53.7568 163.527 54.0088 163.832 54.3604C164.137 54.7119 164.289 55.1865 164.289 55.7842ZM163.094 60.1875C163.094 59.6191 162.877 59.209 162.443 58.957C162.016 58.7051 161.392 58.5791 160.571 58.5791H158.102V61.8135H160.606C161.415 61.8135 162.03 61.6904 162.452 61.4443C162.88 61.1924 163.094 60.7734 163.094 60.1875ZM162.804 55.9512C162.804 55.4941 162.637 55.1543 162.303 54.9316C161.969 54.7031 161.421 54.5889 160.659 54.5889H158.102V57.3574H160.404C161.195 57.3574 161.793 57.2432 162.197 57.0146C162.602 56.7861 162.804 56.4316 162.804 55.9512ZM175.275 58.166C175.275 58.957 175.173 59.6631 174.968 60.2842C174.763 60.9053 174.467 61.4297 174.08 61.8574C173.693 62.2852 173.225 62.6133 172.674 62.8418C172.129 63.0645 171.511 63.1758 170.819 63.1758C170.175 63.1758 169.583 63.0645 169.044 62.8418C168.511 62.6133 168.048 62.2852 167.655 61.8574C167.269 61.4297 166.967 60.9053 166.75 60.2842C166.539 59.6631 166.434 58.957 166.434 58.166C166.434 57.1113 166.612 56.2148 166.97 55.4766C167.327 54.7324 167.837 54.167 168.499 53.7803C169.167 53.3877 169.961 53.1914 170.881 53.1914C171.76 53.1914 172.527 53.3877 173.184 53.7803C173.846 54.1729 174.358 54.7412 174.722 55.4854C175.091 56.2236 175.275 57.1172 175.275 58.166ZM167.945 58.166C167.945 58.9395 168.048 59.6104 168.253 60.1787C168.458 60.7471 168.774 61.1865 169.202 61.4971C169.63 61.8076 170.181 61.9629 170.854 61.9629C171.522 61.9629 172.07 61.8076 172.498 61.4971C172.932 61.1865 173.251 60.7471 173.456 60.1787C173.661 59.6104 173.764 58.9395 173.764 58.166C173.764 57.3984 173.661 56.7363 173.456 56.1797C173.251 55.6172 172.935 55.1836 172.507 54.8789C172.079 54.5742 171.525 54.4219 170.846 54.4219C169.844 54.4219 169.108 54.7529 168.64 55.415C168.177 56.0771 167.945 56.9941 167.945 58.166ZM177.297 57.2168C177.297 55.8457 177.429 54.6768 177.692 53.71C177.956 52.7373 178.363 51.958 178.914 51.3721C179.471 50.7803 180.186 50.376 181.059 50.1592C181.809 49.9541 182.57 49.7783 183.344 49.6318C184.117 49.4795 184.87 49.3477 185.603 49.2363L185.857 50.5195C185.488 50.5723 185.102 50.6338 184.697 50.7041C184.293 50.7686 183.889 50.8389 183.484 50.915C183.08 50.9854 182.699 51.0615 182.342 51.1436C181.984 51.2197 181.668 51.2988 181.393 51.3809C180.895 51.5156 180.464 51.75 180.101 52.084C179.743 52.418 179.459 52.8779 179.248 53.4639C179.043 54.0498 178.92 54.7881 178.879 55.6787H178.984C179.16 55.4209 179.4 55.166 179.705 54.9141C180.01 54.6621 180.373 54.4541 180.795 54.29C181.217 54.1201 181.691 54.0352 182.219 54.0352C183.051 54.0352 183.745 54.2168 184.302 54.5801C184.858 54.9375 185.277 55.4414 185.559 56.0918C185.84 56.7422 185.98 57.5039 185.98 58.377C185.98 59.4258 185.799 60.3076 185.436 61.0225C185.078 61.7373 184.574 62.2764 183.924 62.6396C183.273 62.9971 182.509 63.1758 181.63 63.1758C180.95 63.1758 180.341 63.0439 179.802 62.7803C179.269 62.5166 178.814 62.1299 178.439 61.6201C178.07 61.1104 177.786 60.4863 177.587 59.748C177.394 59.0098 177.297 58.166 177.297 57.2168ZM181.744 61.9629C182.301 61.9629 182.778 61.8457 183.177 61.6113C183.581 61.377 183.892 61.0078 184.108 60.5039C184.331 59.9941 184.442 59.332 184.442 58.5176C184.442 57.498 184.246 56.7012 183.854 56.127C183.467 55.5469 182.846 55.2568 181.99 55.2568C181.457 55.2568 180.974 55.3711 180.54 55.5996C180.106 55.8223 179.74 56.0889 179.441 56.3994C179.143 56.71 178.926 56.9883 178.791 57.2344C178.791 57.832 178.835 58.4121 178.923 58.9746C179.011 59.5371 179.163 60.0439 179.38 60.4951C179.597 60.9463 179.896 61.3037 180.276 61.5674C180.663 61.8311 181.152 61.9629 181.744 61.9629ZM196.809 58.166C196.809 58.957 196.706 59.6631 196.501 60.2842C196.296 60.9053 196 61.4297 195.613 61.8574C195.227 62.2852 194.758 62.6133 194.207 62.8418C193.662 63.0645 193.044 63.1758 192.353 63.1758C191.708 63.1758 191.116 63.0645 190.577 62.8418C190.044 62.6133 189.581 62.2852 189.188 61.8574C188.802 61.4297 188.5 60.9053 188.283 60.2842C188.072 59.6631 187.967 58.957 187.967 58.166C187.967 57.1113 188.146 56.2148 188.503 55.4766C188.86 54.7324 189.37 54.167 190.032 53.7803C190.7 53.3877 191.494 53.1914 192.414 53.1914C193.293 53.1914 194.061 53.3877 194.717 53.7803C195.379 54.1729 195.892 54.7412 196.255 55.4854C196.624 56.2236 196.809 57.1172 196.809 58.166ZM189.479 58.166C189.479 58.9395 189.581 59.6104 189.786 60.1787C189.991 60.7471 190.308 61.1865 190.735 61.4971C191.163 61.8076 191.714 61.9629 192.388 61.9629C193.056 61.9629 193.604 61.8076 194.031 61.4971C194.465 61.1865 194.784 60.7471 194.989 60.1787C195.194 59.6104 195.297 58.9395 195.297 58.166C195.297 57.3984 195.194 56.7363 194.989 56.1797C194.784 55.6172 194.468 55.1836 194.04 54.8789C193.612 54.5742 193.059 54.4219 192.379 54.4219C191.377 54.4219 190.642 54.7529 190.173 55.415C189.71 56.0771 189.479 56.9941 189.479 58.166ZM206.389 53.3672V61.7607H207.769V66.3311H206.354V63H199.533V66.3311H198.136V61.7607H198.892C199.442 60.999 199.899 60.1641 200.263 59.2559C200.626 58.3477 200.901 57.3955 201.089 56.3994C201.276 55.3975 201.376 54.3867 201.388 53.3672H206.389ZM204.974 54.5273H202.688C202.636 55.3828 202.51 56.2529 202.311 57.1377C202.117 58.0225 201.859 58.8662 201.537 59.6689C201.215 60.4658 200.84 61.1631 200.412 61.7607H204.974V54.5273ZM211.152 53.3672V57.4102H216.522V53.3672H217.981V63H216.522V58.6494H211.152V63H209.685V53.3672H211.152ZM229.381 58.166C229.381 58.957 229.278 59.6631 229.073 60.2842C228.868 60.9053 228.572 61.4297 228.186 61.8574C227.799 62.2852 227.33 62.6133 226.779 62.8418C226.234 63.0645 225.616 63.1758 224.925 63.1758C224.28 63.1758 223.688 63.0645 223.149 62.8418C222.616 62.6133 222.153 62.2852 221.761 61.8574C221.374 61.4297 221.072 60.9053 220.855 60.2842C220.645 59.6631 220.539 58.957 220.539 58.166C220.539 57.1113 220.718 56.2148 221.075 55.4766C221.433 54.7324 221.942 54.167 222.604 53.7803C223.272 53.3877 224.066 53.1914 224.986 53.1914C225.865 53.1914 226.633 53.3877 227.289 53.7803C227.951 54.1729 228.464 54.7412 228.827 55.4854C229.196 56.2236 229.381 57.1172 229.381 58.166ZM222.051 58.166C222.051 58.9395 222.153 59.6104 222.358 60.1787C222.563 60.7471 222.88 61.1865 223.308 61.4971C223.735 61.8076 224.286 61.9629 224.96 61.9629C225.628 61.9629 226.176 61.8076 226.604 61.4971C227.037 61.1865 227.356 60.7471 227.562 60.1787C227.767 59.6104 227.869 58.9395 227.869 58.166C227.869 57.3984 227.767 56.7363 227.562 56.1797C227.356 55.6172 227.04 55.1836 226.612 54.8789C226.185 54.5742 225.631 54.4219 224.951 54.4219C223.949 54.4219 223.214 54.7529 222.745 55.415C222.282 56.0771 222.051 56.9941 222.051 58.166ZM240.438 63.1758C239.57 63.1758 238.806 62.9971 238.144 62.6396C237.481 62.2822 236.966 61.7373 236.597 61.0049C236.228 60.2725 236.043 59.3496 236.043 58.2363C236.043 57.0703 236.236 56.1182 236.623 55.3799C237.016 54.6357 237.555 54.085 238.24 53.7275C238.926 53.3701 239.705 53.1914 240.578 53.1914C241.059 53.1914 241.521 53.2412 241.967 53.3408C242.418 53.4346 242.787 53.5547 243.074 53.7012L242.635 54.9229C242.342 54.8057 242.002 54.7002 241.615 54.6064C241.234 54.5127 240.877 54.4658 240.543 54.4658C239.875 54.4658 239.318 54.6094 238.873 54.8965C238.434 55.1836 238.103 55.6055 237.88 56.1621C237.663 56.7188 237.555 57.4043 237.555 58.2188C237.555 58.998 237.66 59.6631 237.871 60.2139C238.088 60.7646 238.407 61.1865 238.829 61.4795C239.257 61.7666 239.79 61.9102 240.429 61.9102C240.938 61.9102 241.398 61.8574 241.809 61.752C242.219 61.6406 242.591 61.5117 242.925 61.3652V62.666C242.603 62.8301 242.242 62.9561 241.844 63.0439C241.451 63.1318 240.982 63.1758 240.438 63.1758ZM246.484 53.3672V56.8301C246.484 57.4336 246.648 57.8789 246.977 58.166C247.311 58.4531 247.794 58.5967 248.427 58.5967C249.036 58.5967 249.59 58.5029 250.088 58.3154C250.586 58.1279 251.09 57.873 251.6 57.5508V53.3672H253.059V63H251.6V58.6846C251.061 59.0303 250.53 59.3027 250.009 59.502C249.487 59.7012 248.863 59.8008 248.137 59.8008C247.146 59.8008 246.379 59.543 245.834 59.0273C245.295 58.5117 245.025 57.8145 245.025 56.9355V53.3672H246.484ZM257.532 53.3672V59.4229C257.532 59.54 257.529 59.6924 257.523 59.8799C257.518 60.0615 257.509 60.2578 257.497 60.4688C257.485 60.6738 257.474 60.873 257.462 61.0664C257.456 61.2539 257.447 61.4092 257.436 61.5322L262.691 53.3672H264.484V63H263.122V57.0938C263.122 56.9062 263.125 56.666 263.131 56.373C263.137 56.0801 263.146 55.793 263.157 55.5117C263.169 55.2246 263.178 55.002 263.184 54.8438L257.945 63H256.144V53.3672H257.532ZM274.152 54.6064H270.979V63H269.538V54.6064H266.409V53.3672H274.152V54.6064ZM279.663 53.209C280.812 53.209 281.664 53.4668 282.221 53.9824C282.777 54.498 283.056 55.3213 283.056 56.4521V63H281.992L281.711 61.5762H281.641C281.371 61.9277 281.09 62.2236 280.797 62.4639C280.504 62.6982 280.164 62.877 279.777 63C279.396 63.1172 278.928 63.1758 278.371 63.1758C277.785 63.1758 277.264 63.0732 276.807 62.8682C276.355 62.6631 275.998 62.3525 275.734 61.9365C275.477 61.5205 275.348 60.9932 275.348 60.3545C275.348 59.3936 275.729 58.6553 276.49 58.1396C277.252 57.624 278.412 57.3428 279.971 57.2959L281.632 57.2256V56.6367C281.632 55.8047 281.453 55.2217 281.096 54.8877C280.738 54.5537 280.234 54.3867 279.584 54.3867C279.08 54.3867 278.6 54.46 278.143 54.6064C277.686 54.7529 277.252 54.9258 276.842 55.125L276.394 54.0176C276.827 53.7949 277.325 53.6045 277.888 53.4463C278.45 53.2881 279.042 53.209 279.663 53.209ZM281.614 58.2539L280.146 58.3154C278.945 58.3623 278.099 58.5586 277.606 58.9043C277.114 59.25 276.868 59.7393 276.868 60.3721C276.868 60.9229 277.035 61.3301 277.369 61.5938C277.703 61.8574 278.146 61.9893 278.696 61.9893C279.552 61.9893 280.252 61.752 280.797 61.2773C281.342 60.8027 281.614 60.0908 281.614 59.1416V58.2539ZM292.627 54.6064H289.454V63H288.013V54.6064H284.884V53.3672H292.627V54.6064ZM296.002 57.3398H298.955C299.775 57.3398 300.458 57.4424 301.003 57.6475C301.548 57.8525 301.955 58.1572 302.225 58.5615C302.5 58.9658 302.638 59.4668 302.638 60.0645C302.638 60.6621 302.503 61.1807 302.233 61.6201C301.97 62.0596 301.56 62.3994 301.003 62.6396C300.452 62.8799 299.74 63 298.867 63H294.534V53.3672H296.002V57.3398ZM301.17 60.1348C301.17 59.543 300.959 59.1328 300.537 58.9043C300.121 58.6699 299.538 58.5527 298.788 58.5527H296.002V61.8135H298.797C299.5 61.8135 300.071 61.6846 300.511 61.4268C300.95 61.1631 301.17 60.7324 301.17 60.1348ZM317.896 53.3672V63H316.428V54.624H311.295V63H309.827V53.3672H317.896ZM325.516 53.1914C326.717 53.1914 327.675 53.6045 328.39 54.4307C329.104 55.2568 329.462 56.499 329.462 58.1572C329.462 59.2529 329.298 60.1729 328.97 60.917C328.642 61.6611 328.179 62.2236 327.581 62.6045C326.989 62.9854 326.289 63.1758 325.48 63.1758C324.971 63.1758 324.522 63.1084 324.136 62.9736C323.749 62.8389 323.418 62.6572 323.143 62.4287C322.867 62.2002 322.639 61.9512 322.457 61.6816H322.352C322.369 61.9102 322.39 62.1855 322.413 62.5078C322.442 62.8301 322.457 63.1113 322.457 63.3516V67.3066H320.989V53.3672H322.193L322.387 54.791H322.457C322.645 54.498 322.873 54.2314 323.143 53.9912C323.412 53.7451 323.74 53.5518 324.127 53.4111C324.52 53.2646 324.982 53.1914 325.516 53.1914ZM325.261 54.4219C324.593 54.4219 324.054 54.5508 323.644 54.8086C323.239 55.0664 322.943 55.4531 322.756 55.9688C322.568 56.4785 322.469 57.1201 322.457 57.8936V58.1748C322.457 58.9893 322.545 59.6777 322.721 60.2402C322.902 60.8027 323.198 61.2305 323.608 61.5234C324.024 61.8164 324.581 61.9629 325.278 61.9629C325.876 61.9629 326.374 61.8018 326.772 61.4795C327.171 61.1572 327.467 60.709 327.66 60.1348C327.859 59.5547 327.959 58.8896 327.959 58.1396C327.959 57.0029 327.736 56.1006 327.291 55.4326C326.852 54.7588 326.175 54.4219 325.261 54.4219ZM333.399 53.3672V59.4229C333.399 59.54 333.396 59.6924 333.391 59.8799C333.385 60.0615 333.376 60.2578 333.364 60.4688C333.353 60.6738 333.341 60.873 333.329 61.0664C333.323 61.2539 333.314 61.4092 333.303 61.5322L338.559 53.3672H340.352V63H338.989V57.0938C338.989 56.9062 338.992 56.666 338.998 56.373C339.004 56.0801 339.013 55.793 339.024 55.5117C339.036 55.2246 339.045 55.002 339.051 54.8438L333.812 63H332.011V53.3672H333.399ZM353.623 53.3672V63H352.305V56.7246C352.305 56.4668 352.311 56.2061 352.322 55.9424C352.34 55.6729 352.36 55.4033 352.384 55.1338H352.331L349.132 63H347.893L344.772 55.1338H344.72C344.737 55.4033 344.749 55.6729 344.755 55.9424C344.767 56.2061 344.772 56.4844 344.772 56.7773V63H343.445V53.3672H345.405L348.517 61.2422L351.672 53.3672H353.623ZM360.364 53.1914C361.185 53.1914 361.888 53.373 362.474 53.7363C363.06 54.0996 363.508 54.6094 363.818 55.2656C364.129 55.916 364.284 56.6777 364.284 57.5508V58.4561H357.631C357.648 59.5869 357.93 60.4482 358.475 61.04C359.02 61.6318 359.787 61.9277 360.777 61.9277C361.387 61.9277 361.926 61.8721 362.395 61.7607C362.863 61.6494 363.35 61.4854 363.854 61.2686V62.5518C363.367 62.7686 362.884 62.9268 362.403 63.0264C361.929 63.126 361.366 63.1758 360.716 63.1758C359.79 63.1758 358.981 62.9883 358.29 62.6133C357.604 62.2324 357.071 61.6758 356.69 60.9434C356.31 60.2109 356.119 59.3145 356.119 58.2539C356.119 57.2168 356.292 56.3203 356.638 55.5645C356.989 54.8027 357.481 54.2168 358.114 53.8066C358.753 53.3965 359.503 53.1914 360.364 53.1914ZM360.347 54.3867C359.567 54.3867 358.946 54.6416 358.483 55.1514C358.021 55.6611 357.745 56.373 357.657 57.2871H362.755C362.749 56.7129 362.658 56.209 362.482 55.7754C362.312 55.3359 362.052 54.9961 361.7 54.7559C361.349 54.5098 360.897 54.3867 360.347 54.3867ZM371.289 53.1914C372.49 53.1914 373.448 53.6045 374.163 54.4307C374.878 55.2568 375.235 56.499 375.235 58.1572C375.235 59.2529 375.071 60.1729 374.743 60.917C374.415 61.6611 373.952 62.2236 373.354 62.6045C372.763 62.9854 372.062 63.1758 371.254 63.1758C370.744 63.1758 370.296 63.1084 369.909 62.9736C369.522 62.8389 369.191 62.6572 368.916 62.4287C368.641 62.2002 368.412 61.9512 368.23 61.6816H368.125C368.143 61.9102 368.163 62.1855 368.187 62.5078C368.216 62.8301 368.23 63.1113 368.23 63.3516V67.3066H366.763V53.3672H367.967L368.16 54.791H368.23C368.418 54.498 368.646 54.2314 368.916 53.9912C369.186 53.7451 369.514 53.5518 369.9 53.4111C370.293 53.2646 370.756 53.1914 371.289 53.1914ZM371.034 54.4219C370.366 54.4219 369.827 54.5508 369.417 54.8086C369.013 55.0664 368.717 55.4531 368.529 55.9688C368.342 56.4785 368.242 57.1201 368.23 57.8936V58.1748C368.23 58.9893 368.318 59.6777 368.494 60.2402C368.676 60.8027 368.972 61.2305 369.382 61.5234C369.798 61.8164 370.354 61.9629 371.052 61.9629C371.649 61.9629 372.147 61.8018 372.546 61.4795C372.944 61.1572 373.24 60.709 373.434 60.1348C373.633 59.5547 373.732 58.8896 373.732 58.1396C373.732 57.0029 373.51 56.1006 373.064 55.4326C372.625 54.7588 371.948 54.4219 371.034 54.4219ZM377.784 63V53.3672H379.252V57.3398H381.889C382.709 57.3398 383.383 57.4424 383.91 57.6475C384.443 57.8525 384.839 58.1572 385.097 58.5615C385.354 58.9658 385.483 59.4668 385.483 60.0645C385.483 60.6621 385.354 61.1807 385.097 61.6201C384.845 62.0596 384.446 62.3994 383.901 62.6396C383.362 62.8799 382.659 63 381.792 63H377.784ZM379.252 61.8135H381.651C382.378 61.8135 382.958 61.6846 383.392 61.4268C383.825 61.1689 384.042 60.7383 384.042 60.1348C384.042 59.543 383.84 59.1328 383.436 58.9043C383.031 58.6699 382.451 58.5527 381.695 58.5527H379.252V61.8135ZM387.074 63V53.3672H388.533V63H387.074ZM397.683 53.3672V59.4229C397.683 59.54 397.68 59.6924 397.674 59.8799C397.668 60.0615 397.659 60.2578 397.647 60.4688C397.636 60.6738 397.624 60.873 397.612 61.0664C397.606 61.2539 397.598 61.4092 397.586 61.5322L402.842 53.3672H404.635V63H403.272V57.0938C403.272 56.9062 403.275 56.666 403.281 56.373C403.287 56.0801 403.296 55.793 403.308 55.5117C403.319 55.2246 403.328 55.002 403.334 54.8438L398.096 63H396.294V53.3672H397.683ZM105.842 78.1914C107.043 78.1914 108.001 78.6045 108.716 79.4307C109.431 80.2568 109.788 81.499 109.788 83.1572C109.788 84.2529 109.624 85.1729 109.296 85.917C108.968 86.6611 108.505 87.2236 107.907 87.6045C107.315 87.9854 106.615 88.1758 105.807 88.1758C105.297 88.1758 104.849 88.1084 104.462 87.9736C104.075 87.8389 103.744 87.6572 103.469 87.4287C103.193 87.2002 102.965 86.9512 102.783 86.6816H102.678C102.695 86.9102 102.716 87.1855 102.739 87.5078C102.769 87.8301 102.783 88.1113 102.783 88.3516V92.3066H101.315V78.3672H102.52L102.713 79.791H102.783C102.971 79.498 103.199 79.2314 103.469 78.9912C103.738 78.7451 104.066 78.5518 104.453 78.4111C104.846 78.2646 105.309 78.1914 105.842 78.1914ZM105.587 79.4219C104.919 79.4219 104.38 79.5508 103.97 79.8086C103.565 80.0664 103.27 80.4531 103.082 80.9688C102.895 81.4785 102.795 82.1201 102.783 82.8936V83.1748C102.783 83.9893 102.871 84.6777 103.047 85.2402C103.229 85.8027 103.524 86.2305 103.935 86.5234C104.351 86.8164 104.907 86.9629 105.604 86.9629C106.202 86.9629 106.7 86.8018 107.099 86.4795C107.497 86.1572 107.793 85.709 107.986 85.1348C108.186 84.5547 108.285 83.8896 108.285 83.1396C108.285 82.0029 108.062 81.1006 107.617 80.4326C107.178 79.7588 106.501 79.4219 105.587 79.4219ZM116.046 78.1914C116.866 78.1914 117.569 78.373 118.155 78.7363C118.741 79.0996 119.189 79.6094 119.5 80.2656C119.811 80.916 119.966 81.6777 119.966 82.5508V83.4561H113.312C113.33 84.5869 113.611 85.4482 114.156 86.04C114.701 86.6318 115.469 86.9277 116.459 86.9277C117.068 86.9277 117.607 86.8721 118.076 86.7607C118.545 86.6494 119.031 86.4854 119.535 86.2686V87.5518C119.049 87.7686 118.565 87.9268 118.085 88.0264C117.61 88.126 117.048 88.1758 116.397 88.1758C115.472 88.1758 114.663 87.9883 113.972 87.6133C113.286 87.2324 112.753 86.6758 112.372 85.9434C111.991 85.2109 111.801 84.3145 111.801 83.2539C111.801 82.2168 111.974 81.3203 112.319 80.5645C112.671 79.8027 113.163 79.2168 113.796 78.8066C114.435 78.3965 115.185 78.1914 116.046 78.1914ZM116.028 79.3867C115.249 79.3867 114.628 79.6416 114.165 80.1514C113.702 80.6611 113.427 81.373 113.339 82.2871H118.437C118.431 81.7129 118.34 81.209 118.164 80.7754C117.994 80.3359 117.733 79.9961 117.382 79.7559C117.03 79.5098 116.579 79.3867 116.028 79.3867ZM135.364 78.3672V88H122.444V78.3672H123.903V86.7607H128.166V78.3672H129.634V86.7607H133.905V78.3672H135.364ZM142.062 78.209C143.21 78.209 144.062 78.4668 144.619 78.9824C145.176 79.498 145.454 80.3213 145.454 81.4521V88H144.391L144.109 86.5762H144.039C143.77 86.9277 143.488 87.2236 143.195 87.4639C142.902 87.6982 142.562 87.877 142.176 88C141.795 88.1172 141.326 88.1758 140.77 88.1758C140.184 88.1758 139.662 88.0732 139.205 87.8682C138.754 87.6631 138.396 87.3525 138.133 86.9365C137.875 86.5205 137.746 85.9932 137.746 85.3545C137.746 84.3936 138.127 83.6553 138.889 83.1396C139.65 82.624 140.811 82.3428 142.369 82.2959L144.03 82.2256V81.6367C144.03 80.8047 143.852 80.2217 143.494 79.8877C143.137 79.5537 142.633 79.3867 141.982 79.3867C141.479 79.3867 140.998 79.46 140.541 79.6064C140.084 79.7529 139.65 79.9258 139.24 80.125L138.792 79.0176C139.226 78.7949 139.724 78.6045 140.286 78.4463C140.849 78.2881 141.44 78.209 142.062 78.209ZM144.013 83.2539L142.545 83.3154C141.344 83.3623 140.497 83.5586 140.005 83.9043C139.513 84.25 139.267 84.7393 139.267 85.3721C139.267 85.9229 139.434 86.3301 139.768 86.5938C140.102 86.8574 140.544 86.9893 141.095 86.9893C141.95 86.9893 142.65 86.752 143.195 86.2773C143.74 85.8027 144.013 85.0908 144.013 84.1416V83.2539ZM155.025 79.6064H151.853V88H150.411V79.6064H147.282V78.3672H155.025V79.6064ZM158.4 82.3398H161.354C162.174 82.3398 162.856 82.4424 163.401 82.6475C163.946 82.8525 164.354 83.1572 164.623 83.5615C164.898 83.9658 165.036 84.4668 165.036 85.0645C165.036 85.6621 164.901 86.1807 164.632 86.6201C164.368 87.0596 163.958 87.3994 163.401 87.6396C162.851 87.8799 162.139 88 161.266 88H156.933V78.3672H158.4V82.3398ZM163.568 85.1348C163.568 84.543 163.357 84.1328 162.936 83.9043C162.52 83.6699 161.937 83.5527 161.187 83.5527H158.4V86.8135H161.195C161.898 86.8135 162.47 86.6846 162.909 86.4268C163.349 86.1631 163.568 85.7324 163.568 85.1348ZM182.395 78.3672V88H181.076V81.7246C181.076 81.4668 181.082 81.2061 181.094 80.9424C181.111 80.6729 181.132 80.4033 181.155 80.1338H181.103L177.903 88H176.664L173.544 80.1338H173.491C173.509 80.4033 173.521 80.6729 173.526 80.9424C173.538 81.2061 173.544 81.4844 173.544 81.7773V88H172.217V78.3672H174.177L177.288 86.2422L180.443 78.3672H182.395ZM189.03 78.209C190.179 78.209 191.031 78.4668 191.588 78.9824C192.145 79.498 192.423 80.3213 192.423 81.4521V88H191.359L191.078 86.5762H191.008C190.738 86.9277 190.457 87.2236 190.164 87.4639C189.871 87.6982 189.531 87.877 189.145 88C188.764 88.1172 188.295 88.1758 187.738 88.1758C187.152 88.1758 186.631 88.0732 186.174 87.8682C185.723 87.6631 185.365 87.3525 185.102 86.9365C184.844 86.5205 184.715 85.9932 184.715 85.3545C184.715 84.3936 185.096 83.6553 185.857 83.1396C186.619 82.624 187.779 82.3428 189.338 82.2959L190.999 82.2256V81.6367C190.999 80.8047 190.82 80.2217 190.463 79.8877C190.105 79.5537 189.602 79.3867 188.951 79.3867C188.447 79.3867 187.967 79.46 187.51 79.6064C187.053 79.7529 186.619 79.9258 186.209 80.125L185.761 79.0176C186.194 78.7949 186.692 78.6045 187.255 78.4463C187.817 78.2881 188.409 78.209 189.03 78.209ZM190.981 83.2539L189.514 83.3154C188.312 83.3623 187.466 83.5586 186.974 83.9043C186.481 84.25 186.235 84.7393 186.235 85.3721C186.235 85.9229 186.402 86.3301 186.736 86.5938C187.07 86.8574 187.513 86.9893 188.063 86.9893C188.919 86.9893 189.619 86.752 190.164 86.2773C190.709 85.8027 190.981 85.0908 190.981 84.1416V83.2539ZM201.994 79.6064H198.821V88H197.38V79.6064H194.251V78.3672H201.994V79.6064ZM207.61 78.1914C208.431 78.1914 209.134 78.373 209.72 78.7363C210.306 79.0996 210.754 79.6094 211.064 80.2656C211.375 80.916 211.53 81.6777 211.53 82.5508V83.4561H204.877C204.895 84.5869 205.176 85.4482 205.721 86.04C206.266 86.6318 207.033 86.9277 208.023 86.9277C208.633 86.9277 209.172 86.8721 209.641 86.7607C210.109 86.6494 210.596 86.4854 211.1 86.2686V87.5518C210.613 87.7686 210.13 87.9268 209.649 88.0264C209.175 88.126 208.612 88.1758 207.962 88.1758C207.036 88.1758 206.228 87.9883 205.536 87.6133C204.851 87.2324 204.317 86.6758 203.937 85.9434C203.556 85.2109 203.365 84.3145 203.365 83.2539C203.365 82.2168 203.538 81.3203 203.884 80.5645C204.235 79.8027 204.728 79.2168 205.36 78.8066C205.999 78.3965 206.749 78.1914 207.61 78.1914ZM207.593 79.3867C206.813 79.3867 206.192 79.6416 205.729 80.1514C205.267 80.6611 204.991 81.373 204.903 82.2871H210.001C209.995 81.7129 209.904 81.209 209.729 80.7754C209.559 80.3359 209.298 79.9961 208.946 79.7559C208.595 79.5098 208.144 79.3867 207.593 79.3867ZM224.178 78.3672V88H222.859V81.7246C222.859 81.4668 222.865 81.2061 222.877 80.9424C222.895 80.6729 222.915 80.4033 222.938 80.1338H222.886L219.687 88H218.447L215.327 80.1338H215.274C215.292 80.4033 215.304 80.6729 215.31 80.9424C215.321 81.2061 215.327 81.4844 215.327 81.7773V88H214V78.3672H215.96L219.071 86.2422L222.227 78.3672H224.178ZM230.813 78.209C231.962 78.209 232.814 78.4668 233.371 78.9824C233.928 79.498 234.206 80.3213 234.206 81.4521V88H233.143L232.861 86.5762H232.791C232.521 86.9277 232.24 87.2236 231.947 87.4639C231.654 87.6982 231.314 87.877 230.928 88C230.547 88.1172 230.078 88.1758 229.521 88.1758C228.936 88.1758 228.414 88.0732 227.957 87.8682C227.506 87.6631 227.148 87.3525 226.885 86.9365C226.627 86.5205 226.498 85.9932 226.498 85.3545C226.498 84.3936 226.879 83.6553 227.641 83.1396C228.402 82.624 229.562 82.3428 231.121 82.2959L232.782 82.2256V81.6367C232.782 80.8047 232.604 80.2217 232.246 79.8877C231.889 79.5537 231.385 79.3867 230.734 79.3867C230.23 79.3867 229.75 79.46 229.293 79.6064C228.836 79.7529 228.402 79.9258 227.992 80.125L227.544 79.0176C227.978 78.7949 228.476 78.6045 229.038 78.4463C229.601 78.2881 230.192 78.209 230.813 78.209ZM232.765 83.2539L231.297 83.3154C230.096 83.3623 229.249 83.5586 228.757 83.9043C228.265 84.25 228.019 84.7393 228.019 85.3721C228.019 85.9229 228.186 86.3301 228.52 86.5938C228.854 86.8574 229.296 86.9893 229.847 86.9893C230.702 86.9893 231.402 86.752 231.947 86.2773C232.492 85.8027 232.765 85.0908 232.765 84.1416V83.2539ZM243.777 79.6064H240.604V88H239.163V79.6064H236.034V78.3672H243.777V79.6064ZM247.073 78.3672V84.4229C247.073 84.54 247.07 84.6924 247.064 84.8799C247.059 85.0615 247.05 85.2578 247.038 85.4688C247.026 85.6738 247.015 85.873 247.003 86.0664C246.997 86.2539 246.988 86.4092 246.977 86.5322L252.232 78.3672H254.025V88H252.663V82.0938C252.663 81.9062 252.666 81.666 252.672 81.373C252.678 81.0801 252.687 80.793 252.698 80.5117C252.71 80.2246 252.719 80.002 252.725 79.8438L247.486 88H245.685V78.3672H247.073ZM258.402 78.3672V81.8301C258.402 82.4336 258.566 82.8789 258.895 83.166C259.229 83.4531 259.712 83.5967 260.345 83.5967C260.954 83.5967 261.508 83.5029 262.006 83.3154C262.504 83.1279 263.008 82.873 263.518 82.5508V78.3672H264.977V88H263.518V83.6846C262.979 84.0303 262.448 84.3027 261.927 84.502C261.405 84.7012 260.781 84.8008 260.055 84.8008C259.064 84.8008 258.297 84.543 257.752 84.0273C257.213 83.5117 256.943 82.8145 256.943 81.9355V78.3672H258.402ZM271.771 78.1914C272.591 78.1914 273.294 78.373 273.88 78.7363C274.466 79.0996 274.914 79.6094 275.225 80.2656C275.535 80.916 275.69 81.6777 275.69 82.5508V83.4561H269.037C269.055 84.5869 269.336 85.4482 269.881 86.04C270.426 86.6318 271.193 86.9277 272.184 86.9277C272.793 86.9277 273.332 86.8721 273.801 86.7607C274.27 86.6494 274.756 86.4854 275.26 86.2686V87.5518C274.773 87.7686 274.29 87.9268 273.81 88.0264C273.335 88.126 272.772 88.1758 272.122 88.1758C271.196 88.1758 270.388 87.9883 269.696 87.6133C269.011 87.2324 268.478 86.6758 268.097 85.9434C267.716 85.2109 267.525 84.3145 267.525 83.2539C267.525 82.2168 267.698 81.3203 268.044 80.5645C268.396 79.8027 268.888 79.2168 269.521 78.8066C270.159 78.3965 270.909 78.1914 271.771 78.1914ZM271.753 79.3867C270.974 79.3867 270.353 79.6416 269.89 80.1514C269.427 80.6611 269.151 81.373 269.063 82.2871H274.161C274.155 81.7129 274.064 81.209 273.889 80.7754C273.719 80.3359 273.458 79.9961 273.106 79.7559C272.755 79.5098 272.304 79.3867 271.753 79.3867ZM282.027 88.1758C281.16 88.1758 280.396 87.9971 279.733 87.6396C279.071 87.2822 278.556 86.7373 278.187 86.0049C277.817 85.2725 277.633 84.3496 277.633 83.2363C277.633 82.0703 277.826 81.1182 278.213 80.3799C278.605 79.6357 279.145 79.085 279.83 78.7275C280.516 78.3701 281.295 78.1914 282.168 78.1914C282.648 78.1914 283.111 78.2412 283.557 78.3408C284.008 78.4346 284.377 78.5547 284.664 78.7012L284.225 79.9229C283.932 79.8057 283.592 79.7002 283.205 79.6064C282.824 79.5127 282.467 79.4658 282.133 79.4658C281.465 79.4658 280.908 79.6094 280.463 79.8965C280.023 80.1836 279.692 80.6055 279.47 81.1621C279.253 81.7188 279.145 82.4043 279.145 83.2188C279.145 83.998 279.25 84.6631 279.461 85.2139C279.678 85.7646 279.997 86.1865 280.419 86.4795C280.847 86.7666 281.38 86.9102 282.019 86.9102C282.528 86.9102 282.988 86.8574 283.398 86.752C283.809 86.6406 284.181 86.5117 284.515 86.3652V87.666C284.192 87.8301 283.832 87.9561 283.434 88.0439C283.041 88.1318 282.572 88.1758 282.027 88.1758ZM292.416 78.3672H294.024L289.867 83.0166L294.358 88H292.645L288.268 83.1133V88H286.8V78.3672H288.268V83.043L292.416 78.3672ZM297.487 78.3672V84.4229C297.487 84.54 297.484 84.6924 297.479 84.8799C297.473 85.0615 297.464 85.2578 297.452 85.4688C297.44 85.6738 297.429 85.873 297.417 86.0664C297.411 86.2539 297.402 86.4092 297.391 86.5322L302.646 78.3672H304.439V88H303.077V82.0938C303.077 81.9062 303.08 81.666 303.086 81.373C303.092 81.0801 303.101 80.793 303.112 80.5117C303.124 80.2246 303.133 80.002 303.139 79.8438L297.9 88H296.099V78.3672H297.487ZM311.251 78.1914C312.071 78.1914 312.774 78.373 313.36 78.7363C313.946 79.0996 314.395 79.6094 314.705 80.2656C315.016 80.916 315.171 81.6777 315.171 82.5508V83.4561H308.518C308.535 84.5869 308.816 85.4482 309.361 86.04C309.906 86.6318 310.674 86.9277 311.664 86.9277C312.273 86.9277 312.812 86.8721 313.281 86.7607C313.75 86.6494 314.236 86.4854 314.74 86.2686V87.5518C314.254 87.7686 313.771 87.9268 313.29 88.0264C312.815 88.126 312.253 88.1758 311.603 88.1758C310.677 88.1758 309.868 87.9883 309.177 87.6133C308.491 87.2324 307.958 86.6758 307.577 85.9434C307.196 85.2109 307.006 84.3145 307.006 83.2539C307.006 82.2168 307.179 81.3203 307.524 80.5645C307.876 79.8027 308.368 79.2168 309.001 78.8066C309.64 78.3965 310.39 78.1914 311.251 78.1914ZM311.233 79.3867C310.454 79.3867 309.833 79.6416 309.37 80.1514C308.907 80.6611 308.632 81.373 308.544 82.2871H313.642C313.636 81.7129 313.545 81.209 313.369 80.7754C313.199 80.3359 312.938 79.9961 312.587 79.7559C312.235 79.5098 311.784 79.3867 311.233 79.3867ZM324.804 78.1914C325.524 78.1914 326.148 78.291 326.676 78.4902C327.203 78.6836 327.61 78.9678 327.897 79.3428C328.185 79.7178 328.328 80.1748 328.328 80.7139C328.328 81.2939 328.17 81.7568 327.854 82.1025C327.537 82.4482 327.101 82.6973 326.544 82.8496V82.9199C326.937 83.0254 327.291 83.1777 327.607 83.377C327.93 83.5703 328.185 83.8281 328.372 84.1504C328.565 84.4668 328.662 84.8623 328.662 85.3369C328.662 85.876 328.516 86.3623 328.223 86.7959C327.93 87.2236 327.484 87.5605 326.887 87.8066C326.289 88.0527 325.533 88.1758 324.619 88.1758C324.168 88.1758 323.74 88.1494 323.336 88.0967C322.932 88.0498 322.565 87.9795 322.237 87.8857C321.909 87.792 321.622 87.6807 321.376 87.5518V86.2246C321.786 86.4238 322.267 86.5996 322.817 86.752C323.368 86.9043 323.963 86.9805 324.602 86.9805C325.094 86.9805 325.536 86.9248 325.929 86.8135C326.321 86.6963 326.632 86.5117 326.86 86.2598C327.095 86.002 327.212 85.665 327.212 85.249C327.212 84.8682 327.109 84.5547 326.904 84.3086C326.699 84.0566 326.392 83.8721 325.981 83.7549C325.577 83.6318 325.064 83.5703 324.443 83.5703H323.151V82.375H324.215C325.041 82.375 325.7 82.2578 326.192 82.0234C326.685 81.7891 326.931 81.3936 326.931 80.8369C326.931 80.3564 326.74 79.999 326.359 79.7646C325.979 79.5244 325.434 79.4043 324.725 79.4043C324.197 79.4043 323.731 79.46 323.327 79.5713C322.923 79.6768 322.486 79.8291 322.018 80.0283L321.499 78.8594C322.003 78.6367 322.53 78.4697 323.081 78.3584C323.632 78.2471 324.206 78.1914 324.804 78.1914ZM334.63 78.209C335.778 78.209 336.631 78.4668 337.188 78.9824C337.744 79.498 338.022 80.3213 338.022 81.4521V88H336.959L336.678 86.5762H336.607C336.338 86.9277 336.057 87.2236 335.764 87.4639C335.471 87.6982 335.131 87.877 334.744 88C334.363 88.1172 333.895 88.1758 333.338 88.1758C332.752 88.1758 332.23 88.0732 331.773 87.8682C331.322 87.6631 330.965 87.3525 330.701 86.9365C330.443 86.5205 330.314 85.9932 330.314 85.3545C330.314 84.3936 330.695 83.6553 331.457 83.1396C332.219 82.624 333.379 82.3428 334.938 82.2959L336.599 82.2256V81.6367C336.599 80.8047 336.42 80.2217 336.062 79.8877C335.705 79.5537 335.201 79.3867 334.551 79.3867C334.047 79.3867 333.566 79.46 333.109 79.6064C332.652 79.7529 332.219 79.9258 331.809 80.125L331.36 79.0176C331.794 78.7949 332.292 78.6045 332.854 78.4463C333.417 78.2881 334.009 78.209 334.63 78.209ZM336.581 83.2539L335.113 83.3154C333.912 83.3623 333.065 83.5586 332.573 83.9043C332.081 84.25 331.835 84.7393 331.835 85.3721C331.835 85.9229 332.002 86.3301 332.336 86.5938C332.67 86.8574 333.112 86.9893 333.663 86.9893C334.519 86.9893 335.219 86.752 335.764 86.2773C336.309 85.8027 336.581 85.0908 336.581 84.1416V83.2539ZM348.086 78.3672V86.7607H349.466V91.3311H348.051V88H341.23V91.3311H339.833V86.7607H340.589C341.14 85.999 341.597 85.1641 341.96 84.2559C342.323 83.3477 342.599 82.3955 342.786 81.3994C342.974 80.3975 343.073 79.3867 343.085 78.3672H348.086ZM346.671 79.5273H344.386C344.333 80.3828 344.207 81.2529 344.008 82.1377C343.814 83.0225 343.557 83.8662 343.234 84.6689C342.912 85.4658 342.537 86.1631 342.109 86.7607H346.671V79.5273ZM354.985 78.209C356.134 78.209 356.986 78.4668 357.543 78.9824C358.1 79.498 358.378 80.3213 358.378 81.4521V88H357.314L357.033 86.5762H356.963C356.693 86.9277 356.412 87.2236 356.119 87.4639C355.826 87.6982 355.486 87.877 355.1 88C354.719 88.1172 354.25 88.1758 353.693 88.1758C353.107 88.1758 352.586 88.0732 352.129 87.8682C351.678 87.6631 351.32 87.3525 351.057 86.9365C350.799 86.5205 350.67 85.9932 350.67 85.3545C350.67 84.3936 351.051 83.6553 351.812 83.1396C352.574 82.624 353.734 82.3428 355.293 82.2959L356.954 82.2256V81.6367C356.954 80.8047 356.775 80.2217 356.418 79.8877C356.061 79.5537 355.557 79.3867 354.906 79.3867C354.402 79.3867 353.922 79.46 353.465 79.6064C353.008 79.7529 352.574 79.9258 352.164 80.125L351.716 79.0176C352.149 78.7949 352.647 78.6045 353.21 78.4463C353.772 78.2881 354.364 78.209 354.985 78.209ZM356.937 83.2539L355.469 83.3154C354.268 83.3623 353.421 83.5586 352.929 83.9043C352.437 84.25 352.19 84.7393 352.19 85.3721C352.19 85.9229 352.357 86.3301 352.691 86.5938C353.025 86.8574 353.468 86.9893 354.019 86.9893C354.874 86.9893 355.574 86.752 356.119 86.2773C356.664 85.8027 356.937 85.0908 356.937 84.1416V83.2539ZM362.658 78.3672V81.8301C362.658 82.4336 362.822 82.8789 363.15 83.166C363.484 83.4531 363.968 83.5967 364.601 83.5967C365.21 83.5967 365.764 83.5029 366.262 83.3154C366.76 83.1279 367.264 82.873 367.773 82.5508V78.3672H369.232V88H367.773V83.6846C367.234 84.0303 366.704 84.3027 366.183 84.502C365.661 84.7012 365.037 84.8008 364.311 84.8008C363.32 84.8008 362.553 84.543 362.008 84.0273C361.469 83.5117 361.199 82.8145 361.199 81.9355V78.3672H362.658ZM373.706 78.3672V84.4229C373.706 84.54 373.703 84.6924 373.697 84.8799C373.691 85.0615 373.683 85.2578 373.671 85.4688C373.659 85.6738 373.647 85.873 373.636 86.0664C373.63 86.2539 373.621 86.4092 373.609 86.5322L378.865 78.3672H380.658V88H379.296V82.0938C379.296 81.9062 379.299 81.666 379.305 81.373C379.311 81.0801 379.319 80.793 379.331 80.5117C379.343 80.2246 379.352 80.002 379.357 79.8438L374.119 88H372.317V78.3672H373.706Z" fill="#16578D"></path> </g> <defs> <filter id="filter0_ddd_332_496" x="0" y="0" width="468" height="145" filterUnits="userSpaceOnUse" color-interpolation-filters="sRGB"> <feFlood flood-opacity="0" result="BackgroundImageFix"></feFlood> <feColorMatrix in="SourceAlpha" type="matrix" values="0 0 0 0 0 0 0 0 0 0 0 0 0 0 0 0 0 0 127 0" result="hardAlpha"></feColorMatrix> <feOffset dy="4"></feOffset> <feGaussianBlur stdDeviation="2"></feGaussianBlur> <feComposite in2="hardAlpha" operator="out"></feComposite> <feColorMatrix type="matrix" values="0 0 0 0 0.980392 0 0 0 0 0.741176 0 0 0 0 0.6 0 0 0 0.2 0"></feColorMatrix> <feBlend mode="normal" in2="BackgroundImageFix" result="effect1_dropShadow_332_496"></feBlend> <feColorMatrix in="SourceAlpha" type="matrix" values="0 0 0 0 0 0 0 0 0 0 0 0 0 0 0 0 0 0 127 0" result="hardAlpha"></feColorMatrix> <feOffset dy="4"></feOffset> <feGaussianBlur stdDeviation="2"></feGaussianBlur> <feComposite in2="hardAlpha" operator="out"></feComposite> <feColorMatrix type="matrix" values="0 0 0 0 0.980392 0 0 0 0 0.741176 0 0 0 0 0.6 0 0 0 0.2 0"></feColorMatrix> <feBlend mode="normal" in2="effect1_dropShadow_332_496" result="effect2_dropShadow_332_496"></feBlend> <feColorMatrix in="SourceAlpha" type="matrix" values="0 0 0 0 0 0 0 0 0 0 0 0 0 0 0 0 0 0 127 0" result="hardAlpha"></feColorMatrix> <feOffset dy="4"></feOffset> <feGaussianBlur stdDeviation="2"></feGaussianBlur> <feComposite in2="hardAlpha" operator="out"></feComposite> <feColorMatrix type="matrix" values="0 0 0 0 0.980392 0 0 0 0 0.741176 0 0 0 0 0.6 0 0 0 0.2 0"></feColorMatrix> <feBlend mode="normal" in2="effect2_dropShadow_332_496" result="effect3_dropShadow_332_496"></feBlend> <feBlend mode="normal" in="SourceGraphic" in2="effect3_dropShadow_332_496" result="shape"></feBlend> </filter> </defs> </svg> 