<?xml version="1.0" encoding="UTF-8"?> <svg xmlns="http://www.w3.org/2000/svg" width="568" height="132" viewBox="0 0 568 132" fill="none"> <g filter="url(#filter0_ddd_280_523)"> <rect x="4" width="560" height="124" rx="62" fill="#FABD99"></rect> </g> <path d="M188.984 43.1875C188.411 43.1875 187.901 43.0833 187.453 42.875C187.005 42.6562 186.63 42.3594 186.328 41.9844C186.047 41.6406 185.833 41.2552 185.688 40.8281C185.542 40.3906 185.469 39.9531 185.469 39.5156C185.469 38.7656 185.646 38.1771 186 37.75C186.344 37.3229 186.828 37.1094 187.453 37.1094C187.953 37.1094 188.354 37.2656 188.656 37.5781C188.969 37.8802 189.125 38.2812 189.125 38.7812C189.125 39.2396 189.016 39.6042 188.797 39.875C188.589 40.1354 188.328 40.2656 188.016 40.2656C187.943 40.2656 187.885 40.2604 187.844 40.25C187.823 40.5625 187.896 40.8229 188.062 41.0312C188.281 41.3229 188.625 41.4688 189.094 41.4688C189.635 41.4688 190.089 41.2969 190.453 40.9531C190.818 40.599 191.12 40.0938 191.359 39.4375C191.578 38.8125 191.766 38.1146 191.922 37.3438C192.057 36.6042 192.214 35.8021 192.391 34.9375L194.078 27H198.562L199.234 39.2812L205.188 27H209.922L208.219 34.9375L207.656 37.4062C207.521 38.0104 207.453 38.4583 207.453 38.75C207.453 39.6458 207.88 40.0938 208.734 40.0938C209.057 40.0938 209.339 40.0417 209.578 39.9375C209.818 39.8229 210.042 39.6458 210.25 39.4062C210.438 39.1875 210.615 38.9167 210.781 38.5938C210.958 38.2708 211.172 37.8281 211.422 37.2656H212.766C211.422 41.2135 209.438 43.1875 206.812 43.1875C205.583 43.1875 204.635 42.8438 203.969 42.1562C203.667 41.8542 203.438 41.5 203.281 41.0938C203.125 40.6771 203.047 40.2448 203.047 39.7969C203.047 38.8906 203.271 37.474 203.719 35.5469L204.219 33.2656L199.484 43H195L194.438 33.2344L194.016 35.25C193.714 36.7604 193.443 37.9635 193.203 38.8594C192.964 39.7552 192.682 40.5104 192.359 41.125C191.995 41.8125 191.542 42.3281 191 42.6719C190.469 43.0156 189.797 43.1875 188.984 43.1875ZM215.281 43.1875C214.062 43.1875 213.078 42.8073 212.328 42.0469C211.453 41.151 211.016 39.8177 211.016 38.0469C211.016 37.2969 211.094 36.5052 211.25 35.6719C211.396 34.8385 211.615 34.0156 211.906 33.2031C212.573 31.3698 213.484 29.8906 214.641 28.7656C215.974 27.4844 217.51 26.8438 219.25 26.8438C220.115 26.8438 220.76 26.9948 221.188 27.2969C221.625 27.5885 221.844 27.9792 221.844 28.4688V28.7031L222.188 27H226.797L224.5 37.875C224.406 38.1875 224.359 38.5312 224.359 38.9062C224.359 39.8229 224.797 40.2812 225.672 40.2812C226.255 40.2812 226.786 39.9844 227.266 39.3906C227.672 38.8906 228.005 38.1823 228.266 37.2656H229.609C229.036 38.8906 228.344 40.1771 227.531 41.125C226.844 41.9062 226.068 42.4688 225.203 42.8125C224.568 43.0625 223.896 43.1875 223.188 43.1875C222.281 43.1875 221.557 42.9427 221.016 42.4531C220.484 41.9531 220.161 41.2188 220.047 40.25C219.443 41.1042 218.807 41.7708 218.141 42.25C217.286 42.875 216.333 43.1875 215.281 43.1875ZM217.359 40.0938C217.599 40.0938 217.849 40.0312 218.109 39.9062C218.38 39.7812 218.641 39.6042 218.891 39.375C219.453 38.8333 219.828 38.1302 220.016 37.2656L221.547 30.0469C221.547 29.9427 221.521 29.8229 221.469 29.6875C221.427 29.5417 221.365 29.4062 221.281 29.2812C221.031 28.9792 220.682 28.8281 220.234 28.8281C219.807 28.8281 219.391 28.9688 218.984 29.25C218.589 29.5312 218.214 29.9219 217.859 30.4219C217.234 31.3281 216.719 32.5104 216.312 33.9688C216.125 34.6146 215.984 35.2552 215.891 35.8906C215.797 36.5156 215.75 37.0833 215.75 37.5938C215.75 38.6562 215.948 39.375 216.344 39.75C216.479 39.8958 216.63 39.9896 216.797 40.0312C216.964 40.0729 217.151 40.0938 217.359 40.0938ZM247.734 43.1875C246.411 43.1875 245.432 42.8125 244.797 42.0625C244.245 41.4167 243.969 40.5885 243.969 39.5781C243.969 39.099 244.026 38.5417 244.141 37.9062C244.266 37.2708 244.448 36.4531 244.688 35.4531C244.927 34.4323 245.104 33.6198 245.219 33.0156C245.344 32.401 245.406 31.8698 245.406 31.4219C245.406 30.3281 245.021 29.7812 244.25 29.7812C243.708 29.7812 243.208 30.0677 242.75 30.6406C242.365 31.1302 242.031 31.8281 241.75 32.7344L239.578 43H234.969L237.312 31.9531C237.375 31.7031 237.406 31.4375 237.406 31.1562C237.406 30.7292 237.339 30.401 237.203 30.1719C237.026 29.8906 236.771 29.75 236.438 29.75C235.833 29.75 235.307 30.0417 234.859 30.625C234.464 31.125 234.125 31.8281 233.844 32.7344L231.672 43H227.062L230.453 27H235.062L234.719 28.6562C235.344 27.9583 236.026 27.4635 236.766 27.1719C237.349 26.9531 237.969 26.8438 238.625 26.8438C239.521 26.8438 240.234 27.0521 240.766 27.4688C241.359 27.9375 241.74 28.6458 241.906 29.5938C242.594 28.5312 243.385 27.7812 244.281 27.3438C244.917 27.0312 245.609 26.875 246.359 26.875C247.432 26.875 248.281 27.1562 248.906 27.7188C249.573 28.3333 249.906 29.2552 249.906 30.4844C249.906 31.1823 249.776 32.1458 249.516 33.375C249.411 33.8854 249.286 34.401 249.141 34.9219C248.88 35.9219 248.667 36.8438 248.5 37.6875C248.417 38.125 248.375 38.4792 248.375 38.75C248.375 39.1771 248.469 39.5104 248.656 39.75C248.854 39.9792 249.188 40.0938 249.656 40.0938C250.292 40.0938 250.828 39.8333 251.266 39.3125C251.599 38.9167 251.958 38.2344 252.344 37.2656H253.688C252.896 39.6094 251.896 41.25 250.688 42.1875C249.833 42.8542 248.849 43.1875 247.734 43.1875ZM256.922 43.1875C255.349 43.1875 254.135 42.7917 253.281 42C252.375 41.1562 251.922 39.8594 251.922 38.1094C251.922 37.4531 251.99 36.724 252.125 35.9219C252.25 35.1198 252.443 34.3177 252.703 33.5156C252.995 32.6198 253.365 31.7708 253.812 30.9688C254.271 30.1667 254.802 29.4583 255.406 28.8438C256.802 27.4271 258.521 26.7188 260.562 26.7188C261.865 26.7188 262.812 27.0312 263.406 27.6562C263.865 28.1458 264.094 28.8542 264.094 29.7812C264.094 30.6875 263.896 31.5417 263.5 32.3438C263.104 33.1354 262.557 33.8385 261.859 34.4531C261.161 35.0573 260.37 35.5417 259.484 35.9062C258.599 36.2604 257.682 36.4688 256.734 36.5312C256.682 37.0729 256.656 37.5 256.656 37.8125C256.656 38.8542 256.854 39.5729 257.25 39.9688C257.594 40.3229 258.167 40.5 258.969 40.5C260.125 40.5 261.182 40.1875 262.141 39.5625C262.547 39.3021 262.938 38.9948 263.312 38.6406C263.688 38.276 264.125 37.8177 264.625 37.2656H265.719C264.708 38.974 263.547 40.3333 262.234 41.3438C260.62 42.5729 258.849 43.1875 256.922 43.1875ZM256.984 35C257.578 34.9583 258.156 34.7865 258.719 34.4844C259.281 34.1823 259.781 33.7865 260.219 33.2969C260.656 32.7969 261 32.2396 261.25 31.625C261.5 31 261.625 30.3646 261.625 29.7188C261.625 29.2917 261.562 28.9688 261.438 28.75C261.323 28.5208 261.12 28.4062 260.828 28.4062C260.443 28.4062 260.052 28.5938 259.656 28.9688C259.271 29.3438 258.896 29.8594 258.531 30.5156C258.198 31.1302 257.896 31.8281 257.625 32.6094C257.354 33.3906 257.141 34.1875 256.984 35ZM266.922 43.1875C266.349 43.1875 265.839 43.0833 265.391 42.875C264.943 42.6562 264.568 42.3594 264.266 41.9844C263.984 41.6406 263.771 41.2552 263.625 40.8281C263.479 40.3906 263.406 39.9531 263.406 39.5156C263.406 38.7656 263.583 38.1771 263.938 37.75C264.281 37.3229 264.766 37.1094 265.391 37.1094C265.891 37.1094 266.292 37.2656 266.594 37.5781C266.906 37.8802 267.062 38.2812 267.062 38.7812C267.062 39.2396 266.953 39.6042 266.734 39.875C266.526 40.1354 266.266 40.2656 265.953 40.2656C265.88 40.2656 265.823 40.2604 265.781 40.25C265.76 40.5625 265.833 40.8229 266 41.0312C266.219 41.3229 266.562 41.4688 267.031 41.4688C267.573 41.4688 268.026 41.2969 268.391 40.9531C268.755 40.599 269.057 40.0938 269.297 39.4375C269.516 38.8125 269.703 38.1146 269.859 37.3438C269.995 36.6042 270.151 35.8021 270.328 34.9375L272.016 27H276.5L277.172 39.2812L283.125 27H287.859L286.156 34.9375L285.594 37.4062C285.458 38.0104 285.391 38.4583 285.391 38.75C285.391 39.6458 285.818 40.0938 286.672 40.0938C286.995 40.0938 287.276 40.0417 287.516 39.9375C287.755 39.8229 287.979 39.6458 288.188 39.4062C288.375 39.1875 288.552 38.9167 288.719 38.5938C288.896 38.2708 289.109 37.8281 289.359 37.2656H290.703C289.359 41.2135 287.375 43.1875 284.75 43.1875C283.521 43.1875 282.573 42.8438 281.906 42.1562C281.604 41.8542 281.375 41.5 281.219 41.0938C281.062 40.6771 280.984 40.2448 280.984 39.7969C280.984 38.8906 281.208 37.474 281.656 35.5469L282.156 33.2656L277.422 43H272.938L272.375 33.2344L271.953 35.25C271.651 36.7604 271.38 37.9635 271.141 38.8594C270.901 39.7552 270.62 40.5104 270.297 41.125C269.932 41.8125 269.479 42.3281 268.938 42.6719C268.406 43.0156 267.734 43.1875 266.922 43.1875ZM293.219 43.1875C292 43.1875 291.016 42.8073 290.266 42.0469C289.391 41.151 288.953 39.8177 288.953 38.0469C288.953 37.2969 289.031 36.5052 289.188 35.6719C289.333 34.8385 289.552 34.0156 289.844 33.2031C290.51 31.3698 291.422 29.8906 292.578 28.7656C293.911 27.4844 295.448 26.8438 297.188 26.8438C298.052 26.8438 298.698 26.9948 299.125 27.2969C299.562 27.5885 299.781 27.9792 299.781 28.4688V28.7031L300.125 27H304.734L302.438 37.875C302.344 38.1875 302.297 38.5312 302.297 38.9062C302.297 39.8229 302.734 40.2812 303.609 40.2812C304.193 40.2812 304.724 39.9844 305.203 39.3906C305.609 38.8906 305.943 38.1823 306.203 37.2656H307.547C306.974 38.8906 306.281 40.1771 305.469 41.125C304.781 41.9062 304.005 42.4688 303.141 42.8125C302.505 43.0625 301.833 43.1875 301.125 43.1875C300.219 43.1875 299.495 42.9427 298.953 42.4531C298.422 41.9531 298.099 41.2188 297.984 40.25C297.38 41.1042 296.745 41.7708 296.078 42.25C295.224 42.875 294.271 43.1875 293.219 43.1875ZM295.297 40.0938C295.536 40.0938 295.786 40.0312 296.047 39.9062C296.318 39.7812 296.578 39.6042 296.828 39.375C297.391 38.8333 297.766 38.1302 297.953 37.2656L299.484 30.0469C299.484 29.9427 299.458 29.8229 299.406 29.6875C299.365 29.5417 299.302 29.4062 299.219 29.2812C298.969 28.9792 298.62 28.8281 298.172 28.8281C297.745 28.8281 297.328 28.9688 296.922 29.25C296.526 29.5312 296.151 29.9219 295.797 30.4219C295.172 31.3281 294.656 32.5104 294.25 33.9688C294.062 34.6146 293.922 35.2552 293.828 35.8906C293.734 36.5156 293.688 37.0833 293.688 37.5938C293.688 38.6562 293.885 39.375 294.281 39.75C294.417 39.8958 294.568 39.9896 294.734 40.0312C294.901 40.0729 295.089 40.0938 295.297 40.0938ZM325.672 43.1875C324.349 43.1875 323.37 42.8125 322.734 42.0625C322.182 41.4167 321.906 40.5885 321.906 39.5781C321.906 39.099 321.964 38.5417 322.078 37.9062C322.203 37.2708 322.385 36.4531 322.625 35.4531C322.865 34.4323 323.042 33.6198 323.156 33.0156C323.281 32.401 323.344 31.8698 323.344 31.4219C323.344 30.3281 322.958 29.7812 322.188 29.7812C321.646 29.7812 321.146 30.0677 320.688 30.6406C320.302 31.1302 319.969 31.8281 319.688 32.7344L317.516 43H312.906L315.25 31.9531C315.312 31.7031 315.344 31.4375 315.344 31.1562C315.344 30.7292 315.276 30.401 315.141 30.1719C314.964 29.8906 314.708 29.75 314.375 29.75C313.771 29.75 313.245 30.0417 312.797 30.625C312.401 31.125 312.062 31.8281 311.781 32.7344L309.609 43H305L308.391 27H313L312.656 28.6562C313.281 27.9583 313.964 27.4635 314.703 27.1719C315.286 26.9531 315.906 26.8438 316.562 26.8438C317.458 26.8438 318.172 27.0521 318.703 27.4688C319.297 27.9375 319.677 28.6458 319.844 29.5938C320.531 28.5312 321.323 27.7812 322.219 27.3438C322.854 27.0312 323.547 26.875 324.297 26.875C325.37 26.875 326.219 27.1562 326.844 27.7188C327.51 28.3333 327.844 29.2552 327.844 30.4844C327.844 31.1823 327.714 32.1458 327.453 33.375C327.349 33.8854 327.224 34.401 327.078 34.9219C326.818 35.9219 326.604 36.8438 326.438 37.6875C326.354 38.125 326.312 38.4792 326.312 38.75C326.312 39.1771 326.406 39.5104 326.594 39.75C326.792 39.9792 327.125 40.0938 327.594 40.0938C328.229 40.0938 328.766 39.8333 329.203 39.3125C329.536 38.9167 329.896 38.2344 330.281 37.2656H331.625C330.833 39.6094 329.833 41.25 328.625 42.1875C327.771 42.8542 326.786 43.1875 325.672 43.1875ZM333.453 43.1875C332.432 43.1875 331.625 42.8854 331.031 42.2812C330.365 41.6146 330.031 40.6406 330.031 39.3594C330.031 38.7552 330.115 38.0573 330.281 37.2656L332.453 27H337.062L334.766 37.875C334.703 38.1979 334.672 38.5 334.672 38.7812C334.672 39.6562 334.99 40.0938 335.625 40.0938C336.208 40.0938 336.734 39.8281 337.203 39.2969C337.578 38.849 337.906 38.1719 338.188 37.2656L340.359 27H344.969L342.672 37.875C342.578 38.1875 342.531 38.5312 342.531 38.9062C342.531 39.3438 342.635 39.651 342.844 39.8281C343.052 40.0052 343.385 40.0938 343.844 40.0938C344.438 40.0938 344.969 39.8281 345.438 39.2969C345.854 38.8281 346.188 38.151 346.438 37.2656H347.781C347.208 38.8906 346.516 40.1771 345.703 41.125C345.016 41.9062 344.24 42.4688 343.375 42.8125C342.74 43.0625 342.068 43.1875 341.359 43.1875C340.443 43.1875 339.714 42.9323 339.172 42.4219C338.63 41.9115 338.302 41.1562 338.188 40.1562C337.458 41.3229 336.635 42.1562 335.719 42.6562C335.062 43.0104 334.307 43.1875 333.453 43.1875ZM357.984 43.1875C356.714 43.1875 355.75 42.875 355.094 42.25C354.448 41.625 354.125 40.7552 354.125 39.6406C354.125 39.276 354.188 38.7292 354.312 38C354.333 37.8333 354.354 37.7188 354.375 37.6562C354.396 37.4479 354.417 37.3073 354.438 37.2344C354.479 37.026 354.5 36.8125 354.5 36.5938C354.5 35.5729 354.094 35.0625 353.281 35.0625C353.01 35.0625 352.719 35.1562 352.406 35.3438L351.891 35.7188L351.234 36.25L349.828 43H345.219L348.641 27H353.25L351.875 33.3438C352.562 32.6562 353.229 31.9635 353.875 31.2656L354.109 31C355.349 29.6667 356.193 28.776 356.641 28.3281C357.38 27.5885 358.078 27.1094 358.734 26.8906C359.099 26.776 359.479 26.7188 359.875 26.7188C360.594 26.7188 361.141 26.9167 361.516 27.3125C361.891 27.6979 362.078 28.2031 362.078 28.8281C362.078 29.4844 361.901 29.9948 361.547 30.3594C361.203 30.724 360.708 30.9062 360.062 30.9062C359.469 30.9062 359.016 30.724 358.703 30.3594C358.422 30.0469 358.292 29.6823 358.312 29.2656C357.979 29.4635 357.661 29.6979 357.359 29.9688C357.068 30.2292 356.745 30.5417 356.391 30.9062L356.078 31.25C355.932 31.3958 355.734 31.6146 355.484 31.9062C355.224 32.2083 354.906 32.5469 354.531 32.9219C354.896 32.8385 355.344 32.7969 355.875 32.7969C356.979 32.7969 357.776 33.0521 358.266 33.5625C358.703 34.0104 358.922 34.7448 358.922 35.7656C358.922 36.1094 358.859 36.6146 358.734 37.2812C358.682 37.5417 358.635 37.8177 358.594 38.1094C358.552 38.3906 358.531 38.6562 358.531 38.9062C358.531 39.6979 358.958 40.0938 359.812 40.0938C360.135 40.0938 360.411 40.0417 360.641 39.9375C360.88 39.8229 361.099 39.6458 361.297 39.4062C361.484 39.1875 361.667 38.9115 361.844 38.5781C362.021 38.2448 362.229 37.8073 362.469 37.2656H363.812C362.469 41.2135 360.526 43.1875 357.984 43.1875ZM366.312 43.1875C365.094 43.1875 364.109 42.8073 363.359 42.0469C362.484 41.151 362.047 39.8177 362.047 38.0469C362.047 37.2969 362.125 36.5052 362.281 35.6719C362.427 34.8385 362.646 34.0156 362.938 33.2031C363.604 31.3698 364.516 29.8906 365.672 28.7656C367.005 27.4844 368.542 26.8438 370.281 26.8438C371.146 26.8438 371.792 26.9948 372.219 27.2969C372.656 27.5885 372.875 27.9792 372.875 28.4688V28.7031L373.219 27H377.828L375.531 37.875C375.438 38.1875 375.391 38.5312 375.391 38.9062C375.391 39.8229 375.828 40.2812 376.703 40.2812C377.286 40.2812 377.818 39.9844 378.297 39.3906C378.703 38.8906 379.036 38.1823 379.297 37.2656H380.641C380.068 38.8906 379.375 40.1771 378.562 41.125C377.875 41.9062 377.099 42.4688 376.234 42.8125C375.599 43.0625 374.927 43.1875 374.219 43.1875C373.312 43.1875 372.589 42.9427 372.047 42.4531C371.516 41.9531 371.193 41.2188 371.078 40.25C370.474 41.1042 369.839 41.7708 369.172 42.25C368.318 42.875 367.365 43.1875 366.312 43.1875ZM368.391 40.0938C368.63 40.0938 368.88 40.0312 369.141 39.9062C369.411 39.7812 369.672 39.6042 369.922 39.375C370.484 38.8333 370.859 38.1302 371.047 37.2656L372.578 30.0469C372.578 29.9427 372.552 29.8229 372.5 29.6875C372.458 29.5417 372.396 29.4062 372.312 29.2812C372.062 28.9792 371.714 28.8281 371.266 28.8281C370.839 28.8281 370.422 28.9688 370.016 29.25C369.62 29.5312 369.245 29.9219 368.891 30.4219C368.266 31.3281 367.75 32.5104 367.344 33.9688C367.156 34.6146 367.016 35.2552 366.922 35.8906C366.828 36.5156 366.781 37.0833 366.781 37.5938C366.781 38.6562 366.979 39.375 367.375 39.75C367.51 39.8958 367.661 39.9896 367.828 40.0312C367.995 40.0729 368.182 40.0938 368.391 40.0938Z" fill="#16578D"></path> <path d="M84.8516 58.3672V62.4102H90.2217V58.3672H91.6807V68H90.2217V63.6494H84.8516V68H83.3838V58.3672H84.8516ZM98.3779 58.209C99.5264 58.209 100.379 58.4668 100.936 58.9824C101.492 59.498 101.771 60.3213 101.771 61.4521V68H100.707L100.426 66.5762H100.355C100.086 66.9277 99.8047 67.2236 99.5117 67.4639C99.2188 67.6982 98.8789 67.877 98.4922 68C98.1113 68.1172 97.6426 68.1758 97.0859 68.1758C96.5 68.1758 95.9785 68.0732 95.5215 67.8682C95.0703 67.6631 94.7129 67.3525 94.4492 66.9365C94.1914 66.5205 94.0625 65.9932 94.0625 65.3545C94.0625 64.3936 94.4434 63.6553 95.2051 63.1396C95.9668 62.624 97.127 62.3428 98.6855 62.2959L100.347 62.2256V61.6367C100.347 60.8047 100.168 60.2217 99.8105 59.8877C99.4531 59.5537 98.9492 59.3867 98.2988 59.3867C97.7949 59.3867 97.3145 59.46 96.8574 59.6064C96.4004 59.7529 95.9668 59.9258 95.5566 60.125L95.1084 59.0176C95.542 58.7949 96.04 58.6045 96.6025 58.4463C97.165 58.2881 97.7568 58.209 98.3779 58.209ZM100.329 63.2539L98.8613 63.3154C97.6602 63.3623 96.8135 63.5586 96.3213 63.9043C95.8291 64.25 95.583 64.7393 95.583 65.3721C95.583 65.9229 95.75 66.3301 96.084 66.5938C96.418 66.8574 96.8604 66.9893 97.4111 66.9893C98.2666 66.9893 98.9668 66.752 99.5117 66.2773C100.057 65.8027 100.329 65.0908 100.329 64.1416V63.2539ZM103.256 58.3672H104.82L106.947 63.957C107.07 64.2852 107.185 64.6016 107.29 64.9062C107.396 65.2051 107.489 65.4922 107.571 65.7676C107.653 66.043 107.718 66.3096 107.765 66.5674H107.826C107.908 66.2744 108.025 65.8906 108.178 65.416C108.33 64.9355 108.494 64.4463 108.67 63.9482L110.683 58.3672H112.256L108.063 69.415C107.841 70.0068 107.58 70.5225 107.281 70.9619C106.988 71.4014 106.631 71.7383 106.209 71.9727C105.787 72.2129 105.277 72.333 104.68 72.333C104.404 72.333 104.161 72.3154 103.95 72.2803C103.739 72.251 103.558 72.2158 103.405 72.1748V71.0059C103.534 71.0352 103.689 71.0615 103.871 71.085C104.059 71.1084 104.252 71.1201 104.451 71.1201C104.814 71.1201 105.128 71.0498 105.392 70.9092C105.661 70.7744 105.893 70.5752 106.086 70.3115C106.279 70.0479 106.446 69.7344 106.587 69.3711L107.114 68.0176L103.256 58.3672ZM115.068 58.3672V61.8301C115.068 62.4336 115.232 62.8789 115.561 63.166C115.895 63.4531 116.378 63.5967 117.011 63.5967C117.62 63.5967 118.174 63.5029 118.672 63.3154C119.17 63.1279 119.674 62.873 120.184 62.5508V58.3672H121.643V68H120.184V63.6846C119.645 64.0303 119.114 64.3027 118.593 64.502C118.071 64.7012 117.447 64.8008 116.721 64.8008C115.73 64.8008 114.963 64.543 114.418 64.0273C113.879 63.5117 113.609 62.8145 113.609 61.9355V58.3672H115.068ZM126.116 58.3672V64.4229C126.116 64.54 126.113 64.6924 126.107 64.8799C126.102 65.0615 126.093 65.2578 126.081 65.4688C126.069 65.6738 126.058 65.873 126.046 66.0664C126.04 66.2539 126.031 66.4092 126.02 66.5322L131.275 58.3672H133.068V68H131.706V62.0938C131.706 61.9062 131.709 61.666 131.715 61.373C131.721 61.0801 131.729 60.793 131.741 60.5117C131.753 60.2246 131.762 60.002 131.768 59.8438L126.529 68H124.728V58.3672H126.116ZM146.34 58.3672V68H145.021V61.7246C145.021 61.4668 145.027 61.2061 145.039 60.9424C145.057 60.6729 145.077 60.4033 145.101 60.1338H145.048L141.849 68H140.609L137.489 60.1338H137.437C137.454 60.4033 137.466 60.6729 137.472 60.9424C137.483 61.2061 137.489 61.4844 137.489 61.7773V68H136.162V58.3672H138.122L141.233 66.2422L144.389 58.3672H146.34ZM157.906 68.1758C157.039 68.1758 156.274 67.9971 155.612 67.6396C154.95 67.2822 154.435 66.7373 154.065 66.0049C153.696 65.2725 153.512 64.3496 153.512 63.2363C153.512 62.0703 153.705 61.1182 154.092 60.3799C154.484 59.6357 155.023 59.085 155.709 58.7275C156.395 58.3701 157.174 58.1914 158.047 58.1914C158.527 58.1914 158.99 58.2412 159.436 58.3408C159.887 58.4346 160.256 58.5547 160.543 58.7012L160.104 59.9229C159.811 59.8057 159.471 59.7002 159.084 59.6064C158.703 59.5127 158.346 59.4658 158.012 59.4658C157.344 59.4658 156.787 59.6094 156.342 59.8965C155.902 60.1836 155.571 60.6055 155.349 61.1621C155.132 61.7188 155.023 62.4043 155.023 63.2188C155.023 63.998 155.129 64.6631 155.34 65.2139C155.557 65.7646 155.876 66.1865 156.298 66.4795C156.726 66.7666 157.259 66.9102 157.897 66.9102C158.407 66.9102 158.867 66.8574 159.277 66.752C159.688 66.6406 160.06 66.5117 160.394 66.3652V67.666C160.071 67.8301 159.711 67.9561 159.312 68.0439C158.92 68.1318 158.451 68.1758 157.906 68.1758ZM170.334 60.7842C170.334 61.3877 170.158 61.8594 169.807 62.1992C169.455 62.5332 169.001 62.7588 168.444 62.876V62.9463C169.048 63.0283 169.566 63.2451 170 63.5967C170.439 63.9424 170.659 64.4727 170.659 65.1875C170.659 65.7383 170.527 66.2246 170.264 66.6465C170 67.0684 169.587 67.3994 169.024 67.6396C168.462 67.8799 167.729 68 166.827 68H162.679V58.3672H166.792C167.483 58.3672 168.093 58.4463 168.62 58.6045C169.153 58.7568 169.572 59.0088 169.877 59.3604C170.182 59.7119 170.334 60.1865 170.334 60.7842ZM169.139 65.1875C169.139 64.6191 168.922 64.209 168.488 63.957C168.061 63.7051 167.437 63.5791 166.616 63.5791H164.146V66.8135H166.651C167.46 66.8135 168.075 66.6904 168.497 66.4443C168.925 66.1924 169.139 65.7734 169.139 65.1875ZM168.849 60.9512C168.849 60.4941 168.682 60.1543 168.348 59.9316C168.014 59.7031 167.466 59.5889 166.704 59.5889H164.146V62.3574H166.449C167.24 62.3574 167.838 62.2432 168.242 62.0146C168.646 61.7861 168.849 61.4316 168.849 60.9512ZM181.32 63.166C181.32 63.957 181.218 64.6631 181.013 65.2842C180.808 65.9053 180.512 66.4297 180.125 66.8574C179.738 67.2852 179.27 67.6133 178.719 67.8418C178.174 68.0645 177.556 68.1758 176.864 68.1758C176.22 68.1758 175.628 68.0645 175.089 67.8418C174.556 67.6133 174.093 67.2852 173.7 66.8574C173.313 66.4297 173.012 65.9053 172.795 65.2842C172.584 64.6631 172.479 63.957 172.479 63.166C172.479 62.1113 172.657 61.2148 173.015 60.4766C173.372 59.7324 173.882 59.167 174.544 58.7803C175.212 58.3877 176.006 58.1914 176.926 58.1914C177.805 58.1914 178.572 58.3877 179.229 58.7803C179.891 59.1729 180.403 59.7412 180.767 60.4854C181.136 61.2236 181.32 62.1172 181.32 63.166ZM173.99 63.166C173.99 63.9395 174.093 64.6104 174.298 65.1787C174.503 65.7471 174.819 66.1865 175.247 66.4971C175.675 66.8076 176.226 66.9629 176.899 66.9629C177.567 66.9629 178.115 66.8076 178.543 66.4971C178.977 66.1865 179.296 65.7471 179.501 65.1787C179.706 64.6104 179.809 63.9395 179.809 63.166C179.809 62.3984 179.706 61.7363 179.501 61.1797C179.296 60.6172 178.979 60.1836 178.552 59.8789C178.124 59.5742 177.57 59.4219 176.891 59.4219C175.889 59.4219 175.153 59.7529 174.685 60.415C174.222 61.0771 173.99 61.9941 173.99 63.166ZM183.342 62.2168C183.342 60.8457 183.474 59.6768 183.737 58.71C184.001 57.7373 184.408 56.958 184.959 56.3721C185.516 55.7803 186.23 55.376 187.104 55.1592C187.854 54.9541 188.615 54.7783 189.389 54.6318C190.162 54.4795 190.915 54.3477 191.647 54.2363L191.902 55.5195C191.533 55.5723 191.146 55.6338 190.742 55.7041C190.338 55.7686 189.934 55.8389 189.529 55.915C189.125 55.9854 188.744 56.0615 188.387 56.1436C188.029 56.2197 187.713 56.2988 187.438 56.3809C186.939 56.5156 186.509 56.75 186.146 57.084C185.788 57.418 185.504 57.8779 185.293 58.4639C185.088 59.0498 184.965 59.7881 184.924 60.6787H185.029C185.205 60.4209 185.445 60.166 185.75 59.9141C186.055 59.6621 186.418 59.4541 186.84 59.29C187.262 59.1201 187.736 59.0352 188.264 59.0352C189.096 59.0352 189.79 59.2168 190.347 59.5801C190.903 59.9375 191.322 60.4414 191.604 61.0918C191.885 61.7422 192.025 62.5039 192.025 63.377C192.025 64.4258 191.844 65.3076 191.48 66.0225C191.123 66.7373 190.619 67.2764 189.969 67.6396C189.318 67.9971 188.554 68.1758 187.675 68.1758C186.995 68.1758 186.386 68.0439 185.847 67.7803C185.313 67.5166 184.859 67.1299 184.484 66.6201C184.115 66.1104 183.831 65.4863 183.632 64.748C183.438 64.0098 183.342 63.166 183.342 62.2168ZM187.789 66.9629C188.346 66.9629 188.823 66.8457 189.222 66.6113C189.626 66.377 189.937 66.0078 190.153 65.5039C190.376 64.9941 190.487 64.332 190.487 63.5176C190.487 62.498 190.291 61.7012 189.898 61.127C189.512 60.5469 188.891 60.2568 188.035 60.2568C187.502 60.2568 187.019 60.3711 186.585 60.5996C186.151 60.8223 185.785 61.0889 185.486 61.3994C185.188 61.71 184.971 61.9883 184.836 62.2344C184.836 62.832 184.88 63.4121 184.968 63.9746C185.056 64.5371 185.208 65.0439 185.425 65.4951C185.642 65.9463 185.94 66.3037 186.321 66.5674C186.708 66.8311 187.197 66.9629 187.789 66.9629ZM202.854 63.166C202.854 63.957 202.751 64.6631 202.546 65.2842C202.341 65.9053 202.045 66.4297 201.658 66.8574C201.271 67.2852 200.803 67.6133 200.252 67.8418C199.707 68.0645 199.089 68.1758 198.397 68.1758C197.753 68.1758 197.161 68.0645 196.622 67.8418C196.089 67.6133 195.626 67.2852 195.233 66.8574C194.847 66.4297 194.545 65.9053 194.328 65.2842C194.117 64.6631 194.012 63.957 194.012 63.166C194.012 62.1113 194.19 61.2148 194.548 60.4766C194.905 59.7324 195.415 59.167 196.077 58.7803C196.745 58.3877 197.539 58.1914 198.459 58.1914C199.338 58.1914 200.105 58.3877 200.762 58.7803C201.424 59.1729 201.937 59.7412 202.3 60.4854C202.669 61.2236 202.854 62.1172 202.854 63.166ZM195.523 63.166C195.523 63.9395 195.626 64.6104 195.831 65.1787C196.036 65.7471 196.353 66.1865 196.78 66.4971C197.208 66.8076 197.759 66.9629 198.433 66.9629C199.101 66.9629 199.648 66.8076 200.076 66.4971C200.51 66.1865 200.829 65.7471 201.034 65.1787C201.239 64.6104 201.342 63.9395 201.342 63.166C201.342 62.3984 201.239 61.7363 201.034 61.1797C200.829 60.6172 200.513 60.1836 200.085 59.8789C199.657 59.5742 199.104 59.4219 198.424 59.4219C197.422 59.4219 196.687 59.7529 196.218 60.415C195.755 61.0771 195.523 61.9941 195.523 63.166ZM212.434 58.3672V66.7607H213.813V71.3311H212.398V68H205.578V71.3311H204.181V66.7607H204.937C205.487 65.999 205.944 65.1641 206.308 64.2559C206.671 63.3477 206.946 62.3955 207.134 61.3994C207.321 60.3975 207.421 59.3867 207.433 58.3672H212.434ZM211.019 59.5273H208.733C208.681 60.3828 208.555 61.2529 208.355 62.1377C208.162 63.0225 207.904 63.8662 207.582 64.6689C207.26 65.4658 206.885 66.1631 206.457 66.7607H211.019V59.5273ZM217.197 58.3672V62.4102H222.567V58.3672H224.026V68H222.567V63.6494H217.197V68H215.729V58.3672H217.197ZM235.426 63.166C235.426 63.957 235.323 64.6631 235.118 65.2842C234.913 65.9053 234.617 66.4297 234.23 66.8574C233.844 67.2852 233.375 67.6133 232.824 67.8418C232.279 68.0645 231.661 68.1758 230.97 68.1758C230.325 68.1758 229.733 68.0645 229.194 67.8418C228.661 67.6133 228.198 67.2852 227.806 66.8574C227.419 66.4297 227.117 65.9053 226.9 65.2842C226.689 64.6631 226.584 63.957 226.584 63.166C226.584 62.1113 226.763 61.2148 227.12 60.4766C227.478 59.7324 227.987 59.167 228.649 58.7803C229.317 58.3877 230.111 58.1914 231.031 58.1914C231.91 58.1914 232.678 58.3877 233.334 58.7803C233.996 59.1729 234.509 59.7412 234.872 60.4854C235.241 61.2236 235.426 62.1172 235.426 63.166ZM228.096 63.166C228.096 63.9395 228.198 64.6104 228.403 65.1787C228.608 65.7471 228.925 66.1865 229.353 66.4971C229.78 66.8076 230.331 66.9629 231.005 66.9629C231.673 66.9629 232.221 66.8076 232.648 66.4971C233.082 66.1865 233.401 65.7471 233.606 65.1787C233.812 64.6104 233.914 63.9395 233.914 63.166C233.914 62.3984 233.812 61.7363 233.606 61.1797C233.401 60.6172 233.085 60.1836 232.657 59.8789C232.229 59.5742 231.676 59.4219 230.996 59.4219C229.994 59.4219 229.259 59.7529 228.79 60.415C228.327 61.0771 228.096 61.9941 228.096 63.166ZM246.482 68.1758C245.615 68.1758 244.851 67.9971 244.188 67.6396C243.526 67.2822 243.011 66.7373 242.642 66.0049C242.272 65.2725 242.088 64.3496 242.088 63.2363C242.088 62.0703 242.281 61.1182 242.668 60.3799C243.061 59.6357 243.6 59.085 244.285 58.7275C244.971 58.3701 245.75 58.1914 246.623 58.1914C247.104 58.1914 247.566 58.2412 248.012 58.3408C248.463 58.4346 248.832 58.5547 249.119 58.7012L248.68 59.9229C248.387 59.8057 248.047 59.7002 247.66 59.6064C247.279 59.5127 246.922 59.4658 246.588 59.4658C245.92 59.4658 245.363 59.6094 244.918 59.8965C244.479 60.1836 244.147 60.6055 243.925 61.1621C243.708 61.7188 243.6 62.4043 243.6 63.2188C243.6 63.998 243.705 64.6631 243.916 65.2139C244.133 65.7646 244.452 66.1865 244.874 66.4795C245.302 66.7666 245.835 66.9102 246.474 66.9102C246.983 66.9102 247.443 66.8574 247.854 66.752C248.264 66.6406 248.636 66.5117 248.97 66.3652V67.666C248.647 67.8301 248.287 67.9561 247.889 68.0439C247.496 68.1318 247.027 68.1758 246.482 68.1758ZM252.529 58.3672V61.8301C252.529 62.4336 252.693 62.8789 253.021 63.166C253.355 63.4531 253.839 63.5967 254.472 63.5967C255.081 63.5967 255.635 63.5029 256.133 63.3154C256.631 63.1279 257.135 62.873 257.645 62.5508V58.3672H259.104V68H257.645V63.6846C257.105 64.0303 256.575 64.3027 256.054 64.502C255.532 64.7012 254.908 64.8008 254.182 64.8008C253.191 64.8008 252.424 64.543 251.879 64.0273C251.34 63.5117 251.07 62.8145 251.07 61.9355V58.3672H252.529ZM263.577 58.3672V64.4229C263.577 64.54 263.574 64.6924 263.568 64.8799C263.562 65.0615 263.554 65.2578 263.542 65.4688C263.53 65.6738 263.519 65.873 263.507 66.0664C263.501 66.2539 263.492 66.4092 263.48 66.5322L268.736 58.3672H270.529V68H269.167V62.0938C269.167 61.9062 269.17 61.666 269.176 61.373C269.182 61.0801 269.19 60.793 269.202 60.5117C269.214 60.2246 269.223 60.002 269.229 59.8438L263.99 68H262.188V58.3672H263.577ZM280.197 59.6064H277.024V68H275.583V59.6064H272.454V58.3672H280.197V59.6064ZM285.708 58.209C286.856 58.209 287.709 58.4668 288.266 58.9824C288.822 59.498 289.101 60.3213 289.101 61.4521V68H288.037L287.756 66.5762H287.686C287.416 66.9277 287.135 67.2236 286.842 67.4639C286.549 67.6982 286.209 67.877 285.822 68C285.441 68.1172 284.973 68.1758 284.416 68.1758C283.83 68.1758 283.309 68.0732 282.852 67.8682C282.4 67.6631 282.043 67.3525 281.779 66.9365C281.521 66.5205 281.393 65.9932 281.393 65.3545C281.393 64.3936 281.773 63.6553 282.535 63.1396C283.297 62.624 284.457 62.3428 286.016 62.2959L287.677 62.2256V61.6367C287.677 60.8047 287.498 60.2217 287.141 59.8877C286.783 59.5537 286.279 59.3867 285.629 59.3867C285.125 59.3867 284.645 59.46 284.188 59.6064C283.73 59.7529 283.297 59.9258 282.887 60.125L282.438 59.0176C282.872 58.7949 283.37 58.6045 283.933 58.4463C284.495 58.2881 285.087 58.209 285.708 58.209ZM287.659 63.2539L286.191 63.3154C284.99 63.3623 284.144 63.5586 283.651 63.9043C283.159 64.25 282.913 64.7393 282.913 65.3721C282.913 65.9229 283.08 66.3301 283.414 66.5938C283.748 66.8574 284.19 66.9893 284.741 66.9893C285.597 66.9893 286.297 66.752 286.842 66.2773C287.387 65.8027 287.659 65.0908 287.659 64.1416V63.2539ZM298.672 59.6064H295.499V68H294.058V59.6064H290.929V58.3672H298.672V59.6064ZM302.047 62.3398H305C305.82 62.3398 306.503 62.4424 307.048 62.6475C307.593 62.8525 308 63.1572 308.27 63.5615C308.545 63.9658 308.683 64.4668 308.683 65.0645C308.683 65.6621 308.548 66.1807 308.278 66.6201C308.015 67.0596 307.604 67.3994 307.048 67.6396C306.497 67.8799 305.785 68 304.912 68H300.579V58.3672H302.047V62.3398ZM307.215 65.1348C307.215 64.543 307.004 64.1328 306.582 63.9043C306.166 63.6699 305.583 63.5527 304.833 63.5527H302.047V66.8135H304.842C305.545 66.8135 306.116 66.6846 306.556 66.4268C306.995 66.1631 307.215 65.7324 307.215 65.1348ZM323.94 58.3672V68H322.473V59.624H317.34V68H315.872V58.3672H323.94ZM331.561 58.1914C332.762 58.1914 333.72 58.6045 334.435 59.4307C335.149 60.2568 335.507 61.499 335.507 63.1572C335.507 64.2529 335.343 65.1729 335.015 65.917C334.687 66.6611 334.224 67.2236 333.626 67.6045C333.034 67.9854 332.334 68.1758 331.525 68.1758C331.016 68.1758 330.567 68.1084 330.181 67.9736C329.794 67.8389 329.463 67.6572 329.188 67.4287C328.912 67.2002 328.684 66.9512 328.502 66.6816H328.396C328.414 66.9102 328.435 67.1855 328.458 67.5078C328.487 67.8301 328.502 68.1113 328.502 68.3516V72.3066H327.034V58.3672H328.238L328.432 59.791H328.502C328.689 59.498 328.918 59.2314 329.188 58.9912C329.457 58.7451 329.785 58.5518 330.172 58.4111C330.564 58.2646 331.027 58.1914 331.561 58.1914ZM331.306 59.4219C330.638 59.4219 330.099 59.5508 329.688 59.8086C329.284 60.0664 328.988 60.4531 328.801 60.9688C328.613 61.4785 328.514 62.1201 328.502 62.8936V63.1748C328.502 63.9893 328.59 64.6777 328.766 65.2402C328.947 65.8027 329.243 66.2305 329.653 66.5234C330.069 66.8164 330.626 66.9629 331.323 66.9629C331.921 66.9629 332.419 66.8018 332.817 66.4795C333.216 66.1572 333.512 65.709 333.705 65.1348C333.904 64.5547 334.004 63.8896 334.004 63.1396C334.004 62.0029 333.781 61.1006 333.336 60.4326C332.896 59.7588 332.22 59.4219 331.306 59.4219ZM339.444 58.3672V64.4229C339.444 64.54 339.441 64.6924 339.436 64.8799C339.43 65.0615 339.421 65.2578 339.409 65.4688C339.397 65.6738 339.386 65.873 339.374 66.0664C339.368 66.2539 339.359 66.4092 339.348 66.5322L344.604 58.3672H346.396V68H345.034V62.0938C345.034 61.9062 345.037 61.666 345.043 61.373C345.049 61.0801 345.058 60.793 345.069 60.5117C345.081 60.2246 345.09 60.002 345.096 59.8438L339.857 68H338.056V58.3672H339.444ZM359.668 58.3672V68H358.35V61.7246C358.35 61.4668 358.355 61.2061 358.367 60.9424C358.385 60.6729 358.405 60.4033 358.429 60.1338H358.376L355.177 68H353.938L350.817 60.1338H350.765C350.782 60.4033 350.794 60.6729 350.8 60.9424C350.812 61.2061 350.817 61.4844 350.817 61.7773V68H349.49V58.3672H351.45L354.562 66.2422L357.717 58.3672H359.668ZM366.409 58.1914C367.229 58.1914 367.933 58.373 368.519 58.7363C369.104 59.0996 369.553 59.6094 369.863 60.2656C370.174 60.916 370.329 61.6777 370.329 62.5508V63.4561H363.676C363.693 64.5869 363.975 65.4482 364.52 66.04C365.064 66.6318 365.832 66.9277 366.822 66.9277C367.432 66.9277 367.971 66.8721 368.439 66.7607C368.908 66.6494 369.395 66.4854 369.898 66.2686V67.5518C369.412 67.7686 368.929 67.9268 368.448 68.0264C367.974 68.126 367.411 68.1758 366.761 68.1758C365.835 68.1758 365.026 67.9883 364.335 67.6133C363.649 67.2324 363.116 66.6758 362.735 65.9434C362.354 65.2109 362.164 64.3145 362.164 63.2539C362.164 62.2168 362.337 61.3203 362.683 60.5645C363.034 59.8027 363.526 59.2168 364.159 58.8066C364.798 58.3965 365.548 58.1914 366.409 58.1914ZM366.392 59.3867C365.612 59.3867 364.991 59.6416 364.528 60.1514C364.065 60.6611 363.79 61.373 363.702 62.2871H368.8C368.794 61.7129 368.703 61.209 368.527 60.7754C368.357 60.3359 368.097 59.9961 367.745 59.7559C367.394 59.5098 366.942 59.3867 366.392 59.3867ZM377.334 58.1914C378.535 58.1914 379.493 58.6045 380.208 59.4307C380.923 60.2568 381.28 61.499 381.28 63.1572C381.28 64.2529 381.116 65.1729 380.788 65.917C380.46 66.6611 379.997 67.2236 379.399 67.6045C378.808 67.9854 378.107 68.1758 377.299 68.1758C376.789 68.1758 376.341 68.1084 375.954 67.9736C375.567 67.8389 375.236 67.6572 374.961 67.4287C374.686 67.2002 374.457 66.9512 374.275 66.6816H374.17C374.188 66.9102 374.208 67.1855 374.231 67.5078C374.261 67.8301 374.275 68.1113 374.275 68.3516V72.3066H372.808V58.3672H374.012L374.205 59.791H374.275C374.463 59.498 374.691 59.2314 374.961 58.9912C375.23 58.7451 375.559 58.5518 375.945 58.4111C376.338 58.2646 376.801 58.1914 377.334 58.1914ZM377.079 59.4219C376.411 59.4219 375.872 59.5508 375.462 59.8086C375.058 60.0664 374.762 60.4531 374.574 60.9688C374.387 61.4785 374.287 62.1201 374.275 62.8936V63.1748C374.275 63.9893 374.363 64.6777 374.539 65.2402C374.721 65.8027 375.017 66.2305 375.427 66.5234C375.843 66.8164 376.399 66.9629 377.097 66.9629C377.694 66.9629 378.192 66.8018 378.591 66.4795C378.989 66.1572 379.285 65.709 379.479 65.1348C379.678 64.5547 379.777 63.8896 379.777 63.1396C379.777 62.0029 379.555 61.1006 379.109 60.4326C378.67 59.7588 377.993 59.4219 377.079 59.4219ZM383.829 68V58.3672H385.297V62.3398H387.934C388.754 62.3398 389.428 62.4424 389.955 62.6475C390.488 62.8525 390.884 63.1572 391.142 63.5615C391.399 63.9658 391.528 64.4668 391.528 65.0645C391.528 65.6621 391.399 66.1807 391.142 66.6201C390.89 67.0596 390.491 67.3994 389.946 67.6396C389.407 67.8799 388.704 68 387.837 68H383.829ZM385.297 66.8135H387.696C388.423 66.8135 389.003 66.6846 389.437 66.4268C389.87 66.1689 390.087 65.7383 390.087 65.1348C390.087 64.543 389.885 64.1328 389.48 63.9043C389.076 63.6699 388.496 63.5527 387.74 63.5527H385.297V66.8135ZM393.119 68V58.3672H394.578V68H393.119ZM403.728 58.3672V64.4229C403.728 64.54 403.725 64.6924 403.719 64.8799C403.713 65.0615 403.704 65.2578 403.692 65.4688C403.681 65.6738 403.669 65.873 403.657 66.0664C403.651 66.2539 403.643 66.4092 403.631 66.5322L408.887 58.3672H410.68V68H409.317V62.0938C409.317 61.9062 409.32 61.666 409.326 61.373C409.332 61.0801 409.341 60.793 409.353 60.5117C409.364 60.2246 409.373 60.002 409.379 59.8438L404.141 68H402.339V58.3672H403.728ZM422.984 58.1914C424.186 58.1914 425.144 58.6045 425.858 59.4307C426.573 60.2568 426.931 61.499 426.931 63.1572C426.931 64.2529 426.767 65.1729 426.438 65.917C426.11 66.6611 425.647 67.2236 425.05 67.6045C424.458 67.9854 423.758 68.1758 422.949 68.1758C422.439 68.1758 421.991 68.1084 421.604 67.9736C421.218 67.8389 420.887 67.6572 420.611 67.4287C420.336 67.2002 420.107 66.9512 419.926 66.6816H419.82C419.838 66.9102 419.858 67.1855 419.882 67.5078C419.911 67.8301 419.926 68.1113 419.926 68.3516V72.3066H418.458V58.3672H419.662L419.855 59.791H419.926C420.113 59.498 420.342 59.2314 420.611 58.9912C420.881 58.7451 421.209 58.5518 421.596 58.4111C421.988 58.2646 422.451 58.1914 422.984 58.1914ZM422.729 59.4219C422.062 59.4219 421.522 59.5508 421.112 59.8086C420.708 60.0664 420.412 60.4531 420.225 60.9688C420.037 61.4785 419.938 62.1201 419.926 62.8936V63.1748C419.926 63.9893 420.014 64.6777 420.189 65.2402C420.371 65.8027 420.667 66.2305 421.077 66.5234C421.493 66.8164 422.05 66.9629 422.747 66.9629C423.345 66.9629 423.843 66.8018 424.241 66.4795C424.64 66.1572 424.936 65.709 425.129 65.1348C425.328 64.5547 425.428 63.8896 425.428 63.1396C425.428 62.0029 425.205 61.1006 424.76 60.4326C424.32 59.7588 423.644 59.4219 422.729 59.4219ZM433.188 58.1914C434.009 58.1914 434.712 58.373 435.298 58.7363C435.884 59.0996 436.332 59.6094 436.643 60.2656C436.953 60.916 437.108 61.6777 437.108 62.5508V63.4561H430.455C430.473 64.5869 430.754 65.4482 431.299 66.04C431.844 66.6318 432.611 66.9277 433.602 66.9277C434.211 66.9277 434.75 66.8721 435.219 66.7607C435.688 66.6494 436.174 66.4854 436.678 66.2686V67.5518C436.191 67.7686 435.708 67.9268 435.228 68.0264C434.753 68.126 434.19 68.1758 433.54 68.1758C432.614 68.1758 431.806 67.9883 431.114 67.6133C430.429 67.2324 429.896 66.6758 429.515 65.9434C429.134 65.2109 428.943 64.3145 428.943 63.2539C428.943 62.2168 429.116 61.3203 429.462 60.5645C429.813 59.8027 430.306 59.2168 430.938 58.8066C431.577 58.3965 432.327 58.1914 433.188 58.1914ZM433.171 59.3867C432.392 59.3867 431.771 59.6416 431.308 60.1514C430.845 60.6611 430.569 61.373 430.481 62.2871H435.579C435.573 61.7129 435.482 61.209 435.307 60.7754C435.137 60.3359 434.876 59.9961 434.524 59.7559C434.173 59.5098 433.722 59.3867 433.171 59.3867ZM452.507 58.3672V68H439.587V58.3672H441.046V66.7607H445.309V58.3672H446.776V66.7607H451.048V58.3672H452.507ZM459.204 58.209C460.353 58.209 461.205 58.4668 461.762 58.9824C462.318 59.498 462.597 60.3213 462.597 61.4521V68H461.533L461.252 66.5762H461.182C460.912 66.9277 460.631 67.2236 460.338 67.4639C460.045 67.6982 459.705 67.877 459.318 68C458.938 68.1172 458.469 68.1758 457.912 68.1758C457.326 68.1758 456.805 68.0732 456.348 67.8682C455.896 67.6631 455.539 67.3525 455.275 66.9365C455.018 66.5205 454.889 65.9932 454.889 65.3545C454.889 64.3936 455.27 63.6553 456.031 63.1396C456.793 62.624 457.953 62.3428 459.512 62.2959L461.173 62.2256V61.6367C461.173 60.8047 460.994 60.2217 460.637 59.8877C460.279 59.5537 459.775 59.3867 459.125 59.3867C458.621 59.3867 458.141 59.46 457.684 59.6064C457.227 59.7529 456.793 59.9258 456.383 60.125L455.935 59.0176C456.368 58.7949 456.866 58.6045 457.429 58.4463C457.991 58.2881 458.583 58.209 459.204 58.209ZM461.155 63.2539L459.688 63.3154C458.486 63.3623 457.64 63.5586 457.147 63.9043C456.655 64.25 456.409 64.7393 456.409 65.3721C456.409 65.9229 456.576 66.3301 456.91 66.5938C457.244 66.8574 457.687 66.9893 458.237 66.9893C459.093 66.9893 459.793 66.752 460.338 66.2773C460.883 65.8027 461.155 65.0908 461.155 64.1416V63.2539ZM472.168 59.6064H468.995V68H467.554V59.6064H464.425V58.3672H472.168V59.6064ZM475.543 62.3398H478.496C479.316 62.3398 479.999 62.4424 480.544 62.6475C481.089 62.8525 481.496 63.1572 481.766 63.5615C482.041 63.9658 482.179 64.4668 482.179 65.0645C482.179 65.6621 482.044 66.1807 481.774 66.6201C481.511 67.0596 481.101 67.3994 480.544 67.6396C479.993 67.8799 479.281 68 478.408 68H474.075V58.3672H475.543V62.3398ZM480.711 65.1348C480.711 64.543 480.5 64.1328 480.078 63.9043C479.662 63.6699 479.079 63.5527 478.329 63.5527H475.543V66.8135H478.338C479.041 66.8135 479.612 66.6846 480.052 66.4268C480.491 66.1631 480.711 65.7324 480.711 65.1348ZM188.439 83.3672V93H187.121V86.7246C187.121 86.4668 187.127 86.2061 187.139 85.9424C187.156 85.6729 187.177 85.4033 187.2 85.1338H187.147L183.948 93H182.709L179.589 85.1338H179.536C179.554 85.4033 179.565 85.6729 179.571 85.9424C179.583 86.2061 179.589 86.4844 179.589 86.7773V93H178.262V83.3672H180.222L183.333 91.2422L186.488 83.3672H188.439ZM195.075 83.209C196.224 83.209 197.076 83.4668 197.633 83.9824C198.189 84.498 198.468 85.3213 198.468 86.4521V93H197.404L197.123 91.5762H197.053C196.783 91.9277 196.502 92.2236 196.209 92.4639C195.916 92.6982 195.576 92.877 195.189 93C194.809 93.1172 194.34 93.1758 193.783 93.1758C193.197 93.1758 192.676 93.0732 192.219 92.8682C191.768 92.6631 191.41 92.3525 191.146 91.9365C190.889 91.5205 190.76 90.9932 190.76 90.3545C190.76 89.3936 191.141 88.6553 191.902 88.1396C192.664 87.624 193.824 87.3428 195.383 87.2959L197.044 87.2256V86.6367C197.044 85.8047 196.865 85.2217 196.508 84.8877C196.15 84.5537 195.646 84.3867 194.996 84.3867C194.492 84.3867 194.012 84.46 193.555 84.6064C193.098 84.7529 192.664 84.9258 192.254 85.125L191.806 84.0176C192.239 83.7949 192.737 83.6045 193.3 83.4463C193.862 83.2881 194.454 83.209 195.075 83.209ZM197.026 88.2539L195.559 88.3154C194.357 88.3623 193.511 88.5586 193.019 88.9043C192.526 89.25 192.28 89.7393 192.28 90.3721C192.28 90.9229 192.447 91.3301 192.781 91.5938C193.115 91.8574 193.558 91.9893 194.108 91.9893C194.964 91.9893 195.664 91.752 196.209 91.2773C196.754 90.8027 197.026 90.0908 197.026 89.1416V88.2539ZM208.039 84.6064H204.866V93H203.425V84.6064H200.296V83.3672H208.039V84.6064ZM213.655 83.1914C214.476 83.1914 215.179 83.373 215.765 83.7363C216.351 84.0996 216.799 84.6094 217.109 85.2656C217.42 85.916 217.575 86.6777 217.575 87.5508V88.4561H210.922C210.939 89.5869 211.221 90.4482 211.766 91.04C212.311 91.6318 213.078 91.9277 214.068 91.9277C214.678 91.9277 215.217 91.8721 215.686 91.7607C216.154 91.6494 216.641 91.4854 217.145 91.2686V92.5518C216.658 92.7686 216.175 92.9268 215.694 93.0264C215.22 93.126 214.657 93.1758 214.007 93.1758C213.081 93.1758 212.272 92.9883 211.581 92.6133C210.896 92.2324 210.362 91.6758 209.981 90.9434C209.601 90.2109 209.41 89.3145 209.41 88.2539C209.41 87.2168 209.583 86.3203 209.929 85.5645C210.28 84.8027 210.772 84.2168 211.405 83.8066C212.044 83.3965 212.794 83.1914 213.655 83.1914ZM213.638 84.3867C212.858 84.3867 212.237 84.6416 211.774 85.1514C211.312 85.6611 211.036 86.373 210.948 87.2871H216.046C216.04 86.7129 215.949 86.209 215.773 85.7754C215.604 85.3359 215.343 84.9961 214.991 84.7559C214.64 84.5098 214.188 84.3867 213.638 84.3867ZM230.223 83.3672V93H228.904V86.7246C228.904 86.4668 228.91 86.2061 228.922 85.9424C228.939 85.6729 228.96 85.4033 228.983 85.1338H228.931L225.731 93H224.492L221.372 85.1338H221.319C221.337 85.4033 221.349 85.6729 221.354 85.9424C221.366 86.2061 221.372 86.4844 221.372 86.7773V93H220.045V83.3672H222.005L225.116 91.2422L228.271 83.3672H230.223ZM236.858 83.209C238.007 83.209 238.859 83.4668 239.416 83.9824C239.973 84.498 240.251 85.3213 240.251 86.4521V93H239.188L238.906 91.5762H238.836C238.566 91.9277 238.285 92.2236 237.992 92.4639C237.699 92.6982 237.359 92.877 236.973 93C236.592 93.1172 236.123 93.1758 235.566 93.1758C234.98 93.1758 234.459 93.0732 234.002 92.8682C233.551 92.6631 233.193 92.3525 232.93 91.9365C232.672 91.5205 232.543 90.9932 232.543 90.3545C232.543 89.3936 232.924 88.6553 233.686 88.1396C234.447 87.624 235.607 87.3428 237.166 87.2959L238.827 87.2256V86.6367C238.827 85.8047 238.648 85.2217 238.291 84.8877C237.934 84.5537 237.43 84.3867 236.779 84.3867C236.275 84.3867 235.795 84.46 235.338 84.6064C234.881 84.7529 234.447 84.9258 234.037 85.125L233.589 84.0176C234.022 83.7949 234.521 83.6045 235.083 83.4463C235.646 83.2881 236.237 83.209 236.858 83.209ZM238.81 88.2539L237.342 88.3154C236.141 88.3623 235.294 88.5586 234.802 88.9043C234.31 89.25 234.063 89.7393 234.063 90.3721C234.063 90.9229 234.23 91.3301 234.564 91.5938C234.898 91.8574 235.341 91.9893 235.892 91.9893C236.747 91.9893 237.447 91.752 237.992 91.2773C238.537 90.8027 238.81 90.0908 238.81 89.1416V88.2539ZM249.822 84.6064H246.649V93H245.208V84.6064H242.079V83.3672H249.822V84.6064ZM253.118 83.3672V89.4229C253.118 89.54 253.115 89.6924 253.109 89.8799C253.104 90.0615 253.095 90.2578 253.083 90.4688C253.071 90.6738 253.06 90.873 253.048 91.0664C253.042 91.2539 253.033 91.4092 253.021 91.5322L258.277 83.3672H260.07V93H258.708V87.0938C258.708 86.9062 258.711 86.666 258.717 86.373C258.723 86.0801 258.731 85.793 258.743 85.5117C258.755 85.2246 258.764 85.002 258.77 84.8438L253.531 93H251.729V83.3672H253.118ZM264.447 83.3672V86.8301C264.447 87.4336 264.611 87.8789 264.939 88.166C265.273 88.4531 265.757 88.5967 266.39 88.5967C266.999 88.5967 267.553 88.5029 268.051 88.3154C268.549 88.1279 269.053 87.873 269.562 87.5508V83.3672H271.021V93H269.562V88.6846C269.023 89.0303 268.493 89.3027 267.972 89.502C267.45 89.7012 266.826 89.8008 266.1 89.8008C265.109 89.8008 264.342 89.543 263.797 89.0273C263.258 88.5117 262.988 87.8145 262.988 86.9355V83.3672H264.447ZM277.815 83.1914C278.636 83.1914 279.339 83.373 279.925 83.7363C280.511 84.0996 280.959 84.6094 281.27 85.2656C281.58 85.916 281.735 86.6777 281.735 87.5508V88.4561H275.082C275.1 89.5869 275.381 90.4482 275.926 91.04C276.471 91.6318 277.238 91.9277 278.229 91.9277C278.838 91.9277 279.377 91.8721 279.846 91.7607C280.314 91.6494 280.801 91.4854 281.305 91.2686V92.5518C280.818 92.7686 280.335 92.9268 279.854 93.0264C279.38 93.126 278.817 93.1758 278.167 93.1758C277.241 93.1758 276.433 92.9883 275.741 92.6133C275.056 92.2324 274.522 91.6758 274.142 90.9434C273.761 90.2109 273.57 89.3145 273.57 88.2539C273.57 87.2168 273.743 86.3203 274.089 85.5645C274.44 84.8027 274.933 84.2168 275.565 83.8066C276.204 83.3965 276.954 83.1914 277.815 83.1914ZM277.798 84.3867C277.019 84.3867 276.397 84.6416 275.935 85.1514C275.472 85.6611 275.196 86.373 275.108 87.2871H280.206C280.2 86.7129 280.109 86.209 279.934 85.7754C279.764 85.3359 279.503 84.9961 279.151 84.7559C278.8 84.5098 278.349 84.3867 277.798 84.3867ZM288.072 93.1758C287.205 93.1758 286.44 92.9971 285.778 92.6396C285.116 92.2822 284.601 91.7373 284.231 91.0049C283.862 90.2725 283.678 89.3496 283.678 88.2363C283.678 87.0703 283.871 86.1182 284.258 85.3799C284.65 84.6357 285.189 84.085 285.875 83.7275C286.561 83.3701 287.34 83.1914 288.213 83.1914C288.693 83.1914 289.156 83.2412 289.602 83.3408C290.053 83.4346 290.422 83.5547 290.709 83.7012L290.27 84.9229C289.977 84.8057 289.637 84.7002 289.25 84.6064C288.869 84.5127 288.512 84.4658 288.178 84.4658C287.51 84.4658 286.953 84.6094 286.508 84.8965C286.068 85.1836 285.737 85.6055 285.515 86.1621C285.298 86.7188 285.189 87.4043 285.189 88.2188C285.189 88.998 285.295 89.6631 285.506 90.2139C285.723 90.7646 286.042 91.1865 286.464 91.4795C286.892 91.7666 287.425 91.9102 288.063 91.9102C288.573 91.9102 289.033 91.8574 289.443 91.752C289.854 91.6406 290.226 91.5117 290.56 91.3652V92.666C290.237 92.8301 289.877 92.9561 289.479 93.0439C289.086 93.1318 288.617 93.1758 288.072 93.1758ZM298.461 83.3672H300.069L295.912 88.0166L300.403 93H298.689L294.312 88.1133V93H292.845V83.3672H294.312V88.043L298.461 83.3672ZM303.532 83.3672V89.4229C303.532 89.54 303.529 89.6924 303.523 89.8799C303.518 90.0615 303.509 90.2578 303.497 90.4688C303.485 90.6738 303.474 90.873 303.462 91.0664C303.456 91.2539 303.447 91.4092 303.436 91.5322L308.691 83.3672H310.484V93H309.122V87.0938C309.122 86.9062 309.125 86.666 309.131 86.373C309.137 86.0801 309.146 85.793 309.157 85.5117C309.169 85.2246 309.178 85.002 309.184 84.8438L303.945 93H302.144V83.3672H303.532ZM317.296 83.1914C318.116 83.1914 318.819 83.373 319.405 83.7363C319.991 84.0996 320.439 84.6094 320.75 85.2656C321.061 85.916 321.216 86.6777 321.216 87.5508V88.4561H314.562C314.58 89.5869 314.861 90.4482 315.406 91.04C315.951 91.6318 316.719 91.9277 317.709 91.9277C318.318 91.9277 318.857 91.8721 319.326 91.7607C319.795 91.6494 320.281 91.4854 320.785 91.2686V92.5518C320.299 92.7686 319.815 92.9268 319.335 93.0264C318.86 93.126 318.298 93.1758 317.647 93.1758C316.722 93.1758 315.913 92.9883 315.222 92.6133C314.536 92.2324 314.003 91.6758 313.622 90.9434C313.241 90.2109 313.051 89.3145 313.051 88.2539C313.051 87.2168 313.224 86.3203 313.569 85.5645C313.921 84.8027 314.413 84.2168 315.046 83.8066C315.685 83.3965 316.435 83.1914 317.296 83.1914ZM317.278 84.3867C316.499 84.3867 315.878 84.6416 315.415 85.1514C314.952 85.6611 314.677 86.373 314.589 87.2871H319.687C319.681 86.7129 319.59 86.209 319.414 85.7754C319.244 85.3359 318.983 84.9961 318.632 84.7559C318.28 84.5098 317.829 84.3867 317.278 84.3867ZM330.849 83.1914C331.569 83.1914 332.193 83.291 332.721 83.4902C333.248 83.6836 333.655 83.9678 333.942 84.3428C334.229 84.7178 334.373 85.1748 334.373 85.7139C334.373 86.2939 334.215 86.7568 333.898 87.1025C333.582 87.4482 333.146 87.6973 332.589 87.8496V87.9199C332.981 88.0254 333.336 88.1777 333.652 88.377C333.975 88.5703 334.229 88.8281 334.417 89.1504C334.61 89.4668 334.707 89.8623 334.707 90.3369C334.707 90.876 334.561 91.3623 334.268 91.7959C333.975 92.2236 333.529 92.5605 332.932 92.8066C332.334 93.0527 331.578 93.1758 330.664 93.1758C330.213 93.1758 329.785 93.1494 329.381 93.0967C328.977 93.0498 328.61 92.9795 328.282 92.8857C327.954 92.792 327.667 92.6807 327.421 92.5518V91.2246C327.831 91.4238 328.312 91.5996 328.862 91.752C329.413 91.9043 330.008 91.9805 330.646 91.9805C331.139 91.9805 331.581 91.9248 331.974 91.8135C332.366 91.6963 332.677 91.5117 332.905 91.2598C333.14 91.002 333.257 90.665 333.257 90.249C333.257 89.8682 333.154 89.5547 332.949 89.3086C332.744 89.0566 332.437 88.8721 332.026 88.7549C331.622 88.6318 331.109 88.5703 330.488 88.5703H329.196V87.375H330.26C331.086 87.375 331.745 87.2578 332.237 87.0234C332.729 86.7891 332.976 86.3936 332.976 85.8369C332.976 85.3564 332.785 84.999 332.404 84.7646C332.023 84.5244 331.479 84.4043 330.77 84.4043C330.242 84.4043 329.776 84.46 329.372 84.5713C328.968 84.6768 328.531 84.8291 328.062 85.0283L327.544 83.8594C328.048 83.6367 328.575 83.4697 329.126 83.3584C329.677 83.2471 330.251 83.1914 330.849 83.1914ZM340.675 83.209C341.823 83.209 342.676 83.4668 343.232 83.9824C343.789 84.498 344.067 85.3213 344.067 86.4521V93H343.004L342.723 91.5762H342.652C342.383 91.9277 342.102 92.2236 341.809 92.4639C341.516 92.6982 341.176 92.877 340.789 93C340.408 93.1172 339.939 93.1758 339.383 93.1758C338.797 93.1758 338.275 93.0732 337.818 92.8682C337.367 92.6631 337.01 92.3525 336.746 91.9365C336.488 91.5205 336.359 90.9932 336.359 90.3545C336.359 89.3936 336.74 88.6553 337.502 88.1396C338.264 87.624 339.424 87.3428 340.982 87.2959L342.644 87.2256V86.6367C342.644 85.8047 342.465 85.2217 342.107 84.8877C341.75 84.5537 341.246 84.3867 340.596 84.3867C340.092 84.3867 339.611 84.46 339.154 84.6064C338.697 84.7529 338.264 84.9258 337.854 85.125L337.405 84.0176C337.839 83.7949 338.337 83.6045 338.899 83.4463C339.462 83.2881 340.054 83.209 340.675 83.209ZM342.626 88.2539L341.158 88.3154C339.957 88.3623 339.11 88.5586 338.618 88.9043C338.126 89.25 337.88 89.7393 337.88 90.3721C337.88 90.9229 338.047 91.3301 338.381 91.5938C338.715 91.8574 339.157 91.9893 339.708 91.9893C340.563 91.9893 341.264 91.752 341.809 91.2773C342.354 90.8027 342.626 90.0908 342.626 89.1416V88.2539ZM354.131 83.3672V91.7607H355.511V96.3311H354.096V93H347.275V96.3311H345.878V91.7607H346.634C347.185 90.999 347.642 90.1641 348.005 89.2559C348.368 88.3477 348.644 87.3955 348.831 86.3994C349.019 85.3975 349.118 84.3867 349.13 83.3672H354.131ZM352.716 84.5273H350.431C350.378 85.3828 350.252 86.2529 350.053 87.1377C349.859 88.0225 349.602 88.8662 349.279 89.6689C348.957 90.4658 348.582 91.1631 348.154 91.7607H352.716V84.5273ZM361.03 83.209C362.179 83.209 363.031 83.4668 363.588 83.9824C364.145 84.498 364.423 85.3213 364.423 86.4521V93H363.359L363.078 91.5762H363.008C362.738 91.9277 362.457 92.2236 362.164 92.4639C361.871 92.6982 361.531 92.877 361.145 93C360.764 93.1172 360.295 93.1758 359.738 93.1758C359.152 93.1758 358.631 93.0732 358.174 92.8682C357.723 92.6631 357.365 92.3525 357.102 91.9365C356.844 91.5205 356.715 90.9932 356.715 90.3545C356.715 89.3936 357.096 88.6553 357.857 88.1396C358.619 87.624 359.779 87.3428 361.338 87.2959L362.999 87.2256V86.6367C362.999 85.8047 362.82 85.2217 362.463 84.8877C362.105 84.5537 361.602 84.3867 360.951 84.3867C360.447 84.3867 359.967 84.46 359.51 84.6064C359.053 84.7529 358.619 84.9258 358.209 85.125L357.761 84.0176C358.194 83.7949 358.692 83.6045 359.255 83.4463C359.817 83.2881 360.409 83.209 361.03 83.209ZM362.981 88.2539L361.514 88.3154C360.312 88.3623 359.466 88.5586 358.974 88.9043C358.481 89.25 358.235 89.7393 358.235 90.3721C358.235 90.9229 358.402 91.3301 358.736 91.5938C359.07 91.8574 359.513 91.9893 360.063 91.9893C360.919 91.9893 361.619 91.752 362.164 91.2773C362.709 90.8027 362.981 90.0908 362.981 89.1416V88.2539ZM368.703 83.3672V86.8301C368.703 87.4336 368.867 87.8789 369.195 88.166C369.529 88.4531 370.013 88.5967 370.646 88.5967C371.255 88.5967 371.809 88.5029 372.307 88.3154C372.805 88.1279 373.309 87.873 373.818 87.5508V83.3672H375.277V93H373.818V88.6846C373.279 89.0303 372.749 89.3027 372.228 89.502C371.706 89.7012 371.082 89.8008 370.355 89.8008C369.365 89.8008 368.598 89.543 368.053 89.0273C367.514 88.5117 367.244 87.8145 367.244 86.9355V83.3672H368.703ZM379.751 83.3672V89.4229C379.751 89.54 379.748 89.6924 379.742 89.8799C379.736 90.0615 379.728 90.2578 379.716 90.4688C379.704 90.6738 379.692 90.873 379.681 91.0664C379.675 91.2539 379.666 91.4092 379.654 91.5322L384.91 83.3672H386.703V93H385.341V87.0938C385.341 86.9062 385.344 86.666 385.35 86.373C385.355 86.0801 385.364 85.793 385.376 85.5117C385.388 85.2246 385.396 85.002 385.402 84.8438L380.164 93H378.362V83.3672H379.751Z" fill="#16578D"></path> <defs> <filter id="filter0_ddd_280_523" x="0" y="0" width="568" height="132" filterUnits="userSpaceOnUse" color-interpolation-filters="sRGB"> <feFlood flood-opacity="0" result="BackgroundImageFix"></feFlood> <feColorMatrix in="SourceAlpha" type="matrix" values="0 0 0 0 0 0 0 0 0 0 0 0 0 0 0 0 0 0 127 0" result="hardAlpha"></feColorMatrix> <feOffset dy="4"></feOffset> <feGaussianBlur stdDeviation="2"></feGaussianBlur> <feComposite in2="hardAlpha" operator="out"></feComposite> <feColorMatrix type="matrix" values="0 0 0 0 0.980392 0 0 0 0 0.741176 0 0 0 0 0.6 0 0 0 0.2 0"></feColorMatrix> <feBlend mode="normal" in2="BackgroundImageFix" result="effect1_dropShadow_280_523"></feBlend> <feColorMatrix in="SourceAlpha" type="matrix" values="0 0 0 0 0 0 0 0 0 0 0 0 0 0 0 0 0 0 127 0" result="hardAlpha"></feColorMatrix> <feOffset dy="4"></feOffset> <feGaussianBlur stdDeviation="2"></feGaussianBlur> <feComposite in2="hardAlpha" operator="out"></feComposite> <feColorMatrix type="matrix" values="0 0 0 0 0.980392 0 0 0 0 0.741176 0 0 0 0 0.6 0 0 0 0.2 0"></feColorMatrix> <feBlend mode="normal" in2="effect1_dropShadow_280_523" result="effect2_dropShadow_280_523"></feBlend> <feColorMatrix in="SourceAlpha" type="matrix" values="0 0 0 0 0 0 0 0 0 0 0 0 0 0 0 0 0 0 127 0" result="hardAlpha"></feColorMatrix> <feOffset dy="4"></feOffset> <feGaussianBlur stdDeviation="2"></feGaussianBlur> <feComposite in2="hardAlpha" operator="out"></feComposite> <feColorMatrix type="matrix" values="0 0 0 0 0.980392 0 0 0 0 0.741176 0 0 0 0 0.6 0 0 0 0.2 0"></feColorMatrix> <feBlend mode="normal" in2="effect2_dropShadow_280_523" result="effect3_dropShadow_280_523"></feBlend> <feBlend mode="normal" in="SourceGraphic" in2="effect3_dropShadow_280_523" result="shape"></feBlend> </filter> </defs> </svg> 