<?xml version="1.0" encoding="UTF-8"?> <svg xmlns="http://www.w3.org/2000/svg" width="468" height="136" viewBox="0 0 468 136" fill="none"> <g filter="url(#filter0_d_332_478)"> <rect x="4" width="460" height="128" rx="64" fill="#CAE6FB"></rect> <path d="M161 45.1406C160.008 45.1406 159.273 44.8594 158.797 44.2969C158.383 43.8125 158.176 43.1914 158.176 42.4336C158.176 42.0742 158.219 41.6562 158.305 41.1797C158.398 40.7031 158.535 40.0898 158.715 39.3398C158.895 38.5742 159.027 37.9648 159.113 37.5117C159.207 37.0508 159.254 36.6523 159.254 36.3164C159.254 35.4961 158.965 35.0859 158.387 35.0859C157.98 35.0859 157.605 35.3008 157.262 35.7305C156.973 36.0977 156.723 36.6211 156.512 37.3008L154.883 45H151.426L153.969 33H157.426L157.168 34.2422C157.637 33.7188 158.141 33.3516 158.68 33.1406C159.078 32.9844 159.508 32.9062 159.969 32.9062C160.781 32.9062 161.422 33.1172 161.891 33.5391C162.391 34 162.641 34.6914 162.641 35.6133C162.641 36.168 162.539 36.8906 162.336 37.7812C162.281 38.0391 162.191 38.4258 162.066 38.9414C161.84 39.8086 161.676 40.5 161.574 41.0156C161.512 41.3438 161.48 41.6094 161.48 41.8125C161.48 42.1328 161.551 42.3828 161.691 42.5625C161.84 42.7344 162.09 42.8203 162.441 42.8203C162.918 42.8203 163.32 42.625 163.648 42.2344C163.898 41.9375 164.168 41.4258 164.457 40.6992H165.465C164.871 42.457 164.121 43.6875 163.215 44.3906C162.574 44.8906 161.836 45.1406 161 45.1406ZM167.961 45.0938C166.773 45.0938 165.855 44.8047 165.207 44.2266C164.48 43.5859 164.117 42.6133 164.117 41.3086C164.117 40.8164 164.168 40.2734 164.27 39.6797C164.371 39.0781 164.527 38.4727 164.738 37.8633C165.223 36.4102 165.914 35.25 166.812 34.3828C167.898 33.3203 169.191 32.7891 170.691 32.7891C172.746 32.7891 173.773 34.0664 173.773 36.6211V36.6445C173.82 36.6602 173.859 36.668 173.891 36.668H174.031C174.562 36.668 175.191 36.5195 175.918 36.2227C176.559 35.957 177.164 35.625 177.734 35.2266L177.945 35.8828C177.477 36.375 176.871 36.793 176.129 37.1367C175.395 37.4805 174.582 37.7266 173.691 37.875C173.598 38.9609 173.387 39.9531 173.059 40.8516C172.73 41.7422 172.309 42.5078 171.793 43.1484C171.285 43.7734 170.703 44.2539 170.047 44.5898C169.391 44.9258 168.695 45.0938 167.961 45.0938ZM168.922 42.9375C169.203 42.9375 169.488 42.8125 169.777 42.5625C170.074 42.3047 170.352 41.9492 170.609 41.4961C170.867 41.043 171.09 40.5117 171.277 39.9023C171.465 39.293 171.605 38.6406 171.699 37.9453C171.465 37.8828 171.297 37.7656 171.195 37.5938C171.102 37.4219 171.055 37.2031 171.055 36.9375C171.055 36.6094 171.121 36.3359 171.254 36.1172C171.387 35.8984 171.57 35.7383 171.805 35.6367C171.773 35.1289 171.691 34.7656 171.559 34.5469C171.488 34.4375 171.398 34.3594 171.289 34.3125C171.188 34.2656 171.055 34.2422 170.891 34.2422C170.352 34.2422 169.824 34.6484 169.309 35.4609C168.832 36.1953 168.441 37.1016 168.137 38.1797C167.84 39.2344 167.691 40.1719 167.691 40.9922C167.691 41.3906 167.711 41.7148 167.75 41.9648C167.797 42.2148 167.871 42.4102 167.973 42.5508C168.066 42.6914 168.188 42.793 168.336 42.8555C168.484 42.9102 168.68 42.9375 168.922 42.9375ZM178.438 45.1406C177.258 45.1406 176.348 44.8438 175.707 44.25C175.027 43.6172 174.688 42.6445 174.688 41.332C174.688 40.8398 174.738 40.293 174.84 39.6914C174.934 39.082 175.082 38.4766 175.285 37.875C175.762 36.4141 176.438 35.25 177.312 34.3828C178.391 33.3203 179.668 32.7891 181.145 32.7891C182.105 32.7891 182.816 33.0195 183.277 33.4805C183.637 33.8477 183.816 34.3516 183.816 34.9922C183.816 35.5547 183.691 35.9922 183.441 36.3047C183.207 36.5938 182.906 36.7383 182.539 36.7383C182.273 36.7383 181.992 36.6445 181.695 36.457C181.891 35.9492 181.988 35.4766 181.988 35.0391C181.988 34.7344 181.93 34.4961 181.812 34.3242C181.703 34.1445 181.539 34.0547 181.32 34.0547C180.852 34.0547 180.363 34.4688 179.855 35.2969C179.395 36.0312 179.012 36.9648 178.707 38.0977C178.395 39.207 178.238 40.2109 178.238 41.1094C178.238 41.8906 178.387 42.4297 178.684 42.7266C178.941 42.9922 179.371 43.125 179.973 43.125C180.84 43.125 181.633 42.8906 182.352 42.4219C182.656 42.2266 182.949 41.9961 183.23 41.7305C183.512 41.457 183.84 41.1133 184.215 40.6992H185.035C184.277 41.9805 183.406 43 182.422 43.7578C181.211 44.6797 179.883 45.1406 178.438 45.1406ZM198.805 45.1406C197.812 45.1406 197.078 44.8594 196.602 44.2969C196.188 43.8125 195.98 43.1914 195.98 42.4336C195.98 42.0742 196.023 41.6562 196.109 41.1797C196.203 40.7031 196.34 40.0898 196.52 39.3398C196.699 38.5742 196.832 37.9648 196.918 37.5117C197.012 37.0508 197.059 36.6523 197.059 36.3164C197.059 35.4961 196.77 35.0859 196.191 35.0859C195.785 35.0859 195.41 35.3008 195.066 35.7305C194.777 36.0977 194.527 36.6211 194.316 37.3008L192.688 45H189.23L190.988 36.7148C191.035 36.5273 191.059 36.3281 191.059 36.1172C191.059 35.7969 191.008 35.5508 190.906 35.3789C190.773 35.168 190.582 35.0625 190.332 35.0625C189.879 35.0625 189.484 35.2812 189.148 35.7188C188.852 36.0938 188.598 36.6211 188.387 37.3008L186.758 45H183.301L185.844 33H189.301L189.043 34.2422C189.512 33.7188 190.023 33.3477 190.578 33.1289C191.016 32.9648 191.48 32.8828 191.973 32.8828C192.645 32.8828 193.18 33.0391 193.578 33.3516C194.023 33.7031 194.309 34.2344 194.434 34.9453C194.949 34.1484 195.543 33.5859 196.215 33.2578C196.691 33.0234 197.211 32.9062 197.773 32.9062C198.578 32.9062 199.215 33.1172 199.684 33.5391C200.184 34 200.434 34.6914 200.434 35.6133C200.434 36.1367 200.336 36.8594 200.141 37.7812C200.062 38.1641 199.969 38.5508 199.859 38.9414C199.664 39.6914 199.504 40.3828 199.379 41.0156C199.316 41.3438 199.285 41.6094 199.285 41.8125C199.285 42.1328 199.355 42.3828 199.496 42.5625C199.645 42.7344 199.895 42.8203 200.246 42.8203C200.723 42.8203 201.125 42.625 201.453 42.2344C201.703 41.9375 201.973 41.4258 202.262 40.6992H203.27C202.676 42.457 201.926 43.6875 201.02 44.3906C200.379 44.8906 199.641 45.1406 198.805 45.1406ZM205.145 45.1406C204.23 45.1406 203.492 44.8555 202.93 44.2852C202.273 43.6133 201.945 42.6133 201.945 41.2852C201.945 40.7227 202.004 40.1289 202.121 39.5039C202.23 38.8789 202.395 38.2617 202.613 37.6523C203.113 36.2773 203.797 35.168 204.664 34.3242C205.664 33.3633 206.816 32.8828 208.121 32.8828C208.77 32.8828 209.254 32.9961 209.574 33.2227C209.902 33.4414 210.066 33.7344 210.066 34.1016V34.2773L210.324 33H213.781L212.059 41.1562C211.988 41.3906 211.953 41.6484 211.953 41.9297C211.953 42.6172 212.281 42.9609 212.938 42.9609C213.375 42.9609 213.773 42.7383 214.133 42.293C214.438 41.918 214.688 41.3867 214.883 40.6992H215.891C215.461 41.918 214.941 42.8828 214.332 43.5938C213.816 44.1797 213.234 44.6016 212.586 44.8594C212.109 45.0469 211.605 45.1406 211.074 45.1406C210.395 45.1406 209.852 44.957 209.445 44.5898C209.047 44.2148 208.805 43.6641 208.719 42.9375C208.266 43.5781 207.789 44.0781 207.289 44.4375C206.648 44.9062 205.934 45.1406 205.145 45.1406ZM206.703 42.8203C206.883 42.8203 207.07 42.7734 207.266 42.6797C207.469 42.5859 207.664 42.4531 207.852 42.2812C208.273 41.875 208.555 41.3477 208.695 40.6992L209.844 35.2852C209.844 35.207 209.824 35.1172 209.785 35.0156C209.754 34.9062 209.707 34.8047 209.645 34.7109C209.457 34.4844 209.195 34.3711 208.859 34.3711C208.539 34.3711 208.227 34.4766 207.922 34.6875C207.625 34.8984 207.344 35.1914 207.078 35.5664C206.609 36.2461 206.223 37.1328 205.918 38.2266C205.777 38.7109 205.672 39.1914 205.602 39.668C205.531 40.1367 205.496 40.5625 205.496 40.9453C205.496 41.7422 205.645 42.2812 205.941 42.5625C206.043 42.6719 206.156 42.7422 206.281 42.7734C206.406 42.8047 206.547 42.8203 206.703 42.8203ZM223.602 45.1406C222.68 45.1406 221.969 44.8828 221.469 44.3672C221.242 44.1406 221.07 43.875 220.953 43.5703C220.836 43.2578 220.777 42.9336 220.777 42.5977C220.777 42.3008 220.82 41.8984 220.906 41.3906C221 40.8828 221.141 40.1641 221.328 39.2344H218.668L217.438 45H213.98L216.523 33H219.98L218.949 37.8047H221.633L222.723 33H225.934L224.668 38.9531L224.246 40.8047C224.137 41.2891 224.082 41.625 224.082 41.8125C224.082 42.4844 224.402 42.8203 225.043 42.8203C225.285 42.8203 225.496 42.7812 225.676 42.7031C225.855 42.6172 226.023 42.4844 226.18 42.3047C226.32 42.1406 226.453 41.9375 226.578 41.6953C226.711 41.4531 226.871 41.1211 227.059 40.6992H228.066C227.059 43.6602 225.57 45.1406 223.602 45.1406ZM230.562 45.0938C229.375 45.0938 228.457 44.8047 227.809 44.2266C227.082 43.5859 226.719 42.6133 226.719 41.3086C226.719 40.8164 226.77 40.2734 226.871 39.6797C226.973 39.0781 227.129 38.4727 227.34 37.8633C227.824 36.4102 228.516 35.25 229.414 34.3828C230.5 33.3203 231.793 32.7891 233.293 32.7891C235.348 32.7891 236.375 34.0664 236.375 36.6211V36.6445C236.422 36.6602 236.461 36.668 236.492 36.668H236.633C237.164 36.668 237.793 36.5195 238.52 36.2227C239.16 35.957 239.766 35.625 240.336 35.2266L240.547 35.8828C240.078 36.375 239.473 36.793 238.73 37.1367C237.996 37.4805 237.184 37.7266 236.293 37.875C236.199 38.9609 235.988 39.9531 235.66 40.8516C235.332 41.7422 234.91 42.5078 234.395 43.1484C233.887 43.7734 233.305 44.2539 232.648 44.5898C231.992 44.9258 231.297 45.0938 230.562 45.0938ZM231.523 42.9375C231.805 42.9375 232.09 42.8125 232.379 42.5625C232.676 42.3047 232.953 41.9492 233.211 41.4961C233.469 41.043 233.691 40.5117 233.879 39.9023C234.066 39.293 234.207 38.6406 234.301 37.9453C234.066 37.8828 233.898 37.7656 233.797 37.5938C233.703 37.4219 233.656 37.2031 233.656 36.9375C233.656 36.6094 233.723 36.3359 233.855 36.1172C233.988 35.8984 234.172 35.7383 234.406 35.6367C234.375 35.1289 234.293 34.7656 234.16 34.5469C234.09 34.4375 234 34.3594 233.891 34.3125C233.789 34.2656 233.656 34.2422 233.492 34.2422C232.953 34.2422 232.426 34.6484 231.91 35.4609C231.434 36.1953 231.043 37.1016 230.738 38.1797C230.441 39.2344 230.293 40.1719 230.293 40.9922C230.293 41.3906 230.312 41.7148 230.352 41.9648C230.398 42.2148 230.473 42.4102 230.574 42.5508C230.668 42.6914 230.789 42.793 230.938 42.8555C231.086 42.9102 231.281 42.9375 231.523 42.9375ZM241.25 45.0938C239.938 45.0938 238.93 44.6875 238.227 43.875C237.586 43.1328 237.266 42.1016 237.266 40.7812C237.266 40.3516 237.316 39.8242 237.418 39.1992C237.512 38.5664 237.648 37.8867 237.828 37.1602C238.219 35.5977 238.738 34.0703 239.387 32.5781C240.105 30.9375 240.895 29.625 241.754 28.6406C242.723 27.5312 243.707 26.9766 244.707 26.9766C245.543 26.9766 246.184 27.2266 246.629 27.7266C247.105 28.2734 247.344 29.1211 247.344 30.2695C247.344 31.1758 247.121 32.2031 246.676 33.3516C246.34 34.2188 245.91 35.1094 245.387 36.0234C245.723 36.1875 246.023 36.4258 246.289 36.7383C246.984 36.7383 247.773 36.5742 248.656 36.2461C249.445 35.9648 250.121 35.625 250.684 35.2266L250.906 35.8828C250.461 36.3516 249.887 36.7578 249.184 37.1016C248.48 37.4375 247.699 37.6797 246.84 37.8281C246.926 38.125 246.969 38.5234 246.969 39.0234C246.969 39.8203 246.84 40.582 246.582 41.3086C246.324 42.0352 245.949 42.6797 245.457 43.2422C244.949 43.8281 244.336 44.2852 243.617 44.6133C242.906 44.9336 242.117 45.0938 241.25 45.0938ZM242.305 42.9375C242.68 42.9375 243.023 42.8398 243.336 42.6445C243.648 42.4492 243.914 42.1797 244.133 41.8359C244.344 41.5156 244.504 41.1602 244.613 40.7695C244.723 40.3711 244.777 39.9727 244.777 39.5742C244.777 38.9805 244.707 38.543 244.566 38.2617C244.41 38.3164 244.277 38.3555 244.168 38.3789C244.066 38.3945 243.91 38.4023 243.699 38.4023C243.316 38.4023 243.012 38.2969 242.785 38.0859C242.566 37.875 242.457 37.5859 242.457 37.2188C242.457 36.7422 242.617 36.3828 242.938 36.1406C243.195 35.9453 243.594 35.8281 244.133 35.7891C244.562 35.0156 244.949 34.1055 245.293 33.0586C245.637 31.9883 245.809 31.0234 245.809 30.1641C245.809 29.6797 245.746 29.3398 245.621 29.1445C245.504 28.9492 245.305 28.8516 245.023 28.8516C244.773 28.8516 244.52 28.9844 244.262 29.25C244.004 29.5156 243.75 29.8867 243.5 30.3633C243.047 31.2461 242.602 32.4219 242.164 33.8906C241.789 35.1328 241.469 36.4688 241.203 37.8984C240.961 39.1797 240.84 40.1641 240.84 40.8516C240.84 41.5 240.953 42 241.18 42.3516C241.422 42.7422 241.797 42.9375 242.305 42.9375ZM257.047 45.1406C256.094 45.1406 255.371 44.9062 254.879 44.4375C254.395 43.9688 254.152 43.3164 254.152 42.4805C254.152 42.207 254.199 41.7969 254.293 41.25C254.309 41.125 254.324 41.0391 254.34 40.9922C254.355 40.8359 254.371 40.7305 254.387 40.6758C254.418 40.5195 254.434 40.3594 254.434 40.1953C254.434 39.4297 254.129 39.0469 253.52 39.0469C253.316 39.0469 253.098 39.1172 252.863 39.2578L252.477 39.5391L251.984 39.9375L250.93 45H247.473L250.039 33H253.496L252.465 37.7578C252.98 37.2422 253.48 36.7227 253.965 36.1992L254.141 36C255.07 35 255.703 34.332 256.039 33.9961C256.594 33.4414 257.117 33.082 257.609 32.918C257.883 32.832 258.168 32.7891 258.465 32.7891C259.004 32.7891 259.414 32.9375 259.695 33.2344C259.977 33.5234 260.117 33.9023 260.117 34.3711C260.117 34.8633 259.984 35.2461 259.719 35.5195C259.461 35.793 259.09 35.9297 258.605 35.9297C258.16 35.9297 257.82 35.793 257.586 35.5195C257.375 35.2852 257.277 35.0117 257.293 34.6992C257.043 34.8477 256.805 35.0234 256.578 35.2266C256.359 35.4219 256.117 35.6562 255.852 35.9297L255.617 36.1875C255.508 36.2969 255.359 36.4609 255.172 36.6797C254.977 36.9062 254.738 37.1602 254.457 37.4414C254.73 37.3789 255.066 37.3477 255.465 37.3477C256.293 37.3477 256.891 37.5391 257.258 37.9219C257.586 38.2578 257.75 38.8086 257.75 39.5742C257.75 39.832 257.703 40.2109 257.609 40.7109C257.57 40.9062 257.535 41.1133 257.504 41.332C257.473 41.543 257.457 41.7422 257.457 41.9297C257.457 42.5234 257.777 42.8203 258.418 42.8203C258.66 42.8203 258.867 42.7812 259.039 42.7031C259.219 42.6172 259.383 42.4844 259.531 42.3047C259.672 42.1406 259.809 41.9336 259.941 41.6836C260.074 41.4336 260.23 41.1055 260.41 40.6992H261.418C260.41 43.6602 258.953 45.1406 257.047 45.1406ZM263.293 45.1406C262.379 45.1406 261.641 44.8555 261.078 44.2852C260.422 43.6133 260.094 42.6133 260.094 41.2852C260.094 40.7227 260.152 40.1289 260.27 39.5039C260.379 38.8789 260.543 38.2617 260.762 37.6523C261.262 36.2773 261.945 35.168 262.812 34.3242C263.812 33.3633 264.965 32.8828 266.27 32.8828C266.918 32.8828 267.402 32.9961 267.723 33.2227C268.051 33.4414 268.215 33.7344 268.215 34.1016V34.2773L268.473 33H271.93L270.207 41.1562C270.137 41.3906 270.102 41.6484 270.102 41.9297C270.102 42.6172 270.43 42.9609 271.086 42.9609C271.523 42.9609 271.922 42.7383 272.281 42.293C272.586 41.918 272.836 41.3867 273.031 40.6992H274.039C273.609 41.918 273.09 42.8828 272.48 43.5938C271.965 44.1797 271.383 44.6016 270.734 44.8594C270.258 45.0469 269.754 45.1406 269.223 45.1406C268.543 45.1406 268 44.957 267.594 44.5898C267.195 44.2148 266.953 43.6641 266.867 42.9375C266.414 43.5781 265.938 44.0781 265.438 44.4375C264.797 44.9062 264.082 45.1406 263.293 45.1406ZM264.852 42.8203C265.031 42.8203 265.219 42.7734 265.414 42.6797C265.617 42.5859 265.812 42.4531 266 42.2812C266.422 41.875 266.703 41.3477 266.844 40.6992L267.992 35.2852C267.992 35.207 267.973 35.1172 267.934 35.0156C267.902 34.9062 267.855 34.8047 267.793 34.7109C267.605 34.4844 267.344 34.3711 267.008 34.3711C266.688 34.3711 266.375 34.4766 266.07 34.6875C265.773 34.8984 265.492 35.1914 265.227 35.5664C264.758 36.2461 264.371 37.1328 264.066 38.2266C263.926 38.7109 263.82 39.1914 263.75 39.668C263.68 40.1367 263.645 40.5625 263.645 40.9453C263.645 41.7422 263.793 42.2812 264.09 42.5625C264.191 42.6719 264.305 42.7422 264.43 42.7734C264.555 42.8047 264.695 42.8203 264.852 42.8203ZM280.074 32.1094H283.531L283.145 33.9141C283.957 33.2266 284.891 32.8828 285.945 32.8828C286.844 32.8828 287.539 33.1562 288.031 33.7031C288.594 34.3438 288.875 35.332 288.875 36.668C288.875 37.957 288.711 39.168 288.383 40.3008C287.969 41.7461 287.367 42.8672 286.578 43.6641C285.609 44.6484 284.406 45.1406 282.969 45.1406C282.414 45.1406 281.957 45.0547 281.598 44.8828C281.324 44.7578 281.102 44.5586 280.93 44.2852L279.688 50.1328L276.066 51L280.074 32.1094ZM282.23 43.0547C283.004 43.0547 283.668 42.6602 284.223 41.8711C284.66 41.2539 285.012 40.3867 285.277 39.2695C285.488 38.3711 285.594 37.4805 285.594 36.5977C285.594 35.8086 285.449 35.2461 285.16 34.9102C284.973 34.707 284.715 34.6055 284.387 34.6055C284.098 34.6055 283.805 34.707 283.508 34.9102C283.211 35.1133 282.953 35.4062 282.734 35.7891L281.316 42.5039C281.371 42.6602 281.473 42.793 281.621 42.9023C281.777 43.0039 281.98 43.0547 282.23 43.0547ZM293.586 51C293.211 51 292.859 50.9492 292.531 50.8477C292.211 50.7539 291.934 50.6094 291.699 50.4141C291.449 50.2188 291.254 49.9727 291.113 49.6758C290.973 49.3867 290.902 49.0508 290.902 48.668C290.902 47.7617 291.328 46.9844 292.18 46.3359C292.82 45.8594 293.699 45.4453 294.816 45.0938L295.109 43.8047C294.641 44.3203 294.133 44.6836 293.586 44.8945C293.164 45.0586 292.711 45.1406 292.227 45.1406C291.461 45.1406 290.855 44.9141 290.41 44.4609C289.91 43.9609 289.66 43.2305 289.66 42.2695C289.66 41.8164 289.723 41.293 289.848 40.6992L291.477 33H294.934L293.211 41.1562C293.164 41.3516 293.141 41.5547 293.141 41.7656C293.141 42.0703 293.191 42.3125 293.293 42.4922C293.41 42.7109 293.598 42.8203 293.855 42.8203C294.277 42.8203 294.656 42.6328 294.992 42.2578C295.281 41.9375 295.527 41.4688 295.73 40.8516L297.406 33H300.863L298.484 44.1328C299.242 43.8828 299.848 43.5078 300.301 43.0078C300.793 42.4688 301.195 41.6992 301.508 40.6992H302.516C302.086 42.1211 301.445 43.2188 300.594 43.9922C299.969 44.5547 299.195 44.9531 298.273 45.1875L297.91 46.9219C297.605 48.4531 296.996 49.5625 296.082 50.25C295.418 50.75 294.586 51 293.586 51ZM293.035 49.125C293.277 49.125 293.535 48.9492 293.809 48.5977C294.074 48.2539 294.281 47.7188 294.43 46.9922L294.57 46.3008C293.844 46.5742 293.301 46.8516 292.941 47.1328C292.465 47.4922 292.227 47.8945 292.227 48.3398C292.227 48.5508 292.293 48.7266 292.426 48.8672C292.574 49.0391 292.777 49.125 293.035 49.125ZM310.18 45.1406C309.227 45.1406 308.504 44.9062 308.012 44.4375C307.527 43.9688 307.285 43.3164 307.285 42.4805C307.285 42.207 307.332 41.7969 307.426 41.25C307.441 41.125 307.457 41.0391 307.473 40.9922C307.488 40.8359 307.504 40.7305 307.52 40.6758C307.551 40.5195 307.566 40.3594 307.566 40.1953C307.566 39.4297 307.262 39.0469 306.652 39.0469C306.449 39.0469 306.23 39.1172 305.996 39.2578L305.609 39.5391L305.117 39.9375L304.062 45H300.605L303.172 33H306.629L305.598 37.7578C306.113 37.2422 306.613 36.7227 307.098 36.1992L307.273 36C308.203 35 308.836 34.332 309.172 33.9961C309.727 33.4414 310.25 33.082 310.742 32.918C311.016 32.832 311.301 32.7891 311.598 32.7891C312.137 32.7891 312.547 32.9375 312.828 33.2344C313.109 33.5234 313.25 33.9023 313.25 34.3711C313.25 34.8633 313.117 35.2461 312.852 35.5195C312.594 35.793 312.223 35.9297 311.738 35.9297C311.293 35.9297 310.953 35.793 310.719 35.5195C310.508 35.2852 310.41 35.0117 310.426 34.6992C310.176 34.8477 309.938 35.0234 309.711 35.2266C309.492 35.4219 309.25 35.6562 308.984 35.9297L308.75 36.1875C308.641 36.2969 308.492 36.4609 308.305 36.6797C308.109 36.9062 307.871 37.1602 307.59 37.4414C307.863 37.3789 308.199 37.3477 308.598 37.3477C309.426 37.3477 310.023 37.5391 310.391 37.9219C310.719 38.2578 310.883 38.8086 310.883 39.5742C310.883 39.832 310.836 40.2109 310.742 40.7109C310.703 40.9062 310.668 41.1133 310.637 41.332C310.605 41.543 310.59 41.7422 310.59 41.9297C310.59 42.5234 310.91 42.8203 311.551 42.8203C311.793 42.8203 312 42.7812 312.172 42.7031C312.352 42.6172 312.516 42.4844 312.664 42.3047C312.805 42.1406 312.941 41.9336 313.074 41.6836C313.207 41.4336 313.363 41.1055 313.543 40.6992H314.551C313.543 43.6602 312.086 45.1406 310.18 45.1406ZM315.922 45.1406C315.156 45.1406 314.551 44.9141 314.105 44.4609C313.605 43.9609 313.355 43.2305 313.355 42.2695C313.355 41.8164 313.418 41.293 313.543 40.6992L315.172 33H318.629L316.906 41.1562C316.859 41.3984 316.836 41.625 316.836 41.8359C316.836 42.4922 317.074 42.8203 317.551 42.8203C317.988 42.8203 318.383 42.6211 318.734 42.2227C319.016 41.8867 319.262 41.3789 319.473 40.6992L321.102 33H324.559L322.836 41.1562C322.766 41.3906 322.73 41.6484 322.73 41.9297C322.73 42.2578 322.809 42.4883 322.965 42.6211C323.121 42.7539 323.371 42.8203 323.715 42.8203C324.16 42.8203 324.559 42.6211 324.91 42.2227C325.223 41.8711 325.473 41.3633 325.66 40.6992H326.668C326.238 41.918 325.719 42.8828 325.109 43.5938C324.594 44.1797 324.012 44.6016 323.363 44.8594C322.887 45.0469 322.383 45.1406 321.852 45.1406C321.164 45.1406 320.617 44.9492 320.211 44.5664C319.805 44.1836 319.559 43.6172 319.473 42.8672C318.926 43.7422 318.309 44.3672 317.621 44.7422C317.129 45.0078 316.562 45.1406 315.922 45.1406Z" fill="#16578D"></path> <path d="M75.585 63.3672V67.4102H80.9551V63.3672H82.4141V73H80.9551V68.6494H75.585V73H74.1172V63.3672H75.585ZM89.1113 63.209C90.2598 63.209 91.1123 63.4668 91.6689 63.9824C92.2256 64.498 92.5039 65.3213 92.5039 66.4521V73H91.4404L91.1592 71.5762H91.0889C90.8193 71.9277 90.5381 72.2236 90.2451 72.4639C89.9521 72.6982 89.6123 72.877 89.2256 73C88.8447 73.1172 88.376 73.1758 87.8193 73.1758C87.2334 73.1758 86.7119 73.0732 86.2549 72.8682C85.8037 72.6631 85.4463 72.3525 85.1826 71.9365C84.9248 71.5205 84.7959 70.9932 84.7959 70.3545C84.7959 69.3936 85.1768 68.6553 85.9385 68.1396C86.7002 67.624 87.8604 67.3428 89.4189 67.2959L91.0801 67.2256V66.6367C91.0801 65.8047 90.9014 65.2217 90.5439 64.8877C90.1865 64.5537 89.6826 64.3867 89.0322 64.3867C88.5283 64.3867 88.0479 64.46 87.5908 64.6064C87.1338 64.7529 86.7002 64.9258 86.29 65.125L85.8418 64.0176C86.2754 63.7949 86.7734 63.6045 87.3359 63.4463C87.8984 63.2881 88.4902 63.209 89.1113 63.209ZM91.0625 68.2539L89.5947 68.3154C88.3936 68.3623 87.5469 68.5586 87.0547 68.9043C86.5625 69.25 86.3164 69.7393 86.3164 70.3721C86.3164 70.9229 86.4834 71.3301 86.8174 71.5938C87.1514 71.8574 87.5938 71.9893 88.1445 71.9893C89 71.9893 89.7002 71.752 90.2451 71.2773C90.79 70.8027 91.0625 70.0908 91.0625 69.1416V68.2539ZM93.9893 63.3672H95.5537L97.6807 68.957C97.8037 69.2852 97.918 69.6016 98.0234 69.9062C98.1289 70.2051 98.2227 70.4922 98.3047 70.7676C98.3867 71.043 98.4512 71.3096 98.498 71.5674H98.5596C98.6416 71.2744 98.7588 70.8906 98.9111 70.416C99.0635 69.9355 99.2275 69.4463 99.4033 68.9482L101.416 63.3672H102.989L98.7969 74.415C98.5742 75.0068 98.3135 75.5225 98.0146 75.9619C97.7217 76.4014 97.3643 76.7383 96.9424 76.9727C96.5205 77.2129 96.0107 77.333 95.4131 77.333C95.1377 77.333 94.8945 77.3154 94.6836 77.2803C94.4727 77.251 94.291 77.2158 94.1387 77.1748V76.0059C94.2676 76.0352 94.4229 76.0615 94.6045 76.085C94.792 76.1084 94.9854 76.1201 95.1846 76.1201C95.5479 76.1201 95.8613 76.0498 96.125 75.9092C96.3945 75.7744 96.626 75.5752 96.8193 75.3115C97.0127 75.0479 97.1797 74.7344 97.3203 74.3711L97.8477 73.0176L93.9893 63.3672ZM105.802 63.3672V66.8301C105.802 67.4336 105.966 67.8789 106.294 68.166C106.628 68.4531 107.111 68.5967 107.744 68.5967C108.354 68.5967 108.907 68.5029 109.405 68.3154C109.903 68.1279 110.407 67.873 110.917 67.5508V63.3672H112.376V73H110.917V68.6846C110.378 69.0303 109.848 69.3027 109.326 69.502C108.805 69.7012 108.181 69.8008 107.454 69.8008C106.464 69.8008 105.696 69.543 105.151 69.0273C104.612 68.5117 104.343 67.8145 104.343 66.9355V63.3672H105.802ZM116.85 63.3672V69.4229C116.85 69.54 116.847 69.6924 116.841 69.8799C116.835 70.0615 116.826 70.2578 116.814 70.4688C116.803 70.6738 116.791 70.873 116.779 71.0664C116.773 71.2539 116.765 71.4092 116.753 71.5322L122.009 63.3672H123.802V73H122.439V67.0938C122.439 66.9062 122.442 66.666 122.448 66.373C122.454 66.0801 122.463 65.793 122.475 65.5117C122.486 65.2246 122.495 65.002 122.501 64.8438L117.263 73H115.461V63.3672H116.85ZM137.073 63.3672V73H135.755V66.7246C135.755 66.4668 135.761 66.2061 135.772 65.9424C135.79 65.6729 135.811 65.4033 135.834 65.1338H135.781L132.582 73H131.343L128.223 65.1338H128.17C128.188 65.4033 128.199 65.6729 128.205 65.9424C128.217 66.2061 128.223 66.4844 128.223 66.7773V73H126.896V63.3672H128.855L131.967 71.2422L135.122 63.3672H137.073ZM152.85 63.3672V73H151.382V64.624H146.249V73H144.781V63.3672H152.85ZM157.332 63.3672V69.4229C157.332 69.54 157.329 69.6924 157.323 69.8799C157.317 70.0615 157.309 70.2578 157.297 70.4688C157.285 70.6738 157.273 70.873 157.262 71.0664C157.256 71.2539 157.247 71.4092 157.235 71.5322L162.491 63.3672H164.284V73H162.922V67.0938C162.922 66.9062 162.925 66.666 162.931 66.373C162.937 66.0801 162.945 65.793 162.957 65.5117C162.969 65.2246 162.978 65.002 162.983 64.8438L157.745 73H155.943V63.3672H157.332ZM171.245 73.1758C170.378 73.1758 169.613 72.9971 168.951 72.6396C168.289 72.2822 167.773 71.7373 167.404 71.0049C167.035 70.2725 166.851 69.3496 166.851 68.2363C166.851 67.0703 167.044 66.1182 167.431 65.3799C167.823 64.6357 168.362 64.085 169.048 63.7275C169.733 63.3701 170.513 63.1914 171.386 63.1914C171.866 63.1914 172.329 63.2412 172.774 63.3408C173.226 63.4346 173.595 63.5547 173.882 63.7012L173.442 64.9229C173.149 64.8057 172.81 64.7002 172.423 64.6064C172.042 64.5127 171.685 64.4658 171.351 64.4658C170.683 64.4658 170.126 64.6094 169.681 64.8965C169.241 65.1836 168.91 65.6055 168.688 66.1621C168.471 66.7188 168.362 67.4043 168.362 68.2188C168.362 68.998 168.468 69.6631 168.679 70.2139C168.896 70.7646 169.215 71.1865 169.637 71.4795C170.064 71.7666 170.598 71.9102 171.236 71.9102C171.746 71.9102 172.206 71.8574 172.616 71.752C173.026 71.6406 173.398 71.5117 173.732 71.3652V72.666C173.41 72.8301 173.05 72.9561 172.651 73.0439C172.259 73.1318 171.79 73.1758 171.245 73.1758ZM179.621 63.209C180.77 63.209 181.622 63.4668 182.179 63.9824C182.735 64.498 183.014 65.3213 183.014 66.4521V73H181.95L181.669 71.5762H181.599C181.329 71.9277 181.048 72.2236 180.755 72.4639C180.462 72.6982 180.122 72.877 179.735 73C179.354 73.1172 178.886 73.1758 178.329 73.1758C177.743 73.1758 177.222 73.0732 176.765 72.8682C176.313 72.6631 175.956 72.3525 175.692 71.9365C175.435 71.5205 175.306 70.9932 175.306 70.3545C175.306 69.3936 175.687 68.6553 176.448 68.1396C177.21 67.624 178.37 67.3428 179.929 67.2959L181.59 67.2256V66.6367C181.59 65.8047 181.411 65.2217 181.054 64.8877C180.696 64.5537 180.192 64.3867 179.542 64.3867C179.038 64.3867 178.558 64.46 178.101 64.6064C177.644 64.7529 177.21 64.9258 176.8 65.125L176.352 64.0176C176.785 63.7949 177.283 63.6045 177.846 63.4463C178.408 63.2881 179 63.209 179.621 63.209ZM181.572 68.2539L180.104 68.3154C178.903 68.3623 178.057 68.5586 177.564 68.9043C177.072 69.25 176.826 69.7393 176.826 70.3721C176.826 70.9229 176.993 71.3301 177.327 71.5938C177.661 71.8574 178.104 71.9893 178.654 71.9893C179.51 71.9893 180.21 71.752 180.755 71.2773C181.3 70.8027 181.572 70.0908 181.572 69.1416V68.2539ZM192.585 64.6064H189.412V73H187.971V64.6064H184.842V63.3672H192.585V64.6064ZM195.96 67.3398H198.913C199.733 67.3398 200.416 67.4424 200.961 67.6475C201.506 67.8525 201.913 68.1572 202.183 68.5615C202.458 68.9658 202.596 69.4668 202.596 70.0645C202.596 70.6621 202.461 71.1807 202.191 71.6201C201.928 72.0596 201.518 72.3994 200.961 72.6396C200.41 72.8799 199.698 73 198.825 73H194.492V63.3672H195.96V67.3398ZM201.128 70.1348C201.128 69.543 200.917 69.1328 200.495 68.9043C200.079 68.6699 199.496 68.5527 198.746 68.5527H195.96V71.8135H198.755C199.458 71.8135 200.029 71.6846 200.469 71.4268C200.908 71.1631 201.128 70.7324 201.128 70.1348ZM208.265 63.3672H209.829L211.956 68.957C212.079 69.2852 212.193 69.6016 212.299 69.9062C212.404 70.2051 212.498 70.4922 212.58 70.7676C212.662 71.043 212.727 71.3096 212.773 71.5674H212.835C212.917 71.2744 213.034 70.8906 213.187 70.416C213.339 69.9355 213.503 69.4463 213.679 68.9482L215.691 63.3672H217.265L213.072 74.415C212.85 75.0068 212.589 75.5225 212.29 75.9619C211.997 76.4014 211.64 76.7383 211.218 76.9727C210.796 77.2129 210.286 77.333 209.688 77.333C209.413 77.333 209.17 77.3154 208.959 77.2803C208.748 77.251 208.566 77.2158 208.414 77.1748V76.0059C208.543 76.0352 208.698 76.0615 208.88 76.085C209.067 76.1084 209.261 76.1201 209.46 76.1201C209.823 76.1201 210.137 76.0498 210.4 75.9092C210.67 75.7744 210.901 75.5752 211.095 75.3115C211.288 75.0479 211.455 74.7344 211.596 74.3711L212.123 73.0176L208.265 63.3672ZM221.281 63.1914C222.002 63.1914 222.626 63.291 223.153 63.4902C223.681 63.6836 224.088 63.9678 224.375 64.3428C224.662 64.7178 224.806 65.1748 224.806 65.7139C224.806 66.2939 224.647 66.7568 224.331 67.1025C224.015 67.4482 223.578 67.6973 223.021 67.8496V67.9199C223.414 68.0254 223.769 68.1777 224.085 68.377C224.407 68.5703 224.662 68.8281 224.85 69.1504C225.043 69.4668 225.14 69.8623 225.14 70.3369C225.14 70.876 224.993 71.3623 224.7 71.7959C224.407 72.2236 223.962 72.5605 223.364 72.8066C222.767 73.0527 222.011 73.1758 221.097 73.1758C220.646 73.1758 220.218 73.1494 219.813 73.0967C219.409 73.0498 219.043 72.9795 218.715 72.8857C218.387 72.792 218.1 72.6807 217.854 72.5518V71.2246C218.264 71.4238 218.744 71.5996 219.295 71.752C219.846 71.9043 220.44 71.9805 221.079 71.9805C221.571 71.9805 222.014 71.9248 222.406 71.8135C222.799 71.6963 223.109 71.5117 223.338 71.2598C223.572 71.002 223.689 70.665 223.689 70.249C223.689 69.8682 223.587 69.5547 223.382 69.3086C223.177 69.0566 222.869 68.8721 222.459 68.7549C222.055 68.6318 221.542 68.5703 220.921 68.5703H219.629V67.375H220.692C221.519 67.375 222.178 67.2578 222.67 67.0234C223.162 66.7891 223.408 66.3936 223.408 65.8369C223.408 65.3564 223.218 64.999 222.837 64.7646C222.456 64.5244 221.911 64.4043 221.202 64.4043C220.675 64.4043 220.209 64.46 219.805 64.5713C219.4 64.6768 218.964 64.8291 218.495 65.0283L217.977 63.8594C218.48 63.6367 219.008 63.4697 219.559 63.3584C220.109 63.2471 220.684 63.1914 221.281 63.1914ZM235.81 68.166C235.81 68.957 235.707 69.6631 235.502 70.2842C235.297 70.9053 235.001 71.4297 234.614 71.8574C234.228 72.2852 233.759 72.6133 233.208 72.8418C232.663 73.0645 232.045 73.1758 231.354 73.1758C230.709 73.1758 230.117 73.0645 229.578 72.8418C229.045 72.6133 228.582 72.2852 228.189 71.8574C227.803 71.4297 227.501 70.9053 227.284 70.2842C227.073 69.6631 226.968 68.957 226.968 68.166C226.968 67.1113 227.146 66.2148 227.504 65.4766C227.861 64.7324 228.371 64.167 229.033 63.7803C229.701 63.3877 230.495 63.1914 231.415 63.1914C232.294 63.1914 233.062 63.3877 233.718 63.7803C234.38 64.1729 234.893 64.7412 235.256 65.4854C235.625 66.2236 235.81 67.1172 235.81 68.166ZM228.479 68.166C228.479 68.9395 228.582 69.6104 228.787 70.1787C228.992 70.7471 229.309 71.1865 229.736 71.4971C230.164 71.8076 230.715 71.9629 231.389 71.9629C232.057 71.9629 232.604 71.8076 233.032 71.4971C233.466 71.1865 233.785 70.7471 233.99 70.1787C234.195 69.6104 234.298 68.9395 234.298 68.166C234.298 67.3984 234.195 66.7363 233.99 66.1797C233.785 65.6172 233.469 65.1836 233.041 64.8789C232.613 64.5742 232.06 64.4219 231.38 64.4219C230.378 64.4219 229.643 64.7529 229.174 65.415C228.711 66.0771 228.479 66.9941 228.479 68.166ZM242.858 63.1914C244.06 63.1914 245.018 63.6045 245.732 64.4307C246.447 65.2568 246.805 66.499 246.805 68.1572C246.805 69.2529 246.641 70.1729 246.312 70.917C245.984 71.6611 245.521 72.2236 244.924 72.6045C244.332 72.9854 243.632 73.1758 242.823 73.1758C242.313 73.1758 241.865 73.1084 241.479 72.9736C241.092 72.8389 240.761 72.6572 240.485 72.4287C240.21 72.2002 239.981 71.9512 239.8 71.6816H239.694C239.712 71.9102 239.732 72.1855 239.756 72.5078C239.785 72.8301 239.8 73.1113 239.8 73.3516V77.3066H238.332V63.3672H239.536L239.729 64.791H239.8C239.987 64.498 240.216 64.2314 240.485 63.9912C240.755 63.7451 241.083 63.5518 241.47 63.4111C241.862 63.2646 242.325 63.1914 242.858 63.1914ZM242.604 64.4219C241.936 64.4219 241.396 64.5508 240.986 64.8086C240.582 65.0664 240.286 65.4531 240.099 65.9688C239.911 66.4785 239.812 67.1201 239.8 67.8936V68.1748C239.8 68.9893 239.888 69.6777 240.063 70.2402C240.245 70.8027 240.541 71.2305 240.951 71.5234C241.367 71.8164 241.924 71.9629 242.621 71.9629C243.219 71.9629 243.717 71.8018 244.115 71.4795C244.514 71.1572 244.81 70.709 245.003 70.1348C245.202 69.5547 245.302 68.8896 245.302 68.1396C245.302 67.0029 245.079 66.1006 244.634 65.4326C244.194 64.7588 243.518 64.4219 242.604 64.4219ZM249.354 73V63.3672H250.821V67.3398H253.458C254.278 67.3398 254.952 67.4424 255.479 67.6475C256.013 67.8525 256.408 68.1572 256.666 68.5615C256.924 68.9658 257.053 69.4668 257.053 70.0645C257.053 70.6621 256.924 71.1807 256.666 71.6201C256.414 72.0596 256.016 72.3994 255.471 72.6396C254.932 72.8799 254.229 73 253.361 73H249.354ZM250.821 71.8135H253.221C253.947 71.8135 254.527 71.6846 254.961 71.4268C255.395 71.1689 255.611 70.7383 255.611 70.1348C255.611 69.543 255.409 69.1328 255.005 68.9043C254.601 68.6699 254.021 68.5527 253.265 68.5527H250.821V71.8135ZM258.644 73V63.3672H260.103V73H258.644ZM264.857 70.9082L264.972 71.1104C264.866 71.5381 264.731 71.9951 264.567 72.4814C264.409 72.9678 264.233 73.4541 264.04 73.9404C263.853 74.4326 263.662 74.8926 263.469 75.3203H262.379C262.502 74.8516 262.622 74.3564 262.739 73.835C262.856 73.3193 262.962 72.8096 263.056 72.3057C263.155 71.7959 263.234 71.3301 263.293 70.9082H264.857ZM272.021 67.2168C272.021 65.8457 272.152 64.6768 272.416 63.71C272.68 62.7373 273.087 61.958 273.638 61.3721C274.194 60.7803 274.909 60.376 275.782 60.1592C276.532 59.9541 277.294 59.7783 278.067 59.6318C278.841 59.4795 279.594 59.3477 280.326 59.2363L280.581 60.5195C280.212 60.5723 279.825 60.6338 279.421 60.7041C279.017 60.7686 278.612 60.8389 278.208 60.915C277.804 60.9854 277.423 61.0615 277.065 61.1436C276.708 61.2197 276.392 61.2988 276.116 61.3809C275.618 61.5156 275.188 61.75 274.824 62.084C274.467 62.418 274.183 62.8779 273.972 63.4639C273.767 64.0498 273.644 64.7881 273.603 65.6787H273.708C273.884 65.4209 274.124 65.166 274.429 64.9141C274.733 64.6621 275.097 64.4541 275.519 64.29C275.94 64.1201 276.415 64.0352 276.942 64.0352C277.774 64.0352 278.469 64.2168 279.025 64.5801C279.582 64.9375 280.001 65.4414 280.282 66.0918C280.563 66.7422 280.704 67.5039 280.704 68.377C280.704 69.4258 280.522 70.3076 280.159 71.0225C279.802 71.7373 279.298 72.2764 278.647 72.6396C277.997 72.9971 277.232 73.1758 276.354 73.1758C275.674 73.1758 275.064 73.0439 274.525 72.7803C273.992 72.5166 273.538 72.1299 273.163 71.6201C272.794 71.1104 272.51 70.4863 272.311 69.748C272.117 69.0098 272.021 68.166 272.021 67.2168ZM276.468 71.9629C277.024 71.9629 277.502 71.8457 277.9 71.6113C278.305 71.377 278.615 71.0078 278.832 70.5039C279.055 69.9941 279.166 69.332 279.166 68.5176C279.166 67.498 278.97 66.7012 278.577 66.127C278.19 65.5469 277.569 65.2568 276.714 65.2568C276.181 65.2568 275.697 65.3711 275.264 65.5996C274.83 65.8223 274.464 66.0889 274.165 66.3994C273.866 66.71 273.649 66.9883 273.515 67.2344C273.515 67.832 273.559 68.4121 273.646 68.9746C273.734 69.5371 273.887 70.0439 274.104 70.4951C274.32 70.9463 274.619 71.3037 275 71.5674C275.387 71.8311 275.876 71.9629 276.468 71.9629ZM281.706 63.3672H283.271L285.397 68.957C285.521 69.2852 285.635 69.6016 285.74 69.9062C285.846 70.2051 285.939 70.4922 286.021 70.7676C286.104 71.043 286.168 71.3096 286.215 71.5674H286.276C286.358 71.2744 286.476 70.8906 286.628 70.416C286.78 69.9355 286.944 69.4463 287.12 68.9482L289.133 63.3672H290.706L286.514 74.415C286.291 75.0068 286.03 75.5225 285.731 75.9619C285.438 76.4014 285.081 76.7383 284.659 76.9727C284.237 77.2129 283.728 77.333 283.13 77.333C282.854 77.333 282.611 77.3154 282.4 77.2803C282.189 77.251 282.008 77.2158 281.855 77.1748V76.0059C281.984 76.0352 282.14 76.0615 282.321 76.085C282.509 76.1084 282.702 76.1201 282.901 76.1201C283.265 76.1201 283.578 76.0498 283.842 75.9092C284.111 75.7744 284.343 75.5752 284.536 75.3115C284.729 75.0479 284.896 74.7344 285.037 74.3711L285.564 73.0176L281.706 63.3672ZM297.86 63.3672H299.469L295.312 68.0166L299.803 73H298.089L293.712 68.1133V73H292.244V63.3672H293.712V68.043L297.86 63.3672ZM309.198 65.7842C309.198 66.3877 309.022 66.8594 308.671 67.1992C308.319 67.5332 307.865 67.7588 307.309 67.876V67.9463C307.912 68.0283 308.431 68.2451 308.864 68.5967C309.304 68.9424 309.523 69.4727 309.523 70.1875C309.523 70.7383 309.392 71.2246 309.128 71.6465C308.864 72.0684 308.451 72.3994 307.889 72.6396C307.326 72.8799 306.594 73 305.691 73H301.543V63.3672H305.656C306.348 63.3672 306.957 63.4463 307.484 63.6045C308.018 63.7568 308.437 64.0088 308.741 64.3604C309.046 64.7119 309.198 65.1865 309.198 65.7842ZM308.003 70.1875C308.003 69.6191 307.786 69.209 307.353 68.957C306.925 68.7051 306.301 68.5791 305.48 68.5791H303.011V71.8135H305.516C306.324 71.8135 306.939 71.6904 307.361 71.4443C307.789 71.1924 308.003 70.7734 308.003 70.1875ZM307.713 65.9512C307.713 65.4941 307.546 65.1543 307.212 64.9316C306.878 64.7031 306.33 64.5889 305.568 64.5889H303.011V67.3574H305.313C306.104 67.3574 306.702 67.2432 307.106 67.0146C307.511 66.7861 307.713 66.4316 307.713 65.9512ZM311.879 73V63.3672H313.347V67.3398H315.983C316.804 67.3398 317.478 67.4424 318.005 67.6475C318.538 67.8525 318.934 68.1572 319.191 68.5615C319.449 68.9658 319.578 69.4668 319.578 70.0645C319.578 70.6621 319.449 71.1807 319.191 71.6201C318.939 72.0596 318.541 72.3994 317.996 72.6396C317.457 72.8799 316.754 73 315.887 73H311.879ZM313.347 71.8135H315.746C316.473 71.8135 317.053 71.6846 317.486 71.4268C317.92 71.1689 318.137 70.7383 318.137 70.1348C318.137 69.543 317.935 69.1328 317.53 68.9043C317.126 68.6699 316.546 68.5527 315.79 68.5527H313.347V71.8135ZM321.169 73V63.3672H322.628V73H321.169ZM331.777 63.3672V69.4229C331.777 69.54 331.774 69.6924 331.769 69.8799C331.763 70.0615 331.754 70.2578 331.742 70.4688C331.73 70.6738 331.719 70.873 331.707 71.0664C331.701 71.2539 331.692 71.4092 331.681 71.5322L336.937 63.3672H338.729V73H337.367V67.0938C337.367 66.9062 337.37 66.666 337.376 66.373C337.382 66.0801 337.391 65.793 337.402 65.5117C337.414 65.2246 337.423 65.002 337.429 64.8438L332.19 73H330.389V63.3672H331.777ZM355.886 76.3311H354.462V73H346.508V63.3672H347.976V71.7607H353.082V63.3672H354.541V71.7783H355.886V76.3311ZM359.164 63.3672V69.4229C359.164 69.54 359.161 69.6924 359.155 69.8799C359.149 70.0615 359.141 70.2578 359.129 70.4688C359.117 70.6738 359.105 70.873 359.094 71.0664C359.088 71.2539 359.079 71.4092 359.067 71.5322L364.323 63.3672H366.116V73H364.754V67.0938C364.754 66.9062 364.757 66.666 364.763 66.373C364.769 66.0801 364.777 65.793 364.789 65.5117C364.801 65.2246 364.81 65.002 364.815 64.8438L359.577 73H357.775V63.3672H359.164ZM374.817 59.3242V63.2266C375.772 63.3086 376.604 63.5576 377.313 63.9736C378.022 64.3838 378.573 64.9434 378.966 65.6523C379.358 66.3613 379.555 67.2051 379.555 68.1836C379.555 69.1445 379.364 69.9824 378.983 70.6973C378.608 71.4121 378.066 71.9775 377.357 72.3936C376.654 72.8096 375.808 73.0586 374.817 73.1406V77.3242H373.394V73.1406C372.438 73.0703 371.606 72.8301 370.897 72.4199C370.194 72.0039 369.646 71.4385 369.254 70.7236C368.861 70.0088 368.665 69.1621 368.665 68.1836C368.665 67.2051 368.853 66.3613 369.228 65.6523C369.608 64.9375 370.153 64.375 370.862 63.9648C371.571 63.5488 372.43 63.3027 373.438 63.2266V59.3242H374.817ZM373.438 64.4395C372.693 64.5039 372.081 64.6914 371.601 65.002C371.12 65.3125 370.763 65.7344 370.528 66.2676C370.3 66.8008 370.186 67.4395 370.186 68.1836C370.186 68.9277 370.303 69.5693 370.537 70.1084C370.771 70.6416 371.129 71.0635 371.609 71.374C372.09 71.6846 372.699 71.875 373.438 71.9453V64.4395ZM374.817 64.457V71.9453C375.556 71.8691 376.162 71.6729 376.637 71.3564C377.117 71.04 377.472 70.6152 377.7 70.082C377.935 69.5488 378.052 68.916 378.052 68.1836C378.052 67.0703 377.785 66.2002 377.252 65.5732C376.719 64.9404 375.907 64.5684 374.817 64.457ZM386.63 63.1914C387.831 63.1914 388.789 63.6045 389.504 64.4307C390.219 65.2568 390.576 66.499 390.576 68.1572C390.576 69.2529 390.412 70.1729 390.084 70.917C389.756 71.6611 389.293 72.2236 388.695 72.6045C388.104 72.9854 387.403 73.1758 386.595 73.1758C386.085 73.1758 385.637 73.1084 385.25 72.9736C384.863 72.8389 384.532 72.6572 384.257 72.4287C383.981 72.2002 383.753 71.9512 383.571 71.6816H383.466C383.483 71.9102 383.504 72.1855 383.527 72.5078C383.557 72.8301 383.571 73.1113 383.571 73.3516V77.3066H382.104V63.3672H383.308L383.501 64.791H383.571C383.759 64.498 383.987 64.2314 384.257 63.9912C384.526 63.7451 384.854 63.5518 385.241 63.4111C385.634 63.2646 386.097 63.1914 386.63 63.1914ZM386.375 64.4219C385.707 64.4219 385.168 64.5508 384.758 64.8086C384.354 65.0664 384.058 65.4531 383.87 65.9688C383.683 66.4785 383.583 67.1201 383.571 67.8936V68.1748C383.571 68.9893 383.659 69.6777 383.835 70.2402C384.017 70.8027 384.312 71.2305 384.723 71.5234C385.139 71.8164 385.695 71.9629 386.393 71.9629C386.99 71.9629 387.488 71.8018 387.887 71.4795C388.285 71.1572 388.581 70.709 388.774 70.1348C388.974 69.5547 389.073 68.8896 389.073 68.1396C389.073 67.0029 388.851 66.1006 388.405 65.4326C387.966 64.7588 387.289 64.4219 386.375 64.4219ZM393.125 73V63.3672H394.593V67.3398H397.229C398.05 67.3398 398.724 67.4424 399.251 67.6475C399.784 67.8525 400.18 68.1572 400.438 68.5615C400.695 68.9658 400.824 69.4668 400.824 70.0645C400.824 70.6621 400.695 71.1807 400.438 71.6201C400.186 72.0596 399.787 72.3994 399.242 72.6396C398.703 72.8799 398 73 397.133 73H393.125ZM394.593 71.8135H396.992C397.719 71.8135 398.299 71.6846 398.732 71.4268C399.166 71.1689 399.383 70.7383 399.383 70.1348C399.383 69.543 399.181 69.1328 398.776 68.9043C398.372 68.6699 397.792 68.5527 397.036 68.5527H394.593V71.8135ZM402.415 73V63.3672H403.874V73H402.415ZM200.056 88.3672V98H198.588V89.624H193.455V98H191.987V88.3672H200.056ZM207.676 88.1914C208.877 88.1914 209.835 88.6045 210.55 89.4307C211.265 90.2568 211.622 91.499 211.622 93.1572C211.622 94.2529 211.458 95.1729 211.13 95.917C210.802 96.6611 210.339 97.2236 209.741 97.6045C209.149 97.9854 208.449 98.1758 207.641 98.1758C207.131 98.1758 206.683 98.1084 206.296 97.9736C205.909 97.8389 205.578 97.6572 205.303 97.4287C205.027 97.2002 204.799 96.9512 204.617 96.6816H204.512C204.529 96.9102 204.55 97.1855 204.573 97.5078C204.603 97.8301 204.617 98.1113 204.617 98.3516V102.307H203.149V88.3672H204.354L204.547 89.791H204.617C204.805 89.498 205.033 89.2314 205.303 88.9912C205.572 88.7451 205.9 88.5518 206.287 88.4111C206.68 88.2646 207.143 88.1914 207.676 88.1914ZM207.421 89.4219C206.753 89.4219 206.214 89.5508 205.804 89.8086C205.399 90.0664 205.104 90.4531 204.916 90.9688C204.729 91.4785 204.629 92.1201 204.617 92.8936V93.1748C204.617 93.9893 204.705 94.6777 204.881 95.2402C205.062 95.8027 205.358 96.2305 205.769 96.5234C206.185 96.8164 206.741 96.9629 207.438 96.9629C208.036 96.9629 208.534 96.8018 208.933 96.4795C209.331 96.1572 209.627 95.709 209.82 95.1348C210.02 94.5547 210.119 93.8896 210.119 93.1396C210.119 92.0029 209.896 91.1006 209.451 90.4326C209.012 89.7588 208.335 89.4219 207.421 89.4219ZM217.774 88.209C218.923 88.209 219.775 88.4668 220.332 88.9824C220.889 89.498 221.167 90.3213 221.167 91.4521V98H220.104L219.822 96.5762H219.752C219.482 96.9277 219.201 97.2236 218.908 97.4639C218.615 97.6982 218.275 97.877 217.889 98C217.508 98.1172 217.039 98.1758 216.482 98.1758C215.896 98.1758 215.375 98.0732 214.918 97.8682C214.467 97.6631 214.109 97.3525 213.846 96.9365C213.588 96.5205 213.459 95.9932 213.459 95.3545C213.459 94.3936 213.84 93.6553 214.602 93.1396C215.363 92.624 216.523 92.3428 218.082 92.2959L219.743 92.2256V91.6367C219.743 90.8047 219.564 90.2217 219.207 89.8877C218.85 89.5537 218.346 89.3867 217.695 89.3867C217.191 89.3867 216.711 89.46 216.254 89.6064C215.797 89.7529 215.363 89.9258 214.953 90.125L214.505 89.0176C214.938 88.7949 215.437 88.6045 215.999 88.4463C216.562 88.2881 217.153 88.209 217.774 88.209ZM219.726 93.2539L218.258 93.3154C217.057 93.3623 216.21 93.5586 215.718 93.9043C215.226 94.25 214.979 94.7393 214.979 95.3721C214.979 95.9229 215.146 96.3301 215.48 96.5938C215.814 96.8574 216.257 96.9893 216.808 96.9893C217.663 96.9893 218.363 96.752 218.908 96.2773C219.453 95.8027 219.726 95.0908 219.726 94.1416V93.2539ZM231.828 90.7842C231.828 91.3877 231.652 91.8594 231.301 92.1992C230.949 92.5332 230.495 92.7588 229.938 92.876V92.9463C230.542 93.0283 231.061 93.2451 231.494 93.5967C231.934 93.9424 232.153 94.4727 232.153 95.1875C232.153 95.7383 232.021 96.2246 231.758 96.6465C231.494 97.0684 231.081 97.3994 230.519 97.6396C229.956 97.8799 229.224 98 228.321 98H224.173V88.3672H228.286C228.978 88.3672 229.587 88.4463 230.114 88.6045C230.647 88.7568 231.066 89.0088 231.371 89.3604C231.676 89.7119 231.828 90.1865 231.828 90.7842ZM230.633 95.1875C230.633 94.6191 230.416 94.209 229.982 93.957C229.555 93.7051 228.931 93.5791 228.11 93.5791H225.641V96.8135H228.146C228.954 96.8135 229.569 96.6904 229.991 96.4443C230.419 96.1924 230.633 95.7734 230.633 95.1875ZM230.343 90.9512C230.343 90.4941 230.176 90.1543 229.842 89.9316C229.508 89.7031 228.96 89.5889 228.198 89.5889H225.641V92.3574H227.943C228.734 92.3574 229.332 92.2432 229.736 92.0146C230.141 91.7861 230.343 91.4316 230.343 90.9512ZM235.897 88.3672V94.4229C235.897 94.54 235.895 94.6924 235.889 94.8799C235.883 95.0615 235.874 95.2578 235.862 95.4688C235.851 95.6738 235.839 95.873 235.827 96.0664C235.821 96.2539 235.812 96.4092 235.801 96.5322L241.057 88.3672H242.85V98H241.487V92.0938C241.487 91.9062 241.49 91.666 241.496 91.373C241.502 91.0801 241.511 90.793 241.522 90.5117C241.534 90.2246 241.543 90.002 241.549 89.8438L236.311 98H234.509V88.3672H235.897ZM253.177 98H251.691V89.5889H248.765C248.647 91.1064 248.498 92.4072 248.316 93.4912C248.141 94.5693 247.918 95.4512 247.648 96.1367C247.385 96.8164 247.062 97.3174 246.682 97.6396C246.307 97.9561 245.858 98.1143 245.337 98.1143C245.179 98.1143 245.029 98.1055 244.889 98.0879C244.748 98.0703 244.628 98.041 244.528 98V96.8926C244.604 96.916 244.684 96.9336 244.766 96.9453C244.854 96.957 244.944 96.9629 245.038 96.9629C245.302 96.9629 245.542 96.8545 245.759 96.6377C245.981 96.415 246.181 96.0811 246.356 95.6357C246.538 95.1904 246.699 94.6279 246.84 93.9482C246.98 93.2627 247.104 92.457 247.209 91.5312C247.32 90.5996 247.417 89.5449 247.499 88.3672H253.177V98ZM257.721 92.3398H260.674C261.494 92.3398 262.177 92.4424 262.722 92.6475C263.267 92.8525 263.674 93.1572 263.943 93.5615C264.219 93.9658 264.356 94.4668 264.356 95.0645C264.356 95.6621 264.222 96.1807 263.952 96.6201C263.688 97.0596 263.278 97.3994 262.722 97.6396C262.171 97.8799 261.459 98 260.586 98H256.253V88.3672H257.721V92.3398ZM262.889 95.1348C262.889 94.543 262.678 94.1328 262.256 93.9043C261.84 93.6699 261.257 93.5527 260.507 93.5527H257.721V96.8135H260.516C261.219 96.8135 261.79 96.6846 262.229 96.4268C262.669 96.1631 262.889 95.7324 262.889 95.1348ZM268.338 88.3672V92.4102H273.708V88.3672H275.167V98H273.708V93.6494H268.338V98H266.87V88.3672H268.338ZM286.566 93.166C286.566 93.957 286.464 94.6631 286.259 95.2842C286.054 95.9053 285.758 96.4297 285.371 96.8574C284.984 97.2852 284.516 97.6133 283.965 97.8418C283.42 98.0645 282.802 98.1758 282.11 98.1758C281.466 98.1758 280.874 98.0645 280.335 97.8418C279.802 97.6133 279.339 97.2852 278.946 96.8574C278.56 96.4297 278.258 95.9053 278.041 95.2842C277.83 94.6631 277.725 93.957 277.725 93.166C277.725 92.1113 277.903 91.2148 278.261 90.4766C278.618 89.7324 279.128 89.167 279.79 88.7803C280.458 88.3877 281.252 88.1914 282.172 88.1914C283.051 88.1914 283.818 88.3877 284.475 88.7803C285.137 89.1729 285.649 89.7412 286.013 90.4854C286.382 91.2236 286.566 92.1172 286.566 93.166ZM279.236 93.166C279.236 93.9395 279.339 94.6104 279.544 95.1787C279.749 95.7471 280.065 96.1865 280.493 96.4971C280.921 96.8076 281.472 96.9629 282.146 96.9629C282.813 96.9629 283.361 96.8076 283.789 96.4971C284.223 96.1865 284.542 95.7471 284.747 95.1787C284.952 94.6104 285.055 93.9395 285.055 93.166C285.055 92.3984 284.952 91.7363 284.747 91.1797C284.542 90.6172 284.226 90.1836 283.798 89.8789C283.37 89.5742 282.816 89.4219 282.137 89.4219C281.135 89.4219 280.399 89.7529 279.931 90.415C279.468 91.0771 279.236 91.9941 279.236 93.166Z" fill="#16578D"></path> </g> <defs> <filter id="filter0_d_332_478" x="0" y="0" width="468" height="136" filterUnits="userSpaceOnUse" color-interpolation-filters="sRGB"> <feFlood flood-opacity="0" result="BackgroundImageFix"></feFlood> <feColorMatrix in="SourceAlpha" type="matrix" values="0 0 0 0 0 0 0 0 0 0 0 0 0 0 0 0 0 0 127 0" result="hardAlpha"></feColorMatrix> <feOffset dy="4"></feOffset> <feGaussianBlur stdDeviation="2"></feGaussianBlur> <feComposite in2="hardAlpha" operator="out"></feComposite> <feColorMatrix type="matrix" values="0 0 0 0 0.792157 0 0 0 0 0.901961 0 0 0 0 0.984314 0 0 0 0.53 0"></feColorMatrix> <feBlend mode="normal" in2="BackgroundImageFix" result="effect1_dropShadow_332_478"></feBlend> <feBlend mode="normal" in="SourceGraphic" in2="effect1_dropShadow_332_478" result="shape"></feBlend> </filter> </defs> </svg> 