<?xml version="1.0" encoding="UTF-8"?> <svg xmlns="http://www.w3.org/2000/svg" width="668" height="108" viewBox="0 0 668 108" fill="none"> <g filter="url(#filter0_d_163_14620)"> <rect x="4" width="660" height="100" rx="50" fill="#CAE6FB"></rect> <path d="M229.547 48.1875C228.224 48.1875 227.245 47.8125 226.609 47.0625C226.057 46.4167 225.781 45.5885 225.781 44.5781C225.781 44.099 225.839 43.5417 225.953 42.9062C226.078 42.2708 226.26 41.4531 226.5 40.4531C226.74 39.4323 226.917 38.6198 227.031 38.0156C227.156 37.401 227.219 36.8698 227.219 36.4219C227.219 35.3281 226.833 34.7812 226.062 34.7812C225.521 34.7812 225.021 35.0677 224.562 35.6406C224.177 36.1302 223.844 36.8281 223.562 37.7344L221.391 48H216.781L220.172 32H224.781L224.438 33.6562C225.062 32.9583 225.734 32.4688 226.453 32.1875C226.984 31.9792 227.557 31.875 228.172 31.875C229.255 31.875 230.109 32.1562 230.734 32.7188C231.401 33.3333 231.734 34.2552 231.734 35.4844C231.734 36.224 231.599 37.1875 231.328 38.375C231.255 38.7188 231.135 39.2344 230.969 39.9219C230.667 41.0781 230.448 42 230.312 42.6875C230.229 43.125 230.188 43.4792 230.188 43.75C230.188 44.1771 230.281 44.5104 230.469 44.75C230.667 44.9792 231 45.0938 231.469 45.0938C232.104 45.0938 232.641 44.8333 233.078 44.3125C233.411 43.9167 233.771 43.2344 234.156 42.2656H235.5C234.708 44.6094 233.708 46.25 232.5 47.1875C231.646 47.8542 230.661 48.1875 229.547 48.1875ZM238.828 48.125C237.245 48.125 236.021 47.7396 235.156 46.9688C234.188 46.1146 233.703 44.8177 233.703 43.0781C233.703 42.4219 233.771 41.6979 233.906 40.9062C234.042 40.1042 234.25 39.2969 234.531 38.4844C235.177 36.5469 236.099 35 237.297 33.8438C238.745 32.4271 240.469 31.7188 242.469 31.7188C245.208 31.7188 246.578 33.4219 246.578 36.8281V36.8594C246.641 36.8802 246.693 36.8906 246.734 36.8906H246.922C247.63 36.8906 248.469 36.6927 249.438 36.2969C250.292 35.9427 251.099 35.5 251.859 34.9688L252.141 35.8438C251.516 36.5 250.708 37.0573 249.719 37.5156C248.74 37.974 247.656 38.3021 246.469 38.5C246.344 39.9479 246.062 41.2708 245.625 42.4688C245.188 43.6562 244.625 44.6771 243.938 45.5312C243.26 46.3646 242.484 47.0052 241.609 47.4531C240.734 47.901 239.807 48.125 238.828 48.125ZM240.109 45.25C240.484 45.25 240.865 45.0833 241.25 44.75C241.646 44.4062 242.016 43.9323 242.359 43.3281C242.703 42.724 243 42.0156 243.25 41.2031C243.5 40.3906 243.688 39.5208 243.812 38.5938C243.5 38.5104 243.276 38.3542 243.141 38.125C243.016 37.8958 242.953 37.6042 242.953 37.25C242.953 36.8125 243.042 36.4479 243.219 36.1562C243.396 35.8646 243.641 35.651 243.953 35.5156C243.911 34.8385 243.802 34.3542 243.625 34.0625C243.531 33.9167 243.411 33.8125 243.266 33.75C243.13 33.6875 242.953 33.6562 242.734 33.6562C242.016 33.6562 241.312 34.1979 240.625 35.2812C239.99 36.2604 239.469 37.4688 239.062 38.9062C238.667 40.3125 238.469 41.5625 238.469 42.6562C238.469 43.1875 238.495 43.6198 238.547 43.9531C238.609 44.2865 238.708 44.5469 238.844 44.7344C238.969 44.9219 239.13 45.0573 239.328 45.1406C239.526 45.2135 239.786 45.25 240.109 45.25ZM252.797 48.1875C251.224 48.1875 250.01 47.7917 249.156 47C248.25 46.1562 247.797 44.8594 247.797 43.1094C247.797 42.4531 247.865 41.724 248 40.9219C248.125 40.1094 248.323 39.3021 248.594 38.5C249.229 36.5521 250.13 35 251.297 33.8438C252.734 32.4271 254.438 31.7188 256.406 31.7188C257.688 31.7188 258.635 32.026 259.25 32.6406C259.729 33.1302 259.969 33.8021 259.969 34.6562C259.969 35.4062 259.802 35.9896 259.469 36.4062C259.156 36.7917 258.755 36.9844 258.266 36.9844C257.911 36.9844 257.536 36.8594 257.141 36.6094C257.401 35.9323 257.531 35.3021 257.531 34.7188C257.531 34.3125 257.453 33.9948 257.297 33.7656C257.151 33.526 256.932 33.4062 256.641 33.4062C256.016 33.4062 255.365 33.9583 254.688 35.0625C254.073 36.0417 253.562 37.2865 253.156 38.7969C252.74 40.276 252.531 41.6146 252.531 42.8125C252.531 43.8542 252.729 44.5729 253.125 44.9688C253.469 45.3229 254.042 45.5 254.844 45.5C256 45.5 257.057 45.1875 258.016 44.5625C258.422 44.3021 258.812 43.9948 259.188 43.6406C259.562 43.276 260 42.8177 260.5 42.2656H261.594C260.583 43.974 259.422 45.3333 258.109 46.3438C256.495 47.5729 254.724 48.1875 252.797 48.1875ZM279.953 48.1875C278.63 48.1875 277.651 47.8125 277.016 47.0625C276.464 46.4167 276.188 45.5885 276.188 44.5781C276.188 44.099 276.245 43.5417 276.359 42.9062C276.484 42.2708 276.667 41.4531 276.906 40.4531C277.146 39.4323 277.323 38.6198 277.438 38.0156C277.562 37.401 277.625 36.8698 277.625 36.4219C277.625 35.3281 277.24 34.7812 276.469 34.7812C275.927 34.7812 275.427 35.0677 274.969 35.6406C274.583 36.1302 274.25 36.8281 273.969 37.7344L271.797 48H267.188L269.531 36.9531C269.594 36.7031 269.625 36.4375 269.625 36.1562C269.625 35.7292 269.557 35.401 269.422 35.1719C269.245 34.8906 268.99 34.75 268.656 34.75C268.052 34.75 267.526 35.0417 267.078 35.625C266.682 36.125 266.344 36.8281 266.062 37.7344L263.891 48H259.281L262.672 32H267.281L266.938 33.6562C267.562 32.9583 268.245 32.4635 268.984 32.1719C269.568 31.9531 270.188 31.8438 270.844 31.8438C271.74 31.8438 272.453 32.0521 272.984 32.4688C273.578 32.9375 273.958 33.6458 274.125 34.5938C274.812 33.5312 275.604 32.7812 276.5 32.3438C277.135 32.0312 277.828 31.875 278.578 31.875C279.651 31.875 280.5 32.1562 281.125 32.7188C281.792 33.3333 282.125 34.2552 282.125 35.4844C282.125 36.1823 281.995 37.1458 281.734 38.375C281.63 38.8854 281.505 39.401 281.359 39.9219C281.099 40.9219 280.885 41.8438 280.719 42.6875C280.635 43.125 280.594 43.4792 280.594 43.75C280.594 44.1771 280.688 44.5104 280.875 44.75C281.073 44.9792 281.406 45.0938 281.875 45.0938C282.51 45.0938 283.047 44.8333 283.484 44.3125C283.818 43.9167 284.177 43.2344 284.562 42.2656H285.906C285.115 44.6094 284.115 46.25 282.906 47.1875C282.052 47.8542 281.068 48.1875 279.953 48.1875ZM288.406 48.1875C287.188 48.1875 286.203 47.8073 285.453 47.0469C284.578 46.151 284.141 44.8177 284.141 43.0469C284.141 42.2969 284.219 41.5052 284.375 40.6719C284.521 39.8385 284.74 39.0156 285.031 38.2031C285.698 36.3698 286.609 34.8906 287.766 33.7656C289.099 32.4844 290.635 31.8438 292.375 31.8438C293.24 31.8438 293.885 31.9948 294.312 32.2969C294.75 32.5885 294.969 32.9792 294.969 33.4688V33.7031L295.312 32H299.922L297.625 42.875C297.531 43.1875 297.484 43.5312 297.484 43.9062C297.484 44.8229 297.922 45.2812 298.797 45.2812C299.38 45.2812 299.911 44.9844 300.391 44.3906C300.797 43.8906 301.13 43.1823 301.391 42.2656H302.734C302.161 43.8906 301.469 45.1771 300.656 46.125C299.969 46.9062 299.193 47.4688 298.328 47.8125C297.693 48.0625 297.021 48.1875 296.312 48.1875C295.406 48.1875 294.682 47.9427 294.141 47.4531C293.609 46.9531 293.286 46.2188 293.172 45.25C292.568 46.1042 291.932 46.7708 291.266 47.25C290.411 47.875 289.458 48.1875 288.406 48.1875ZM290.484 45.0938C290.724 45.0938 290.974 45.0312 291.234 44.9062C291.505 44.7812 291.766 44.6042 292.016 44.375C292.578 43.8333 292.953 43.1302 293.141 42.2656L294.672 35.0469C294.672 34.9427 294.646 34.8229 294.594 34.6875C294.552 34.5417 294.49 34.4062 294.406 34.2812C294.156 33.9792 293.807 33.8281 293.359 33.8281C292.932 33.8281 292.516 33.9688 292.109 34.25C291.714 34.5312 291.339 34.9219 290.984 35.4219C290.359 36.3281 289.844 37.5104 289.438 38.9688C289.25 39.6146 289.109 40.2552 289.016 40.8906C288.922 41.5156 288.875 42.0833 288.875 42.5938C288.875 43.6562 289.073 44.375 289.469 44.75C289.604 44.8958 289.755 44.9896 289.922 45.0312C290.089 45.0729 290.276 45.0938 290.484 45.0938ZM313.016 48.1875C311.786 48.1875 310.839 47.8438 310.172 47.1562C309.87 46.8542 309.641 46.5 309.484 46.0938C309.328 45.6771 309.25 45.2448 309.25 44.7969C309.25 44.401 309.307 43.8646 309.422 43.1875C309.547 42.5104 309.734 41.5521 309.984 40.3125H306.438L304.797 48H300.188L303.578 32H308.188L306.812 38.4062H310.391L311.844 32H316.125L314.438 39.9375L313.875 42.4062C313.729 43.0521 313.656 43.5 313.656 43.75C313.656 44.6458 314.083 45.0938 314.938 45.0938C315.26 45.0938 315.542 45.0417 315.781 44.9375C316.021 44.8229 316.245 44.6458 316.453 44.4062C316.641 44.1875 316.818 43.9167 316.984 43.5938C317.161 43.2708 317.375 42.8281 317.625 42.2656H318.969C317.625 46.2135 315.641 48.1875 313.016 48.1875ZM322.297 48.125C320.714 48.125 319.49 47.7396 318.625 46.9688C317.656 46.1146 317.172 44.8177 317.172 43.0781C317.172 42.4219 317.24 41.6979 317.375 40.9062C317.51 40.1042 317.719 39.2969 318 38.4844C318.646 36.5469 319.568 35 320.766 33.8438C322.214 32.4271 323.938 31.7188 325.938 31.7188C328.677 31.7188 330.047 33.4219 330.047 36.8281V36.8594C330.109 36.8802 330.161 36.8906 330.203 36.8906H330.391C331.099 36.8906 331.938 36.6927 332.906 36.2969C333.76 35.9427 334.568 35.5 335.328 34.9688L335.609 35.8438C334.984 36.5 334.177 37.0573 333.188 37.5156C332.208 37.974 331.125 38.3021 329.938 38.5C329.812 39.9479 329.531 41.2708 329.094 42.4688C328.656 43.6562 328.094 44.6771 327.406 45.5312C326.729 46.3646 325.953 47.0052 325.078 47.4531C324.203 47.901 323.276 48.125 322.297 48.125ZM323.578 45.25C323.953 45.25 324.333 45.0833 324.719 44.75C325.115 44.4062 325.484 43.9323 325.828 43.3281C326.172 42.724 326.469 42.0156 326.719 41.2031C326.969 40.3906 327.156 39.5208 327.281 38.5938C326.969 38.5104 326.745 38.3542 326.609 38.125C326.484 37.8958 326.422 37.6042 326.422 37.25C326.422 36.8125 326.51 36.4479 326.688 36.1562C326.865 35.8646 327.109 35.651 327.422 35.5156C327.38 34.8385 327.271 34.3542 327.094 34.0625C327 33.9167 326.88 33.8125 326.734 33.75C326.599 33.6875 326.422 33.6562 326.203 33.6562C325.484 33.6562 324.781 34.1979 324.094 35.2812C323.458 36.2604 322.938 37.4688 322.531 38.9062C322.135 40.3125 321.938 41.5625 321.938 42.6562C321.938 43.1875 321.964 43.6198 322.016 43.9531C322.078 44.2865 322.177 44.5469 322.312 44.7344C322.438 44.9219 322.599 45.0573 322.797 45.1406C322.995 45.2135 323.255 45.25 323.578 45.25ZM336.547 48.125C334.797 48.125 333.453 47.5833 332.516 46.5C331.661 45.5104 331.234 44.1354 331.234 42.375C331.234 41.8021 331.302 41.099 331.438 40.2656C331.562 39.4219 331.745 38.5156 331.984 37.5469C332.505 35.4635 333.198 33.4271 334.062 31.4375C335.021 29.25 336.073 27.5 337.219 26.1875C338.51 24.7083 339.823 23.9688 341.156 23.9688C342.271 23.9688 343.125 24.3021 343.719 24.9688C344.354 25.6979 344.672 26.8281 344.672 28.3594C344.672 29.5677 344.375 30.9375 343.781 32.4688C343.333 33.625 342.76 34.8125 342.062 36.0312C342.51 36.25 342.911 36.5677 343.266 36.9844C344.193 36.9844 345.245 36.7656 346.422 36.3281C347.474 35.9531 348.375 35.5 349.125 34.9688L349.422 35.8438C348.828 36.4688 348.062 37.0104 347.125 37.4688C346.188 37.9167 345.146 38.2396 344 38.4375C344.115 38.8333 344.172 39.3646 344.172 40.0312C344.172 41.0938 344 42.1094 343.656 43.0781C343.312 44.0469 342.812 44.9062 342.156 45.6562C341.479 46.4375 340.661 47.0469 339.703 47.4844C338.755 47.9115 337.703 48.125 336.547 48.125ZM337.953 45.25C338.453 45.25 338.911 45.1198 339.328 44.8594C339.745 44.599 340.099 44.2396 340.391 43.7812C340.672 43.3542 340.885 42.8802 341.031 42.3594C341.177 41.8281 341.25 41.2969 341.25 40.7656C341.25 39.974 341.156 39.3906 340.969 39.0156C340.76 39.0885 340.583 39.1406 340.438 39.1719C340.302 39.1927 340.094 39.2031 339.812 39.2031C339.302 39.2031 338.896 39.0625 338.594 38.7812C338.302 38.5 338.156 38.1146 338.156 37.625C338.156 36.9896 338.37 36.5104 338.797 36.1875C339.141 35.9271 339.672 35.7708 340.391 35.7188C340.964 34.6875 341.479 33.474 341.938 32.0781C342.396 30.651 342.625 29.3646 342.625 28.2188C342.625 27.5729 342.542 27.1198 342.375 26.8594C342.219 26.599 341.953 26.4688 341.578 26.4688C341.245 26.4688 340.906 26.6458 340.562 27C340.219 27.3542 339.88 27.849 339.547 28.4844C338.943 29.6615 338.349 31.2292 337.766 33.1875C337.266 34.8438 336.839 36.625 336.484 38.5312C336.161 40.2396 336 41.5521 336 42.4688C336 43.3333 336.151 44 336.453 44.4688C336.776 44.9896 337.276 45.25 337.953 45.25ZM357.609 48.1875C356.339 48.1875 355.375 47.875 354.719 47.25C354.073 46.625 353.75 45.7552 353.75 44.6406C353.75 44.276 353.812 43.7292 353.938 43C353.958 42.8333 353.979 42.7188 354 42.6562C354.021 42.4479 354.042 42.3073 354.062 42.2344C354.104 42.026 354.125 41.8125 354.125 41.5938C354.125 40.5729 353.719 40.0625 352.906 40.0625C352.635 40.0625 352.344 40.1562 352.031 40.3438L351.516 40.7188L350.859 41.25L349.453 48H344.844L348.266 32H352.875L351.5 38.3438C352.188 37.6562 352.854 36.9635 353.5 36.2656L353.734 36C354.974 34.6667 355.818 33.776 356.266 33.3281C357.005 32.5885 357.703 32.1094 358.359 31.8906C358.724 31.776 359.104 31.7188 359.5 31.7188C360.219 31.7188 360.766 31.9167 361.141 32.3125C361.516 32.6979 361.703 33.2031 361.703 33.8281C361.703 34.4844 361.526 34.9948 361.172 35.3594C360.828 35.724 360.333 35.9062 359.688 35.9062C359.094 35.9062 358.641 35.724 358.328 35.3594C358.047 35.0469 357.917 34.6823 357.938 34.2656C357.604 34.4635 357.286 34.6979 356.984 34.9688C356.693 35.2292 356.37 35.5417 356.016 35.9062L355.703 36.25C355.557 36.3958 355.359 36.6146 355.109 36.9062C354.849 37.2083 354.531 37.5469 354.156 37.9219C354.521 37.8385 354.969 37.7969 355.5 37.7969C356.604 37.7969 357.401 38.0521 357.891 38.5625C358.328 39.0104 358.547 39.7448 358.547 40.7656C358.547 41.1094 358.484 41.6146 358.359 42.2812C358.307 42.5417 358.26 42.8177 358.219 43.1094C358.177 43.3906 358.156 43.6562 358.156 43.9062C358.156 44.6979 358.583 45.0938 359.438 45.0938C359.76 45.0938 360.036 45.0417 360.266 44.9375C360.505 44.8229 360.724 44.6458 360.922 44.4062C361.109 44.1875 361.292 43.9115 361.469 43.5781C361.646 43.2448 361.854 42.8073 362.094 42.2656H363.438C362.094 46.2135 360.151 48.1875 357.609 48.1875ZM365.938 48.1875C364.719 48.1875 363.734 47.8073 362.984 47.0469C362.109 46.151 361.672 44.8177 361.672 43.0469C361.672 42.2969 361.75 41.5052 361.906 40.6719C362.052 39.8385 362.271 39.0156 362.562 38.2031C363.229 36.3698 364.141 34.8906 365.297 33.7656C366.63 32.4844 368.167 31.8438 369.906 31.8438C370.771 31.8438 371.417 31.9948 371.844 32.2969C372.281 32.5885 372.5 32.9792 372.5 33.4688V33.7031L372.844 32H377.453L375.156 42.875C375.062 43.1875 375.016 43.5312 375.016 43.9062C375.016 44.8229 375.453 45.2812 376.328 45.2812C376.911 45.2812 377.443 44.9844 377.922 44.3906C378.328 43.8906 378.661 43.1823 378.922 42.2656H380.266C379.693 43.8906 379 45.1771 378.188 46.125C377.5 46.9062 376.724 47.4688 375.859 47.8125C375.224 48.0625 374.552 48.1875 373.844 48.1875C372.938 48.1875 372.214 47.9427 371.672 47.4531C371.141 46.9531 370.818 46.2188 370.703 45.25C370.099 46.1042 369.464 46.7708 368.797 47.25C367.943 47.875 366.99 48.1875 365.938 48.1875ZM368.016 45.0938C368.255 45.0938 368.505 45.0312 368.766 44.9062C369.036 44.7812 369.297 44.6042 369.547 44.375C370.109 43.8333 370.484 43.1302 370.672 42.2656L372.203 35.0469C372.203 34.9427 372.177 34.8229 372.125 34.6875C372.083 34.5417 372.021 34.4062 371.938 34.2812C371.688 33.9792 371.339 33.8281 370.891 33.8281C370.464 33.8281 370.047 33.9688 369.641 34.25C369.245 34.5312 368.87 34.9219 368.516 35.4219C367.891 36.3281 367.375 37.5104 366.969 38.9688C366.781 39.6146 366.641 40.2552 366.547 40.8906C366.453 41.5156 366.406 42.0833 366.406 42.5938C366.406 43.6562 366.604 44.375 367 44.75C367.135 44.8958 367.286 44.9896 367.453 45.0312C367.62 45.0729 367.807 45.0938 368.016 45.0938ZM388.312 30.8125H392.922L392.406 33.2188C393.49 32.3021 394.734 31.8438 396.141 31.8438C397.339 31.8438 398.266 32.2083 398.922 32.9375C399.672 33.7917 400.047 35.1094 400.047 36.8906C400.047 38.6094 399.828 40.224 399.391 41.7344C398.839 43.6615 398.036 45.1562 396.984 46.2188C395.693 47.5312 394.089 48.1875 392.172 48.1875C391.432 48.1875 390.823 48.0729 390.344 47.8438C389.979 47.6771 389.682 47.4115 389.453 47.0469L387.797 54.8438L382.969 56L388.312 30.8125ZM391.188 45.4062C392.219 45.4062 393.104 44.8802 393.844 43.8281C394.427 43.0052 394.896 41.849 395.25 40.3594C395.531 39.1615 395.672 37.974 395.672 36.7969C395.672 35.7448 395.479 34.9948 395.094 34.5469C394.844 34.276 394.5 34.1406 394.062 34.1406C393.677 34.1406 393.286 34.276 392.891 34.5469C392.495 34.8177 392.151 35.2083 391.859 35.7188L389.969 44.6719C390.042 44.8802 390.177 45.0573 390.375 45.2031C390.583 45.3385 390.854 45.4062 391.188 45.4062ZM406.328 56C405.828 56 405.359 55.9323 404.922 55.7969C404.495 55.6719 404.125 55.4792 403.812 55.2188C403.479 54.9583 403.219 54.6302 403.031 54.2344C402.844 53.849 402.75 53.401 402.75 52.8906C402.75 51.6823 403.318 50.6458 404.453 49.7812C405.307 49.1458 406.479 48.5938 407.969 48.125L408.359 46.4062C407.734 47.0938 407.057 47.5781 406.328 47.8594C405.766 48.0781 405.161 48.1875 404.516 48.1875C403.495 48.1875 402.688 47.8854 402.094 47.2812C401.427 46.6146 401.094 45.6406 401.094 44.3594C401.094 43.7552 401.177 43.0573 401.344 42.2656L403.516 32H408.125L405.828 42.875C405.766 43.1354 405.734 43.4062 405.734 43.6875C405.734 44.0938 405.802 44.4167 405.938 44.6562C406.094 44.9479 406.344 45.0938 406.688 45.0938C407.25 45.0938 407.755 44.8438 408.203 44.3438C408.589 43.9167 408.917 43.2917 409.188 42.4688L411.422 32H416.031L412.859 46.8438C413.87 46.5104 414.677 46.0104 415.281 45.3438C415.938 44.625 416.474 43.599 416.891 42.2656H418.234C417.661 44.1615 416.807 45.625 415.672 46.6562C414.839 47.4062 413.807 47.9375 412.578 48.25L412.094 50.5625C411.688 52.6042 410.875 54.0833 409.656 55C408.771 55.6667 407.661 56 406.328 56ZM405.594 53.5C405.917 53.5 406.26 53.2656 406.625 52.7969C406.979 52.3385 407.255 51.625 407.453 50.6562L407.641 49.7344C406.672 50.099 405.948 50.4688 405.469 50.8438C404.833 51.3229 404.516 51.8594 404.516 52.4531C404.516 52.7344 404.604 52.9688 404.781 53.1562C404.979 53.3854 405.25 53.5 405.594 53.5ZM428.453 48.1875C427.182 48.1875 426.219 47.875 425.562 47.25C424.917 46.625 424.594 45.7552 424.594 44.6406C424.594 44.276 424.656 43.7292 424.781 43C424.802 42.8333 424.823 42.7188 424.844 42.6562C424.865 42.4479 424.885 42.3073 424.906 42.2344C424.948 42.026 424.969 41.8125 424.969 41.5938C424.969 40.5729 424.562 40.0625 423.75 40.0625C423.479 40.0625 423.188 40.1562 422.875 40.3438L422.359 40.7188L421.703 41.25L420.297 48H415.688L419.109 32H423.719L422.344 38.3438C423.031 37.6562 423.698 36.9635 424.344 36.2656L424.578 36C425.818 34.6667 426.661 33.776 427.109 33.3281C427.849 32.5885 428.547 32.1094 429.203 31.8906C429.568 31.776 429.948 31.7188 430.344 31.7188C431.062 31.7188 431.609 31.9167 431.984 32.3125C432.359 32.6979 432.547 33.2031 432.547 33.8281C432.547 34.4844 432.37 34.9948 432.016 35.3594C431.672 35.724 431.177 35.9062 430.531 35.9062C429.938 35.9062 429.484 35.724 429.172 35.3594C428.891 35.0469 428.76 34.6823 428.781 34.2656C428.448 34.4635 428.13 34.6979 427.828 34.9688C427.536 35.2292 427.214 35.5417 426.859 35.9062L426.547 36.25C426.401 36.3958 426.203 36.6146 425.953 36.9062C425.693 37.2083 425.375 37.5469 425 37.9219C425.365 37.8385 425.812 37.7969 426.344 37.7969C427.448 37.7969 428.245 38.0521 428.734 38.5625C429.172 39.0104 429.391 39.7448 429.391 40.7656C429.391 41.1094 429.328 41.6146 429.203 42.2812C429.151 42.5417 429.104 42.8177 429.062 43.1094C429.021 43.3906 429 43.6562 429 43.9062C429 44.6979 429.427 45.0938 430.281 45.0938C430.604 45.0938 430.88 45.0417 431.109 44.9375C431.349 44.8229 431.568 44.6458 431.766 44.4062C431.953 44.1875 432.135 43.9115 432.312 43.5781C432.49 43.2448 432.698 42.8073 432.938 42.2656H434.281C432.938 46.2135 430.995 48.1875 428.453 48.1875ZM436.109 48.1875C435.089 48.1875 434.281 47.8854 433.688 47.2812C433.021 46.6146 432.688 45.6406 432.688 44.3594C432.688 43.7552 432.771 43.0573 432.938 42.2656L435.109 32H439.719L437.422 42.875C437.359 43.1979 437.328 43.5 437.328 43.7812C437.328 44.6562 437.646 45.0938 438.281 45.0938C438.865 45.0938 439.391 44.8281 439.859 44.2969C440.234 43.849 440.562 43.1719 440.844 42.2656L443.016 32H447.625L445.328 42.875C445.234 43.1875 445.188 43.5312 445.188 43.9062C445.188 44.3438 445.292 44.651 445.5 44.8281C445.708 45.0052 446.042 45.0938 446.5 45.0938C447.094 45.0938 447.625 44.8281 448.094 44.2969C448.51 43.8281 448.844 43.151 449.094 42.2656H450.438C449.865 43.8906 449.172 45.1771 448.359 46.125C447.672 46.9062 446.896 47.4688 446.031 47.8125C445.396 48.0625 444.724 48.1875 444.016 48.1875C443.099 48.1875 442.37 47.9323 441.828 47.4219C441.286 46.9115 440.958 46.1562 440.844 45.1562C440.115 46.3229 439.292 47.1562 438.375 47.6562C437.719 48.0104 436.964 48.1875 436.109 48.1875Z" fill="#16578D"></path> <path d="M119.196 68.8672V72.9102H124.566V68.8672H126.025V78.5H124.566V74.1494H119.196V78.5H117.729V68.8672H119.196ZM132.723 68.709C133.871 68.709 134.724 68.9668 135.28 69.4824C135.837 69.998 136.115 70.8213 136.115 71.9521V78.5H135.052L134.771 77.0762H134.7C134.431 77.4277 134.149 77.7236 133.856 77.9639C133.563 78.1982 133.224 78.377 132.837 78.5C132.456 78.6172 131.987 78.6758 131.431 78.6758C130.845 78.6758 130.323 78.5732 129.866 78.3682C129.415 78.1631 129.058 77.8525 128.794 77.4365C128.536 77.0205 128.407 76.4932 128.407 75.8545C128.407 74.8936 128.788 74.1553 129.55 73.6396C130.312 73.124 131.472 72.8428 133.03 72.7959L134.691 72.7256V72.1367C134.691 71.3047 134.513 70.7217 134.155 70.3877C133.798 70.0537 133.294 69.8867 132.644 69.8867C132.14 69.8867 131.659 69.96 131.202 70.1064C130.745 70.2529 130.312 70.4258 129.901 70.625L129.453 69.5176C129.887 69.2949 130.385 69.1045 130.947 68.9463C131.51 68.7881 132.102 68.709 132.723 68.709ZM134.674 73.7539L133.206 73.8154C132.005 73.8623 131.158 74.0586 130.666 74.4043C130.174 74.75 129.928 75.2393 129.928 75.8721C129.928 76.4229 130.095 76.8301 130.429 77.0938C130.763 77.3574 131.205 77.4893 131.756 77.4893C132.611 77.4893 133.312 77.252 133.856 76.7773C134.401 76.3027 134.674 75.5908 134.674 74.6416V73.7539ZM137.601 68.8672H139.165L141.292 74.457C141.415 74.7852 141.529 75.1016 141.635 75.4062C141.74 75.7051 141.834 75.9922 141.916 76.2676C141.998 76.543 142.062 76.8096 142.109 77.0674H142.171C142.253 76.7744 142.37 76.3906 142.522 75.916C142.675 75.4355 142.839 74.9463 143.015 74.4482L145.027 68.8672H146.601L142.408 79.915C142.186 80.5068 141.925 81.0225 141.626 81.4619C141.333 81.9014 140.976 82.2383 140.554 82.4727C140.132 82.7129 139.622 82.833 139.024 82.833C138.749 82.833 138.506 82.8154 138.295 82.7803C138.084 82.751 137.902 82.7158 137.75 82.6748V81.5059C137.879 81.5352 138.034 81.5615 138.216 81.585C138.403 81.6084 138.597 81.6201 138.796 81.6201C139.159 81.6201 139.473 81.5498 139.736 81.4092C140.006 81.2744 140.237 81.0752 140.431 80.8115C140.624 80.5479 140.791 80.2344 140.932 79.8711L141.459 78.5176L137.601 68.8672ZM149.413 68.8672V72.3301C149.413 72.9336 149.577 73.3789 149.905 73.666C150.239 73.9531 150.723 74.0967 151.355 74.0967C151.965 74.0967 152.519 74.0029 153.017 73.8154C153.515 73.6279 154.019 73.373 154.528 73.0508V68.8672H155.987V78.5H154.528V74.1846C153.989 74.5303 153.459 74.8027 152.938 75.002C152.416 75.2012 151.792 75.3008 151.065 75.3008C150.075 75.3008 149.308 75.043 148.763 74.5273C148.224 74.0117 147.954 73.3145 147.954 72.4355V68.8672H149.413ZM160.461 68.8672V74.9229C160.461 75.04 160.458 75.1924 160.452 75.3799C160.446 75.5615 160.438 75.7578 160.426 75.9688C160.414 76.1738 160.402 76.373 160.391 76.5664C160.385 76.7539 160.376 76.9092 160.364 77.0322L165.62 68.8672H167.413V78.5H166.051V72.5938C166.051 72.4062 166.054 72.166 166.06 71.873C166.065 71.5801 166.074 71.293 166.086 71.0117C166.098 70.7246 166.106 70.502 166.112 70.3438L160.874 78.5H159.072V68.8672H160.461ZM180.685 68.8672V78.5H179.366V72.2246C179.366 71.9668 179.372 71.7061 179.384 71.4424C179.401 71.1729 179.422 70.9033 179.445 70.6338H179.393L176.193 78.5H174.954L171.834 70.6338H171.781C171.799 70.9033 171.811 71.1729 171.816 71.4424C171.828 71.7061 171.834 71.9844 171.834 72.2773V78.5H170.507V68.8672H172.467L175.578 76.7422L178.733 68.8672H180.685ZM196.461 68.8672V78.5H194.993V70.124H189.86V78.5H188.393V68.8672H196.461ZM200.943 68.8672V74.9229C200.943 75.04 200.94 75.1924 200.935 75.3799C200.929 75.5615 200.92 75.7578 200.908 75.9688C200.896 76.1738 200.885 76.373 200.873 76.5664C200.867 76.7539 200.858 76.9092 200.847 77.0322L206.103 68.8672H207.896V78.5H206.533V72.5938C206.533 72.4062 206.536 72.166 206.542 71.873C206.548 71.5801 206.557 71.293 206.568 71.0117C206.58 70.7246 206.589 70.502 206.595 70.3438L201.356 78.5H199.555V68.8672H200.943ZM214.856 78.6758C213.989 78.6758 213.225 78.4971 212.562 78.1396C211.9 77.7822 211.385 77.2373 211.016 76.5049C210.646 75.7725 210.462 74.8496 210.462 73.7363C210.462 72.5703 210.655 71.6182 211.042 70.8799C211.435 70.1357 211.974 69.585 212.659 69.2275C213.345 68.8701 214.124 68.6914 214.997 68.6914C215.478 68.6914 215.94 68.7412 216.386 68.8408C216.837 68.9346 217.206 69.0547 217.493 69.2012L217.054 70.4229C216.761 70.3057 216.421 70.2002 216.034 70.1064C215.653 70.0127 215.296 69.9658 214.962 69.9658C214.294 69.9658 213.737 70.1094 213.292 70.3965C212.853 70.6836 212.521 71.1055 212.299 71.6621C212.082 72.2188 211.974 72.9043 211.974 73.7188C211.974 74.498 212.079 75.1631 212.29 75.7139C212.507 76.2646 212.826 76.6865 213.248 76.9795C213.676 77.2666 214.209 77.4102 214.848 77.4102C215.357 77.4102 215.817 77.3574 216.228 77.252C216.638 77.1406 217.01 77.0117 217.344 76.8652V78.166C217.021 78.3301 216.661 78.4561 216.263 78.5439C215.87 78.6318 215.401 78.6758 214.856 78.6758ZM223.232 68.709C224.381 68.709 225.233 68.9668 225.79 69.4824C226.347 69.998 226.625 70.8213 226.625 71.9521V78.5H225.562L225.28 77.0762H225.21C224.94 77.4277 224.659 77.7236 224.366 77.9639C224.073 78.1982 223.733 78.377 223.347 78.5C222.966 78.6172 222.497 78.6758 221.94 78.6758C221.354 78.6758 220.833 78.5732 220.376 78.3682C219.925 78.1631 219.567 77.8525 219.304 77.4365C219.046 77.0205 218.917 76.4932 218.917 75.8545C218.917 74.8936 219.298 74.1553 220.06 73.6396C220.821 73.124 221.981 72.8428 223.54 72.7959L225.201 72.7256V72.1367C225.201 71.3047 225.022 70.7217 224.665 70.3877C224.308 70.0537 223.804 69.8867 223.153 69.8867C222.649 69.8867 222.169 69.96 221.712 70.1064C221.255 70.2529 220.821 70.4258 220.411 70.625L219.963 69.5176C220.396 69.2949 220.895 69.1045 221.457 68.9463C222.02 68.7881 222.611 68.709 223.232 68.709ZM225.184 73.7539L223.716 73.8154C222.515 73.8623 221.668 74.0586 221.176 74.4043C220.684 74.75 220.438 75.2393 220.438 75.8721C220.438 76.4229 220.604 76.8301 220.938 77.0938C221.272 77.3574 221.715 77.4893 222.266 77.4893C223.121 77.4893 223.821 77.252 224.366 76.7773C224.911 76.3027 225.184 75.5908 225.184 74.6416V73.7539ZM236.196 70.1064H233.023V78.5H231.582V70.1064H228.453V68.8672H236.196V70.1064ZM239.571 72.8398H242.524C243.345 72.8398 244.027 72.9424 244.572 73.1475C245.117 73.3525 245.524 73.6572 245.794 74.0615C246.069 74.4658 246.207 74.9668 246.207 75.5645C246.207 76.1621 246.072 76.6807 245.803 77.1201C245.539 77.5596 245.129 77.8994 244.572 78.1396C244.021 78.3799 243.31 78.5 242.437 78.5H238.104V68.8672H239.571V72.8398ZM244.739 75.6348C244.739 75.043 244.528 74.6328 244.106 74.4043C243.69 74.1699 243.107 74.0527 242.357 74.0527H239.571V77.3135H242.366C243.069 77.3135 243.641 77.1846 244.08 76.9268C244.52 76.6631 244.739 76.2324 244.739 75.6348ZM251.876 68.8672H253.44L255.567 74.457C255.69 74.7852 255.805 75.1016 255.91 75.4062C256.016 75.7051 256.109 75.9922 256.191 76.2676C256.273 76.543 256.338 76.8096 256.385 77.0674H256.446C256.528 76.7744 256.646 76.3906 256.798 75.916C256.95 75.4355 257.114 74.9463 257.29 74.4482L259.303 68.8672H260.876L256.684 79.915C256.461 80.5068 256.2 81.0225 255.901 81.4619C255.608 81.9014 255.251 82.2383 254.829 82.4727C254.407 82.7129 253.897 82.833 253.3 82.833C253.024 82.833 252.781 82.8154 252.57 82.7803C252.359 82.751 252.178 82.7158 252.025 82.6748V81.5059C252.154 81.5352 252.31 81.5615 252.491 81.585C252.679 81.6084 252.872 81.6201 253.071 81.6201C253.435 81.6201 253.748 81.5498 254.012 81.4092C254.281 81.2744 254.513 81.0752 254.706 80.8115C254.899 80.5479 255.066 80.2344 255.207 79.8711L255.734 78.5176L251.876 68.8672ZM264.893 68.6914C265.613 68.6914 266.237 68.791 266.765 68.9902C267.292 69.1836 267.699 69.4678 267.986 69.8428C268.273 70.2178 268.417 70.6748 268.417 71.2139C268.417 71.7939 268.259 72.2568 267.942 72.6025C267.626 72.9482 267.189 73.1973 266.633 73.3496V73.4199C267.025 73.5254 267.38 73.6777 267.696 73.877C268.019 74.0703 268.273 74.3281 268.461 74.6504C268.654 74.9668 268.751 75.3623 268.751 75.8369C268.751 76.376 268.604 76.8623 268.312 77.2959C268.019 77.7236 267.573 78.0605 266.976 78.3066C266.378 78.5527 265.622 78.6758 264.708 78.6758C264.257 78.6758 263.829 78.6494 263.425 78.5967C263.021 78.5498 262.654 78.4795 262.326 78.3857C261.998 78.292 261.711 78.1807 261.465 78.0518V76.7246C261.875 76.9238 262.355 77.0996 262.906 77.252C263.457 77.4043 264.052 77.4805 264.69 77.4805C265.183 77.4805 265.625 77.4248 266.018 77.3135C266.41 77.1963 266.721 77.0117 266.949 76.7598C267.184 76.502 267.301 76.165 267.301 75.749C267.301 75.3682 267.198 75.0547 266.993 74.8086C266.788 74.5566 266.48 74.3721 266.07 74.2549C265.666 74.1318 265.153 74.0703 264.532 74.0703H263.24V72.875H264.304C265.13 72.875 265.789 72.7578 266.281 72.5234C266.773 72.2891 267.02 71.8936 267.02 71.3369C267.02 70.8564 266.829 70.499 266.448 70.2646C266.067 70.0244 265.522 69.9043 264.813 69.9043C264.286 69.9043 263.82 69.96 263.416 70.0713C263.012 70.1768 262.575 70.3291 262.106 70.5283L261.588 69.3594C262.092 69.1367 262.619 68.9697 263.17 68.8584C263.721 68.7471 264.295 68.6914 264.893 68.6914ZM279.421 73.666C279.421 74.457 279.318 75.1631 279.113 75.7842C278.908 76.4053 278.612 76.9297 278.226 77.3574C277.839 77.7852 277.37 78.1133 276.819 78.3418C276.274 78.5645 275.656 78.6758 274.965 78.6758C274.32 78.6758 273.729 78.5645 273.189 78.3418C272.656 78.1133 272.193 77.7852 271.801 77.3574C271.414 76.9297 271.112 76.4053 270.896 75.7842C270.685 75.1631 270.579 74.457 270.579 73.666C270.579 72.6113 270.758 71.7148 271.115 70.9766C271.473 70.2324 271.982 69.667 272.645 69.2803C273.312 68.8877 274.106 68.6914 275.026 68.6914C275.905 68.6914 276.673 68.8877 277.329 69.2803C277.991 69.6729 278.504 70.2412 278.867 70.9854C279.236 71.7236 279.421 72.6172 279.421 73.666ZM272.091 73.666C272.091 74.4395 272.193 75.1104 272.398 75.6787C272.604 76.2471 272.92 76.6865 273.348 76.9971C273.775 77.3076 274.326 77.4629 275 77.4629C275.668 77.4629 276.216 77.3076 276.644 76.9971C277.077 76.6865 277.396 76.2471 277.602 75.6787C277.807 75.1104 277.909 74.4395 277.909 73.666C277.909 72.8984 277.807 72.2363 277.602 71.6797C277.396 71.1172 277.08 70.6836 276.652 70.3789C276.225 70.0742 275.671 69.9219 274.991 69.9219C273.989 69.9219 273.254 70.2529 272.785 70.915C272.322 71.5771 272.091 72.4941 272.091 73.666ZM286.47 68.6914C287.671 68.6914 288.629 69.1045 289.344 69.9307C290.059 70.7568 290.416 71.999 290.416 73.6572C290.416 74.7529 290.252 75.6729 289.924 76.417C289.596 77.1611 289.133 77.7236 288.535 78.1045C287.943 78.4854 287.243 78.6758 286.435 78.6758C285.925 78.6758 285.477 78.6084 285.09 78.4736C284.703 78.3389 284.372 78.1572 284.097 77.9287C283.821 77.7002 283.593 77.4512 283.411 77.1816H283.306C283.323 77.4102 283.344 77.6855 283.367 78.0078C283.396 78.3301 283.411 78.6113 283.411 78.8516V82.8066H281.943V68.8672H283.147L283.341 70.291H283.411C283.599 69.998 283.827 69.7314 284.097 69.4912C284.366 69.2451 284.694 69.0518 285.081 68.9111C285.474 68.7646 285.937 68.6914 286.47 68.6914ZM286.215 69.9219C285.547 69.9219 285.008 70.0508 284.598 70.3086C284.193 70.5664 283.897 70.9531 283.71 71.4688C283.522 71.9785 283.423 72.6201 283.411 73.3936V73.6748C283.411 74.4893 283.499 75.1777 283.675 75.7402C283.856 76.3027 284.152 76.7305 284.562 77.0234C284.979 77.3164 285.535 77.4629 286.232 77.4629C286.83 77.4629 287.328 77.3018 287.727 76.9795C288.125 76.6572 288.421 76.209 288.614 75.6348C288.813 75.0547 288.913 74.3896 288.913 73.6396C288.913 72.5029 288.69 71.6006 288.245 70.9326C287.806 70.2588 287.129 69.9219 286.215 69.9219ZM292.965 78.5V68.8672H294.433V72.8398H297.069C297.89 72.8398 298.563 72.9424 299.091 73.1475C299.624 73.3525 300.02 73.6572 300.277 74.0615C300.535 74.4658 300.664 74.9668 300.664 75.5645C300.664 76.1621 300.535 76.6807 300.277 77.1201C300.025 77.5596 299.627 77.8994 299.082 78.1396C298.543 78.3799 297.84 78.5 296.973 78.5H292.965ZM294.433 77.3135H296.832C297.559 77.3135 298.139 77.1846 298.572 76.9268C299.006 76.6689 299.223 76.2383 299.223 75.6348C299.223 75.043 299.021 74.6328 298.616 74.4043C298.212 74.1699 297.632 74.0527 296.876 74.0527H294.433V77.3135ZM302.255 78.5V68.8672H303.714V78.5H302.255ZM308.469 76.4082L308.583 76.6104C308.478 77.0381 308.343 77.4951 308.179 77.9814C308.021 78.4678 307.845 78.9541 307.651 79.4404C307.464 79.9326 307.273 80.3926 307.08 80.8203H305.99C306.113 80.3516 306.233 79.8564 306.351 79.335C306.468 78.8193 306.573 78.3096 306.667 77.8057C306.767 77.2959 306.846 76.8301 306.904 76.4082H308.469ZM315.632 72.7168C315.632 71.3457 315.764 70.1768 316.027 69.21C316.291 68.2373 316.698 67.458 317.249 66.8721C317.806 66.2803 318.521 65.876 319.394 65.6592C320.144 65.4541 320.905 65.2783 321.679 65.1318C322.452 64.9795 323.205 64.8477 323.938 64.7363L324.192 66.0195C323.823 66.0723 323.437 66.1338 323.032 66.2041C322.628 66.2686 322.224 66.3389 321.819 66.415C321.415 66.4854 321.034 66.5615 320.677 66.6436C320.319 66.7197 320.003 66.7988 319.728 66.8809C319.229 67.0156 318.799 67.25 318.436 67.584C318.078 67.918 317.794 68.3779 317.583 68.9639C317.378 69.5498 317.255 70.2881 317.214 71.1787H317.319C317.495 70.9209 317.735 70.666 318.04 70.4141C318.345 70.1621 318.708 69.9541 319.13 69.79C319.552 69.6201 320.026 69.5352 320.554 69.5352C321.386 69.5352 322.08 69.7168 322.637 70.0801C323.193 70.4375 323.612 70.9414 323.894 71.5918C324.175 72.2422 324.315 73.0039 324.315 73.877C324.315 74.9258 324.134 75.8076 323.771 76.5225C323.413 77.2373 322.909 77.7764 322.259 78.1396C321.608 78.4971 320.844 78.6758 319.965 78.6758C319.285 78.6758 318.676 78.5439 318.137 78.2803C317.604 78.0166 317.149 77.6299 316.774 77.1201C316.405 76.6104 316.121 75.9863 315.922 75.248C315.729 74.5098 315.632 73.666 315.632 72.7168ZM320.079 77.4629C320.636 77.4629 321.113 77.3457 321.512 77.1113C321.916 76.877 322.227 76.5078 322.443 76.0039C322.666 75.4941 322.777 74.832 322.777 74.0176C322.777 72.998 322.581 72.2012 322.188 71.627C321.802 71.0469 321.181 70.7568 320.325 70.7568C319.792 70.7568 319.309 70.8711 318.875 71.0996C318.441 71.3223 318.075 71.5889 317.776 71.8994C317.478 72.21 317.261 72.4883 317.126 72.7344C317.126 73.332 317.17 73.9121 317.258 74.4746C317.346 75.0371 317.498 75.5439 317.715 75.9951C317.932 76.4463 318.23 76.8037 318.611 77.0674C318.998 77.3311 319.487 77.4629 320.079 77.4629ZM325.317 68.8672H326.882L329.009 74.457C329.132 74.7852 329.246 75.1016 329.352 75.4062C329.457 75.7051 329.551 75.9922 329.633 76.2676C329.715 76.543 329.779 76.8096 329.826 77.0674H329.888C329.97 76.7744 330.087 76.3906 330.239 75.916C330.392 75.4355 330.556 74.9463 330.731 74.4482L332.744 68.8672H334.317L330.125 79.915C329.902 80.5068 329.642 81.0225 329.343 81.4619C329.05 81.9014 328.692 82.2383 328.271 82.4727C327.849 82.7129 327.339 82.833 326.741 82.833C326.466 82.833 326.223 82.8154 326.012 82.7803C325.801 82.751 325.619 82.7158 325.467 82.6748V81.5059C325.596 81.5352 325.751 81.5615 325.933 81.585C326.12 81.6084 326.313 81.6201 326.513 81.6201C326.876 81.6201 327.189 81.5498 327.453 81.4092C327.723 81.2744 327.954 81.0752 328.147 80.8115C328.341 80.5479 328.508 80.2344 328.648 79.8711L329.176 78.5176L325.317 68.8672ZM341.472 68.8672H343.08L338.923 73.5166L343.414 78.5H341.7L337.323 73.6133V78.5H335.855V68.8672H337.323V73.543L341.472 68.8672ZM352.81 71.2842C352.81 71.8877 352.634 72.3594 352.282 72.6992C351.931 73.0332 351.477 73.2588 350.92 73.376V73.4463C351.523 73.5283 352.042 73.7451 352.476 74.0967C352.915 74.4424 353.135 74.9727 353.135 75.6875C353.135 76.2383 353.003 76.7246 352.739 77.1465C352.476 77.5684 352.062 77.8994 351.5 78.1396C350.938 78.3799 350.205 78.5 349.303 78.5H345.154V68.8672H349.268C349.959 68.8672 350.568 68.9463 351.096 69.1045C351.629 69.2568 352.048 69.5088 352.353 69.8604C352.657 70.2119 352.81 70.6865 352.81 71.2842ZM351.614 75.6875C351.614 75.1191 351.397 74.709 350.964 74.457C350.536 74.2051 349.912 74.0791 349.092 74.0791H346.622V77.3135H349.127C349.936 77.3135 350.551 77.1904 350.973 76.9443C351.4 76.6924 351.614 76.2734 351.614 75.6875ZM351.324 71.4512C351.324 70.9941 351.157 70.6543 350.823 70.4316C350.489 70.2031 349.941 70.0889 349.18 70.0889H346.622V72.8574H348.925C349.716 72.8574 350.313 72.7432 350.718 72.5146C351.122 72.2861 351.324 71.9316 351.324 71.4512ZM355.49 78.5V68.8672H356.958V72.8398H359.595C360.415 72.8398 361.089 72.9424 361.616 73.1475C362.149 73.3525 362.545 73.6572 362.803 74.0615C363.061 74.4658 363.189 74.9668 363.189 75.5645C363.189 76.1621 363.061 76.6807 362.803 77.1201C362.551 77.5596 362.152 77.8994 361.607 78.1396C361.068 78.3799 360.365 78.5 359.498 78.5H355.49ZM356.958 77.3135H359.357C360.084 77.3135 360.664 77.1846 361.098 76.9268C361.531 76.6689 361.748 76.2383 361.748 75.6348C361.748 75.043 361.546 74.6328 361.142 74.4043C360.737 74.1699 360.157 74.0527 359.401 74.0527H356.958V77.3135ZM364.78 78.5V68.8672H366.239V78.5H364.78ZM375.389 68.8672V74.9229C375.389 75.04 375.386 75.1924 375.38 75.3799C375.374 75.5615 375.365 75.7578 375.354 75.9688C375.342 76.1738 375.33 76.373 375.318 76.5664C375.312 76.7539 375.304 76.9092 375.292 77.0322L380.548 68.8672H382.341V78.5H380.979V72.5938C380.979 72.4062 380.981 72.166 380.987 71.873C380.993 71.5801 381.002 71.293 381.014 71.0117C381.025 70.7246 381.034 70.502 381.04 70.3438L375.802 78.5H374V68.8672H375.389ZM399.497 81.8311H398.073V78.5H390.119V68.8672H391.587V77.2607H396.693V68.8672H398.152V77.2783H399.497V81.8311ZM402.775 68.8672V74.9229C402.775 75.04 402.772 75.1924 402.767 75.3799C402.761 75.5615 402.752 75.7578 402.74 75.9688C402.729 76.1738 402.717 76.373 402.705 76.5664C402.699 76.7539 402.69 76.9092 402.679 77.0322L407.935 68.8672H409.728V78.5H408.365V72.5938C408.365 72.4062 408.368 72.166 408.374 71.873C408.38 71.5801 408.389 71.293 408.4 71.0117C408.412 70.7246 408.421 70.502 408.427 70.3438L403.188 78.5H401.387V68.8672H402.775ZM418.429 64.8242V68.7266C419.384 68.8086 420.216 69.0576 420.925 69.4736C421.634 69.8838 422.185 70.4434 422.577 71.1523C422.97 71.8613 423.166 72.7051 423.166 73.6836C423.166 74.6445 422.976 75.4824 422.595 76.1973C422.22 76.9121 421.678 77.4775 420.969 77.8936C420.266 78.3096 419.419 78.5586 418.429 78.6406V82.8242H417.005V78.6406C416.05 78.5703 415.218 78.3301 414.509 77.9199C413.806 77.5039 413.258 76.9385 412.865 76.2236C412.473 75.5088 412.276 74.6621 412.276 73.6836C412.276 72.7051 412.464 71.8613 412.839 71.1523C413.22 70.4375 413.765 69.875 414.474 69.4648C415.183 69.0488 416.041 68.8027 417.049 68.7266V64.8242H418.429ZM417.049 69.9395C416.305 70.0039 415.692 70.1914 415.212 70.502C414.731 70.8125 414.374 71.2344 414.14 71.7676C413.911 72.3008 413.797 72.9395 413.797 73.6836C413.797 74.4277 413.914 75.0693 414.148 75.6084C414.383 76.1416 414.74 76.5635 415.221 76.874C415.701 77.1846 416.311 77.375 417.049 77.4453V69.9395ZM418.429 69.957V77.4453C419.167 77.3691 419.773 77.1729 420.248 76.8564C420.729 76.54 421.083 76.1152 421.312 75.582C421.546 75.0488 421.663 74.416 421.663 73.6836C421.663 72.5703 421.396 71.7002 420.863 71.0732C420.33 70.4404 419.519 70.0684 418.429 69.957ZM430.241 68.6914C431.442 68.6914 432.4 69.1045 433.115 69.9307C433.83 70.7568 434.188 71.999 434.188 73.6572C434.188 74.7529 434.023 75.6729 433.695 76.417C433.367 77.1611 432.904 77.7236 432.307 78.1045C431.715 78.4854 431.015 78.6758 430.206 78.6758C429.696 78.6758 429.248 78.6084 428.861 78.4736C428.475 78.3389 428.144 78.1572 427.868 77.9287C427.593 77.7002 427.364 77.4512 427.183 77.1816H427.077C427.095 77.4102 427.115 77.6855 427.139 78.0078C427.168 78.3301 427.183 78.6113 427.183 78.8516V82.8066H425.715V68.8672H426.919L427.112 70.291H427.183C427.37 69.998 427.599 69.7314 427.868 69.4912C428.138 69.2451 428.466 69.0518 428.853 68.9111C429.245 68.7646 429.708 68.6914 430.241 68.6914ZM429.986 69.9219C429.318 69.9219 428.779 70.0508 428.369 70.3086C427.965 70.5664 427.669 70.9531 427.481 71.4688C427.294 71.9785 427.194 72.6201 427.183 73.3936V73.6748C427.183 74.4893 427.271 75.1777 427.446 75.7402C427.628 76.3027 427.924 76.7305 428.334 77.0234C428.75 77.3164 429.307 77.4629 430.004 77.4629C430.602 77.4629 431.1 77.3018 431.498 76.9795C431.896 76.6572 432.192 76.209 432.386 75.6348C432.585 75.0547 432.685 74.3896 432.685 73.6396C432.685 72.5029 432.462 71.6006 432.017 70.9326C431.577 70.2588 430.9 69.9219 429.986 69.9219ZM436.736 78.5V68.8672H438.204V72.8398H440.841C441.661 72.8398 442.335 72.9424 442.862 73.1475C443.396 73.3525 443.791 73.6572 444.049 74.0615C444.307 74.4658 444.436 74.9668 444.436 75.5645C444.436 76.1621 444.307 76.6807 444.049 77.1201C443.797 77.5596 443.398 77.8994 442.854 78.1396C442.314 78.3799 441.611 78.5 440.744 78.5H436.736ZM438.204 77.3135H440.604C441.33 77.3135 441.91 77.1846 442.344 76.9268C442.777 76.6689 442.994 76.2383 442.994 75.6348C442.994 75.043 442.792 74.6328 442.388 74.4043C441.983 74.1699 441.403 74.0527 440.647 74.0527H438.204V77.3135ZM446.026 78.5V68.8672H447.485V78.5H446.026ZM463.314 68.8672V78.5H461.847V70.124H456.714V78.5H455.246V68.8672H463.314ZM470.935 68.6914C472.136 68.6914 473.094 69.1045 473.809 69.9307C474.523 70.7568 474.881 71.999 474.881 73.6572C474.881 74.7529 474.717 75.6729 474.389 76.417C474.061 77.1611 473.598 77.7236 473 78.1045C472.408 78.4854 471.708 78.6758 470.899 78.6758C470.39 78.6758 469.941 78.6084 469.555 78.4736C469.168 78.3389 468.837 78.1572 468.562 77.9287C468.286 77.7002 468.058 77.4512 467.876 77.1816H467.771C467.788 77.4102 467.809 77.6855 467.832 78.0078C467.861 78.3301 467.876 78.6113 467.876 78.8516V82.8066H466.408V68.8672H467.612L467.806 70.291H467.876C468.063 69.998 468.292 69.7314 468.562 69.4912C468.831 69.2451 469.159 69.0518 469.546 68.9111C469.938 68.7646 470.401 68.6914 470.935 68.6914ZM470.68 69.9219C470.012 69.9219 469.473 70.0508 469.062 70.3086C468.658 70.5664 468.362 70.9531 468.175 71.4688C467.987 71.9785 467.888 72.6201 467.876 73.3936V73.6748C467.876 74.4893 467.964 75.1777 468.14 75.7402C468.321 76.3027 468.617 76.7305 469.027 77.0234C469.443 77.3164 470 77.4629 470.697 77.4629C471.295 77.4629 471.793 77.3018 472.191 76.9795C472.59 76.6572 472.886 76.209 473.079 75.6348C473.278 75.0547 473.378 74.3896 473.378 73.6396C473.378 72.5029 473.155 71.6006 472.71 70.9326C472.271 70.2588 471.594 69.9219 470.68 69.9219ZM481.033 68.709C482.182 68.709 483.034 68.9668 483.591 69.4824C484.147 69.998 484.426 70.8213 484.426 71.9521V78.5H483.362L483.081 77.0762H483.011C482.741 77.4277 482.46 77.7236 482.167 77.9639C481.874 78.1982 481.534 78.377 481.147 78.5C480.767 78.6172 480.298 78.6758 479.741 78.6758C479.155 78.6758 478.634 78.5732 478.177 78.3682C477.726 78.1631 477.368 77.8525 477.104 77.4365C476.847 77.0205 476.718 76.4932 476.718 75.8545C476.718 74.8936 477.099 74.1553 477.86 73.6396C478.622 73.124 479.782 72.8428 481.341 72.7959L483.002 72.7256V72.1367C483.002 71.3047 482.823 70.7217 482.466 70.3877C482.108 70.0537 481.604 69.8867 480.954 69.8867C480.45 69.8867 479.97 69.96 479.513 70.1064C479.056 70.2529 478.622 70.4258 478.212 70.625L477.764 69.5176C478.197 69.2949 478.695 69.1045 479.258 68.9463C479.82 68.7881 480.412 68.709 481.033 68.709ZM482.984 73.7539L481.517 73.8154C480.315 73.8623 479.469 74.0586 478.977 74.4043C478.484 74.75 478.238 75.2393 478.238 75.8721C478.238 76.4229 478.405 76.8301 478.739 77.0938C479.073 77.3574 479.516 77.4893 480.066 77.4893C480.922 77.4893 481.622 77.252 482.167 76.7773C482.712 76.3027 482.984 75.5908 482.984 74.6416V73.7539ZM495.087 71.2842C495.087 71.8877 494.911 72.3594 494.56 72.6992C494.208 73.0332 493.754 73.2588 493.197 73.376V73.4463C493.801 73.5283 494.319 73.7451 494.753 74.0967C495.192 74.4424 495.412 74.9727 495.412 75.6875C495.412 76.2383 495.28 76.7246 495.017 77.1465C494.753 77.5684 494.34 77.8994 493.777 78.1396C493.215 78.3799 492.482 78.5 491.58 78.5H487.432V68.8672H491.545C492.236 68.8672 492.846 68.9463 493.373 69.1045C493.906 69.2568 494.325 69.5088 494.63 69.8604C494.935 70.2119 495.087 70.6865 495.087 71.2842ZM493.892 75.6875C493.892 75.1191 493.675 74.709 493.241 74.457C492.813 74.2051 492.189 74.0791 491.369 74.0791H488.899V77.3135H491.404C492.213 77.3135 492.828 77.1904 493.25 76.9443C493.678 76.6924 493.892 76.2734 493.892 75.6875ZM493.602 71.4512C493.602 70.9941 493.435 70.6543 493.101 70.4316C492.767 70.2031 492.219 70.0889 491.457 70.0889H488.899V72.8574H491.202C491.993 72.8574 492.591 72.7432 492.995 72.5146C493.399 72.2861 493.602 71.9316 493.602 71.4512ZM499.156 68.8672V74.9229C499.156 75.04 499.153 75.1924 499.147 75.3799C499.142 75.5615 499.133 75.7578 499.121 75.9688C499.109 76.1738 499.098 76.373 499.086 76.5664C499.08 76.7539 499.071 76.9092 499.06 77.0322L504.315 68.8672H506.108V78.5H504.746V72.5938C504.746 72.4062 504.749 72.166 504.755 71.873C504.761 71.5801 504.77 71.293 504.781 71.0117C504.793 70.7246 504.802 70.502 504.808 70.3438L499.569 78.5H497.768V68.8672H499.156ZM516.436 78.5H514.95V70.0889H512.023C511.906 71.6064 511.757 72.9072 511.575 73.9912C511.399 75.0693 511.177 75.9512 510.907 76.6367C510.644 77.3164 510.321 77.8174 509.94 78.1396C509.565 78.4561 509.117 78.6143 508.596 78.6143C508.438 78.6143 508.288 78.6055 508.147 78.5879C508.007 78.5703 507.887 78.541 507.787 78.5V77.3926C507.863 77.416 507.942 77.4336 508.024 77.4453C508.112 77.457 508.203 77.4629 508.297 77.4629C508.561 77.4629 508.801 77.3545 509.018 77.1377C509.24 76.915 509.439 76.5811 509.615 76.1357C509.797 75.6904 509.958 75.1279 510.099 74.4482C510.239 73.7627 510.362 72.957 510.468 72.0312C510.579 71.0996 510.676 70.0449 510.758 68.8672H516.436V78.5ZM520.979 72.8398H523.933C524.753 72.8398 525.436 72.9424 525.98 73.1475C526.525 73.3525 526.933 73.6572 527.202 74.0615C527.478 74.4658 527.615 74.9668 527.615 75.5645C527.615 76.1621 527.48 76.6807 527.211 77.1201C526.947 77.5596 526.537 77.8994 525.98 78.1396C525.43 78.3799 524.718 78.5 523.845 78.5H519.512V68.8672H520.979V72.8398ZM526.147 75.6348C526.147 75.043 525.937 74.6328 525.515 74.4043C525.099 74.1699 524.516 74.0527 523.766 74.0527H520.979V77.3135H523.774C524.478 77.3135 525.049 77.1846 525.488 76.9268C525.928 76.6631 526.147 76.2324 526.147 75.6348ZM531.597 68.8672V72.9102H536.967V68.8672H538.426V78.5H536.967V74.1494H531.597V78.5H530.129V68.8672H531.597ZM549.825 73.666C549.825 74.457 549.723 75.1631 549.518 75.7842C549.312 76.4053 549.017 76.9297 548.63 77.3574C548.243 77.7852 547.774 78.1133 547.224 78.3418C546.679 78.5645 546.061 78.6758 545.369 78.6758C544.725 78.6758 544.133 78.5645 543.594 78.3418C543.061 78.1133 542.598 77.7852 542.205 77.3574C541.818 76.9297 541.517 76.4053 541.3 75.7842C541.089 75.1631 540.983 74.457 540.983 73.666C540.983 72.6113 541.162 71.7148 541.52 70.9766C541.877 70.2324 542.387 69.667 543.049 69.2803C543.717 68.8877 544.511 68.6914 545.431 68.6914C546.31 68.6914 547.077 68.8877 547.733 69.2803C548.396 69.6729 548.908 70.2412 549.271 70.9854C549.641 71.7236 549.825 72.6172 549.825 73.666ZM542.495 73.666C542.495 74.4395 542.598 75.1104 542.803 75.6787C543.008 76.2471 543.324 76.6865 543.752 76.9971C544.18 77.3076 544.73 77.4629 545.404 77.4629C546.072 77.4629 546.62 77.3076 547.048 76.9971C547.481 76.6865 547.801 76.2471 548.006 75.6787C548.211 75.1104 548.313 74.4395 548.313 73.666C548.313 72.8984 548.211 72.2363 548.006 71.6797C547.801 71.1172 547.484 70.6836 547.057 70.3789C546.629 70.0742 546.075 69.9219 545.396 69.9219C544.394 69.9219 543.658 70.2529 543.189 70.915C542.727 71.5771 542.495 72.4941 542.495 73.666Z" fill="#16578D"></path> </g> <defs> <filter id="filter0_d_163_14620" x="0" y="0" width="668" height="108" filterUnits="userSpaceOnUse" color-interpolation-filters="sRGB"> <feFlood flood-opacity="0" result="BackgroundImageFix"></feFlood> <feColorMatrix in="SourceAlpha" type="matrix" values="0 0 0 0 0 0 0 0 0 0 0 0 0 0 0 0 0 0 127 0" result="hardAlpha"></feColorMatrix> <feOffset dy="4"></feOffset> <feGaussianBlur stdDeviation="2"></feGaussianBlur> <feComposite in2="hardAlpha" operator="out"></feComposite> <feColorMatrix type="matrix" values="0 0 0 0 0.792157 0 0 0 0 0.901961 0 0 0 0 0.984314 0 0 0 0.53 0"></feColorMatrix> <feBlend mode="normal" in2="BackgroundImageFix" result="effect1_dropShadow_163_14620"></feBlend> <feBlend mode="normal" in="SourceGraphic" in2="effect1_dropShadow_163_14620" result="shape"></feBlend> </filter> </defs> </svg> 