<?xml version="1.0" encoding="UTF-8"?> <svg xmlns="http://www.w3.org/2000/svg" width="468" height="125" viewBox="0 0 468 125" fill="none"> <g filter="url(#filter0_d_332_490)"> <rect x="4" width="460" height="117" rx="58.5" fill="#AFD7F7"></rect> <path d="M140.09 41.1406C139.098 41.1406 138.363 40.8594 137.887 40.2969C137.473 39.8125 137.266 39.1914 137.266 38.4336C137.266 38.0742 137.309 37.6562 137.395 37.1797C137.488 36.7031 137.625 36.0898 137.805 35.3398C137.984 34.5742 138.117 33.9648 138.203 33.5117C138.297 33.0508 138.344 32.6523 138.344 32.3164C138.344 31.4961 138.055 31.0859 137.477 31.0859C137.07 31.0859 136.695 31.3008 136.352 31.7305C136.062 32.0977 135.812 32.6211 135.602 33.3008L133.973 41H130.516L132.273 32.7148C132.32 32.5273 132.344 32.3281 132.344 32.1172C132.344 31.7969 132.293 31.5508 132.191 31.3789C132.059 31.168 131.867 31.0625 131.617 31.0625C131.164 31.0625 130.77 31.2812 130.434 31.7188C130.137 32.0938 129.883 32.6211 129.672 33.3008L128.043 41H124.586L127.129 29H130.586L130.328 30.2422C130.797 29.7188 131.309 29.3477 131.863 29.1289C132.301 28.9648 132.766 28.8828 133.258 28.8828C133.93 28.8828 134.465 29.0391 134.863 29.3516C135.309 29.7031 135.594 30.2344 135.719 30.9453C136.234 30.1484 136.828 29.5859 137.5 29.2578C137.977 29.0234 138.496 28.9062 139.059 28.9062C139.863 28.9062 140.5 29.1172 140.969 29.5391C141.469 30 141.719 30.6914 141.719 31.6133C141.719 32.1367 141.621 32.8594 141.426 33.7812C141.348 34.1641 141.254 34.5508 141.145 34.9414C140.949 35.6914 140.789 36.3828 140.664 37.0156C140.602 37.3438 140.57 37.6094 140.57 37.8125C140.57 38.1328 140.641 38.3828 140.781 38.5625C140.93 38.7344 141.18 38.8203 141.531 38.8203C142.008 38.8203 142.41 38.625 142.738 38.2344C142.988 37.9375 143.258 37.4258 143.547 36.6992H144.555C143.961 38.457 143.211 39.6875 142.305 40.3906C141.664 40.8906 140.926 41.1406 140.09 41.1406ZM147.191 41.0938C145.879 41.0938 144.871 40.6875 144.168 39.875C143.527 39.1328 143.207 38.1016 143.207 36.7812C143.207 36.3516 143.258 35.8242 143.359 35.1992C143.453 34.5664 143.59 33.8867 143.77 33.1602C144.16 31.5977 144.68 30.0703 145.328 28.5781C146.047 26.9375 146.836 25.625 147.695 24.6406C148.664 23.5312 149.648 22.9766 150.648 22.9766C151.484 22.9766 152.125 23.2266 152.57 23.7266C153.047 24.2734 153.285 25.1211 153.285 26.2695C153.285 27.1758 153.062 28.2031 152.617 29.3516C152.281 30.2188 151.852 31.1094 151.328 32.0234C151.664 32.1875 151.965 32.4258 152.23 32.7383C152.926 32.7383 153.715 32.5742 154.598 32.2461C155.387 31.9648 156.062 31.625 156.625 31.2266L156.848 31.8828C156.402 32.3516 155.828 32.7578 155.125 33.1016C154.422 33.4375 153.641 33.6797 152.781 33.8281C152.867 34.125 152.91 34.5234 152.91 35.0234C152.91 35.8203 152.781 36.582 152.523 37.3086C152.266 38.0352 151.891 38.6797 151.398 39.2422C150.891 39.8281 150.277 40.2852 149.559 40.6133C148.848 40.9336 148.059 41.0938 147.191 41.0938ZM148.246 38.9375C148.621 38.9375 148.965 38.8398 149.277 38.6445C149.59 38.4492 149.855 38.1797 150.074 37.8359C150.285 37.5156 150.445 37.1602 150.555 36.7695C150.664 36.3711 150.719 35.9727 150.719 35.5742C150.719 34.9805 150.648 34.543 150.508 34.2617C150.352 34.3164 150.219 34.3555 150.109 34.3789C150.008 34.3945 149.852 34.4023 149.641 34.4023C149.258 34.4023 148.953 34.2969 148.727 34.0859C148.508 33.875 148.398 33.5859 148.398 33.2188C148.398 32.7422 148.559 32.3828 148.879 32.1406C149.137 31.9453 149.535 31.8281 150.074 31.7891C150.504 31.0156 150.891 30.1055 151.234 29.0586C151.578 27.9883 151.75 27.0234 151.75 26.1641C151.75 25.6797 151.688 25.3398 151.562 25.1445C151.445 24.9492 151.246 24.8516 150.965 24.8516C150.715 24.8516 150.461 24.9844 150.203 25.25C149.945 25.5156 149.691 25.8867 149.441 26.3633C148.988 27.2461 148.543 28.4219 148.105 29.8906C147.73 31.1328 147.41 32.4688 147.145 33.8984C146.902 35.1797 146.781 36.1641 146.781 36.8516C146.781 37.5 146.895 38 147.121 38.3516C147.363 38.7422 147.738 38.9375 148.246 38.9375ZM157.832 41.0938C156.645 41.0938 155.727 40.8047 155.078 40.2266C154.352 39.5859 153.988 38.6133 153.988 37.3086C153.988 36.8164 154.039 36.2734 154.141 35.6797C154.242 35.0781 154.398 34.4727 154.609 33.8633C155.094 32.4102 155.785 31.25 156.684 30.3828C157.77 29.3203 159.062 28.7891 160.562 28.7891C162.617 28.7891 163.645 30.0664 163.645 32.6211V32.6445C163.691 32.6602 163.73 32.668 163.762 32.668H163.902C164.434 32.668 165.062 32.5195 165.789 32.2227C166.43 31.957 167.035 31.625 167.605 31.2266L167.816 31.8828C167.348 32.375 166.742 32.793 166 33.1367C165.266 33.4805 164.453 33.7266 163.562 33.875C163.469 34.9609 163.258 35.9531 162.93 36.8516C162.602 37.7422 162.18 38.5078 161.664 39.1484C161.156 39.7734 160.574 40.2539 159.918 40.5898C159.262 40.9258 158.566 41.0938 157.832 41.0938ZM158.793 38.9375C159.074 38.9375 159.359 38.8125 159.648 38.5625C159.945 38.3047 160.223 37.9492 160.48 37.4961C160.738 37.043 160.961 36.5117 161.148 35.9023C161.336 35.293 161.477 34.6406 161.57 33.9453C161.336 33.8828 161.168 33.7656 161.066 33.5938C160.973 33.4219 160.926 33.2031 160.926 32.9375C160.926 32.6094 160.992 32.3359 161.125 32.1172C161.258 31.8984 161.441 31.7383 161.676 31.6367C161.645 31.1289 161.562 30.7656 161.43 30.5469C161.359 30.4375 161.27 30.3594 161.16 30.3125C161.059 30.2656 160.926 30.2422 160.762 30.2422C160.223 30.2422 159.695 30.6484 159.18 31.4609C158.703 32.1953 158.312 33.1016 158.008 34.1797C157.711 35.2344 157.562 36.1719 157.562 36.9922C157.562 37.3906 157.582 37.7148 157.621 37.9648C157.668 38.2148 157.742 38.4102 157.844 38.5508C157.938 38.6914 158.059 38.793 158.207 38.8555C158.355 38.9102 158.551 38.9375 158.793 38.9375ZM166.703 28.1094H170.16L169.773 29.9141C170.586 29.2266 171.52 28.8828 172.574 28.8828C173.473 28.8828 174.168 29.1562 174.66 29.7031C175.223 30.3438 175.504 31.332 175.504 32.668C175.504 33.957 175.34 35.168 175.012 36.3008C174.598 37.7461 173.996 38.8672 173.207 39.6641C172.238 40.6484 171.035 41.1406 169.598 41.1406C169.043 41.1406 168.586 41.0547 168.227 40.8828C167.953 40.7578 167.73 40.5586 167.559 40.2852L166.316 46.1328L162.695 47L166.703 28.1094ZM168.859 39.0547C169.633 39.0547 170.297 38.6602 170.852 37.8711C171.289 37.2539 171.641 36.3867 171.906 35.2695C172.117 34.3711 172.223 33.4805 172.223 32.5977C172.223 31.8086 172.078 31.2461 171.789 30.9102C171.602 30.707 171.344 30.6055 171.016 30.6055C170.727 30.6055 170.434 30.707 170.137 30.9102C169.84 31.1133 169.582 31.4062 169.363 31.7891L167.945 38.5039C168 38.6602 168.102 38.793 168.25 38.9023C168.406 39.0039 168.609 39.0547 168.859 39.0547ZM184.785 41.1406C184.02 41.1406 183.41 40.9141 182.957 40.4609C182.457 39.9609 182.207 39.2305 182.207 38.2695C182.207 37.8477 182.273 37.3242 182.406 36.6992L182.523 36.1016C182.047 36.6172 181.543 36.9805 181.012 37.1914C180.598 37.3633 180.141 37.4492 179.641 37.4492C178.875 37.4492 178.27 37.2227 177.824 36.7695C177.324 36.2695 177.074 35.5352 177.074 34.5664C177.074 34.168 177.141 33.6484 177.273 33.0078L178.105 29H181.562L180.625 33.4648C180.578 33.6992 180.555 33.9219 180.555 34.1328C180.555 34.7891 180.797 35.1172 181.281 35.1172C181.734 35.1172 182.137 34.918 182.488 34.5195C182.824 34.1367 183.059 33.6328 183.191 33.0078L184.035 29H187.492L185.77 37.1562C185.699 37.3906 185.664 37.6484 185.664 37.9297C185.664 38.2578 185.742 38.4883 185.898 38.6211C186.055 38.7539 186.305 38.8203 186.648 38.8203C187.094 38.8203 187.492 38.6211 187.844 38.2227C188.156 37.8711 188.406 37.3633 188.594 36.6992H189.602C189.172 37.918 188.652 38.8828 188.043 39.5938C187.527 40.1797 186.945 40.6016 186.297 40.8594C185.82 41.0469 185.316 41.1406 184.785 41.1406ZM192.027 41.1406C190.848 41.1406 189.938 40.8438 189.297 40.25C188.617 39.6172 188.277 38.6445 188.277 37.332C188.277 36.8398 188.328 36.293 188.43 35.6914C188.523 35.0898 188.668 34.4883 188.863 33.8867C189.082 33.2148 189.359 32.5781 189.695 31.9766C190.039 31.375 190.438 30.8438 190.891 30.3828C191.938 29.3203 193.227 28.7891 194.758 28.7891C195.734 28.7891 196.445 29.0234 196.891 29.4922C197.234 29.8594 197.406 30.3906 197.406 31.0859C197.406 31.7656 197.258 32.4062 196.961 33.0078C196.664 33.6016 196.254 34.1289 195.73 34.5898C195.207 35.043 194.613 35.4062 193.949 35.6797C193.285 35.9453 192.598 36.1016 191.887 36.1484C191.848 36.5547 191.828 36.875 191.828 37.1094C191.828 37.8906 191.977 38.4297 192.273 38.7266C192.531 38.9922 192.961 39.125 193.562 39.125C194.43 39.125 195.223 38.8906 195.941 38.4219C196.246 38.2266 196.539 37.9961 196.82 37.7305C197.102 37.457 197.43 37.1133 197.805 36.6992H198.625C197.867 37.9805 196.996 39 196.012 39.7578C194.801 40.6797 193.473 41.1406 192.027 41.1406ZM192.074 35C192.52 34.9688 192.953 34.8398 193.375 34.6133C193.797 34.3867 194.172 34.0898 194.5 33.7227C194.828 33.3477 195.086 32.9297 195.273 32.4688C195.461 32 195.555 31.5234 195.555 31.0391C195.555 30.7188 195.508 30.4766 195.414 30.3125C195.328 30.1406 195.176 30.0547 194.957 30.0547C194.668 30.0547 194.375 30.1953 194.078 30.4766C193.789 30.7578 193.508 31.1445 193.234 31.6367C192.984 32.0977 192.758 32.6211 192.555 33.207C192.352 33.793 192.191 34.3906 192.074 35ZM201.238 41.1406C200.059 41.1406 199.148 40.8438 198.508 40.25C197.828 39.6172 197.488 38.6445 197.488 37.332C197.488 36.8398 197.539 36.293 197.641 35.6914C197.734 35.082 197.883 34.4766 198.086 33.875C198.562 32.4141 199.238 31.25 200.113 30.3828C201.191 29.3203 202.469 28.7891 203.945 28.7891C204.906 28.7891 205.617 29.0195 206.078 29.4805C206.438 29.8477 206.617 30.3516 206.617 30.9922C206.617 31.5547 206.492 31.9922 206.242 32.3047C206.008 32.5938 205.707 32.7383 205.34 32.7383C205.074 32.7383 204.793 32.6445 204.496 32.457C204.691 31.9492 204.789 31.4766 204.789 31.0391C204.789 30.7344 204.73 30.4961 204.613 30.3242C204.504 30.1445 204.34 30.0547 204.121 30.0547C203.652 30.0547 203.164 30.4688 202.656 31.2969C202.195 32.0312 201.812 32.9648 201.508 34.0977C201.195 35.207 201.039 36.2109 201.039 37.1094C201.039 37.8906 201.188 38.4297 201.484 38.7266C201.742 38.9922 202.172 39.125 202.773 39.125C203.641 39.125 204.434 38.8906 205.152 38.4219C205.457 38.2266 205.75 37.9961 206.031 37.7305C206.312 37.457 206.641 37.1133 207.016 36.6992H207.836C207.078 37.9805 206.207 39 205.223 39.7578C204.012 40.6797 202.684 41.1406 201.238 41.1406ZM215.676 41.1406C214.723 41.1406 214 40.9062 213.508 40.4375C213.023 39.9688 212.781 39.3164 212.781 38.4805C212.781 38.207 212.828 37.7969 212.922 37.25C212.938 37.125 212.953 37.0391 212.969 36.9922C212.984 36.8359 213 36.7305 213.016 36.6758C213.047 36.5195 213.062 36.3594 213.062 36.1953C213.062 35.4297 212.758 35.0469 212.148 35.0469C211.945 35.0469 211.727 35.1172 211.492 35.2578L211.105 35.5391L210.613 35.9375L209.559 41H206.102L208.668 29H212.125L211.094 33.7578C211.609 33.2422 212.109 32.7227 212.594 32.1992L212.77 32C213.699 31 214.332 30.332 214.668 29.9961C215.223 29.4414 215.746 29.082 216.238 28.918C216.512 28.832 216.797 28.7891 217.094 28.7891C217.633 28.7891 218.043 28.9375 218.324 29.2344C218.605 29.5234 218.746 29.9023 218.746 30.3711C218.746 30.8633 218.613 31.2461 218.348 31.5195C218.09 31.793 217.719 31.9297 217.234 31.9297C216.789 31.9297 216.449 31.793 216.215 31.5195C216.004 31.2852 215.906 31.0117 215.922 30.6992C215.672 30.8477 215.434 31.0234 215.207 31.2266C214.988 31.4219 214.746 31.6562 214.48 31.9297L214.246 32.1875C214.137 32.2969 213.988 32.4609 213.801 32.6797C213.605 32.9062 213.367 33.1602 213.086 33.4414C213.359 33.3789 213.695 33.3477 214.094 33.3477C214.922 33.3477 215.52 33.5391 215.887 33.9219C216.215 34.2578 216.379 34.8086 216.379 35.5742C216.379 35.832 216.332 36.2109 216.238 36.7109C216.199 36.9062 216.164 37.1133 216.133 37.332C216.102 37.543 216.086 37.7422 216.086 37.9297C216.086 38.5234 216.406 38.8203 217.047 38.8203C217.289 38.8203 217.496 38.7812 217.668 38.7031C217.848 38.6172 218.012 38.4844 218.16 38.3047C218.301 38.1406 218.438 37.9336 218.57 37.6836C218.703 37.4336 218.859 37.1055 219.039 36.6992H220.047C219.039 39.6602 217.582 41.1406 215.676 41.1406ZM222.543 41.0938C221.355 41.0938 220.438 40.8047 219.789 40.2266C219.062 39.5859 218.699 38.6133 218.699 37.3086C218.699 36.8164 218.75 36.2734 218.852 35.6797C218.953 35.0781 219.109 34.4727 219.32 33.8633C219.805 32.4102 220.496 31.25 221.395 30.3828C222.48 29.3203 223.773 28.7891 225.273 28.7891C227.328 28.7891 228.355 30.0664 228.355 32.6211V32.6445C228.402 32.6602 228.441 32.668 228.473 32.668H228.613C229.145 32.668 229.773 32.5195 230.5 32.2227C231.141 31.957 231.746 31.625 232.316 31.2266L232.527 31.8828C232.059 32.375 231.453 32.793 230.711 33.1367C229.977 33.4805 229.164 33.7266 228.273 33.875C228.18 34.9609 227.969 35.9531 227.641 36.8516C227.312 37.7422 226.891 38.5078 226.375 39.1484C225.867 39.7734 225.285 40.2539 224.629 40.5898C223.973 40.9258 223.277 41.0938 222.543 41.0938ZM223.504 38.9375C223.785 38.9375 224.07 38.8125 224.359 38.5625C224.656 38.3047 224.934 37.9492 225.191 37.4961C225.449 37.043 225.672 36.5117 225.859 35.9023C226.047 35.293 226.188 34.6406 226.281 33.9453C226.047 33.8828 225.879 33.7656 225.777 33.5938C225.684 33.4219 225.637 33.2031 225.637 32.9375C225.637 32.6094 225.703 32.3359 225.836 32.1172C225.969 31.8984 226.152 31.7383 226.387 31.6367C226.355 31.1289 226.273 30.7656 226.141 30.5469C226.07 30.4375 225.98 30.3594 225.871 30.3125C225.77 30.2656 225.637 30.2422 225.473 30.2422C224.934 30.2422 224.406 30.6484 223.891 31.4609C223.414 32.1953 223.023 33.1016 222.719 34.1797C222.422 35.2344 222.273 36.1719 222.273 36.9922C222.273 37.3906 222.293 37.7148 222.332 37.9648C222.379 38.2148 222.453 38.4102 222.555 38.5508C222.648 38.6914 222.77 38.793 222.918 38.8555C223.066 38.9102 223.262 38.9375 223.504 38.9375ZM233.02 41.1406C231.84 41.1406 230.93 40.8438 230.289 40.25C229.609 39.6172 229.27 38.6445 229.27 37.332C229.27 36.8398 229.32 36.293 229.422 35.6914C229.516 35.0898 229.66 34.4883 229.855 33.8867C230.074 33.2148 230.352 32.5781 230.688 31.9766C231.031 31.375 231.43 30.8438 231.883 30.3828C232.93 29.3203 234.219 28.7891 235.75 28.7891C236.727 28.7891 237.438 29.0234 237.883 29.4922C238.227 29.8594 238.398 30.3906 238.398 31.0859C238.398 31.7656 238.25 32.4062 237.953 33.0078C237.656 33.6016 237.246 34.1289 236.723 34.5898C236.199 35.043 235.605 35.4062 234.941 35.6797C234.277 35.9453 233.59 36.1016 232.879 36.1484C232.84 36.5547 232.82 36.875 232.82 37.1094C232.82 37.8906 232.969 38.4297 233.266 38.7266C233.523 38.9922 233.953 39.125 234.555 39.125C235.422 39.125 236.215 38.8906 236.934 38.4219C237.238 38.2266 237.531 37.9961 237.812 37.7305C238.094 37.457 238.422 37.1133 238.797 36.6992H239.617C238.859 37.9805 237.988 39 237.004 39.7578C235.793 40.6797 234.465 41.1406 233.02 41.1406ZM233.066 35C233.512 34.9688 233.945 34.8398 234.367 34.6133C234.789 34.3867 235.164 34.0898 235.492 33.7227C235.82 33.3477 236.078 32.9297 236.266 32.4688C236.453 32 236.547 31.5234 236.547 31.0391C236.547 30.7188 236.5 30.4766 236.406 30.3125C236.32 30.1406 236.168 30.0547 235.949 30.0547C235.66 30.0547 235.367 30.1953 235.07 30.4766C234.781 30.7578 234.5 31.1445 234.227 31.6367C233.977 32.0977 233.75 32.6211 233.547 33.207C233.344 33.793 233.184 34.3906 233.066 35ZM245.828 28.1094H249.285L248.898 29.9141C249.711 29.2266 250.645 28.8828 251.699 28.8828C252.598 28.8828 253.293 29.1562 253.785 29.7031C254.348 30.3438 254.629 31.332 254.629 32.668C254.629 33.957 254.465 35.168 254.137 36.3008C253.723 37.7461 253.121 38.8672 252.332 39.6641C251.363 40.6484 250.16 41.1406 248.723 41.1406C248.168 41.1406 247.711 41.0547 247.352 40.8828C247.078 40.7578 246.855 40.5586 246.684 40.2852L245.441 46.1328L241.82 47L245.828 28.1094ZM247.984 39.0547C248.758 39.0547 249.422 38.6602 249.977 37.8711C250.414 37.2539 250.766 36.3867 251.031 35.2695C251.242 34.3711 251.348 33.4805 251.348 32.5977C251.348 31.8086 251.203 31.2461 250.914 30.9102C250.727 30.707 250.469 30.6055 250.141 30.6055C249.852 30.6055 249.559 30.707 249.262 30.9102C248.965 31.1133 248.707 31.4062 248.488 31.7891L247.07 38.5039C247.125 38.6602 247.227 38.793 247.375 38.9023C247.531 39.0039 247.734 39.0547 247.984 39.0547ZM258.484 41.1406C257.57 41.1406 256.832 40.8555 256.27 40.2852C255.613 39.6133 255.285 38.6133 255.285 37.2852C255.285 36.7227 255.344 36.1289 255.461 35.5039C255.57 34.8789 255.734 34.2617 255.953 33.6523C256.453 32.2773 257.137 31.168 258.004 30.3242C259.004 29.3633 260.156 28.8828 261.461 28.8828C262.109 28.8828 262.594 28.9961 262.914 29.2227C263.242 29.4414 263.406 29.7344 263.406 30.1016V30.2773L263.664 29H267.121L265.398 37.1562C265.328 37.3906 265.293 37.6484 265.293 37.9297C265.293 38.6172 265.621 38.9609 266.277 38.9609C266.715 38.9609 267.113 38.7383 267.473 38.293C267.777 37.918 268.027 37.3867 268.223 36.6992H269.23C268.801 37.918 268.281 38.8828 267.672 39.5938C267.156 40.1797 266.574 40.6016 265.926 40.8594C265.449 41.0469 264.945 41.1406 264.414 41.1406C263.734 41.1406 263.191 40.957 262.785 40.5898C262.387 40.2148 262.145 39.6641 262.059 38.9375C261.605 39.5781 261.129 40.0781 260.629 40.4375C259.988 40.9062 259.273 41.1406 258.484 41.1406ZM260.043 38.8203C260.223 38.8203 260.41 38.7734 260.605 38.6797C260.809 38.5859 261.004 38.4531 261.191 38.2812C261.613 37.875 261.895 37.3477 262.035 36.6992L263.184 31.2852C263.184 31.207 263.164 31.1172 263.125 31.0156C263.094 30.9062 263.047 30.8047 262.984 30.7109C262.797 30.4844 262.535 30.3711 262.199 30.3711C261.879 30.3711 261.566 30.4766 261.262 30.6875C260.965 30.8984 260.684 31.1914 260.418 31.5664C259.949 32.2461 259.562 33.1328 259.258 34.2266C259.117 34.7109 259.012 35.1914 258.941 35.668C258.871 36.1367 258.836 36.5625 258.836 36.9453C258.836 37.7422 258.984 38.2812 259.281 38.5625C259.383 38.6719 259.496 38.7422 259.621 38.7734C259.746 38.8047 259.887 38.8203 260.043 38.8203ZM272.266 47C271.508 47 270.879 46.8047 270.379 46.4141C270.129 46.2188 269.934 45.9727 269.793 45.6758C269.652 45.3867 269.582 45.0508 269.582 44.668C269.582 43.793 269.984 43.0312 270.789 42.3828C271.406 41.8984 272.258 41.4844 273.344 41.1406C273.297 39.4453 272.723 38.5977 271.621 38.5977H270.871L271.188 37.1562H271.879C272.301 37.1562 272.695 37.0508 273.062 36.8398C273.43 36.6289 273.746 36.332 274.012 35.9492C274.27 35.5664 274.469 35.125 274.609 34.625C274.758 34.125 274.832 33.5938 274.832 33.0312C274.832 32.4453 274.742 31.9844 274.562 31.6484C274.32 31.1953 273.922 30.9688 273.367 30.9688C272.484 30.9688 271.719 31.4062 271.07 32.2812C270.359 33.2344 269.75 34.707 269.242 36.6992H268.234C268.461 35.8164 268.664 35.0703 268.844 34.4609C269.023 33.8438 269.223 33.2695 269.441 32.7383C269.949 31.4727 270.582 30.5195 271.34 29.8789C272.215 29.1523 273.324 28.7891 274.668 28.7891C275.238 28.7891 275.758 28.875 276.227 29.0469C276.695 29.2109 277.094 29.4531 277.422 29.7734C278.109 30.4609 278.453 31.4023 278.453 32.5977C278.453 33.543 278.203 34.4531 277.703 35.3281C277.305 36.0312 276.781 36.6367 276.133 37.1445C275.859 37.3555 275.598 37.5273 275.348 37.6602C275.105 37.793 274.902 37.875 274.738 37.9062C275.129 38.0391 275.512 38.3125 275.887 38.7266C276.293 39.1875 276.566 39.7148 276.707 40.3086C277.152 40.1836 277.543 40.0312 277.879 39.8516C278.223 39.6719 278.531 39.4492 278.805 39.1836C279.086 38.9102 279.336 38.5742 279.555 38.1758C279.781 37.7695 279.992 37.2773 280.188 36.6992H281.195C280.773 38.1445 280.109 39.2656 279.203 40.0625C278.547 40.6328 277.746 41.0352 276.801 41.2695C276.785 42.168 276.664 42.9727 276.438 43.6836C276.219 44.3945 275.91 44.9961 275.512 45.4883C275.113 45.9805 274.637 46.3555 274.082 46.6133C273.535 46.8711 272.93 47 272.266 47ZM271.715 45.125C271.879 45.125 272.047 45.0508 272.219 44.9023C272.391 44.7539 272.547 44.5469 272.688 44.2812C272.977 43.7422 273.172 43.082 273.273 42.3008C272.531 42.5664 271.98 42.8359 271.621 43.1094C271.137 43.4922 270.895 43.9023 270.895 44.3398C270.895 44.5742 270.965 44.7617 271.105 44.9023C271.246 45.0508 271.449 45.125 271.715 45.125ZM283.832 41.0938C282.52 41.0938 281.512 40.6875 280.809 39.875C280.168 39.1328 279.848 38.1016 279.848 36.7812C279.848 36.3516 279.898 35.8242 280 35.1992C280.094 34.5664 280.23 33.8867 280.41 33.1602C280.801 31.5977 281.32 30.0703 281.969 28.5781C282.688 26.9375 283.477 25.625 284.336 24.6406C285.305 23.5312 286.289 22.9766 287.289 22.9766C288.125 22.9766 288.766 23.2266 289.211 23.7266C289.688 24.2734 289.926 25.1211 289.926 26.2695C289.926 27.1758 289.703 28.2031 289.258 29.3516C288.922 30.2188 288.492 31.1094 287.969 32.0234C288.305 32.1875 288.605 32.4258 288.871 32.7383C289.566 32.7383 290.355 32.5742 291.238 32.2461C292.027 31.9648 292.703 31.625 293.266 31.2266L293.488 31.8828C293.043 32.3516 292.469 32.7578 291.766 33.1016C291.062 33.4375 290.281 33.6797 289.422 33.8281C289.508 34.125 289.551 34.5234 289.551 35.0234C289.551 35.8203 289.422 36.582 289.164 37.3086C288.906 38.0352 288.531 38.6797 288.039 39.2422C287.531 39.8281 286.918 40.2852 286.199 40.6133C285.488 40.9336 284.699 41.0938 283.832 41.0938ZM284.887 38.9375C285.262 38.9375 285.605 38.8398 285.918 38.6445C286.23 38.4492 286.496 38.1797 286.715 37.8359C286.926 37.5156 287.086 37.1602 287.195 36.7695C287.305 36.3711 287.359 35.9727 287.359 35.5742C287.359 34.9805 287.289 34.543 287.148 34.2617C286.992 34.3164 286.859 34.3555 286.75 34.3789C286.648 34.3945 286.492 34.4023 286.281 34.4023C285.898 34.4023 285.594 34.2969 285.367 34.0859C285.148 33.875 285.039 33.5859 285.039 33.2188C285.039 32.7422 285.199 32.3828 285.52 32.1406C285.777 31.9453 286.176 31.8281 286.715 31.7891C287.145 31.0156 287.531 30.1055 287.875 29.0586C288.219 27.9883 288.391 27.0234 288.391 26.1641C288.391 25.6797 288.328 25.3398 288.203 25.1445C288.086 24.9492 287.887 24.8516 287.605 24.8516C287.355 24.8516 287.102 24.9844 286.844 25.25C286.586 25.5156 286.332 25.8867 286.082 26.3633C285.629 27.2461 285.184 28.4219 284.746 29.8906C284.371 31.1328 284.051 32.4688 283.785 33.8984C283.543 35.1797 283.422 36.1641 283.422 36.8516C283.422 37.5 283.535 38 283.762 38.3516C284.004 38.7422 284.379 38.9375 284.887 38.9375ZM293.348 41.1406C292.582 41.1406 291.977 40.9141 291.531 40.4609C291.031 39.9609 290.781 39.2305 290.781 38.2695C290.781 37.8164 290.844 37.293 290.969 36.6992L292.598 29H296.055L294.332 37.1562C294.285 37.3984 294.262 37.625 294.262 37.8359C294.262 38.4922 294.5 38.8203 294.977 38.8203C295.414 38.8203 295.809 38.6211 296.16 38.2227C296.441 37.8867 296.688 37.3789 296.898 36.6992L298.527 29H301.984L300.262 37.1562C300.191 37.3906 300.156 37.6484 300.156 37.9297C300.156 38.2578 300.234 38.4883 300.391 38.6211C300.547 38.7539 300.797 38.8203 301.141 38.8203C301.586 38.8203 301.984 38.6211 302.336 38.2227C302.648 37.8711 302.898 37.3633 303.086 36.6992H304.094C303.664 37.918 303.145 38.8828 302.535 39.5938C302.02 40.1797 301.438 40.6016 300.789 40.8594C300.312 41.0469 299.809 41.1406 299.277 41.1406C298.59 41.1406 298.043 40.9492 297.637 40.5664C297.23 40.1836 296.984 39.6172 296.898 38.8672C296.352 39.7422 295.734 40.3672 295.047 40.7422C294.555 41.0078 293.988 41.1406 293.348 41.1406ZM317.676 41.1406C316.684 41.1406 315.949 40.8594 315.473 40.2969C315.059 39.8125 314.852 39.1914 314.852 38.4336C314.852 38.0742 314.895 37.6562 314.98 37.1797C315.074 36.7031 315.211 36.0898 315.391 35.3398C315.57 34.5742 315.703 33.9648 315.789 33.5117C315.883 33.0508 315.93 32.6523 315.93 32.3164C315.93 31.4961 315.641 31.0859 315.062 31.0859C314.656 31.0859 314.281 31.3008 313.938 31.7305C313.648 32.0977 313.398 32.6211 313.188 33.3008L311.559 41H308.102L309.859 32.7148C309.906 32.5273 309.93 32.3281 309.93 32.1172C309.93 31.7969 309.879 31.5508 309.777 31.3789C309.645 31.168 309.453 31.0625 309.203 31.0625C308.75 31.0625 308.355 31.2812 308.02 31.7188C307.723 32.0938 307.469 32.6211 307.258 33.3008L305.629 41H302.172L304.715 29H308.172L307.914 30.2422C308.383 29.7188 308.895 29.3477 309.449 29.1289C309.887 28.9648 310.352 28.8828 310.844 28.8828C311.516 28.8828 312.051 29.0391 312.449 29.3516C312.895 29.7031 313.18 30.2344 313.305 30.9453C313.82 30.1484 314.414 29.5859 315.086 29.2578C315.562 29.0234 316.082 28.9062 316.645 28.9062C317.449 28.9062 318.086 29.1172 318.555 29.5391C319.055 30 319.305 30.6914 319.305 31.6133C319.305 32.1367 319.207 32.8594 319.012 33.7812C318.934 34.1641 318.84 34.5508 318.73 34.9414C318.535 35.6914 318.375 36.3828 318.25 37.0156C318.188 37.3438 318.156 37.6094 318.156 37.8125C318.156 38.1328 318.227 38.3828 318.367 38.5625C318.516 38.7344 318.766 38.8203 319.117 38.8203C319.594 38.8203 319.996 38.625 320.324 38.2344C320.574 37.9375 320.844 37.4258 321.133 36.6992H322.141C321.547 38.457 320.797 39.6875 319.891 40.3906C319.25 40.8906 318.512 41.1406 317.676 41.1406ZM323.512 41.1406C322.746 41.1406 322.141 40.9141 321.695 40.4609C321.195 39.9609 320.945 39.2305 320.945 38.2695C320.945 37.8164 321.008 37.293 321.133 36.6992L322.762 29H326.219L324.496 37.1562C324.449 37.3984 324.426 37.625 324.426 37.8359C324.426 38.4922 324.664 38.8203 325.141 38.8203C325.578 38.8203 325.973 38.6211 326.324 38.2227C326.605 37.8867 326.852 37.3789 327.062 36.6992L328.691 29H332.148L330.426 37.1562C330.355 37.3906 330.32 37.6484 330.32 37.9297C330.32 38.2578 330.398 38.4883 330.555 38.6211C330.711 38.7539 330.961 38.8203 331.305 38.8203C331.75 38.8203 332.148 38.6211 332.5 38.2227C332.812 37.8711 333.062 37.3633 333.25 36.6992H334.258C333.828 37.918 333.309 38.8828 332.699 39.5938C332.184 40.1797 331.602 40.6016 330.953 40.8594C330.477 41.0469 329.973 41.1406 329.441 41.1406C328.754 41.1406 328.207 40.9492 327.801 40.5664C327.395 40.1836 327.148 39.6172 327.062 38.8672C326.516 39.7422 325.898 40.3672 325.211 40.7422C324.719 41.0078 324.152 41.1406 323.512 41.1406ZM336.684 41.1406C335.504 41.1406 334.594 40.8438 333.953 40.25C333.273 39.6172 332.934 38.6445 332.934 37.332C332.934 36.8398 332.984 36.293 333.086 35.6914C333.18 35.0898 333.324 34.4883 333.52 33.8867C333.738 33.2148 334.016 32.5781 334.352 31.9766C334.695 31.375 335.094 30.8438 335.547 30.3828C336.594 29.3203 337.883 28.7891 339.414 28.7891C340.391 28.7891 341.102 29.0234 341.547 29.4922C341.891 29.8594 342.062 30.3906 342.062 31.0859C342.062 31.7656 341.914 32.4062 341.617 33.0078C341.32 33.6016 340.91 34.1289 340.387 34.5898C339.863 35.043 339.27 35.4062 338.605 35.6797C337.941 35.9453 337.254 36.1016 336.543 36.1484C336.504 36.5547 336.484 36.875 336.484 37.1094C336.484 37.8906 336.633 38.4297 336.93 38.7266C337.188 38.9922 337.617 39.125 338.219 39.125C339.086 39.125 339.879 38.8906 340.598 38.4219C340.902 38.2266 341.195 37.9961 341.477 37.7305C341.758 37.457 342.086 37.1133 342.461 36.6992H343.281C342.523 37.9805 341.652 39 340.668 39.7578C339.457 40.6797 338.129 41.1406 336.684 41.1406ZM336.73 35C337.176 34.9688 337.609 34.8398 338.031 34.6133C338.453 34.3867 338.828 34.0898 339.156 33.7227C339.484 33.3477 339.742 32.9297 339.93 32.4688C340.117 32 340.211 31.5234 340.211 31.0391C340.211 30.7188 340.164 30.4766 340.07 30.3125C339.984 30.1406 339.832 30.0547 339.613 30.0547C339.324 30.0547 339.031 30.1953 338.734 30.4766C338.445 30.7578 338.164 31.1445 337.891 31.6367C337.641 32.0977 337.414 32.6211 337.211 33.207C337.008 33.793 336.848 34.3906 336.73 35Z" fill="#16578D"></path> <path d="M62.7715 59.1914C63.9727 59.1914 64.9307 59.6045 65.6455 60.4307C66.3604 61.2568 66.7178 62.499 66.7178 64.1572C66.7178 65.2529 66.5537 66.1729 66.2256 66.917C65.8975 67.6611 65.4346 68.2236 64.8369 68.6045C64.2451 68.9854 63.5449 69.1758 62.7363 69.1758C62.2266 69.1758 61.7783 69.1084 61.3916 68.9736C61.0049 68.8389 60.6738 68.6572 60.3984 68.4287C60.123 68.2002 59.8945 67.9512 59.7129 67.6816H59.6074C59.625 67.9102 59.6455 68.1855 59.6689 68.5078C59.6982 68.8301 59.7129 69.1113 59.7129 69.3516V73.3066H58.2451V59.3672H59.4492L59.6426 60.791H59.7129C59.9004 60.498 60.1289 60.2314 60.3984 59.9912C60.668 59.7451 60.9961 59.5518 61.3828 59.4111C61.7754 59.2646 62.2383 59.1914 62.7715 59.1914ZM62.5166 60.4219C61.8486 60.4219 61.3096 60.5508 60.8994 60.8086C60.4951 61.0664 60.1992 61.4531 60.0117 61.9688C59.8242 62.4785 59.7246 63.1201 59.7129 63.8936V64.1748C59.7129 64.9893 59.8008 65.6777 59.9766 66.2402C60.1582 66.8027 60.4541 67.2305 60.8643 67.5234C61.2803 67.8164 61.8369 67.9629 62.5342 67.9629C63.1318 67.9629 63.6299 67.8018 64.0283 67.4795C64.4268 67.1572 64.7227 66.709 64.916 66.1348C65.1152 65.5547 65.2148 64.8896 65.2148 64.1396C65.2148 63.0029 64.9922 62.1006 64.5469 61.4326C64.1074 60.7588 63.4307 60.4219 62.5166 60.4219ZM72.8701 59.209C74.0186 59.209 74.8711 59.4668 75.4277 59.9824C75.9844 60.498 76.2627 61.3213 76.2627 62.4521V69H75.1992L74.918 67.5762H74.8477C74.5781 67.9277 74.2969 68.2236 74.0039 68.4639C73.7109 68.6982 73.3711 68.877 72.9844 69C72.6035 69.1172 72.1348 69.1758 71.5781 69.1758C70.9922 69.1758 70.4707 69.0732 70.0137 68.8682C69.5625 68.6631 69.2051 68.3525 68.9414 67.9365C68.6836 67.5205 68.5547 66.9932 68.5547 66.3545C68.5547 65.3936 68.9355 64.6553 69.6973 64.1396C70.459 63.624 71.6191 63.3428 73.1777 63.2959L74.8389 63.2256V62.6367C74.8389 61.8047 74.6602 61.2217 74.3027 60.8877C73.9453 60.5537 73.4414 60.3867 72.791 60.3867C72.2871 60.3867 71.8066 60.46 71.3496 60.6064C70.8926 60.7529 70.459 60.9258 70.0488 61.125L69.6006 60.0176C70.0342 59.7949 70.5322 59.6045 71.0947 59.4463C71.6572 59.2881 72.249 59.209 72.8701 59.209ZM74.8213 64.2539L73.3535 64.3154C72.1523 64.3623 71.3057 64.5586 70.8135 64.9043C70.3213 65.25 70.0752 65.7393 70.0752 66.3721C70.0752 66.9229 70.2422 67.3301 70.5762 67.5938C70.9102 67.8574 71.3525 67.9893 71.9033 67.9893C72.7588 67.9893 73.459 67.752 74.0039 67.2773C74.5488 66.8027 74.8213 66.0908 74.8213 65.1416V64.2539ZM78.7676 63.2168C78.7676 61.8457 78.8994 60.6768 79.1631 59.71C79.4268 58.7373 79.834 57.958 80.3848 57.3721C80.9414 56.7803 81.6562 56.376 82.5293 56.1592C83.2793 55.9541 84.041 55.7783 84.8145 55.6318C85.5879 55.4795 86.3408 55.3477 87.0732 55.2363L87.3281 56.5195C86.959 56.5723 86.5723 56.6338 86.168 56.7041C85.7637 56.7686 85.3594 56.8389 84.9551 56.915C84.5508 56.9854 84.1699 57.0615 83.8125 57.1436C83.4551 57.2197 83.1387 57.2988 82.8633 57.3809C82.3652 57.5156 81.9346 57.75 81.5713 58.084C81.2139 58.418 80.9297 58.8779 80.7188 59.4639C80.5137 60.0498 80.3906 60.7881 80.3496 61.6787H80.4551C80.6309 61.4209 80.8711 61.166 81.1758 60.9141C81.4805 60.6621 81.8438 60.4541 82.2656 60.29C82.6875 60.1201 83.1621 60.0352 83.6895 60.0352C84.5215 60.0352 85.2158 60.2168 85.7725 60.5801C86.3291 60.9375 86.748 61.4414 87.0293 62.0918C87.3105 62.7422 87.4512 63.5039 87.4512 64.377C87.4512 65.4258 87.2695 66.3076 86.9062 67.0225C86.5488 67.7373 86.0449 68.2764 85.3945 68.6396C84.7441 68.9971 83.9795 69.1758 83.1006 69.1758C82.4209 69.1758 81.8115 69.0439 81.2725 68.7803C80.7393 68.5166 80.2852 68.1299 79.9102 67.6201C79.541 67.1104 79.2568 66.4863 79.0576 65.748C78.8643 65.0098 78.7676 64.166 78.7676 63.2168ZM83.2148 67.9629C83.7715 67.9629 84.249 67.8457 84.6475 67.6113C85.0518 67.377 85.3623 67.0078 85.5791 66.5039C85.8018 65.9941 85.9131 65.332 85.9131 64.5176C85.9131 63.498 85.7168 62.7012 85.3242 62.127C84.9375 61.5469 84.3164 61.2568 83.4609 61.2568C82.9277 61.2568 82.4443 61.3711 82.0107 61.5996C81.5771 61.8223 81.2109 62.0889 80.9121 62.3994C80.6133 62.71 80.3965 62.9883 80.2617 63.2344C80.2617 63.832 80.3057 64.4121 80.3936 64.9746C80.4814 65.5371 80.6338 66.0439 80.8506 66.4951C81.0674 66.9463 81.3662 67.3037 81.7471 67.5674C82.1338 67.8311 82.623 67.9629 83.2148 67.9629ZM98.2793 64.166C98.2793 64.957 98.1768 65.6631 97.9717 66.2842C97.7666 66.9053 97.4707 67.4297 97.084 67.8574C96.6973 68.2852 96.2285 68.6133 95.6777 68.8418C95.1328 69.0645 94.5146 69.1758 93.8232 69.1758C93.1787 69.1758 92.5869 69.0645 92.0479 68.8418C91.5146 68.6133 91.0518 68.2852 90.6592 67.8574C90.2725 67.4297 89.9707 66.9053 89.7539 66.2842C89.543 65.6631 89.4375 64.957 89.4375 64.166C89.4375 63.1113 89.6162 62.2148 89.9736 61.4766C90.3311 60.7324 90.8408 60.167 91.5029 59.7803C92.1709 59.3877 92.9648 59.1914 93.8848 59.1914C94.7637 59.1914 95.5312 59.3877 96.1875 59.7803C96.8496 60.1729 97.3623 60.7412 97.7256 61.4854C98.0947 62.2236 98.2793 63.1172 98.2793 64.166ZM90.9492 64.166C90.9492 64.9395 91.0518 65.6104 91.2568 66.1787C91.4619 66.7471 91.7783 67.1865 92.2061 67.4971C92.6338 67.8076 93.1846 67.9629 93.8584 67.9629C94.5264 67.9629 95.0742 67.8076 95.502 67.4971C95.9355 67.1865 96.2549 66.7471 96.46 66.1787C96.665 65.6104 96.7676 64.9395 96.7676 64.166C96.7676 63.3984 96.665 62.7363 96.46 62.1797C96.2549 61.6172 95.9385 61.1836 95.5107 60.8789C95.083 60.5742 94.5293 60.4219 93.8496 60.4219C92.8477 60.4219 92.1123 60.7529 91.6436 61.415C91.1807 62.0771 90.9492 62.9941 90.9492 64.166ZM107.367 60.6064H104.194V69H102.753V60.6064H99.624V59.3672H107.367V60.6064ZM112.878 59.209C114.026 59.209 114.879 59.4668 115.436 59.9824C115.992 60.498 116.271 61.3213 116.271 62.4521V69H115.207L114.926 67.5762H114.855C114.586 67.9277 114.305 68.2236 114.012 68.4639C113.719 68.6982 113.379 68.877 112.992 69C112.611 69.1172 112.143 69.1758 111.586 69.1758C111 69.1758 110.479 69.0732 110.021 68.8682C109.57 68.6631 109.213 68.3525 108.949 67.9365C108.691 67.5205 108.562 66.9932 108.562 66.3545C108.562 65.3936 108.943 64.6553 109.705 64.1396C110.467 63.624 111.627 63.3428 113.186 63.2959L114.847 63.2256V62.6367C114.847 61.8047 114.668 61.2217 114.311 60.8877C113.953 60.5537 113.449 60.3867 112.799 60.3867C112.295 60.3867 111.814 60.46 111.357 60.6064C110.9 60.7529 110.467 60.9258 110.057 61.125L109.608 60.0176C110.042 59.7949 110.54 59.6045 111.103 59.4463C111.665 59.2881 112.257 59.209 112.878 59.209ZM114.829 64.2539L113.361 64.3154C112.16 64.3623 111.313 64.5586 110.821 64.9043C110.329 65.25 110.083 65.7393 110.083 66.3721C110.083 66.9229 110.25 67.3301 110.584 67.5938C110.918 67.8574 111.36 67.9893 111.911 67.9893C112.767 67.9893 113.467 67.752 114.012 67.2773C114.557 66.8027 114.829 66.0908 114.829 65.1416V64.2539ZM122.985 59.1914C123.806 59.1914 124.509 59.373 125.095 59.7363C125.681 60.0996 126.129 60.6094 126.439 61.2656C126.75 61.916 126.905 62.6777 126.905 63.5508V64.4561H120.252C120.27 65.5869 120.551 66.4482 121.096 67.04C121.641 67.6318 122.408 67.9277 123.398 67.9277C124.008 67.9277 124.547 67.8721 125.016 67.7607C125.484 67.6494 125.971 67.4854 126.475 67.2686V68.5518C125.988 68.7686 125.505 68.9268 125.024 69.0264C124.55 69.126 123.987 69.1758 123.337 69.1758C122.411 69.1758 121.603 68.9883 120.911 68.6133C120.226 68.2324 119.692 67.6758 119.312 66.9434C118.931 66.2109 118.74 65.3145 118.74 64.2539C118.74 63.2168 118.913 62.3203 119.259 61.5645C119.61 60.8027 120.103 60.2168 120.735 59.8066C121.374 59.3965 122.124 59.1914 122.985 59.1914ZM122.968 60.3867C122.188 60.3867 121.567 60.6416 121.104 61.1514C120.642 61.6611 120.366 62.373 120.278 63.2871H125.376C125.37 62.7129 125.279 62.209 125.104 61.7754C124.934 61.3359 124.673 60.9961 124.321 60.7559C123.97 60.5098 123.519 60.3867 122.968 60.3867ZM139.553 59.3672V69H138.234V62.7246C138.234 62.4668 138.24 62.2061 138.252 61.9424C138.27 61.6729 138.29 61.4033 138.313 61.1338H138.261L135.062 69H133.822L130.702 61.1338H130.649C130.667 61.4033 130.679 61.6729 130.685 61.9424C130.696 62.2061 130.702 62.4844 130.702 62.7773V69H129.375V59.3672H131.335L134.446 67.2422L137.602 59.3672H139.553ZM151.119 69.1758C150.252 69.1758 149.487 68.9971 148.825 68.6396C148.163 68.2822 147.647 67.7373 147.278 67.0049C146.909 66.2725 146.725 65.3496 146.725 64.2363C146.725 63.0703 146.918 62.1182 147.305 61.3799C147.697 60.6357 148.236 60.085 148.922 59.7275C149.607 59.3701 150.387 59.1914 151.26 59.1914C151.74 59.1914 152.203 59.2412 152.648 59.3408C153.1 59.4346 153.469 59.5547 153.756 59.7012L153.316 60.9229C153.023 60.8057 152.684 60.7002 152.297 60.6064C151.916 60.5127 151.559 60.4658 151.225 60.4658C150.557 60.4658 150 60.6094 149.555 60.8965C149.115 61.1836 148.784 61.6055 148.562 62.1621C148.345 62.7188 148.236 63.4043 148.236 64.2188C148.236 64.998 148.342 65.6631 148.553 66.2139C148.77 66.7646 149.089 67.1865 149.511 67.4795C149.938 67.7666 150.472 67.9102 151.11 67.9102C151.62 67.9102 152.08 67.8574 152.49 67.752C152.9 67.6406 153.272 67.5117 153.606 67.3652V68.666C153.284 68.8301 152.924 68.9561 152.525 69.0439C152.133 69.1318 151.664 69.1758 151.119 69.1758ZM165.094 59.1914C166.295 59.1914 167.253 59.6045 167.968 60.4307C168.683 61.2568 169.04 62.499 169.04 64.1572C169.04 65.2529 168.876 66.1729 168.548 66.917C168.22 67.6611 167.757 68.2236 167.159 68.6045C166.567 68.9854 165.867 69.1758 165.059 69.1758C164.549 69.1758 164.101 69.1084 163.714 68.9736C163.327 68.8389 162.996 68.6572 162.721 68.4287C162.445 68.2002 162.217 67.9512 162.035 67.6816H161.93C161.947 67.9102 161.968 68.1855 161.991 68.5078C162.021 68.8301 162.035 69.1113 162.035 69.3516V73.3066H160.567V59.3672H161.771L161.965 60.791H162.035C162.223 60.498 162.451 60.2314 162.721 59.9912C162.99 59.7451 163.318 59.5518 163.705 59.4111C164.098 59.2646 164.561 59.1914 165.094 59.1914ZM164.839 60.4219C164.171 60.4219 163.632 60.5508 163.222 60.8086C162.817 61.0664 162.521 61.4531 162.334 61.9688C162.146 62.4785 162.047 63.1201 162.035 63.8936V64.1748C162.035 64.9893 162.123 65.6777 162.299 66.2402C162.48 66.8027 162.776 67.2305 163.187 67.5234C163.603 67.8164 164.159 67.9629 164.856 67.9629C165.454 67.9629 165.952 67.8018 166.351 67.4795C166.749 67.1572 167.045 66.709 167.238 66.1348C167.438 65.5547 167.537 64.8896 167.537 64.1396C167.537 63.0029 167.314 62.1006 166.869 61.4326C166.43 60.7588 165.753 60.4219 164.839 60.4219ZM175.192 59.209C176.341 59.209 177.193 59.4668 177.75 59.9824C178.307 60.498 178.585 61.3213 178.585 62.4521V69H177.521L177.24 67.5762H177.17C176.9 67.9277 176.619 68.2236 176.326 68.4639C176.033 68.6982 175.693 68.877 175.307 69C174.926 69.1172 174.457 69.1758 173.9 69.1758C173.314 69.1758 172.793 69.0732 172.336 68.8682C171.885 68.6631 171.527 68.3525 171.264 67.9365C171.006 67.5205 170.877 66.9932 170.877 66.3545C170.877 65.3936 171.258 64.6553 172.02 64.1396C172.781 63.624 173.941 63.3428 175.5 63.2959L177.161 63.2256V62.6367C177.161 61.8047 176.982 61.2217 176.625 60.8877C176.268 60.5537 175.764 60.3867 175.113 60.3867C174.609 60.3867 174.129 60.46 173.672 60.6064C173.215 60.7529 172.781 60.9258 172.371 61.125L171.923 60.0176C172.356 59.7949 172.854 59.6045 173.417 59.4463C173.979 59.2881 174.571 59.209 175.192 59.209ZM177.144 64.2539L175.676 64.3154C174.475 64.3623 173.628 64.5586 173.136 64.9043C172.644 65.25 172.397 65.7393 172.397 66.3721C172.397 66.9229 172.564 67.3301 172.898 67.5938C173.232 67.8574 173.675 67.9893 174.226 67.9893C175.081 67.9893 175.781 67.752 176.326 67.2773C176.871 66.8027 177.144 66.0908 177.144 65.1416V64.2539ZM184.069 59.1914C184.79 59.1914 185.414 59.291 185.941 59.4902C186.469 59.6836 186.876 59.9678 187.163 60.3428C187.45 60.7178 187.594 61.1748 187.594 61.7139C187.594 62.2939 187.436 62.7568 187.119 63.1025C186.803 63.4482 186.366 63.6973 185.81 63.8496V63.9199C186.202 64.0254 186.557 64.1777 186.873 64.377C187.195 64.5703 187.45 64.8281 187.638 65.1504C187.831 65.4668 187.928 65.8623 187.928 66.3369C187.928 66.876 187.781 67.3623 187.488 67.7959C187.195 68.2236 186.75 68.5605 186.152 68.8066C185.555 69.0527 184.799 69.1758 183.885 69.1758C183.434 69.1758 183.006 69.1494 182.602 69.0967C182.197 69.0498 181.831 68.9795 181.503 68.8857C181.175 68.792 180.888 68.6807 180.642 68.5518V67.2246C181.052 67.4238 181.532 67.5996 182.083 67.752C182.634 67.9043 183.229 67.9805 183.867 67.9805C184.359 67.9805 184.802 67.9248 185.194 67.8135C185.587 67.6963 185.897 67.5117 186.126 67.2598C186.36 67.002 186.478 66.665 186.478 66.249C186.478 65.8682 186.375 65.5547 186.17 65.3086C185.965 65.0566 185.657 64.8721 185.247 64.7549C184.843 64.6318 184.33 64.5703 183.709 64.5703H182.417V63.375H183.48C184.307 63.375 184.966 63.2578 185.458 63.0234C185.95 62.7891 186.196 62.3936 186.196 61.8369C186.196 61.3564 186.006 60.999 185.625 60.7646C185.244 60.5244 184.699 60.4043 183.99 60.4043C183.463 60.4043 182.997 60.46 182.593 60.5713C182.188 60.6768 181.752 60.8291 181.283 61.0283L180.765 59.8594C181.269 59.6367 181.796 59.4697 182.347 59.3584C182.897 59.2471 183.472 59.1914 184.069 59.1914ZM197.517 69H196.031V60.5889H193.104C192.987 62.1064 192.838 63.4072 192.656 64.4912C192.48 65.5693 192.258 66.4512 191.988 67.1367C191.725 67.8164 191.402 68.3174 191.021 68.6396C190.646 68.9561 190.198 69.1143 189.677 69.1143C189.519 69.1143 189.369 69.1055 189.229 69.0879C189.088 69.0703 188.968 69.041 188.868 69V67.8926C188.944 67.916 189.023 67.9336 189.105 67.9453C189.193 67.957 189.284 67.9629 189.378 67.9629C189.642 67.9629 189.882 67.8545 190.099 67.6377C190.321 67.415 190.521 67.0811 190.696 66.6357C190.878 66.1904 191.039 65.6279 191.18 64.9482C191.32 64.2627 191.443 63.457 191.549 62.5312C191.66 61.5996 191.757 60.5449 191.839 59.3672H197.517V69ZM201.981 59.3672V65.4229C201.981 65.54 201.979 65.6924 201.973 65.8799C201.967 66.0615 201.958 66.2578 201.946 66.4688C201.935 66.6738 201.923 66.873 201.911 67.0664C201.905 67.2539 201.896 67.4092 201.885 67.5322L207.141 59.3672H208.934V69H207.571V63.0938C207.571 62.9062 207.574 62.666 207.58 62.373C207.586 62.0801 207.595 61.793 207.606 61.5117C207.618 61.2246 207.627 61.002 207.633 60.8438L202.395 69H200.593V59.3672H201.981ZM213.311 59.3672V62.8301C213.311 63.4336 213.475 63.8789 213.803 64.166C214.137 64.4531 214.62 64.5967 215.253 64.5967C215.862 64.5967 216.416 64.5029 216.914 64.3154C217.412 64.1279 217.916 63.873 218.426 63.5508V59.3672H219.885V69H218.426V64.6846C217.887 65.0303 217.356 65.3027 216.835 65.502C216.313 65.7012 215.689 65.8008 214.963 65.8008C213.973 65.8008 213.205 65.543 212.66 65.0273C212.121 64.5117 211.852 63.8145 211.852 62.9355V59.3672H213.311ZM224.438 59.3672V63.4102H229.808V59.3672H231.267V69H229.808V64.6494H224.438V69H222.97V59.3672H224.438ZM234.36 69V59.3672H235.828V63.3398H238.465C239.285 63.3398 239.959 63.4424 240.486 63.6475C241.02 63.8525 241.415 64.1572 241.673 64.5615C241.931 64.9658 242.06 65.4668 242.06 66.0645C242.06 66.6621 241.931 67.1807 241.673 67.6201C241.421 68.0596 241.022 68.3994 240.478 68.6396C239.938 68.8799 239.235 69 238.368 69H234.36ZM235.828 67.8135H238.228C238.954 67.8135 239.534 67.6846 239.968 67.4268C240.401 67.1689 240.618 66.7383 240.618 66.1348C240.618 65.543 240.416 65.1328 240.012 64.9043C239.607 64.6699 239.027 64.5527 238.271 64.5527H235.828V67.8135ZM243.65 69V59.3672H245.109V69H243.65ZM258.363 59.3672V69H257.045V62.7246C257.045 62.4668 257.051 62.2061 257.062 61.9424C257.08 61.6729 257.101 61.4033 257.124 61.1338H257.071L253.872 69H252.633L249.513 61.1338H249.46C249.478 61.4033 249.489 61.6729 249.495 61.9424C249.507 62.2061 249.513 62.4844 249.513 62.7773V69H248.186V59.3672H250.146L253.257 67.2422L256.412 59.3672H258.363ZM262.784 59.3672V65.4229C262.784 65.54 262.781 65.6924 262.775 65.8799C262.77 66.0615 262.761 66.2578 262.749 66.4688C262.737 66.6738 262.726 66.873 262.714 67.0664C262.708 67.2539 262.699 67.4092 262.688 67.5322L267.943 59.3672H269.736V69H268.374V63.0938C268.374 62.9062 268.377 62.666 268.383 62.373C268.389 62.0801 268.397 61.793 268.409 61.5117C268.421 61.2246 268.43 61.002 268.436 60.8438L263.197 69H261.396V59.3672H262.784ZM287.684 59.3672V69H286.365V62.7246C286.365 62.4668 286.371 62.2061 286.383 61.9424C286.4 61.6729 286.421 61.4033 286.444 61.1338H286.392L283.192 69H281.953L278.833 61.1338H278.78C278.798 61.4033 278.81 61.6729 278.815 61.9424C278.827 62.2061 278.833 62.4844 278.833 62.7773V69H277.506V59.3672H279.466L282.577 67.2422L285.732 59.3672H287.684ZM294.319 59.209C295.468 59.209 296.32 59.4668 296.877 59.9824C297.434 60.498 297.712 61.3213 297.712 62.4521V69H296.648L296.367 67.5762H296.297C296.027 67.9277 295.746 68.2236 295.453 68.4639C295.16 68.6982 294.82 68.877 294.434 69C294.053 69.1172 293.584 69.1758 293.027 69.1758C292.441 69.1758 291.92 69.0732 291.463 68.8682C291.012 68.6631 290.654 68.3525 290.391 67.9365C290.133 67.5205 290.004 66.9932 290.004 66.3545C290.004 65.3936 290.385 64.6553 291.146 64.1396C291.908 63.624 293.068 63.3428 294.627 63.2959L296.288 63.2256V62.6367C296.288 61.8047 296.109 61.2217 295.752 60.8877C295.395 60.5537 294.891 60.3867 294.24 60.3867C293.736 60.3867 293.256 60.46 292.799 60.6064C292.342 60.7529 291.908 60.9258 291.498 61.125L291.05 60.0176C291.483 59.7949 291.981 59.6045 292.544 59.4463C293.106 59.2881 293.698 59.209 294.319 59.209ZM296.271 64.2539L294.803 64.3154C293.602 64.3623 292.755 64.5586 292.263 64.9043C291.771 65.25 291.524 65.7393 291.524 66.3721C291.524 66.9229 291.691 67.3301 292.025 67.5938C292.359 67.8574 292.802 67.9893 293.353 67.9893C294.208 67.9893 294.908 67.752 295.453 67.2773C295.998 66.8027 296.271 66.0908 296.271 65.1416V64.2539ZM307.283 60.6064H304.11V69H302.669V60.6064H299.54V59.3672H307.283V60.6064ZM312.899 59.1914C313.72 59.1914 314.423 59.373 315.009 59.7363C315.595 60.0996 316.043 60.6094 316.354 61.2656C316.664 61.916 316.819 62.6777 316.819 63.5508V64.4561H310.166C310.184 65.5869 310.465 66.4482 311.01 67.04C311.555 67.6318 312.322 67.9277 313.312 67.9277C313.922 67.9277 314.461 67.8721 314.93 67.7607C315.398 67.6494 315.885 67.4854 316.389 67.2686V68.5518C315.902 68.7686 315.419 68.9268 314.938 69.0264C314.464 69.126 313.901 69.1758 313.251 69.1758C312.325 69.1758 311.517 68.9883 310.825 68.6133C310.14 68.2324 309.606 67.6758 309.226 66.9434C308.845 66.2109 308.654 65.3145 308.654 64.2539C308.654 63.2168 308.827 62.3203 309.173 61.5645C309.524 60.8027 310.017 60.2168 310.649 59.8066C311.288 59.3965 312.038 59.1914 312.899 59.1914ZM312.882 60.3867C312.103 60.3867 311.481 60.6416 311.019 61.1514C310.556 61.6611 310.28 62.373 310.192 63.2871H315.29C315.284 62.7129 315.193 62.209 315.018 61.7754C314.848 61.3359 314.587 60.9961 314.235 60.7559C313.884 60.5098 313.433 60.3867 312.882 60.3867ZM323.824 59.1914C325.025 59.1914 325.983 59.6045 326.698 60.4307C327.413 61.2568 327.771 62.499 327.771 64.1572C327.771 65.2529 327.606 66.1729 327.278 66.917C326.95 67.6611 326.487 68.2236 325.89 68.6045C325.298 68.9854 324.598 69.1758 323.789 69.1758C323.279 69.1758 322.831 69.1084 322.444 68.9736C322.058 68.8389 321.727 68.6572 321.451 68.4287C321.176 68.2002 320.947 67.9512 320.766 67.6816H320.66C320.678 67.9102 320.698 68.1855 320.722 68.5078C320.751 68.8301 320.766 69.1113 320.766 69.3516V73.3066H319.298V59.3672H320.502L320.695 60.791H320.766C320.953 60.498 321.182 60.2314 321.451 59.9912C321.721 59.7451 322.049 59.5518 322.436 59.4111C322.828 59.2646 323.291 59.1914 323.824 59.1914ZM323.569 60.4219C322.901 60.4219 322.362 60.5508 321.952 60.8086C321.548 61.0664 321.252 61.4531 321.064 61.9688C320.877 62.4785 320.777 63.1201 320.766 63.8936V64.1748C320.766 64.9893 320.854 65.6777 321.029 66.2402C321.211 66.8027 321.507 67.2305 321.917 67.5234C322.333 67.8164 322.89 67.9629 323.587 67.9629C324.185 67.9629 324.683 67.8018 325.081 67.4795C325.479 67.1572 325.775 66.709 325.969 66.1348C326.168 65.5547 326.268 64.8896 326.268 64.1396C326.268 63.0029 326.045 62.1006 325.6 61.4326C325.16 60.7588 324.483 60.4219 323.569 60.4219ZM331.708 59.3672V65.4229C331.708 65.54 331.705 65.6924 331.699 65.8799C331.693 66.0615 331.685 66.2578 331.673 66.4688C331.661 66.6738 331.649 66.873 331.638 67.0664C331.632 67.2539 331.623 67.4092 331.611 67.5322L336.867 59.3672H338.66V69H337.298V63.0938C337.298 62.9062 337.301 62.666 337.307 62.373C337.312 62.0801 337.321 61.793 337.333 61.5117C337.345 61.2246 337.354 61.002 337.359 60.8438L332.121 69H330.319V59.3672H331.708ZM345.366 59.209C346.515 59.209 347.367 59.4668 347.924 59.9824C348.48 60.498 348.759 61.3213 348.759 62.4521V69H347.695L347.414 67.5762H347.344C347.074 67.9277 346.793 68.2236 346.5 68.4639C346.207 68.6982 345.867 68.877 345.48 69C345.1 69.1172 344.631 69.1758 344.074 69.1758C343.488 69.1758 342.967 69.0732 342.51 68.8682C342.059 68.6631 341.701 68.3525 341.438 67.9365C341.18 67.5205 341.051 66.9932 341.051 66.3545C341.051 65.3936 341.432 64.6553 342.193 64.1396C342.955 63.624 344.115 63.3428 345.674 63.2959L347.335 63.2256V62.6367C347.335 61.8047 347.156 61.2217 346.799 60.8877C346.441 60.5537 345.938 60.3867 345.287 60.3867C344.783 60.3867 344.303 60.46 343.846 60.6064C343.389 60.7529 342.955 60.9258 342.545 61.125L342.097 60.0176C342.53 59.7949 343.028 59.6045 343.591 59.4463C344.153 59.2881 344.745 59.209 345.366 59.209ZM347.317 64.2539L345.85 64.3154C344.648 64.3623 343.802 64.5586 343.31 64.9043C342.817 65.25 342.571 65.7393 342.571 66.3721C342.571 66.9229 342.738 67.3301 343.072 67.5938C343.406 67.8574 343.849 67.9893 344.399 67.9893C345.255 67.9893 345.955 67.752 346.5 67.2773C347.045 66.8027 347.317 66.0908 347.317 65.1416V64.2539ZM358.989 69H357.504V60.5889H354.577C354.46 62.1064 354.311 63.4072 354.129 64.4912C353.953 65.5693 353.73 66.4512 353.461 67.1367C353.197 67.8164 352.875 68.3174 352.494 68.6396C352.119 68.9561 351.671 69.1143 351.149 69.1143C350.991 69.1143 350.842 69.1055 350.701 69.0879C350.561 69.0703 350.44 69.041 350.341 69V67.8926C350.417 67.916 350.496 67.9336 350.578 67.9453C350.666 67.957 350.757 67.9629 350.851 67.9629C351.114 67.9629 351.354 67.8545 351.571 67.6377C351.794 67.415 351.993 67.0811 352.169 66.6357C352.351 66.1904 352.512 65.6279 352.652 64.9482C352.793 64.2627 352.916 63.457 353.021 62.5312C353.133 61.5996 353.229 60.5449 353.312 59.3672H358.989V69ZM365.669 59.209C366.817 59.209 367.67 59.4668 368.227 59.9824C368.783 60.498 369.062 61.3213 369.062 62.4521V69H367.998L367.717 67.5762H367.646C367.377 67.9277 367.096 68.2236 366.803 68.4639C366.51 68.6982 366.17 68.877 365.783 69C365.402 69.1172 364.934 69.1758 364.377 69.1758C363.791 69.1758 363.27 69.0732 362.812 68.8682C362.361 68.6631 362.004 68.3525 361.74 67.9365C361.482 67.5205 361.354 66.9932 361.354 66.3545C361.354 65.3936 361.734 64.6553 362.496 64.1396C363.258 63.624 364.418 63.3428 365.977 63.2959L367.638 63.2256V62.6367C367.638 61.8047 367.459 61.2217 367.102 60.8877C366.744 60.5537 366.24 60.3867 365.59 60.3867C365.086 60.3867 364.605 60.46 364.148 60.6064C363.691 60.7529 363.258 60.9258 362.848 61.125L362.399 60.0176C362.833 59.7949 363.331 59.6045 363.894 59.4463C364.456 59.2881 365.048 59.209 365.669 59.209ZM367.62 64.2539L366.152 64.3154C364.951 64.3623 364.104 64.5586 363.612 64.9043C363.12 65.25 362.874 65.7393 362.874 66.3721C362.874 66.9229 363.041 67.3301 363.375 67.5938C363.709 67.8574 364.151 67.9893 364.702 67.9893C365.558 67.9893 366.258 67.752 366.803 67.2773C367.348 66.8027 367.62 66.0908 367.62 65.1416V64.2539ZM382.236 59.3672V69H380.918V62.7246C380.918 62.4668 380.924 62.2061 380.936 61.9424C380.953 61.6729 380.974 61.4033 380.997 61.1338H380.944L377.745 69H376.506L373.386 61.1338H373.333C373.351 61.4033 373.362 61.6729 373.368 61.9424C373.38 62.2061 373.386 62.4844 373.386 62.7773V69H372.059V59.3672H374.019L377.13 67.2422L380.285 59.3672H382.236ZM386.657 59.3672V65.4229C386.657 65.54 386.654 65.6924 386.648 65.8799C386.643 66.0615 386.634 66.2578 386.622 66.4688C386.61 66.6738 386.599 66.873 386.587 67.0664C386.581 67.2539 386.572 67.4092 386.561 67.5322L391.816 59.3672H393.609V69H392.247V63.0938C392.247 62.9062 392.25 62.666 392.256 62.373C392.262 62.0801 392.271 61.793 392.282 61.5117C392.294 61.2246 392.303 61.002 392.309 60.8438L387.07 69H385.269V59.3672H386.657ZM402.776 59.3672V65.4229C402.776 65.54 402.773 65.6924 402.768 65.8799C402.762 66.0615 402.753 66.2578 402.741 66.4688C402.729 66.6738 402.718 66.873 402.706 67.0664C402.7 67.2539 402.691 67.4092 402.68 67.5322L407.936 59.3672H409.729V69H408.366V63.0938C408.366 62.9062 408.369 62.666 408.375 62.373C408.381 62.0801 408.39 61.793 408.401 61.5117C408.413 61.2246 408.422 61.002 408.428 60.8438L403.189 69H401.388V59.3672H402.776ZM89.332 84.1914C90.5332 84.1914 91.4912 84.6045 92.2061 85.4307C92.9209 86.2568 93.2783 87.499 93.2783 89.1572C93.2783 90.2529 93.1143 91.1729 92.7861 91.917C92.458 92.6611 91.9951 93.2236 91.3975 93.6045C90.8057 93.9854 90.1055 94.1758 89.2969 94.1758C88.7871 94.1758 88.3389 94.1084 87.9521 93.9736C87.5654 93.8389 87.2344 93.6572 86.959 93.4287C86.6836 93.2002 86.4551 92.9512 86.2734 92.6816H86.168C86.1855 92.9102 86.2061 93.1855 86.2295 93.5078C86.2588 93.8301 86.2734 94.1113 86.2734 94.3516V98.3066H84.8057V84.3672H86.0098L86.2031 85.791H86.2734C86.4609 85.498 86.6895 85.2314 86.959 84.9912C87.2285 84.7451 87.5566 84.5518 87.9434 84.4111C88.3359 84.2646 88.7988 84.1914 89.332 84.1914ZM89.0771 85.4219C88.4092 85.4219 87.8701 85.5508 87.46 85.8086C87.0557 86.0664 86.7598 86.4531 86.5723 86.9688C86.3848 87.4785 86.2852 88.1201 86.2734 88.8936V89.1748C86.2734 89.9893 86.3613 90.6777 86.5371 91.2402C86.7188 91.8027 87.0146 92.2305 87.4248 92.5234C87.8408 92.8164 88.3975 92.9629 89.0947 92.9629C89.6924 92.9629 90.1904 92.8018 90.5889 92.4795C90.9873 92.1572 91.2832 91.709 91.4766 91.1348C91.6758 90.5547 91.7754 89.8896 91.7754 89.1396C91.7754 88.0029 91.5527 87.1006 91.1074 86.4326C90.668 85.7588 89.9912 85.4219 89.0771 85.4219ZM99.4307 84.209C100.579 84.209 101.432 84.4668 101.988 84.9824C102.545 85.498 102.823 86.3213 102.823 87.4521V94H101.76L101.479 92.5762H101.408C101.139 92.9277 100.857 93.2236 100.564 93.4639C100.271 93.6982 99.9316 93.877 99.5449 94C99.1641 94.1172 98.6953 94.1758 98.1387 94.1758C97.5527 94.1758 97.0312 94.0732 96.5742 93.8682C96.123 93.6631 95.7656 93.3525 95.502 92.9365C95.2441 92.5205 95.1152 91.9932 95.1152 91.3545C95.1152 90.3936 95.4961 89.6553 96.2578 89.1396C97.0195 88.624 98.1797 88.3428 99.7383 88.2959L101.399 88.2256V87.6367C101.399 86.8047 101.221 86.2217 100.863 85.8877C100.506 85.5537 100.002 85.3867 99.3516 85.3867C98.8477 85.3867 98.3672 85.46 97.9102 85.6064C97.4531 85.7529 97.0195 85.9258 96.6094 86.125L96.1611 85.0176C96.5947 84.7949 97.0928 84.6045 97.6553 84.4463C98.2178 84.2881 98.8096 84.209 99.4307 84.209ZM101.382 89.2539L99.9141 89.3154C98.7129 89.3623 97.8662 89.5586 97.374 89.9043C96.8818 90.25 96.6357 90.7393 96.6357 91.3721C96.6357 91.9229 96.8027 92.3301 97.1367 92.5938C97.4707 92.8574 97.9131 92.9893 98.4639 92.9893C99.3193 92.9893 100.02 92.752 100.564 92.2773C101.109 91.8027 101.382 91.0908 101.382 90.1416V89.2539ZM108.308 84.1914C109.028 84.1914 109.652 84.291 110.18 84.4902C110.707 84.6836 111.114 84.9678 111.401 85.3428C111.688 85.7178 111.832 86.1748 111.832 86.7139C111.832 87.2939 111.674 87.7568 111.357 88.1025C111.041 88.4482 110.604 88.6973 110.048 88.8496V88.9199C110.44 89.0254 110.795 89.1777 111.111 89.377C111.434 89.5703 111.688 89.8281 111.876 90.1504C112.069 90.4668 112.166 90.8623 112.166 91.3369C112.166 91.876 112.02 92.3623 111.727 92.7959C111.434 93.2236 110.988 93.5605 110.391 93.8066C109.793 94.0527 109.037 94.1758 108.123 94.1758C107.672 94.1758 107.244 94.1494 106.84 94.0967C106.436 94.0498 106.069 93.9795 105.741 93.8857C105.413 93.792 105.126 93.6807 104.88 93.5518V92.2246C105.29 92.4238 105.771 92.5996 106.321 92.752C106.872 92.9043 107.467 92.9805 108.105 92.9805C108.598 92.9805 109.04 92.9248 109.433 92.8135C109.825 92.6963 110.136 92.5117 110.364 92.2598C110.599 92.002 110.716 91.665 110.716 91.249C110.716 90.8682 110.613 90.5547 110.408 90.3086C110.203 90.0566 109.896 89.8721 109.485 89.7549C109.081 89.6318 108.568 89.5703 107.947 89.5703H106.655V88.375H107.719C108.545 88.375 109.204 88.2578 109.696 88.0234C110.188 87.7891 110.435 87.3936 110.435 86.8369C110.435 86.3564 110.244 85.999 109.863 85.7646C109.482 85.5244 108.938 85.4043 108.229 85.4043C107.701 85.4043 107.235 85.46 106.831 85.5713C106.427 85.6768 105.99 85.8291 105.521 86.0283L105.003 84.8594C105.507 84.6367 106.034 84.4697 106.585 84.3584C107.136 84.2471 107.71 84.1914 108.308 84.1914ZM122.186 86.7842C122.186 87.3877 122.01 87.8594 121.658 88.1992C121.307 88.5332 120.853 88.7588 120.296 88.876V88.9463C120.899 89.0283 121.418 89.2451 121.852 89.5967C122.291 89.9424 122.511 90.4727 122.511 91.1875C122.511 91.7383 122.379 92.2246 122.115 92.6465C121.852 93.0684 121.438 93.3994 120.876 93.6396C120.313 93.8799 119.581 94 118.679 94H114.53V84.3672H118.644C119.335 84.3672 119.944 84.4463 120.472 84.6045C121.005 84.7568 121.424 85.0088 121.729 85.3604C122.033 85.7119 122.186 86.1865 122.186 86.7842ZM120.99 91.1875C120.99 90.6191 120.773 90.209 120.34 89.957C119.912 89.7051 119.288 89.5791 118.468 89.5791H115.998V92.8135H118.503C119.312 92.8135 119.927 92.6904 120.349 92.4443C120.776 92.1924 120.99 91.7734 120.99 91.1875ZM120.7 86.9512C120.7 86.4941 120.533 86.1543 120.199 85.9316C119.865 85.7031 119.317 85.5889 118.556 85.5889H115.998V88.3574H118.301C119.092 88.3574 119.689 88.2432 120.094 88.0146C120.498 87.7861 120.7 87.4316 120.7 86.9512ZM126.255 84.3672V90.4229C126.255 90.54 126.252 90.6924 126.246 90.8799C126.24 91.0615 126.231 91.2578 126.22 91.4688C126.208 91.6738 126.196 91.873 126.185 92.0664C126.179 92.2539 126.17 92.4092 126.158 92.5322L131.414 84.3672H133.207V94H131.845V88.0938C131.845 87.9062 131.848 87.666 131.854 87.373C131.859 87.0801 131.868 86.793 131.88 86.5117C131.892 86.2246 131.9 86.002 131.906 85.8438L126.668 94H124.866V84.3672H126.255ZM143.965 86.7842C143.965 87.3877 143.789 87.8594 143.438 88.1992C143.086 88.5332 142.632 88.7588 142.075 88.876V88.9463C142.679 89.0283 143.197 89.2451 143.631 89.5967C144.07 89.9424 144.29 90.4727 144.29 91.1875C144.29 91.7383 144.158 92.2246 143.895 92.6465C143.631 93.0684 143.218 93.3994 142.655 93.6396C142.093 93.8799 141.36 94 140.458 94H136.31V84.3672H140.423C141.114 84.3672 141.724 84.4463 142.251 84.6045C142.784 84.7568 143.203 85.0088 143.508 85.3604C143.812 85.7119 143.965 86.1865 143.965 86.7842ZM142.77 91.1875C142.77 90.6191 142.553 90.209 142.119 89.957C141.691 89.7051 141.067 89.5791 140.247 89.5791H137.777V92.8135H140.282C141.091 92.8135 141.706 92.6904 142.128 92.4443C142.556 92.1924 142.77 91.7734 142.77 91.1875ZM142.479 86.9512C142.479 86.4941 142.312 86.1543 141.979 85.9316C141.645 85.7031 141.097 85.5889 140.335 85.5889H137.777V88.3574H140.08C140.871 88.3574 141.469 88.2432 141.873 88.0146C142.277 87.7861 142.479 87.4316 142.479 86.9512ZM150.249 84.209C151.397 84.209 152.25 84.4668 152.807 84.9824C153.363 85.498 153.642 86.3213 153.642 87.4521V94H152.578L152.297 92.5762H152.227C151.957 92.9277 151.676 93.2236 151.383 93.4639C151.09 93.6982 150.75 93.877 150.363 94C149.982 94.1172 149.514 94.1758 148.957 94.1758C148.371 94.1758 147.85 94.0732 147.393 93.8682C146.941 93.6631 146.584 93.3525 146.32 92.9365C146.062 92.5205 145.934 91.9932 145.934 91.3545C145.934 90.3936 146.314 89.6553 147.076 89.1396C147.838 88.624 148.998 88.3428 150.557 88.2959L152.218 88.2256V87.6367C152.218 86.8047 152.039 86.2217 151.682 85.8877C151.324 85.5537 150.82 85.3867 150.17 85.3867C149.666 85.3867 149.186 85.46 148.729 85.6064C148.271 85.7529 147.838 85.9258 147.428 86.125L146.979 85.0176C147.413 84.7949 147.911 84.6045 148.474 84.4463C149.036 84.2881 149.628 84.209 150.249 84.209ZM152.2 89.2539L150.732 89.3154C149.531 89.3623 148.685 89.5586 148.192 89.9043C147.7 90.25 147.454 90.7393 147.454 91.3721C147.454 91.9229 147.621 92.3301 147.955 92.5938C148.289 92.8574 148.731 92.9893 149.282 92.9893C150.138 92.9893 150.838 92.752 151.383 92.2773C151.928 91.8027 152.2 91.0908 152.2 90.1416V89.2539ZM160.356 84.1914C161.177 84.1914 161.88 84.373 162.466 84.7363C163.052 85.0996 163.5 85.6094 163.811 86.2656C164.121 86.916 164.276 87.6777 164.276 88.5508V89.4561H157.623C157.641 90.5869 157.922 91.4482 158.467 92.04C159.012 92.6318 159.779 92.9277 160.77 92.9277C161.379 92.9277 161.918 92.8721 162.387 92.7607C162.855 92.6494 163.342 92.4854 163.846 92.2686V93.5518C163.359 93.7686 162.876 93.9268 162.396 94.0264C161.921 94.126 161.358 94.1758 160.708 94.1758C159.782 94.1758 158.974 93.9883 158.282 93.6133C157.597 93.2324 157.063 92.6758 156.683 91.9434C156.302 91.2109 156.111 90.3145 156.111 89.2539C156.111 88.2168 156.284 87.3203 156.63 86.5645C156.981 85.8027 157.474 85.2168 158.106 84.8066C158.745 84.3965 159.495 84.1914 160.356 84.1914ZM160.339 85.3867C159.56 85.3867 158.938 85.6416 158.476 86.1514C158.013 86.6611 157.737 87.373 157.649 88.2871H162.747C162.741 87.7129 162.65 87.209 162.475 86.7754C162.305 86.3359 162.044 85.9961 161.692 85.7559C161.341 85.5098 160.89 85.3867 160.339 85.3867ZM176.924 84.3672V94H175.605V87.7246C175.605 87.4668 175.611 87.2061 175.623 86.9424C175.641 86.6729 175.661 86.4033 175.685 86.1338H175.632L172.433 94H171.193L168.073 86.1338H168.021C168.038 86.4033 168.05 86.6729 168.056 86.9424C168.067 87.2061 168.073 87.4844 168.073 87.7773V94H166.746V84.3672H168.706L171.817 92.2422L174.973 84.3672H176.924ZM191.197 85.6064H188.024V94H186.583V85.6064H183.454V84.3672H191.197V85.6064ZM200.76 86.7842C200.76 87.3877 200.584 87.8594 200.232 88.1992C199.881 88.5332 199.427 88.7588 198.87 88.876V88.9463C199.474 89.0283 199.992 89.2451 200.426 89.5967C200.865 89.9424 201.085 90.4727 201.085 91.1875C201.085 91.7383 200.953 92.2246 200.689 92.6465C200.426 93.0684 200.013 93.3994 199.45 93.6396C198.888 93.8799 198.155 94 197.253 94H193.104V84.3672H197.218C197.909 84.3672 198.519 84.4463 199.046 84.6045C199.579 84.7568 199.998 85.0088 200.303 85.3604C200.607 85.7119 200.76 86.1865 200.76 86.7842ZM199.564 91.1875C199.564 90.6191 199.348 90.209 198.914 89.957C198.486 89.7051 197.862 89.5791 197.042 89.5791H194.572V92.8135H197.077C197.886 92.8135 198.501 92.6904 198.923 92.4443C199.351 92.1924 199.564 91.7734 199.564 91.1875ZM199.274 86.9512C199.274 86.4941 199.107 86.1543 198.773 85.9316C198.439 85.7031 197.892 85.5889 197.13 85.5889H194.572V88.3574H196.875C197.666 88.3574 198.264 88.2432 198.668 88.0146C199.072 87.7861 199.274 87.4316 199.274 86.9512ZM211.746 89.166C211.746 89.957 211.644 90.6631 211.438 91.2842C211.233 91.9053 210.938 92.4297 210.551 92.8574C210.164 93.2852 209.695 93.6133 209.145 93.8418C208.6 94.0645 207.981 94.1758 207.29 94.1758C206.646 94.1758 206.054 94.0645 205.515 93.8418C204.981 93.6133 204.519 93.2852 204.126 92.8574C203.739 92.4297 203.438 91.9053 203.221 91.2842C203.01 90.6631 202.904 89.957 202.904 89.166C202.904 88.1113 203.083 87.2148 203.44 86.4766C203.798 85.7324 204.308 85.167 204.97 84.7803C205.638 84.3877 206.432 84.1914 207.352 84.1914C208.23 84.1914 208.998 84.3877 209.654 84.7803C210.316 85.1729 210.829 85.7412 211.192 86.4854C211.562 87.2236 211.746 88.1172 211.746 89.166ZM204.416 89.166C204.416 89.9395 204.519 90.6104 204.724 91.1787C204.929 91.7471 205.245 92.1865 205.673 92.4971C206.101 92.8076 206.651 92.9629 207.325 92.9629C207.993 92.9629 208.541 92.8076 208.969 92.4971C209.402 92.1865 209.722 91.7471 209.927 91.1787C210.132 90.6104 210.234 89.9395 210.234 89.166C210.234 88.3984 210.132 87.7363 209.927 87.1797C209.722 86.6172 209.405 86.1836 208.978 85.8789C208.55 85.5742 207.996 85.4219 207.316 85.4219C206.314 85.4219 205.579 85.7529 205.11 86.415C204.647 87.0771 204.416 87.9941 204.416 89.166ZM218.795 84.1914C219.996 84.1914 220.954 84.6045 221.669 85.4307C222.384 86.2568 222.741 87.499 222.741 89.1572C222.741 90.2529 222.577 91.1729 222.249 91.917C221.921 92.6611 221.458 93.2236 220.86 93.6045C220.269 93.9854 219.568 94.1758 218.76 94.1758C218.25 94.1758 217.802 94.1084 217.415 93.9736C217.028 93.8389 216.697 93.6572 216.422 93.4287C216.146 93.2002 215.918 92.9512 215.736 92.6816H215.631C215.648 92.9102 215.669 93.1855 215.692 93.5078C215.722 93.8301 215.736 94.1113 215.736 94.3516V98.3066H214.269V84.3672H215.473L215.666 85.791H215.736C215.924 85.498 216.152 85.2314 216.422 84.9912C216.691 84.7451 217.02 84.5518 217.406 84.4111C217.799 84.2646 218.262 84.1914 218.795 84.1914ZM218.54 85.4219C217.872 85.4219 217.333 85.5508 216.923 85.8086C216.519 86.0664 216.223 86.4531 216.035 86.9688C215.848 87.4785 215.748 88.1201 215.736 88.8936V89.1748C215.736 89.9893 215.824 90.6777 216 91.2402C216.182 91.8027 216.478 92.2305 216.888 92.5234C217.304 92.8164 217.86 92.9629 218.558 92.9629C219.155 92.9629 219.653 92.8018 220.052 92.4795C220.45 92.1572 220.746 91.709 220.939 91.1348C221.139 90.5547 221.238 89.8896 221.238 89.1396C221.238 88.0029 221.016 87.1006 220.57 86.4326C220.131 85.7588 219.454 85.4219 218.54 85.4219ZM226.564 84.3672V87.8301C226.564 88.4336 226.729 88.8789 227.057 89.166C227.391 89.4531 227.874 89.5967 228.507 89.5967C229.116 89.5967 229.67 89.5029 230.168 89.3154C230.666 89.1279 231.17 88.873 231.68 88.5508V84.3672H233.139V94H231.68V89.6846C231.141 90.0303 230.61 90.3027 230.089 90.502C229.567 90.7012 228.943 90.8008 228.217 90.8008C227.227 90.8008 226.459 90.543 225.914 90.0273C225.375 89.5117 225.105 88.8145 225.105 87.9355V84.3672H226.564ZM239.933 84.1914C240.753 84.1914 241.456 84.373 242.042 84.7363C242.628 85.0996 243.076 85.6094 243.387 86.2656C243.697 86.916 243.853 87.6777 243.853 88.5508V89.4561H237.199C237.217 90.5869 237.498 91.4482 238.043 92.04C238.588 92.6318 239.355 92.9277 240.346 92.9277C240.955 92.9277 241.494 92.8721 241.963 92.7607C242.432 92.6494 242.918 92.4854 243.422 92.2686V93.5518C242.936 93.7686 242.452 93.9268 241.972 94.0264C241.497 94.126 240.935 94.1758 240.284 94.1758C239.358 94.1758 238.55 93.9883 237.858 93.6133C237.173 93.2324 236.64 92.6758 236.259 91.9434C235.878 91.2109 235.688 90.3145 235.688 89.2539C235.688 88.2168 235.86 87.3203 236.206 86.5645C236.558 85.8027 237.05 85.2168 237.683 84.8066C238.321 84.3965 239.071 84.1914 239.933 84.1914ZM239.915 85.3867C239.136 85.3867 238.515 85.6416 238.052 86.1514C237.589 86.6611 237.313 87.373 237.226 88.2871H242.323C242.317 87.7129 242.227 87.209 242.051 86.7754C241.881 86.3359 241.62 85.9961 241.269 85.7559C240.917 85.5098 240.466 85.3867 239.915 85.3867ZM250.189 94.1758C249.322 94.1758 248.558 93.9971 247.896 93.6396C247.233 93.2822 246.718 92.7373 246.349 92.0049C245.979 91.2725 245.795 90.3496 245.795 89.2363C245.795 88.0703 245.988 87.1182 246.375 86.3799C246.768 85.6357 247.307 85.085 247.992 84.7275C248.678 84.3701 249.457 84.1914 250.33 84.1914C250.811 84.1914 251.273 84.2412 251.719 84.3408C252.17 84.4346 252.539 84.5547 252.826 84.7012L252.387 85.9229C252.094 85.8057 251.754 85.7002 251.367 85.6064C250.986 85.5127 250.629 85.4658 250.295 85.4658C249.627 85.4658 249.07 85.6094 248.625 85.8965C248.186 86.1836 247.854 86.6055 247.632 87.1621C247.415 87.7188 247.307 88.4043 247.307 89.2188C247.307 89.998 247.412 90.6631 247.623 91.2139C247.84 91.7646 248.159 92.1865 248.581 92.4795C249.009 92.7666 249.542 92.9102 250.181 92.9102C250.69 92.9102 251.15 92.8574 251.561 92.752C251.971 92.6406 252.343 92.5117 252.677 92.3652V93.666C252.354 93.8301 251.994 93.9561 251.596 94.0439C251.203 94.1318 250.734 94.1758 250.189 94.1758ZM260.578 84.3672H262.187L258.029 89.0166L262.521 94H260.807L256.43 89.1133V94H254.962V84.3672H256.43V89.043L260.578 84.3672ZM272.566 89.166C272.566 89.957 272.464 90.6631 272.259 91.2842C272.054 91.9053 271.758 92.4297 271.371 92.8574C270.984 93.2852 270.516 93.6133 269.965 93.8418C269.42 94.0645 268.802 94.1758 268.11 94.1758C267.466 94.1758 266.874 94.0645 266.335 93.8418C265.802 93.6133 265.339 93.2852 264.946 92.8574C264.56 92.4297 264.258 91.9053 264.041 91.2842C263.83 90.6631 263.725 89.957 263.725 89.166C263.725 88.1113 263.903 87.2148 264.261 86.4766C264.618 85.7324 265.128 85.167 265.79 84.7803C266.458 84.3877 267.252 84.1914 268.172 84.1914C269.051 84.1914 269.818 84.3877 270.475 84.7803C271.137 85.1729 271.649 85.7412 272.013 86.4854C272.382 87.2236 272.566 88.1172 272.566 89.166ZM265.236 89.166C265.236 89.9395 265.339 90.6104 265.544 91.1787C265.749 91.7471 266.065 92.1865 266.493 92.4971C266.921 92.8076 267.472 92.9629 268.146 92.9629C268.813 92.9629 269.361 92.8076 269.789 92.4971C270.223 92.1865 270.542 91.7471 270.747 91.1787C270.952 90.6104 271.055 89.9395 271.055 89.166C271.055 88.3984 270.952 87.7363 270.747 87.1797C270.542 86.6172 270.226 86.1836 269.798 85.8789C269.37 85.5742 268.816 85.4219 268.137 85.4219C267.135 85.4219 266.399 85.7529 265.931 86.415C265.468 87.0771 265.236 87.9941 265.236 89.166ZM278.798 84.1914C279.618 84.1914 280.321 84.373 280.907 84.7363C281.493 85.0996 281.941 85.6094 282.252 86.2656C282.562 86.916 282.718 87.6777 282.718 88.5508V89.4561H276.064C276.082 90.5869 276.363 91.4482 276.908 92.04C277.453 92.6318 278.221 92.9277 279.211 92.9277C279.82 92.9277 280.359 92.8721 280.828 92.7607C281.297 92.6494 281.783 92.4854 282.287 92.2686V93.5518C281.801 93.7686 281.317 93.9268 280.837 94.0264C280.362 94.126 279.8 94.1758 279.149 94.1758C278.224 94.1758 277.415 93.9883 276.724 93.6133C276.038 93.2324 275.505 92.6758 275.124 91.9434C274.743 91.2109 274.553 90.3145 274.553 89.2539C274.553 88.2168 274.726 87.3203 275.071 86.5645C275.423 85.8027 275.915 85.2168 276.548 84.8066C277.187 84.3965 277.937 84.1914 278.798 84.1914ZM278.78 85.3867C278.001 85.3867 277.38 85.6416 276.917 86.1514C276.454 86.6611 276.179 87.373 276.091 88.2871H281.188C281.183 87.7129 281.092 87.209 280.916 86.7754C280.746 86.3359 280.485 85.9961 280.134 85.7559C279.782 85.5098 279.331 85.3867 278.78 85.3867ZM300.041 84.3672V94H298.723V87.7246C298.723 87.4668 298.729 87.2061 298.74 86.9424C298.758 86.6729 298.778 86.4033 298.802 86.1338H298.749L295.55 94H294.311L291.19 86.1338H291.138C291.155 86.4033 291.167 86.6729 291.173 86.9424C291.185 87.2061 291.19 87.4844 291.19 87.7773V94H289.863V84.3672H291.823L294.935 92.2422L298.09 84.3672H300.041ZM303.073 94V84.3672H304.541V88.3398H307.178C307.998 88.3398 308.672 88.4424 309.199 88.6475C309.732 88.8525 310.128 89.1572 310.386 89.5615C310.644 89.9658 310.772 90.4668 310.772 91.0645C310.772 91.6621 310.644 92.1807 310.386 92.6201C310.134 93.0596 309.735 93.3994 309.19 93.6396C308.651 93.8799 307.948 94 307.081 94H303.073ZM304.541 92.8135H306.94C307.667 92.8135 308.247 92.6846 308.681 92.4268C309.114 92.1689 309.331 91.7383 309.331 91.1348C309.331 90.543 309.129 90.1328 308.725 89.9043C308.32 89.6699 307.74 89.5527 306.984 89.5527H304.541V92.8135ZM312.363 94V84.3672H313.822V94H312.363ZM329.827 84.3672V94H316.907V84.3672H318.366V92.7607H322.629V84.3672H324.097V92.7607H328.368V84.3672H329.827ZM340.146 94H338.66V85.5889H335.733C335.616 87.1064 335.467 88.4072 335.285 89.4912C335.109 90.5693 334.887 91.4512 334.617 92.1367C334.354 92.8164 334.031 93.3174 333.65 93.6396C333.275 93.9561 332.827 94.1143 332.306 94.1143C332.147 94.1143 331.998 94.1055 331.857 94.0879C331.717 94.0703 331.597 94.041 331.497 94V92.8926C331.573 92.916 331.652 92.9336 331.734 92.9453C331.822 92.957 331.913 92.9629 332.007 92.9629C332.271 92.9629 332.511 92.8545 332.728 92.6377C332.95 92.415 333.149 92.0811 333.325 91.6357C333.507 91.1904 333.668 90.6279 333.809 89.9482C333.949 89.2627 334.072 88.457 334.178 87.5312C334.289 86.5996 334.386 85.5449 334.468 84.3672H340.146V94ZM346.931 84.1914C347.751 84.1914 348.454 84.373 349.04 84.7363C349.626 85.0996 350.074 85.6094 350.385 86.2656C350.695 86.916 350.851 87.6777 350.851 88.5508V89.4561H344.197C344.215 90.5869 344.496 91.4482 345.041 92.04C345.586 92.6318 346.354 92.9277 347.344 92.9277C347.953 92.9277 348.492 92.8721 348.961 92.7607C349.43 92.6494 349.916 92.4854 350.42 92.2686V93.5518C349.934 93.7686 349.45 93.9268 348.97 94.0264C348.495 94.126 347.933 94.1758 347.282 94.1758C346.356 94.1758 345.548 93.9883 344.856 93.6133C344.171 93.2324 343.638 92.6758 343.257 91.9434C342.876 91.2109 342.686 90.3145 342.686 89.2539C342.686 88.2168 342.858 87.3203 343.204 86.5645C343.556 85.8027 344.048 85.2168 344.681 84.8066C345.319 84.3965 346.069 84.1914 346.931 84.1914ZM346.913 85.3867C346.134 85.3867 345.513 85.6416 345.05 86.1514C344.587 86.6611 344.312 87.373 344.224 88.2871H349.321C349.315 87.7129 349.225 87.209 349.049 86.7754C348.879 86.3359 348.618 85.9961 348.267 85.7559C347.915 85.5098 347.464 85.3867 346.913 85.3867ZM354.797 84.3672V88.4102H360.167V84.3672H361.626V94H360.167V89.6494H354.797V94H353.329V84.3672H354.797ZM366.108 84.3672V90.4229C366.108 90.54 366.105 90.6924 366.1 90.8799C366.094 91.0615 366.085 91.2578 366.073 91.4688C366.062 91.6738 366.05 91.873 366.038 92.0664C366.032 92.2539 366.023 92.4092 366.012 92.5322L371.268 84.3672H373.061V94H371.698V88.0938C371.698 87.9062 371.701 87.666 371.707 87.373C371.713 87.0801 371.722 86.793 371.733 86.5117C371.745 86.2246 371.754 86.002 371.76 85.8438L366.521 94H364.72V84.3672H366.108ZM379.872 84.1914C380.692 84.1914 381.396 84.373 381.981 84.7363C382.567 85.0996 383.016 85.6094 383.326 86.2656C383.637 86.916 383.792 87.6777 383.792 88.5508V89.4561H377.139C377.156 90.5869 377.438 91.4482 377.982 92.04C378.527 92.6318 379.295 92.9277 380.285 92.9277C380.895 92.9277 381.434 92.8721 381.902 92.7607C382.371 92.6494 382.857 92.4854 383.361 92.2686V93.5518C382.875 93.7686 382.392 93.9268 381.911 94.0264C381.437 94.126 380.874 94.1758 380.224 94.1758C379.298 94.1758 378.489 93.9883 377.798 93.6133C377.112 93.2324 376.579 92.6758 376.198 91.9434C375.817 91.2109 375.627 90.3145 375.627 89.2539C375.627 88.2168 375.8 87.3203 376.146 86.5645C376.497 85.8027 376.989 85.2168 377.622 84.8066C378.261 84.3965 379.011 84.1914 379.872 84.1914ZM379.854 85.3867C379.075 85.3867 378.454 85.6416 377.991 86.1514C377.528 86.6611 377.253 87.373 377.165 88.2871H382.263C382.257 87.7129 382.166 87.209 381.99 86.7754C381.82 86.3359 381.56 85.9961 381.208 85.7559C380.856 85.5098 380.405 85.3867 379.854 85.3867Z" fill="#16578D"></path> </g> <defs> <filter id="filter0_d_332_490" x="0" y="0" width="468" height="125" filterUnits="userSpaceOnUse" color-interpolation-filters="sRGB"> <feFlood flood-opacity="0" result="BackgroundImageFix"></feFlood> <feColorMatrix in="SourceAlpha" type="matrix" values="0 0 0 0 0 0 0 0 0 0 0 0 0 0 0 0 0 0 127 0" result="hardAlpha"></feColorMatrix> <feOffset dy="4"></feOffset> <feGaussianBlur stdDeviation="2"></feGaussianBlur> <feComposite in2="hardAlpha" operator="out"></feComposite> <feColorMatrix type="matrix" values="0 0 0 0 0.686275 0 0 0 0 0.843137 0 0 0 0 0.968627 0 0 0 0.74 0"></feColorMatrix> <feBlend mode="normal" in2="BackgroundImageFix" result="effect1_dropShadow_332_490"></feBlend> <feBlend mode="normal" in="SourceGraphic" in2="effect1_dropShadow_332_490" result="shape"></feBlend> </filter> </defs> </svg> 