<?xml version="1.0" encoding="UTF-8"?> <svg xmlns="http://www.w3.org/2000/svg" width="468" height="186" viewBox="0 0 468 186" fill="none"> <g filter="url(#filter0_d_332_487)"> <rect x="4" width="460" height="178" rx="89" fill="#D2B9FC"></rect> <path d="M92.4727 42.1094H95.9297L95.543 43.9141C96.3555 43.2266 97.2891 42.8828 98.3438 42.8828C99.2422 42.8828 99.9375 43.1562 100.43 43.7031C100.992 44.3438 101.273 45.332 101.273 46.668C101.273 47.957 101.109 49.168 100.781 50.3008C100.367 51.7461 99.7656 52.8672 98.9766 53.6641C98.0078 54.6484 96.8047 55.1406 95.3672 55.1406C94.8125 55.1406 94.3555 55.0547 93.9961 54.8828C93.7227 54.7578 93.5 54.5586 93.3281 54.2852L92.0859 60.1328L88.4648 61L92.4727 42.1094ZM94.6289 53.0547C95.4023 53.0547 96.0664 52.6602 96.6211 51.8711C97.0586 51.2539 97.4102 50.3867 97.6758 49.2695C97.8867 48.3711 97.9922 47.4805 97.9922 46.5977C97.9922 45.8086 97.8477 45.2461 97.5586 44.9102C97.3711 44.707 97.1133 44.6055 96.7852 44.6055C96.4961 44.6055 96.2031 44.707 95.9062 44.9102C95.6094 45.1133 95.3516 45.4062 95.1328 45.7891L93.7148 52.5039C93.7695 52.6602 93.8711 52.793 94.0195 52.9023C94.1758 53.0039 94.3789 53.0547 94.6289 53.0547ZM105.129 55.1406C104.215 55.1406 103.477 54.8555 102.914 54.2852C102.258 53.6133 101.93 52.6133 101.93 51.2852C101.93 50.7227 101.988 50.1289 102.105 49.5039C102.215 48.8789 102.379 48.2617 102.598 47.6523C103.098 46.2773 103.781 45.168 104.648 44.3242C105.648 43.3633 106.801 42.8828 108.105 42.8828C108.754 42.8828 109.238 42.9961 109.559 43.2227C109.887 43.4414 110.051 43.7344 110.051 44.1016V44.2773L110.309 43H113.766L112.043 51.1562C111.973 51.3906 111.938 51.6484 111.938 51.9297C111.938 52.6172 112.266 52.9609 112.922 52.9609C113.359 52.9609 113.758 52.7383 114.117 52.293C114.422 51.918 114.672 51.3867 114.867 50.6992H115.875C115.445 51.918 114.926 52.8828 114.316 53.5938C113.801 54.1797 113.219 54.6016 112.57 54.8594C112.094 55.0469 111.59 55.1406 111.059 55.1406C110.379 55.1406 109.836 54.957 109.43 54.5898C109.031 54.2148 108.789 53.6641 108.703 52.9375C108.25 53.5781 107.773 54.0781 107.273 54.4375C106.633 54.9062 105.918 55.1406 105.129 55.1406ZM106.688 52.8203C106.867 52.8203 107.055 52.7734 107.25 52.6797C107.453 52.5859 107.648 52.4531 107.836 52.2812C108.258 51.875 108.539 51.3477 108.68 50.6992L109.828 45.2852C109.828 45.207 109.809 45.1172 109.77 45.0156C109.738 44.9062 109.691 44.8047 109.629 44.7109C109.441 44.4844 109.18 44.3711 108.844 44.3711C108.523 44.3711 108.211 44.4766 107.906 44.6875C107.609 44.8984 107.328 45.1914 107.062 45.5664C106.594 46.2461 106.207 47.1328 105.902 48.2266C105.762 48.7109 105.656 49.1914 105.586 49.668C105.516 50.1367 105.48 50.5625 105.48 50.9453C105.48 51.7422 105.629 52.2812 105.926 52.5625C106.027 52.6719 106.141 52.7422 106.266 52.7734C106.391 52.8047 106.531 52.8203 106.688 52.8203ZM118.91 61C118.152 61 117.523 60.8047 117.023 60.4141C116.773 60.2188 116.578 59.9727 116.438 59.6758C116.297 59.3867 116.227 59.0508 116.227 58.668C116.227 57.793 116.629 57.0312 117.434 56.3828C118.051 55.8984 118.902 55.4844 119.988 55.1406C119.941 53.4453 119.367 52.5977 118.266 52.5977H117.516L117.832 51.1562H118.523C118.945 51.1562 119.34 51.0508 119.707 50.8398C120.074 50.6289 120.391 50.332 120.656 49.9492C120.914 49.5664 121.113 49.125 121.254 48.625C121.402 48.125 121.477 47.5938 121.477 47.0312C121.477 46.4453 121.387 45.9844 121.207 45.6484C120.965 45.1953 120.566 44.9688 120.012 44.9688C119.129 44.9688 118.363 45.4062 117.715 46.2812C117.004 47.2344 116.395 48.707 115.887 50.6992H114.879C115.105 49.8164 115.309 49.0703 115.488 48.4609C115.668 47.8438 115.867 47.2695 116.086 46.7383C116.594 45.4727 117.227 44.5195 117.984 43.8789C118.859 43.1523 119.969 42.7891 121.312 42.7891C121.883 42.7891 122.402 42.875 122.871 43.0469C123.34 43.2109 123.738 43.4531 124.066 43.7734C124.754 44.4609 125.098 45.4023 125.098 46.5977C125.098 47.543 124.848 48.4531 124.348 49.3281C123.949 50.0312 123.426 50.6367 122.777 51.1445C122.504 51.3555 122.242 51.5273 121.992 51.6602C121.75 51.793 121.547 51.875 121.383 51.9062C121.773 52.0391 122.156 52.3125 122.531 52.7266C122.938 53.1875 123.211 53.7148 123.352 54.3086C123.797 54.1836 124.188 54.0312 124.523 53.8516C124.867 53.6719 125.176 53.4492 125.449 53.1836C125.73 52.9102 125.98 52.5742 126.199 52.1758C126.426 51.7695 126.637 51.2773 126.832 50.6992H127.84C127.418 52.1445 126.754 53.2656 125.848 54.0625C125.191 54.6328 124.391 55.0352 123.445 55.2695C123.43 56.168 123.309 56.9727 123.082 57.6836C122.863 58.3945 122.555 58.9961 122.156 59.4883C121.758 59.9805 121.281 60.3555 120.727 60.6133C120.18 60.8711 119.574 61 118.91 61ZM118.359 59.125C118.523 59.125 118.691 59.0508 118.863 58.9023C119.035 58.7539 119.191 58.5469 119.332 58.2812C119.621 57.7422 119.816 57.082 119.918 56.3008C119.176 56.5664 118.625 56.8359 118.266 57.1094C117.781 57.4922 117.539 57.9023 117.539 58.3398C117.539 58.5742 117.609 58.7617 117.75 58.9023C117.891 59.0508 118.094 59.125 118.359 59.125ZM130.477 55.0938C129.164 55.0938 128.156 54.6875 127.453 53.875C126.812 53.1328 126.492 52.1016 126.492 50.7812C126.492 50.3516 126.543 49.8242 126.645 49.1992C126.738 48.5664 126.875 47.8867 127.055 47.1602C127.445 45.5977 127.965 44.0703 128.613 42.5781C129.332 40.9375 130.121 39.625 130.98 38.6406C131.949 37.5312 132.934 36.9766 133.934 36.9766C134.77 36.9766 135.41 37.2266 135.855 37.7266C136.332 38.2734 136.57 39.1211 136.57 40.2695C136.57 41.1758 136.348 42.2031 135.902 43.3516C135.566 44.2188 135.137 45.1094 134.613 46.0234C134.949 46.1875 135.25 46.4258 135.516 46.7383C136.211 46.7383 137 46.5742 137.883 46.2461C138.672 45.9648 139.348 45.625 139.91 45.2266L140.133 45.8828C139.688 46.3516 139.113 46.7578 138.41 47.1016C137.707 47.4375 136.926 47.6797 136.066 47.8281C136.152 48.125 136.195 48.5234 136.195 49.0234C136.195 49.8203 136.066 50.582 135.809 51.3086C135.551 52.0352 135.176 52.6797 134.684 53.2422C134.176 53.8281 133.562 54.2852 132.844 54.6133C132.133 54.9336 131.344 55.0938 130.477 55.0938ZM131.531 52.9375C131.906 52.9375 132.25 52.8398 132.562 52.6445C132.875 52.4492 133.141 52.1797 133.359 51.8359C133.57 51.5156 133.73 51.1602 133.84 50.7695C133.949 50.3711 134.004 49.9727 134.004 49.5742C134.004 48.9805 133.934 48.543 133.793 48.2617C133.637 48.3164 133.504 48.3555 133.395 48.3789C133.293 48.3945 133.137 48.4023 132.926 48.4023C132.543 48.4023 132.238 48.2969 132.012 48.0859C131.793 47.875 131.684 47.5859 131.684 47.2188C131.684 46.7422 131.844 46.3828 132.164 46.1406C132.422 45.9453 132.82 45.8281 133.359 45.7891C133.789 45.0156 134.176 44.1055 134.52 43.0586C134.863 41.9883 135.035 41.0234 135.035 40.1641C135.035 39.6797 134.973 39.3398 134.848 39.1445C134.73 38.9492 134.531 38.8516 134.25 38.8516C134 38.8516 133.746 38.9844 133.488 39.25C133.23 39.5156 132.977 39.8867 132.727 40.3633C132.273 41.2461 131.828 42.4219 131.391 43.8906C131.016 45.1328 130.695 46.4688 130.43 47.8984C130.188 49.1797 130.066 50.1641 130.066 50.8516C130.066 51.5 130.18 52 130.406 52.3516C130.648 52.7422 131.023 52.9375 131.531 52.9375ZM139.992 55.1406C139.227 55.1406 138.621 54.9141 138.176 54.4609C137.676 53.9609 137.426 53.2305 137.426 52.2695C137.426 51.8164 137.488 51.293 137.613 50.6992L139.242 43H142.699L140.977 51.1562C140.93 51.3984 140.906 51.625 140.906 51.8359C140.906 52.4922 141.145 52.8203 141.621 52.8203C142.059 52.8203 142.453 52.6211 142.805 52.2227C143.086 51.8867 143.332 51.3789 143.543 50.6992L145.172 43H148.629L146.906 51.1562C146.836 51.3906 146.801 51.6484 146.801 51.9297C146.801 52.2578 146.879 52.4883 147.035 52.6211C147.191 52.7539 147.441 52.8203 147.785 52.8203C148.23 52.8203 148.629 52.6211 148.98 52.2227C149.293 51.8711 149.543 51.3633 149.73 50.6992H150.738C150.309 51.918 149.789 52.8828 149.18 53.5938C148.664 54.1797 148.082 54.6016 147.434 54.8594C146.957 55.0469 146.453 55.1406 145.922 55.1406C145.234 55.1406 144.688 54.9492 144.281 54.5664C143.875 54.1836 143.629 53.6172 143.543 52.8672C142.996 53.7422 142.379 54.3672 141.691 54.7422C141.199 55.0078 140.633 55.1406 139.992 55.1406ZM164.32 55.1406C163.328 55.1406 162.594 54.8594 162.117 54.2969C161.703 53.8125 161.496 53.1914 161.496 52.4336C161.496 52.0742 161.539 51.6562 161.625 51.1797C161.719 50.7031 161.855 50.0898 162.035 49.3398C162.215 48.5742 162.348 47.9648 162.434 47.5117C162.527 47.0508 162.574 46.6523 162.574 46.3164C162.574 45.4961 162.285 45.0859 161.707 45.0859C161.301 45.0859 160.926 45.3008 160.582 45.7305C160.293 46.0977 160.043 46.6211 159.832 47.3008L158.203 55H154.746L156.504 46.7148C156.551 46.5273 156.574 46.3281 156.574 46.1172C156.574 45.7969 156.523 45.5508 156.422 45.3789C156.289 45.168 156.098 45.0625 155.848 45.0625C155.395 45.0625 155 45.2812 154.664 45.7188C154.367 46.0938 154.113 46.6211 153.902 47.3008L152.273 55H148.816L151.359 43H154.816L154.559 44.2422C155.027 43.7188 155.539 43.3477 156.094 43.1289C156.531 42.9648 156.996 42.8828 157.488 42.8828C158.16 42.8828 158.695 43.0391 159.094 43.3516C159.539 43.7031 159.824 44.2344 159.949 44.9453C160.465 44.1484 161.059 43.5859 161.73 43.2578C162.207 43.0234 162.727 42.9062 163.289 42.9062C164.094 42.9062 164.73 43.1172 165.199 43.5391C165.699 44 165.949 44.6914 165.949 45.6133C165.949 46.1367 165.852 46.8594 165.656 47.7812C165.578 48.1641 165.484 48.5508 165.375 48.9414C165.18 49.6914 165.02 50.3828 164.895 51.0156C164.832 51.3438 164.801 51.6094 164.801 51.8125C164.801 52.1328 164.871 52.3828 165.012 52.5625C165.16 52.7344 165.41 52.8203 165.762 52.8203C166.238 52.8203 166.641 52.625 166.969 52.2344C167.219 51.9375 167.488 51.4258 167.777 50.6992H168.785C168.191 52.457 167.441 53.6875 166.535 54.3906C165.895 54.8906 165.156 55.1406 164.32 55.1406ZM170.156 55.1406C169.391 55.1406 168.785 54.9141 168.34 54.4609C167.84 53.9609 167.59 53.2305 167.59 52.2695C167.59 51.8164 167.652 51.293 167.777 50.6992L169.406 43H172.863L171.141 51.1562C171.094 51.3984 171.07 51.625 171.07 51.8359C171.07 52.4922 171.309 52.8203 171.785 52.8203C172.223 52.8203 172.617 52.6211 172.969 52.2227C173.25 51.8867 173.496 51.3789 173.707 50.6992L175.336 43H178.793L177.07 51.1562C177 51.3906 176.965 51.6484 176.965 51.9297C176.965 52.2578 177.043 52.4883 177.199 52.6211C177.355 52.7539 177.605 52.8203 177.949 52.8203C178.395 52.8203 178.793 52.6211 179.145 52.2227C179.457 51.8711 179.707 51.3633 179.895 50.6992H180.902C180.473 51.918 179.953 52.8828 179.344 53.5938C178.828 54.1797 178.246 54.6016 177.598 54.8594C177.121 55.0469 176.617 55.1406 176.086 55.1406C175.398 55.1406 174.852 54.9492 174.445 54.5664C174.039 54.1836 173.793 53.6172 173.707 52.8672C173.16 53.7422 172.543 54.3672 171.855 54.7422C171.363 55.0078 170.797 55.1406 170.156 55.1406ZM183.328 55.1406C182.148 55.1406 181.238 54.8438 180.598 54.25C179.918 53.6172 179.578 52.6445 179.578 51.332C179.578 50.8398 179.629 50.293 179.73 49.6914C179.824 49.0898 179.969 48.4883 180.164 47.8867C180.383 47.2148 180.66 46.5781 180.996 45.9766C181.34 45.375 181.738 44.8438 182.191 44.3828C183.238 43.3203 184.527 42.7891 186.059 42.7891C187.035 42.7891 187.746 43.0234 188.191 43.4922C188.535 43.8594 188.707 44.3906 188.707 45.0859C188.707 45.7656 188.559 46.4062 188.262 47.0078C187.965 47.6016 187.555 48.1289 187.031 48.5898C186.508 49.043 185.914 49.4062 185.25 49.6797C184.586 49.9453 183.898 50.1016 183.188 50.1484C183.148 50.5547 183.129 50.875 183.129 51.1094C183.129 51.8906 183.277 52.4297 183.574 52.7266C183.832 52.9922 184.262 53.125 184.863 53.125C185.73 53.125 186.523 52.8906 187.242 52.4219C187.547 52.2266 187.84 51.9961 188.121 51.7305C188.402 51.457 188.73 51.1133 189.105 50.6992H189.926C189.168 51.9805 188.297 53 187.312 53.7578C186.102 54.6797 184.773 55.1406 183.328 55.1406ZM183.375 49C183.82 48.9688 184.254 48.8398 184.676 48.6133C185.098 48.3867 185.473 48.0898 185.801 47.7227C186.129 47.3477 186.387 46.9297 186.574 46.4688C186.762 46 186.855 45.5234 186.855 45.0391C186.855 44.7188 186.809 44.4766 186.715 44.3125C186.629 44.1406 186.477 44.0547 186.258 44.0547C185.969 44.0547 185.676 44.1953 185.379 44.4766C185.09 44.7578 184.809 45.1445 184.535 45.6367C184.285 46.0977 184.059 46.6211 183.855 47.207C183.652 47.793 183.492 48.3906 183.375 49ZM196.031 55.1406C195.156 55.1406 194.484 54.8555 194.016 54.2852C193.812 54.043 193.66 53.7617 193.559 53.4414C193.449 53.1133 193.395 52.7773 193.395 52.4336C193.395 51.8633 193.527 51.4023 193.793 51.0508C194.059 50.6914 194.422 50.5117 194.883 50.5117C195.258 50.5117 195.559 50.6289 195.785 50.8633C196.02 51.0898 196.137 51.3906 196.137 51.7656C196.137 52.1094 196.055 52.3828 195.891 52.5859C195.734 52.7812 195.539 52.8789 195.305 52.8789C195.25 52.8789 195.207 52.875 195.176 52.8672C195.191 53.0859 195.258 53.2539 195.375 53.3711C195.531 53.543 195.777 53.6289 196.113 53.6289C196.488 53.6289 196.797 53.5078 197.039 53.2656C197.281 53.0234 197.488 52.6719 197.66 52.2109C197.824 51.7422 197.961 51.2422 198.07 50.7109C198.148 50.2656 198.242 49.8086 198.352 49.3398L198.434 48.9531C198.684 47.7266 198.961 46.7227 199.266 45.9414C199.578 45.1602 199.93 44.5469 200.32 44.1016C200.672 43.6875 201.066 43.4023 201.504 43.2461C201.949 43.082 202.461 43 203.039 43H206.578L205.301 48.9531L204.879 50.8047C204.777 51.2578 204.727 51.5938 204.727 51.8125C204.727 52.4844 205.047 52.8203 205.688 52.8203C205.922 52.8203 206.129 52.7812 206.309 52.7031C206.488 52.6172 206.656 52.4844 206.812 52.3047C206.953 52.1406 207.09 51.9336 207.223 51.6836C207.363 51.4336 207.523 51.1055 207.703 50.6992H208.711C207.703 53.6602 206.215 55.1406 204.246 55.1406C203.332 55.1406 202.617 54.8828 202.102 54.3672C201.875 54.1406 201.703 53.875 201.586 53.5703C201.469 53.2578 201.41 52.9336 201.41 52.5977C201.41 51.9258 201.586 50.8398 201.938 49.3398L202.992 44.582C202.57 44.582 202.211 44.668 201.914 44.8398C201.617 45.0117 201.355 45.2812 201.129 45.6484C200.91 46 200.711 46.457 200.531 47.0195C200.352 47.582 200.164 48.3047 199.969 49.1875L199.922 49.4219C199.68 50.5547 199.473 51.4258 199.301 52.0352C199.137 52.6445 198.938 53.1641 198.703 53.5938C198.414 54.1172 198.055 54.5078 197.625 54.7656C197.203 55.0156 196.672 55.1406 196.031 55.1406ZM211.219 55.0938C210.031 55.0938 209.113 54.8047 208.465 54.2266C207.738 53.5859 207.375 52.6133 207.375 51.3086C207.375 50.8164 207.426 50.2734 207.527 49.6797C207.629 49.0781 207.785 48.4727 207.996 47.8633C208.48 46.4102 209.172 45.25 210.07 44.3828C211.156 43.3203 212.449 42.7891 213.949 42.7891C216.004 42.7891 217.031 44.0664 217.031 46.6211V46.6445C217.078 46.6602 217.117 46.668 217.148 46.668H217.289C217.82 46.668 218.449 46.5195 219.176 46.2227C219.816 45.957 220.422 45.625 220.992 45.2266L221.203 45.8828C220.734 46.375 220.129 46.793 219.387 47.1367C218.652 47.4805 217.84 47.7266 216.949 47.875C216.855 48.9609 216.645 49.9531 216.316 50.8516C215.988 51.7422 215.566 52.5078 215.051 53.1484C214.543 53.7734 213.961 54.2539 213.305 54.5898C212.648 54.9258 211.953 55.0938 211.219 55.0938ZM212.18 52.9375C212.461 52.9375 212.746 52.8125 213.035 52.5625C213.332 52.3047 213.609 51.9492 213.867 51.4961C214.125 51.043 214.348 50.5117 214.535 49.9023C214.723 49.293 214.863 48.6406 214.957 47.9453C214.723 47.8828 214.555 47.7656 214.453 47.5938C214.359 47.4219 214.312 47.2031 214.312 46.9375C214.312 46.6094 214.379 46.3359 214.512 46.1172C214.645 45.8984 214.828 45.7383 215.062 45.6367C215.031 45.1289 214.949 44.7656 214.816 44.5469C214.746 44.4375 214.656 44.3594 214.547 44.3125C214.445 44.2656 214.312 44.2422 214.148 44.2422C213.609 44.2422 213.082 44.6484 212.566 45.4609C212.09 46.1953 211.699 47.1016 211.395 48.1797C211.098 49.2344 210.949 50.1719 210.949 50.9922C210.949 51.3906 210.969 51.7148 211.008 51.9648C211.055 52.2148 211.129 52.4102 211.23 52.5508C211.324 52.6914 211.445 52.793 211.594 52.8555C211.742 52.9102 211.938 52.9375 212.18 52.9375ZM221.473 55.1406C220.309 55.1406 219.406 54.9258 218.766 54.4961C218.094 54.0508 217.758 53.3633 217.758 52.4336C217.758 51.6289 218.023 50.9219 218.555 50.3125C218.766 50.0625 219.012 49.8281 219.293 49.6094C219.582 49.3906 219.918 49.1641 220.301 48.9297C220.785 48.6328 221.145 48.4062 221.379 48.25C221.621 48.0859 221.848 47.9062 222.059 47.7109C222.309 47.4688 222.5 47.2188 222.633 46.9609C222.773 46.7031 222.844 46.4141 222.844 46.0938C222.844 45.7344 222.75 45.457 222.562 45.2617C222.383 45.0664 222.109 44.9688 221.742 44.9688C221.219 44.9688 220.746 45.168 220.324 45.5664C219.91 45.9648 219.52 46.5977 219.152 47.4648H217.992C218.516 45.9727 219.156 44.8516 219.914 44.1016C220.789 43.2266 221.895 42.7891 223.23 42.7891C223.668 42.7891 224.078 42.8438 224.461 42.9531C224.852 43.0547 225.195 43.2109 225.492 43.4219C225.805 43.6484 226.043 43.9375 226.207 44.2891C226.379 44.6328 226.465 45.0352 226.465 45.4961C226.465 46.1133 226.348 46.6562 226.113 47.125C225.887 47.5859 225.566 48.0078 225.152 48.3906C224.785 48.7266 224.379 49.0312 223.934 49.3047C223.395 49.6328 222.957 49.9141 222.621 50.1484C222.285 50.375 222.004 50.6172 221.777 50.875C221.527 51.1641 221.402 51.4922 221.402 51.8594C221.402 52.3047 221.551 52.6289 221.848 52.832C222.145 53.0273 222.566 53.125 223.113 53.125C223.848 53.125 224.523 52.9453 225.141 52.5859C225.812 52.2109 226.52 51.582 227.262 50.6992H228.082C227.223 52.0742 226.312 53.1172 225.352 53.8281C224.188 54.7031 222.895 55.1406 221.473 55.1406ZM229.641 55.1406C228.875 55.1406 228.27 54.9141 227.824 54.4609C227.324 53.9609 227.074 53.2305 227.074 52.2695C227.074 51.8164 227.137 51.293 227.262 50.6992L228.891 43H232.348L230.625 51.1562C230.578 51.3984 230.555 51.625 230.555 51.8359C230.555 52.4922 230.793 52.8203 231.27 52.8203C231.707 52.8203 232.102 52.6211 232.453 52.2227C232.734 51.8867 232.98 51.3789 233.191 50.6992L234.82 43H238.277L236.555 51.1562C236.484 51.3906 236.449 51.6484 236.449 51.9297C236.449 52.2578 236.527 52.4883 236.684 52.6211C236.84 52.7539 237.09 52.8203 237.434 52.8203C237.879 52.8203 238.277 52.6211 238.629 52.2227C238.941 51.8711 239.191 51.3633 239.379 50.6992H240.387C239.957 51.918 239.438 52.8828 238.828 53.5938C238.312 54.1797 237.73 54.6016 237.082 54.8594C236.605 55.0469 236.102 55.1406 235.57 55.1406C234.883 55.1406 234.336 54.9492 233.93 54.5664C233.523 54.1836 233.277 53.6172 233.191 52.8672C232.645 53.7422 232.027 54.3672 231.34 54.7422C230.848 55.0078 230.281 55.1406 229.641 55.1406ZM248.039 55.1406C247.086 55.1406 246.363 54.9062 245.871 54.4375C245.387 53.9688 245.145 53.3164 245.145 52.4805C245.145 52.207 245.191 51.7969 245.285 51.25C245.301 51.125 245.316 51.0391 245.332 50.9922C245.348 50.8359 245.363 50.7305 245.379 50.6758C245.41 50.5195 245.426 50.3594 245.426 50.1953C245.426 49.4297 245.121 49.0469 244.512 49.0469C244.309 49.0469 244.09 49.1172 243.855 49.2578L243.469 49.5391L242.977 49.9375L241.922 55H238.465L241.031 43H244.488L243.457 47.7578C243.973 47.2422 244.473 46.7227 244.957 46.1992L245.133 46C246.062 45 246.695 44.332 247.031 43.9961C247.586 43.4414 248.109 43.082 248.602 42.918C248.875 42.832 249.16 42.7891 249.457 42.7891C249.996 42.7891 250.406 42.9375 250.688 43.2344C250.969 43.5234 251.109 43.9023 251.109 44.3711C251.109 44.8633 250.977 45.2461 250.711 45.5195C250.453 45.793 250.082 45.9297 249.598 45.9297C249.152 45.9297 248.812 45.793 248.578 45.5195C248.367 45.2852 248.27 45.0117 248.285 44.6992C248.035 44.8477 247.797 45.0234 247.57 45.2266C247.352 45.4219 247.109 45.6562 246.844 45.9297L246.609 46.1875C246.5 46.2969 246.352 46.4609 246.164 46.6797C245.969 46.9062 245.73 47.1602 245.449 47.4414C245.723 47.3789 246.059 47.3477 246.457 47.3477C247.285 47.3477 247.883 47.5391 248.25 47.9219C248.578 48.2578 248.742 48.8086 248.742 49.5742C248.742 49.832 248.695 50.2109 248.602 50.7109C248.562 50.9062 248.527 51.1133 248.496 51.332C248.465 51.543 248.449 51.7422 248.449 51.9297C248.449 52.5234 248.77 52.8203 249.41 52.8203C249.652 52.8203 249.859 52.7812 250.031 52.7031C250.211 52.6172 250.375 52.4844 250.523 52.3047C250.664 52.1406 250.801 51.9336 250.934 51.6836C251.066 51.4336 251.223 51.1055 251.402 50.6992H252.41C251.402 53.6602 249.945 55.1406 248.039 55.1406ZM253.781 55.1406C253.016 55.1406 252.41 54.9141 251.965 54.4609C251.465 53.9609 251.215 53.2305 251.215 52.2695C251.215 51.8164 251.277 51.293 251.402 50.6992L253.031 43H256.488L254.766 51.1562C254.719 51.3984 254.695 51.625 254.695 51.8359C254.695 52.4922 254.934 52.8203 255.41 52.8203C255.848 52.8203 256.242 52.6211 256.594 52.2227C256.875 51.8867 257.121 51.3789 257.332 50.6992L258.961 43H262.418L260.695 51.1562C260.625 51.3906 260.59 51.6484 260.59 51.9297C260.59 52.2578 260.668 52.4883 260.824 52.6211C260.98 52.7539 261.23 52.8203 261.574 52.8203C262.02 52.8203 262.418 52.6211 262.77 52.2227C263.082 51.8711 263.332 51.3633 263.52 50.6992H264.527C264.098 51.918 263.578 52.8828 262.969 53.5938C262.453 54.1797 261.871 54.6016 261.223 54.8594C260.746 55.0469 260.242 55.1406 259.711 55.1406C259.023 55.1406 258.477 54.9492 258.07 54.5664C257.664 54.1836 257.418 53.6172 257.332 52.8672C256.785 53.7422 256.168 54.3672 255.48 54.7422C254.988 55.0078 254.422 55.1406 253.781 55.1406ZM264.504 58.0234C264.363 57.9297 264.293 57.793 264.293 57.6133C264.293 57.4258 264.344 57.25 264.445 57.0859C264.555 56.9297 264.711 56.7461 264.914 56.5352C265.125 56.3164 265.281 56.1289 265.383 55.9727C265.484 55.8164 265.535 55.6367 265.535 55.4336C265.535 55.2461 265.43 55.0859 265.219 54.9531C264.469 54.4844 264.094 53.8984 264.094 53.1953C264.094 52.9375 264.141 52.6914 264.234 52.457C264.336 52.2227 264.473 52.0195 264.645 51.8477C264.816 51.6758 265.02 51.5391 265.254 51.4375C265.488 51.3359 265.734 51.2852 265.992 51.2852C266.516 51.2852 266.918 51.4531 267.199 51.7891C267.48 52.1172 267.621 52.5547 267.621 53.1016C267.621 53.4531 267.551 53.8477 267.41 54.2852C267.27 54.7148 267.066 55.1484 266.801 55.5859C266.527 56.0469 266.195 56.4844 265.805 56.8984C265.414 57.3203 264.98 57.6953 264.504 58.0234ZM282.562 55.1406C281.57 55.1406 280.836 54.8594 280.359 54.2969C279.945 53.8125 279.738 53.1914 279.738 52.4336C279.738 52.0742 279.781 51.6562 279.867 51.1797C279.961 50.7031 280.098 50.0898 280.277 49.3398C280.457 48.5742 280.59 47.9648 280.676 47.5117C280.77 47.0508 280.816 46.6523 280.816 46.3164C280.816 45.4961 280.527 45.0859 279.949 45.0859C279.543 45.0859 279.168 45.3008 278.824 45.7305C278.535 46.0977 278.285 46.6211 278.074 47.3008L276.445 55H272.988L275.531 43H278.988L278.73 44.2422C279.199 43.7188 279.703 43.3516 280.242 43.1406C280.641 42.9844 281.07 42.9062 281.531 42.9062C282.344 42.9062 282.984 43.1172 283.453 43.5391C283.953 44 284.203 44.6914 284.203 45.6133C284.203 46.168 284.102 46.8906 283.898 47.7812C283.844 48.0391 283.754 48.4258 283.629 48.9414C283.402 49.8086 283.238 50.5 283.137 51.0156C283.074 51.3438 283.043 51.6094 283.043 51.8125C283.043 52.1328 283.113 52.3828 283.254 52.5625C283.402 52.7344 283.652 52.8203 284.004 52.8203C284.48 52.8203 284.883 52.625 285.211 52.2344C285.461 51.9375 285.73 51.4258 286.02 50.6992H287.027C286.434 52.457 285.684 53.6875 284.777 54.3906C284.137 54.8906 283.398 55.1406 282.562 55.1406ZM288.902 55.1406C287.988 55.1406 287.25 54.8555 286.688 54.2852C286.031 53.6133 285.703 52.6133 285.703 51.2852C285.703 50.7227 285.762 50.1289 285.879 49.5039C285.988 48.8789 286.152 48.2617 286.371 47.6523C286.871 46.2773 287.555 45.168 288.422 44.3242C289.422 43.3633 290.574 42.8828 291.879 42.8828C292.527 42.8828 293.012 42.9961 293.332 43.2227C293.66 43.4414 293.824 43.7344 293.824 44.1016V44.2773L294.082 43H297.539L295.816 51.1562C295.746 51.3906 295.711 51.6484 295.711 51.9297C295.711 52.6172 296.039 52.9609 296.695 52.9609C297.133 52.9609 297.531 52.7383 297.891 52.293C298.195 51.918 298.445 51.3867 298.641 50.6992H299.648C299.219 51.918 298.699 52.8828 298.09 53.5938C297.574 54.1797 296.992 54.6016 296.344 54.8594C295.867 55.0469 295.363 55.1406 294.832 55.1406C294.152 55.1406 293.609 54.957 293.203 54.5898C292.805 54.2148 292.562 53.6641 292.477 52.9375C292.023 53.5781 291.547 54.0781 291.047 54.4375C290.406 54.9062 289.691 55.1406 288.902 55.1406ZM290.461 52.8203C290.641 52.8203 290.828 52.7734 291.023 52.6797C291.227 52.5859 291.422 52.4531 291.609 52.2812C292.031 51.875 292.312 51.3477 292.453 50.6992L293.602 45.2852C293.602 45.207 293.582 45.1172 293.543 45.0156C293.512 44.9062 293.465 44.8047 293.402 44.7109C293.215 44.4844 292.953 44.3711 292.617 44.3711C292.297 44.3711 291.984 44.4766 291.68 44.6875C291.383 44.8984 291.102 45.1914 290.836 45.5664C290.367 46.2461 289.98 47.1328 289.676 48.2266C289.535 48.7109 289.43 49.1914 289.359 49.668C289.289 50.1367 289.254 50.5625 289.254 50.9453C289.254 51.7422 289.402 52.2812 289.699 52.5625C289.801 52.6719 289.914 52.7422 290.039 52.7734C290.164 52.8047 290.305 52.8203 290.461 52.8203ZM300.375 55.1406C299.945 55.1406 299.562 55.0625 299.227 54.9062C298.891 54.7422 298.609 54.5195 298.383 54.2383C298.172 53.9805 298.012 53.6914 297.902 53.3711C297.793 53.043 297.738 52.7148 297.738 52.3867C297.738 51.8242 297.871 51.3828 298.137 51.0625C298.395 50.7422 298.758 50.582 299.227 50.582C299.602 50.582 299.902 50.6992 300.129 50.9336C300.363 51.1602 300.48 51.4609 300.48 51.8359C300.48 52.1797 300.398 52.4531 300.234 52.6562C300.078 52.8516 299.883 52.9492 299.648 52.9492C299.594 52.9492 299.551 52.9453 299.52 52.9375C299.504 53.1719 299.559 53.3672 299.684 53.5234C299.848 53.7422 300.105 53.8516 300.457 53.8516C300.863 53.8516 301.203 53.7227 301.477 53.4648C301.75 53.1992 301.977 52.8203 302.156 52.3281C302.32 51.8594 302.461 51.3359 302.578 50.7578C302.68 50.2031 302.797 49.6016 302.93 48.9531L304.195 43H307.559L308.062 52.2109L312.527 43H316.078L314.801 48.9531L314.379 50.8047C314.277 51.2578 314.227 51.5938 314.227 51.8125C314.227 52.4844 314.547 52.8203 315.188 52.8203C315.43 52.8203 315.641 52.7812 315.82 52.7031C316 52.6172 316.168 52.4844 316.324 52.3047C316.465 52.1406 316.598 51.9375 316.723 51.6953C316.855 51.4531 317.016 51.1211 317.203 50.6992H318.211C317.203 53.6602 315.715 55.1406 313.746 55.1406C312.824 55.1406 312.113 54.8828 311.613 54.3672C311.387 54.1406 311.215 53.875 311.098 53.5703C310.98 53.2578 310.922 52.9336 310.922 52.5977C310.922 51.918 311.09 50.8555 311.426 49.4102L311.801 47.6992L308.25 55H304.887L304.465 47.6758L304.148 49.1875C303.922 50.3203 303.719 51.2227 303.539 51.8945C303.359 52.5664 303.148 53.1328 302.906 53.5938C302.633 54.1094 302.293 54.4961 301.887 54.7539C301.488 55.0117 300.984 55.1406 300.375 55.1406ZM318.996 55.1406C318.145 55.1406 317.473 54.8672 316.98 54.3203C316.762 54.0781 316.594 53.793 316.477 53.4648C316.359 53.1367 316.301 52.793 316.301 52.4336C316.301 51.8633 316.434 51.4023 316.699 51.0508C316.965 50.6914 317.328 50.5117 317.789 50.5117C318.164 50.5117 318.465 50.6289 318.691 50.8633C318.926 51.0898 319.043 51.3906 319.043 51.7656C319.043 52.1094 318.961 52.3828 318.797 52.5859C318.641 52.7812 318.445 52.8789 318.211 52.8789C318.156 52.8789 318.113 52.875 318.082 52.8672C318.098 53.0781 318.168 53.2461 318.293 53.3711C318.449 53.543 318.691 53.6289 319.02 53.6289C319.293 53.6289 319.531 53.5469 319.734 53.3828C319.938 53.2109 320.117 52.9609 320.273 52.6328C320.414 52.3281 320.547 51.9609 320.672 51.5312C320.797 51.0938 320.926 50.5625 321.059 49.9375C320.355 49.7891 319.809 49.4922 319.418 49.0469C318.988 48.5547 318.773 47.9219 318.773 47.1484C318.773 45.9141 319.23 44.9414 320.145 44.2305C321.207 43.4102 322.855 43 325.09 43H328.734L327.457 48.9531L327.035 50.8047C326.934 51.2578 326.883 51.5938 326.883 51.8125C326.883 52.4844 327.203 52.8203 327.844 52.8203C328.086 52.8203 328.297 52.7812 328.477 52.7031C328.656 52.6172 328.824 52.4844 328.98 52.3047C329.121 52.1406 329.254 51.9375 329.379 51.6953C329.512 51.4531 329.672 51.1211 329.859 50.6992H330.867C329.859 53.6602 328.371 55.1406 326.402 55.1406C325.48 55.1406 324.77 54.8828 324.27 54.3672C324.043 54.1406 323.871 53.875 323.754 53.5703C323.637 53.2578 323.578 52.9336 323.578 52.5977C323.578 52.3711 323.602 52.0977 323.648 51.7773C323.695 51.4727 323.816 50.8516 324.012 49.9141C323.582 50.0078 323.133 50.0547 322.664 50.0547C322.445 50.9766 322.238 51.7344 322.043 52.3281C321.855 52.9219 321.637 53.418 321.387 53.8164C321.113 54.2617 320.781 54.5938 320.391 54.8125C320.008 55.0312 319.543 55.1406 318.996 55.1406ZM323.918 48.9297H323.977C324.031 48.9297 324.113 48.9141 324.223 48.8828L325.23 44.3008H324.656C323.727 44.3008 323.016 44.5586 322.523 45.0742C322.281 45.3164 322.098 45.6094 321.973 45.9531C321.855 46.2969 321.797 46.6719 321.797 47.0781C321.797 47.75 321.965 48.2344 322.301 48.5312C322.59 48.7969 323 48.9297 323.531 48.9297H323.918ZM344.461 55.1406C343.469 55.1406 342.734 54.8594 342.258 54.2969C341.844 53.8125 341.637 53.1914 341.637 52.4336C341.637 52.0742 341.68 51.6562 341.766 51.1797C341.859 50.7031 341.996 50.0898 342.176 49.3398C342.355 48.5742 342.488 47.9648 342.574 47.5117C342.668 47.0508 342.715 46.6523 342.715 46.3164C342.715 45.4961 342.426 45.0859 341.848 45.0859C341.441 45.0859 341.066 45.3008 340.723 45.7305C340.434 46.0977 340.184 46.6211 339.973 47.3008L338.344 55H334.887L336.645 46.7148C336.691 46.5273 336.715 46.3281 336.715 46.1172C336.715 45.7969 336.664 45.5508 336.562 45.3789C336.43 45.168 336.238 45.0625 335.988 45.0625C335.535 45.0625 335.141 45.2812 334.805 45.7188C334.508 46.0938 334.254 46.6211 334.043 47.3008L332.414 55H328.957L331.5 43H334.957L334.699 44.2422C335.168 43.7188 335.68 43.3477 336.234 43.1289C336.672 42.9648 337.137 42.8828 337.629 42.8828C338.301 42.8828 338.836 43.0391 339.234 43.3516C339.68 43.7031 339.965 44.2344 340.09 44.9453C340.605 44.1484 341.199 43.5859 341.871 43.2578C342.348 43.0234 342.867 42.9062 343.43 42.9062C344.234 42.9062 344.871 43.1172 345.34 43.5391C345.84 44 346.09 44.6914 346.09 45.6133C346.09 46.1367 345.992 46.8594 345.797 47.7812C345.719 48.1641 345.625 48.5508 345.516 48.9414C345.32 49.6914 345.16 50.3828 345.035 51.0156C344.973 51.3438 344.941 51.6094 344.941 51.8125C344.941 52.1328 345.012 52.3828 345.152 52.5625C345.301 52.7344 345.551 52.8203 345.902 52.8203C346.379 52.8203 346.781 52.625 347.109 52.2344C347.359 51.9375 347.629 51.4258 347.918 50.6992H348.926C348.332 52.457 347.582 53.6875 346.676 54.3906C346.035 54.8906 345.297 55.1406 344.461 55.1406ZM350.297 55.1406C349.531 55.1406 348.926 54.9141 348.48 54.4609C347.98 53.9609 347.73 53.2305 347.73 52.2695C347.73 51.8164 347.793 51.293 347.918 50.6992L349.547 43H353.004L351.281 51.1562C351.234 51.3984 351.211 51.625 351.211 51.8359C351.211 52.4922 351.449 52.8203 351.926 52.8203C352.363 52.8203 352.758 52.6211 353.109 52.2227C353.391 51.8867 353.637 51.3789 353.848 50.6992L355.477 43H358.934L357.211 51.1562C357.141 51.3906 357.105 51.6484 357.105 51.9297C357.105 52.2578 357.184 52.4883 357.34 52.6211C357.496 52.7539 357.746 52.8203 358.09 52.8203C358.535 52.8203 358.934 52.6211 359.285 52.2227C359.598 51.8711 359.848 51.3633 360.035 50.6992H361.043C360.613 51.918 360.094 52.8828 359.484 53.5938C358.969 54.1797 358.387 54.6016 357.738 54.8594C357.262 55.0469 356.758 55.1406 356.227 55.1406C355.539 55.1406 354.992 54.9492 354.586 54.5664C354.18 54.1836 353.934 53.6172 353.848 52.8672C353.301 53.7422 352.684 54.3672 351.996 54.7422C351.504 55.0078 350.938 55.1406 350.297 55.1406ZM367.617 55.1406C366.852 55.1406 366.246 54.9141 365.801 54.4609C365.301 53.9609 365.051 53.2305 365.051 52.2695C365.051 51.8164 365.113 51.293 365.238 50.6992L366.867 43H370.324L368.602 51.1562C368.555 51.3984 368.531 51.625 368.531 51.8359C368.531 52.4922 368.77 52.8203 369.246 52.8203C369.684 52.8203 370.078 52.6211 370.43 52.2227C370.711 51.8867 370.957 51.3789 371.168 50.6992L372.797 43H376.254L374.531 51.1562C374.461 51.3906 374.426 51.6484 374.426 51.9297C374.426 52.2578 374.504 52.4883 374.66 52.6211C374.816 52.7539 375.066 52.8203 375.41 52.8203C375.855 52.8203 376.254 52.6211 376.605 52.2227C376.918 51.8711 377.168 51.3633 377.355 50.6992H378.363C377.934 51.918 377.414 52.8828 376.805 53.5938C376.289 54.1797 375.707 54.6016 375.059 54.8594C374.582 55.0469 374.078 55.1406 373.547 55.1406C372.859 55.1406 372.312 54.9492 371.906 54.5664C371.5 54.1836 371.254 53.6172 371.168 52.8672C370.621 53.7422 370.004 54.3672 369.316 54.7422C368.824 55.0078 368.258 55.1406 367.617 55.1406ZM179.777 88.1406C179.348 88.1406 178.965 88.0625 178.629 87.9062C178.293 87.7422 178.012 87.5195 177.785 87.2383C177.574 86.9805 177.414 86.6914 177.305 86.3711C177.195 86.043 177.141 85.7148 177.141 85.3867C177.141 84.8242 177.273 84.3828 177.539 84.0625C177.797 83.7422 178.16 83.582 178.629 83.582C179.004 83.582 179.305 83.6992 179.531 83.9336C179.766 84.1602 179.883 84.4609 179.883 84.8359C179.883 85.1797 179.801 85.4531 179.637 85.6562C179.48 85.8516 179.285 85.9492 179.051 85.9492C178.996 85.9492 178.953 85.9453 178.922 85.9375C178.906 86.1719 178.961 86.3672 179.086 86.5234C179.25 86.7422 179.508 86.8516 179.859 86.8516C180.266 86.8516 180.605 86.7227 180.879 86.4648C181.152 86.1992 181.379 85.8203 181.559 85.3281C181.723 84.8594 181.863 84.3359 181.98 83.7578C182.082 83.2031 182.199 82.6016 182.332 81.9531L183.598 76H186.961L187.465 85.2109L191.93 76H195.48L194.203 81.9531L193.781 83.8047C193.68 84.2578 193.629 84.5938 193.629 84.8125C193.629 85.4844 193.949 85.8203 194.59 85.8203C194.832 85.8203 195.043 85.7812 195.223 85.7031C195.402 85.6172 195.57 85.4844 195.727 85.3047C195.867 85.1406 196 84.9375 196.125 84.6953C196.258 84.4531 196.418 84.1211 196.605 83.6992H197.613C196.605 86.6602 195.117 88.1406 193.148 88.1406C192.227 88.1406 191.516 87.8828 191.016 87.3672C190.789 87.1406 190.617 86.875 190.5 86.5703C190.383 86.2578 190.324 85.9336 190.324 85.5977C190.324 84.918 190.492 83.8555 190.828 82.4102L191.203 80.6992L187.652 88H184.289L183.867 80.6758L183.551 82.1875C183.324 83.3203 183.121 84.2227 182.941 84.8945C182.762 85.5664 182.551 86.1328 182.309 86.5938C182.035 87.1094 181.695 87.4961 181.289 87.7539C180.891 88.0117 180.387 88.1406 179.777 88.1406ZM199.91 88.1406C198.816 88.1406 197.969 87.8711 197.367 87.332C196.773 86.793 196.477 86.0391 196.477 85.0703C196.477 84.5469 196.531 84.0898 196.641 83.6992L198.223 76H201.539L199.758 84.4492C199.711 84.5586 199.688 84.6953 199.688 84.8594C199.688 85.0156 199.688 85.1016 199.688 85.1172C199.688 85.7734 200.047 86.1016 200.766 86.1016C201.086 86.1016 201.402 86 201.715 85.7969C202.027 85.5859 202.305 85.3008 202.547 84.9414C202.789 84.5742 202.98 84.1484 203.121 83.6641C203.262 83.1719 203.332 82.6562 203.332 82.1172C203.332 81.7344 203.215 81.4297 202.98 81.2031C202.777 81.3516 202.543 81.4258 202.277 81.4258C202.152 81.4258 202.027 81.4062 201.902 81.3672C201.777 81.3203 201.668 81.2578 201.574 81.1797C201.34 80.9844 201.223 80.7227 201.223 80.3945C201.223 80.0508 201.367 79.7734 201.656 79.5625C201.906 79.3828 202.211 79.293 202.57 79.293C202.938 79.293 203.266 79.3398 203.555 79.4336C204.094 79.1914 204.602 78.9414 205.078 78.6836C205.555 78.4258 206.086 78.1211 206.672 77.7695C206.75 77.7227 206.84 77.668 206.941 77.6055C207.051 77.543 207.168 77.4727 207.293 77.3945C208.184 76.8477 208.992 76.3828 209.719 76H211.207L209.941 81.9531L209.52 83.8047C209.41 84.2891 209.355 84.625 209.355 84.8125C209.355 85.4844 209.676 85.8203 210.316 85.8203C210.559 85.8203 210.77 85.7812 210.949 85.7031C211.129 85.6172 211.297 85.4844 211.453 85.3047C211.594 85.1406 211.727 84.9375 211.852 84.6953C211.984 84.4531 212.145 84.1211 212.332 83.6992H213.34C212.332 86.6602 210.855 88.1406 208.91 88.1406C207.988 88.1406 207.27 87.875 206.754 87.3438C206.527 87.1172 206.355 86.8477 206.238 86.5352C206.129 86.2227 206.074 85.8867 206.074 85.5273C206.074 85.4414 206.078 85.3672 206.086 85.3047C206.109 85.0859 206.129 84.9453 206.145 84.8828C206.199 84.4844 206.316 83.8438 206.496 82.9609C206.66 82.125 206.961 80.7266 207.398 78.7656C206.578 79.2812 205.68 79.8008 204.703 80.3242C205.086 80.918 205.277 81.7148 205.277 82.7148C205.277 83.0586 205.23 83.4336 205.137 83.8398C205.043 84.2383 204.906 84.6289 204.727 85.0117C204.289 85.9258 203.707 86.6484 202.98 87.1797C202.09 87.8203 201.066 88.1406 199.91 88.1406ZM214.723 88.1406C213.957 88.1406 213.352 87.9141 212.906 87.4609C212.406 86.9609 212.156 86.2305 212.156 85.2695C212.156 84.8164 212.219 84.293 212.344 83.6992L213.973 76H217.43L215.707 84.1562C215.66 84.3984 215.637 84.625 215.637 84.8359C215.637 85.4922 215.875 85.8203 216.352 85.8203C216.789 85.8203 217.184 85.6211 217.535 85.2227C217.816 84.8867 218.062 84.3789 218.273 83.6992L219.902 76H223.359L221.637 84.1562C221.582 84.3672 221.555 84.5938 221.555 84.8359C221.555 85.4922 221.797 85.8203 222.281 85.8203C222.719 85.8203 223.113 85.6211 223.465 85.2227C223.746 84.8867 223.992 84.3789 224.203 83.6992L225.832 76H229.289L227.555 84.1562C227.492 84.3594 227.461 84.6172 227.461 84.9297C227.461 85.2578 227.539 85.4883 227.695 85.6211C227.852 85.7539 228.102 85.8203 228.445 85.8203C228.891 85.8203 229.289 85.6211 229.641 85.2227C229.938 84.8711 230.188 84.3633 230.391 83.6992H231.398C230.805 85.4258 229.992 86.6562 228.961 87.3906C228.242 87.8906 227.445 88.1406 226.57 88.1406C225.883 88.1406 225.336 87.9492 224.93 87.5664C224.531 87.1836 224.289 86.6172 224.203 85.8672C223.656 86.7422 223.039 87.3672 222.352 87.7422C221.859 88.0078 221.293 88.1406 220.652 88.1406C219.965 88.1406 219.418 87.9492 219.012 87.5664C218.605 87.1836 218.359 86.6172 218.273 85.8672C217.727 86.7422 217.109 87.3672 216.422 87.7422C215.93 88.0078 215.363 88.1406 214.723 88.1406ZM232.113 88.1406C231.238 88.1406 230.566 87.8555 230.098 87.2852C229.895 87.043 229.742 86.7617 229.641 86.4414C229.531 86.1133 229.477 85.7773 229.477 85.4336C229.477 84.8633 229.609 84.4023 229.875 84.0508C230.141 83.6914 230.504 83.5117 230.965 83.5117C231.34 83.5117 231.641 83.6289 231.867 83.8633C232.102 84.0898 232.219 84.3906 232.219 84.7656C232.219 85.1094 232.137 85.3828 231.973 85.5859C231.816 85.7812 231.621 85.8789 231.387 85.8789C231.332 85.8789 231.289 85.875 231.258 85.8672C231.273 86.0859 231.34 86.2539 231.457 86.3711C231.613 86.543 231.859 86.6289 232.195 86.6289C232.57 86.6289 232.879 86.5078 233.121 86.2656C233.363 86.0234 233.57 85.6719 233.742 85.2109C233.906 84.7422 234.043 84.2422 234.152 83.7109C234.23 83.2656 234.324 82.8086 234.434 82.3398L234.516 81.9531C234.766 80.7266 235.043 79.7227 235.348 78.9414C235.66 78.1602 236.012 77.5469 236.402 77.1016C236.754 76.6875 237.148 76.4023 237.586 76.2461C238.031 76.082 238.543 76 239.121 76H242.66L241.383 81.9531L240.961 83.8047C240.859 84.2578 240.809 84.5938 240.809 84.8125C240.809 85.4844 241.129 85.8203 241.77 85.8203C242.004 85.8203 242.211 85.7812 242.391 85.7031C242.57 85.6172 242.738 85.4844 242.895 85.3047C243.035 85.1406 243.172 84.9336 243.305 84.6836C243.445 84.4336 243.605 84.1055 243.785 83.6992H244.793C243.785 86.6602 242.297 88.1406 240.328 88.1406C239.414 88.1406 238.699 87.8828 238.184 87.3672C237.957 87.1406 237.785 86.875 237.668 86.5703C237.551 86.2578 237.492 85.9336 237.492 85.5977C237.492 84.9258 237.668 83.8398 238.02 82.3398L239.074 77.582C238.652 77.582 238.293 77.668 237.996 77.8398C237.699 78.0117 237.438 78.2812 237.211 78.6484C236.992 79 236.793 79.457 236.613 80.0195C236.434 80.582 236.246 81.3047 236.051 82.1875L236.004 82.4219C235.762 83.5547 235.555 84.4258 235.383 85.0352C235.219 85.6445 235.02 86.1641 234.785 86.5938C234.496 87.1172 234.137 87.5078 233.707 87.7656C233.285 88.0156 232.754 88.1406 232.113 88.1406ZM247.23 88.1406C246.051 88.1406 245.141 87.8438 244.5 87.25C243.82 86.6172 243.48 85.6445 243.48 84.332C243.48 83.8398 243.531 83.293 243.633 82.6914C243.727 82.0898 243.871 81.4883 244.066 80.8867C244.285 80.2148 244.562 79.5781 244.898 78.9766C245.242 78.375 245.641 77.8438 246.094 77.3828C247.141 76.3203 248.43 75.7891 249.961 75.7891C250.938 75.7891 251.648 76.0234 252.094 76.4922C252.438 76.8594 252.609 77.3906 252.609 78.0859C252.609 78.7656 252.461 79.4062 252.164 80.0078C251.867 80.6016 251.457 81.1289 250.934 81.5898C250.41 82.043 249.816 82.4062 249.152 82.6797C248.488 82.9453 247.801 83.1016 247.09 83.1484C247.051 83.5547 247.031 83.875 247.031 84.1094C247.031 84.8906 247.18 85.4297 247.477 85.7266C247.734 85.9922 248.164 86.125 248.766 86.125C249.633 86.125 250.426 85.8906 251.145 85.4219C251.449 85.2266 251.742 84.9961 252.023 84.7305C252.305 84.457 252.633 84.1133 253.008 83.6992H253.828C253.07 84.9805 252.199 86 251.215 86.7578C250.004 87.6797 248.676 88.1406 247.23 88.1406ZM247.277 82C247.723 81.9688 248.156 81.8398 248.578 81.6133C249 81.3867 249.375 81.0898 249.703 80.7227C250.031 80.3477 250.289 79.9297 250.477 79.4688C250.664 79 250.758 78.5234 250.758 78.0391C250.758 77.7188 250.711 77.4766 250.617 77.3125C250.531 77.1406 250.379 77.0547 250.16 77.0547C249.871 77.0547 249.578 77.1953 249.281 77.4766C248.992 77.7578 248.711 78.1445 248.438 78.6367C248.188 79.0977 247.961 79.6211 247.758 80.207C247.555 80.793 247.395 81.3906 247.277 82ZM261.715 88.1406C260.793 88.1406 260.082 87.8828 259.582 87.3672C259.355 87.1406 259.184 86.875 259.066 86.5703C258.949 86.2578 258.891 85.9336 258.891 85.5977C258.891 85.3008 258.934 84.8984 259.02 84.3906C259.113 83.8828 259.254 83.1641 259.441 82.2344H256.781L255.551 88H252.094L254.637 76H258.094L257.062 80.8047H259.746L260.836 76H264.047L262.781 81.9531L262.359 83.8047C262.25 84.2891 262.195 84.625 262.195 84.8125C262.195 85.4844 262.516 85.8203 263.156 85.8203C263.398 85.8203 263.609 85.7812 263.789 85.7031C263.969 85.6172 264.137 85.4844 264.293 85.3047C264.434 85.1406 264.566 84.9375 264.691 84.6953C264.824 84.4531 264.984 84.1211 265.172 83.6992H266.18C265.172 86.6602 263.684 88.1406 261.715 88.1406ZM267.551 88.1406C266.785 88.1406 266.18 87.9141 265.734 87.4609C265.234 86.9609 264.984 86.2305 264.984 85.2695C264.984 84.8164 265.047 84.293 265.172 83.6992L266.801 76H270.258L268.535 84.1562C268.488 84.3984 268.465 84.625 268.465 84.8359C268.465 85.4922 268.703 85.8203 269.18 85.8203C269.617 85.8203 270.012 85.6211 270.363 85.2227C270.645 84.8867 270.891 84.3789 271.102 83.6992L272.73 76H276.188L274.465 84.1562C274.395 84.3906 274.359 84.6484 274.359 84.9297C274.359 85.2578 274.438 85.4883 274.594 85.6211C274.75 85.7539 275 85.8203 275.344 85.8203C275.789 85.8203 276.188 85.6211 276.539 85.2227C276.852 84.8711 277.102 84.3633 277.289 83.6992H278.297C277.867 84.918 277.348 85.8828 276.738 86.5938C276.223 87.1797 275.641 87.6016 274.992 87.8594C274.516 88.0469 274.012 88.1406 273.48 88.1406C272.793 88.1406 272.246 87.9492 271.84 87.5664C271.434 87.1836 271.188 86.6172 271.102 85.8672C270.555 86.7422 269.938 87.3672 269.25 87.7422C268.758 88.0078 268.191 88.1406 267.551 88.1406ZM279.07 88.1406C278.219 88.1406 277.547 87.8672 277.055 87.3203C276.836 87.0781 276.668 86.793 276.551 86.4648C276.434 86.1367 276.375 85.793 276.375 85.4336C276.375 84.8633 276.508 84.4023 276.773 84.0508C277.039 83.6914 277.402 83.5117 277.863 83.5117C278.238 83.5117 278.539 83.6289 278.766 83.8633C279 84.0898 279.117 84.3906 279.117 84.7656C279.117 85.1094 279.035 85.3828 278.871 85.5859C278.715 85.7812 278.52 85.8789 278.285 85.8789C278.23 85.8789 278.188 85.875 278.156 85.8672C278.172 86.0781 278.242 86.2461 278.367 86.3711C278.523 86.543 278.766 86.6289 279.094 86.6289C279.367 86.6289 279.605 86.5469 279.809 86.3828C280.012 86.2109 280.191 85.9609 280.348 85.6328C280.488 85.3281 280.621 84.9609 280.746 84.5312C280.871 84.0938 281 83.5625 281.133 82.9375C280.43 82.7891 279.883 82.4922 279.492 82.0469C279.062 81.5547 278.848 80.9219 278.848 80.1484C278.848 78.9141 279.305 77.9414 280.219 77.2305C281.281 76.4102 282.93 76 285.164 76H288.809L287.531 81.9531L287.109 83.8047C287.008 84.2578 286.957 84.5938 286.957 84.8125C286.957 85.4844 287.277 85.8203 287.918 85.8203C288.16 85.8203 288.371 85.7812 288.551 85.7031C288.73 85.6172 288.898 85.4844 289.055 85.3047C289.195 85.1406 289.328 84.9375 289.453 84.6953C289.586 84.4531 289.746 84.1211 289.934 83.6992H290.941C289.934 86.6602 288.445 88.1406 286.477 88.1406C285.555 88.1406 284.844 87.8828 284.344 87.3672C284.117 87.1406 283.945 86.875 283.828 86.5703C283.711 86.2578 283.652 85.9336 283.652 85.5977C283.652 85.3711 283.676 85.0977 283.723 84.7773C283.77 84.4727 283.891 83.8516 284.086 82.9141C283.656 83.0078 283.207 83.0547 282.738 83.0547C282.52 83.9766 282.312 84.7344 282.117 85.3281C281.93 85.9219 281.711 86.418 281.461 86.8164C281.188 87.2617 280.855 87.5938 280.465 87.8125C280.082 88.0312 279.617 88.1406 279.07 88.1406ZM283.992 81.9297H284.051C284.105 81.9297 284.188 81.9141 284.297 81.8828L285.305 77.3008H284.73C283.801 77.3008 283.09 77.5586 282.598 78.0742C282.355 78.3164 282.172 78.6094 282.047 78.9531C281.93 79.2969 281.871 79.6719 281.871 80.0781C281.871 80.75 282.039 81.2344 282.375 81.5312C282.664 81.7969 283.074 81.9297 283.605 81.9297H283.992Z" fill="#16578D"></path> <path d="M37.9072 106.191C38.6279 106.191 39.252 106.291 39.7793 106.49C40.3066 106.684 40.7139 106.968 41.001 107.343C41.2881 107.718 41.4316 108.175 41.4316 108.714C41.4316 109.294 41.2734 109.757 40.957 110.103C40.6406 110.448 40.2041 110.697 39.6475 110.85V110.92C40.04 111.025 40.3945 111.178 40.7109 111.377C41.0332 111.57 41.2881 111.828 41.4756 112.15C41.6689 112.467 41.7656 112.862 41.7656 113.337C41.7656 113.876 41.6191 114.362 41.3262 114.796C41.0332 115.224 40.5879 115.561 39.9902 115.807C39.3926 116.053 38.6367 116.176 37.7227 116.176C37.2715 116.176 36.8438 116.149 36.4395 116.097C36.0352 116.05 35.6689 115.979 35.3408 115.886C35.0127 115.792 34.7256 115.681 34.4795 115.552V114.225C34.8896 114.424 35.3701 114.6 35.9209 114.752C36.4717 114.904 37.0664 114.98 37.7051 114.98C38.1973 114.98 38.6396 114.925 39.0322 114.813C39.4248 114.696 39.7354 114.512 39.9639 114.26C40.1982 114.002 40.3154 113.665 40.3154 113.249C40.3154 112.868 40.2129 112.555 40.0078 112.309C39.8027 112.057 39.4951 111.872 39.085 111.755C38.6807 111.632 38.168 111.57 37.5469 111.57H36.2549V110.375H37.3184C38.1445 110.375 38.8037 110.258 39.2959 110.023C39.7881 109.789 40.0342 109.394 40.0342 108.837C40.0342 108.356 39.8438 107.999 39.4629 107.765C39.082 107.524 38.5371 107.404 37.8281 107.404C37.3008 107.404 36.835 107.46 36.4307 107.571C36.0264 107.677 35.5898 107.829 35.1211 108.028L34.6025 106.859C35.1064 106.637 35.6338 106.47 36.1846 106.358C36.7354 106.247 37.3096 106.191 37.9072 106.191ZM47.7334 106.209C48.8818 106.209 49.7344 106.467 50.291 106.982C50.8477 107.498 51.126 108.321 51.126 109.452V116H50.0625L49.7812 114.576H49.7109C49.4414 114.928 49.1602 115.224 48.8672 115.464C48.5742 115.698 48.2344 115.877 47.8477 116C47.4668 116.117 46.998 116.176 46.4414 116.176C45.8555 116.176 45.334 116.073 44.877 115.868C44.4258 115.663 44.0684 115.353 43.8047 114.937C43.5469 114.521 43.418 113.993 43.418 113.354C43.418 112.394 43.7988 111.655 44.5605 111.14C45.3223 110.624 46.4824 110.343 48.041 110.296L49.7021 110.226V109.637C49.7021 108.805 49.5234 108.222 49.166 107.888C48.8086 107.554 48.3047 107.387 47.6543 107.387C47.1504 107.387 46.6699 107.46 46.2129 107.606C45.7559 107.753 45.3223 107.926 44.9121 108.125L44.4639 107.018C44.8975 106.795 45.3955 106.604 45.958 106.446C46.5205 106.288 47.1123 106.209 47.7334 106.209ZM49.6846 111.254L48.2168 111.315C47.0156 111.362 46.1689 111.559 45.6768 111.904C45.1846 112.25 44.9385 112.739 44.9385 113.372C44.9385 113.923 45.1055 114.33 45.4395 114.594C45.7734 114.857 46.2158 114.989 46.7666 114.989C47.6221 114.989 48.3223 114.752 48.8672 114.277C49.4121 113.803 49.6846 113.091 49.6846 112.142V111.254ZM61.3564 116H59.8711V107.589H56.9443C56.8271 109.106 56.6777 110.407 56.4961 111.491C56.3203 112.569 56.0977 113.451 55.8281 114.137C55.5645 114.816 55.2422 115.317 54.8613 115.64C54.4863 115.956 54.0381 116.114 53.5166 116.114C53.3584 116.114 53.209 116.105 53.0684 116.088C52.9277 116.07 52.8076 116.041 52.708 116V114.893C52.7842 114.916 52.8633 114.934 52.9453 114.945C53.0332 114.957 53.124 114.963 53.2178 114.963C53.4814 114.963 53.7217 114.854 53.9385 114.638C54.1611 114.415 54.3604 114.081 54.5361 113.636C54.7178 113.19 54.8789 112.628 55.0195 111.948C55.1602 111.263 55.2832 110.457 55.3887 109.531C55.5 108.6 55.5967 107.545 55.6787 106.367H61.3564V116ZM72.7383 111.166C72.7383 111.957 72.6357 112.663 72.4307 113.284C72.2256 113.905 71.9297 114.43 71.543 114.857C71.1562 115.285 70.6875 115.613 70.1367 115.842C69.5918 116.064 68.9736 116.176 68.2822 116.176C67.6377 116.176 67.0459 116.064 66.5068 115.842C65.9736 115.613 65.5107 115.285 65.1182 114.857C64.7314 114.43 64.4297 113.905 64.2129 113.284C64.002 112.663 63.8965 111.957 63.8965 111.166C63.8965 110.111 64.0752 109.215 64.4326 108.477C64.79 107.732 65.2998 107.167 65.9619 106.78C66.6299 106.388 67.4238 106.191 68.3438 106.191C69.2227 106.191 69.9902 106.388 70.6465 106.78C71.3086 107.173 71.8213 107.741 72.1846 108.485C72.5537 109.224 72.7383 110.117 72.7383 111.166ZM65.4082 111.166C65.4082 111.939 65.5107 112.61 65.7158 113.179C65.9209 113.747 66.2373 114.187 66.665 114.497C67.0928 114.808 67.6436 114.963 68.3174 114.963C68.9854 114.963 69.5332 114.808 69.9609 114.497C70.3945 114.187 70.7139 113.747 70.9189 113.179C71.124 112.61 71.2266 111.939 71.2266 111.166C71.2266 110.398 71.124 109.736 70.9189 109.18C70.7139 108.617 70.3975 108.184 69.9697 107.879C69.542 107.574 68.9883 107.422 68.3086 107.422C67.3066 107.422 66.5713 107.753 66.1025 108.415C65.6396 109.077 65.4082 109.994 65.4082 111.166ZM86.5459 106.367L82.5381 111.052L86.8887 116H85.2188L81 111.113V116H79.6377V111.113L75.4277 116H73.7578L78.1084 111.052L74.0918 106.367H75.7002L79.6377 111.043V106.367H81V111.043L84.9551 106.367H86.5459ZM89.8857 106.367V112.423C89.8857 112.54 89.8828 112.692 89.877 112.88C89.8711 113.062 89.8623 113.258 89.8506 113.469C89.8389 113.674 89.8271 113.873 89.8154 114.066C89.8096 114.254 89.8008 114.409 89.7891 114.532L95.0449 106.367H96.8379V116H95.4756V110.094C95.4756 109.906 95.4785 109.666 95.4844 109.373C95.4902 109.08 95.499 108.793 95.5107 108.512C95.5225 108.225 95.5312 108.002 95.5371 107.844L90.2988 116H88.4971V106.367H89.8857ZM110.109 106.367V116H108.791V109.725C108.791 109.467 108.797 109.206 108.809 108.942C108.826 108.673 108.847 108.403 108.87 108.134H108.817L105.618 116H104.379L101.259 108.134H101.206C101.224 108.403 101.235 108.673 101.241 108.942C101.253 109.206 101.259 109.484 101.259 109.777V116H99.9316V106.367H101.892L105.003 114.242L108.158 106.367H110.109ZM125.886 106.367V116H124.418V107.624H119.285V116H117.817V106.367H125.886ZM133.506 106.191C134.707 106.191 135.665 106.604 136.38 107.431C137.095 108.257 137.452 109.499 137.452 111.157C137.452 112.253 137.288 113.173 136.96 113.917C136.632 114.661 136.169 115.224 135.571 115.604C134.979 115.985 134.279 116.176 133.471 116.176C132.961 116.176 132.513 116.108 132.126 115.974C131.739 115.839 131.408 115.657 131.133 115.429C130.857 115.2 130.629 114.951 130.447 114.682H130.342C130.359 114.91 130.38 115.186 130.403 115.508C130.433 115.83 130.447 116.111 130.447 116.352V120.307H128.979V106.367H130.184L130.377 107.791H130.447C130.635 107.498 130.863 107.231 131.133 106.991C131.402 106.745 131.73 106.552 132.117 106.411C132.51 106.265 132.973 106.191 133.506 106.191ZM133.251 107.422C132.583 107.422 132.044 107.551 131.634 107.809C131.229 108.066 130.934 108.453 130.746 108.969C130.559 109.479 130.459 110.12 130.447 110.894V111.175C130.447 111.989 130.535 112.678 130.711 113.24C130.893 113.803 131.188 114.23 131.599 114.523C132.015 114.816 132.571 114.963 133.269 114.963C133.866 114.963 134.364 114.802 134.763 114.479C135.161 114.157 135.457 113.709 135.65 113.135C135.85 112.555 135.949 111.89 135.949 111.14C135.949 110.003 135.727 109.101 135.281 108.433C134.842 107.759 134.165 107.422 133.251 107.422ZM148.307 111.166C148.307 111.957 148.204 112.663 147.999 113.284C147.794 113.905 147.498 114.43 147.111 114.857C146.725 115.285 146.256 115.613 145.705 115.842C145.16 116.064 144.542 116.176 143.851 116.176C143.206 116.176 142.614 116.064 142.075 115.842C141.542 115.613 141.079 115.285 140.687 114.857C140.3 114.43 139.998 113.905 139.781 113.284C139.57 112.663 139.465 111.957 139.465 111.166C139.465 110.111 139.644 109.215 140.001 108.477C140.358 107.732 140.868 107.167 141.53 106.78C142.198 106.388 142.992 106.191 143.912 106.191C144.791 106.191 145.559 106.388 146.215 106.78C146.877 107.173 147.39 107.741 147.753 108.485C148.122 109.224 148.307 110.117 148.307 111.166ZM140.977 111.166C140.977 111.939 141.079 112.61 141.284 113.179C141.489 113.747 141.806 114.187 142.233 114.497C142.661 114.808 143.212 114.963 143.886 114.963C144.554 114.963 145.102 114.808 145.529 114.497C145.963 114.187 146.282 113.747 146.487 113.179C146.692 112.61 146.795 111.939 146.795 111.166C146.795 110.398 146.692 109.736 146.487 109.18C146.282 108.617 145.966 108.184 145.538 107.879C145.11 107.574 144.557 107.422 143.877 107.422C142.875 107.422 142.14 107.753 141.671 108.415C141.208 109.077 140.977 109.994 140.977 111.166ZM152.104 106.367V109.83C152.104 110.434 152.268 110.879 152.596 111.166C152.93 111.453 153.413 111.597 154.046 111.597C154.655 111.597 155.209 111.503 155.707 111.315C156.205 111.128 156.709 110.873 157.219 110.551V106.367H158.678V116H157.219V111.685C156.68 112.03 156.149 112.303 155.628 112.502C155.106 112.701 154.482 112.801 153.756 112.801C152.766 112.801 151.998 112.543 151.453 112.027C150.914 111.512 150.645 110.814 150.645 109.936V106.367H152.104ZM163.23 106.367V110.41H168.601V106.367H170.06V116H168.601V111.649H163.23V116H161.763V106.367H163.23ZM173.153 116V106.367H174.621V110.34H177.258C178.078 110.34 178.752 110.442 179.279 110.647C179.812 110.853 180.208 111.157 180.466 111.562C180.724 111.966 180.853 112.467 180.853 113.064C180.853 113.662 180.724 114.181 180.466 114.62C180.214 115.06 179.815 115.399 179.271 115.64C178.731 115.88 178.028 116 177.161 116H173.153ZM174.621 114.813H177.021C177.747 114.813 178.327 114.685 178.761 114.427C179.194 114.169 179.411 113.738 179.411 113.135C179.411 112.543 179.209 112.133 178.805 111.904C178.4 111.67 177.82 111.553 177.064 111.553H174.621V114.813ZM182.443 116V106.367H183.902V116H182.443ZM188.376 106.367V112.423C188.376 112.54 188.373 112.692 188.367 112.88C188.361 113.062 188.353 113.258 188.341 113.469C188.329 113.674 188.317 113.873 188.306 114.066C188.3 114.254 188.291 114.409 188.279 114.532L193.535 106.367H195.328V116H193.966V110.094C193.966 109.906 193.969 109.666 193.975 109.373C193.98 109.08 193.989 108.793 194.001 108.512C194.013 108.225 194.021 108.002 194.027 107.844L188.789 116H186.987V106.367H188.376ZM194.607 102.403C194.555 102.995 194.405 103.49 194.159 103.889C193.919 104.287 193.564 104.589 193.096 104.794C192.627 104.993 192.026 105.093 191.294 105.093C190.538 105.093 189.929 104.996 189.466 104.803C189.009 104.604 188.669 104.305 188.446 103.906C188.229 103.508 188.101 103.007 188.06 102.403H189.431C189.495 103.048 189.668 103.487 189.949 103.722C190.23 103.956 190.688 104.073 191.32 104.073C191.883 104.073 192.325 103.95 192.647 103.704C192.97 103.458 193.163 103.024 193.228 102.403H194.607ZM208.705 102.324V106.227C209.66 106.309 210.492 106.558 211.201 106.974C211.91 107.384 212.461 107.943 212.854 108.652C213.246 109.361 213.442 110.205 213.442 111.184C213.442 112.145 213.252 112.982 212.871 113.697C212.496 114.412 211.954 114.978 211.245 115.394C210.542 115.81 209.695 116.059 208.705 116.141V120.324H207.281V116.141C206.326 116.07 205.494 115.83 204.785 115.42C204.082 115.004 203.534 114.438 203.142 113.724C202.749 113.009 202.553 112.162 202.553 111.184C202.553 110.205 202.74 109.361 203.115 108.652C203.496 107.938 204.041 107.375 204.75 106.965C205.459 106.549 206.317 106.303 207.325 106.227V102.324H208.705ZM207.325 107.439C206.581 107.504 205.969 107.691 205.488 108.002C205.008 108.312 204.65 108.734 204.416 109.268C204.188 109.801 204.073 110.439 204.073 111.184C204.073 111.928 204.19 112.569 204.425 113.108C204.659 113.642 205.017 114.063 205.497 114.374C205.978 114.685 206.587 114.875 207.325 114.945V107.439ZM208.705 107.457V114.945C209.443 114.869 210.05 114.673 210.524 114.356C211.005 114.04 211.359 113.615 211.588 113.082C211.822 112.549 211.939 111.916 211.939 111.184C211.939 110.07 211.673 109.2 211.14 108.573C210.606 107.94 209.795 107.568 208.705 107.457ZM214.471 106.367H216.035L218.162 111.957C218.285 112.285 218.399 112.602 218.505 112.906C218.61 113.205 218.704 113.492 218.786 113.768C218.868 114.043 218.933 114.31 218.979 114.567H219.041C219.123 114.274 219.24 113.891 219.393 113.416C219.545 112.936 219.709 112.446 219.885 111.948L221.897 106.367H223.471L219.278 117.415C219.056 118.007 218.795 118.522 218.496 118.962C218.203 119.401 217.846 119.738 217.424 119.973C217.002 120.213 216.492 120.333 215.895 120.333C215.619 120.333 215.376 120.315 215.165 120.28C214.954 120.251 214.772 120.216 214.62 120.175V119.006C214.749 119.035 214.904 119.062 215.086 119.085C215.273 119.108 215.467 119.12 215.666 119.12C216.029 119.12 216.343 119.05 216.606 118.909C216.876 118.774 217.107 118.575 217.301 118.312C217.494 118.048 217.661 117.734 217.802 117.371L218.329 116.018L214.471 106.367ZM226.477 106.367V110.41H231.847V106.367H233.306V116H231.847V111.649H226.477V116H225.009V106.367H226.477ZM243.457 106.367V114.761H244.837V119.331H243.422V116H236.602V119.331H235.204V114.761H235.96C236.511 113.999 236.968 113.164 237.331 112.256C237.694 111.348 237.97 110.396 238.157 109.399C238.345 108.397 238.444 107.387 238.456 106.367H243.457ZM242.042 107.527H239.757C239.704 108.383 239.578 109.253 239.379 110.138C239.186 111.022 238.928 111.866 238.605 112.669C238.283 113.466 237.908 114.163 237.48 114.761H242.042V107.527ZM250.356 106.209C251.505 106.209 252.357 106.467 252.914 106.982C253.471 107.498 253.749 108.321 253.749 109.452V116H252.686L252.404 114.576H252.334C252.064 114.928 251.783 115.224 251.49 115.464C251.197 115.698 250.857 115.877 250.471 116C250.09 116.117 249.621 116.176 249.064 116.176C248.479 116.176 247.957 116.073 247.5 115.868C247.049 115.663 246.691 115.353 246.428 114.937C246.17 114.521 246.041 113.993 246.041 113.354C246.041 112.394 246.422 111.655 247.184 111.14C247.945 110.624 249.105 110.343 250.664 110.296L252.325 110.226V109.637C252.325 108.805 252.146 108.222 251.789 107.888C251.432 107.554 250.928 107.387 250.277 107.387C249.773 107.387 249.293 107.46 248.836 107.606C248.379 107.753 247.945 107.926 247.535 108.125L247.087 107.018C247.521 106.795 248.019 106.604 248.581 106.446C249.144 106.288 249.735 106.209 250.356 106.209ZM252.308 111.254L250.84 111.315C249.639 111.362 248.792 111.559 248.3 111.904C247.808 112.25 247.562 112.739 247.562 113.372C247.562 113.923 247.729 114.33 248.062 114.594C248.396 114.857 248.839 114.989 249.39 114.989C250.245 114.989 250.945 114.752 251.49 114.277C252.035 113.803 252.308 113.091 252.308 112.142V111.254ZM266.924 106.367V116H265.605V109.725C265.605 109.467 265.611 109.206 265.623 108.942C265.641 108.673 265.661 108.403 265.685 108.134H265.632L262.433 116H261.193L258.073 108.134H258.021C258.038 108.403 258.05 108.673 258.056 108.942C258.067 109.206 258.073 109.484 258.073 109.777V116H256.746V106.367H258.706L261.817 114.242L264.973 106.367H266.924ZM273.665 106.191C274.485 106.191 275.188 106.373 275.774 106.736C276.36 107.1 276.809 107.609 277.119 108.266C277.43 108.916 277.585 109.678 277.585 110.551V111.456H270.932C270.949 112.587 271.23 113.448 271.775 114.04C272.32 114.632 273.088 114.928 274.078 114.928C274.688 114.928 275.227 114.872 275.695 114.761C276.164 114.649 276.65 114.485 277.154 114.269V115.552C276.668 115.769 276.185 115.927 275.704 116.026C275.229 116.126 274.667 116.176 274.017 116.176C273.091 116.176 272.282 115.988 271.591 115.613C270.905 115.232 270.372 114.676 269.991 113.943C269.61 113.211 269.42 112.314 269.42 111.254C269.42 110.217 269.593 109.32 269.938 108.564C270.29 107.803 270.782 107.217 271.415 106.807C272.054 106.396 272.804 106.191 273.665 106.191ZM273.647 107.387C272.868 107.387 272.247 107.642 271.784 108.151C271.321 108.661 271.046 109.373 270.958 110.287H276.056C276.05 109.713 275.959 109.209 275.783 108.775C275.613 108.336 275.353 107.996 275.001 107.756C274.649 107.51 274.198 107.387 273.647 107.387ZM281.531 106.367V110.41H286.901V106.367H288.36V116H286.901V111.649H281.531V116H280.063V106.367H281.531ZM298.02 107.606H294.847V116H293.405V107.606H290.276V106.367H298.02V107.606ZM311.66 106.367V114.761H313.04V119.331H311.625V116H304.805V119.331H303.407V114.761H304.163C304.714 113.999 305.171 113.164 305.534 112.256C305.897 111.348 306.173 110.396 306.36 109.399C306.548 108.397 306.647 107.387 306.659 106.367H311.66ZM310.245 107.527H307.96C307.907 108.383 307.781 109.253 307.582 110.138C307.389 111.022 307.131 111.866 306.809 112.669C306.486 113.466 306.111 114.163 305.684 114.761H310.245V107.527ZM322.181 116H320.695V107.589H317.769C317.651 109.106 317.502 110.407 317.32 111.491C317.145 112.569 316.922 113.451 316.652 114.137C316.389 114.816 316.066 115.317 315.686 115.64C315.311 115.956 314.862 116.114 314.341 116.114C314.183 116.114 314.033 116.105 313.893 116.088C313.752 116.07 313.632 116.041 313.532 116V114.893C313.608 114.916 313.688 114.934 313.77 114.945C313.857 114.957 313.948 114.963 314.042 114.963C314.306 114.963 314.546 114.854 314.763 114.638C314.985 114.415 315.185 114.081 315.36 113.636C315.542 113.19 315.703 112.628 315.844 111.948C315.984 111.263 316.107 110.457 316.213 109.531C316.324 108.6 316.421 107.545 316.503 106.367H322.181V116ZM325.723 116H324.018L326.795 111.939C326.391 111.852 326.016 111.702 325.67 111.491C325.324 111.274 325.043 110.979 324.826 110.604C324.615 110.229 324.51 109.763 324.51 109.206C324.51 108.28 324.817 107.577 325.433 107.097C326.054 106.61 326.871 106.367 327.885 106.367H332.147V116H330.688V112.133H328.245L325.723 116ZM325.925 109.215C325.925 109.789 326.13 110.217 326.54 110.498C326.95 110.773 327.536 110.911 328.298 110.911H330.688V107.589H328.043C327.293 107.589 326.751 107.741 326.417 108.046C326.089 108.345 325.925 108.734 325.925 109.215ZM338.379 106.367H339.943L342.07 111.957C342.193 112.285 342.308 112.602 342.413 112.906C342.519 113.205 342.612 113.492 342.694 113.768C342.776 114.043 342.841 114.31 342.888 114.567H342.949C343.031 114.274 343.148 113.891 343.301 113.416C343.453 112.936 343.617 112.446 343.793 111.948L345.806 106.367H347.379L343.187 117.415C342.964 118.007 342.703 118.522 342.404 118.962C342.111 119.401 341.754 119.738 341.332 119.973C340.91 120.213 340.4 120.333 339.803 120.333C339.527 120.333 339.284 120.315 339.073 120.28C338.862 120.251 338.681 120.216 338.528 120.175V119.006C338.657 119.035 338.812 119.062 338.994 119.085C339.182 119.108 339.375 119.12 339.574 119.12C339.938 119.12 340.251 119.05 340.515 118.909C340.784 118.774 341.016 118.575 341.209 118.312C341.402 118.048 341.569 117.734 341.71 117.371L342.237 116.018L338.379 106.367ZM352.775 116.176C351.908 116.176 351.144 115.997 350.481 115.64C349.819 115.282 349.304 114.737 348.935 114.005C348.565 113.272 348.381 112.35 348.381 111.236C348.381 110.07 348.574 109.118 348.961 108.38C349.354 107.636 349.893 107.085 350.578 106.728C351.264 106.37 352.043 106.191 352.916 106.191C353.396 106.191 353.859 106.241 354.305 106.341C354.756 106.435 355.125 106.555 355.412 106.701L354.973 107.923C354.68 107.806 354.34 107.7 353.953 107.606C353.572 107.513 353.215 107.466 352.881 107.466C352.213 107.466 351.656 107.609 351.211 107.896C350.771 108.184 350.44 108.605 350.218 109.162C350.001 109.719 349.893 110.404 349.893 111.219C349.893 111.998 349.998 112.663 350.209 113.214C350.426 113.765 350.745 114.187 351.167 114.479C351.595 114.767 352.128 114.91 352.767 114.91C353.276 114.91 353.736 114.857 354.146 114.752C354.557 114.641 354.929 114.512 355.263 114.365V115.666C354.94 115.83 354.58 115.956 354.182 116.044C353.789 116.132 353.32 116.176 352.775 116.176ZM365.616 106.367V116H364.148V107.624H359.016V116H357.548V106.367H365.616ZM372.419 106.191C373.239 106.191 373.942 106.373 374.528 106.736C375.114 107.1 375.562 107.609 375.873 108.266C376.184 108.916 376.339 109.678 376.339 110.551V111.456H369.686C369.703 112.587 369.984 113.448 370.529 114.04C371.074 114.632 371.842 114.928 372.832 114.928C373.441 114.928 373.98 114.872 374.449 114.761C374.918 114.649 375.404 114.485 375.908 114.269V115.552C375.422 115.769 374.938 115.927 374.458 116.026C373.983 116.126 373.421 116.176 372.771 116.176C371.845 116.176 371.036 115.988 370.345 115.613C369.659 115.232 369.126 114.676 368.745 113.943C368.364 113.211 368.174 112.314 368.174 111.254C368.174 110.217 368.347 109.32 368.692 108.564C369.044 107.803 369.536 107.217 370.169 106.807C370.808 106.396 371.558 106.191 372.419 106.191ZM372.401 107.387C371.622 107.387 371.001 107.642 370.538 108.151C370.075 108.661 369.8 109.373 369.712 110.287H374.81C374.804 109.713 374.713 109.209 374.537 108.775C374.367 108.336 374.106 107.996 373.755 107.756C373.403 107.51 372.952 107.387 372.401 107.387ZM391.737 106.367V116H378.817V106.367H380.276V114.761H384.539V106.367H386.007V114.761H390.278V106.367H391.737ZM396.299 106.367V110.41H401.669V106.367H403.128V116H401.669V111.649H396.299V116H394.831V106.367H396.299ZM414.527 111.166C414.527 111.957 414.425 112.663 414.22 113.284C414.015 113.905 413.719 114.43 413.332 114.857C412.945 115.285 412.477 115.613 411.926 115.842C411.381 116.064 410.763 116.176 410.071 116.176C409.427 116.176 408.835 116.064 408.296 115.842C407.763 115.613 407.3 115.285 406.907 114.857C406.521 114.43 406.219 113.905 406.002 113.284C405.791 112.663 405.686 111.957 405.686 111.166C405.686 110.111 405.864 109.215 406.222 108.477C406.579 107.732 407.089 107.167 407.751 106.78C408.419 106.388 409.213 106.191 410.133 106.191C411.012 106.191 411.779 106.388 412.436 106.78C413.098 107.173 413.61 107.741 413.974 108.485C414.343 109.224 414.527 110.117 414.527 111.166ZM407.197 111.166C407.197 111.939 407.3 112.61 407.505 113.179C407.71 113.747 408.026 114.187 408.454 114.497C408.882 114.808 409.433 114.963 410.106 114.963C410.774 114.963 411.322 114.808 411.75 114.497C412.184 114.187 412.503 113.747 412.708 113.179C412.913 112.61 413.016 111.939 413.016 111.166C413.016 110.398 412.913 109.736 412.708 109.18C412.503 108.617 412.187 108.184 411.759 107.879C411.331 107.574 410.777 107.422 410.098 107.422C409.096 107.422 408.36 107.753 407.892 108.415C407.429 109.077 407.197 109.994 407.197 111.166ZM422.895 106.367V107.606H418.518V116H417.05V106.367H422.895ZM433.125 111.166C433.125 111.957 433.022 112.663 432.817 113.284C432.612 113.905 432.316 114.43 431.93 114.857C431.543 115.285 431.074 115.613 430.523 115.842C429.979 116.064 429.36 116.176 428.669 116.176C428.024 116.176 427.433 116.064 426.894 115.842C426.36 115.613 425.897 115.285 425.505 114.857C425.118 114.43 424.816 113.905 424.6 113.284C424.389 112.663 424.283 111.957 424.283 111.166C424.283 110.111 424.462 109.215 424.819 108.477C425.177 107.732 425.687 107.167 426.349 106.78C427.017 106.388 427.811 106.191 428.73 106.191C429.609 106.191 430.377 106.388 431.033 106.78C431.695 107.173 432.208 107.741 432.571 108.485C432.94 109.224 433.125 110.117 433.125 111.166ZM425.795 111.166C425.795 111.939 425.897 112.61 426.103 113.179C426.308 113.747 426.624 114.187 427.052 114.497C427.479 114.808 428.03 114.963 428.704 114.963C429.372 114.963 429.92 114.808 430.348 114.497C430.781 114.187 431.101 113.747 431.306 113.179C431.511 112.61 431.613 111.939 431.613 111.166C431.613 110.398 431.511 109.736 431.306 109.18C431.101 108.617 430.784 108.184 430.356 107.879C429.929 107.574 429.375 107.422 428.695 107.422C427.693 107.422 426.958 107.753 426.489 108.415C426.026 109.077 425.795 109.994 425.795 111.166ZM173.145 141.176C172.277 141.176 171.513 140.997 170.851 140.64C170.188 140.282 169.673 139.737 169.304 139.005C168.935 138.272 168.75 137.35 168.75 136.236C168.75 135.07 168.943 134.118 169.33 133.38C169.723 132.636 170.262 132.085 170.947 131.728C171.633 131.37 172.412 131.191 173.285 131.191C173.766 131.191 174.229 131.241 174.674 131.341C175.125 131.435 175.494 131.555 175.781 131.701L175.342 132.923C175.049 132.806 174.709 132.7 174.322 132.606C173.941 132.513 173.584 132.466 173.25 132.466C172.582 132.466 172.025 132.609 171.58 132.896C171.141 133.184 170.81 133.605 170.587 134.162C170.37 134.719 170.262 135.404 170.262 136.219C170.262 136.998 170.367 137.663 170.578 138.214C170.795 138.765 171.114 139.187 171.536 139.479C171.964 139.767 172.497 139.91 173.136 139.91C173.646 139.91 174.105 139.857 174.516 139.752C174.926 139.641 175.298 139.512 175.632 139.365V140.666C175.31 140.83 174.949 140.956 174.551 141.044C174.158 141.132 173.689 141.176 173.145 141.176ZM184.482 132.606H181.31V141H179.868V132.606H176.739V131.367H184.482V132.606ZM189.993 131.209C191.142 131.209 191.994 131.467 192.551 131.982C193.107 132.498 193.386 133.321 193.386 134.452V141H192.322L192.041 139.576H191.971C191.701 139.928 191.42 140.224 191.127 140.464C190.834 140.698 190.494 140.877 190.107 141C189.727 141.117 189.258 141.176 188.701 141.176C188.115 141.176 187.594 141.073 187.137 140.868C186.686 140.663 186.328 140.353 186.064 139.937C185.807 139.521 185.678 138.993 185.678 138.354C185.678 137.394 186.059 136.655 186.82 136.14C187.582 135.624 188.742 135.343 190.301 135.296L191.962 135.226V134.637C191.962 133.805 191.783 133.222 191.426 132.888C191.068 132.554 190.564 132.387 189.914 132.387C189.41 132.387 188.93 132.46 188.473 132.606C188.016 132.753 187.582 132.926 187.172 133.125L186.724 132.018C187.157 131.795 187.655 131.604 188.218 131.446C188.78 131.288 189.372 131.209 189.993 131.209ZM191.944 136.254L190.477 136.315C189.275 136.362 188.429 136.559 187.937 136.904C187.444 137.25 187.198 137.739 187.198 138.372C187.198 138.923 187.365 139.33 187.699 139.594C188.033 139.857 188.476 139.989 189.026 139.989C189.882 139.989 190.582 139.752 191.127 139.277C191.672 138.803 191.944 138.091 191.944 137.142V136.254ZM200.918 131.191C202.119 131.191 203.077 131.604 203.792 132.431C204.507 133.257 204.864 134.499 204.864 136.157C204.864 137.253 204.7 138.173 204.372 138.917C204.044 139.661 203.581 140.224 202.983 140.604C202.392 140.985 201.691 141.176 200.883 141.176C200.373 141.176 199.925 141.108 199.538 140.974C199.151 140.839 198.82 140.657 198.545 140.429C198.27 140.2 198.041 139.951 197.859 139.682H197.754C197.771 139.91 197.792 140.186 197.815 140.508C197.845 140.83 197.859 141.111 197.859 141.352V145.307H196.392V131.367H197.596L197.789 132.791H197.859C198.047 132.498 198.275 132.231 198.545 131.991C198.814 131.745 199.143 131.552 199.529 131.411C199.922 131.265 200.385 131.191 200.918 131.191ZM200.663 132.422C199.995 132.422 199.456 132.551 199.046 132.809C198.642 133.066 198.346 133.453 198.158 133.969C197.971 134.479 197.871 135.12 197.859 135.894V136.175C197.859 136.989 197.947 137.678 198.123 138.24C198.305 138.803 198.601 139.23 199.011 139.523C199.427 139.816 199.983 139.963 200.681 139.963C201.278 139.963 201.776 139.802 202.175 139.479C202.573 139.157 202.869 138.709 203.062 138.135C203.262 137.555 203.361 136.89 203.361 136.14C203.361 135.003 203.139 134.101 202.693 133.433C202.254 132.759 201.577 132.422 200.663 132.422ZM213.979 132.606H210.806V141H209.364V132.606H206.235V131.367H213.979V132.606ZM219.489 131.209C220.638 131.209 221.49 131.467 222.047 131.982C222.604 132.498 222.882 133.321 222.882 134.452V141H221.818L221.537 139.576H221.467C221.197 139.928 220.916 140.224 220.623 140.464C220.33 140.698 219.99 140.877 219.604 141C219.223 141.117 218.754 141.176 218.197 141.176C217.611 141.176 217.09 141.073 216.633 140.868C216.182 140.663 215.824 140.353 215.561 139.937C215.303 139.521 215.174 138.993 215.174 138.354C215.174 137.394 215.555 136.655 216.316 136.14C217.078 135.624 218.238 135.343 219.797 135.296L221.458 135.226V134.637C221.458 133.805 221.279 133.222 220.922 132.888C220.564 132.554 220.061 132.387 219.41 132.387C218.906 132.387 218.426 132.46 217.969 132.606C217.512 132.753 217.078 132.926 216.668 133.125L216.22 132.018C216.653 131.795 217.151 131.604 217.714 131.446C218.276 131.288 218.868 131.209 219.489 131.209ZM221.44 136.254L219.973 136.315C218.771 136.362 217.925 136.559 217.433 136.904C216.94 137.25 216.694 137.739 216.694 138.372C216.694 138.923 216.861 139.33 217.195 139.594C217.529 139.857 217.972 139.989 218.522 139.989C219.378 139.989 220.078 139.752 220.623 139.277C221.168 138.803 221.44 138.091 221.44 137.142V136.254ZM238.219 133.784C238.219 134.388 238.043 134.859 237.691 135.199C237.34 135.533 236.886 135.759 236.329 135.876V135.946C236.933 136.028 237.451 136.245 237.885 136.597C238.324 136.942 238.544 137.473 238.544 138.188C238.544 138.738 238.412 139.225 238.148 139.646C237.885 140.068 237.472 140.399 236.909 140.64C236.347 140.88 235.614 141 234.712 141H230.563V131.367H234.677C235.368 131.367 235.978 131.446 236.505 131.604C237.038 131.757 237.457 132.009 237.762 132.36C238.066 132.712 238.219 133.187 238.219 133.784ZM237.023 138.188C237.023 137.619 236.807 137.209 236.373 136.957C235.945 136.705 235.321 136.579 234.501 136.579H232.031V139.813H234.536C235.345 139.813 235.96 139.69 236.382 139.444C236.81 139.192 237.023 138.773 237.023 138.188ZM236.733 133.951C236.733 133.494 236.566 133.154 236.232 132.932C235.898 132.703 235.351 132.589 234.589 132.589H232.031V135.357H234.334C235.125 135.357 235.723 135.243 236.127 135.015C236.531 134.786 236.733 134.432 236.733 133.951ZM256.86 131.367L252.853 136.052L257.203 141H255.533L251.314 136.113V141H249.952V136.113L245.742 141H244.072L248.423 136.052L244.406 131.367H246.015L249.952 136.043V131.367H251.314V136.043L255.27 131.367H256.86ZM260.2 131.367V137.423C260.2 137.54 260.197 137.692 260.191 137.88C260.186 138.062 260.177 138.258 260.165 138.469C260.153 138.674 260.142 138.873 260.13 139.066C260.124 139.254 260.115 139.409 260.104 139.532L265.359 131.367H267.152V141H265.79V135.094C265.79 134.906 265.793 134.666 265.799 134.373C265.805 134.08 265.813 133.793 265.825 133.512C265.837 133.225 265.846 133.002 265.852 132.844L260.613 141H258.812V131.367H260.2ZM272.733 131.191C273.454 131.191 274.078 131.291 274.605 131.49C275.133 131.684 275.54 131.968 275.827 132.343C276.114 132.718 276.258 133.175 276.258 133.714C276.258 134.294 276.1 134.757 275.783 135.103C275.467 135.448 275.03 135.697 274.474 135.85V135.92C274.866 136.025 275.221 136.178 275.537 136.377C275.859 136.57 276.114 136.828 276.302 137.15C276.495 137.467 276.592 137.862 276.592 138.337C276.592 138.876 276.445 139.362 276.152 139.796C275.859 140.224 275.414 140.561 274.816 140.807C274.219 141.053 273.463 141.176 272.549 141.176C272.098 141.176 271.67 141.149 271.266 141.097C270.861 141.05 270.495 140.979 270.167 140.886C269.839 140.792 269.552 140.681 269.306 140.552V139.225C269.716 139.424 270.196 139.6 270.747 139.752C271.298 139.904 271.893 139.98 272.531 139.98C273.023 139.98 273.466 139.925 273.858 139.813C274.251 139.696 274.562 139.512 274.79 139.26C275.024 139.002 275.142 138.665 275.142 138.249C275.142 137.868 275.039 137.555 274.834 137.309C274.629 137.057 274.321 136.872 273.911 136.755C273.507 136.632 272.994 136.57 272.373 136.57H271.081V135.375H272.145C272.971 135.375 273.63 135.258 274.122 135.023C274.614 134.789 274.86 134.394 274.86 133.837C274.86 133.356 274.67 132.999 274.289 132.765C273.908 132.524 273.363 132.404 272.654 132.404C272.127 132.404 271.661 132.46 271.257 132.571C270.853 132.677 270.416 132.829 269.947 133.028L269.429 131.859C269.933 131.637 270.46 131.47 271.011 131.358C271.562 131.247 272.136 131.191 272.733 131.191ZM280.424 131.367V135.41H285.794V131.367H287.253V141H285.794V136.649H280.424V141H278.956V131.367H280.424ZM291.735 131.367V137.423C291.735 137.54 291.732 137.692 291.727 137.88C291.721 138.062 291.712 138.258 291.7 138.469C291.688 138.674 291.677 138.873 291.665 139.066C291.659 139.254 291.65 139.409 291.639 139.532L296.895 131.367H298.688V141H297.325V135.094C297.325 134.906 297.328 134.666 297.334 134.373C297.34 134.08 297.349 133.793 297.36 133.512C297.372 133.225 297.381 133.002 297.387 132.844L292.148 141H290.347V131.367H291.735Z" fill="#16578D"></path> </g> <defs> <filter id="filter0_d_332_487" x="0" y="0" width="468" height="186" filterUnits="userSpaceOnUse" color-interpolation-filters="sRGB"> <feFlood flood-opacity="0" result="BackgroundImageFix"></feFlood> <feColorMatrix in="SourceAlpha" type="matrix" values="0 0 0 0 0 0 0 0 0 0 0 0 0 0 0 0 0 0 127 0" result="hardAlpha"></feColorMatrix> <feOffset dy="4"></feOffset> <feGaussianBlur stdDeviation="2"></feGaussianBlur> <feComposite in2="hardAlpha" operator="out"></feComposite> <feColorMatrix type="matrix" values="0 0 0 0 0.823529 0 0 0 0 0.72549 0 0 0 0 0.988235 0 0 0 0.68 0"></feColorMatrix> <feBlend mode="normal" in2="BackgroundImageFix" result="effect1_dropShadow_332_487"></feBlend> <feBlend mode="normal" in="SourceGraphic" in2="effect1_dropShadow_332_487" result="shape"></feBlend> </filter> </defs> </svg> 