<?xml version="1.0" encoding="UTF-8"?> <svg xmlns="http://www.w3.org/2000/svg" width="868" height="106" viewBox="0 0 868 106" fill="none"> <g filter="url(#filter0_d_163_14630)"> <rect x="4" width="860" height="98" rx="49" fill="#AFD7F7"></rect> <path d="M308.453 46.6875C307.13 46.6875 306.151 46.3125 305.516 45.5625C304.964 44.9167 304.688 44.0885 304.688 43.0781C304.688 42.599 304.745 42.0417 304.859 41.4062C304.984 40.7708 305.167 39.9531 305.406 38.9531C305.646 37.9323 305.823 37.1198 305.938 36.5156C306.062 35.901 306.125 35.3698 306.125 34.9219C306.125 33.8281 305.74 33.2812 304.969 33.2812C304.427 33.2812 303.927 33.5677 303.469 34.1406C303.083 34.6302 302.75 35.3281 302.469 36.2344L300.297 46.5H295.688L298.031 35.4531C298.094 35.2031 298.125 34.9375 298.125 34.6562C298.125 34.2292 298.057 33.901 297.922 33.6719C297.745 33.3906 297.49 33.25 297.156 33.25C296.552 33.25 296.026 33.5417 295.578 34.125C295.182 34.625 294.844 35.3281 294.562 36.2344L292.391 46.5H287.781L291.172 30.5H295.781L295.438 32.1562C296.062 31.4583 296.745 30.9635 297.484 30.6719C298.068 30.4531 298.688 30.3438 299.344 30.3438C300.24 30.3438 300.953 30.5521 301.484 30.9688C302.078 31.4375 302.458 32.1458 302.625 33.0938C303.312 32.0312 304.104 31.2812 305 30.8438C305.635 30.5312 306.328 30.375 307.078 30.375C308.151 30.375 309 30.6562 309.625 31.2188C310.292 31.8333 310.625 32.7552 310.625 33.9844C310.625 34.6823 310.495 35.6458 310.234 36.875C310.13 37.3854 310.005 37.901 309.859 38.4219C309.599 39.4219 309.385 40.3438 309.219 41.1875C309.135 41.625 309.094 41.9792 309.094 42.25C309.094 42.6771 309.188 43.0104 309.375 43.25C309.573 43.4792 309.906 43.5938 310.375 43.5938C311.01 43.5938 311.547 43.3333 311.984 42.8125C312.318 42.4167 312.677 41.7344 313.062 40.7656H314.406C313.615 43.1094 312.615 44.75 311.406 45.6875C310.552 46.3542 309.568 46.6875 308.453 46.6875ZM317.922 46.625C316.172 46.625 314.828 46.0833 313.891 45C313.036 44.0104 312.609 42.6354 312.609 40.875C312.609 40.3021 312.677 39.599 312.812 38.7656C312.938 37.9219 313.12 37.0156 313.359 36.0469C313.88 33.9635 314.573 31.9271 315.438 29.9375C316.396 27.75 317.448 26 318.594 24.6875C319.885 23.2083 321.198 22.4688 322.531 22.4688C323.646 22.4688 324.5 22.8021 325.094 23.4688C325.729 24.1979 326.047 25.3281 326.047 26.8594C326.047 28.0677 325.75 29.4375 325.156 30.9688C324.708 32.125 324.135 33.3125 323.438 34.5312C323.885 34.75 324.286 35.0677 324.641 35.4844C325.568 35.4844 326.62 35.2656 327.797 34.8281C328.849 34.4531 329.75 34 330.5 33.4688L330.797 34.3438C330.203 34.9688 329.438 35.5104 328.5 35.9688C327.562 36.4167 326.521 36.7396 325.375 36.9375C325.49 37.3333 325.547 37.8646 325.547 38.5312C325.547 39.5938 325.375 40.6094 325.031 41.5781C324.688 42.5469 324.188 43.4062 323.531 44.1562C322.854 44.9375 322.036 45.5469 321.078 45.9844C320.13 46.4115 319.078 46.625 317.922 46.625ZM319.328 43.75C319.828 43.75 320.286 43.6198 320.703 43.3594C321.12 43.099 321.474 42.7396 321.766 42.2812C322.047 41.8542 322.26 41.3802 322.406 40.8594C322.552 40.3281 322.625 39.7969 322.625 39.2656C322.625 38.474 322.531 37.8906 322.344 37.5156C322.135 37.5885 321.958 37.6406 321.812 37.6719C321.677 37.6927 321.469 37.7031 321.188 37.7031C320.677 37.7031 320.271 37.5625 319.969 37.2812C319.677 37 319.531 36.6146 319.531 36.125C319.531 35.4896 319.745 35.0104 320.172 34.6875C320.516 34.4271 321.047 34.2708 321.766 34.2188C322.339 33.1875 322.854 31.974 323.312 30.5781C323.771 29.151 324 27.8646 324 26.7188C324 26.0729 323.917 25.6198 323.75 25.3594C323.594 25.099 323.328 24.9688 322.953 24.9688C322.62 24.9688 322.281 25.1458 321.938 25.5C321.594 25.8542 321.255 26.349 320.922 26.9844C320.318 28.1615 319.724 29.7292 319.141 31.6875C318.641 33.3438 318.214 35.125 317.859 37.0312C317.536 38.7396 317.375 40.0521 317.375 40.9688C317.375 41.8333 317.526 42.5 317.828 42.9688C318.151 43.4896 318.651 43.75 319.328 43.75ZM332.109 46.625C330.526 46.625 329.302 46.2396 328.438 45.4688C327.469 44.6146 326.984 43.3177 326.984 41.5781C326.984 40.9219 327.052 40.1979 327.188 39.4062C327.323 38.6042 327.531 37.7969 327.812 36.9844C328.458 35.0469 329.38 33.5 330.578 32.3438C332.026 30.9271 333.75 30.2188 335.75 30.2188C338.49 30.2188 339.859 31.9219 339.859 35.3281V35.3594C339.922 35.3802 339.974 35.3906 340.016 35.3906H340.203C340.911 35.3906 341.75 35.1927 342.719 34.7969C343.573 34.4427 344.38 34 345.141 33.4688L345.422 34.3438C344.797 35 343.99 35.5573 343 36.0156C342.021 36.474 340.938 36.8021 339.75 37C339.625 38.4479 339.344 39.7708 338.906 40.9688C338.469 42.1562 337.906 43.1771 337.219 44.0312C336.542 44.8646 335.766 45.5052 334.891 45.9531C334.016 46.401 333.089 46.625 332.109 46.625ZM333.391 43.75C333.766 43.75 334.146 43.5833 334.531 43.25C334.927 42.9062 335.297 42.4323 335.641 41.8281C335.984 41.224 336.281 40.5156 336.531 39.7031C336.781 38.8906 336.969 38.0208 337.094 37.0938C336.781 37.0104 336.557 36.8542 336.422 36.625C336.297 36.3958 336.234 36.1042 336.234 35.75C336.234 35.3125 336.323 34.9479 336.5 34.6562C336.677 34.3646 336.922 34.151 337.234 34.0156C337.193 33.3385 337.083 32.8542 336.906 32.5625C336.812 32.4167 336.693 32.3125 336.547 32.25C336.411 32.1875 336.234 32.1562 336.016 32.1562C335.297 32.1562 334.594 32.6979 333.906 33.7812C333.271 34.7604 332.75 35.9688 332.344 37.4062C331.948 38.8125 331.75 40.0625 331.75 41.1562C331.75 41.6875 331.776 42.1198 331.828 42.4531C331.891 42.7865 331.99 43.0469 332.125 43.2344C332.25 43.4219 332.411 43.5573 332.609 43.6406C332.807 43.7135 333.068 43.75 333.391 43.75ZM343.938 29.3125H348.547L348.031 31.7188C349.115 30.8021 350.359 30.3438 351.766 30.3438C352.964 30.3438 353.891 30.7083 354.547 31.4375C355.297 32.2917 355.672 33.6094 355.672 35.3906C355.672 37.1094 355.453 38.724 355.016 40.2344C354.464 42.1615 353.661 43.6562 352.609 44.7188C351.318 46.0312 349.714 46.6875 347.797 46.6875C347.057 46.6875 346.448 46.5729 345.969 46.3438C345.604 46.1771 345.307 45.9115 345.078 45.5469L343.422 53.3438L338.594 54.5L343.938 29.3125ZM346.812 43.9062C347.844 43.9062 348.729 43.3802 349.469 42.3281C350.052 41.5052 350.521 40.349 350.875 38.8594C351.156 37.6615 351.297 36.474 351.297 35.2969C351.297 34.2448 351.104 33.4948 350.719 33.0469C350.469 32.776 350.125 32.6406 349.688 32.6406C349.302 32.6406 348.911 32.776 348.516 33.0469C348.12 33.3177 347.776 33.7083 347.484 34.2188L345.594 43.1719C345.667 43.3802 345.802 43.5573 346 43.7031C346.208 43.8385 346.479 43.9062 346.812 43.9062ZM368.047 46.6875C367.026 46.6875 366.214 46.3854 365.609 45.7812C364.943 45.1146 364.609 44.1406 364.609 42.8594C364.609 42.2969 364.698 41.599 364.875 40.7656L365.031 39.9688C364.396 40.6562 363.724 41.1406 363.016 41.4219C362.464 41.651 361.854 41.7656 361.188 41.7656C360.167 41.7656 359.359 41.4635 358.766 40.8594C358.099 40.1927 357.766 39.2135 357.766 37.9219C357.766 37.3906 357.854 36.6979 358.031 35.8438L359.141 30.5H363.75L362.5 36.4531C362.438 36.7656 362.406 37.0625 362.406 37.3438C362.406 38.2188 362.729 38.6562 363.375 38.6562C363.979 38.6562 364.516 38.3906 364.984 37.8594C365.432 37.349 365.745 36.6771 365.922 35.8438L367.047 30.5H371.656L369.359 41.375C369.266 41.6875 369.219 42.0312 369.219 42.4062C369.219 42.8438 369.323 43.151 369.531 43.3281C369.74 43.5052 370.073 43.5938 370.531 43.5938C371.125 43.5938 371.656 43.3281 372.125 42.7969C372.542 42.3281 372.875 41.651 373.125 40.7656H374.469C373.896 42.3906 373.203 43.6771 372.391 44.625C371.703 45.4062 370.927 45.9688 370.062 46.3125C369.427 46.5625 368.755 46.6875 368.047 46.6875ZM377.703 46.6875C376.13 46.6875 374.917 46.2917 374.062 45.5C373.156 44.6562 372.703 43.3594 372.703 41.6094C372.703 40.9531 372.771 40.224 372.906 39.4219C373.031 38.6198 373.224 37.8177 373.484 37.0156C373.776 36.1198 374.146 35.2708 374.594 34.4688C375.052 33.6667 375.583 32.9583 376.188 32.3438C377.583 30.9271 379.302 30.2188 381.344 30.2188C382.646 30.2188 383.594 30.5312 384.188 31.1562C384.646 31.6458 384.875 32.3542 384.875 33.2812C384.875 34.1875 384.677 35.0417 384.281 35.8438C383.885 36.6354 383.339 37.3385 382.641 37.9531C381.943 38.5573 381.151 39.0417 380.266 39.4062C379.38 39.7604 378.464 39.9688 377.516 40.0312C377.464 40.5729 377.438 41 377.438 41.3125C377.438 42.3542 377.635 43.0729 378.031 43.4688C378.375 43.8229 378.948 44 379.75 44C380.906 44 381.964 43.6875 382.922 43.0625C383.328 42.8021 383.719 42.4948 384.094 42.1406C384.469 41.776 384.906 41.3177 385.406 40.7656H386.5C385.49 42.474 384.328 43.8333 383.016 44.8438C381.401 46.0729 379.63 46.6875 377.703 46.6875ZM377.766 38.5C378.359 38.4583 378.938 38.2865 379.5 37.9844C380.062 37.6823 380.562 37.2865 381 36.7969C381.438 36.2969 381.781 35.7396 382.031 35.125C382.281 34.5 382.406 33.8646 382.406 33.2188C382.406 32.7917 382.344 32.4688 382.219 32.25C382.104 32.0208 381.901 31.9062 381.609 31.9062C381.224 31.9062 380.833 32.0938 380.438 32.4688C380.052 32.8438 379.677 33.3594 379.312 34.0156C378.979 34.6302 378.677 35.3281 378.406 36.1094C378.135 36.8906 377.922 37.6875 377.766 38.5ZM389.984 46.6875C388.411 46.6875 387.198 46.2917 386.344 45.5C385.438 44.6562 384.984 43.3594 384.984 41.6094C384.984 40.9531 385.052 40.224 385.188 39.4219C385.312 38.6094 385.51 37.8021 385.781 37C386.417 35.0521 387.318 33.5 388.484 32.3438C389.922 30.9271 391.625 30.2188 393.594 30.2188C394.875 30.2188 395.823 30.526 396.438 31.1406C396.917 31.6302 397.156 32.3021 397.156 33.1562C397.156 33.9062 396.99 34.4896 396.656 34.9062C396.344 35.2917 395.943 35.4844 395.453 35.4844C395.099 35.4844 394.724 35.3594 394.328 35.1094C394.589 34.4323 394.719 33.8021 394.719 33.2188C394.719 32.8125 394.641 32.4948 394.484 32.2656C394.339 32.026 394.12 31.9062 393.828 31.9062C393.203 31.9062 392.552 32.4583 391.875 33.5625C391.26 34.5417 390.75 35.7865 390.344 37.2969C389.927 38.776 389.719 40.1146 389.719 41.3125C389.719 42.3542 389.917 43.0729 390.312 43.4688C390.656 43.8229 391.229 44 392.031 44C393.188 44 394.245 43.6875 395.203 43.0625C395.609 42.8021 396 42.4948 396.375 42.1406C396.75 41.776 397.188 41.3177 397.688 40.7656H398.781C397.771 42.474 396.609 43.8333 395.297 44.8438C393.682 46.0729 391.911 46.6875 389.984 46.6875ZM409.234 46.6875C407.964 46.6875 407 46.375 406.344 45.75C405.698 45.125 405.375 44.2552 405.375 43.1406C405.375 42.776 405.438 42.2292 405.562 41.5C405.583 41.3333 405.604 41.2188 405.625 41.1562C405.646 40.9479 405.667 40.8073 405.688 40.7344C405.729 40.526 405.75 40.3125 405.75 40.0938C405.75 39.0729 405.344 38.5625 404.531 38.5625C404.26 38.5625 403.969 38.6562 403.656 38.8438L403.141 39.2188L402.484 39.75L401.078 46.5H396.469L399.891 30.5H404.5L403.125 36.8438C403.812 36.1562 404.479 35.4635 405.125 34.7656L405.359 34.5C406.599 33.1667 407.443 32.276 407.891 31.8281C408.63 31.0885 409.328 30.6094 409.984 30.3906C410.349 30.276 410.729 30.2188 411.125 30.2188C411.844 30.2188 412.391 30.4167 412.766 30.8125C413.141 31.1979 413.328 31.7031 413.328 32.3281C413.328 32.9844 413.151 33.4948 412.797 33.8594C412.453 34.224 411.958 34.4062 411.312 34.4062C410.719 34.4062 410.266 34.224 409.953 33.8594C409.672 33.5469 409.542 33.1823 409.562 32.7656C409.229 32.9635 408.911 33.1979 408.609 33.4688C408.318 33.7292 407.995 34.0417 407.641 34.4062L407.328 34.75C407.182 34.8958 406.984 35.1146 406.734 35.4062C406.474 35.7083 406.156 36.0469 405.781 36.4219C406.146 36.3385 406.594 36.2969 407.125 36.2969C408.229 36.2969 409.026 36.5521 409.516 37.0625C409.953 37.5104 410.172 38.2448 410.172 39.2656C410.172 39.6094 410.109 40.1146 409.984 40.7812C409.932 41.0417 409.885 41.3177 409.844 41.6094C409.802 41.8906 409.781 42.1562 409.781 42.4062C409.781 43.1979 410.208 43.5938 411.062 43.5938C411.385 43.5938 411.661 43.5417 411.891 43.4375C412.13 43.3229 412.349 43.1458 412.547 42.9062C412.734 42.6875 412.917 42.4115 413.094 42.0781C413.271 41.7448 413.479 41.3073 413.719 40.7656H415.062C413.719 44.7135 411.776 46.6875 409.234 46.6875ZM418.391 46.625C416.807 46.625 415.583 46.2396 414.719 45.4688C413.75 44.6146 413.266 43.3177 413.266 41.5781C413.266 40.9219 413.333 40.1979 413.469 39.4062C413.604 38.6042 413.812 37.7969 414.094 36.9844C414.74 35.0469 415.661 33.5 416.859 32.3438C418.307 30.9271 420.031 30.2188 422.031 30.2188C424.771 30.2188 426.141 31.9219 426.141 35.3281V35.3594C426.203 35.3802 426.255 35.3906 426.297 35.3906H426.484C427.193 35.3906 428.031 35.1927 429 34.7969C429.854 34.4427 430.661 34 431.422 33.4688L431.703 34.3438C431.078 35 430.271 35.5573 429.281 36.0156C428.302 36.474 427.219 36.8021 426.031 37C425.906 38.4479 425.625 39.7708 425.188 40.9688C424.75 42.1562 424.188 43.1771 423.5 44.0312C422.823 44.8646 422.047 45.5052 421.172 45.9531C420.297 46.401 419.37 46.625 418.391 46.625ZM419.672 43.75C420.047 43.75 420.427 43.5833 420.812 43.25C421.208 42.9062 421.578 42.4323 421.922 41.8281C422.266 41.224 422.562 40.5156 422.812 39.7031C423.062 38.8906 423.25 38.0208 423.375 37.0938C423.062 37.0104 422.839 36.8542 422.703 36.625C422.578 36.3958 422.516 36.1042 422.516 35.75C422.516 35.3125 422.604 34.9479 422.781 34.6562C422.958 34.3646 423.203 34.151 423.516 34.0156C423.474 33.3385 423.365 32.8542 423.188 32.5625C423.094 32.4167 422.974 32.3125 422.828 32.25C422.693 32.1875 422.516 32.1562 422.297 32.1562C421.578 32.1562 420.875 32.6979 420.188 33.7812C419.552 34.7604 419.031 35.9688 418.625 37.4062C418.229 38.8125 418.031 40.0625 418.031 41.1562C418.031 41.6875 418.057 42.1198 418.109 42.4531C418.172 42.7865 418.271 43.0469 418.406 43.2344C418.531 43.4219 418.693 43.5573 418.891 43.6406C419.089 43.7135 419.349 43.75 419.672 43.75ZM432.359 46.6875C430.786 46.6875 429.573 46.2917 428.719 45.5C427.812 44.6562 427.359 43.3594 427.359 41.6094C427.359 40.9531 427.427 40.224 427.562 39.4219C427.688 38.6198 427.88 37.8177 428.141 37.0156C428.432 36.1198 428.802 35.2708 429.25 34.4688C429.708 33.6667 430.24 32.9583 430.844 32.3438C432.24 30.9271 433.958 30.2188 436 30.2188C437.302 30.2188 438.25 30.5312 438.844 31.1562C439.302 31.6458 439.531 32.3542 439.531 33.2812C439.531 34.1875 439.333 35.0417 438.938 35.8438C438.542 36.6354 437.995 37.3385 437.297 37.9531C436.599 38.5573 435.807 39.0417 434.922 39.4062C434.036 39.7604 433.12 39.9688 432.172 40.0312C432.12 40.5729 432.094 41 432.094 41.3125C432.094 42.3542 432.292 43.0729 432.688 43.4688C433.031 43.8229 433.604 44 434.406 44C435.562 44 436.62 43.6875 437.578 43.0625C437.984 42.8021 438.375 42.4948 438.75 42.1406C439.125 41.776 439.562 41.3177 440.062 40.7656H441.156C440.146 42.474 438.984 43.8333 437.672 44.8438C436.057 46.0729 434.286 46.6875 432.359 46.6875ZM432.422 38.5C433.016 38.4583 433.594 38.2865 434.156 37.9844C434.719 37.6823 435.219 37.2865 435.656 36.7969C436.094 36.2969 436.438 35.7396 436.688 35.125C436.938 34.5 437.062 33.8646 437.062 33.2188C437.062 32.7917 437 32.4688 436.875 32.25C436.76 32.0208 436.557 31.9062 436.266 31.9062C435.88 31.9062 435.49 32.0938 435.094 32.4688C434.708 32.8438 434.333 33.3594 433.969 34.0156C433.635 34.6302 433.333 35.3281 433.062 36.1094C432.792 36.8906 432.578 37.6875 432.422 38.5ZM449.438 29.3125H454.047L453.531 31.7188C454.615 30.8021 455.859 30.3438 457.266 30.3438C458.464 30.3438 459.391 30.7083 460.047 31.4375C460.797 32.2917 461.172 33.6094 461.172 35.3906C461.172 37.1094 460.953 38.724 460.516 40.2344C459.964 42.1615 459.161 43.6562 458.109 44.7188C456.818 46.0312 455.214 46.6875 453.297 46.6875C452.557 46.6875 451.948 46.5729 451.469 46.3438C451.104 46.1771 450.807 45.9115 450.578 45.5469L448.922 53.3438L444.094 54.5L449.438 29.3125ZM452.312 43.9062C453.344 43.9062 454.229 43.3802 454.969 42.3281C455.552 41.5052 456.021 40.349 456.375 38.8594C456.656 37.6615 456.797 36.474 456.797 35.2969C456.797 34.2448 456.604 33.4948 456.219 33.0469C455.969 32.776 455.625 32.6406 455.188 32.6406C454.802 32.6406 454.411 32.776 454.016 33.0469C453.62 33.3177 453.276 33.7083 452.984 34.2188L451.094 43.1719C451.167 43.3802 451.302 43.5573 451.5 43.7031C451.708 43.8385 451.979 43.9062 452.312 43.9062ZM466.312 46.6875C465.094 46.6875 464.109 46.3073 463.359 45.5469C462.484 44.651 462.047 43.3177 462.047 41.5469C462.047 40.7969 462.125 40.0052 462.281 39.1719C462.427 38.3385 462.646 37.5156 462.938 36.7031C463.604 34.8698 464.516 33.3906 465.672 32.2656C467.005 30.9844 468.542 30.3438 470.281 30.3438C471.146 30.3438 471.792 30.4948 472.219 30.7969C472.656 31.0885 472.875 31.4792 472.875 31.9688V32.2031L473.219 30.5H477.828L475.531 41.375C475.438 41.6875 475.391 42.0312 475.391 42.4062C475.391 43.3229 475.828 43.7812 476.703 43.7812C477.286 43.7812 477.818 43.4844 478.297 42.8906C478.703 42.3906 479.036 41.6823 479.297 40.7656H480.641C480.068 42.3906 479.375 43.6771 478.562 44.625C477.875 45.4062 477.099 45.9688 476.234 46.3125C475.599 46.5625 474.927 46.6875 474.219 46.6875C473.312 46.6875 472.589 46.4427 472.047 45.9531C471.516 45.4531 471.193 44.7188 471.078 43.75C470.474 44.6042 469.839 45.2708 469.172 45.75C468.318 46.375 467.365 46.6875 466.312 46.6875ZM468.391 43.5938C468.63 43.5938 468.88 43.5312 469.141 43.4062C469.411 43.2812 469.672 43.1042 469.922 42.875C470.484 42.3333 470.859 41.6302 471.047 40.7656L472.578 33.5469C472.578 33.4427 472.552 33.3229 472.5 33.1875C472.458 33.0417 472.396 32.9062 472.312 32.7812C472.062 32.4792 471.714 32.3281 471.266 32.3281C470.839 32.3281 470.422 32.4688 470.016 32.75C469.62 33.0312 469.245 33.4219 468.891 33.9219C468.266 34.8281 467.75 36.0104 467.344 37.4688C467.156 38.1146 467.016 38.7552 466.922 39.3906C466.828 40.0156 466.781 40.5833 466.781 41.0938C466.781 42.1562 466.979 42.875 467.375 43.25C467.51 43.3958 467.661 43.4896 467.828 43.5312C467.995 43.5729 468.182 43.5938 468.391 43.5938ZM484.688 54.5C483.677 54.5 482.839 54.2396 482.172 53.7188C481.839 53.4583 481.578 53.1302 481.391 52.7344C481.203 52.349 481.109 51.901 481.109 51.3906C481.109 50.224 481.646 49.2083 482.719 48.3438C483.542 47.6979 484.677 47.1458 486.125 46.6875C486.062 44.4271 485.297 43.2969 483.828 43.2969H482.828L483.25 41.375H484.172C484.734 41.375 485.26 41.2344 485.75 40.9531C486.24 40.6719 486.661 40.276 487.016 39.7656C487.359 39.2552 487.625 38.6667 487.812 38C488.01 37.3333 488.109 36.625 488.109 35.875C488.109 35.0938 487.99 34.4792 487.75 34.0312C487.427 33.4271 486.896 33.125 486.156 33.125C484.979 33.125 483.958 33.7083 483.094 34.875C482.146 36.1458 481.333 38.1094 480.656 40.7656H479.312C479.615 39.5885 479.885 38.5938 480.125 37.7812C480.365 36.9583 480.63 36.1927 480.922 35.4844C481.599 33.7969 482.443 32.526 483.453 31.6719C484.62 30.7031 486.099 30.2188 487.891 30.2188C488.651 30.2188 489.344 30.3333 489.969 30.5625C490.594 30.7812 491.125 31.1042 491.562 31.5312C492.479 32.4479 492.938 33.7031 492.938 35.2969C492.938 36.5573 492.604 37.7708 491.938 38.9375C491.406 39.875 490.708 40.6823 489.844 41.3594C489.479 41.6406 489.13 41.8698 488.797 42.0469C488.474 42.224 488.203 42.3333 487.984 42.375C488.505 42.5521 489.016 42.9167 489.516 43.4688C490.057 44.0833 490.422 44.7865 490.609 45.5781C491.203 45.4115 491.724 45.2083 492.172 44.9688C492.63 44.7292 493.042 44.4323 493.406 44.0781C493.781 43.7135 494.115 43.2656 494.406 42.7344C494.708 42.1927 494.99 41.5365 495.25 40.7656H496.594C496.031 42.6927 495.146 44.1875 493.938 45.25C493.062 46.0104 491.995 46.5469 490.734 46.8594C490.714 48.0573 490.552 49.1302 490.25 50.0781C489.958 51.026 489.547 51.8281 489.016 52.4844C488.484 53.1406 487.849 53.6406 487.109 53.9844C486.38 54.3281 485.573 54.5 484.688 54.5ZM483.953 52C484.172 52 484.396 51.901 484.625 51.7031C484.854 51.5052 485.062 51.2292 485.25 50.875C485.635 50.1562 485.896 49.276 486.031 48.2344C485.042 48.5885 484.307 48.9479 483.828 49.3125C483.182 49.8229 482.859 50.3698 482.859 50.9531C482.859 51.2656 482.953 51.5156 483.141 51.7031C483.328 51.901 483.599 52 483.953 52ZM500.109 46.625C498.359 46.625 497.016 46.0833 496.078 45C495.224 44.0104 494.797 42.6354 494.797 40.875C494.797 40.3021 494.865 39.599 495 38.7656C495.125 37.9219 495.307 37.0156 495.547 36.0469C496.068 33.9635 496.76 31.9271 497.625 29.9375C498.583 27.75 499.635 26 500.781 24.6875C502.073 23.2083 503.385 22.4688 504.719 22.4688C505.833 22.4688 506.688 22.8021 507.281 23.4688C507.917 24.1979 508.234 25.3281 508.234 26.8594C508.234 28.0677 507.938 29.4375 507.344 30.9688C506.896 32.125 506.323 33.3125 505.625 34.5312C506.073 34.75 506.474 35.0677 506.828 35.4844C507.755 35.4844 508.807 35.2656 509.984 34.8281C511.036 34.4531 511.938 34 512.688 33.4688L512.984 34.3438C512.391 34.9688 511.625 35.5104 510.688 35.9688C509.75 36.4167 508.708 36.7396 507.562 36.9375C507.677 37.3333 507.734 37.8646 507.734 38.5312C507.734 39.5938 507.562 40.6094 507.219 41.5781C506.875 42.5469 506.375 43.4062 505.719 44.1562C505.042 44.9375 504.224 45.5469 503.266 45.9844C502.318 46.4115 501.266 46.625 500.109 46.625ZM501.516 43.75C502.016 43.75 502.474 43.6198 502.891 43.3594C503.307 43.099 503.661 42.7396 503.953 42.2812C504.234 41.8542 504.448 41.3802 504.594 40.8594C504.74 40.3281 504.812 39.7969 504.812 39.2656C504.812 38.474 504.719 37.8906 504.531 37.5156C504.323 37.5885 504.146 37.6406 504 37.6719C503.865 37.6927 503.656 37.7031 503.375 37.7031C502.865 37.7031 502.458 37.5625 502.156 37.2812C501.865 37 501.719 36.6146 501.719 36.125C501.719 35.4896 501.932 35.0104 502.359 34.6875C502.703 34.4271 503.234 34.2708 503.953 34.2188C504.526 33.1875 505.042 31.974 505.5 30.5781C505.958 29.151 506.188 27.8646 506.188 26.7188C506.188 26.0729 506.104 25.6198 505.938 25.3594C505.781 25.099 505.516 24.9688 505.141 24.9688C504.807 24.9688 504.469 25.1458 504.125 25.5C503.781 25.8542 503.443 26.349 503.109 26.9844C502.505 28.1615 501.911 29.7292 501.328 31.6875C500.828 33.3438 500.401 35.125 500.047 37.0312C499.724 38.7396 499.562 40.0521 499.562 40.9688C499.562 41.8333 499.714 42.5 500.016 42.9688C500.339 43.4896 500.839 43.75 501.516 43.75ZM512.797 46.6875C511.776 46.6875 510.969 46.3854 510.375 45.7812C509.708 45.1146 509.375 44.1406 509.375 42.8594C509.375 42.2552 509.458 41.5573 509.625 40.7656L511.797 30.5H516.406L514.109 41.375C514.047 41.6979 514.016 42 514.016 42.2812C514.016 43.1562 514.333 43.5938 514.969 43.5938C515.552 43.5938 516.078 43.3281 516.547 42.7969C516.922 42.349 517.25 41.6719 517.531 40.7656L519.703 30.5H524.312L522.016 41.375C521.922 41.6875 521.875 42.0312 521.875 42.4062C521.875 42.8438 521.979 43.151 522.188 43.3281C522.396 43.5052 522.729 43.5938 523.188 43.5938C523.781 43.5938 524.312 43.3281 524.781 42.7969C525.198 42.3281 525.531 41.651 525.781 40.7656H527.125C526.552 42.3906 525.859 43.6771 525.047 44.625C524.359 45.4062 523.583 45.9688 522.719 46.3125C522.083 46.5625 521.411 46.6875 520.703 46.6875C519.786 46.6875 519.057 46.4323 518.516 45.9219C517.974 45.4115 517.646 44.6562 517.531 43.6562C516.802 44.8229 515.979 45.6562 515.062 46.1562C514.406 46.5104 513.651 46.6875 512.797 46.6875ZM545.234 46.6875C543.911 46.6875 542.932 46.3125 542.297 45.5625C541.745 44.9167 541.469 44.0885 541.469 43.0781C541.469 42.599 541.526 42.0417 541.641 41.4062C541.766 40.7708 541.948 39.9531 542.188 38.9531C542.427 37.9323 542.604 37.1198 542.719 36.5156C542.844 35.901 542.906 35.3698 542.906 34.9219C542.906 33.8281 542.521 33.2812 541.75 33.2812C541.208 33.2812 540.708 33.5677 540.25 34.1406C539.865 34.6302 539.531 35.3281 539.25 36.2344L537.078 46.5H532.469L534.812 35.4531C534.875 35.2031 534.906 34.9375 534.906 34.6562C534.906 34.2292 534.839 33.901 534.703 33.6719C534.526 33.3906 534.271 33.25 533.938 33.25C533.333 33.25 532.807 33.5417 532.359 34.125C531.964 34.625 531.625 35.3281 531.344 36.2344L529.172 46.5H524.562L527.953 30.5H532.562L532.219 32.1562C532.844 31.4583 533.526 30.9635 534.266 30.6719C534.849 30.4531 535.469 30.3438 536.125 30.3438C537.021 30.3438 537.734 30.5521 538.266 30.9688C538.859 31.4375 539.24 32.1458 539.406 33.0938C540.094 32.0312 540.885 31.2812 541.781 30.8438C542.417 30.5312 543.109 30.375 543.859 30.375C544.932 30.375 545.781 30.6562 546.406 31.2188C547.073 31.8333 547.406 32.7552 547.406 33.9844C547.406 34.6823 547.276 35.6458 547.016 36.875C546.911 37.3854 546.786 37.901 546.641 38.4219C546.38 39.4219 546.167 40.3438 546 41.1875C545.917 41.625 545.875 41.9792 545.875 42.25C545.875 42.6771 545.969 43.0104 546.156 43.25C546.354 43.4792 546.688 43.5938 547.156 43.5938C547.792 43.5938 548.328 43.3333 548.766 42.8125C549.099 42.4167 549.458 41.7344 549.844 40.7656H551.188C550.396 43.1094 549.396 44.75 548.188 45.6875C547.333 46.3542 546.349 46.6875 545.234 46.6875ZM553.016 46.6875C551.995 46.6875 551.188 46.3854 550.594 45.7812C549.927 45.1146 549.594 44.1406 549.594 42.8594C549.594 42.2552 549.677 41.5573 549.844 40.7656L552.016 30.5H556.625L554.328 41.375C554.266 41.6979 554.234 42 554.234 42.2812C554.234 43.1562 554.552 43.5938 555.188 43.5938C555.771 43.5938 556.297 43.3281 556.766 42.7969C557.141 42.349 557.469 41.6719 557.75 40.7656L559.922 30.5H564.531L562.234 41.375C562.141 41.6875 562.094 42.0312 562.094 42.4062C562.094 42.8438 562.198 43.151 562.406 43.3281C562.615 43.5052 562.948 43.5938 563.406 43.5938C564 43.5938 564.531 43.3281 565 42.7969C565.417 42.3281 565.75 41.651 566 40.7656H567.344C566.771 42.3906 566.078 43.6771 565.266 44.625C564.578 45.4062 563.802 45.9688 562.938 46.3125C562.302 46.5625 561.63 46.6875 560.922 46.6875C560.005 46.6875 559.276 46.4323 558.734 45.9219C558.193 45.4115 557.865 44.6562 557.75 43.6562C557.021 44.8229 556.198 45.6562 555.281 46.1562C554.625 46.5104 553.87 46.6875 553.016 46.6875ZM570.578 46.6875C569.005 46.6875 567.792 46.2917 566.938 45.5C566.031 44.6562 565.578 43.3594 565.578 41.6094C565.578 40.9531 565.646 40.224 565.781 39.4219C565.906 38.6198 566.099 37.8177 566.359 37.0156C566.651 36.1198 567.021 35.2708 567.469 34.4688C567.927 33.6667 568.458 32.9583 569.062 32.3438C570.458 30.9271 572.177 30.2188 574.219 30.2188C575.521 30.2188 576.469 30.5312 577.062 31.1562C577.521 31.6458 577.75 32.3542 577.75 33.2812C577.75 34.1875 577.552 35.0417 577.156 35.8438C576.76 36.6354 576.214 37.3385 575.516 37.9531C574.818 38.5573 574.026 39.0417 573.141 39.4062C572.255 39.7604 571.339 39.9688 570.391 40.0312C570.339 40.5729 570.312 41 570.312 41.3125C570.312 42.3542 570.51 43.0729 570.906 43.4688C571.25 43.8229 571.823 44 572.625 44C573.781 44 574.839 43.6875 575.797 43.0625C576.203 42.8021 576.594 42.4948 576.969 42.1406C577.344 41.776 577.781 41.3177 578.281 40.7656H579.375C578.365 42.474 577.203 43.8333 575.891 44.8438C574.276 46.0729 572.505 46.6875 570.578 46.6875ZM570.641 38.5C571.234 38.4583 571.812 38.2865 572.375 37.9844C572.938 37.6823 573.438 37.2865 573.875 36.7969C574.312 36.2969 574.656 35.7396 574.906 35.125C575.156 34.5 575.281 33.8646 575.281 33.2188C575.281 32.7917 575.219 32.4688 575.094 32.25C574.979 32.0208 574.776 31.9062 574.484 31.9062C574.099 31.9062 573.708 32.0938 573.312 32.4688C572.927 32.8438 572.552 33.3594 572.188 34.0156C571.854 34.6302 571.552 35.3281 571.281 36.1094C571.01 36.8906 570.797 37.6875 570.641 38.5Z" fill="#16578D"></path> <path d="M93.5645 67.6914C94.7656 67.6914 95.7236 68.1045 96.4385 68.9307C97.1533 69.7568 97.5107 70.999 97.5107 72.6572C97.5107 73.7529 97.3467 74.6729 97.0186 75.417C96.6904 76.1611 96.2275 76.7236 95.6299 77.1045C95.0381 77.4854 94.3379 77.6758 93.5293 77.6758C93.0195 77.6758 92.5713 77.6084 92.1846 77.4736C91.7979 77.3389 91.4668 77.1572 91.1914 76.9287C90.916 76.7002 90.6875 76.4512 90.5059 76.1816H90.4004C90.418 76.4102 90.4385 76.6855 90.4619 77.0078C90.4912 77.3301 90.5059 77.6113 90.5059 77.8516V81.8066H89.0381V67.8672H90.2422L90.4355 69.291H90.5059C90.6934 68.998 90.9219 68.7314 91.1914 68.4912C91.4609 68.2451 91.7891 68.0518 92.1758 67.9111C92.5684 67.7646 93.0312 67.6914 93.5645 67.6914ZM93.3096 68.9219C92.6416 68.9219 92.1025 69.0508 91.6924 69.3086C91.2881 69.5664 90.9922 69.9531 90.8047 70.4688C90.6172 70.9785 90.5176 71.6201 90.5059 72.3936V72.6748C90.5059 73.4893 90.5938 74.1777 90.7695 74.7402C90.9512 75.3027 91.2471 75.7305 91.6572 76.0234C92.0732 76.3164 92.6299 76.4629 93.3271 76.4629C93.9248 76.4629 94.4229 76.3018 94.8213 75.9795C95.2197 75.6572 95.5156 75.209 95.709 74.6348C95.9082 74.0547 96.0078 73.3896 96.0078 72.6396C96.0078 71.5029 95.7852 70.6006 95.3398 69.9326C94.9004 69.2588 94.2236 68.9219 93.3096 68.9219ZM103.663 67.709C104.812 67.709 105.664 67.9668 106.221 68.4824C106.777 68.998 107.056 69.8213 107.056 70.9521V77.5H105.992L105.711 76.0762H105.641C105.371 76.4277 105.09 76.7236 104.797 76.9639C104.504 77.1982 104.164 77.377 103.777 77.5C103.396 77.6172 102.928 77.6758 102.371 77.6758C101.785 77.6758 101.264 77.5732 100.807 77.3682C100.355 77.1631 99.998 76.8525 99.7344 76.4365C99.4766 76.0205 99.3477 75.4932 99.3477 74.8545C99.3477 73.8936 99.7285 73.1553 100.49 72.6396C101.252 72.124 102.412 71.8428 103.971 71.7959L105.632 71.7256V71.1367C105.632 70.3047 105.453 69.7217 105.096 69.3877C104.738 69.0537 104.234 68.8867 103.584 68.8867C103.08 68.8867 102.6 68.96 102.143 69.1064C101.686 69.2529 101.252 69.4258 100.842 69.625L100.394 68.5176C100.827 68.2949 101.325 68.1045 101.888 67.9463C102.45 67.7881 103.042 67.709 103.663 67.709ZM105.614 72.7539L104.146 72.8154C102.945 72.8623 102.099 73.0586 101.606 73.4043C101.114 73.75 100.868 74.2393 100.868 74.8721C100.868 75.4229 101.035 75.8301 101.369 76.0938C101.703 76.3574 102.146 76.4893 102.696 76.4893C103.552 76.4893 104.252 76.252 104.797 75.7773C105.342 75.3027 105.614 74.5908 105.614 73.6416V72.7539ZM109.561 71.7168C109.561 70.3457 109.692 69.1768 109.956 68.21C110.22 67.2373 110.627 66.458 111.178 65.8721C111.734 65.2803 112.449 64.876 113.322 64.6592C114.072 64.4541 114.834 64.2783 115.607 64.1318C116.381 63.9795 117.134 63.8477 117.866 63.7363L118.121 65.0195C117.752 65.0723 117.365 65.1338 116.961 65.2041C116.557 65.2686 116.152 65.3389 115.748 65.415C115.344 65.4854 114.963 65.5615 114.605 65.6436C114.248 65.7197 113.932 65.7988 113.656 65.8809C113.158 66.0156 112.728 66.25 112.364 66.584C112.007 66.918 111.723 67.3779 111.512 67.9639C111.307 68.5498 111.184 69.2881 111.143 70.1787H111.248C111.424 69.9209 111.664 69.666 111.969 69.4141C112.273 69.1621 112.637 68.9541 113.059 68.79C113.48 68.6201 113.955 68.5352 114.482 68.5352C115.314 68.5352 116.009 68.7168 116.565 69.0801C117.122 69.4375 117.541 69.9414 117.822 70.5918C118.104 71.2422 118.244 72.0039 118.244 72.877C118.244 73.9258 118.062 74.8076 117.699 75.5225C117.342 76.2373 116.838 76.7764 116.188 77.1396C115.537 77.4971 114.772 77.6758 113.894 77.6758C113.214 77.6758 112.604 77.5439 112.065 77.2803C111.532 77.0166 111.078 76.6299 110.703 76.1201C110.334 75.6104 110.05 74.9863 109.851 74.248C109.657 73.5098 109.561 72.666 109.561 71.7168ZM114.008 76.4629C114.564 76.4629 115.042 76.3457 115.44 76.1113C115.845 75.877 116.155 75.5078 116.372 75.0039C116.595 74.4941 116.706 73.832 116.706 73.0176C116.706 71.998 116.51 71.2012 116.117 70.627C115.73 70.0469 115.109 69.7568 114.254 69.7568C113.721 69.7568 113.237 69.8711 112.804 70.0996C112.37 70.3223 112.004 70.5889 111.705 70.8994C111.406 71.21 111.189 71.4883 111.055 71.7344C111.055 72.332 111.099 72.9121 111.187 73.4746C111.274 74.0371 111.427 74.5439 111.644 74.9951C111.86 75.4463 112.159 75.8037 112.54 76.0674C112.927 76.3311 113.416 76.4629 114.008 76.4629ZM129.072 72.666C129.072 73.457 128.97 74.1631 128.765 74.7842C128.56 75.4053 128.264 75.9297 127.877 76.3574C127.49 76.7852 127.021 77.1133 126.471 77.3418C125.926 77.5645 125.308 77.6758 124.616 77.6758C123.972 77.6758 123.38 77.5645 122.841 77.3418C122.308 77.1133 121.845 76.7852 121.452 76.3574C121.065 75.9297 120.764 75.4053 120.547 74.7842C120.336 74.1631 120.23 73.457 120.23 72.666C120.23 71.6113 120.409 70.7148 120.767 69.9766C121.124 69.2324 121.634 68.667 122.296 68.2803C122.964 67.8877 123.758 67.6914 124.678 67.6914C125.557 67.6914 126.324 67.8877 126.98 68.2803C127.643 68.6729 128.155 69.2412 128.519 69.9854C128.888 70.7236 129.072 71.6172 129.072 72.666ZM121.742 72.666C121.742 73.4395 121.845 74.1104 122.05 74.6787C122.255 75.2471 122.571 75.6865 122.999 75.9971C123.427 76.3076 123.978 76.4629 124.651 76.4629C125.319 76.4629 125.867 76.3076 126.295 75.9971C126.729 75.6865 127.048 75.2471 127.253 74.6787C127.458 74.1104 127.561 73.4395 127.561 72.666C127.561 71.8984 127.458 71.2363 127.253 70.6797C127.048 70.1172 126.731 69.6836 126.304 69.3789C125.876 69.0742 125.322 68.9219 124.643 68.9219C123.641 68.9219 122.905 69.2529 122.437 69.915C121.974 70.5771 121.742 71.4941 121.742 72.666ZM138.16 69.1064H134.987V77.5H133.546V69.1064H130.417V67.8672H138.16V69.1064ZM143.671 67.709C144.819 67.709 145.672 67.9668 146.229 68.4824C146.785 68.998 147.063 69.8213 147.063 70.9521V77.5H146L145.719 76.0762H145.648C145.379 76.4277 145.098 76.7236 144.805 76.9639C144.512 77.1982 144.172 77.377 143.785 77.5C143.404 77.6172 142.936 77.6758 142.379 77.6758C141.793 77.6758 141.271 77.5732 140.814 77.3682C140.363 77.1631 140.006 76.8525 139.742 76.4365C139.484 76.0205 139.355 75.4932 139.355 74.8545C139.355 73.8936 139.736 73.1553 140.498 72.6396C141.26 72.124 142.42 71.8428 143.979 71.7959L145.64 71.7256V71.1367C145.64 70.3047 145.461 69.7217 145.104 69.3877C144.746 69.0537 144.242 68.8867 143.592 68.8867C143.088 68.8867 142.607 68.96 142.15 69.1064C141.693 69.2529 141.26 69.4258 140.85 69.625L140.401 68.5176C140.835 68.2949 141.333 68.1045 141.896 67.9463C142.458 67.7881 143.05 67.709 143.671 67.709ZM145.622 72.7539L144.154 72.8154C142.953 72.8623 142.106 73.0586 141.614 73.4043C141.122 73.75 140.876 74.2393 140.876 74.8721C140.876 75.4229 141.043 75.8301 141.377 76.0938C141.711 76.3574 142.153 76.4893 142.704 76.4893C143.56 76.4893 144.26 76.252 144.805 75.7773C145.35 75.3027 145.622 74.5908 145.622 73.6416V72.7539ZM153.778 67.6914C154.599 67.6914 155.302 67.873 155.888 68.2363C156.474 68.5996 156.922 69.1094 157.232 69.7656C157.543 70.416 157.698 71.1777 157.698 72.0508V72.9561H151.045C151.062 74.0869 151.344 74.9482 151.889 75.54C152.434 76.1318 153.201 76.4277 154.191 76.4277C154.801 76.4277 155.34 76.3721 155.809 76.2607C156.277 76.1494 156.764 75.9854 157.268 75.7686V77.0518C156.781 77.2686 156.298 77.4268 155.817 77.5264C155.343 77.626 154.78 77.6758 154.13 77.6758C153.204 77.6758 152.396 77.4883 151.704 77.1133C151.019 76.7324 150.485 76.1758 150.104 75.4434C149.724 74.7109 149.533 73.8145 149.533 72.7539C149.533 71.7168 149.706 70.8203 150.052 70.0645C150.403 69.3027 150.896 68.7168 151.528 68.3066C152.167 67.8965 152.917 67.6914 153.778 67.6914ZM153.761 68.8867C152.981 68.8867 152.36 69.1416 151.897 69.6514C151.435 70.1611 151.159 70.873 151.071 71.7871H156.169C156.163 71.2129 156.072 70.709 155.896 70.2754C155.727 69.8359 155.466 69.4961 155.114 69.2559C154.763 69.0098 154.312 68.8867 153.761 68.8867ZM170.346 67.8672V77.5H169.027V71.2246C169.027 70.9668 169.033 70.7061 169.045 70.4424C169.062 70.1729 169.083 69.9033 169.106 69.6338H169.054L165.854 77.5H164.615L161.495 69.6338H161.442C161.46 69.9033 161.472 70.1729 161.478 70.4424C161.489 70.7061 161.495 70.9844 161.495 71.2773V77.5H160.168V67.8672H162.128L165.239 75.7422L168.395 67.8672H170.346ZM181.912 77.6758C181.045 77.6758 180.28 77.4971 179.618 77.1396C178.956 76.7822 178.44 76.2373 178.071 75.5049C177.702 74.7725 177.518 73.8496 177.518 72.7363C177.518 71.5703 177.711 70.6182 178.098 69.8799C178.49 69.1357 179.029 68.585 179.715 68.2275C180.4 67.8701 181.18 67.6914 182.053 67.6914C182.533 67.6914 182.996 67.7412 183.441 67.8408C183.893 67.9346 184.262 68.0547 184.549 68.2012L184.109 69.4229C183.816 69.3057 183.477 69.2002 183.09 69.1064C182.709 69.0127 182.352 68.9658 182.018 68.9658C181.35 68.9658 180.793 69.1094 180.348 69.3965C179.908 69.6836 179.577 70.1055 179.354 70.6621C179.138 71.2188 179.029 71.9043 179.029 72.7188C179.029 73.498 179.135 74.1631 179.346 74.7139C179.562 75.2646 179.882 75.6865 180.304 75.9795C180.731 76.2666 181.265 76.4102 181.903 76.4102C182.413 76.4102 182.873 76.3574 183.283 76.252C183.693 76.1406 184.065 76.0117 184.399 75.8652V77.166C184.077 77.3301 183.717 77.4561 183.318 77.5439C182.926 77.6318 182.457 77.6758 181.912 77.6758ZM195.887 67.6914C197.088 67.6914 198.046 68.1045 198.761 68.9307C199.476 69.7568 199.833 70.999 199.833 72.6572C199.833 73.7529 199.669 74.6729 199.341 75.417C199.013 76.1611 198.55 76.7236 197.952 77.1045C197.36 77.4854 196.66 77.6758 195.852 77.6758C195.342 77.6758 194.894 77.6084 194.507 77.4736C194.12 77.3389 193.789 77.1572 193.514 76.9287C193.238 76.7002 193.01 76.4512 192.828 76.1816H192.723C192.74 76.4102 192.761 76.6855 192.784 77.0078C192.813 77.3301 192.828 77.6113 192.828 77.8516V81.8066H191.36V67.8672H192.564L192.758 69.291H192.828C193.016 68.998 193.244 68.7314 193.514 68.4912C193.783 68.2451 194.111 68.0518 194.498 67.9111C194.891 67.7646 195.354 67.6914 195.887 67.6914ZM195.632 68.9219C194.964 68.9219 194.425 69.0508 194.015 69.3086C193.61 69.5664 193.314 69.9531 193.127 70.4688C192.939 70.9785 192.84 71.6201 192.828 72.3936V72.6748C192.828 73.4893 192.916 74.1777 193.092 74.7402C193.273 75.3027 193.569 75.7305 193.979 76.0234C194.396 76.3164 194.952 76.4629 195.649 76.4629C196.247 76.4629 196.745 76.3018 197.144 75.9795C197.542 75.6572 197.838 75.209 198.031 74.6348C198.23 74.0547 198.33 73.3896 198.33 72.6396C198.33 71.5029 198.107 70.6006 197.662 69.9326C197.223 69.2588 196.546 68.9219 195.632 68.9219ZM205.985 67.709C207.134 67.709 207.986 67.9668 208.543 68.4824C209.1 68.998 209.378 69.8213 209.378 70.9521V77.5H208.314L208.033 76.0762H207.963C207.693 76.4277 207.412 76.7236 207.119 76.9639C206.826 77.1982 206.486 77.377 206.1 77.5C205.719 77.6172 205.25 77.6758 204.693 77.6758C204.107 77.6758 203.586 77.5732 203.129 77.3682C202.678 77.1631 202.32 76.8525 202.057 76.4365C201.799 76.0205 201.67 75.4932 201.67 74.8545C201.67 73.8936 202.051 73.1553 202.812 72.6396C203.574 72.124 204.734 71.8428 206.293 71.7959L207.954 71.7256V71.1367C207.954 70.3047 207.775 69.7217 207.418 69.3877C207.061 69.0537 206.557 68.8867 205.906 68.8867C205.402 68.8867 204.922 68.96 204.465 69.1064C204.008 69.2529 203.574 69.4258 203.164 69.625L202.716 68.5176C203.149 68.2949 203.647 68.1045 204.21 67.9463C204.772 67.7881 205.364 67.709 205.985 67.709ZM207.937 72.7539L206.469 72.8154C205.268 72.8623 204.421 73.0586 203.929 73.4043C203.437 73.75 203.19 74.2393 203.19 74.8721C203.19 75.4229 203.357 75.8301 203.691 76.0938C204.025 76.3574 204.468 76.4893 205.019 76.4893C205.874 76.4893 206.574 76.252 207.119 75.7773C207.664 75.3027 207.937 74.5908 207.937 73.6416V72.7539ZM214.862 67.6914C215.583 67.6914 216.207 67.791 216.734 67.9902C217.262 68.1836 217.669 68.4678 217.956 68.8428C218.243 69.2178 218.387 69.6748 218.387 70.2139C218.387 70.7939 218.229 71.2568 217.912 71.6025C217.596 71.9482 217.159 72.1973 216.603 72.3496V72.4199C216.995 72.5254 217.35 72.6777 217.666 72.877C217.988 73.0703 218.243 73.3281 218.431 73.6504C218.624 73.9668 218.721 74.3623 218.721 74.8369C218.721 75.376 218.574 75.8623 218.281 76.2959C217.988 76.7236 217.543 77.0605 216.945 77.3066C216.348 77.5527 215.592 77.6758 214.678 77.6758C214.227 77.6758 213.799 77.6494 213.395 77.5967C212.99 77.5498 212.624 77.4795 212.296 77.3857C211.968 77.292 211.681 77.1807 211.435 77.0518V75.7246C211.845 75.9238 212.325 76.0996 212.876 76.252C213.427 76.4043 214.021 76.4805 214.66 76.4805C215.152 76.4805 215.595 76.4248 215.987 76.3135C216.38 76.1963 216.69 76.0117 216.919 75.7598C217.153 75.502 217.271 75.165 217.271 74.749C217.271 74.3682 217.168 74.0547 216.963 73.8086C216.758 73.5566 216.45 73.3721 216.04 73.2549C215.636 73.1318 215.123 73.0703 214.502 73.0703H213.21V71.875H214.273C215.1 71.875 215.759 71.7578 216.251 71.5234C216.743 71.2891 216.989 70.8936 216.989 70.3369C216.989 69.8564 216.799 69.499 216.418 69.2646C216.037 69.0244 215.492 68.9043 214.783 68.9043C214.256 68.9043 213.79 68.96 213.386 69.0713C212.981 69.1768 212.545 69.3291 212.076 69.5283L211.558 68.3594C212.062 68.1367 212.589 67.9697 213.14 67.8584C213.69 67.7471 214.265 67.6914 214.862 67.6914ZM228.31 77.5H226.824V69.0889H223.897C223.78 70.6064 223.631 71.9072 223.449 72.9912C223.273 74.0693 223.051 74.9512 222.781 75.6367C222.518 76.3164 222.195 76.8174 221.814 77.1396C221.439 77.4561 220.991 77.6143 220.47 77.6143C220.312 77.6143 220.162 77.6055 220.021 77.5879C219.881 77.5703 219.761 77.541 219.661 77.5V76.3926C219.737 76.416 219.816 76.4336 219.898 76.4453C219.986 76.457 220.077 76.4629 220.171 76.4629C220.435 76.4629 220.675 76.3545 220.892 76.1377C221.114 75.915 221.313 75.5811 221.489 75.1357C221.671 74.6904 221.832 74.1279 221.973 73.4482C222.113 72.7627 222.236 71.957 222.342 71.0312C222.453 70.0996 222.55 69.0449 222.632 67.8672H228.31V77.5ZM232.774 67.8672V73.9229C232.774 74.04 232.771 74.1924 232.766 74.3799C232.76 74.5615 232.751 74.7578 232.739 74.9688C232.728 75.1738 232.716 75.373 232.704 75.5664C232.698 75.7539 232.689 75.9092 232.678 76.0322L237.934 67.8672H239.727V77.5H238.364V71.5938C238.364 71.4062 238.367 71.166 238.373 70.873C238.379 70.5801 238.388 70.293 238.399 70.0117C238.411 69.7246 238.42 69.502 238.426 69.3438L233.188 77.5H231.386V67.8672H232.774ZM244.104 67.8672V71.3301C244.104 71.9336 244.268 72.3789 244.596 72.666C244.93 72.9531 245.413 73.0967 246.046 73.0967C246.655 73.0967 247.209 73.0029 247.707 72.8154C248.205 72.6279 248.709 72.373 249.219 72.0508V67.8672H250.678V77.5H249.219V73.1846C248.68 73.5303 248.149 73.8027 247.628 74.002C247.106 74.2012 246.482 74.3008 245.756 74.3008C244.766 74.3008 243.998 74.043 243.453 73.5273C242.914 73.0117 242.645 72.3145 242.645 71.4355V67.8672H244.104ZM255.23 67.8672V71.9102H260.601V67.8672H262.06V77.5H260.601V73.1494H255.23V77.5H253.763V67.8672H255.23ZM265.153 77.5V67.8672H266.621V71.8398H269.258C270.078 71.8398 270.752 71.9424 271.279 72.1475C271.812 72.3525 272.208 72.6572 272.466 73.0615C272.724 73.4658 272.853 73.9668 272.853 74.5645C272.853 75.1621 272.724 75.6807 272.466 76.1201C272.214 76.5596 271.815 76.8994 271.271 77.1396C270.731 77.3799 270.028 77.5 269.161 77.5H265.153ZM266.621 76.3135H269.021C269.747 76.3135 270.327 76.1846 270.761 75.9268C271.194 75.6689 271.411 75.2383 271.411 74.6348C271.411 74.043 271.209 73.6328 270.805 73.4043C270.4 73.1699 269.82 73.0527 269.064 73.0527H266.621V76.3135ZM274.443 77.5V67.8672H275.902V77.5H274.443ZM289.156 67.8672V77.5H287.838V71.2246C287.838 70.9668 287.844 70.7061 287.855 70.4424C287.873 70.1729 287.894 69.9033 287.917 69.6338H287.864L284.665 77.5H283.426L280.306 69.6338H280.253C280.271 69.9033 280.282 70.1729 280.288 70.4424C280.3 70.7061 280.306 70.9844 280.306 71.2773V77.5H278.979V67.8672H280.938L284.05 75.7422L287.205 67.8672H289.156ZM293.577 67.8672V73.9229C293.577 74.04 293.574 74.1924 293.568 74.3799C293.562 74.5615 293.554 74.7578 293.542 74.9688C293.53 75.1738 293.519 75.373 293.507 75.5664C293.501 75.7539 293.492 75.9092 293.48 76.0322L298.736 67.8672H300.529V77.5H299.167V71.5938C299.167 71.4062 299.17 71.166 299.176 70.873C299.182 70.5801 299.19 70.293 299.202 70.0117C299.214 69.7246 299.223 69.502 299.229 69.3438L293.99 77.5H292.188V67.8672H293.577ZM318.477 67.8672V77.5H317.158V71.2246C317.158 70.9668 317.164 70.7061 317.176 70.4424C317.193 70.1729 317.214 69.9033 317.237 69.6338H317.185L313.985 77.5H312.746L309.626 69.6338H309.573C309.591 69.9033 309.603 70.1729 309.608 70.4424C309.62 70.7061 309.626 70.9844 309.626 71.2773V77.5H308.299V67.8672H310.259L313.37 75.7422L316.525 67.8672H318.477ZM325.112 67.709C326.261 67.709 327.113 67.9668 327.67 68.4824C328.227 68.998 328.505 69.8213 328.505 70.9521V77.5H327.441L327.16 76.0762H327.09C326.82 76.4277 326.539 76.7236 326.246 76.9639C325.953 77.1982 325.613 77.377 325.227 77.5C324.846 77.6172 324.377 77.6758 323.82 77.6758C323.234 77.6758 322.713 77.5732 322.256 77.3682C321.805 77.1631 321.447 76.8525 321.184 76.4365C320.926 76.0205 320.797 75.4932 320.797 74.8545C320.797 73.8936 321.178 73.1553 321.939 72.6396C322.701 72.124 323.861 71.8428 325.42 71.7959L327.081 71.7256V71.1367C327.081 70.3047 326.902 69.7217 326.545 69.3877C326.188 69.0537 325.684 68.8867 325.033 68.8867C324.529 68.8867 324.049 68.96 323.592 69.1064C323.135 69.2529 322.701 69.4258 322.291 69.625L321.843 68.5176C322.276 68.2949 322.774 68.1045 323.337 67.9463C323.899 67.7881 324.491 67.709 325.112 67.709ZM327.063 72.7539L325.596 72.8154C324.395 72.8623 323.548 73.0586 323.056 73.4043C322.563 73.75 322.317 74.2393 322.317 74.8721C322.317 75.4229 322.484 75.8301 322.818 76.0938C323.152 76.3574 323.595 76.4893 324.146 76.4893C325.001 76.4893 325.701 76.252 326.246 75.7773C326.791 75.3027 327.063 74.5908 327.063 73.6416V72.7539ZM338.076 69.1064H334.903V77.5H333.462V69.1064H330.333V67.8672H338.076V69.1064ZM343.692 67.6914C344.513 67.6914 345.216 67.873 345.802 68.2363C346.388 68.5996 346.836 69.1094 347.146 69.7656C347.457 70.416 347.612 71.1777 347.612 72.0508V72.9561H340.959C340.977 74.0869 341.258 74.9482 341.803 75.54C342.348 76.1318 343.115 76.4277 344.105 76.4277C344.715 76.4277 345.254 76.3721 345.723 76.2607C346.191 76.1494 346.678 75.9854 347.182 75.7686V77.0518C346.695 77.2686 346.212 77.4268 345.731 77.5264C345.257 77.626 344.694 77.6758 344.044 77.6758C343.118 77.6758 342.31 77.4883 341.618 77.1133C340.933 76.7324 340.399 76.1758 340.019 75.4434C339.638 74.7109 339.447 73.8145 339.447 72.7539C339.447 71.7168 339.62 70.8203 339.966 70.0645C340.317 69.3027 340.81 68.7168 341.442 68.3066C342.081 67.8965 342.831 67.6914 343.692 67.6914ZM343.675 68.8867C342.896 68.8867 342.274 69.1416 341.812 69.6514C341.349 70.1611 341.073 70.873 340.985 71.7871H346.083C346.077 71.2129 345.986 70.709 345.811 70.2754C345.641 69.8359 345.38 69.4961 345.028 69.2559C344.677 69.0098 344.226 68.8867 343.675 68.8867ZM354.617 67.6914C355.818 67.6914 356.776 68.1045 357.491 68.9307C358.206 69.7568 358.563 70.999 358.563 72.6572C358.563 73.7529 358.399 74.6729 358.071 75.417C357.743 76.1611 357.28 76.7236 356.683 77.1045C356.091 77.4854 355.391 77.6758 354.582 77.6758C354.072 77.6758 353.624 77.6084 353.237 77.4736C352.851 77.3389 352.52 77.1572 352.244 76.9287C351.969 76.7002 351.74 76.4512 351.559 76.1816H351.453C351.471 76.4102 351.491 76.6855 351.515 77.0078C351.544 77.3301 351.559 77.6113 351.559 77.8516V81.8066H350.091V67.8672H351.295L351.488 69.291H351.559C351.746 68.998 351.975 68.7314 352.244 68.4912C352.514 68.2451 352.842 68.0518 353.229 67.9111C353.621 67.7646 354.084 67.6914 354.617 67.6914ZM354.362 68.9219C353.694 68.9219 353.155 69.0508 352.745 69.3086C352.341 69.5664 352.045 69.9531 351.857 70.4688C351.67 70.9785 351.57 71.6201 351.559 72.3936V72.6748C351.559 73.4893 351.646 74.1777 351.822 74.7402C352.004 75.3027 352.3 75.7305 352.71 76.0234C353.126 76.3164 353.683 76.4629 354.38 76.4629C354.978 76.4629 355.476 76.3018 355.874 75.9795C356.272 75.6572 356.568 75.209 356.762 74.6348C356.961 74.0547 357.061 73.3896 357.061 72.6396C357.061 71.5029 356.838 70.6006 356.393 69.9326C355.953 69.2588 355.276 68.9219 354.362 68.9219ZM362.501 67.8672V73.9229C362.501 74.04 362.498 74.1924 362.492 74.3799C362.486 74.5615 362.478 74.7578 362.466 74.9688C362.454 75.1738 362.442 75.373 362.431 75.5664C362.425 75.7539 362.416 75.9092 362.404 76.0322L367.66 67.8672H369.453V77.5H368.091V71.5938C368.091 71.4062 368.094 71.166 368.1 70.873C368.105 70.5801 368.114 70.293 368.126 70.0117C368.138 69.7246 368.146 69.502 368.152 69.3438L362.914 77.5H361.112V67.8672H362.501ZM376.159 67.709C377.308 67.709 378.16 67.9668 378.717 68.4824C379.273 68.998 379.552 69.8213 379.552 70.9521V77.5H378.488L378.207 76.0762H378.137C377.867 76.4277 377.586 76.7236 377.293 76.9639C377 77.1982 376.66 77.377 376.273 77.5C375.893 77.6172 375.424 77.6758 374.867 77.6758C374.281 77.6758 373.76 77.5732 373.303 77.3682C372.852 77.1631 372.494 76.8525 372.23 76.4365C371.973 76.0205 371.844 75.4932 371.844 74.8545C371.844 73.8936 372.225 73.1553 372.986 72.6396C373.748 72.124 374.908 71.8428 376.467 71.7959L378.128 71.7256V71.1367C378.128 70.3047 377.949 69.7217 377.592 69.3877C377.234 69.0537 376.73 68.8867 376.08 68.8867C375.576 68.8867 375.096 68.96 374.639 69.1064C374.182 69.2529 373.748 69.4258 373.338 69.625L372.89 68.5176C373.323 68.2949 373.821 68.1045 374.384 67.9463C374.946 67.7881 375.538 67.709 376.159 67.709ZM378.11 72.7539L376.643 72.8154C375.441 72.8623 374.595 73.0586 374.103 73.4043C373.61 73.75 373.364 74.2393 373.364 74.8721C373.364 75.4229 373.531 75.8301 373.865 76.0938C374.199 76.3574 374.642 76.4893 375.192 76.4893C376.048 76.4893 376.748 76.252 377.293 75.7773C377.838 75.3027 378.11 74.5908 378.11 73.6416V72.7539ZM389.782 77.5H388.297V69.0889H385.37C385.253 70.6064 385.104 71.9072 384.922 72.9912C384.746 74.0693 384.523 74.9512 384.254 75.6367C383.99 76.3164 383.668 76.8174 383.287 77.1396C382.912 77.4561 382.464 77.6143 381.942 77.6143C381.784 77.6143 381.635 77.6055 381.494 77.5879C381.354 77.5703 381.233 77.541 381.134 77.5V76.3926C381.21 76.416 381.289 76.4336 381.371 76.4453C381.459 76.457 381.55 76.4629 381.644 76.4629C381.907 76.4629 382.147 76.3545 382.364 76.1377C382.587 75.915 382.786 75.5811 382.962 75.1357C383.144 74.6904 383.305 74.1279 383.445 73.4482C383.586 72.7627 383.709 71.957 383.814 71.0312C383.926 70.0996 384.022 69.0449 384.104 67.8672H389.782V77.5ZM396.462 67.709C397.61 67.709 398.463 67.9668 399.02 68.4824C399.576 68.998 399.854 69.8213 399.854 70.9521V77.5H398.791L398.51 76.0762H398.439C398.17 76.4277 397.889 76.7236 397.596 76.9639C397.303 77.1982 396.963 77.377 396.576 77.5C396.195 77.6172 395.727 77.6758 395.17 77.6758C394.584 77.6758 394.062 77.5732 393.605 77.3682C393.154 77.1631 392.797 76.8525 392.533 76.4365C392.275 76.0205 392.146 75.4932 392.146 74.8545C392.146 73.8936 392.527 73.1553 393.289 72.6396C394.051 72.124 395.211 71.8428 396.77 71.7959L398.431 71.7256V71.1367C398.431 70.3047 398.252 69.7217 397.895 69.3877C397.537 69.0537 397.033 68.8867 396.383 68.8867C395.879 68.8867 395.398 68.96 394.941 69.1064C394.484 69.2529 394.051 69.4258 393.641 69.625L393.192 68.5176C393.626 68.2949 394.124 68.1045 394.687 67.9463C395.249 67.7881 395.841 67.709 396.462 67.709ZM398.413 72.7539L396.945 72.8154C395.744 72.8623 394.897 73.0586 394.405 73.4043C393.913 73.75 393.667 74.2393 393.667 74.8721C393.667 75.4229 393.834 75.8301 394.168 76.0938C394.502 76.3574 394.944 76.4893 395.495 76.4893C396.351 76.4893 397.051 76.252 397.596 75.7773C398.141 75.3027 398.413 74.5908 398.413 73.6416V72.7539ZM413.029 67.8672V77.5H411.711V71.2246C411.711 70.9668 411.717 70.7061 411.729 70.4424C411.746 70.1729 411.767 69.9033 411.79 69.6338H411.737L408.538 77.5H407.299L404.179 69.6338H404.126C404.144 69.9033 404.155 70.1729 404.161 70.4424C404.173 70.7061 404.179 70.9844 404.179 71.2773V77.5H402.852V67.8672H404.812L407.923 75.7422L411.078 67.8672H413.029ZM417.45 67.8672V73.9229C417.45 74.04 417.447 74.1924 417.441 74.3799C417.436 74.5615 417.427 74.7578 417.415 74.9688C417.403 75.1738 417.392 75.373 417.38 75.5664C417.374 75.7539 417.365 75.9092 417.354 76.0322L422.609 67.8672H424.402V77.5H423.04V71.5938C423.04 71.4062 423.043 71.166 423.049 70.873C423.055 70.5801 423.063 70.293 423.075 70.0117C423.087 69.7246 423.096 69.502 423.102 69.3438L417.863 77.5H416.062V67.8672H417.45ZM433.569 67.8672V73.9229C433.569 74.04 433.566 74.1924 433.561 74.3799C433.555 74.5615 433.546 74.7578 433.534 74.9688C433.522 75.1738 433.511 75.373 433.499 75.5664C433.493 75.7539 433.484 75.9092 433.473 76.0322L438.729 67.8672H440.521V77.5H439.159V71.5938C439.159 71.4062 439.162 71.166 439.168 70.873C439.174 70.5801 439.183 70.293 439.194 70.0117C439.206 69.7246 439.215 69.502 439.221 69.3438L433.982 77.5H432.181V67.8672H433.569ZM452.826 67.6914C454.027 67.6914 454.985 68.1045 455.7 68.9307C456.415 69.7568 456.772 70.999 456.772 72.6572C456.772 73.7529 456.608 74.6729 456.28 75.417C455.952 76.1611 455.489 76.7236 454.892 77.1045C454.3 77.4854 453.6 77.6758 452.791 77.6758C452.281 77.6758 451.833 77.6084 451.446 77.4736C451.06 77.3389 450.729 77.1572 450.453 76.9287C450.178 76.7002 449.949 76.4512 449.768 76.1816H449.662C449.68 76.4102 449.7 76.6855 449.724 77.0078C449.753 77.3301 449.768 77.6113 449.768 77.8516V81.8066H448.3V67.8672H449.504L449.697 69.291H449.768C449.955 68.998 450.184 68.7314 450.453 68.4912C450.723 68.2451 451.051 68.0518 451.438 67.9111C451.83 67.7646 452.293 67.6914 452.826 67.6914ZM452.571 68.9219C451.903 68.9219 451.364 69.0508 450.954 69.3086C450.55 69.5664 450.254 69.9531 450.066 70.4688C449.879 70.9785 449.779 71.6201 449.768 72.3936V72.6748C449.768 73.4893 449.855 74.1777 450.031 74.7402C450.213 75.3027 450.509 75.7305 450.919 76.0234C451.335 76.3164 451.892 76.4629 452.589 76.4629C453.187 76.4629 453.685 76.3018 454.083 75.9795C454.481 75.6572 454.777 75.209 454.971 74.6348C455.17 74.0547 455.27 73.3896 455.27 72.6396C455.27 71.5029 455.047 70.6006 454.602 69.9326C454.162 69.2588 453.485 68.9219 452.571 68.9219ZM462.925 67.709C464.073 67.709 464.926 67.9668 465.482 68.4824C466.039 68.998 466.317 69.8213 466.317 70.9521V77.5H465.254L464.973 76.0762H464.902C464.633 76.4277 464.352 76.7236 464.059 76.9639C463.766 77.1982 463.426 77.377 463.039 77.5C462.658 77.6172 462.189 77.6758 461.633 77.6758C461.047 77.6758 460.525 77.5732 460.068 77.3682C459.617 77.1631 459.26 76.8525 458.996 76.4365C458.738 76.0205 458.609 75.4932 458.609 74.8545C458.609 73.8936 458.99 73.1553 459.752 72.6396C460.514 72.124 461.674 71.8428 463.232 71.7959L464.894 71.7256V71.1367C464.894 70.3047 464.715 69.7217 464.357 69.3877C464 69.0537 463.496 68.8867 462.846 68.8867C462.342 68.8867 461.861 68.96 461.404 69.1064C460.947 69.2529 460.514 69.4258 460.104 69.625L459.655 68.5176C460.089 68.2949 460.587 68.1045 461.149 67.9463C461.712 67.7881 462.304 67.709 462.925 67.709ZM464.876 72.7539L463.408 72.8154C462.207 72.8623 461.36 73.0586 460.868 73.4043C460.376 73.75 460.13 74.2393 460.13 74.8721C460.13 75.4229 460.297 75.8301 460.631 76.0938C460.965 76.3574 461.407 76.4893 461.958 76.4893C462.813 76.4893 463.514 76.252 464.059 75.7773C464.604 75.3027 464.876 74.5908 464.876 73.6416V72.7539ZM471.802 67.6914C472.522 67.6914 473.146 67.791 473.674 67.9902C474.201 68.1836 474.608 68.4678 474.896 68.8428C475.183 69.2178 475.326 69.6748 475.326 70.2139C475.326 70.7939 475.168 71.2568 474.852 71.6025C474.535 71.9482 474.099 72.1973 473.542 72.3496V72.4199C473.935 72.5254 474.289 72.6777 474.605 72.877C474.928 73.0703 475.183 73.3281 475.37 73.6504C475.563 73.9668 475.66 74.3623 475.66 74.8369C475.66 75.376 475.514 75.8623 475.221 76.2959C474.928 76.7236 474.482 77.0605 473.885 77.3066C473.287 77.5527 472.531 77.6758 471.617 77.6758C471.166 77.6758 470.738 77.6494 470.334 77.5967C469.93 77.5498 469.563 77.4795 469.235 77.3857C468.907 77.292 468.62 77.1807 468.374 77.0518V75.7246C468.784 75.9238 469.265 76.0996 469.815 76.252C470.366 76.4043 470.961 76.4805 471.6 76.4805C472.092 76.4805 472.534 76.4248 472.927 76.3135C473.319 76.1963 473.63 76.0117 473.858 75.7598C474.093 75.502 474.21 75.165 474.21 74.749C474.21 74.3682 474.107 74.0547 473.902 73.8086C473.697 73.5566 473.39 73.3721 472.979 73.2549C472.575 73.1318 472.062 73.0703 471.441 73.0703H470.149V71.875H471.213C472.039 71.875 472.698 71.7578 473.19 71.5234C473.683 71.2891 473.929 70.8936 473.929 70.3369C473.929 69.8564 473.738 69.499 473.357 69.2646C472.977 69.0244 472.432 68.9043 471.723 68.9043C471.195 68.9043 470.729 68.96 470.325 69.0713C469.921 69.1768 469.484 69.3291 469.016 69.5283L468.497 68.3594C469.001 68.1367 469.528 67.9697 470.079 67.8584C470.63 67.7471 471.204 67.6914 471.802 67.6914ZM485.68 70.2842C485.68 70.8877 485.504 71.3594 485.152 71.6992C484.801 72.0332 484.347 72.2588 483.79 72.376V72.4463C484.394 72.5283 484.912 72.7451 485.346 73.0967C485.785 73.4424 486.005 73.9727 486.005 74.6875C486.005 75.2383 485.873 75.7246 485.609 76.1465C485.346 76.5684 484.933 76.8994 484.37 77.1396C483.808 77.3799 483.075 77.5 482.173 77.5H478.024V67.8672H482.138C482.829 67.8672 483.438 67.9463 483.966 68.1045C484.499 68.2568 484.918 68.5088 485.223 68.8604C485.527 69.2119 485.68 69.6865 485.68 70.2842ZM484.484 74.6875C484.484 74.1191 484.268 73.709 483.834 73.457C483.406 73.2051 482.782 73.0791 481.962 73.0791H479.492V76.3135H481.997C482.806 76.3135 483.421 76.1904 483.843 75.9443C484.271 75.6924 484.484 75.2734 484.484 74.6875ZM484.194 70.4512C484.194 69.9941 484.027 69.6543 483.693 69.4316C483.359 69.2031 482.812 69.0889 482.05 69.0889H479.492V71.8574H481.795C482.586 71.8574 483.184 71.7432 483.588 71.5146C483.992 71.2861 484.194 70.9316 484.194 70.4512ZM489.749 67.8672V73.9229C489.749 74.04 489.746 74.1924 489.74 74.3799C489.734 74.5615 489.726 74.7578 489.714 74.9688C489.702 75.1738 489.69 75.373 489.679 75.5664C489.673 75.7539 489.664 75.9092 489.652 76.0322L494.908 67.8672H496.701V77.5H495.339V71.5938C495.339 71.4062 495.342 71.166 495.348 70.873C495.354 70.5801 495.362 70.293 495.374 70.0117C495.386 69.7246 495.395 69.502 495.4 69.3438L490.162 77.5H488.36V67.8672H489.749ZM507.459 70.2842C507.459 70.8877 507.283 71.3594 506.932 71.6992C506.58 72.0332 506.126 72.2588 505.569 72.376V72.4463C506.173 72.5283 506.691 72.7451 507.125 73.0967C507.564 73.4424 507.784 73.9727 507.784 74.6875C507.784 75.2383 507.652 75.7246 507.389 76.1465C507.125 76.5684 506.712 76.8994 506.149 77.1396C505.587 77.3799 504.854 77.5 503.952 77.5H499.804V67.8672H503.917C504.608 67.8672 505.218 67.9463 505.745 68.1045C506.278 68.2568 506.697 68.5088 507.002 68.8604C507.307 69.2119 507.459 69.6865 507.459 70.2842ZM506.264 74.6875C506.264 74.1191 506.047 73.709 505.613 73.457C505.186 73.2051 504.562 73.0791 503.741 73.0791H501.271V76.3135H503.776C504.585 76.3135 505.2 76.1904 505.622 75.9443C506.05 75.6924 506.264 75.2734 506.264 74.6875ZM505.974 70.4512C505.974 69.9941 505.807 69.6543 505.473 69.4316C505.139 69.2031 504.591 69.0889 503.829 69.0889H501.271V71.8574H503.574C504.365 71.8574 504.963 71.7432 505.367 71.5146C505.771 71.2861 505.974 70.9316 505.974 70.4512ZM513.743 67.709C514.892 67.709 515.744 67.9668 516.301 68.4824C516.857 68.998 517.136 69.8213 517.136 70.9521V77.5H516.072L515.791 76.0762H515.721C515.451 76.4277 515.17 76.7236 514.877 76.9639C514.584 77.1982 514.244 77.377 513.857 77.5C513.477 77.6172 513.008 77.6758 512.451 77.6758C511.865 77.6758 511.344 77.5732 510.887 77.3682C510.436 77.1631 510.078 76.8525 509.814 76.4365C509.557 76.0205 509.428 75.4932 509.428 74.8545C509.428 73.8936 509.809 73.1553 510.57 72.6396C511.332 72.124 512.492 71.8428 514.051 71.7959L515.712 71.7256V71.1367C515.712 70.3047 515.533 69.7217 515.176 69.3877C514.818 69.0537 514.314 68.8867 513.664 68.8867C513.16 68.8867 512.68 68.96 512.223 69.1064C511.766 69.2529 511.332 69.4258 510.922 69.625L510.474 68.5176C510.907 68.2949 511.405 68.1045 511.968 67.9463C512.53 67.7881 513.122 67.709 513.743 67.709ZM515.694 72.7539L514.227 72.8154C513.025 72.8623 512.179 73.0586 511.687 73.4043C511.194 73.75 510.948 74.2393 510.948 74.8721C510.948 75.4229 511.115 75.8301 511.449 76.0938C511.783 76.3574 512.226 76.4893 512.776 76.4893C513.632 76.4893 514.332 76.252 514.877 75.7773C515.422 75.3027 515.694 74.5908 515.694 73.6416V72.7539ZM523.851 67.6914C524.671 67.6914 525.374 67.873 525.96 68.2363C526.546 68.5996 526.994 69.1094 527.305 69.7656C527.615 70.416 527.771 71.1777 527.771 72.0508V72.9561H521.117C521.135 74.0869 521.416 74.9482 521.961 75.54C522.506 76.1318 523.273 76.4277 524.264 76.4277C524.873 76.4277 525.412 76.3721 525.881 76.2607C526.35 76.1494 526.836 75.9854 527.34 75.7686V77.0518C526.854 77.2686 526.37 77.4268 525.89 77.5264C525.415 77.626 524.853 77.6758 524.202 77.6758C523.276 77.6758 522.468 77.4883 521.776 77.1133C521.091 76.7324 520.558 76.1758 520.177 75.4434C519.796 74.7109 519.605 73.8145 519.605 72.7539C519.605 71.7168 519.778 70.8203 520.124 70.0645C520.476 69.3027 520.968 68.7168 521.601 68.3066C522.239 67.8965 522.989 67.6914 523.851 67.6914ZM523.833 68.8867C523.054 68.8867 522.433 69.1416 521.97 69.6514C521.507 70.1611 521.231 70.873 521.144 71.7871H526.241C526.235 71.2129 526.145 70.709 525.969 70.2754C525.799 69.8359 525.538 69.4961 525.187 69.2559C524.835 69.0098 524.384 68.8867 523.833 68.8867ZM540.418 67.8672V77.5H539.1V71.2246C539.1 70.9668 539.105 70.7061 539.117 70.4424C539.135 70.1729 539.155 69.9033 539.179 69.6338H539.126L535.927 77.5H534.688L531.567 69.6338H531.515C531.532 69.9033 531.544 70.1729 531.55 70.4424C531.562 70.7061 531.567 70.9844 531.567 71.2773V77.5H530.24V67.8672H532.2L535.312 75.7422L538.467 67.8672H540.418ZM554.691 69.1064H551.519V77.5H550.077V69.1064H546.948V67.8672H554.691V69.1064ZM564.254 70.2842C564.254 70.8877 564.078 71.3594 563.727 71.6992C563.375 72.0332 562.921 72.2588 562.364 72.376V72.4463C562.968 72.5283 563.486 72.7451 563.92 73.0967C564.359 73.4424 564.579 73.9727 564.579 74.6875C564.579 75.2383 564.447 75.7246 564.184 76.1465C563.92 76.5684 563.507 76.8994 562.944 77.1396C562.382 77.3799 561.649 77.5 560.747 77.5H556.599V67.8672H560.712C561.403 67.8672 562.013 67.9463 562.54 68.1045C563.073 68.2568 563.492 68.5088 563.797 68.8604C564.102 69.2119 564.254 69.6865 564.254 70.2842ZM563.059 74.6875C563.059 74.1191 562.842 73.709 562.408 73.457C561.98 73.2051 561.356 73.0791 560.536 73.0791H558.066V76.3135H560.571C561.38 76.3135 561.995 76.1904 562.417 75.9443C562.845 75.6924 563.059 75.2734 563.059 74.6875ZM562.769 70.4512C562.769 69.9941 562.602 69.6543 562.268 69.4316C561.934 69.2031 561.386 69.0889 560.624 69.0889H558.066V71.8574H560.369C561.16 71.8574 561.758 71.7432 562.162 71.5146C562.566 71.2861 562.769 70.9316 562.769 70.4512ZM575.24 72.666C575.24 73.457 575.138 74.1631 574.933 74.7842C574.728 75.4053 574.432 75.9297 574.045 76.3574C573.658 76.7852 573.189 77.1133 572.639 77.3418C572.094 77.5645 571.476 77.6758 570.784 77.6758C570.14 77.6758 569.548 77.5645 569.009 77.3418C568.476 77.1133 568.013 76.7852 567.62 76.3574C567.233 75.9297 566.932 75.4053 566.715 74.7842C566.504 74.1631 566.398 73.457 566.398 72.666C566.398 71.6113 566.577 70.7148 566.935 69.9766C567.292 69.2324 567.802 68.667 568.464 68.2803C569.132 67.8877 569.926 67.6914 570.846 67.6914C571.725 67.6914 572.492 67.8877 573.148 68.2803C573.811 68.6729 574.323 69.2412 574.687 69.9854C575.056 70.7236 575.24 71.6172 575.24 72.666ZM567.91 72.666C567.91 73.4395 568.013 74.1104 568.218 74.6787C568.423 75.2471 568.739 75.6865 569.167 75.9971C569.595 76.3076 570.146 76.4629 570.819 76.4629C571.487 76.4629 572.035 76.3076 572.463 75.9971C572.896 75.6865 573.216 75.2471 573.421 74.6787C573.626 74.1104 573.729 73.4395 573.729 72.666C573.729 71.8984 573.626 71.2363 573.421 70.6797C573.216 70.1172 572.899 69.6836 572.472 69.3789C572.044 69.0742 571.49 68.9219 570.811 68.9219C569.809 68.9219 569.073 69.2529 568.604 69.915C568.142 70.5771 567.91 71.4941 567.91 72.666ZM582.289 67.6914C583.49 67.6914 584.448 68.1045 585.163 68.9307C585.878 69.7568 586.235 70.999 586.235 72.6572C586.235 73.7529 586.071 74.6729 585.743 75.417C585.415 76.1611 584.952 76.7236 584.354 77.1045C583.763 77.4854 583.062 77.6758 582.254 77.6758C581.744 77.6758 581.296 77.6084 580.909 77.4736C580.522 77.3389 580.191 77.1572 579.916 76.9287C579.641 76.7002 579.412 76.4512 579.23 76.1816H579.125C579.143 76.4102 579.163 76.6855 579.187 77.0078C579.216 77.3301 579.23 77.6113 579.23 77.8516V81.8066H577.763V67.8672H578.967L579.16 69.291H579.23C579.418 68.998 579.646 68.7314 579.916 68.4912C580.186 68.2451 580.514 68.0518 580.9 67.9111C581.293 67.7646 581.756 67.6914 582.289 67.6914ZM582.034 68.9219C581.366 68.9219 580.827 69.0508 580.417 69.3086C580.013 69.5664 579.717 69.9531 579.529 70.4688C579.342 70.9785 579.242 71.6201 579.23 72.3936V72.6748C579.23 73.4893 579.318 74.1777 579.494 74.7402C579.676 75.3027 579.972 75.7305 580.382 76.0234C580.798 76.3164 581.354 76.4629 582.052 76.4629C582.649 76.4629 583.147 76.3018 583.546 75.9795C583.944 75.6572 584.24 75.209 584.434 74.6348C584.633 74.0547 584.732 73.3896 584.732 72.6396C584.732 71.5029 584.51 70.6006 584.064 69.9326C583.625 69.2588 582.948 68.9219 582.034 68.9219ZM590.059 67.8672V71.3301C590.059 71.9336 590.223 72.3789 590.551 72.666C590.885 72.9531 591.368 73.0967 592.001 73.0967C592.61 73.0967 593.164 73.0029 593.662 72.8154C594.16 72.6279 594.664 72.373 595.174 72.0508V67.8672H596.633V77.5H595.174V73.1846C594.635 73.5303 594.104 73.8027 593.583 74.002C593.062 74.2012 592.438 74.3008 591.711 74.3008C590.721 74.3008 589.953 74.043 589.408 73.5273C588.869 73.0117 588.6 72.3145 588.6 71.4355V67.8672H590.059ZM603.427 67.6914C604.247 67.6914 604.95 67.873 605.536 68.2363C606.122 68.5996 606.57 69.1094 606.881 69.7656C607.191 70.416 607.347 71.1777 607.347 72.0508V72.9561H600.693C600.711 74.0869 600.992 74.9482 601.537 75.54C602.082 76.1318 602.85 76.4277 603.84 76.4277C604.449 76.4277 604.988 76.3721 605.457 76.2607C605.926 76.1494 606.412 75.9854 606.916 75.7686V77.0518C606.43 77.2686 605.946 77.4268 605.466 77.5264C604.991 77.626 604.429 77.6758 603.778 77.6758C602.853 77.6758 602.044 77.4883 601.353 77.1133C600.667 76.7324 600.134 76.1758 599.753 75.4434C599.372 74.7109 599.182 73.8145 599.182 72.7539C599.182 71.7168 599.354 70.8203 599.7 70.0645C600.052 69.3027 600.544 68.7168 601.177 68.3066C601.815 67.8965 602.565 67.6914 603.427 67.6914ZM603.409 68.8867C602.63 68.8867 602.009 69.1416 601.546 69.6514C601.083 70.1611 600.808 70.873 600.72 71.7871H605.817C605.812 71.2129 605.721 70.709 605.545 70.2754C605.375 69.8359 605.114 69.4961 604.763 69.2559C604.411 69.0098 603.96 68.8867 603.409 68.8867ZM613.684 77.6758C612.816 77.6758 612.052 77.4971 611.39 77.1396C610.728 76.7822 610.212 76.2373 609.843 75.5049C609.474 74.7725 609.289 73.8496 609.289 72.7363C609.289 71.5703 609.482 70.6182 609.869 69.8799C610.262 69.1357 610.801 68.585 611.486 68.2275C612.172 67.8701 612.951 67.6914 613.824 67.6914C614.305 67.6914 614.768 67.7412 615.213 67.8408C615.664 67.9346 616.033 68.0547 616.32 68.2012L615.881 69.4229C615.588 69.3057 615.248 69.2002 614.861 69.1064C614.48 69.0127 614.123 68.9658 613.789 68.9658C613.121 68.9658 612.564 69.1094 612.119 69.3965C611.68 69.6836 611.349 70.1055 611.126 70.6621C610.909 71.2188 610.801 71.9043 610.801 72.7188C610.801 73.498 610.906 74.1631 611.117 74.7139C611.334 75.2646 611.653 75.6865 612.075 75.9795C612.503 76.2666 613.036 76.4102 613.675 76.4102C614.185 76.4102 614.645 76.3574 615.055 76.252C615.465 76.1406 615.837 76.0117 616.171 75.8652V77.166C615.849 77.3301 615.488 77.4561 615.09 77.5439C614.697 77.6318 614.229 77.6758 613.684 77.6758ZM624.072 67.8672H625.681L621.523 72.5166L626.015 77.5H624.301L619.924 72.6133V77.5H618.456V67.8672H619.924V72.543L624.072 67.8672ZM636.061 72.666C636.061 73.457 635.958 74.1631 635.753 74.7842C635.548 75.4053 635.252 75.9297 634.865 76.3574C634.479 76.7852 634.01 77.1133 633.459 77.3418C632.914 77.5645 632.296 77.6758 631.604 77.6758C630.96 77.6758 630.368 77.5645 629.829 77.3418C629.296 77.1133 628.833 76.7852 628.44 76.3574C628.054 75.9297 627.752 75.4053 627.535 74.7842C627.324 74.1631 627.219 73.457 627.219 72.666C627.219 71.6113 627.397 70.7148 627.755 69.9766C628.112 69.2324 628.622 68.667 629.284 68.2803C629.952 67.8877 630.746 67.6914 631.666 67.6914C632.545 67.6914 633.312 67.8877 633.969 68.2803C634.631 68.6729 635.144 69.2412 635.507 69.9854C635.876 70.7236 636.061 71.6172 636.061 72.666ZM628.73 72.666C628.73 73.4395 628.833 74.1104 629.038 74.6787C629.243 75.2471 629.56 75.6865 629.987 75.9971C630.415 76.3076 630.966 76.4629 631.64 76.4629C632.308 76.4629 632.855 76.3076 633.283 75.9971C633.717 75.6865 634.036 75.2471 634.241 74.6787C634.446 74.1104 634.549 73.4395 634.549 72.666C634.549 71.8984 634.446 71.2363 634.241 70.6797C634.036 70.1172 633.72 69.6836 633.292 69.3789C632.864 69.0742 632.311 68.9219 631.631 68.9219C630.629 68.9219 629.894 69.2529 629.425 69.915C628.962 70.5771 628.73 71.4941 628.73 72.666ZM642.292 67.6914C643.112 67.6914 643.815 67.873 644.401 68.2363C644.987 68.5996 645.436 69.1094 645.746 69.7656C646.057 70.416 646.212 71.1777 646.212 72.0508V72.9561H639.559C639.576 74.0869 639.857 74.9482 640.402 75.54C640.947 76.1318 641.715 76.4277 642.705 76.4277C643.314 76.4277 643.854 76.3721 644.322 76.2607C644.791 76.1494 645.277 75.9854 645.781 75.7686V77.0518C645.295 77.2686 644.812 77.4268 644.331 77.5264C643.856 77.626 643.294 77.6758 642.644 77.6758C641.718 77.6758 640.909 77.4883 640.218 77.1133C639.532 76.7324 638.999 76.1758 638.618 75.4434C638.237 74.7109 638.047 73.8145 638.047 72.7539C638.047 71.7168 638.22 70.8203 638.565 70.0645C638.917 69.3027 639.409 68.7168 640.042 68.3066C640.681 67.8965 641.431 67.6914 642.292 67.6914ZM642.274 68.8867C641.495 68.8867 640.874 69.1416 640.411 69.6514C639.948 70.1611 639.673 70.873 639.585 71.7871H644.683C644.677 71.2129 644.586 70.709 644.41 70.2754C644.24 69.8359 643.979 69.4961 643.628 69.2559C643.276 69.0098 642.825 68.8867 642.274 68.8867ZM663.535 67.8672V77.5H662.217V71.2246C662.217 70.9668 662.223 70.7061 662.234 70.4424C662.252 70.1729 662.272 69.9033 662.296 69.6338H662.243L659.044 77.5H657.805L654.685 69.6338H654.632C654.649 69.9033 654.661 70.1729 654.667 70.4424C654.679 70.7061 654.685 70.9844 654.685 71.2773V77.5H653.357V67.8672H655.317L658.429 75.7422L661.584 67.8672H663.535ZM666.567 77.5V67.8672H668.035V71.8398H670.672C671.492 71.8398 672.166 71.9424 672.693 72.1475C673.227 72.3525 673.622 72.6572 673.88 73.0615C674.138 73.4658 674.267 73.9668 674.267 74.5645C674.267 75.1621 674.138 75.6807 673.88 76.1201C673.628 76.5596 673.229 76.8994 672.685 77.1396C672.146 77.3799 671.442 77.5 670.575 77.5H666.567ZM668.035 76.3135H670.435C671.161 76.3135 671.741 76.1846 672.175 75.9268C672.608 75.6689 672.825 75.2383 672.825 74.6348C672.825 74.043 672.623 73.6328 672.219 73.4043C671.814 73.1699 671.234 73.0527 670.479 73.0527H668.035V76.3135ZM675.857 77.5V67.8672H677.316V77.5H675.857ZM693.321 67.8672V77.5H680.401V67.8672H681.86V76.2607H686.123V67.8672H687.591V76.2607H691.862V67.8672H693.321ZM703.64 77.5H702.154V69.0889H699.228C699.11 70.6064 698.961 71.9072 698.779 72.9912C698.604 74.0693 698.381 74.9512 698.111 75.6367C697.848 76.3164 697.525 76.8174 697.145 77.1396C696.77 77.4561 696.321 77.6143 695.8 77.6143C695.642 77.6143 695.492 77.6055 695.352 77.5879C695.211 77.5703 695.091 77.541 694.991 77.5V76.3926C695.067 76.416 695.146 76.4336 695.229 76.4453C695.316 76.457 695.407 76.4629 695.501 76.4629C695.765 76.4629 696.005 76.3545 696.222 76.1377C696.444 75.915 696.644 75.5811 696.819 75.1357C697.001 74.6904 697.162 74.1279 697.303 73.4482C697.443 72.7627 697.566 71.957 697.672 71.0312C697.783 70.0996 697.88 69.0449 697.962 67.8672H703.64V77.5ZM710.425 67.6914C711.245 67.6914 711.948 67.873 712.534 68.2363C713.12 68.5996 713.568 69.1094 713.879 69.7656C714.189 70.416 714.345 71.1777 714.345 72.0508V72.9561H707.691C707.709 74.0869 707.99 74.9482 708.535 75.54C709.08 76.1318 709.848 76.4277 710.838 76.4277C711.447 76.4277 711.986 76.3721 712.455 76.2607C712.924 76.1494 713.41 75.9854 713.914 75.7686V77.0518C713.428 77.2686 712.944 77.4268 712.464 77.5264C711.989 77.626 711.427 77.6758 710.776 77.6758C709.851 77.6758 709.042 77.4883 708.351 77.1133C707.665 76.7324 707.132 76.1758 706.751 75.4434C706.37 74.7109 706.18 73.8145 706.18 72.7539C706.18 71.7168 706.353 70.8203 706.698 70.0645C707.05 69.3027 707.542 68.7168 708.175 68.3066C708.813 67.8965 709.563 67.6914 710.425 67.6914ZM710.407 68.8867C709.628 68.8867 709.007 69.1416 708.544 69.6514C708.081 70.1611 707.806 70.873 707.718 71.7871H712.815C712.81 71.2129 712.719 70.709 712.543 70.2754C712.373 69.8359 712.112 69.4961 711.761 69.2559C711.409 69.0098 710.958 68.8867 710.407 68.8867ZM718.291 67.8672V71.9102H723.661V67.8672H725.12V77.5H723.661V73.1494H718.291V77.5H716.823V67.8672H718.291ZM729.603 67.8672V73.9229C729.603 74.04 729.6 74.1924 729.594 74.3799C729.588 74.5615 729.579 74.7578 729.567 74.9688C729.556 75.1738 729.544 75.373 729.532 75.5664C729.526 75.7539 729.518 75.9092 729.506 76.0322L734.762 67.8672H736.555V77.5H735.192V71.5938C735.192 71.4062 735.195 71.166 735.201 70.873C735.207 70.5801 735.216 70.293 735.228 70.0117C735.239 69.7246 735.248 69.502 735.254 69.3438L730.016 77.5H728.214V67.8672H729.603ZM743.366 67.6914C744.187 67.6914 744.89 67.873 745.476 68.2363C746.062 68.5996 746.51 69.1094 746.82 69.7656C747.131 70.416 747.286 71.1777 747.286 72.0508V72.9561H740.633C740.65 74.0869 740.932 74.9482 741.477 75.54C742.021 76.1318 742.789 76.4277 743.779 76.4277C744.389 76.4277 744.928 76.3721 745.396 76.2607C745.865 76.1494 746.352 75.9854 746.855 75.7686V77.0518C746.369 77.2686 745.886 77.4268 745.405 77.5264C744.931 77.626 744.368 77.6758 743.718 77.6758C742.792 77.6758 741.983 77.4883 741.292 77.1133C740.606 76.7324 740.073 76.1758 739.692 75.4434C739.312 74.7109 739.121 73.8145 739.121 72.7539C739.121 71.7168 739.294 70.8203 739.64 70.0645C739.991 69.3027 740.483 68.7168 741.116 68.3066C741.755 67.8965 742.505 67.6914 743.366 67.6914ZM743.349 68.8867C742.569 68.8867 741.948 69.1416 741.485 69.6514C741.022 70.1611 740.747 70.873 740.659 71.7871H745.757C745.751 71.2129 745.66 70.709 745.484 70.2754C745.314 69.8359 745.054 69.4961 744.702 69.2559C744.351 69.0098 743.899 68.8867 743.349 68.8867Z" fill="#16578D"></path> </g> <defs> <filter id="filter0_d_163_14630" x="0" y="0" width="868" height="106" filterUnits="userSpaceOnUse" color-interpolation-filters="sRGB"> <feFlood flood-opacity="0" result="BackgroundImageFix"></feFlood> <feColorMatrix in="SourceAlpha" type="matrix" values="0 0 0 0 0 0 0 0 0 0 0 0 0 0 0 0 0 0 127 0" result="hardAlpha"></feColorMatrix> <feOffset dy="4"></feOffset> <feGaussianBlur stdDeviation="2"></feGaussianBlur> <feComposite in2="hardAlpha" operator="out"></feComposite> <feColorMatrix type="matrix" values="0 0 0 0 0.686275 0 0 0 0 0.843137 0 0 0 0 0.968627 0 0 0 0.74 0"></feColorMatrix> <feBlend mode="normal" in2="BackgroundImageFix" result="effect1_dropShadow_163_14630"></feBlend> <feBlend mode="normal" in="SourceGraphic" in2="effect1_dropShadow_163_14630" result="shape"></feBlend> </filter> </defs> </svg> 