<?xml version="1.0" encoding="UTF-8"?> <svg xmlns="http://www.w3.org/2000/svg" width="468" height="157" viewBox="0 0 468 157" fill="none"> <g filter="url(#filter0_d_332_493)"> <rect x="4" width="460" height="149" rx="74.5" fill="#B0DFE2"></rect> <path d="M97.1602 57.1406C96.168 57.1406 95.4336 56.8594 94.957 56.2969C94.543 55.8125 94.3359 55.1914 94.3359 54.4336C94.3359 54.0742 94.3789 53.6562 94.4648 53.1797C94.5586 52.7031 94.6953 52.0898 94.875 51.3398C95.0547 50.5742 95.1875 49.9648 95.2734 49.5117C95.3672 49.0508 95.4141 48.6523 95.4141 48.3164C95.4141 47.4961 95.125 47.0859 94.5469 47.0859C94.1406 47.0859 93.7656 47.3008 93.4219 47.7305C93.1328 48.0977 92.8828 48.6211 92.6719 49.3008L91.043 57H87.5859L90.1289 45H93.5859L93.3281 46.2422C93.7969 45.7188 94.3008 45.3516 94.8398 45.1406C95.2383 44.9844 95.668 44.9062 96.1289 44.9062C96.9414 44.9062 97.582 45.1172 98.0508 45.5391C98.5508 46 98.8008 46.6914 98.8008 47.6133C98.8008 48.168 98.6992 48.8906 98.4961 49.7812C98.4414 50.0391 98.3516 50.4258 98.2266 50.9414C98 51.8086 97.8359 52.5 97.7344 53.0156C97.6719 53.3438 97.6406 53.6094 97.6406 53.8125C97.6406 54.1328 97.7109 54.3828 97.8516 54.5625C98 54.7344 98.25 54.8203 98.6016 54.8203C99.0781 54.8203 99.4805 54.625 99.8086 54.2344C100.059 53.9375 100.328 53.4258 100.617 52.6992H101.625C101.031 54.457 100.281 55.6875 99.375 56.3906C98.7344 56.8906 97.9961 57.1406 97.1602 57.1406ZM104.051 57.1406C102.871 57.1406 101.961 56.8438 101.32 56.25C100.641 55.6172 100.301 54.6445 100.301 53.332C100.301 52.8398 100.352 52.293 100.453 51.6914C100.547 51.082 100.695 50.4766 100.898 49.875C101.375 48.4141 102.051 47.25 102.926 46.3828C104.004 45.3203 105.281 44.7891 106.758 44.7891C107.719 44.7891 108.43 45.0195 108.891 45.4805C109.25 45.8477 109.43 46.3516 109.43 46.9922C109.43 47.5547 109.305 47.9922 109.055 48.3047C108.82 48.5938 108.52 48.7383 108.152 48.7383C107.887 48.7383 107.605 48.6445 107.309 48.457C107.504 47.9492 107.602 47.4766 107.602 47.0391C107.602 46.7344 107.543 46.4961 107.426 46.3242C107.316 46.1445 107.152 46.0547 106.934 46.0547C106.465 46.0547 105.977 46.4688 105.469 47.2969C105.008 48.0312 104.625 48.9648 104.32 50.0977C104.008 51.207 103.852 52.2109 103.852 53.1094C103.852 53.8906 104 54.4297 104.297 54.7266C104.555 54.9922 104.984 55.125 105.586 55.125C106.453 55.125 107.246 54.8906 107.965 54.4219C108.27 54.2266 108.562 53.9961 108.844 53.7305C109.125 53.457 109.453 53.1133 109.828 52.6992H110.648C109.891 53.9805 109.02 55 108.035 55.7578C106.824 56.6797 105.496 57.1406 104.051 57.1406ZM112.207 57.1406C111.441 57.1406 110.836 56.9141 110.391 56.4609C109.891 55.9609 109.641 55.2305 109.641 54.2695C109.641 53.8164 109.703 53.293 109.828 52.6992L111.457 45H114.914L113.191 53.1562C113.145 53.3984 113.121 53.625 113.121 53.8359C113.121 54.4922 113.359 54.8203 113.836 54.8203C114.273 54.8203 114.668 54.6211 115.02 54.2227C115.301 53.8867 115.547 53.3789 115.758 52.6992L117.387 45H120.844L119.121 53.1562C119.051 53.3906 119.016 53.6484 119.016 53.9297C119.016 54.2578 119.094 54.4883 119.25 54.6211C119.406 54.7539 119.656 54.8203 120 54.8203C120.445 54.8203 120.844 54.6211 121.195 54.2227C121.508 53.8711 121.758 53.3633 121.945 52.6992H122.953C122.523 53.918 122.004 54.8828 121.395 55.5938C120.879 56.1797 120.297 56.6016 119.648 56.8594C119.172 57.0469 118.668 57.1406 118.137 57.1406C117.449 57.1406 116.902 56.9492 116.496 56.5664C116.09 56.1836 115.844 55.6172 115.758 54.8672C115.211 55.7422 114.594 56.3672 113.906 56.7422C113.414 57.0078 112.848 57.1406 112.207 57.1406ZM130.582 57.1406C129.848 57.1406 129.242 56.8125 128.766 56.1562C128.242 55.4375 127.871 54.375 127.652 52.9688L124.348 57H122.613L127.465 51.5273L127.078 48.8438C126.953 48.0703 126.82 47.5352 126.68 47.2383C126.555 46.9805 126.383 46.8516 126.164 46.8516C125.922 46.8516 125.66 46.9727 125.379 47.2148C125.105 47.457 124.824 47.8164 124.535 48.293C123.871 49.3945 123.344 50.8633 122.953 52.6992H121.945C122.258 51.3164 122.625 50.1133 123.047 49.0898C123.555 47.8242 124.164 46.832 124.875 46.1133C125.695 45.293 126.605 44.8828 127.605 44.8828C128.465 44.8828 129.125 45.2031 129.586 45.8438C129.922 46.3203 130.129 46.9492 130.207 47.7305L130.418 49.5586C131.098 48.8008 131.605 48.1484 131.941 47.6016C132.277 47.0469 132.465 46.5469 132.504 46.1016C132.348 46.1328 132.211 46.1484 132.094 46.1484C131.703 46.1484 131.414 46.0156 131.227 45.75C131.055 45.5312 130.969 45.2188 130.969 44.8125C130.969 44.4297 131.133 44.125 131.461 43.8984C131.742 43.7188 132.121 43.6289 132.598 43.6289C132.809 43.6289 133 43.6914 133.172 43.8164C133.344 43.9414 133.488 44.1094 133.605 44.3203C133.715 44.5312 133.797 44.7695 133.852 45.0352C133.914 45.293 133.945 45.5547 133.945 45.8203C133.945 46.1875 133.879 46.5586 133.746 46.9336C133.613 47.3008 133.406 47.6875 133.125 48.0938C132.867 48.4688 132.543 48.8789 132.152 49.3242C131.77 49.7695 131.254 50.3438 130.605 51.0469L130.828 52.7227C130.922 53.4883 131.09 54.0352 131.332 54.3633C131.551 54.668 131.879 54.8203 132.316 54.8203C132.777 54.8203 133.207 54.6211 133.605 54.2227C133.988 53.8398 134.277 53.332 134.473 52.6992H135.48C134.902 54.3711 134.102 55.5781 133.078 56.3203C132.32 56.8672 131.488 57.1406 130.582 57.1406ZM146.625 57.1406C145.922 57.1406 145.348 56.957 144.902 56.5898C144.527 56.293 144.262 55.8555 144.105 55.2773C143.285 55.793 142.305 56.2227 141.164 56.5664C140 56.918 138.941 57.0938 137.988 57.0938C136.801 57.0938 135.883 56.8047 135.234 56.2266C134.508 55.5859 134.145 54.6133 134.145 53.3086C134.145 52.8164 134.195 52.2734 134.297 51.6797C134.398 51.0781 134.555 50.4727 134.766 49.8633C135.25 48.4102 135.941 47.25 136.84 46.3828C137.926 45.3203 139.219 44.7891 140.719 44.7891C142.773 44.7891 143.801 46.0664 143.801 48.6211C143.801 50.0352 143.617 51.3047 143.25 52.4297C142.891 53.5469 142.383 54.4961 141.727 55.2773C142.672 54.957 143.426 54.6211 143.988 54.2695C144.027 53.7227 144.176 53.293 144.434 52.9805C144.691 52.668 145.039 52.5117 145.477 52.5117C145.852 52.5117 146.152 52.6289 146.379 52.8633C146.605 53.0898 146.719 53.3906 146.719 53.7656C146.719 54.1094 146.641 54.3828 146.484 54.5859C146.328 54.7812 146.133 54.8789 145.898 54.8789C145.844 54.8789 145.801 54.875 145.77 54.8672C145.785 55.0859 145.852 55.2539 145.969 55.3711C146.117 55.543 146.359 55.6289 146.695 55.6289C147.07 55.6289 147.379 55.5078 147.621 55.2656C147.863 55.0234 148.074 54.6719 148.254 54.2109C148.418 53.7422 148.555 53.2422 148.664 52.7109C148.75 52.2656 148.844 51.8086 148.945 51.3398L149.027 50.9531C149.277 49.7266 149.555 48.7227 149.859 47.9414C150.172 47.1602 150.523 46.5469 150.914 46.1016C151.266 45.6875 151.66 45.4023 152.098 45.2461C152.543 45.082 153.055 45 153.633 45H157.16L155.461 53.1562C155.398 53.3594 155.367 53.6172 155.367 53.9297C155.367 54.2578 155.441 54.4883 155.59 54.6211C155.746 54.7539 156 54.8203 156.352 54.8203C156.555 54.8203 156.703 54.8086 156.797 54.7852C156.891 54.7617 156.996 54.7227 157.113 54.668C157.059 55.4648 156.766 56.0898 156.234 56.543C156 56.7461 155.73 56.8984 155.426 57C155.129 57.0938 154.812 57.1406 154.477 57.1406C153.742 57.1406 153.172 56.9141 152.766 56.4609C152.305 55.9609 152.074 55.2305 152.074 54.2695C152.074 53.8633 152.141 53.3398 152.273 52.6992L153.586 46.582C153.164 46.582 152.805 46.668 152.508 46.8398C152.211 47.0117 151.949 47.2812 151.723 47.6484C151.504 48 151.305 48.457 151.125 49.0195C150.945 49.582 150.758 50.3047 150.562 51.1875L150.516 51.4219C150.273 52.5547 150.066 53.4258 149.895 54.0352C149.73 54.6445 149.531 55.1641 149.297 55.5938C149.008 56.1172 148.648 56.5078 148.219 56.7656C147.797 57.0156 147.266 57.1406 146.625 57.1406ZM138.949 54.9375C139.293 54.9375 139.637 54.7617 139.98 54.4102C140.332 54.0508 140.652 53.5586 140.941 52.9336C141.223 52.3008 141.445 51.5742 141.609 50.7539C141.773 49.9336 141.855 49.0781 141.855 48.1875C141.855 47.5 141.789 47.0039 141.656 46.6992C141.523 46.3945 141.277 46.2422 140.918 46.2422C140.379 46.2422 139.852 46.6484 139.336 47.4609C138.859 48.1953 138.469 49.1016 138.164 50.1797C137.867 51.2344 137.719 52.1719 137.719 52.9922C137.719 53.3906 137.738 53.7148 137.777 53.9648C137.824 54.2148 137.898 54.4102 138 54.5508C138.094 54.6914 138.215 54.793 138.363 54.8555C138.512 54.9102 138.707 54.9375 138.949 54.9375ZM160.676 57.0938C159.488 57.0938 158.57 56.8047 157.922 56.2266C157.195 55.5859 156.832 54.6133 156.832 53.3086C156.832 52.8164 156.883 52.2734 156.984 51.6797C157.086 51.0781 157.242 50.4727 157.453 49.8633C157.938 48.4102 158.629 47.25 159.527 46.3828C160.613 45.3203 161.906 44.7891 163.406 44.7891C165.461 44.7891 166.488 46.0664 166.488 48.6211V48.6445C166.535 48.6602 166.574 48.668 166.605 48.668H166.746C167.277 48.668 167.906 48.5195 168.633 48.2227C169.273 47.957 169.879 47.625 170.449 47.2266L170.66 47.8828C170.191 48.375 169.586 48.793 168.844 49.1367C168.109 49.4805 167.297 49.7266 166.406 49.875C166.312 50.9609 166.102 51.9531 165.773 52.8516C165.445 53.7422 165.023 54.5078 164.508 55.1484C164 55.7734 163.418 56.2539 162.762 56.5898C162.105 56.9258 161.41 57.0938 160.676 57.0938ZM161.637 54.9375C161.918 54.9375 162.203 54.8125 162.492 54.5625C162.789 54.3047 163.066 53.9492 163.324 53.4961C163.582 53.043 163.805 52.5117 163.992 51.9023C164.18 51.293 164.32 50.6406 164.414 49.9453C164.18 49.8828 164.012 49.7656 163.91 49.5938C163.816 49.4219 163.77 49.2031 163.77 48.9375C163.77 48.6094 163.836 48.3359 163.969 48.1172C164.102 47.8984 164.285 47.7383 164.52 47.6367C164.488 47.1289 164.406 46.7656 164.273 46.5469C164.203 46.4375 164.113 46.3594 164.004 46.3125C163.902 46.2656 163.77 46.2422 163.605 46.2422C163.066 46.2422 162.539 46.6484 162.023 47.4609C161.547 48.1953 161.156 49.1016 160.852 50.1797C160.555 51.2344 160.406 52.1719 160.406 52.9922C160.406 53.3906 160.426 53.7148 160.465 53.9648C160.512 54.2148 160.586 54.4102 160.688 54.5508C160.781 54.6914 160.902 54.793 161.051 54.8555C161.199 54.9102 161.395 54.9375 161.637 54.9375ZM170.93 57.1406C169.766 57.1406 168.863 56.9258 168.223 56.4961C167.551 56.0508 167.215 55.3633 167.215 54.4336C167.215 53.6289 167.48 52.9219 168.012 52.3125C168.223 52.0625 168.469 51.8281 168.75 51.6094C169.039 51.3906 169.375 51.1641 169.758 50.9297C170.242 50.6328 170.602 50.4062 170.836 50.25C171.078 50.0859 171.305 49.9062 171.516 49.7109C171.766 49.4688 171.957 49.2188 172.09 48.9609C172.23 48.7031 172.301 48.4141 172.301 48.0938C172.301 47.7344 172.207 47.457 172.02 47.2617C171.84 47.0664 171.566 46.9688 171.199 46.9688C170.676 46.9688 170.203 47.168 169.781 47.5664C169.367 47.9648 168.977 48.5977 168.609 49.4648H167.449C167.973 47.9727 168.613 46.8516 169.371 46.1016C170.246 45.2266 171.352 44.7891 172.688 44.7891C173.125 44.7891 173.535 44.8438 173.918 44.9531C174.309 45.0547 174.652 45.2109 174.949 45.4219C175.262 45.6484 175.5 45.9375 175.664 46.2891C175.836 46.6328 175.922 47.0352 175.922 47.4961C175.922 48.1133 175.805 48.6562 175.57 49.125C175.344 49.5859 175.023 50.0078 174.609 50.3906C174.242 50.7266 173.836 51.0312 173.391 51.3047C172.852 51.6328 172.414 51.9141 172.078 52.1484C171.742 52.375 171.461 52.6172 171.234 52.875C170.984 53.1641 170.859 53.4922 170.859 53.8594C170.859 54.3047 171.008 54.6289 171.305 54.832C171.602 55.0273 172.023 55.125 172.57 55.125C173.305 55.125 173.98 54.9453 174.598 54.5859C175.27 54.2109 175.977 53.582 176.719 52.6992H177.539C176.68 54.0742 175.77 55.1172 174.809 55.8281C173.645 56.7031 172.352 57.1406 170.93 57.1406ZM179.098 57.1406C178.332 57.1406 177.727 56.9141 177.281 56.4609C176.781 55.9609 176.531 55.2305 176.531 54.2695C176.531 53.8164 176.594 53.293 176.719 52.6992L178.348 45H181.805L180.082 53.1562C180.035 53.3984 180.012 53.625 180.012 53.8359C180.012 54.4922 180.25 54.8203 180.727 54.8203C181.164 54.8203 181.559 54.6211 181.91 54.2227C182.191 53.8867 182.438 53.3789 182.648 52.6992L184.277 45H187.734L186.012 53.1562C185.941 53.3906 185.906 53.6484 185.906 53.9297C185.906 54.2578 185.984 54.4883 186.141 54.6211C186.297 54.7539 186.547 54.8203 186.891 54.8203C187.469 54.8203 187.977 54.3984 188.414 53.5547C188.719 52.9609 188.996 52.1055 189.246 50.9883C189.332 50.582 189.414 50.1758 189.492 49.7695C189.547 49.4336 189.602 49.1484 189.656 48.9141L190.477 45H193.922L192.996 49.4648C192.941 49.6758 192.914 49.8984 192.914 50.1328C192.914 50.7891 193.156 51.1172 193.641 51.1172C194.102 51.1172 194.504 50.9219 194.848 50.5312C195.184 50.1484 195.422 49.6406 195.562 49.0078L196.395 45H199.852L198.129 53.1562C198.066 53.3594 198.035 53.6172 198.035 53.9297C198.035 54.2578 198.109 54.4883 198.258 54.6211C198.414 54.7539 198.668 54.8203 199.02 54.8203C199.223 54.8203 199.371 54.8086 199.465 54.7852C199.559 54.7617 199.664 54.7227 199.781 54.668C199.727 55.457 199.43 56.082 198.891 56.543C198.656 56.7383 198.387 56.8867 198.082 56.9883C197.777 57.0898 197.465 57.1406 197.145 57.1406C196.379 57.1406 195.773 56.9141 195.328 56.4609C194.828 55.9609 194.578 55.2305 194.578 54.2695C194.578 53.8164 194.641 53.293 194.766 52.6992L194.883 52.1016C194.406 52.6172 193.902 52.9805 193.371 53.1914C192.957 53.3633 192.504 53.4492 192.012 53.4492C191.559 53.4492 191.148 53.3672 190.781 53.2031C190.422 53.0391 190.133 52.7852 189.914 52.4414C189.469 53.8633 188.871 54.9688 188.121 55.7578C187.262 56.6797 186.23 57.1406 185.027 57.1406C184.34 57.1406 183.793 56.9492 183.387 56.5664C182.98 56.1836 182.734 55.6172 182.648 54.8672C182.102 55.7422 181.484 56.3672 180.797 56.7422C180.305 57.0078 179.738 57.1406 179.098 57.1406ZM203.285 57.1406C202.105 57.1406 201.195 56.8438 200.555 56.25C199.875 55.6172 199.535 54.6445 199.535 53.332C199.535 52.8398 199.586 52.293 199.688 51.6914C199.781 51.0898 199.926 50.4883 200.121 49.8867C200.34 49.2148 200.617 48.5781 200.953 47.9766C201.297 47.375 201.695 46.8438 202.148 46.3828C203.195 45.3203 204.484 44.7891 206.016 44.7891C206.992 44.7891 207.703 45.0234 208.148 45.4922C208.492 45.8594 208.664 46.3906 208.664 47.0859C208.664 47.7656 208.516 48.4062 208.219 49.0078C207.922 49.6016 207.512 50.1289 206.988 50.5898C206.465 51.043 205.871 51.4062 205.207 51.6797C204.543 51.9453 203.855 52.1016 203.145 52.1484C203.105 52.5547 203.086 52.875 203.086 53.1094C203.086 53.8906 203.234 54.4297 203.531 54.7266C203.789 54.9922 204.219 55.125 204.82 55.125C205.688 55.125 206.48 54.8906 207.199 54.4219C207.504 54.2266 207.797 53.9961 208.078 53.7305C208.359 53.457 208.688 53.1133 209.062 52.6992H209.883C209.125 53.9805 208.254 55 207.27 55.7578C206.059 56.6797 204.73 57.1406 203.285 57.1406ZM203.332 51C203.777 50.9688 204.211 50.8398 204.633 50.6133C205.055 50.3867 205.43 50.0898 205.758 49.7227C206.086 49.3477 206.344 48.9297 206.531 48.4688C206.719 48 206.812 47.5234 206.812 47.0391C206.812 46.7188 206.766 46.4766 206.672 46.3125C206.586 46.1406 206.434 46.0547 206.215 46.0547C205.926 46.0547 205.633 46.1953 205.336 46.4766C205.047 46.7578 204.766 47.1445 204.492 47.6367C204.242 48.0977 204.016 48.6211 203.812 49.207C203.609 49.793 203.449 50.3906 203.332 51ZM212.496 57.1406C211.316 57.1406 210.406 56.8438 209.766 56.25C209.086 55.6172 208.746 54.6445 208.746 53.332C208.746 52.8398 208.797 52.293 208.898 51.6914C208.992 51.082 209.141 50.4766 209.344 49.875C209.82 48.4141 210.496 47.25 211.371 46.3828C212.449 45.3203 213.727 44.7891 215.203 44.7891C216.164 44.7891 216.875 45.0195 217.336 45.4805C217.695 45.8477 217.875 46.3516 217.875 46.9922C217.875 47.5547 217.75 47.9922 217.5 48.3047C217.266 48.5938 216.965 48.7383 216.598 48.7383C216.332 48.7383 216.051 48.6445 215.754 48.457C215.949 47.9492 216.047 47.4766 216.047 47.0391C216.047 46.7344 215.988 46.4961 215.871 46.3242C215.762 46.1445 215.598 46.0547 215.379 46.0547C214.91 46.0547 214.422 46.4688 213.914 47.2969C213.453 48.0312 213.07 48.9648 212.766 50.0977C212.453 51.207 212.297 52.2109 212.297 53.1094C212.297 53.8906 212.445 54.4297 212.742 54.7266C213 54.9922 213.43 55.125 214.031 55.125C214.898 55.125 215.691 54.8906 216.41 54.4219C216.715 54.2266 217.008 53.9961 217.289 53.7305C217.57 53.457 217.898 53.1133 218.273 52.6992H219.094C218.336 53.9805 217.465 55 216.48 55.7578C215.27 56.6797 213.941 57.1406 212.496 57.1406ZM226.934 57.1406C225.98 57.1406 225.258 56.9062 224.766 56.4375C224.281 55.9688 224.039 55.3164 224.039 54.4805C224.039 54.207 224.086 53.7969 224.18 53.25C224.195 53.125 224.211 53.0391 224.227 52.9922C224.242 52.8359 224.258 52.7305 224.273 52.6758C224.305 52.5195 224.32 52.3594 224.32 52.1953C224.32 51.4297 224.016 51.0469 223.406 51.0469C223.203 51.0469 222.984 51.1172 222.75 51.2578L222.363 51.5391L221.871 51.9375L220.816 57H217.359L219.926 45H223.383L222.352 49.7578C222.867 49.2422 223.367 48.7227 223.852 48.1992L224.027 48C224.957 47 225.59 46.332 225.926 45.9961C226.48 45.4414 227.004 45.082 227.496 44.918C227.77 44.832 228.055 44.7891 228.352 44.7891C228.891 44.7891 229.301 44.9375 229.582 45.2344C229.863 45.5234 230.004 45.9023 230.004 46.3711C230.004 46.8633 229.871 47.2461 229.605 47.5195C229.348 47.793 228.977 47.9297 228.492 47.9297C228.047 47.9297 227.707 47.793 227.473 47.5195C227.262 47.2852 227.164 47.0117 227.18 46.6992C226.93 46.8477 226.691 47.0234 226.465 47.2266C226.246 47.4219 226.004 47.6562 225.738 47.9297L225.504 48.1875C225.395 48.2969 225.246 48.4609 225.059 48.6797C224.863 48.9062 224.625 49.1602 224.344 49.4414C224.617 49.3789 224.953 49.3477 225.352 49.3477C226.18 49.3477 226.777 49.5391 227.145 49.9219C227.473 50.2578 227.637 50.8086 227.637 51.5742C227.637 51.832 227.59 52.2109 227.496 52.7109C227.457 52.9062 227.422 53.1133 227.391 53.332C227.359 53.543 227.344 53.7422 227.344 53.9297C227.344 54.5234 227.664 54.8203 228.305 54.8203C228.547 54.8203 228.754 54.7812 228.926 54.7031C229.105 54.6172 229.27 54.4844 229.418 54.3047C229.559 54.1406 229.695 53.9336 229.828 53.6836C229.961 53.4336 230.117 53.1055 230.297 52.6992H231.305C230.297 55.6602 228.84 57.1406 226.934 57.1406ZM233.18 57.1406C232.266 57.1406 231.527 56.8555 230.965 56.2852C230.309 55.6133 229.98 54.6133 229.98 53.2852C229.98 52.7227 230.039 52.1289 230.156 51.5039C230.266 50.8789 230.43 50.2617 230.648 49.6523C231.148 48.2773 231.832 47.168 232.699 46.3242C233.699 45.3633 234.852 44.8828 236.156 44.8828C236.805 44.8828 237.289 44.9961 237.609 45.2227C237.938 45.4414 238.102 45.7344 238.102 46.1016V46.2773L238.359 45H241.816L240.094 53.1562C240.023 53.3906 239.988 53.6484 239.988 53.9297C239.988 54.6172 240.316 54.9609 240.973 54.9609C241.41 54.9609 241.809 54.7383 242.168 54.293C242.473 53.918 242.723 53.3867 242.918 52.6992H243.926C243.496 53.918 242.977 54.8828 242.367 55.5938C241.852 56.1797 241.27 56.6016 240.621 56.8594C240.145 57.0469 239.641 57.1406 239.109 57.1406C238.43 57.1406 237.887 56.957 237.48 56.5898C237.082 56.2148 236.84 55.6641 236.754 54.9375C236.301 55.5781 235.824 56.0781 235.324 56.4375C234.684 56.9062 233.969 57.1406 233.18 57.1406ZM234.738 54.8203C234.918 54.8203 235.105 54.7734 235.301 54.6797C235.504 54.5859 235.699 54.4531 235.887 54.2812C236.309 53.875 236.59 53.3477 236.73 52.6992L237.879 47.2852C237.879 47.207 237.859 47.1172 237.82 47.0156C237.789 46.9062 237.742 46.8047 237.68 46.7109C237.492 46.4844 237.23 46.3711 236.895 46.3711C236.574 46.3711 236.262 46.4766 235.957 46.6875C235.66 46.8984 235.379 47.1914 235.113 47.5664C234.645 48.2461 234.258 49.1328 233.953 50.2266C233.812 50.7109 233.707 51.1914 233.637 51.668C233.566 52.1367 233.531 52.5625 233.531 52.9453C233.531 53.7422 233.68 54.2812 233.977 54.5625C234.078 54.6719 234.191 54.7422 234.316 54.7734C234.441 54.8047 234.582 54.8203 234.738 54.8203ZM244.711 57.1406C243.859 57.1406 243.188 56.8672 242.695 56.3203C242.477 56.0781 242.309 55.793 242.191 55.4648C242.074 55.1367 242.016 54.793 242.016 54.4336C242.016 53.8633 242.148 53.4023 242.414 53.0508C242.68 52.6914 243.043 52.5117 243.504 52.5117C243.879 52.5117 244.18 52.6289 244.406 52.8633C244.641 53.0898 244.758 53.3906 244.758 53.7656C244.758 54.1094 244.676 54.3828 244.512 54.5859C244.355 54.7812 244.16 54.8789 243.926 54.8789C243.871 54.8789 243.828 54.875 243.797 54.8672C243.812 55.0781 243.883 55.2461 244.008 55.3711C244.164 55.543 244.406 55.6289 244.734 55.6289C245.008 55.6289 245.246 55.5469 245.449 55.3828C245.652 55.2109 245.832 54.9609 245.988 54.6328C246.129 54.3281 246.262 53.9609 246.387 53.5312C246.512 53.0938 246.641 52.5625 246.773 51.9375C246.07 51.7891 245.523 51.4922 245.133 51.0469C244.703 50.5547 244.488 49.9219 244.488 49.1484C244.488 47.9141 244.945 46.9414 245.859 46.2305C246.922 45.4102 248.57 45 250.805 45H254.449L253.172 50.9531L252.75 52.8047C252.648 53.2578 252.598 53.5938 252.598 53.8125C252.598 54.4844 252.918 54.8203 253.559 54.8203C253.801 54.8203 254.012 54.7812 254.191 54.7031C254.371 54.6172 254.539 54.4844 254.695 54.3047C254.836 54.1406 254.969 53.9375 255.094 53.6953C255.227 53.4531 255.387 53.1211 255.574 52.6992H256.582C255.574 55.6602 254.086 57.1406 252.117 57.1406C251.195 57.1406 250.484 56.8828 249.984 56.3672C249.758 56.1406 249.586 55.875 249.469 55.5703C249.352 55.2578 249.293 54.9336 249.293 54.5977C249.293 54.3711 249.316 54.0977 249.363 53.7773C249.41 53.4727 249.531 52.8516 249.727 51.9141C249.297 52.0078 248.848 52.0547 248.379 52.0547C248.16 52.9766 247.953 53.7344 247.758 54.3281C247.57 54.9219 247.352 55.418 247.102 55.8164C246.828 56.2617 246.496 56.5938 246.105 56.8125C245.723 57.0312 245.258 57.1406 244.711 57.1406ZM249.633 50.9297H249.691C249.746 50.9297 249.828 50.9141 249.938 50.8828L250.945 46.3008H250.371C249.441 46.3008 248.73 46.5586 248.238 47.0742C247.996 47.3164 247.812 47.6094 247.688 47.9531C247.57 48.2969 247.512 48.6719 247.512 49.0781C247.512 49.75 247.68 50.2344 248.016 50.5312C248.305 50.7969 248.715 50.9297 249.246 50.9297H249.633ZM269.449 57.1406C268.457 57.1406 267.723 56.8594 267.246 56.2969C266.832 55.8125 266.625 55.1914 266.625 54.4336C266.625 54.0742 266.668 53.6562 266.754 53.1797C266.848 52.7031 266.984 52.0898 267.164 51.3398C267.344 50.5742 267.477 49.9648 267.562 49.5117C267.656 49.0508 267.703 48.6523 267.703 48.3164C267.703 47.4961 267.414 47.0859 266.836 47.0859C266.43 47.0859 266.055 47.3008 265.711 47.7305C265.422 48.0977 265.172 48.6211 264.961 49.3008L263.332 57H259.875L262.418 45H265.875L265.617 46.2422C266.086 45.7188 266.59 45.3516 267.129 45.1406C267.527 44.9844 267.957 44.9062 268.418 44.9062C269.23 44.9062 269.871 45.1172 270.34 45.5391C270.84 46 271.09 46.6914 271.09 47.6133C271.09 48.168 270.988 48.8906 270.785 49.7812C270.73 50.0391 270.641 50.4258 270.516 50.9414C270.289 51.8086 270.125 52.5 270.023 53.0156C269.961 53.3438 269.93 53.6094 269.93 53.8125C269.93 54.1328 270 54.3828 270.141 54.5625C270.289 54.7344 270.539 54.8203 270.891 54.8203C271.367 54.8203 271.77 54.625 272.098 54.2344C272.348 53.9375 272.617 53.4258 272.906 52.6992H273.914C273.32 54.457 272.57 55.6875 271.664 56.3906C271.023 56.8906 270.285 57.1406 269.449 57.1406ZM276.41 57.0938C275.223 57.0938 274.305 56.8047 273.656 56.2266C272.93 55.5859 272.566 54.6133 272.566 53.3086C272.566 52.8164 272.617 52.2734 272.719 51.6797C272.82 51.0781 272.977 50.4727 273.188 49.8633C273.672 48.4102 274.363 47.25 275.262 46.3828C276.348 45.3203 277.641 44.7891 279.141 44.7891C281.195 44.7891 282.223 46.0664 282.223 48.6211V48.6445C282.27 48.6602 282.309 48.668 282.34 48.668H282.48C283.012 48.668 283.641 48.5195 284.367 48.2227C285.008 47.957 285.613 47.625 286.184 47.2266L286.395 47.8828C285.926 48.375 285.32 48.793 284.578 49.1367C283.844 49.4805 283.031 49.7266 282.141 49.875C282.047 50.9609 281.836 51.9531 281.508 52.8516C281.18 53.7422 280.758 54.5078 280.242 55.1484C279.734 55.7734 279.152 56.2539 278.496 56.5898C277.84 56.9258 277.145 57.0938 276.41 57.0938ZM277.371 54.9375C277.652 54.9375 277.938 54.8125 278.227 54.5625C278.523 54.3047 278.801 53.9492 279.059 53.4961C279.316 53.043 279.539 52.5117 279.727 51.9023C279.914 51.293 280.055 50.6406 280.148 49.9453C279.914 49.8828 279.746 49.7656 279.645 49.5938C279.551 49.4219 279.504 49.2031 279.504 48.9375C279.504 48.6094 279.57 48.3359 279.703 48.1172C279.836 47.8984 280.02 47.7383 280.254 47.6367C280.223 47.1289 280.141 46.7656 280.008 46.5469C279.938 46.4375 279.848 46.3594 279.738 46.3125C279.637 46.2656 279.504 46.2422 279.34 46.2422C278.801 46.2422 278.273 46.6484 277.758 47.4609C277.281 48.1953 276.891 49.1016 276.586 50.1797C276.289 51.2344 276.141 52.1719 276.141 52.9922C276.141 53.3906 276.16 53.7148 276.199 53.9648C276.246 54.2148 276.32 54.4102 276.422 54.5508C276.516 54.6914 276.637 54.793 276.785 54.8555C276.934 54.9102 277.129 54.9375 277.371 54.9375ZM287.695 63C287.32 63 286.969 62.9492 286.641 62.8477C286.32 62.7539 286.043 62.6094 285.809 62.4141C285.559 62.2188 285.363 61.9727 285.223 61.6758C285.082 61.3867 285.012 61.0508 285.012 60.668C285.012 59.7617 285.438 58.9844 286.289 58.3359C286.93 57.8594 287.809 57.4453 288.926 57.0938L289.219 55.8281C288.398 56.7031 287.438 57.1406 286.336 57.1406C285.422 57.1406 284.684 56.8555 284.121 56.2852C283.465 55.6133 283.137 54.6133 283.137 53.2852C283.137 52.7227 283.195 52.1289 283.312 51.5039C283.422 50.8789 283.586 50.2617 283.805 49.6523C284.305 48.2773 284.988 47.168 285.855 46.3242C286.855 45.3633 288.008 44.8828 289.312 44.8828C289.961 44.8828 290.445 44.9961 290.766 45.2227C291.094 45.4414 291.258 45.7344 291.258 46.1016V46.2422L291.516 45H294.973L292.594 56.1328C293.352 55.8828 293.957 55.5078 294.41 55.0078C294.902 54.4688 295.305 53.6992 295.617 52.6992H296.625C296.195 54.1211 295.555 55.2188 294.703 55.9922C294.078 56.5547 293.305 56.9531 292.383 57.1875L292.02 58.9219C291.715 60.4531 291.105 61.5625 290.191 62.25C289.527 62.75 288.695 63 287.695 63ZM287.895 54.8203C288.238 54.8203 288.602 54.6602 288.984 54.3398C289.398 53.9805 289.676 53.5156 289.816 52.9453L291.035 47.2617C291.035 47.1836 291.016 47.0938 290.977 46.9922C290.945 46.8906 290.898 46.7969 290.836 46.7109C290.648 46.4844 290.387 46.3711 290.051 46.3711C289.73 46.3711 289.418 46.4766 289.113 46.6875C288.816 46.8984 288.535 47.1914 288.27 47.5664C287.801 48.2461 287.414 49.1328 287.109 50.2266C286.969 50.7109 286.863 51.1914 286.793 51.668C286.723 52.1367 286.688 52.5625 286.688 52.9453C286.688 53.7422 286.836 54.2812 287.133 54.5625C287.234 54.6719 287.348 54.7422 287.473 54.7734C287.598 54.8047 287.738 54.8203 287.895 54.8203ZM287.145 61.125C287.395 61.125 287.652 60.9492 287.918 60.5977C288.184 60.2539 288.391 59.7188 288.539 58.9922L288.68 58.3008C287.953 58.5742 287.41 58.8516 287.051 59.1328C286.574 59.4922 286.336 59.8945 286.336 60.3398C286.336 60.5508 286.402 60.7266 286.535 60.8672C286.684 61.0391 286.887 61.125 287.145 61.125ZM298.828 57.1406C297.664 57.1406 296.762 56.9258 296.121 56.4961C295.449 56.0508 295.113 55.3633 295.113 54.4336C295.113 53.6289 295.379 52.9219 295.91 52.3125C296.121 52.0625 296.367 51.8281 296.648 51.6094C296.938 51.3906 297.273 51.1641 297.656 50.9297C298.141 50.6328 298.5 50.4062 298.734 50.25C298.977 50.0859 299.203 49.9062 299.414 49.7109C299.664 49.4688 299.855 49.2188 299.988 48.9609C300.129 48.7031 300.199 48.4141 300.199 48.0938C300.199 47.7344 300.105 47.457 299.918 47.2617C299.738 47.0664 299.465 46.9688 299.098 46.9688C298.574 46.9688 298.102 47.168 297.68 47.5664C297.266 47.9648 296.875 48.5977 296.508 49.4648H295.348C295.871 47.9727 296.512 46.8516 297.27 46.1016C298.145 45.2266 299.25 44.7891 300.586 44.7891C301.023 44.7891 301.434 44.8438 301.816 44.9531C302.207 45.0547 302.551 45.2109 302.848 45.4219C303.16 45.6484 303.398 45.9375 303.562 46.2891C303.734 46.6328 303.82 47.0352 303.82 47.4961C303.82 48.1133 303.703 48.6562 303.469 49.125C303.242 49.5859 302.922 50.0078 302.508 50.3906C302.141 50.7266 301.734 51.0312 301.289 51.3047C300.75 51.6328 300.312 51.9141 299.977 52.1484C299.641 52.375 299.359 52.6172 299.133 52.875C298.883 53.1641 298.758 53.4922 298.758 53.8594C298.758 54.3047 298.906 54.6289 299.203 54.832C299.5 55.0273 299.922 55.125 300.469 55.125C301.203 55.125 301.879 54.9453 302.496 54.5859C303.168 54.2109 303.875 53.582 304.617 52.6992H305.438C304.578 54.0742 303.668 55.1172 302.707 55.8281C301.543 56.7031 300.25 57.1406 298.828 57.1406ZM308.121 57.0938C306.934 57.0938 306.016 56.8047 305.367 56.2266C304.641 55.5859 304.277 54.6133 304.277 53.3086C304.277 52.8164 304.328 52.2734 304.43 51.6797C304.531 51.0781 304.688 50.4727 304.898 49.8633C305.383 48.4102 306.074 47.25 306.973 46.3828C308.059 45.3203 309.352 44.7891 310.852 44.7891C312.906 44.7891 313.934 46.0664 313.934 48.6211V48.6445C313.98 48.6602 314.02 48.668 314.051 48.668H314.191C314.723 48.668 315.352 48.5195 316.078 48.2227C316.719 47.957 317.324 47.625 317.895 47.2266L318.105 47.8828C317.637 48.375 317.031 48.793 316.289 49.1367C315.555 49.4805 314.742 49.7266 313.852 49.875C313.758 50.9609 313.547 51.9531 313.219 52.8516C312.891 53.7422 312.469 54.5078 311.953 55.1484C311.445 55.7734 310.863 56.2539 310.207 56.5898C309.551 56.9258 308.855 57.0938 308.121 57.0938ZM309.082 54.9375C309.363 54.9375 309.648 54.8125 309.938 54.5625C310.234 54.3047 310.512 53.9492 310.77 53.4961C311.027 53.043 311.25 52.5117 311.438 51.9023C311.625 51.293 311.766 50.6406 311.859 49.9453C311.625 49.8828 311.457 49.7656 311.355 49.5938C311.262 49.4219 311.215 49.2031 311.215 48.9375C311.215 48.6094 311.281 48.3359 311.414 48.1172C311.547 47.8984 311.73 47.7383 311.965 47.6367C311.934 47.1289 311.852 46.7656 311.719 46.5469C311.648 46.4375 311.559 46.3594 311.449 46.3125C311.348 46.2656 311.215 46.2422 311.051 46.2422C310.512 46.2422 309.984 46.6484 309.469 47.4609C308.992 48.1953 308.602 49.1016 308.297 50.1797C308 51.2344 307.852 52.1719 307.852 52.9922C307.852 53.3906 307.871 53.7148 307.91 53.9648C307.957 54.2148 308.031 54.4102 308.133 54.5508C308.227 54.6914 308.348 54.793 308.496 54.8555C308.645 54.9102 308.84 54.9375 309.082 54.9375ZM329.754 57.1406C328.762 57.1406 328.027 56.8594 327.551 56.2969C327.137 55.8125 326.93 55.1914 326.93 54.4336C326.93 54.0742 326.973 53.6562 327.059 53.1797C327.152 52.7031 327.289 52.0898 327.469 51.3398C327.648 50.5742 327.781 49.9648 327.867 49.5117C327.961 49.0508 328.008 48.6523 328.008 48.3164C328.008 47.4961 327.719 47.0859 327.141 47.0859C326.734 47.0859 326.359 47.3008 326.016 47.7305C325.727 48.0977 325.477 48.6211 325.266 49.3008L323.637 57H320.18L321.938 48.7148C321.984 48.5273 322.008 48.3281 322.008 48.1172C322.008 47.7969 321.957 47.5508 321.855 47.3789C321.723 47.168 321.531 47.0625 321.281 47.0625C320.828 47.0625 320.434 47.2812 320.098 47.7188C319.801 48.0938 319.547 48.6211 319.336 49.3008L317.707 57H314.25L316.793 45H320.25L319.992 46.2422C320.461 45.7188 320.973 45.3477 321.527 45.1289C321.965 44.9648 322.43 44.8828 322.922 44.8828C323.594 44.8828 324.129 45.0391 324.527 45.3516C324.973 45.7031 325.258 46.2344 325.383 46.9453C325.898 46.1484 326.492 45.5859 327.164 45.2578C327.641 45.0234 328.16 44.9062 328.723 44.9062C329.527 44.9062 330.164 45.1172 330.633 45.5391C331.133 46 331.383 46.6914 331.383 47.6133C331.383 48.1367 331.285 48.8594 331.09 49.7812C331.012 50.1641 330.918 50.5508 330.809 50.9414C330.613 51.6914 330.453 52.3828 330.328 53.0156C330.266 53.3438 330.234 53.6094 330.234 53.8125C330.234 54.1328 330.305 54.3828 330.445 54.5625C330.594 54.7344 330.844 54.8203 331.195 54.8203C331.672 54.8203 332.074 54.625 332.402 54.2344C332.652 53.9375 332.922 53.4258 333.211 52.6992H334.219C333.625 54.457 332.875 55.6875 331.969 56.3906C331.328 56.8906 330.59 57.1406 329.754 57.1406ZM336.715 57.0938C335.527 57.0938 334.609 56.8047 333.961 56.2266C333.234 55.5859 332.871 54.6133 332.871 53.3086C332.871 52.8164 332.922 52.2734 333.023 51.6797C333.125 51.0781 333.281 50.4727 333.492 49.8633C333.977 48.4102 334.668 47.25 335.566 46.3828C336.652 45.3203 337.945 44.7891 339.445 44.7891C341.5 44.7891 342.527 46.0664 342.527 48.6211V48.6445C342.574 48.6602 342.613 48.668 342.645 48.668H342.785C343.316 48.668 343.945 48.5195 344.672 48.2227C345.312 47.957 345.918 47.625 346.488 47.2266L346.699 47.8828C346.23 48.375 345.625 48.793 344.883 49.1367C344.148 49.4805 343.336 49.7266 342.445 49.875C342.352 50.9609 342.141 51.9531 341.812 52.8516C341.484 53.7422 341.062 54.5078 340.547 55.1484C340.039 55.7734 339.457 56.2539 338.801 56.5898C338.145 56.9258 337.449 57.0938 336.715 57.0938ZM337.676 54.9375C337.957 54.9375 338.242 54.8125 338.531 54.5625C338.828 54.3047 339.105 53.9492 339.363 53.4961C339.621 53.043 339.844 52.5117 340.031 51.9023C340.219 51.293 340.359 50.6406 340.453 49.9453C340.219 49.8828 340.051 49.7656 339.949 49.5938C339.855 49.4219 339.809 49.2031 339.809 48.9375C339.809 48.6094 339.875 48.3359 340.008 48.1172C340.141 47.8984 340.324 47.7383 340.559 47.6367C340.527 47.1289 340.445 46.7656 340.312 46.5469C340.242 46.4375 340.152 46.3594 340.043 46.3125C339.941 46.2656 339.809 46.2422 339.645 46.2422C339.105 46.2422 338.578 46.6484 338.062 47.4609C337.586 48.1953 337.195 49.1016 336.891 50.1797C336.594 51.2344 336.445 52.1719 336.445 52.9922C336.445 53.3906 336.465 53.7148 336.504 53.9648C336.551 54.2148 336.625 54.4102 336.727 54.5508C336.82 54.6914 336.941 54.793 337.09 54.8555C337.238 54.9102 337.434 54.9375 337.676 54.9375ZM347.402 57.0938C346.09 57.0938 345.082 56.6875 344.379 55.875C343.738 55.1328 343.418 54.1016 343.418 52.7812C343.418 52.3516 343.469 51.8242 343.57 51.1992C343.664 50.5664 343.801 49.8867 343.98 49.1602C344.371 47.5977 344.891 46.0703 345.539 44.5781C346.258 42.9375 347.047 41.625 347.906 40.6406C348.875 39.5312 349.859 38.9766 350.859 38.9766C351.695 38.9766 352.336 39.2266 352.781 39.7266C353.258 40.2734 353.496 41.1211 353.496 42.2695C353.496 43.1758 353.273 44.2031 352.828 45.3516C352.492 46.2188 352.062 47.1094 351.539 48.0234C351.875 48.1875 352.176 48.4258 352.441 48.7383C353.137 48.7383 353.926 48.5742 354.809 48.2461C355.598 47.9648 356.273 47.625 356.836 47.2266L357.059 47.8828C356.613 48.3516 356.039 48.7578 355.336 49.1016C354.633 49.4375 353.852 49.6797 352.992 49.8281C353.078 50.125 353.121 50.5234 353.121 51.0234C353.121 51.8203 352.992 52.582 352.734 53.3086C352.477 54.0352 352.102 54.6797 351.609 55.2422C351.102 55.8281 350.488 56.2852 349.77 56.6133C349.059 56.9336 348.27 57.0938 347.402 57.0938ZM348.457 54.9375C348.832 54.9375 349.176 54.8398 349.488 54.6445C349.801 54.4492 350.066 54.1797 350.285 53.8359C350.496 53.5156 350.656 53.1602 350.766 52.7695C350.875 52.3711 350.93 51.9727 350.93 51.5742C350.93 50.9805 350.859 50.543 350.719 50.2617C350.562 50.3164 350.43 50.3555 350.32 50.3789C350.219 50.3945 350.062 50.4023 349.852 50.4023C349.469 50.4023 349.164 50.2969 348.938 50.0859C348.719 49.875 348.609 49.5859 348.609 49.2188C348.609 48.7422 348.77 48.3828 349.09 48.1406C349.348 47.9453 349.746 47.8281 350.285 47.7891C350.715 47.0156 351.102 46.1055 351.445 45.0586C351.789 43.9883 351.961 43.0234 351.961 42.1641C351.961 41.6797 351.898 41.3398 351.773 41.1445C351.656 40.9492 351.457 40.8516 351.176 40.8516C350.926 40.8516 350.672 40.9844 350.414 41.25C350.156 41.5156 349.902 41.8867 349.652 42.3633C349.199 43.2461 348.754 44.4219 348.316 45.8906C347.941 47.1328 347.621 48.4688 347.355 49.8984C347.113 51.1797 346.992 52.1641 346.992 52.8516C346.992 53.5 347.105 54 347.332 54.3516C347.574 54.7422 347.949 54.9375 348.457 54.9375ZM363.199 57.1406C362.246 57.1406 361.523 56.9062 361.031 56.4375C360.547 55.9688 360.305 55.3164 360.305 54.4805C360.305 54.207 360.352 53.7969 360.445 53.25C360.461 53.125 360.477 53.0391 360.492 52.9922C360.508 52.8359 360.523 52.7305 360.539 52.6758C360.57 52.5195 360.586 52.3594 360.586 52.1953C360.586 51.4297 360.281 51.0469 359.672 51.0469C359.469 51.0469 359.25 51.1172 359.016 51.2578L358.629 51.5391L358.137 51.9375L357.082 57H353.625L356.191 45H359.648L358.617 49.7578C359.133 49.2422 359.633 48.7227 360.117 48.1992L360.293 48C361.223 47 361.855 46.332 362.191 45.9961C362.746 45.4414 363.27 45.082 363.762 44.918C364.035 44.832 364.32 44.7891 364.617 44.7891C365.156 44.7891 365.566 44.9375 365.848 45.2344C366.129 45.5234 366.27 45.9023 366.27 46.3711C366.27 46.8633 366.137 47.2461 365.871 47.5195C365.613 47.793 365.242 47.9297 364.758 47.9297C364.312 47.9297 363.973 47.793 363.738 47.5195C363.527 47.2852 363.43 47.0117 363.445 46.6992C363.195 46.8477 362.957 47.0234 362.73 47.2266C362.512 47.4219 362.27 47.6562 362.004 47.9297L361.77 48.1875C361.66 48.2969 361.512 48.4609 361.324 48.6797C361.129 48.9062 360.891 49.1602 360.609 49.4414C360.883 49.3789 361.219 49.3477 361.617 49.3477C362.445 49.3477 363.043 49.5391 363.41 49.9219C363.738 50.2578 363.902 50.8086 363.902 51.5742C363.902 51.832 363.855 52.2109 363.762 52.7109C363.723 52.9062 363.688 53.1133 363.656 53.332C363.625 53.543 363.609 53.7422 363.609 53.9297C363.609 54.5234 363.93 54.8203 364.57 54.8203C364.812 54.8203 365.02 54.7812 365.191 54.7031C365.371 54.6172 365.535 54.4844 365.684 54.3047C365.824 54.1406 365.961 53.9336 366.094 53.6836C366.227 53.4336 366.383 53.1055 366.562 52.6992H367.57C366.562 55.6602 365.105 57.1406 363.199 57.1406ZM369.445 57.1406C368.531 57.1406 367.793 56.8555 367.23 56.2852C366.574 55.6133 366.246 54.6133 366.246 53.2852C366.246 52.7227 366.305 52.1289 366.422 51.5039C366.531 50.8789 366.695 50.2617 366.914 49.6523C367.414 48.2773 368.098 47.168 368.965 46.3242C369.965 45.3633 371.117 44.8828 372.422 44.8828C373.07 44.8828 373.555 44.9961 373.875 45.2227C374.203 45.4414 374.367 45.7344 374.367 46.1016V46.2773L374.625 45H378.082L376.359 53.1562C376.289 53.3906 376.254 53.6484 376.254 53.9297C376.254 54.6172 376.582 54.9609 377.238 54.9609C377.676 54.9609 378.074 54.7383 378.434 54.293C378.738 53.918 378.988 53.3867 379.184 52.6992H380.191C379.762 53.918 379.242 54.8828 378.633 55.5938C378.117 56.1797 377.535 56.6016 376.887 56.8594C376.41 57.0469 375.906 57.1406 375.375 57.1406C374.695 57.1406 374.152 56.957 373.746 56.5898C373.348 56.2148 373.105 55.6641 373.02 54.9375C372.566 55.5781 372.09 56.0781 371.59 56.4375C370.949 56.9062 370.234 57.1406 369.445 57.1406ZM371.004 54.8203C371.184 54.8203 371.371 54.7734 371.566 54.6797C371.77 54.5859 371.965 54.4531 372.152 54.2812C372.574 53.875 372.855 53.3477 372.996 52.6992L374.145 47.2852C374.145 47.207 374.125 47.1172 374.086 47.0156C374.055 46.9062 374.008 46.8047 373.945 46.7109C373.758 46.4844 373.496 46.3711 373.16 46.3711C372.84 46.3711 372.527 46.4766 372.223 46.6875C371.926 46.8984 371.645 47.1914 371.379 47.5664C370.91 48.2461 370.523 49.1328 370.219 50.2266C370.078 50.7109 369.973 51.1914 369.902 51.668C369.832 52.1367 369.797 52.5625 369.797 52.9453C369.797 53.7422 369.945 54.2812 370.242 54.5625C370.344 54.6719 370.457 54.7422 370.582 54.7734C370.707 54.8047 370.848 54.8203 371.004 54.8203Z" fill="#16578D"></path> <path d="M64.3359 75.3672V79.4102H69.7061V75.3672H71.165V85H69.7061V80.6494H64.3359V85H62.8682V75.3672H64.3359ZM77.8623 75.209C79.0107 75.209 79.8633 75.4668 80.4199 75.9824C80.9766 76.498 81.2549 77.3213 81.2549 78.4521V85H80.1914L79.9102 83.5762H79.8398C79.5703 83.9277 79.2891 84.2236 78.9961 84.4639C78.7031 84.6982 78.3633 84.877 77.9766 85C77.5957 85.1172 77.127 85.1758 76.5703 85.1758C75.9844 85.1758 75.4629 85.0732 75.0059 84.8682C74.5547 84.6631 74.1973 84.3525 73.9336 83.9365C73.6758 83.5205 73.5469 82.9932 73.5469 82.3545C73.5469 81.3936 73.9277 80.6553 74.6895 80.1396C75.4512 79.624 76.6113 79.3428 78.1699 79.2959L79.8311 79.2256V78.6367C79.8311 77.8047 79.6523 77.2217 79.2949 76.8877C78.9375 76.5537 78.4336 76.3867 77.7832 76.3867C77.2793 76.3867 76.7988 76.46 76.3418 76.6064C75.8848 76.7529 75.4512 76.9258 75.041 77.125L74.5928 76.0176C75.0264 75.7949 75.5244 75.6045 76.0869 75.4463C76.6494 75.2881 77.2412 75.209 77.8623 75.209ZM79.8135 80.2539L78.3457 80.3154C77.1445 80.3623 76.2979 80.5586 75.8057 80.9043C75.3135 81.25 75.0674 81.7393 75.0674 82.3721C75.0674 82.9229 75.2344 83.3301 75.5684 83.5938C75.9023 83.8574 76.3447 83.9893 76.8955 83.9893C77.751 83.9893 78.4512 83.752 78.9961 83.2773C79.541 82.8027 79.8135 82.0908 79.8135 81.1416V80.2539ZM82.7402 75.3672H84.3047L86.4316 80.957C86.5547 81.2852 86.6689 81.6016 86.7744 81.9062C86.8799 82.2051 86.9736 82.4922 87.0557 82.7676C87.1377 83.043 87.2021 83.3096 87.249 83.5674H87.3105C87.3926 83.2744 87.5098 82.8906 87.6621 82.416C87.8145 81.9355 87.9785 81.4463 88.1543 80.9482L90.167 75.3672H91.7402L87.5479 86.415C87.3252 87.0068 87.0645 87.5225 86.7656 87.9619C86.4727 88.4014 86.1152 88.7383 85.6934 88.9727C85.2715 89.2129 84.7617 89.333 84.1641 89.333C83.8887 89.333 83.6455 89.3154 83.4346 89.2803C83.2236 89.251 83.042 89.2158 82.8896 89.1748V88.0059C83.0186 88.0352 83.1738 88.0615 83.3555 88.085C83.543 88.1084 83.7363 88.1201 83.9355 88.1201C84.2988 88.1201 84.6123 88.0498 84.876 87.9092C85.1455 87.7744 85.377 87.5752 85.5703 87.3115C85.7637 87.0479 85.9307 86.7344 86.0713 86.3711L86.5986 85.0176L82.7402 75.3672ZM94.5527 75.3672V78.8301C94.5527 79.4336 94.7168 79.8789 95.0449 80.166C95.3789 80.4531 95.8623 80.5967 96.4951 80.5967C97.1045 80.5967 97.6582 80.5029 98.1562 80.3154C98.6543 80.1279 99.1582 79.873 99.668 79.5508V75.3672H101.127V85H99.668V80.6846C99.1289 81.0303 98.5986 81.3027 98.0771 81.502C97.5557 81.7012 96.9316 81.8008 96.2051 81.8008C95.2148 81.8008 94.4473 81.543 93.9023 81.0273C93.3633 80.5117 93.0938 79.8145 93.0938 78.9355V75.3672H94.5527ZM105.601 75.3672V81.4229C105.601 81.54 105.598 81.6924 105.592 81.8799C105.586 82.0615 105.577 82.2578 105.565 82.4688C105.554 82.6738 105.542 82.873 105.53 83.0664C105.524 83.2539 105.516 83.4092 105.504 83.5322L110.76 75.3672H112.553V85H111.19V79.0938C111.19 78.9062 111.193 78.666 111.199 78.373C111.205 78.0801 111.214 77.793 111.226 77.5117C111.237 77.2246 111.246 77.002 111.252 76.8438L106.014 85H104.212V75.3672H105.601ZM125.824 75.3672V85H124.506V78.7246C124.506 78.4668 124.512 78.2061 124.523 77.9424C124.541 77.6729 124.562 77.4033 124.585 77.1338H124.532L121.333 85H120.094L116.974 77.1338H116.921C116.938 77.4033 116.95 77.6729 116.956 77.9424C116.968 78.2061 116.974 78.4844 116.974 78.7773V85H115.646V75.3672H117.606L120.718 83.2422L123.873 75.3672H125.824ZM141.601 75.3672V85H140.133V76.624H135V85H133.532V75.3672H141.601ZM149.221 75.1914C150.422 75.1914 151.38 75.6045 152.095 76.4307C152.81 77.2568 153.167 78.499 153.167 80.1572C153.167 81.2529 153.003 82.1729 152.675 82.917C152.347 83.6611 151.884 84.2236 151.286 84.6045C150.694 84.9854 149.994 85.1758 149.186 85.1758C148.676 85.1758 148.228 85.1084 147.841 84.9736C147.454 84.8389 147.123 84.6572 146.848 84.4287C146.572 84.2002 146.344 83.9512 146.162 83.6816H146.057C146.074 83.9102 146.095 84.1855 146.118 84.5078C146.147 84.8301 146.162 85.1113 146.162 85.3516V89.3066H144.694V75.3672H145.898L146.092 76.791H146.162C146.35 76.498 146.578 76.2314 146.848 75.9912C147.117 75.7451 147.445 75.5518 147.832 75.4111C148.225 75.2646 148.688 75.1914 149.221 75.1914ZM148.966 76.4219C148.298 76.4219 147.759 76.5508 147.349 76.8086C146.944 77.0664 146.648 77.4531 146.461 77.9688C146.273 78.4785 146.174 79.1201 146.162 79.8936V80.1748C146.162 80.9893 146.25 81.6777 146.426 82.2402C146.607 82.8027 146.903 83.2305 147.313 83.5234C147.729 83.8164 148.286 83.9629 148.983 83.9629C149.581 83.9629 150.079 83.8018 150.478 83.4795C150.876 83.1572 151.172 82.709 151.365 82.1348C151.564 81.5547 151.664 80.8896 151.664 80.1396C151.664 79.0029 151.441 78.1006 150.996 77.4326C150.557 76.7588 149.88 76.4219 148.966 76.4219ZM159.319 75.209C160.468 75.209 161.32 75.4668 161.877 75.9824C162.434 76.498 162.712 77.3213 162.712 78.4521V85H161.648L161.367 83.5762H161.297C161.027 83.9277 160.746 84.2236 160.453 84.4639C160.16 84.6982 159.82 84.877 159.434 85C159.053 85.1172 158.584 85.1758 158.027 85.1758C157.441 85.1758 156.92 85.0732 156.463 84.8682C156.012 84.6631 155.654 84.3525 155.391 83.9365C155.133 83.5205 155.004 82.9932 155.004 82.3545C155.004 81.3936 155.385 80.6553 156.146 80.1396C156.908 79.624 158.068 79.3428 159.627 79.2959L161.288 79.2256V78.6367C161.288 77.8047 161.109 77.2217 160.752 76.8877C160.395 76.5537 159.891 76.3867 159.24 76.3867C158.736 76.3867 158.256 76.46 157.799 76.6064C157.342 76.7529 156.908 76.9258 156.498 77.125L156.05 76.0176C156.483 75.7949 156.981 75.6045 157.544 75.4463C158.106 75.2881 158.698 75.209 159.319 75.209ZM161.271 80.2539L159.803 80.3154C158.602 80.3623 157.755 80.5586 157.263 80.9043C156.771 81.25 156.524 81.7393 156.524 82.3721C156.524 82.9229 156.691 83.3301 157.025 83.5938C157.359 83.8574 157.802 83.9893 158.353 83.9893C159.208 83.9893 159.908 83.752 160.453 83.2773C160.998 82.8027 161.271 82.0908 161.271 81.1416V80.2539ZM173.373 77.7842C173.373 78.3877 173.197 78.8594 172.846 79.1992C172.494 79.5332 172.04 79.7588 171.483 79.876V79.9463C172.087 80.0283 172.605 80.2451 173.039 80.5967C173.479 80.9424 173.698 81.4727 173.698 82.1875C173.698 82.7383 173.566 83.2246 173.303 83.6465C173.039 84.0684 172.626 84.3994 172.063 84.6396C171.501 84.8799 170.769 85 169.866 85H165.718V75.3672H169.831C170.522 75.3672 171.132 75.4463 171.659 75.6045C172.192 75.7568 172.611 76.0088 172.916 76.3604C173.221 76.7119 173.373 77.1865 173.373 77.7842ZM172.178 82.1875C172.178 81.6191 171.961 81.209 171.527 80.957C171.1 80.7051 170.476 80.5791 169.655 80.5791H167.186V83.8135H169.69C170.499 83.8135 171.114 83.6904 171.536 83.4443C171.964 83.1924 172.178 82.7734 172.178 82.1875ZM171.888 77.9512C171.888 77.4941 171.721 77.1543 171.387 76.9316C171.053 76.7031 170.505 76.5889 169.743 76.5889H167.186V79.3574H169.488C170.279 79.3574 170.877 79.2432 171.281 79.0146C171.686 78.7861 171.888 78.4316 171.888 77.9512ZM177.442 75.3672V81.4229C177.442 81.54 177.439 81.6924 177.434 81.8799C177.428 82.0615 177.419 82.2578 177.407 82.4688C177.396 82.6738 177.384 82.873 177.372 83.0664C177.366 83.2539 177.357 83.4092 177.346 83.5322L182.602 75.3672H184.395V85H183.032V79.0938C183.032 78.9062 183.035 78.666 183.041 78.373C183.047 78.0801 183.056 77.793 183.067 77.5117C183.079 77.2246 183.088 77.002 183.094 76.8438L177.855 85H176.054V75.3672H177.442ZM194.722 85H193.236V76.5889H190.31C190.192 78.1064 190.043 79.4072 189.861 80.4912C189.686 81.5693 189.463 82.4512 189.193 83.1367C188.93 83.8164 188.607 84.3174 188.227 84.6396C187.852 84.9561 187.403 85.1143 186.882 85.1143C186.724 85.1143 186.574 85.1055 186.434 85.0879C186.293 85.0703 186.173 85.041 186.073 85V83.8926C186.149 83.916 186.229 83.9336 186.311 83.9453C186.398 83.957 186.489 83.9629 186.583 83.9629C186.847 83.9629 187.087 83.8545 187.304 83.6377C187.526 83.415 187.726 83.0811 187.901 82.6357C188.083 82.1904 188.244 81.6279 188.385 80.9482C188.525 80.2627 188.648 79.457 188.754 78.5312C188.865 77.5996 188.962 76.5449 189.044 75.3672H194.722V85ZM199.266 79.3398H202.219C203.039 79.3398 203.722 79.4424 204.267 79.6475C204.812 79.8525 205.219 80.1572 205.488 80.5615C205.764 80.9658 205.901 81.4668 205.901 82.0645C205.901 82.6621 205.767 83.1807 205.497 83.6201C205.233 84.0596 204.823 84.3994 204.267 84.6396C203.716 84.8799 203.004 85 202.131 85H197.798V75.3672H199.266V79.3398ZM204.434 82.1348C204.434 81.543 204.223 81.1328 203.801 80.9043C203.385 80.6699 202.802 80.5527 202.052 80.5527H199.266V83.8135H202.061C202.764 83.8135 203.335 83.6846 203.774 83.4268C204.214 83.1631 204.434 82.7324 204.434 82.1348ZM209.883 75.3672V79.4102H215.253V75.3672H216.712V85H215.253V80.6494H209.883V85H208.415V75.3672H209.883ZM228.111 80.166C228.111 80.957 228.009 81.6631 227.804 82.2842C227.599 82.9053 227.303 83.4297 226.916 83.8574C226.529 84.2852 226.061 84.6133 225.51 84.8418C224.965 85.0645 224.347 85.1758 223.655 85.1758C223.011 85.1758 222.419 85.0645 221.88 84.8418C221.347 84.6133 220.884 84.2852 220.491 83.8574C220.104 83.4297 219.803 82.9053 219.586 82.2842C219.375 81.6631 219.27 80.957 219.27 80.166C219.27 79.1113 219.448 78.2148 219.806 77.4766C220.163 76.7324 220.673 76.167 221.335 75.7803C222.003 75.3877 222.797 75.1914 223.717 75.1914C224.596 75.1914 225.363 75.3877 226.02 75.7803C226.682 76.1729 227.194 76.7412 227.558 77.4854C227.927 78.2236 228.111 79.1172 228.111 80.166ZM220.781 80.166C220.781 80.9395 220.884 81.6104 221.089 82.1787C221.294 82.7471 221.61 83.1865 222.038 83.4971C222.466 83.8076 223.017 83.9629 223.69 83.9629C224.358 83.9629 224.906 83.8076 225.334 83.4971C225.768 83.1865 226.087 82.7471 226.292 82.1787C226.497 81.6104 226.6 80.9395 226.6 80.166C226.6 79.3984 226.497 78.7363 226.292 78.1797C226.087 77.6172 225.771 77.1836 225.343 76.8789C224.915 76.5742 224.361 76.4219 223.682 76.4219C222.68 76.4219 221.944 76.7529 221.476 77.415C221.013 78.0771 220.781 78.9941 220.781 80.166ZM239.836 75.1914C241.037 75.1914 241.995 75.6045 242.71 76.4307C243.425 77.2568 243.782 78.499 243.782 80.1572C243.782 81.2529 243.618 82.1729 243.29 82.917C242.962 83.6611 242.499 84.2236 241.901 84.6045C241.31 84.9854 240.609 85.1758 239.801 85.1758C239.291 85.1758 238.843 85.1084 238.456 84.9736C238.069 84.8389 237.738 84.6572 237.463 84.4287C237.188 84.2002 236.959 83.9512 236.777 83.6816H236.672C236.689 83.9102 236.71 84.1855 236.733 84.5078C236.763 84.8301 236.777 85.1113 236.777 85.3516V89.3066H235.31V75.3672H236.514L236.707 76.791H236.777C236.965 76.498 237.193 76.2314 237.463 75.9912C237.732 75.7451 238.061 75.5518 238.447 75.4111C238.84 75.2646 239.303 75.1914 239.836 75.1914ZM239.581 76.4219C238.913 76.4219 238.374 76.5508 237.964 76.8086C237.56 77.0664 237.264 77.4531 237.076 77.9688C236.889 78.4785 236.789 79.1201 236.777 79.8936V80.1748C236.777 80.9893 236.865 81.6777 237.041 82.2402C237.223 82.8027 237.519 83.2305 237.929 83.5234C238.345 83.8164 238.901 83.9629 239.599 83.9629C240.196 83.9629 240.694 83.8018 241.093 83.4795C241.491 83.1572 241.787 82.709 241.98 82.1348C242.18 81.5547 242.279 80.8896 242.279 80.1396C242.279 79.0029 242.057 78.1006 241.611 77.4326C241.172 76.7588 240.495 76.4219 239.581 76.4219ZM249.935 75.209C251.083 75.209 251.936 75.4668 252.492 75.9824C253.049 76.498 253.327 77.3213 253.327 78.4521V85H252.264L251.982 83.5762H251.912C251.643 83.9277 251.361 84.2236 251.068 84.4639C250.775 84.6982 250.436 84.877 250.049 85C249.668 85.1172 249.199 85.1758 248.643 85.1758C248.057 85.1758 247.535 85.0732 247.078 84.8682C246.627 84.6631 246.27 84.3525 246.006 83.9365C245.748 83.5205 245.619 82.9932 245.619 82.3545C245.619 81.3936 246 80.6553 246.762 80.1396C247.523 79.624 248.684 79.3428 250.242 79.2959L251.903 79.2256V78.6367C251.903 77.8047 251.725 77.2217 251.367 76.8877C251.01 76.5537 250.506 76.3867 249.855 76.3867C249.352 76.3867 248.871 76.46 248.414 76.6064C247.957 76.7529 247.523 76.9258 247.113 77.125L246.665 76.0176C247.099 75.7949 247.597 75.6045 248.159 75.4463C248.722 75.2881 249.313 75.209 249.935 75.209ZM251.886 80.2539L250.418 80.3154C249.217 80.3623 248.37 80.5586 247.878 80.9043C247.386 81.25 247.14 81.7393 247.14 82.3721C247.14 82.9229 247.307 83.3301 247.641 83.5938C247.975 83.8574 248.417 83.9893 248.968 83.9893C249.823 83.9893 250.523 83.752 251.068 83.2773C251.613 82.8027 251.886 82.0908 251.886 81.1416V80.2539ZM255.832 79.2168C255.832 77.8457 255.964 76.6768 256.228 75.71C256.491 74.7373 256.898 73.958 257.449 73.3721C258.006 72.7803 258.721 72.376 259.594 72.1592C260.344 71.9541 261.105 71.7783 261.879 71.6318C262.652 71.4795 263.405 71.3477 264.138 71.2363L264.393 72.5195C264.023 72.5723 263.637 72.6338 263.232 72.7041C262.828 72.7686 262.424 72.8389 262.02 72.915C261.615 72.9854 261.234 73.0615 260.877 73.1436C260.52 73.2197 260.203 73.2988 259.928 73.3809C259.43 73.5156 258.999 73.75 258.636 74.084C258.278 74.418 257.994 74.8779 257.783 75.4639C257.578 76.0498 257.455 76.7881 257.414 77.6787H257.52C257.695 77.4209 257.936 77.166 258.24 76.9141C258.545 76.6621 258.908 76.4541 259.33 76.29C259.752 76.1201 260.227 76.0352 260.754 76.0352C261.586 76.0352 262.28 76.2168 262.837 76.5801C263.394 76.9375 263.812 77.4414 264.094 78.0918C264.375 78.7422 264.516 79.5039 264.516 80.377C264.516 81.4258 264.334 82.3076 263.971 83.0225C263.613 83.7373 263.109 84.2764 262.459 84.6396C261.809 84.9971 261.044 85.1758 260.165 85.1758C259.485 85.1758 258.876 85.0439 258.337 84.7803C257.804 84.5166 257.35 84.1299 256.975 83.6201C256.605 83.1104 256.321 82.4863 256.122 81.748C255.929 81.0098 255.832 80.166 255.832 79.2168ZM260.279 83.9629C260.836 83.9629 261.313 83.8457 261.712 83.6113C262.116 83.377 262.427 83.0078 262.644 82.5039C262.866 81.9941 262.978 81.332 262.978 80.5176C262.978 79.498 262.781 78.7012 262.389 78.127C262.002 77.5469 261.381 77.2568 260.525 77.2568C259.992 77.2568 259.509 77.3711 259.075 77.5996C258.642 77.8223 258.275 78.0889 257.977 78.3994C257.678 78.71 257.461 78.9883 257.326 79.2344C257.326 79.832 257.37 80.4121 257.458 80.9746C257.546 81.5371 257.698 82.0439 257.915 82.4951C258.132 82.9463 258.431 83.3037 258.812 83.5674C259.198 83.8311 259.688 83.9629 260.279 83.9629ZM275.344 80.166C275.344 80.957 275.241 81.6631 275.036 82.2842C274.831 82.9053 274.535 83.4297 274.148 83.8574C273.762 84.2852 273.293 84.6133 272.742 84.8418C272.197 85.0645 271.579 85.1758 270.888 85.1758C270.243 85.1758 269.651 85.0645 269.112 84.8418C268.579 84.6133 268.116 84.2852 267.724 83.8574C267.337 83.4297 267.035 82.9053 266.818 82.2842C266.607 81.6631 266.502 80.957 266.502 80.166C266.502 79.1113 266.681 78.2148 267.038 77.4766C267.396 76.7324 267.905 76.167 268.567 75.7803C269.235 75.3877 270.029 75.1914 270.949 75.1914C271.828 75.1914 272.596 75.3877 273.252 75.7803C273.914 76.1729 274.427 76.7412 274.79 77.4854C275.159 78.2236 275.344 79.1172 275.344 80.166ZM268.014 80.166C268.014 80.9395 268.116 81.6104 268.321 82.1787C268.526 82.7471 268.843 83.1865 269.271 83.4971C269.698 83.8076 270.249 83.9629 270.923 83.9629C271.591 83.9629 272.139 83.8076 272.566 83.4971C273 83.1865 273.319 82.7471 273.524 82.1787C273.729 81.6104 273.832 80.9395 273.832 80.166C273.832 79.3984 273.729 78.7363 273.524 78.1797C273.319 77.6172 273.003 77.1836 272.575 76.8789C272.147 76.5742 271.594 76.4219 270.914 76.4219C269.912 76.4219 269.177 76.7529 268.708 77.415C268.245 78.0771 268.014 78.9941 268.014 80.166ZM284.432 76.6064H281.259V85H279.817V76.6064H276.688V75.3672H284.432V76.6064ZM289.942 75.209C291.091 75.209 291.943 75.4668 292.5 75.9824C293.057 76.498 293.335 77.3213 293.335 78.4521V85H292.271L291.99 83.5762H291.92C291.65 83.9277 291.369 84.2236 291.076 84.4639C290.783 84.6982 290.443 84.877 290.057 85C289.676 85.1172 289.207 85.1758 288.65 85.1758C288.064 85.1758 287.543 85.0732 287.086 84.8682C286.635 84.6631 286.277 84.3525 286.014 83.9365C285.756 83.5205 285.627 82.9932 285.627 82.3545C285.627 81.3936 286.008 80.6553 286.77 80.1396C287.531 79.624 288.691 79.3428 290.25 79.2959L291.911 79.2256V78.6367C291.911 77.8047 291.732 77.2217 291.375 76.8877C291.018 76.5537 290.514 76.3867 289.863 76.3867C289.359 76.3867 288.879 76.46 288.422 76.6064C287.965 76.7529 287.531 76.9258 287.121 77.125L286.673 76.0176C287.106 75.7949 287.604 75.6045 288.167 75.4463C288.729 75.2881 289.321 75.209 289.942 75.209ZM291.894 80.2539L290.426 80.3154C289.225 80.3623 288.378 80.5586 287.886 80.9043C287.394 81.25 287.147 81.7393 287.147 82.3721C287.147 82.9229 287.314 83.3301 287.648 83.5938C287.982 83.8574 288.425 83.9893 288.976 83.9893C289.831 83.9893 290.531 83.752 291.076 83.2773C291.621 82.8027 291.894 82.0908 291.894 81.1416V80.2539ZM302.906 76.6064H299.733V85H298.292V76.6064H295.163V75.3672H302.906V76.6064ZM306.281 79.3398H309.234C310.055 79.3398 310.737 79.4424 311.282 79.6475C311.827 79.8525 312.234 80.1572 312.504 80.5615C312.779 80.9658 312.917 81.4668 312.917 82.0645C312.917 82.6621 312.782 83.1807 312.513 83.6201C312.249 84.0596 311.839 84.3994 311.282 84.6396C310.731 84.8799 310.02 85 309.146 85H304.813V75.3672H306.281V79.3398ZM311.449 82.1348C311.449 81.543 311.238 81.1328 310.816 80.9043C310.4 80.6699 309.817 80.5527 309.067 80.5527H306.281V83.8135H309.076C309.779 83.8135 310.351 83.6846 310.79 83.4268C311.229 83.1631 311.449 82.7324 311.449 82.1348ZM327.762 77.7842C327.762 78.3877 327.586 78.8594 327.234 79.1992C326.883 79.5332 326.429 79.7588 325.872 79.876V79.9463C326.476 80.0283 326.994 80.2451 327.428 80.5967C327.867 80.9424 328.087 81.4727 328.087 82.1875C328.087 82.7383 327.955 83.2246 327.691 83.6465C327.428 84.0684 327.015 84.3994 326.452 84.6396C325.89 84.8799 325.157 85 324.255 85H320.106V75.3672H324.22C324.911 75.3672 325.521 75.4463 326.048 75.6045C326.581 75.7568 327 76.0088 327.305 76.3604C327.609 76.7119 327.762 77.1865 327.762 77.7842ZM326.566 82.1875C326.566 81.6191 326.35 81.209 325.916 80.957C325.488 80.7051 324.864 80.5791 324.044 80.5791H321.574V83.8135H324.079C324.888 83.8135 325.503 83.6904 325.925 83.4443C326.353 83.1924 326.566 82.7734 326.566 82.1875ZM326.276 77.9512C326.276 77.4941 326.109 77.1543 325.775 76.9316C325.441 76.7031 324.894 76.5889 324.132 76.5889H321.574V79.3574H323.877C324.668 79.3574 325.266 79.2432 325.67 79.0146C326.074 78.7861 326.276 78.4316 326.276 77.9512ZM340.734 75.3672H342.343L338.186 80.0166L342.677 85H340.963L336.586 80.1133V85H335.118V75.3672H336.586V80.043L340.734 75.3672ZM351.642 85H350.156V76.5889H347.229C347.112 78.1064 346.963 79.4072 346.781 80.4912C346.605 81.5693 346.383 82.4512 346.113 83.1367C345.85 83.8164 345.527 84.3174 345.146 84.6396C344.771 84.9561 344.323 85.1143 343.802 85.1143C343.644 85.1143 343.494 85.1055 343.354 85.0879C343.213 85.0703 343.093 85.041 342.993 85V83.8926C343.069 83.916 343.148 83.9336 343.23 83.9453C343.318 83.957 343.409 83.9629 343.503 83.9629C343.767 83.9629 344.007 83.8545 344.224 83.6377C344.446 83.415 344.646 83.0811 344.821 82.6357C345.003 82.1904 345.164 81.6279 345.305 80.9482C345.445 80.2627 345.568 79.457 345.674 78.5312C345.785 77.5996 345.882 76.5449 345.964 75.3672H351.642V85ZM358.321 75.209C359.47 75.209 360.322 75.4668 360.879 75.9824C361.436 76.498 361.714 77.3213 361.714 78.4521V85H360.65L360.369 83.5762H360.299C360.029 83.9277 359.748 84.2236 359.455 84.4639C359.162 84.6982 358.822 84.877 358.436 85C358.055 85.1172 357.586 85.1758 357.029 85.1758C356.443 85.1758 355.922 85.0732 355.465 84.8682C355.014 84.6631 354.656 84.3525 354.393 83.9365C354.135 83.5205 354.006 82.9932 354.006 82.3545C354.006 81.3936 354.387 80.6553 355.148 80.1396C355.91 79.624 357.07 79.3428 358.629 79.2959L360.29 79.2256V78.6367C360.29 77.8047 360.111 77.2217 359.754 76.8877C359.396 76.5537 358.893 76.3867 358.242 76.3867C357.738 76.3867 357.258 76.46 356.801 76.6064C356.344 76.7529 355.91 76.9258 355.5 77.125L355.052 76.0176C355.485 75.7949 355.983 75.6045 356.546 75.4463C357.108 75.2881 357.7 75.209 358.321 75.209ZM360.272 80.2539L358.805 80.3154C357.604 80.3623 356.757 80.5586 356.265 80.9043C355.772 81.25 355.526 81.7393 355.526 82.3721C355.526 82.9229 355.693 83.3301 356.027 83.5938C356.361 83.8574 356.804 83.9893 357.354 83.9893C358.21 83.9893 358.91 83.752 359.455 83.2773C360 82.8027 360.272 82.0908 360.272 81.1416V80.2539ZM368.578 85.1758C367.711 85.1758 366.946 84.9971 366.284 84.6396C365.622 84.2822 365.106 83.7373 364.737 83.0049C364.368 82.2725 364.184 81.3496 364.184 80.2363C364.184 79.0703 364.377 78.1182 364.764 77.3799C365.156 76.6357 365.695 76.085 366.381 75.7275C367.066 75.3701 367.846 75.1914 368.719 75.1914C369.199 75.1914 369.662 75.2412 370.107 75.3408C370.559 75.4346 370.928 75.5547 371.215 75.7012L370.775 76.9229C370.482 76.8057 370.143 76.7002 369.756 76.6064C369.375 76.5127 369.018 76.4658 368.684 76.4658C368.016 76.4658 367.459 76.6094 367.014 76.8965C366.574 77.1836 366.243 77.6055 366.021 78.1621C365.804 78.7188 365.695 79.4043 365.695 80.2188C365.695 80.998 365.801 81.6631 366.012 82.2139C366.229 82.7646 366.548 83.1865 366.97 83.4795C367.397 83.7666 367.931 83.9102 368.569 83.9102C369.079 83.9102 369.539 83.8574 369.949 83.752C370.359 83.6406 370.731 83.5117 371.065 83.3652V84.666C370.743 84.8301 370.383 84.9561 369.984 85.0439C369.592 85.1318 369.123 85.1758 368.578 85.1758ZM377.209 85.1758C376.342 85.1758 375.577 84.9971 374.915 84.6396C374.253 84.2822 373.737 83.7373 373.368 83.0049C372.999 82.2725 372.814 81.3496 372.814 80.2363C372.814 79.0703 373.008 78.1182 373.395 77.3799C373.787 76.6357 374.326 76.085 375.012 75.7275C375.697 75.3701 376.477 75.1914 377.35 75.1914C377.83 75.1914 378.293 75.2412 378.738 75.3408C379.189 75.4346 379.559 75.5547 379.846 75.7012L379.406 76.9229C379.113 76.8057 378.773 76.7002 378.387 76.6064C378.006 76.5127 377.648 76.4658 377.314 76.4658C376.646 76.4658 376.09 76.6094 375.645 76.8965C375.205 77.1836 374.874 77.6055 374.651 78.1621C374.435 78.7188 374.326 79.4043 374.326 80.2188C374.326 80.998 374.432 81.6631 374.643 82.2139C374.859 82.7646 375.179 83.1865 375.601 83.4795C376.028 83.7666 376.562 83.9102 377.2 83.9102C377.71 83.9102 378.17 83.8574 378.58 83.752C378.99 83.6406 379.362 83.5117 379.696 83.3652V84.666C379.374 84.8301 379.014 84.9561 378.615 85.0439C378.223 85.1318 377.754 85.1758 377.209 85.1758ZM385.69 75.1914C386.511 75.1914 387.214 75.373 387.8 75.7363C388.386 76.0996 388.834 76.6094 389.145 77.2656C389.455 77.916 389.61 78.6777 389.61 79.5508V80.4561H382.957C382.975 81.5869 383.256 82.4482 383.801 83.04C384.346 83.6318 385.113 83.9277 386.104 83.9277C386.713 83.9277 387.252 83.8721 387.721 83.7607C388.189 83.6494 388.676 83.4854 389.18 83.2686V84.5518C388.693 84.7686 388.21 84.9268 387.729 85.0264C387.255 85.126 386.692 85.1758 386.042 85.1758C385.116 85.1758 384.308 84.9883 383.616 84.6133C382.931 84.2324 382.397 83.6758 382.017 82.9434C381.636 82.2109 381.445 81.3145 381.445 80.2539C381.445 79.2168 381.618 78.3203 381.964 77.5645C382.315 76.8027 382.808 76.2168 383.44 75.8066C384.079 75.3965 384.829 75.1914 385.69 75.1914ZM385.673 76.3867C384.894 76.3867 384.272 76.6416 383.81 77.1514C383.347 77.6611 383.071 78.373 382.983 79.2871H388.081C388.075 78.7129 387.984 78.209 387.809 77.7754C387.639 77.3359 387.378 76.9961 387.026 76.7559C386.675 76.5098 386.224 76.3867 385.673 76.3867ZM398.153 75.3672V81.4229C398.153 81.54 398.15 81.6924 398.145 81.8799C398.139 82.0615 398.13 82.2578 398.118 82.4688C398.106 82.6738 398.095 82.873 398.083 83.0664C398.077 83.2539 398.068 83.4092 398.057 83.5322L403.312 75.3672H405.105V85H403.743V79.0938C403.743 78.9062 403.746 78.666 403.752 78.373C403.758 78.0801 403.767 77.793 403.778 77.5117C403.79 77.2246 403.799 77.002 403.805 76.8438L398.566 85H396.765V75.3672H398.153ZM141.46 102.784C141.46 103.388 141.284 103.859 140.933 104.199C140.581 104.533 140.127 104.759 139.57 104.876V104.946C140.174 105.028 140.692 105.245 141.126 105.597C141.565 105.942 141.785 106.473 141.785 107.188C141.785 107.738 141.653 108.225 141.39 108.646C141.126 109.068 140.713 109.399 140.15 109.64C139.588 109.88 138.855 110 137.953 110H133.805V100.367H137.918C138.609 100.367 139.219 100.446 139.746 100.604C140.279 100.757 140.698 101.009 141.003 101.36C141.308 101.712 141.46 102.187 141.46 102.784ZM140.265 107.188C140.265 106.619 140.048 106.209 139.614 105.957C139.187 105.705 138.562 105.579 137.742 105.579H135.272V108.813H137.777C138.586 108.813 139.201 108.69 139.623 108.444C140.051 108.192 140.265 107.773 140.265 107.188ZM139.975 102.951C139.975 102.494 139.808 102.154 139.474 101.932C139.14 101.703 138.592 101.589 137.83 101.589H135.272V104.357H137.575C138.366 104.357 138.964 104.243 139.368 104.015C139.772 103.786 139.975 103.432 139.975 102.951ZM152.446 105.166C152.446 105.957 152.344 106.663 152.139 107.284C151.934 107.905 151.638 108.43 151.251 108.857C150.864 109.285 150.396 109.613 149.845 109.842C149.3 110.064 148.682 110.176 147.99 110.176C147.346 110.176 146.754 110.064 146.215 109.842C145.682 109.613 145.219 109.285 144.826 108.857C144.439 108.43 144.138 107.905 143.921 107.284C143.71 106.663 143.604 105.957 143.604 105.166C143.604 104.111 143.783 103.215 144.141 102.477C144.498 101.732 145.008 101.167 145.67 100.78C146.338 100.388 147.132 100.191 148.052 100.191C148.931 100.191 149.698 100.388 150.354 100.78C151.017 101.173 151.529 101.741 151.893 102.485C152.262 103.224 152.446 104.117 152.446 105.166ZM145.116 105.166C145.116 105.939 145.219 106.61 145.424 107.179C145.629 107.747 145.945 108.187 146.373 108.497C146.801 108.808 147.352 108.963 148.025 108.963C148.693 108.963 149.241 108.808 149.669 108.497C150.103 108.187 150.422 107.747 150.627 107.179C150.832 106.61 150.935 105.939 150.935 105.166C150.935 104.398 150.832 103.736 150.627 103.18C150.422 102.617 150.105 102.184 149.678 101.879C149.25 101.574 148.696 101.422 148.017 101.422C147.015 101.422 146.279 101.753 145.811 102.415C145.348 103.077 145.116 103.994 145.116 105.166ZM158.827 110.176C157.96 110.176 157.195 109.997 156.533 109.64C155.871 109.282 155.355 108.737 154.986 108.005C154.617 107.272 154.433 106.35 154.433 105.236C154.433 104.07 154.626 103.118 155.013 102.38C155.405 101.636 155.944 101.085 156.63 100.728C157.315 100.37 158.095 100.191 158.968 100.191C159.448 100.191 159.911 100.241 160.356 100.341C160.808 100.435 161.177 100.555 161.464 100.701L161.024 101.923C160.731 101.806 160.392 101.7 160.005 101.606C159.624 101.513 159.267 101.466 158.933 101.466C158.265 101.466 157.708 101.609 157.263 101.896C156.823 102.184 156.492 102.605 156.27 103.162C156.053 103.719 155.944 104.404 155.944 105.219C155.944 105.998 156.05 106.663 156.261 107.214C156.478 107.765 156.797 108.187 157.219 108.479C157.646 108.767 158.18 108.91 158.818 108.91C159.328 108.91 159.788 108.857 160.198 108.752C160.608 108.641 160.98 108.512 161.314 108.365V109.666C160.992 109.83 160.632 109.956 160.233 110.044C159.841 110.132 159.372 110.176 158.827 110.176ZM171.668 100.367V110H170.2V101.624H165.067V110H163.6V100.367H171.668ZM179.288 100.191C180.489 100.191 181.447 100.604 182.162 101.431C182.877 102.257 183.234 103.499 183.234 105.157C183.234 106.253 183.07 107.173 182.742 107.917C182.414 108.661 181.951 109.224 181.354 109.604C180.762 109.985 180.062 110.176 179.253 110.176C178.743 110.176 178.295 110.108 177.908 109.974C177.521 109.839 177.19 109.657 176.915 109.429C176.64 109.2 176.411 108.951 176.229 108.682H176.124C176.142 108.91 176.162 109.186 176.186 109.508C176.215 109.83 176.229 110.111 176.229 110.352V114.307H174.762V100.367H175.966L176.159 101.791H176.229C176.417 101.498 176.646 101.231 176.915 100.991C177.185 100.745 177.513 100.552 177.899 100.411C178.292 100.265 178.755 100.191 179.288 100.191ZM179.033 101.422C178.365 101.422 177.826 101.551 177.416 101.809C177.012 102.066 176.716 102.453 176.528 102.969C176.341 103.479 176.241 104.12 176.229 104.894V105.175C176.229 105.989 176.317 106.678 176.493 107.24C176.675 107.803 176.971 108.23 177.381 108.523C177.797 108.816 178.354 108.963 179.051 108.963C179.648 108.963 180.146 108.802 180.545 108.479C180.943 108.157 181.239 107.709 181.433 107.135C181.632 106.555 181.731 105.89 181.731 105.14C181.731 104.003 181.509 103.101 181.063 102.433C180.624 101.759 179.947 101.422 179.033 101.422ZM187.172 100.367V106.423C187.172 106.54 187.169 106.692 187.163 106.88C187.157 107.062 187.148 107.258 187.137 107.469C187.125 107.674 187.113 107.873 187.102 108.066C187.096 108.254 187.087 108.409 187.075 108.532L192.331 100.367H194.124V110H192.762V104.094C192.762 103.906 192.765 103.666 192.771 103.373C192.776 103.08 192.785 102.793 192.797 102.512C192.809 102.225 192.817 102.002 192.823 101.844L187.585 110H185.783V100.367H187.172ZM198.694 100.367V104.41H204.064V100.367H205.523V110H204.064V105.649H198.694V110H197.227V100.367H198.694ZM210.006 100.367V106.423C210.006 106.54 210.003 106.692 209.997 106.88C209.991 107.062 209.982 107.258 209.971 107.469C209.959 107.674 209.947 107.873 209.936 108.066C209.93 108.254 209.921 108.409 209.909 108.532L215.165 100.367H216.958V110H215.596V104.094C215.596 103.906 215.599 103.666 215.604 103.373C215.61 103.08 215.619 102.793 215.631 102.512C215.643 102.225 215.651 102.002 215.657 101.844L210.419 110H208.617V100.367H210.006ZM230.229 100.367V110H228.911V103.725C228.911 103.467 228.917 103.206 228.929 102.942C228.946 102.673 228.967 102.403 228.99 102.134H228.938L225.738 110H224.499L221.379 102.134H221.326C221.344 102.403 221.355 102.673 221.361 102.942C221.373 103.206 221.379 103.484 221.379 103.777V110H220.052V100.367H222.012L225.123 108.242L228.278 100.367H230.229ZM236.865 100.209C238.014 100.209 238.866 100.467 239.423 100.982C239.979 101.498 240.258 102.321 240.258 103.452V110H239.194L238.913 108.576H238.843C238.573 108.928 238.292 109.224 237.999 109.464C237.706 109.698 237.366 109.877 236.979 110C236.599 110.117 236.13 110.176 235.573 110.176C234.987 110.176 234.466 110.073 234.009 109.868C233.558 109.663 233.2 109.353 232.937 108.937C232.679 108.521 232.55 107.993 232.55 107.354C232.55 106.394 232.931 105.655 233.692 105.14C234.454 104.624 235.614 104.343 237.173 104.296L238.834 104.226V103.637C238.834 102.805 238.655 102.222 238.298 101.888C237.94 101.554 237.437 101.387 236.786 101.387C236.282 101.387 235.802 101.46 235.345 101.606C234.888 101.753 234.454 101.926 234.044 102.125L233.596 101.018C234.029 100.795 234.527 100.604 235.09 100.446C235.652 100.288 236.244 100.209 236.865 100.209ZM238.816 105.254L237.349 105.315C236.147 105.362 235.301 105.559 234.809 105.904C234.316 106.25 234.07 106.739 234.07 107.372C234.07 107.923 234.237 108.33 234.571 108.594C234.905 108.857 235.348 108.989 235.898 108.989C236.754 108.989 237.454 108.752 237.999 108.277C238.544 107.803 238.816 107.091 238.816 106.142V105.254ZM249.829 101.606H246.656V110H245.215V101.606H242.086V100.367H249.829V101.606ZM253.204 104.34H256.157C256.978 104.34 257.66 104.442 258.205 104.647C258.75 104.853 259.157 105.157 259.427 105.562C259.702 105.966 259.84 106.467 259.84 107.064C259.84 107.662 259.705 108.181 259.436 108.62C259.172 109.06 258.762 109.399 258.205 109.64C257.654 109.88 256.942 110 256.069 110H251.736V100.367H253.204V104.34ZM258.372 107.135C258.372 106.543 258.161 106.133 257.739 105.904C257.323 105.67 256.74 105.553 255.99 105.553H253.204V108.813H255.999C256.702 108.813 257.273 108.685 257.713 108.427C258.152 108.163 258.372 107.732 258.372 107.135ZM265.509 100.367H267.073L269.2 105.957C269.323 106.285 269.438 106.602 269.543 106.906C269.648 107.205 269.742 107.492 269.824 107.768C269.906 108.043 269.971 108.31 270.018 108.567H270.079C270.161 108.274 270.278 107.891 270.431 107.416C270.583 106.936 270.747 106.446 270.923 105.948L272.936 100.367H274.509L270.316 111.415C270.094 112.007 269.833 112.522 269.534 112.962C269.241 113.401 268.884 113.738 268.462 113.973C268.04 114.213 267.53 114.333 266.933 114.333C266.657 114.333 266.414 114.315 266.203 114.28C265.992 114.251 265.811 114.216 265.658 114.175V113.006C265.787 113.035 265.942 113.062 266.124 113.085C266.312 113.108 266.505 113.12 266.704 113.12C267.067 113.12 267.381 113.05 267.645 112.909C267.914 112.774 268.146 112.575 268.339 112.312C268.532 112.048 268.699 111.734 268.84 111.371L269.367 110.018L265.509 100.367ZM277.321 100.367V103.83C277.321 104.434 277.485 104.879 277.813 105.166C278.147 105.453 278.631 105.597 279.264 105.597C279.873 105.597 280.427 105.503 280.925 105.315C281.423 105.128 281.927 104.873 282.437 104.551V100.367H283.896V110H282.437V105.685C281.897 106.03 281.367 106.303 280.846 106.502C280.324 106.701 279.7 106.801 278.974 106.801C277.983 106.801 277.216 106.543 276.671 106.027C276.132 105.512 275.862 104.814 275.862 103.936V100.367H277.321ZM288.369 100.367V106.423C288.369 106.54 288.366 106.692 288.36 106.88C288.354 107.062 288.346 107.258 288.334 107.469C288.322 107.674 288.311 107.873 288.299 108.066C288.293 108.254 288.284 108.409 288.272 108.532L293.528 100.367H295.321V110H293.959V104.094C293.959 103.906 293.962 103.666 293.968 103.373C293.974 103.08 293.982 102.793 293.994 102.512C294.006 102.225 294.015 102.002 294.021 101.844L288.782 110H286.98V100.367H288.369ZM304.989 101.606H301.816V110H300.375V101.606H297.246V100.367H304.989V101.606ZM310.605 100.191C311.426 100.191 312.129 100.373 312.715 100.736C313.301 101.1 313.749 101.609 314.06 102.266C314.37 102.916 314.525 103.678 314.525 104.551V105.456H307.872C307.89 106.587 308.171 107.448 308.716 108.04C309.261 108.632 310.028 108.928 311.019 108.928C311.628 108.928 312.167 108.872 312.636 108.761C313.104 108.649 313.591 108.485 314.095 108.269V109.552C313.608 109.769 313.125 109.927 312.645 110.026C312.17 110.126 311.607 110.176 310.957 110.176C310.031 110.176 309.223 109.988 308.531 109.613C307.846 109.232 307.312 108.676 306.932 107.943C306.551 107.211 306.36 106.314 306.36 105.254C306.36 104.217 306.533 103.32 306.879 102.564C307.23 101.803 307.723 101.217 308.355 100.807C308.994 100.396 309.744 100.191 310.605 100.191ZM310.588 101.387C309.809 101.387 309.188 101.642 308.725 102.151C308.262 102.661 307.986 103.373 307.898 104.287H312.996C312.99 103.713 312.899 103.209 312.724 102.775C312.554 102.336 312.293 101.996 311.941 101.756C311.59 101.51 311.139 101.387 310.588 101.387ZM324.229 110H322.743V101.589H319.816C319.699 103.106 319.55 104.407 319.368 105.491C319.192 106.569 318.97 107.451 318.7 108.137C318.437 108.816 318.114 109.317 317.733 109.64C317.358 109.956 316.91 110.114 316.389 110.114C316.23 110.114 316.081 110.105 315.94 110.088C315.8 110.07 315.68 110.041 315.58 110V108.893C315.656 108.916 315.735 108.934 315.817 108.945C315.905 108.957 315.996 108.963 316.09 108.963C316.354 108.963 316.594 108.854 316.811 108.638C317.033 108.415 317.232 108.081 317.408 107.636C317.59 107.19 317.751 106.628 317.892 105.948C318.032 105.263 318.155 104.457 318.261 103.531C318.372 102.6 318.469 101.545 318.551 100.367H324.229V110ZM327.771 110H326.065L328.843 105.939C328.438 105.852 328.063 105.702 327.718 105.491C327.372 105.274 327.091 104.979 326.874 104.604C326.663 104.229 326.558 103.763 326.558 103.206C326.558 102.28 326.865 101.577 327.48 101.097C328.102 100.61 328.919 100.367 329.933 100.367H334.195V110H332.736V106.133H330.293L327.771 110ZM327.973 103.215C327.973 103.789 328.178 104.217 328.588 104.498C328.998 104.773 329.584 104.911 330.346 104.911H332.736V101.589H330.091C329.341 101.589 328.799 101.741 328.465 102.046C328.137 102.345 327.973 102.734 327.973 103.215Z" fill="#16578D"></path> </g> <defs> <filter id="filter0_d_332_493" x="0" y="0" width="468" height="157" filterUnits="userSpaceOnUse" color-interpolation-filters="sRGB"> <feFlood flood-opacity="0" result="BackgroundImageFix"></feFlood> <feColorMatrix in="SourceAlpha" type="matrix" values="0 0 0 0 0 0 0 0 0 0 0 0 0 0 0 0 0 0 127 0" result="hardAlpha"></feColorMatrix> <feOffset dy="4"></feOffset> <feGaussianBlur stdDeviation="2"></feGaussianBlur> <feComposite in2="hardAlpha" operator="out"></feComposite> <feColorMatrix type="matrix" values="0 0 0 0 0.690196 0 0 0 0 0.87451 0 0 0 0 0.886275 0 0 0 0.54 0"></feColorMatrix> <feBlend mode="normal" in2="BackgroundImageFix" result="effect1_dropShadow_332_493"></feBlend> <feBlend mode="normal" in="SourceGraphic" in2="effect1_dropShadow_332_493" result="shape"></feBlend> </filter> </defs> </svg> 