<?xml version="1.0" encoding="UTF-8"?> <svg xmlns="http://www.w3.org/2000/svg" width="968" height="99" viewBox="0 0 968 99" fill="none"> <g filter="url(#filter0_d_163_14627)"> <rect x="4" width="960" height="91" rx="45.5" fill="#D2B9FC"></rect> <path d="M201.938 25.8125H206.547L206.031 28.2188C207.115 27.3021 208.359 26.8438 209.766 26.8438C210.964 26.8438 211.891 27.2083 212.547 27.9375C213.297 28.7917 213.672 30.1094 213.672 31.8906C213.672 33.6094 213.453 35.224 213.016 36.7344C212.464 38.6615 211.661 40.1562 210.609 41.2188C209.318 42.5312 207.714 43.1875 205.797 43.1875C205.057 43.1875 204.448 43.0729 203.969 42.8438C203.604 42.6771 203.307 42.4115 203.078 42.0469L201.422 49.8438L196.594 51L201.938 25.8125ZM204.812 40.4062C205.844 40.4062 206.729 39.8802 207.469 38.8281C208.052 38.0052 208.521 36.849 208.875 35.3594C209.156 34.1615 209.297 32.974 209.297 31.7969C209.297 30.7448 209.104 29.9948 208.719 29.5469C208.469 29.276 208.125 29.1406 207.688 29.1406C207.302 29.1406 206.911 29.276 206.516 29.5469C206.12 29.8177 205.776 30.2083 205.484 30.7188L203.594 39.6719C203.667 39.8802 203.802 40.0573 204 40.2031C204.208 40.3385 204.479 40.4062 204.812 40.4062ZM218.812 43.1875C217.594 43.1875 216.609 42.8073 215.859 42.0469C214.984 41.151 214.547 39.8177 214.547 38.0469C214.547 37.2969 214.625 36.5052 214.781 35.6719C214.927 34.8385 215.146 34.0156 215.438 33.2031C216.104 31.3698 217.016 29.8906 218.172 28.7656C219.505 27.4844 221.042 26.8438 222.781 26.8438C223.646 26.8438 224.292 26.9948 224.719 27.2969C225.156 27.5885 225.375 27.9792 225.375 28.4688V28.7031L225.719 27H230.328L228.031 37.875C227.938 38.1875 227.891 38.5312 227.891 38.9062C227.891 39.8229 228.328 40.2812 229.203 40.2812C229.786 40.2812 230.318 39.9844 230.797 39.3906C231.203 38.8906 231.536 38.1823 231.797 37.2656H233.141C232.568 38.8906 231.875 40.1771 231.062 41.125C230.375 41.9062 229.599 42.4688 228.734 42.8125C228.099 43.0625 227.427 43.1875 226.719 43.1875C225.812 43.1875 225.089 42.9427 224.547 42.4531C224.016 41.9531 223.693 41.2188 223.578 40.25C222.974 41.1042 222.339 41.7708 221.672 42.25C220.818 42.875 219.865 43.1875 218.812 43.1875ZM220.891 40.0938C221.13 40.0938 221.38 40.0312 221.641 39.9062C221.911 39.7812 222.172 39.6042 222.422 39.375C222.984 38.8333 223.359 38.1302 223.547 37.2656L225.078 30.0469C225.078 29.9427 225.052 29.8229 225 29.6875C224.958 29.5417 224.896 29.4062 224.812 29.2812C224.562 28.9792 224.214 28.8281 223.766 28.8281C223.339 28.8281 222.922 28.9688 222.516 29.25C222.12 29.5312 221.745 29.9219 221.391 30.4219C220.766 31.3281 220.25 32.5104 219.844 33.9688C219.656 34.6146 219.516 35.2552 219.422 35.8906C219.328 36.5156 219.281 37.0833 219.281 37.5938C219.281 38.6562 219.479 39.375 219.875 39.75C220.01 39.8958 220.161 39.9896 220.328 40.0312C220.495 40.0729 220.682 40.0938 220.891 40.0938ZM237.188 51C236.177 51 235.339 50.7396 234.672 50.2188C234.339 49.9583 234.078 49.6302 233.891 49.2344C233.703 48.849 233.609 48.401 233.609 47.8906C233.609 46.724 234.146 45.7083 235.219 44.8438C236.042 44.1979 237.177 43.6458 238.625 43.1875C238.562 40.9271 237.797 39.7969 236.328 39.7969H235.328L235.75 37.875H236.672C237.234 37.875 237.76 37.7344 238.25 37.4531C238.74 37.1719 239.161 36.776 239.516 36.2656C239.859 35.7552 240.125 35.1667 240.312 34.5C240.51 33.8333 240.609 33.125 240.609 32.375C240.609 31.5938 240.49 30.9792 240.25 30.5312C239.927 29.9271 239.396 29.625 238.656 29.625C237.479 29.625 236.458 30.2083 235.594 31.375C234.646 32.6458 233.833 34.6094 233.156 37.2656H231.812C232.115 36.0885 232.385 35.0938 232.625 34.2812C232.865 33.4583 233.13 32.6927 233.422 31.9844C234.099 30.2969 234.943 29.026 235.953 28.1719C237.12 27.2031 238.599 26.7188 240.391 26.7188C241.151 26.7188 241.844 26.8333 242.469 27.0625C243.094 27.2812 243.625 27.6042 244.062 28.0312C244.979 28.9479 245.438 30.2031 245.438 31.7969C245.438 33.0573 245.104 34.2708 244.438 35.4375C243.906 36.375 243.208 37.1823 242.344 37.8594C241.979 38.1406 241.63 38.3698 241.297 38.5469C240.974 38.724 240.703 38.8333 240.484 38.875C241.005 39.0521 241.516 39.4167 242.016 39.9688C242.557 40.5833 242.922 41.2865 243.109 42.0781C243.703 41.9115 244.224 41.7083 244.672 41.4688C245.13 41.2292 245.542 40.9323 245.906 40.5781C246.281 40.2135 246.615 39.7656 246.906 39.2344C247.208 38.6927 247.49 38.0365 247.75 37.2656H249.094C248.531 39.1927 247.646 40.6875 246.438 41.75C245.562 42.5104 244.495 43.0469 243.234 43.3594C243.214 44.5573 243.052 45.6302 242.75 46.5781C242.458 47.526 242.047 48.3281 241.516 48.9844C240.984 49.6406 240.349 50.1406 239.609 50.4844C238.88 50.8281 238.073 51 237.188 51ZM236.453 48.5C236.672 48.5 236.896 48.401 237.125 48.2031C237.354 48.0052 237.562 47.7292 237.75 47.375C238.135 46.6562 238.396 45.776 238.531 44.7344C237.542 45.0885 236.807 45.4479 236.328 45.8125C235.682 46.3229 235.359 46.8698 235.359 47.4531C235.359 47.7656 235.453 48.0156 235.641 48.2031C235.828 48.401 236.099 48.5 236.453 48.5ZM252.609 43.125C250.859 43.125 249.516 42.5833 248.578 41.5C247.724 40.5104 247.297 39.1354 247.297 37.375C247.297 36.8021 247.365 36.099 247.5 35.2656C247.625 34.4219 247.807 33.5156 248.047 32.5469C248.568 30.4635 249.26 28.4271 250.125 26.4375C251.083 24.25 252.135 22.5 253.281 21.1875C254.573 19.7083 255.885 18.9688 257.219 18.9688C258.333 18.9688 259.188 19.3021 259.781 19.9688C260.417 20.6979 260.734 21.8281 260.734 23.3594C260.734 24.5677 260.438 25.9375 259.844 27.4688C259.396 28.625 258.823 29.8125 258.125 31.0312C258.573 31.25 258.974 31.5677 259.328 31.9844C260.255 31.9844 261.307 31.7656 262.484 31.3281C263.536 30.9531 264.438 30.5 265.188 29.9688L265.484 30.8438C264.891 31.4688 264.125 32.0104 263.188 32.4688C262.25 32.9167 261.208 33.2396 260.062 33.4375C260.177 33.8333 260.234 34.3646 260.234 35.0312C260.234 36.0938 260.062 37.1094 259.719 38.0781C259.375 39.0469 258.875 39.9062 258.219 40.6562C257.542 41.4375 256.724 42.0469 255.766 42.4844C254.818 42.9115 253.766 43.125 252.609 43.125ZM254.016 40.25C254.516 40.25 254.974 40.1198 255.391 39.8594C255.807 39.599 256.161 39.2396 256.453 38.7812C256.734 38.3542 256.948 37.8802 257.094 37.3594C257.24 36.8281 257.312 36.2969 257.312 35.7656C257.312 34.974 257.219 34.3906 257.031 34.0156C256.823 34.0885 256.646 34.1406 256.5 34.1719C256.365 34.1927 256.156 34.2031 255.875 34.2031C255.365 34.2031 254.958 34.0625 254.656 33.7812C254.365 33.5 254.219 33.1146 254.219 32.625C254.219 31.9896 254.432 31.5104 254.859 31.1875C255.203 30.9271 255.734 30.7708 256.453 30.7188C257.026 29.6875 257.542 28.474 258 27.0781C258.458 25.651 258.688 24.3646 258.688 23.2188C258.688 22.5729 258.604 22.1198 258.438 21.8594C258.281 21.599 258.016 21.4688 257.641 21.4688C257.307 21.4688 256.969 21.6458 256.625 22C256.281 22.3542 255.943 22.849 255.609 23.4844C255.005 24.6615 254.411 26.2292 253.828 28.1875C253.328 29.8438 252.901 31.625 252.547 33.5312C252.224 35.2396 252.062 36.5521 252.062 37.4688C252.062 38.3333 252.214 39 252.516 39.4688C252.839 39.9896 253.339 40.25 254.016 40.25ZM265.297 43.1875C264.276 43.1875 263.469 42.8854 262.875 42.2812C262.208 41.6146 261.875 40.6406 261.875 39.3594C261.875 38.7552 261.958 38.0573 262.125 37.2656L264.297 27H268.906L266.609 37.875C266.547 38.1979 266.516 38.5 266.516 38.7812C266.516 39.6562 266.833 40.0938 267.469 40.0938C268.052 40.0938 268.578 39.8281 269.047 39.2969C269.422 38.849 269.75 38.1719 270.031 37.2656L272.203 27H276.812L274.516 37.875C274.422 38.1875 274.375 38.5312 274.375 38.9062C274.375 39.3438 274.479 39.651 274.688 39.8281C274.896 40.0052 275.229 40.0938 275.688 40.0938C276.281 40.0938 276.812 39.8281 277.281 39.2969C277.698 38.8281 278.031 38.151 278.281 37.2656H279.625C279.052 38.8906 278.359 40.1771 277.547 41.125C276.859 41.9062 276.083 42.4688 275.219 42.8125C274.583 43.0625 273.911 43.1875 273.203 43.1875C272.286 43.1875 271.557 42.9323 271.016 42.4219C270.474 41.9115 270.146 41.1562 270.031 40.1562C269.302 41.3229 268.479 42.1562 267.562 42.6562C266.906 43.0104 266.151 43.1875 265.297 43.1875ZM297.734 43.1875C296.411 43.1875 295.432 42.8125 294.797 42.0625C294.245 41.4167 293.969 40.5885 293.969 39.5781C293.969 39.099 294.026 38.5417 294.141 37.9062C294.266 37.2708 294.448 36.4531 294.688 35.4531C294.927 34.4323 295.104 33.6198 295.219 33.0156C295.344 32.401 295.406 31.8698 295.406 31.4219C295.406 30.3281 295.021 29.7812 294.25 29.7812C293.708 29.7812 293.208 30.0677 292.75 30.6406C292.365 31.1302 292.031 31.8281 291.75 32.7344L289.578 43H284.969L287.312 31.9531C287.375 31.7031 287.406 31.4375 287.406 31.1562C287.406 30.7292 287.339 30.401 287.203 30.1719C287.026 29.8906 286.771 29.75 286.438 29.75C285.833 29.75 285.307 30.0417 284.859 30.625C284.464 31.125 284.125 31.8281 283.844 32.7344L281.672 43H277.062L280.453 27H285.062L284.719 28.6562C285.344 27.9583 286.026 27.4635 286.766 27.1719C287.349 26.9531 287.969 26.8438 288.625 26.8438C289.521 26.8438 290.234 27.0521 290.766 27.4688C291.359 27.9375 291.74 28.6458 291.906 29.5938C292.594 28.5312 293.385 27.7812 294.281 27.3438C294.917 27.0312 295.609 26.875 296.359 26.875C297.432 26.875 298.281 27.1562 298.906 27.7188C299.573 28.3333 299.906 29.2552 299.906 30.4844C299.906 31.1823 299.776 32.1458 299.516 33.375C299.411 33.8854 299.286 34.401 299.141 34.9219C298.88 35.9219 298.667 36.8438 298.5 37.6875C298.417 38.125 298.375 38.4792 298.375 38.75C298.375 39.1771 298.469 39.5104 298.656 39.75C298.854 39.9792 299.188 40.0938 299.656 40.0938C300.292 40.0938 300.828 39.8333 301.266 39.3125C301.599 38.9167 301.958 38.2344 302.344 37.2656H303.688C302.896 39.6094 301.896 41.25 300.688 42.1875C299.833 42.8542 298.849 43.1875 297.734 43.1875ZM305.516 43.1875C304.495 43.1875 303.688 42.8854 303.094 42.2812C302.427 41.6146 302.094 40.6406 302.094 39.3594C302.094 38.7552 302.177 38.0573 302.344 37.2656L304.516 27H309.125L306.828 37.875C306.766 38.1979 306.734 38.5 306.734 38.7812C306.734 39.6562 307.052 40.0938 307.688 40.0938C308.271 40.0938 308.797 39.8281 309.266 39.2969C309.641 38.849 309.969 38.1719 310.25 37.2656L312.422 27H317.031L314.734 37.875C314.641 38.1875 314.594 38.5312 314.594 38.9062C314.594 39.3438 314.698 39.651 314.906 39.8281C315.115 40.0052 315.448 40.0938 315.906 40.0938C316.5 40.0938 317.031 39.8281 317.5 39.2969C317.917 38.8281 318.25 38.151 318.5 37.2656H319.844C319.271 38.8906 318.578 40.1771 317.766 41.125C317.078 41.9062 316.302 42.4688 315.438 42.8125C314.802 43.0625 314.13 43.1875 313.422 43.1875C312.505 43.1875 311.776 42.9323 311.234 42.4219C310.693 41.9115 310.365 41.1562 310.25 40.1562C309.521 41.3229 308.698 42.1562 307.781 42.6562C307.125 43.0104 306.37 43.1875 305.516 43.1875ZM323.078 43.1875C321.505 43.1875 320.292 42.7917 319.438 42C318.531 41.1562 318.078 39.8594 318.078 38.1094C318.078 37.4531 318.146 36.724 318.281 35.9219C318.406 35.1198 318.599 34.3177 318.859 33.5156C319.151 32.6198 319.521 31.7708 319.969 30.9688C320.427 30.1667 320.958 29.4583 321.562 28.8438C322.958 27.4271 324.677 26.7188 326.719 26.7188C328.021 26.7188 328.969 27.0312 329.562 27.6562C330.021 28.1458 330.25 28.8542 330.25 29.7812C330.25 30.6875 330.052 31.5417 329.656 32.3438C329.26 33.1354 328.714 33.8385 328.016 34.4531C327.318 35.0573 326.526 35.5417 325.641 35.9062C324.755 36.2604 323.839 36.4688 322.891 36.5312C322.839 37.0729 322.812 37.5 322.812 37.8125C322.812 38.8542 323.01 39.5729 323.406 39.9688C323.75 40.3229 324.323 40.5 325.125 40.5C326.281 40.5 327.339 40.1875 328.297 39.5625C328.703 39.3021 329.094 38.9948 329.469 38.6406C329.844 38.276 330.281 37.8177 330.781 37.2656H331.875C330.865 38.974 329.703 40.3333 328.391 41.3438C326.776 42.5729 325.005 43.1875 323.078 43.1875ZM323.141 35C323.734 34.9583 324.312 34.7865 324.875 34.4844C325.438 34.1823 325.938 33.7865 326.375 33.2969C326.812 32.7969 327.156 32.2396 327.406 31.625C327.656 31 327.781 30.3646 327.781 29.7188C327.781 29.2917 327.719 28.9688 327.594 28.75C327.479 28.5208 327.276 28.4062 326.984 28.4062C326.599 28.4062 326.208 28.5938 325.812 28.9688C325.427 29.3438 325.052 29.8594 324.688 30.5156C324.354 31.1302 324.052 31.8281 323.781 32.6094C323.51 33.3906 323.297 34.1875 323.141 35ZM340.016 43.1875C338.849 43.1875 337.953 42.8073 337.328 42.0469C337.057 41.724 336.854 41.349 336.719 40.9219C336.573 40.4844 336.5 40.0365 336.5 39.5781C336.5 38.8177 336.677 38.2031 337.031 37.7344C337.385 37.2552 337.87 37.0156 338.484 37.0156C338.984 37.0156 339.385 37.1719 339.688 37.4844C340 37.7865 340.156 38.1875 340.156 38.6875C340.156 39.1458 340.047 39.5104 339.828 39.7812C339.62 40.0417 339.359 40.1719 339.047 40.1719C338.974 40.1719 338.917 40.1667 338.875 40.1562C338.896 40.4479 338.984 40.6719 339.141 40.8281C339.349 41.0573 339.677 41.1719 340.125 41.1719C340.625 41.1719 341.036 41.0104 341.359 40.6875C341.682 40.3646 341.958 39.8958 342.188 39.2812C342.406 38.6562 342.589 37.9896 342.734 37.2812C342.839 36.6875 342.964 36.0781 343.109 35.4531L343.219 34.9375C343.552 33.3021 343.922 31.9635 344.328 30.9219C344.745 29.8802 345.214 29.0625 345.734 28.4688C346.203 27.9167 346.729 27.5365 347.312 27.3281C347.906 27.1094 348.589 27 349.359 27H354.078L352.375 34.9375L351.812 37.4062C351.677 38.0104 351.609 38.4583 351.609 38.75C351.609 39.6458 352.036 40.0938 352.891 40.0938C353.203 40.0938 353.479 40.0417 353.719 39.9375C353.958 39.8229 354.182 39.6458 354.391 39.4062C354.578 39.1875 354.76 38.9115 354.938 38.5781C355.125 38.2448 355.339 37.8073 355.578 37.2656H356.922C355.578 41.2135 353.594 43.1875 350.969 43.1875C349.75 43.1875 348.797 42.8438 348.109 42.1562C347.807 41.8542 347.578 41.5 347.422 41.0938C347.266 40.6771 347.188 40.2448 347.188 39.7969C347.188 38.901 347.422 37.4531 347.891 35.4531L349.297 29.1094C348.734 29.1094 348.255 29.224 347.859 29.4531C347.464 29.6823 347.115 30.0417 346.812 30.5312C346.521 31 346.255 31.6094 346.016 32.3594C345.776 33.1094 345.526 34.0729 345.266 35.25L345.203 35.5625C344.88 37.0729 344.604 38.2344 344.375 39.0469C344.156 39.8594 343.891 40.5521 343.578 41.125C343.193 41.8229 342.714 42.3438 342.141 42.6875C341.578 43.0208 340.87 43.1875 340.016 43.1875ZM360.266 43.125C358.682 43.125 357.458 42.7396 356.594 41.9688C355.625 41.1146 355.141 39.8177 355.141 38.0781C355.141 37.4219 355.208 36.6979 355.344 35.9062C355.479 35.1042 355.688 34.2969 355.969 33.4844C356.615 31.5469 357.536 30 358.734 28.8438C360.182 27.4271 361.906 26.7188 363.906 26.7188C366.646 26.7188 368.016 28.4219 368.016 31.8281V31.8594C368.078 31.8802 368.13 31.8906 368.172 31.8906H368.359C369.068 31.8906 369.906 31.6927 370.875 31.2969C371.729 30.9427 372.536 30.5 373.297 29.9688L373.578 30.8438C372.953 31.5 372.146 32.0573 371.156 32.5156C370.177 32.974 369.094 33.3021 367.906 33.5C367.781 34.9479 367.5 36.2708 367.062 37.4688C366.625 38.6562 366.062 39.6771 365.375 40.5312C364.698 41.3646 363.922 42.0052 363.047 42.4531C362.172 42.901 361.245 43.125 360.266 43.125ZM361.547 40.25C361.922 40.25 362.302 40.0833 362.688 39.75C363.083 39.4062 363.453 38.9323 363.797 38.3281C364.141 37.724 364.438 37.0156 364.688 36.2031C364.938 35.3906 365.125 34.5208 365.25 33.5938C364.938 33.5104 364.714 33.3542 364.578 33.125C364.453 32.8958 364.391 32.6042 364.391 32.25C364.391 31.8125 364.479 31.4479 364.656 31.1562C364.833 30.8646 365.078 30.651 365.391 30.5156C365.349 29.8385 365.24 29.3542 365.062 29.0625C364.969 28.9167 364.849 28.8125 364.703 28.75C364.568 28.6875 364.391 28.6562 364.172 28.6562C363.453 28.6562 362.75 29.1979 362.062 30.2812C361.427 31.2604 360.906 32.4688 360.5 33.9062C360.104 35.3125 359.906 36.5625 359.906 37.6562C359.906 38.1875 359.932 38.6198 359.984 38.9531C360.047 39.2865 360.146 39.5469 360.281 39.7344C360.406 39.9219 360.568 40.0573 360.766 40.1406C360.964 40.2135 361.224 40.25 361.547 40.25ZM373.938 43.1875C372.385 43.1875 371.182 42.901 370.328 42.3281C369.432 41.7344 368.984 40.8177 368.984 39.5781C368.984 38.5052 369.339 37.5625 370.047 36.75C370.328 36.4167 370.656 36.1042 371.031 35.8125C371.417 35.5208 371.865 35.2188 372.375 34.9062C373.021 34.5104 373.5 34.2083 373.812 34C374.135 33.7812 374.438 33.5417 374.719 33.2812C375.052 32.9583 375.307 32.625 375.484 32.2812C375.672 31.9375 375.766 31.5521 375.766 31.125C375.766 30.6458 375.641 30.276 375.391 30.0156C375.151 29.7552 374.786 29.625 374.297 29.625C373.599 29.625 372.969 29.8906 372.406 30.4219C371.854 30.9531 371.333 31.7969 370.844 32.9531H369.297C369.995 30.9635 370.849 29.4688 371.859 28.4688C373.026 27.3021 374.5 26.7188 376.281 26.7188C376.865 26.7188 377.411 26.7917 377.922 26.9375C378.443 27.0729 378.901 27.2812 379.297 27.5625C379.714 27.8646 380.031 28.25 380.25 28.7188C380.479 29.1771 380.594 29.7135 380.594 30.3281C380.594 31.151 380.438 31.875 380.125 32.5C379.823 33.1146 379.396 33.6771 378.844 34.1875C378.354 34.6354 377.812 35.0417 377.219 35.4062C376.5 35.8438 375.917 36.2188 375.469 36.5312C375.021 36.8333 374.646 37.1562 374.344 37.5C374.01 37.8854 373.844 38.3229 373.844 38.8125C373.844 39.4062 374.042 39.8385 374.438 40.1094C374.833 40.3698 375.396 40.5 376.125 40.5C377.104 40.5 378.005 40.2604 378.828 39.7812C379.724 39.2812 380.667 38.4427 381.656 37.2656H382.75C381.604 39.099 380.391 40.4896 379.109 41.4375C377.557 42.6042 375.833 43.1875 373.938 43.1875ZM384.828 43.1875C383.807 43.1875 383 42.8854 382.406 42.2812C381.74 41.6146 381.406 40.6406 381.406 39.3594C381.406 38.7552 381.49 38.0573 381.656 37.2656L383.828 27H388.438L386.141 37.875C386.078 38.1979 386.047 38.5 386.047 38.7812C386.047 39.6562 386.365 40.0938 387 40.0938C387.583 40.0938 388.109 39.8281 388.578 39.2969C388.953 38.849 389.281 38.1719 389.562 37.2656L391.734 27H396.344L394.047 37.875C393.953 38.1875 393.906 38.5312 393.906 38.9062C393.906 39.3438 394.01 39.651 394.219 39.8281C394.427 40.0052 394.76 40.0938 395.219 40.0938C395.812 40.0938 396.344 39.8281 396.812 39.2969C397.229 38.8281 397.562 38.151 397.812 37.2656H399.156C398.583 38.8906 397.891 40.1771 397.078 41.125C396.391 41.9062 395.615 42.4688 394.75 42.8125C394.115 43.0625 393.443 43.1875 392.734 43.1875C391.818 43.1875 391.089 42.9323 390.547 42.4219C390.005 41.9115 389.677 41.1562 389.562 40.1562C388.833 41.3229 388.01 42.1562 387.094 42.6562C386.438 43.0104 385.682 43.1875 384.828 43.1875ZM409.359 43.1875C408.089 43.1875 407.125 42.875 406.469 42.25C405.823 41.625 405.5 40.7552 405.5 39.6406C405.5 39.276 405.562 38.7292 405.688 38C405.708 37.8333 405.729 37.7188 405.75 37.6562C405.771 37.4479 405.792 37.3073 405.812 37.2344C405.854 37.026 405.875 36.8125 405.875 36.5938C405.875 35.5729 405.469 35.0625 404.656 35.0625C404.385 35.0625 404.094 35.1562 403.781 35.3438L403.266 35.7188L402.609 36.25L401.203 43H396.594L400.016 27H404.625L403.25 33.3438C403.938 32.6562 404.604 31.9635 405.25 31.2656L405.484 31C406.724 29.6667 407.568 28.776 408.016 28.3281C408.755 27.5885 409.453 27.1094 410.109 26.8906C410.474 26.776 410.854 26.7188 411.25 26.7188C411.969 26.7188 412.516 26.9167 412.891 27.3125C413.266 27.6979 413.453 28.2031 413.453 28.8281C413.453 29.4844 413.276 29.9948 412.922 30.3594C412.578 30.724 412.083 30.9062 411.438 30.9062C410.844 30.9062 410.391 30.724 410.078 30.3594C409.797 30.0469 409.667 29.6823 409.688 29.2656C409.354 29.4635 409.036 29.6979 408.734 29.9688C408.443 30.2292 408.12 30.5417 407.766 30.9062L407.453 31.25C407.307 31.3958 407.109 31.6146 406.859 31.9062C406.599 32.2083 406.281 32.5469 405.906 32.9219C406.271 32.8385 406.719 32.7969 407.25 32.7969C408.354 32.7969 409.151 33.0521 409.641 33.5625C410.078 34.0104 410.297 34.7448 410.297 35.7656C410.297 36.1094 410.234 36.6146 410.109 37.2812C410.057 37.5417 410.01 37.8177 409.969 38.1094C409.927 38.3906 409.906 38.6562 409.906 38.9062C409.906 39.6979 410.333 40.0938 411.188 40.0938C411.51 40.0938 411.786 40.0417 412.016 39.9375C412.255 39.8229 412.474 39.6458 412.672 39.4062C412.859 39.1875 413.042 38.9115 413.219 38.5781C413.396 38.2448 413.604 37.8073 413.844 37.2656H415.188C413.844 41.2135 411.901 43.1875 409.359 43.1875ZM417.016 43.1875C415.995 43.1875 415.188 42.8854 414.594 42.2812C413.927 41.6146 413.594 40.6406 413.594 39.3594C413.594 38.7552 413.677 38.0573 413.844 37.2656L416.016 27H420.625L418.328 37.875C418.266 38.1979 418.234 38.5 418.234 38.7812C418.234 39.6562 418.552 40.0938 419.188 40.0938C419.771 40.0938 420.297 39.8281 420.766 39.2969C421.141 38.849 421.469 38.1719 421.75 37.2656L423.922 27H428.531L426.234 37.875C426.141 38.1875 426.094 38.5312 426.094 38.9062C426.094 39.3438 426.198 39.651 426.406 39.8281C426.615 40.0052 426.948 40.0938 427.406 40.0938C428 40.0938 428.531 39.8281 429 39.2969C429.417 38.8281 429.75 38.151 430 37.2656H431.344C430.771 38.8906 430.078 40.1771 429.266 41.125C428.578 41.9062 427.802 42.4688 426.938 42.8125C426.302 43.0625 425.63 43.1875 424.922 43.1875C424.005 43.1875 423.276 42.9323 422.734 42.4219C422.193 41.9115 421.865 41.1562 421.75 40.1562C421.021 41.3229 420.198 42.1562 419.281 42.6562C418.625 43.0104 417.87 43.1875 417.016 43.1875ZM431.312 47.0312C431.125 46.9062 431.031 46.724 431.031 46.4844C431.031 46.2344 431.099 46 431.234 45.7812C431.38 45.5729 431.589 45.3281 431.859 45.0469C432.141 44.7552 432.349 44.5052 432.484 44.2969C432.62 44.0885 432.688 43.849 432.688 43.5781C432.688 43.3281 432.547 43.1146 432.266 42.9375C431.266 42.3125 430.766 41.5312 430.766 40.5938C430.766 40.25 430.828 39.9219 430.953 39.6094C431.089 39.2969 431.271 39.026 431.5 38.7969C431.729 38.5677 432 38.3854 432.312 38.25C432.625 38.1146 432.953 38.0469 433.297 38.0469C433.995 38.0469 434.531 38.2708 434.906 38.7188C435.281 39.1562 435.469 39.7396 435.469 40.4688C435.469 40.9375 435.375 41.4635 435.188 42.0469C435 42.6198 434.729 43.1979 434.375 43.7812C434.01 44.3958 433.568 44.9792 433.047 45.5312C432.526 46.0938 431.948 46.5938 431.312 47.0312ZM455.391 43.1875C454.068 43.1875 453.089 42.8125 452.453 42.0625C451.901 41.4167 451.625 40.5885 451.625 39.5781C451.625 39.099 451.682 38.5417 451.797 37.9062C451.922 37.2708 452.104 36.4531 452.344 35.4531C452.583 34.4323 452.76 33.6198 452.875 33.0156C453 32.401 453.062 31.8698 453.062 31.4219C453.062 30.3281 452.677 29.7812 451.906 29.7812C451.365 29.7812 450.865 30.0677 450.406 30.6406C450.021 31.1302 449.688 31.8281 449.406 32.7344L447.234 43H442.625L446.016 27H450.625L450.281 28.6562C450.906 27.9583 451.578 27.4688 452.297 27.1875C452.828 26.9792 453.401 26.875 454.016 26.875C455.099 26.875 455.953 27.1562 456.578 27.7188C457.245 28.3333 457.578 29.2552 457.578 30.4844C457.578 31.224 457.443 32.1875 457.172 33.375C457.099 33.7188 456.979 34.2344 456.812 34.9219C456.51 36.0781 456.292 37 456.156 37.6875C456.073 38.125 456.031 38.4792 456.031 38.75C456.031 39.1771 456.125 39.5104 456.312 39.75C456.51 39.9792 456.844 40.0938 457.312 40.0938C457.948 40.0938 458.484 39.8333 458.922 39.3125C459.255 38.9167 459.615 38.2344 460 37.2656H461.344C460.552 39.6094 459.552 41.25 458.344 42.1875C457.49 42.8542 456.505 43.1875 455.391 43.1875ZM463.844 43.1875C462.625 43.1875 461.641 42.8073 460.891 42.0469C460.016 41.151 459.578 39.8177 459.578 38.0469C459.578 37.2969 459.656 36.5052 459.812 35.6719C459.958 34.8385 460.177 34.0156 460.469 33.2031C461.135 31.3698 462.047 29.8906 463.203 28.7656C464.536 27.4844 466.073 26.8438 467.812 26.8438C468.677 26.8438 469.323 26.9948 469.75 27.2969C470.188 27.5885 470.406 27.9792 470.406 28.4688V28.7031L470.75 27H475.359L473.062 37.875C472.969 38.1875 472.922 38.5312 472.922 38.9062C472.922 39.8229 473.359 40.2812 474.234 40.2812C474.818 40.2812 475.349 39.9844 475.828 39.3906C476.234 38.8906 476.568 38.1823 476.828 37.2656H478.172C477.599 38.8906 476.906 40.1771 476.094 41.125C475.406 41.9062 474.63 42.4688 473.766 42.8125C473.13 43.0625 472.458 43.1875 471.75 43.1875C470.844 43.1875 470.12 42.9427 469.578 42.4531C469.047 41.9531 468.724 41.2188 468.609 40.25C468.005 41.1042 467.37 41.7708 466.703 42.25C465.849 42.875 464.896 43.1875 463.844 43.1875ZM465.922 40.0938C466.161 40.0938 466.411 40.0312 466.672 39.9062C466.943 39.7812 467.203 39.6042 467.453 39.375C468.016 38.8333 468.391 38.1302 468.578 37.2656L470.109 30.0469C470.109 29.9427 470.083 29.8229 470.031 29.6875C469.99 29.5417 469.927 29.4062 469.844 29.2812C469.594 28.9792 469.245 28.8281 468.797 28.8281C468.37 28.8281 467.953 28.9688 467.547 29.25C467.151 29.5312 466.776 29.9219 466.422 30.4219C465.797 31.3281 465.281 32.5104 464.875 33.9688C464.688 34.6146 464.547 35.2552 464.453 35.8906C464.359 36.5156 464.312 37.0833 464.312 37.5938C464.312 38.6562 464.51 39.375 464.906 39.75C465.042 39.8958 465.193 39.9896 465.359 40.0312C465.526 40.0729 465.714 40.0938 465.922 40.0938ZM479.141 43.1875C478.568 43.1875 478.057 43.0833 477.609 42.875C477.161 42.6562 476.786 42.3594 476.484 41.9844C476.203 41.6406 475.99 41.2552 475.844 40.8281C475.698 40.3906 475.625 39.9531 475.625 39.5156C475.625 38.7656 475.802 38.1771 476.156 37.75C476.5 37.3229 476.984 37.1094 477.609 37.1094C478.109 37.1094 478.51 37.2656 478.812 37.5781C479.125 37.8802 479.281 38.2812 479.281 38.7812C479.281 39.2396 479.172 39.6042 478.953 39.875C478.745 40.1354 478.484 40.2656 478.172 40.2656C478.099 40.2656 478.042 40.2604 478 40.25C477.979 40.5625 478.052 40.8229 478.219 41.0312C478.438 41.3229 478.781 41.4688 479.25 41.4688C479.792 41.4688 480.245 41.2969 480.609 40.9531C480.974 40.599 481.276 40.0938 481.516 39.4375C481.734 38.8125 481.922 38.1146 482.078 37.3438C482.214 36.6042 482.37 35.8021 482.547 34.9375L484.234 27H488.719L489.391 39.2812L495.344 27H500.078L498.375 34.9375L497.812 37.4062C497.677 38.0104 497.609 38.4583 497.609 38.75C497.609 39.6458 498.036 40.0938 498.891 40.0938C499.214 40.0938 499.495 40.0417 499.734 39.9375C499.974 39.8229 500.198 39.6458 500.406 39.4062C500.594 39.1875 500.771 38.9167 500.938 38.5938C501.115 38.2708 501.328 37.8281 501.578 37.2656H502.922C501.578 41.2135 499.594 43.1875 496.969 43.1875C495.74 43.1875 494.792 42.8438 494.125 42.1562C493.823 41.8542 493.594 41.5 493.438 41.0938C493.281 40.6771 493.203 40.2448 493.203 39.7969C493.203 38.8906 493.427 37.474 493.875 35.5469L494.375 33.2656L489.641 43H485.156L484.594 33.2344L484.172 35.25C483.87 36.7604 483.599 37.9635 483.359 38.8594C483.12 39.7552 482.839 40.5104 482.516 41.125C482.151 41.8125 481.698 42.3281 481.156 42.6719C480.625 43.0156 479.953 43.1875 479.141 43.1875ZM503.969 43.1875C502.833 43.1875 501.938 42.8229 501.281 42.0938C500.99 41.7708 500.766 41.3906 500.609 40.9531C500.453 40.5156 500.375 40.0573 500.375 39.5781C500.375 38.8177 500.552 38.2031 500.906 37.7344C501.26 37.2552 501.745 37.0156 502.359 37.0156C502.859 37.0156 503.26 37.1719 503.562 37.4844C503.875 37.7865 504.031 38.1875 504.031 38.6875C504.031 39.1458 503.922 39.5104 503.703 39.7812C503.495 40.0417 503.234 40.1719 502.922 40.1719C502.849 40.1719 502.792 40.1667 502.75 40.1562C502.771 40.4375 502.865 40.6615 503.031 40.8281C503.24 41.0573 503.562 41.1719 504 41.1719C504.365 41.1719 504.682 41.0625 504.953 40.8438C505.224 40.6146 505.464 40.2812 505.672 39.8438C505.859 39.4375 506.036 38.9479 506.203 38.375C506.37 37.7917 506.542 37.0833 506.719 36.25C505.781 36.0521 505.052 35.6562 504.531 35.0625C503.958 34.4062 503.672 33.5625 503.672 32.5312C503.672 30.8854 504.281 29.5885 505.5 28.6406C506.917 27.5469 509.115 27 512.094 27H516.953L515.25 34.9375L514.688 37.4062C514.552 38.0104 514.484 38.4583 514.484 38.75C514.484 39.6458 514.911 40.0938 515.766 40.0938C516.089 40.0938 516.37 40.0417 516.609 39.9375C516.849 39.8229 517.073 39.6458 517.281 39.4062C517.469 39.1875 517.646 38.9167 517.812 38.5938C517.99 38.2708 518.203 37.8281 518.453 37.2656H519.797C518.453 41.2135 516.469 43.1875 513.844 43.1875C512.615 43.1875 511.667 42.8438 511 42.1562C510.698 41.8542 510.469 41.5 510.312 41.0938C510.156 40.6771 510.078 40.2448 510.078 39.7969C510.078 39.4948 510.109 39.1302 510.172 38.7031C510.234 38.2969 510.396 37.4688 510.656 36.2188C510.083 36.3438 509.484 36.4062 508.859 36.4062C508.568 37.6354 508.292 38.6458 508.031 39.4375C507.781 40.2292 507.49 40.8906 507.156 41.4219C506.792 42.0156 506.349 42.4583 505.828 42.75C505.318 43.0417 504.698 43.1875 503.969 43.1875ZM510.531 34.9062H510.609C510.682 34.9062 510.792 34.8854 510.938 34.8438L512.281 28.7344H511.516C510.276 28.7344 509.328 29.0781 508.672 29.7656C508.349 30.0885 508.104 30.4792 507.938 30.9375C507.781 31.3958 507.703 31.8958 507.703 32.4375C507.703 33.3333 507.927 33.9792 508.375 34.375C508.76 34.7292 509.307 34.9062 510.016 34.9062H510.531ZM537.922 43.1875C536.599 43.1875 535.62 42.8125 534.984 42.0625C534.432 41.4167 534.156 40.5885 534.156 39.5781C534.156 39.099 534.214 38.5417 534.328 37.9062C534.453 37.2708 534.635 36.4531 534.875 35.4531C535.115 34.4323 535.292 33.6198 535.406 33.0156C535.531 32.401 535.594 31.8698 535.594 31.4219C535.594 30.3281 535.208 29.7812 534.438 29.7812C533.896 29.7812 533.396 30.0677 532.938 30.6406C532.552 31.1302 532.219 31.8281 531.938 32.7344L529.766 43H525.156L527.5 31.9531C527.562 31.7031 527.594 31.4375 527.594 31.1562C527.594 30.7292 527.526 30.401 527.391 30.1719C527.214 29.8906 526.958 29.75 526.625 29.75C526.021 29.75 525.495 30.0417 525.047 30.625C524.651 31.125 524.312 31.8281 524.031 32.7344L521.859 43H517.25L520.641 27H525.25L524.906 28.6562C525.531 27.9583 526.214 27.4635 526.953 27.1719C527.536 26.9531 528.156 26.8438 528.812 26.8438C529.708 26.8438 530.422 27.0521 530.953 27.4688C531.547 27.9375 531.927 28.6458 532.094 29.5938C532.781 28.5312 533.573 27.7812 534.469 27.3438C535.104 27.0312 535.797 26.875 536.547 26.875C537.62 26.875 538.469 27.1562 539.094 27.7188C539.76 28.3333 540.094 29.2552 540.094 30.4844C540.094 31.1823 539.964 32.1458 539.703 33.375C539.599 33.8854 539.474 34.401 539.328 34.9219C539.068 35.9219 538.854 36.8438 538.688 37.6875C538.604 38.125 538.562 38.4792 538.562 38.75C538.562 39.1771 538.656 39.5104 538.844 39.75C539.042 39.9792 539.375 40.0938 539.844 40.0938C540.479 40.0938 541.016 39.8333 541.453 39.3125C541.786 38.9167 542.146 38.2344 542.531 37.2656H543.875C543.083 39.6094 542.083 41.25 540.875 42.1875C540.021 42.8542 539.036 43.1875 537.922 43.1875ZM545.703 43.1875C544.682 43.1875 543.875 42.8854 543.281 42.2812C542.615 41.6146 542.281 40.6406 542.281 39.3594C542.281 38.7552 542.365 38.0573 542.531 37.2656L544.703 27H549.312L547.016 37.875C546.953 38.1979 546.922 38.5 546.922 38.7812C546.922 39.6562 547.24 40.0938 547.875 40.0938C548.458 40.0938 548.984 39.8281 549.453 39.2969C549.828 38.849 550.156 38.1719 550.438 37.2656L552.609 27H557.219L554.922 37.875C554.828 38.1875 554.781 38.5312 554.781 38.9062C554.781 39.3438 554.885 39.651 555.094 39.8281C555.302 40.0052 555.635 40.0938 556.094 40.0938C556.688 40.0938 557.219 39.8281 557.688 39.2969C558.104 38.8281 558.438 38.151 558.688 37.2656H560.031C559.458 38.8906 558.766 40.1771 557.953 41.125C557.266 41.9062 556.49 42.4688 555.625 42.8125C554.99 43.0625 554.318 43.1875 553.609 43.1875C552.693 43.1875 551.964 42.9323 551.422 42.4219C550.88 41.9115 550.552 41.1562 550.438 40.1562C549.708 41.3229 548.885 42.1562 547.969 42.6562C547.312 43.0104 546.557 43.1875 545.703 43.1875ZM568.797 43.1875C567.776 43.1875 566.969 42.8854 566.375 42.2812C565.708 41.6146 565.375 40.6406 565.375 39.3594C565.375 38.7552 565.458 38.0573 565.625 37.2656L567.797 27H572.406L570.109 37.875C570.047 38.1979 570.016 38.5 570.016 38.7812C570.016 39.6562 570.333 40.0938 570.969 40.0938C571.552 40.0938 572.078 39.8281 572.547 39.2969C572.922 38.849 573.25 38.1719 573.531 37.2656L575.703 27H580.312L578.016 37.875C577.922 38.1875 577.875 38.5312 577.875 38.9062C577.875 39.3438 577.979 39.651 578.188 39.8281C578.396 40.0052 578.729 40.0938 579.188 40.0938C579.781 40.0938 580.312 39.8281 580.781 39.2969C581.198 38.8281 581.531 38.151 581.781 37.2656H583.125C582.552 38.8906 581.859 40.1771 581.047 41.125C580.359 41.9062 579.583 42.4688 578.719 42.8125C578.083 43.0625 577.411 43.1875 576.703 43.1875C575.786 43.1875 575.057 42.9323 574.516 42.4219C573.974 41.9115 573.646 41.1562 573.531 40.1562C572.802 41.3229 571.979 42.1562 571.062 42.6562C570.406 43.0104 569.651 43.1875 568.797 43.1875ZM591.016 43.1875C590.443 43.1875 589.932 43.0833 589.484 42.875C589.036 42.6562 588.661 42.3594 588.359 41.9844C588.078 41.6406 587.865 41.2552 587.719 40.8281C587.573 40.3906 587.5 39.9531 587.5 39.5156C587.5 38.7656 587.677 38.1771 588.031 37.75C588.375 37.3229 588.859 37.1094 589.484 37.1094C589.984 37.1094 590.385 37.2656 590.688 37.5781C591 37.8802 591.156 38.2812 591.156 38.7812C591.156 39.2396 591.047 39.6042 590.828 39.875C590.62 40.1354 590.359 40.2656 590.047 40.2656C589.974 40.2656 589.917 40.2604 589.875 40.25C589.854 40.5625 589.927 40.8229 590.094 41.0312C590.312 41.3229 590.656 41.4688 591.125 41.4688C591.667 41.4688 592.12 41.2969 592.484 40.9531C592.849 40.599 593.151 40.0938 593.391 39.4375C593.609 38.8125 593.797 38.1146 593.953 37.3438C594.089 36.6042 594.245 35.8021 594.422 34.9375L596.109 27H600.594L601.266 39.2812L607.219 27H611.953L610.25 34.9375L609.688 37.4062C609.552 38.0104 609.484 38.4583 609.484 38.75C609.484 39.6458 609.911 40.0938 610.766 40.0938C611.089 40.0938 611.37 40.0417 611.609 39.9375C611.849 39.8229 612.073 39.6458 612.281 39.4062C612.469 39.1875 612.646 38.9167 612.812 38.5938C612.99 38.2708 613.203 37.8281 613.453 37.2656H614.797C613.453 41.2135 611.469 43.1875 608.844 43.1875C607.615 43.1875 606.667 42.8438 606 42.1562C605.698 41.8542 605.469 41.5 605.312 41.0938C605.156 40.6771 605.078 40.2448 605.078 39.7969C605.078 38.8906 605.302 37.474 605.75 35.5469L606.25 33.2656L601.516 43H597.031L596.469 33.2344L596.047 35.25C595.745 36.7604 595.474 37.9635 595.234 38.8594C594.995 39.7552 594.714 40.5104 594.391 41.125C594.026 41.8125 593.573 42.3281 593.031 42.6719C592.5 43.0156 591.828 43.1875 591.016 43.1875ZM617.859 43.1875C616.401 43.1875 615.271 42.8281 614.469 42.1094C613.677 41.3906 613.281 40.3854 613.281 39.0938C613.281 38.3958 613.354 37.7865 613.5 37.2656L615.609 27H620.031L617.656 38.2656C617.594 38.4115 617.562 38.5938 617.562 38.8125C617.562 39.0208 617.562 39.1354 617.562 39.1562C617.562 40.0312 618.042 40.4688 619 40.4688C619.427 40.4688 619.849 40.3333 620.266 40.0625C620.682 39.7812 621.052 39.401 621.375 38.9219C621.698 38.4323 621.953 37.8646 622.141 37.2188C622.328 36.5625 622.422 35.875 622.422 35.1562C622.422 34.6458 622.266 34.2396 621.953 33.9375C621.682 34.1354 621.37 34.2344 621.016 34.2344C620.849 34.2344 620.682 34.2083 620.516 34.1562C620.349 34.0938 620.203 34.0104 620.078 33.9062C619.766 33.6458 619.609 33.2969 619.609 32.8594C619.609 32.401 619.802 32.0312 620.188 31.75C620.521 31.5104 620.927 31.3906 621.406 31.3906C621.896 31.3906 622.333 31.4531 622.719 31.5781C623.438 31.2552 624.115 30.9219 624.75 30.5781C625.385 30.2344 626.094 29.8281 626.875 29.3594C626.979 29.2969 627.099 29.224 627.234 29.1406C627.38 29.0573 627.536 28.9635 627.703 28.8594C628.891 28.1302 629.969 27.5104 630.938 27H632.922L631.234 34.9375L630.672 37.4062C630.526 38.0521 630.453 38.5 630.453 38.75C630.453 39.6458 630.88 40.0938 631.734 40.0938C632.057 40.0938 632.339 40.0417 632.578 39.9375C632.818 39.8229 633.042 39.6458 633.25 39.4062C633.438 39.1875 633.615 38.9167 633.781 38.5938C633.958 38.2708 634.172 37.8281 634.422 37.2656H635.766C634.422 41.2135 632.453 43.1875 629.859 43.1875C628.63 43.1875 627.672 42.8333 626.984 42.125C626.682 41.8229 626.453 41.4635 626.297 41.0469C626.151 40.6302 626.078 40.1823 626.078 39.7031C626.078 39.5885 626.083 39.4896 626.094 39.4062C626.125 39.1146 626.151 38.9271 626.172 38.8438C626.245 38.3125 626.401 37.4583 626.641 36.2812C626.859 35.1667 627.26 33.3021 627.844 30.6875C626.75 31.375 625.552 32.0677 624.25 32.7656C624.76 33.5573 625.016 34.6198 625.016 35.9531C625.016 36.4115 624.953 36.9115 624.828 37.4531C624.703 37.9844 624.521 38.5052 624.281 39.0156C623.698 40.2344 622.922 41.1979 621.953 41.9062C620.766 42.7604 619.401 43.1875 617.859 43.1875ZM637.609 43.1875C636.589 43.1875 635.781 42.8854 635.188 42.2812C634.521 41.6146 634.188 40.6406 634.188 39.3594C634.188 38.7552 634.271 38.0573 634.438 37.2656L636.609 27H641.219L638.922 37.875C638.859 38.1979 638.828 38.5 638.828 38.7812C638.828 39.6562 639.146 40.0938 639.781 40.0938C640.365 40.0938 640.891 39.8281 641.359 39.2969C641.734 38.849 642.062 38.1719 642.344 37.2656L644.516 27H649.125L646.828 37.875C646.755 38.1562 646.719 38.4583 646.719 38.7812C646.719 39.6562 647.042 40.0938 647.688 40.0938C648.271 40.0938 648.797 39.8281 649.266 39.2969C649.641 38.849 649.969 38.1719 650.25 37.2656L652.422 27H657.031L654.719 37.875C654.635 38.1458 654.594 38.4896 654.594 38.9062C654.594 39.3438 654.698 39.651 654.906 39.8281C655.115 40.0052 655.448 40.0938 655.906 40.0938C656.5 40.0938 657.031 39.8281 657.5 39.2969C657.896 38.8281 658.229 38.151 658.5 37.2656H659.844C659.052 39.5677 657.969 41.2083 656.594 42.1875C655.635 42.8542 654.573 43.1875 653.406 43.1875C652.49 43.1875 651.76 42.9323 651.219 42.4219C650.688 41.9115 650.365 41.1562 650.25 40.1562C649.521 41.3229 648.698 42.1562 647.781 42.6562C647.125 43.0104 646.37 43.1875 645.516 43.1875C644.599 43.1875 643.87 42.9323 643.328 42.4219C642.786 41.9115 642.458 41.1562 642.344 40.1562C641.615 41.3229 640.792 42.1562 639.875 42.6562C639.219 43.0104 638.464 43.1875 637.609 43.1875ZM660.797 43.1875C659.63 43.1875 658.734 42.8073 658.109 42.0469C657.839 41.724 657.635 41.349 657.5 40.9219C657.354 40.4844 657.281 40.0365 657.281 39.5781C657.281 38.8177 657.458 38.2031 657.812 37.7344C658.167 37.2552 658.651 37.0156 659.266 37.0156C659.766 37.0156 660.167 37.1719 660.469 37.4844C660.781 37.7865 660.938 38.1875 660.938 38.6875C660.938 39.1458 660.828 39.5104 660.609 39.7812C660.401 40.0417 660.141 40.1719 659.828 40.1719C659.755 40.1719 659.698 40.1667 659.656 40.1562C659.677 40.4479 659.766 40.6719 659.922 40.8281C660.13 41.0573 660.458 41.1719 660.906 41.1719C661.406 41.1719 661.818 41.0104 662.141 40.6875C662.464 40.3646 662.74 39.8958 662.969 39.2812C663.188 38.6562 663.37 37.9896 663.516 37.2812C663.62 36.6875 663.745 36.0781 663.891 35.4531L664 34.9375C664.333 33.3021 664.703 31.9635 665.109 30.9219C665.526 29.8802 665.995 29.0625 666.516 28.4688C666.984 27.9167 667.51 27.5365 668.094 27.3281C668.688 27.1094 669.37 27 670.141 27H674.859L673.156 34.9375L672.594 37.4062C672.458 38.0104 672.391 38.4583 672.391 38.75C672.391 39.6458 672.818 40.0938 673.672 40.0938C673.984 40.0938 674.26 40.0417 674.5 39.9375C674.74 39.8229 674.964 39.6458 675.172 39.4062C675.359 39.1875 675.542 38.9115 675.719 38.5781C675.906 38.2448 676.12 37.8073 676.359 37.2656H677.703C676.359 41.2135 674.375 43.1875 671.75 43.1875C670.531 43.1875 669.578 42.8438 668.891 42.1562C668.589 41.8542 668.359 41.5 668.203 41.0938C668.047 40.6771 667.969 40.2448 667.969 39.7969C667.969 38.901 668.203 37.4531 668.672 35.4531L670.078 29.1094C669.516 29.1094 669.036 29.224 668.641 29.4531C668.245 29.6823 667.896 30.0417 667.594 30.5312C667.302 31 667.036 31.6094 666.797 32.3594C666.557 33.1094 666.307 34.0729 666.047 35.25L665.984 35.5625C665.661 37.0729 665.385 38.2344 665.156 39.0469C664.938 39.8594 664.672 40.5521 664.359 41.125C663.974 41.8229 663.495 42.3438 662.922 42.6875C662.359 43.0208 661.651 43.1875 660.797 43.1875ZM680.953 43.1875C679.38 43.1875 678.167 42.7917 677.312 42C676.406 41.1562 675.953 39.8594 675.953 38.1094C675.953 37.4531 676.021 36.724 676.156 35.9219C676.281 35.1198 676.474 34.3177 676.734 33.5156C677.026 32.6198 677.396 31.7708 677.844 30.9688C678.302 30.1667 678.833 29.4583 679.438 28.8438C680.833 27.4271 682.552 26.7188 684.594 26.7188C685.896 26.7188 686.844 27.0312 687.438 27.6562C687.896 28.1458 688.125 28.8542 688.125 29.7812C688.125 30.6875 687.927 31.5417 687.531 32.3438C687.135 33.1354 686.589 33.8385 685.891 34.4531C685.193 35.0573 684.401 35.5417 683.516 35.9062C682.63 36.2604 681.714 36.4688 680.766 36.5312C680.714 37.0729 680.688 37.5 680.688 37.8125C680.688 38.8542 680.885 39.5729 681.281 39.9688C681.625 40.3229 682.198 40.5 683 40.5C684.156 40.5 685.214 40.1875 686.172 39.5625C686.578 39.3021 686.969 38.9948 687.344 38.6406C687.719 38.276 688.156 37.8177 688.656 37.2656H689.75C688.74 38.974 687.578 40.3333 686.266 41.3438C684.651 42.5729 682.88 43.1875 680.953 43.1875ZM681.016 35C681.609 34.9583 682.188 34.7865 682.75 34.4844C683.312 34.1823 683.812 33.7865 684.25 33.2969C684.688 32.7969 685.031 32.2396 685.281 31.625C685.531 31 685.656 30.3646 685.656 29.7188C685.656 29.2917 685.594 28.9688 685.469 28.75C685.354 28.5208 685.151 28.4062 684.859 28.4062C684.474 28.4062 684.083 28.5938 683.688 28.9688C683.302 29.3438 682.927 29.8594 682.562 30.5156C682.229 31.1302 681.927 31.8281 681.656 32.6094C681.385 33.3906 681.172 34.1875 681.016 35ZM700.266 43.1875C699.036 43.1875 698.089 42.8438 697.422 42.1562C697.12 41.8542 696.891 41.5 696.734 41.0938C696.578 40.6771 696.5 40.2448 696.5 39.7969C696.5 39.401 696.557 38.8646 696.672 38.1875C696.797 37.5104 696.984 36.5521 697.234 35.3125H693.688L692.047 43H687.438L690.828 27H695.438L694.062 33.4062H697.641L699.094 27H703.375L701.688 34.9375L701.125 37.4062C700.979 38.0521 700.906 38.5 700.906 38.75C700.906 39.6458 701.333 40.0938 702.188 40.0938C702.51 40.0938 702.792 40.0417 703.031 39.9375C703.271 39.8229 703.495 39.6458 703.703 39.4062C703.891 39.1875 704.068 38.9167 704.234 38.5938C704.411 38.2708 704.625 37.8281 704.875 37.2656H706.219C704.875 41.2135 702.891 43.1875 700.266 43.1875ZM708.047 43.1875C707.026 43.1875 706.219 42.8854 705.625 42.2812C704.958 41.6146 704.625 40.6406 704.625 39.3594C704.625 38.7552 704.708 38.0573 704.875 37.2656L707.047 27H711.656L709.359 37.875C709.297 38.1979 709.266 38.5 709.266 38.7812C709.266 39.6562 709.583 40.0938 710.219 40.0938C710.802 40.0938 711.328 39.8281 711.797 39.2969C712.172 38.849 712.5 38.1719 712.781 37.2656L714.953 27H719.562L717.266 37.875C717.172 38.1875 717.125 38.5312 717.125 38.9062C717.125 39.3438 717.229 39.651 717.438 39.8281C717.646 40.0052 717.979 40.0938 718.438 40.0938C719.031 40.0938 719.562 39.8281 720.031 39.2969C720.448 38.8281 720.781 38.151 721.031 37.2656H722.375C721.802 38.8906 721.109 40.1771 720.297 41.125C719.609 41.9062 718.833 42.4688 717.969 42.8125C717.333 43.0625 716.661 43.1875 715.953 43.1875C715.036 43.1875 714.307 42.9323 713.766 42.4219C713.224 41.9115 712.896 41.1562 712.781 40.1562C712.052 41.3229 711.229 42.1562 710.312 42.6562C709.656 43.0104 708.901 43.1875 708.047 43.1875ZM723.406 43.1875C722.271 43.1875 721.375 42.8229 720.719 42.0938C720.427 41.7708 720.203 41.3906 720.047 40.9531C719.891 40.5156 719.812 40.0573 719.812 39.5781C719.812 38.8177 719.99 38.2031 720.344 37.7344C720.698 37.2552 721.182 37.0156 721.797 37.0156C722.297 37.0156 722.698 37.1719 723 37.4844C723.312 37.7865 723.469 38.1875 723.469 38.6875C723.469 39.1458 723.359 39.5104 723.141 39.7812C722.932 40.0417 722.672 40.1719 722.359 40.1719C722.286 40.1719 722.229 40.1667 722.188 40.1562C722.208 40.4375 722.302 40.6615 722.469 40.8281C722.677 41.0573 723 41.1719 723.438 41.1719C723.802 41.1719 724.12 41.0625 724.391 40.8438C724.661 40.6146 724.901 40.2812 725.109 39.8438C725.297 39.4375 725.474 38.9479 725.641 38.375C725.807 37.7917 725.979 37.0833 726.156 36.25C725.219 36.0521 724.49 35.6562 723.969 35.0625C723.396 34.4062 723.109 33.5625 723.109 32.5312C723.109 30.8854 723.719 29.5885 724.938 28.6406C726.354 27.5469 728.552 27 731.531 27H736.391L734.688 34.9375L734.125 37.4062C733.99 38.0104 733.922 38.4583 733.922 38.75C733.922 39.6458 734.349 40.0938 735.203 40.0938C735.526 40.0938 735.807 40.0417 736.047 39.9375C736.286 39.8229 736.51 39.6458 736.719 39.4062C736.906 39.1875 737.083 38.9167 737.25 38.5938C737.427 38.2708 737.641 37.8281 737.891 37.2656H739.234C737.891 41.2135 735.906 43.1875 733.281 43.1875C732.052 43.1875 731.104 42.8438 730.438 42.1562C730.135 41.8542 729.906 41.5 729.75 41.0938C729.594 40.6771 729.516 40.2448 729.516 39.7969C729.516 39.4948 729.547 39.1302 729.609 38.7031C729.672 38.2969 729.833 37.4688 730.094 36.2188C729.521 36.3438 728.922 36.4062 728.297 36.4062C728.005 37.6354 727.729 38.6458 727.469 39.4375C727.219 40.2292 726.927 40.8906 726.594 41.4219C726.229 42.0156 725.786 42.4583 725.266 42.75C724.755 43.0417 724.135 43.1875 723.406 43.1875ZM729.969 34.9062H730.047C730.12 34.9062 730.229 34.8854 730.375 34.8438L731.719 28.7344H730.953C729.714 28.7344 728.766 29.0781 728.109 29.7656C727.786 30.0885 727.542 30.4792 727.375 30.9375C727.219 31.3958 727.141 31.8958 727.141 32.4375C727.141 33.3333 727.365 33.9792 727.812 34.375C728.198 34.7292 728.745 34.9062 729.453 34.9062H729.969Z" fill="#16578D"></path> <path d="M215.017 64.1914C215.737 64.1914 216.361 64.291 216.889 64.4902C217.416 64.6836 217.823 64.9678 218.11 65.3428C218.397 65.7178 218.541 66.1748 218.541 66.7139C218.541 67.2939 218.383 67.7568 218.066 68.1025C217.75 68.4482 217.313 68.6973 216.757 68.8496V68.9199C217.149 69.0254 217.504 69.1777 217.82 69.377C218.143 69.5703 218.397 69.8281 218.585 70.1504C218.778 70.4668 218.875 70.8623 218.875 71.3369C218.875 71.876 218.729 72.3623 218.436 72.7959C218.143 73.2236 217.697 73.5605 217.1 73.8066C216.502 74.0527 215.746 74.1758 214.832 74.1758C214.381 74.1758 213.953 74.1494 213.549 74.0967C213.145 74.0498 212.778 73.9795 212.45 73.8857C212.122 73.792 211.835 73.6807 211.589 73.5518V72.2246C211.999 72.4238 212.479 72.5996 213.03 72.752C213.581 72.9043 214.176 72.9805 214.814 72.9805C215.307 72.9805 215.749 72.9248 216.142 72.8135C216.534 72.6963 216.845 72.5117 217.073 72.2598C217.308 72.002 217.425 71.665 217.425 71.249C217.425 70.8682 217.322 70.5547 217.117 70.3086C216.912 70.0566 216.604 69.8721 216.194 69.7549C215.79 69.6318 215.277 69.5703 214.656 69.5703H213.364V68.375H214.428C215.254 68.375 215.913 68.2578 216.405 68.0234C216.897 67.7891 217.144 67.3936 217.144 66.8369C217.144 66.3564 216.953 65.999 216.572 65.7646C216.191 65.5244 215.646 65.4043 214.938 65.4043C214.41 65.4043 213.944 65.46 213.54 65.5713C213.136 65.6768 212.699 65.8291 212.23 66.0283L211.712 64.8594C212.216 64.6367 212.743 64.4697 213.294 64.3584C213.845 64.2471 214.419 64.1914 215.017 64.1914ZM224.843 64.209C225.991 64.209 226.844 64.4668 227.4 64.9824C227.957 65.498 228.235 66.3213 228.235 67.4521V74H227.172L226.891 72.5762H226.82C226.551 72.9277 226.27 73.2236 225.977 73.4639C225.684 73.6982 225.344 73.877 224.957 74C224.576 74.1172 224.107 74.1758 223.551 74.1758C222.965 74.1758 222.443 74.0732 221.986 73.8682C221.535 73.6631 221.178 73.3525 220.914 72.9365C220.656 72.5205 220.527 71.9932 220.527 71.3545C220.527 70.3936 220.908 69.6553 221.67 69.1396C222.432 68.624 223.592 68.3428 225.15 68.2959L226.812 68.2256V67.6367C226.812 66.8047 226.633 66.2217 226.275 65.8877C225.918 65.5537 225.414 65.3867 224.764 65.3867C224.26 65.3867 223.779 65.46 223.322 65.6064C222.865 65.7529 222.432 65.9258 222.021 66.125L221.573 65.0176C222.007 64.7949 222.505 64.6045 223.067 64.4463C223.63 64.2881 224.222 64.209 224.843 64.209ZM226.794 69.2539L225.326 69.3154C224.125 69.3623 223.278 69.5586 222.786 69.9043C222.294 70.25 222.048 70.7393 222.048 71.3721C222.048 71.9229 222.215 72.3301 222.549 72.5938C222.883 72.8574 223.325 72.9893 223.876 72.9893C224.731 72.9893 225.432 72.752 225.977 72.2773C226.521 71.8027 226.794 71.0908 226.794 70.1416V69.2539ZM238.466 74H236.98V65.5889H234.054C233.937 67.1064 233.787 68.4072 233.605 69.4912C233.43 70.5693 233.207 71.4512 232.938 72.1367C232.674 72.8164 232.352 73.3174 231.971 73.6396C231.596 73.9561 231.147 74.1143 230.626 74.1143C230.468 74.1143 230.318 74.1055 230.178 74.0879C230.037 74.0703 229.917 74.041 229.817 74V72.8926C229.894 72.916 229.973 72.9336 230.055 72.9453C230.143 72.957 230.233 72.9629 230.327 72.9629C230.591 72.9629 230.831 72.8545 231.048 72.6377C231.271 72.415 231.47 72.0811 231.646 71.6357C231.827 71.1904 231.988 70.6279 232.129 69.9482C232.27 69.2627 232.393 68.457 232.498 67.5312C232.609 66.5996 232.706 65.5449 232.788 64.3672H238.466V74ZM249.848 69.166C249.848 69.957 249.745 70.6631 249.54 71.2842C249.335 71.9053 249.039 72.4297 248.652 72.8574C248.266 73.2852 247.797 73.6133 247.246 73.8418C246.701 74.0645 246.083 74.1758 245.392 74.1758C244.747 74.1758 244.155 74.0645 243.616 73.8418C243.083 73.6133 242.62 73.2852 242.228 72.8574C241.841 72.4297 241.539 71.9053 241.322 71.2842C241.111 70.6631 241.006 69.957 241.006 69.166C241.006 68.1113 241.185 67.2148 241.542 66.4766C241.899 65.7324 242.409 65.167 243.071 64.7803C243.739 64.3877 244.533 64.1914 245.453 64.1914C246.332 64.1914 247.1 64.3877 247.756 64.7803C248.418 65.1729 248.931 65.7412 249.294 66.4854C249.663 67.2236 249.848 68.1172 249.848 69.166ZM242.518 69.166C242.518 69.9395 242.62 70.6104 242.825 71.1787C243.03 71.7471 243.347 72.1865 243.774 72.4971C244.202 72.8076 244.753 72.9629 245.427 72.9629C246.095 72.9629 246.643 72.8076 247.07 72.4971C247.504 72.1865 247.823 71.7471 248.028 71.1787C248.233 70.6104 248.336 69.9395 248.336 69.166C248.336 68.3984 248.233 67.7363 248.028 67.1797C247.823 66.6172 247.507 66.1836 247.079 65.8789C246.651 65.5742 246.098 65.4219 245.418 65.4219C244.416 65.4219 243.681 65.7529 243.212 66.415C242.749 67.0771 242.518 67.9941 242.518 69.166ZM263.655 64.3672L259.647 69.0518L263.998 74H262.328L258.109 69.1133V74H256.747V69.1133L252.537 74H250.867L255.218 69.0518L251.201 64.3672H252.81L256.747 69.043V64.3672H258.109V69.043L262.064 64.3672H263.655ZM266.995 64.3672V70.4229C266.995 70.54 266.992 70.6924 266.986 70.8799C266.98 71.0615 266.972 71.2578 266.96 71.4688C266.948 71.6738 266.937 71.873 266.925 72.0664C266.919 72.2539 266.91 72.4092 266.898 72.5322L272.154 64.3672H273.947V74H272.585V68.0938C272.585 67.9062 272.588 67.666 272.594 67.373C272.6 67.0801 272.608 66.793 272.62 66.5117C272.632 66.2246 272.641 66.002 272.646 65.8438L267.408 74H265.606V64.3672H266.995ZM287.219 64.3672V74H285.9V67.7246C285.9 67.4668 285.906 67.2061 285.918 66.9424C285.936 66.6729 285.956 66.4033 285.979 66.1338H285.927L282.728 74H281.488L278.368 66.1338H278.315C278.333 66.4033 278.345 66.6729 278.351 66.9424C278.362 67.2061 278.368 67.4844 278.368 67.7773V74H277.041V64.3672H279.001L282.112 72.2422L285.268 64.3672H287.219ZM302.995 64.3672V74H301.527V65.624H296.395V74H294.927V64.3672H302.995ZM310.615 64.1914C311.816 64.1914 312.774 64.6045 313.489 65.4307C314.204 66.2568 314.562 67.499 314.562 69.1572C314.562 70.2529 314.397 71.1729 314.069 71.917C313.741 72.6611 313.278 73.2236 312.681 73.6045C312.089 73.9854 311.389 74.1758 310.58 74.1758C310.07 74.1758 309.622 74.1084 309.235 73.9736C308.849 73.8389 308.518 73.6572 308.242 73.4287C307.967 73.2002 307.738 72.9512 307.557 72.6816H307.451C307.469 72.9102 307.489 73.1855 307.513 73.5078C307.542 73.8301 307.557 74.1113 307.557 74.3516V78.3066H306.089V64.3672H307.293L307.486 65.791H307.557C307.744 65.498 307.973 65.2314 308.242 64.9912C308.512 64.7451 308.84 64.5518 309.227 64.4111C309.619 64.2646 310.082 64.1914 310.615 64.1914ZM310.36 65.4219C309.692 65.4219 309.153 65.5508 308.743 65.8086C308.339 66.0664 308.043 66.4531 307.855 66.9688C307.668 67.4785 307.568 68.1201 307.557 68.8936V69.1748C307.557 69.9893 307.645 70.6777 307.82 71.2402C308.002 71.8027 308.298 72.2305 308.708 72.5234C309.124 72.8164 309.681 72.9629 310.378 72.9629C310.976 72.9629 311.474 72.8018 311.872 72.4795C312.271 72.1572 312.566 71.709 312.76 71.1348C312.959 70.5547 313.059 69.8896 313.059 69.1396C313.059 68.0029 312.836 67.1006 312.391 66.4326C311.951 65.7588 311.274 65.4219 310.36 65.4219ZM325.416 69.166C325.416 69.957 325.313 70.6631 325.108 71.2842C324.903 71.9053 324.607 72.4297 324.221 72.8574C323.834 73.2852 323.365 73.6133 322.814 73.8418C322.27 74.0645 321.651 74.1758 320.96 74.1758C320.315 74.1758 319.724 74.0645 319.185 73.8418C318.651 73.6133 318.188 73.2852 317.796 72.8574C317.409 72.4297 317.107 71.9053 316.891 71.2842C316.68 70.6631 316.574 69.957 316.574 69.166C316.574 68.1113 316.753 67.2148 317.11 66.4766C317.468 65.7324 317.978 65.167 318.64 64.7803C319.308 64.3877 320.102 64.1914 321.021 64.1914C321.9 64.1914 322.668 64.3877 323.324 64.7803C323.986 65.1729 324.499 65.7412 324.862 66.4854C325.231 67.2236 325.416 68.1172 325.416 69.166ZM318.086 69.166C318.086 69.9395 318.188 70.6104 318.394 71.1787C318.599 71.7471 318.915 72.1865 319.343 72.4971C319.771 72.8076 320.321 72.9629 320.995 72.9629C321.663 72.9629 322.211 72.8076 322.639 72.4971C323.072 72.1865 323.392 71.7471 323.597 71.1787C323.802 70.6104 323.904 69.9395 323.904 69.166C323.904 68.3984 323.802 67.7363 323.597 67.1797C323.392 66.6172 323.075 66.1836 322.647 65.8789C322.22 65.5742 321.666 65.4219 320.986 65.4219C319.984 65.4219 319.249 65.7529 318.78 66.415C318.317 67.0771 318.086 67.9941 318.086 69.166ZM329.213 64.3672V67.8301C329.213 68.4336 329.377 68.8789 329.705 69.166C330.039 69.4531 330.522 69.5967 331.155 69.5967C331.765 69.5967 332.318 69.5029 332.816 69.3154C333.314 69.1279 333.818 68.873 334.328 68.5508V64.3672H335.787V74H334.328V69.6846C333.789 70.0303 333.259 70.3027 332.737 70.502C332.216 70.7012 331.592 70.8008 330.865 70.8008C329.875 70.8008 329.107 70.543 328.562 70.0273C328.023 69.5117 327.754 68.8145 327.754 67.9355V64.3672H329.213ZM340.34 64.3672V68.4102H345.71V64.3672H347.169V74H345.71V69.6494H340.34V74H338.872V64.3672H340.34ZM350.263 74V64.3672H351.73V68.3398H354.367C355.188 68.3398 355.861 68.4424 356.389 68.6475C356.922 68.8525 357.317 69.1572 357.575 69.5615C357.833 69.9658 357.962 70.4668 357.962 71.0645C357.962 71.6621 357.833 72.1807 357.575 72.6201C357.323 73.0596 356.925 73.3994 356.38 73.6396C355.841 73.8799 355.138 74 354.271 74H350.263ZM351.73 72.8135H354.13C354.856 72.8135 355.437 72.6846 355.87 72.4268C356.304 72.1689 356.521 71.7383 356.521 71.1348C356.521 70.543 356.318 70.1328 355.914 69.9043C355.51 69.6699 354.93 69.5527 354.174 69.5527H351.73V72.8135ZM359.553 74V64.3672H361.012V74H359.553ZM365.485 64.3672V70.4229C365.485 70.54 365.482 70.6924 365.477 70.8799C365.471 71.0615 365.462 71.2578 365.45 71.4688C365.438 71.6738 365.427 71.873 365.415 72.0664C365.409 72.2539 365.4 72.4092 365.389 72.5322L370.645 64.3672H372.438V74H371.075V68.0938C371.075 67.9062 371.078 67.666 371.084 67.373C371.09 67.0801 371.099 66.793 371.11 66.5117C371.122 66.2246 371.131 66.002 371.137 65.8438L365.898 74H364.097V64.3672H365.485ZM371.717 60.4033C371.664 60.9951 371.515 61.4902 371.269 61.8887C371.028 62.2871 370.674 62.5889 370.205 62.7939C369.736 62.9932 369.136 63.0928 368.403 63.0928C367.647 63.0928 367.038 62.9961 366.575 62.8027C366.118 62.6035 365.778 62.3047 365.556 61.9062C365.339 61.5078 365.21 61.0068 365.169 60.4033H366.54C366.604 61.0479 366.777 61.4873 367.059 61.7217C367.34 61.9561 367.797 62.0732 368.43 62.0732C368.992 62.0732 369.435 61.9502 369.757 61.7041C370.079 61.458 370.272 61.0244 370.337 60.4033H371.717ZM385.814 60.3242V64.2266C386.77 64.3086 387.602 64.5576 388.311 64.9736C389.02 65.3838 389.57 65.9434 389.963 66.6523C390.355 67.3613 390.552 68.2051 390.552 69.1836C390.552 70.1445 390.361 70.9824 389.98 71.6973C389.605 72.4121 389.063 72.9775 388.354 73.3936C387.651 73.8096 386.805 74.0586 385.814 74.1406V78.3242H384.391V74.1406C383.436 74.0703 382.604 73.8301 381.895 73.4199C381.191 73.0039 380.644 72.4385 380.251 71.7236C379.858 71.0088 379.662 70.1621 379.662 69.1836C379.662 68.2051 379.85 67.3613 380.225 66.6523C380.605 65.9375 381.15 65.375 381.859 64.9648C382.568 64.5488 383.427 64.3027 384.435 64.2266V60.3242H385.814ZM384.435 65.4395C383.69 65.5039 383.078 65.6914 382.598 66.002C382.117 66.3125 381.76 66.7344 381.525 67.2676C381.297 67.8008 381.183 68.4395 381.183 69.1836C381.183 69.9277 381.3 70.5693 381.534 71.1084C381.769 71.6416 382.126 72.0635 382.606 72.374C383.087 72.6846 383.696 72.875 384.435 72.9453V65.4395ZM385.814 65.457V72.9453C386.553 72.8691 387.159 72.6729 387.634 72.3564C388.114 72.04 388.469 71.6152 388.697 71.082C388.932 70.5488 389.049 69.916 389.049 69.1836C389.049 68.0703 388.782 67.2002 388.249 66.5732C387.716 65.9404 386.904 65.5684 385.814 65.457ZM391.58 64.3672H393.145L395.271 69.957C395.395 70.2852 395.509 70.6016 395.614 70.9062C395.72 71.2051 395.813 71.4922 395.896 71.7676C395.978 72.043 396.042 72.3096 396.089 72.5674H396.15C396.232 72.2744 396.35 71.8906 396.502 71.416C396.654 70.9355 396.818 70.4463 396.994 69.9482L399.007 64.3672H400.58L396.388 75.415C396.165 76.0068 395.904 76.5225 395.605 76.9619C395.312 77.4014 394.955 77.7383 394.533 77.9727C394.111 78.2129 393.602 78.333 393.004 78.333C392.729 78.333 392.485 78.3154 392.274 78.2803C392.063 78.251 391.882 78.2158 391.729 78.1748V77.0059C391.858 77.0352 392.014 77.0615 392.195 77.085C392.383 77.1084 392.576 77.1201 392.775 77.1201C393.139 77.1201 393.452 77.0498 393.716 76.9092C393.985 76.7744 394.217 76.5752 394.41 76.3115C394.604 76.0479 394.771 75.7344 394.911 75.3711L395.438 74.0176L391.58 64.3672ZM403.586 64.3672V68.4102H408.956V64.3672H410.415V74H408.956V69.6494H403.586V74H402.118V64.3672H403.586ZM420.566 64.3672V72.7607H421.946V77.3311H420.531V74H413.711V77.3311H412.313V72.7607H413.069C413.62 71.999 414.077 71.1641 414.44 70.2559C414.804 69.3477 415.079 68.3955 415.267 67.3994C415.454 66.3975 415.554 65.3867 415.565 64.3672H420.566ZM419.151 65.5273H416.866C416.813 66.3828 416.688 67.2529 416.488 68.1377C416.295 69.0225 416.037 69.8662 415.715 70.6689C415.393 71.4658 415.018 72.1631 414.59 72.7607H419.151V65.5273ZM427.466 64.209C428.614 64.209 429.467 64.4668 430.023 64.9824C430.58 65.498 430.858 66.3213 430.858 67.4521V74H429.795L429.514 72.5762H429.443C429.174 72.9277 428.893 73.2236 428.6 73.4639C428.307 73.6982 427.967 73.877 427.58 74C427.199 74.1172 426.73 74.1758 426.174 74.1758C425.588 74.1758 425.066 74.0732 424.609 73.8682C424.158 73.6631 423.801 73.3525 423.537 72.9365C423.279 72.5205 423.15 71.9932 423.15 71.3545C423.15 70.3936 423.531 69.6553 424.293 69.1396C425.055 68.624 426.215 68.3428 427.773 68.2959L429.435 68.2256V67.6367C429.435 66.8047 429.256 66.2217 428.898 65.8877C428.541 65.5537 428.037 65.3867 427.387 65.3867C426.883 65.3867 426.402 65.46 425.945 65.6064C425.488 65.7529 425.055 65.9258 424.645 66.125L424.196 65.0176C424.63 64.7949 425.128 64.6045 425.69 64.4463C426.253 64.2881 426.845 64.209 427.466 64.209ZM429.417 69.2539L427.949 69.3154C426.748 69.3623 425.901 69.5586 425.409 69.9043C424.917 70.25 424.671 70.7393 424.671 71.3721C424.671 71.9229 424.838 72.3301 425.172 72.5938C425.506 72.8574 425.948 72.9893 426.499 72.9893C427.354 72.9893 428.055 72.752 428.6 72.2773C429.145 71.8027 429.417 71.0908 429.417 70.1416V69.2539ZM444.033 64.3672V74H442.715V67.7246C442.715 67.4668 442.721 67.2061 442.732 66.9424C442.75 66.6729 442.771 66.4033 442.794 66.1338H442.741L439.542 74H438.303L435.183 66.1338H435.13C435.147 66.4033 435.159 66.6729 435.165 66.9424C435.177 67.2061 435.183 67.4844 435.183 67.7773V74H433.855V64.3672H435.815L438.927 72.2422L442.082 64.3672H444.033ZM450.774 64.1914C451.595 64.1914 452.298 64.373 452.884 64.7363C453.47 65.0996 453.918 65.6094 454.229 66.2656C454.539 66.916 454.694 67.6777 454.694 68.5508V69.4561H448.041C448.059 70.5869 448.34 71.4482 448.885 72.04C449.43 72.6318 450.197 72.9277 451.188 72.9277C451.797 72.9277 452.336 72.8721 452.805 72.7607C453.273 72.6494 453.76 72.4854 454.264 72.2686V73.5518C453.777 73.7686 453.294 73.9268 452.813 74.0264C452.339 74.126 451.776 74.1758 451.126 74.1758C450.2 74.1758 449.392 73.9883 448.7 73.6133C448.015 73.2324 447.481 72.6758 447.101 71.9434C446.72 71.2109 446.529 70.3145 446.529 69.2539C446.529 68.2168 446.702 67.3203 447.048 66.5645C447.399 65.8027 447.892 65.2168 448.524 64.8066C449.163 64.3965 449.913 64.1914 450.774 64.1914ZM450.757 65.3867C449.978 65.3867 449.356 65.6416 448.894 66.1514C448.431 66.6611 448.155 67.373 448.067 68.2871H453.165C453.159 67.7129 453.068 67.209 452.893 66.7754C452.723 66.3359 452.462 65.9961 452.11 65.7559C451.759 65.5098 451.308 65.3867 450.757 65.3867ZM458.641 64.3672V68.4102H464.011V64.3672H465.47V74H464.011V69.6494H458.641V74H457.173V64.3672H458.641ZM475.129 65.6064H471.956V74H470.515V65.6064H467.386V64.3672H475.129V65.6064ZM488.77 64.3672V72.7607H490.149V77.3311H488.734V74H481.914V77.3311H480.517V72.7607H481.272C481.823 71.999 482.28 71.1641 482.644 70.2559C483.007 69.3477 483.282 68.3955 483.47 67.3994C483.657 66.3975 483.757 65.3867 483.769 64.3672H488.77ZM487.354 65.5273H485.069C485.017 66.3828 484.891 67.2529 484.691 68.1377C484.498 69.0225 484.24 69.8662 483.918 70.6689C483.596 71.4658 483.221 72.1631 482.793 72.7607H487.354V65.5273ZM499.29 74H497.805V65.5889H494.878C494.761 67.1064 494.611 68.4072 494.43 69.4912C494.254 70.5693 494.031 71.4512 493.762 72.1367C493.498 72.8164 493.176 73.3174 492.795 73.6396C492.42 73.9561 491.972 74.1143 491.45 74.1143C491.292 74.1143 491.143 74.1055 491.002 74.0879C490.861 74.0703 490.741 74.041 490.642 74V72.8926C490.718 72.916 490.797 72.9336 490.879 72.9453C490.967 72.957 491.058 72.9629 491.151 72.9629C491.415 72.9629 491.655 72.8545 491.872 72.6377C492.095 72.415 492.294 72.0811 492.47 71.6357C492.651 71.1904 492.812 70.6279 492.953 69.9482C493.094 69.2627 493.217 68.457 493.322 67.5312C493.434 66.5996 493.53 65.5449 493.612 64.3672H499.29V74ZM502.832 74H501.127L503.904 69.9395C503.5 69.8516 503.125 69.7021 502.779 69.4912C502.434 69.2744 502.152 68.9785 501.936 68.6035C501.725 68.2285 501.619 67.7627 501.619 67.2061C501.619 66.2803 501.927 65.5771 502.542 65.0967C503.163 64.6104 503.98 64.3672 504.994 64.3672H509.257V74H507.798V70.1328H505.354L502.832 74ZM503.034 67.2148C503.034 67.7891 503.239 68.2168 503.649 68.498C504.06 68.7734 504.646 68.9111 505.407 68.9111H507.798V65.5889H505.152C504.402 65.5889 503.86 65.7412 503.526 66.0459C503.198 66.3447 503.034 66.7344 503.034 67.2148ZM515.488 64.3672H517.053L519.18 69.957C519.303 70.2852 519.417 70.6016 519.522 70.9062C519.628 71.2051 519.722 71.4922 519.804 71.7676C519.886 72.043 519.95 72.3096 519.997 72.5674H520.059C520.141 72.2744 520.258 71.8906 520.41 71.416C520.562 70.9355 520.727 70.4463 520.902 69.9482L522.915 64.3672H524.488L520.296 75.415C520.073 76.0068 519.812 76.5225 519.514 76.9619C519.221 77.4014 518.863 77.7383 518.441 77.9727C518.02 78.2129 517.51 78.333 516.912 78.333C516.637 78.333 516.394 78.3154 516.183 78.2803C515.972 78.251 515.79 78.2158 515.638 78.1748V77.0059C515.767 77.0352 515.922 77.0615 516.104 77.085C516.291 77.1084 516.484 77.1201 516.684 77.1201C517.047 77.1201 517.36 77.0498 517.624 76.9092C517.894 76.7744 518.125 76.5752 518.318 76.3115C518.512 76.0479 518.679 75.7344 518.819 75.3711L519.347 74.0176L515.488 64.3672ZM529.885 74.1758C529.018 74.1758 528.253 73.9971 527.591 73.6396C526.929 73.2822 526.413 72.7373 526.044 72.0049C525.675 71.2725 525.49 70.3496 525.49 69.2363C525.49 68.0703 525.684 67.1182 526.07 66.3799C526.463 65.6357 527.002 65.085 527.688 64.7275C528.373 64.3701 529.152 64.1914 530.025 64.1914C530.506 64.1914 530.969 64.2412 531.414 64.3408C531.865 64.4346 532.234 64.5547 532.521 64.7012L532.082 65.9229C531.789 65.8057 531.449 65.7002 531.062 65.6064C530.682 65.5127 530.324 65.4658 529.99 65.4658C529.322 65.4658 528.766 65.6094 528.32 65.8965C527.881 66.1836 527.55 66.6055 527.327 67.1621C527.11 67.7188 527.002 68.4043 527.002 69.2188C527.002 69.998 527.107 70.6631 527.318 71.2139C527.535 71.7646 527.854 72.1865 528.276 72.4795C528.704 72.7666 529.237 72.9102 529.876 72.9102C530.386 72.9102 530.846 72.8574 531.256 72.752C531.666 72.6406 532.038 72.5117 532.372 72.3652V73.666C532.05 73.8301 531.689 73.9561 531.291 74.0439C530.898 74.1318 530.43 74.1758 529.885 74.1758ZM542.726 64.3672V74H541.258V65.624H536.125V74H534.657V64.3672H542.726ZM549.528 64.1914C550.349 64.1914 551.052 64.373 551.638 64.7363C552.224 65.0996 552.672 65.6094 552.982 66.2656C553.293 66.916 553.448 67.6777 553.448 68.5508V69.4561H546.795C546.812 70.5869 547.094 71.4482 547.639 72.04C548.184 72.6318 548.951 72.9277 549.941 72.9277C550.551 72.9277 551.09 72.8721 551.559 72.7607C552.027 72.6494 552.514 72.4854 553.018 72.2686V73.5518C552.531 73.7686 552.048 73.9268 551.567 74.0264C551.093 74.126 550.53 74.1758 549.88 74.1758C548.954 74.1758 548.146 73.9883 547.454 73.6133C546.769 73.2324 546.235 72.6758 545.854 71.9434C545.474 71.2109 545.283 70.3145 545.283 69.2539C545.283 68.2168 545.456 67.3203 545.802 66.5645C546.153 65.8027 546.646 65.2168 547.278 64.8066C547.917 64.3965 548.667 64.1914 549.528 64.1914ZM549.511 65.3867C548.731 65.3867 548.11 65.6416 547.647 66.1514C547.185 66.6611 546.909 67.373 546.821 68.2871H551.919C551.913 67.7129 551.822 67.209 551.646 66.7754C551.477 66.3359 551.216 65.9961 550.864 65.7559C550.513 65.5098 550.062 65.3867 549.511 65.3867ZM568.847 64.3672V74H555.927V64.3672H557.386V72.7607H561.648V64.3672H563.116V72.7607H567.388V64.3672H568.847ZM573.408 64.3672V68.4102H578.778V64.3672H580.237V74H578.778V69.6494H573.408V74H571.94V64.3672H573.408ZM591.637 69.166C591.637 69.957 591.534 70.6631 591.329 71.2842C591.124 71.9053 590.828 72.4297 590.441 72.8574C590.055 73.2852 589.586 73.6133 589.035 73.8418C588.49 74.0645 587.872 74.1758 587.181 74.1758C586.536 74.1758 585.944 74.0645 585.405 73.8418C584.872 73.6133 584.409 73.2852 584.017 72.8574C583.63 72.4297 583.328 71.9053 583.111 71.2842C582.9 70.6631 582.795 69.957 582.795 69.166C582.795 68.1113 582.974 67.2148 583.331 66.4766C583.688 65.7324 584.198 65.167 584.86 64.7803C585.528 64.3877 586.322 64.1914 587.242 64.1914C588.121 64.1914 588.889 64.3877 589.545 64.7803C590.207 65.1729 590.72 65.7412 591.083 66.4854C591.452 67.2236 591.637 68.1172 591.637 69.166ZM584.307 69.166C584.307 69.9395 584.409 70.6104 584.614 71.1787C584.819 71.7471 585.136 72.1865 585.563 72.4971C585.991 72.8076 586.542 72.9629 587.216 72.9629C587.884 72.9629 588.432 72.8076 588.859 72.4971C589.293 72.1865 589.612 71.7471 589.817 71.1787C590.022 70.6104 590.125 69.9395 590.125 69.166C590.125 68.3984 590.022 67.7363 589.817 67.1797C589.612 66.6172 589.296 66.1836 588.868 65.8789C588.44 65.5742 587.887 65.4219 587.207 65.4219C586.205 65.4219 585.47 65.7529 585.001 66.415C584.538 67.0771 584.307 67.9941 584.307 69.166ZM600.004 64.3672V65.6064H595.627V74H594.159V64.3672H600.004ZM610.234 69.166C610.234 69.957 610.132 70.6631 609.927 71.2842C609.722 71.9053 609.426 72.4297 609.039 72.8574C608.652 73.2852 608.184 73.6133 607.633 73.8418C607.088 74.0645 606.47 74.1758 605.778 74.1758C605.134 74.1758 604.542 74.0645 604.003 73.8418C603.47 73.6133 603.007 73.2852 602.614 72.8574C602.228 72.4297 601.926 71.9053 601.709 71.2842C601.498 70.6631 601.393 69.957 601.393 69.166C601.393 68.1113 601.571 67.2148 601.929 66.4766C602.286 65.7324 602.796 65.167 603.458 64.7803C604.126 64.3877 604.92 64.1914 605.84 64.1914C606.719 64.1914 607.486 64.3877 608.143 64.7803C608.805 65.1729 609.317 65.7412 609.681 66.4854C610.05 67.2236 610.234 68.1172 610.234 69.166ZM602.904 69.166C602.904 69.9395 603.007 70.6104 603.212 71.1787C603.417 71.7471 603.733 72.1865 604.161 72.4971C604.589 72.8076 605.14 72.9629 605.813 72.9629C606.481 72.9629 607.029 72.8076 607.457 72.4971C607.891 72.1865 608.21 71.7471 608.415 71.1787C608.62 70.6104 608.723 69.9395 608.723 69.166C608.723 68.3984 608.62 67.7363 608.415 67.1797C608.21 66.6172 607.894 66.1836 607.466 65.8789C607.038 65.5742 606.484 65.4219 605.805 65.4219C604.803 65.4219 604.067 65.7529 603.599 66.415C603.136 67.0771 602.904 67.9941 602.904 69.166ZM621.291 74.1758C620.424 74.1758 619.659 73.9971 618.997 73.6396C618.335 73.2822 617.819 72.7373 617.45 72.0049C617.081 71.2725 616.896 70.3496 616.896 69.2363C616.896 68.0703 617.09 67.1182 617.477 66.3799C617.869 65.6357 618.408 65.085 619.094 64.7275C619.779 64.3701 620.559 64.1914 621.432 64.1914C621.912 64.1914 622.375 64.2412 622.82 64.3408C623.271 64.4346 623.641 64.5547 623.928 64.7012L623.488 65.9229C623.195 65.8057 622.855 65.7002 622.469 65.6064C622.088 65.5127 621.73 65.4658 621.396 65.4658C620.729 65.4658 620.172 65.6094 619.727 65.8965C619.287 66.1836 618.956 66.6055 618.733 67.1621C618.517 67.7188 618.408 68.4043 618.408 69.2188C618.408 69.998 618.514 70.6631 618.725 71.2139C618.941 71.7646 619.261 72.1865 619.683 72.4795C620.11 72.7666 620.644 72.9102 621.282 72.9102C621.792 72.9102 622.252 72.8574 622.662 72.752C623.072 72.6406 623.444 72.5117 623.778 72.3652V73.666C623.456 73.8301 623.096 73.9561 622.697 74.0439C622.305 74.1318 621.836 74.1758 621.291 74.1758ZM632.629 65.6064H629.456V74H628.015V65.6064H624.886V64.3672H632.629V65.6064ZM638.14 64.209C639.288 64.209 640.141 64.4668 640.697 64.9824C641.254 65.498 641.532 66.3213 641.532 67.4521V74H640.469L640.188 72.5762H640.117C639.848 72.9277 639.566 73.2236 639.273 73.4639C638.98 73.6982 638.641 73.877 638.254 74C637.873 74.1172 637.404 74.1758 636.848 74.1758C636.262 74.1758 635.74 74.0732 635.283 73.8682C634.832 73.6631 634.475 73.3525 634.211 72.9365C633.953 72.5205 633.824 71.9932 633.824 71.3545C633.824 70.3936 634.205 69.6553 634.967 69.1396C635.729 68.624 636.889 68.3428 638.447 68.2959L640.108 68.2256V67.6367C640.108 66.8047 639.93 66.2217 639.572 65.8877C639.215 65.5537 638.711 65.3867 638.061 65.3867C637.557 65.3867 637.076 65.46 636.619 65.6064C636.162 65.7529 635.729 65.9258 635.318 66.125L634.87 65.0176C635.304 64.7949 635.802 64.6045 636.364 64.4463C636.927 64.2881 637.519 64.209 638.14 64.209ZM640.091 69.2539L638.623 69.3154C637.422 69.3623 636.575 69.5586 636.083 69.9043C635.591 70.25 635.345 70.7393 635.345 71.3721C635.345 71.9229 635.512 72.3301 635.846 72.5938C636.18 72.8574 636.622 72.9893 637.173 72.9893C638.028 72.9893 638.729 72.752 639.273 72.2773C639.818 71.8027 640.091 71.0908 640.091 70.1416V69.2539ZM649.064 64.1914C650.266 64.1914 651.224 64.6045 651.938 65.4307C652.653 66.2568 653.011 67.499 653.011 69.1572C653.011 70.2529 652.847 71.1729 652.519 71.917C652.19 72.6611 651.728 73.2236 651.13 73.6045C650.538 73.9854 649.838 74.1758 649.029 74.1758C648.52 74.1758 648.071 74.1084 647.685 73.9736C647.298 73.8389 646.967 73.6572 646.691 73.4287C646.416 73.2002 646.188 72.9512 646.006 72.6816H645.9C645.918 72.9102 645.938 73.1855 645.962 73.5078C645.991 73.8301 646.006 74.1113 646.006 74.3516V78.3066H644.538V64.3672H645.742L645.936 65.791H646.006C646.193 65.498 646.422 65.2314 646.691 64.9912C646.961 64.7451 647.289 64.5518 647.676 64.4111C648.068 64.2646 648.531 64.1914 649.064 64.1914ZM648.81 65.4219C648.142 65.4219 647.603 65.5508 647.192 65.8086C646.788 66.0664 646.492 66.4531 646.305 66.9688C646.117 67.4785 646.018 68.1201 646.006 68.8936V69.1748C646.006 69.9893 646.094 70.6777 646.27 71.2402C646.451 71.8027 646.747 72.2305 647.157 72.5234C647.573 72.8164 648.13 72.9629 648.827 72.9629C649.425 72.9629 649.923 72.8018 650.321 72.4795C650.72 72.1572 651.016 71.709 651.209 71.1348C651.408 70.5547 651.508 69.8896 651.508 69.1396C651.508 68.0029 651.285 67.1006 650.84 66.4326C650.4 65.7588 649.724 65.4219 648.81 65.4219ZM662.125 65.6064H658.952V74H657.511V65.6064H654.382V64.3672H662.125V65.6064ZM667.636 64.209C668.784 64.209 669.637 64.4668 670.193 64.9824C670.75 65.498 671.028 66.3213 671.028 67.4521V74H669.965L669.684 72.5762H669.613C669.344 72.9277 669.062 73.2236 668.77 73.4639C668.477 73.6982 668.137 73.877 667.75 74C667.369 74.1172 666.9 74.1758 666.344 74.1758C665.758 74.1758 665.236 74.0732 664.779 73.8682C664.328 73.6631 663.971 73.3525 663.707 72.9365C663.449 72.5205 663.32 71.9932 663.32 71.3545C663.32 70.3936 663.701 69.6553 664.463 69.1396C665.225 68.624 666.385 68.3428 667.943 68.2959L669.604 68.2256V67.6367C669.604 66.8047 669.426 66.2217 669.068 65.8877C668.711 65.5537 668.207 65.3867 667.557 65.3867C667.053 65.3867 666.572 65.46 666.115 65.6064C665.658 65.7529 665.225 65.9258 664.814 66.125L664.366 65.0176C664.8 64.7949 665.298 64.6045 665.86 64.4463C666.423 64.2881 667.015 64.209 667.636 64.209ZM669.587 69.2539L668.119 69.3154C666.918 69.3623 666.071 69.5586 665.579 69.9043C665.087 70.25 664.841 70.7393 664.841 71.3721C664.841 71.9229 665.008 72.3301 665.342 72.5938C665.676 72.8574 666.118 72.9893 666.669 72.9893C667.524 72.9893 668.225 72.752 668.77 72.2773C669.314 71.8027 669.587 71.0908 669.587 70.1416V69.2539ZM686.365 66.7842C686.365 67.3877 686.189 67.8594 685.838 68.1992C685.486 68.5332 685.032 68.7588 684.476 68.876V68.9463C685.079 69.0283 685.598 69.2451 686.031 69.5967C686.471 69.9424 686.69 70.4727 686.69 71.1875C686.69 71.7383 686.559 72.2246 686.295 72.6465C686.031 73.0684 685.618 73.3994 685.056 73.6396C684.493 73.8799 683.761 74 682.858 74H678.71V64.3672H682.823C683.515 64.3672 684.124 64.4463 684.651 64.6045C685.185 64.7568 685.604 65.0088 685.908 65.3604C686.213 65.7119 686.365 66.1865 686.365 66.7842ZM685.17 71.1875C685.17 70.6191 684.953 70.209 684.52 69.957C684.092 69.7051 683.468 69.5791 682.647 69.5791H680.178V72.8135H682.683C683.491 72.8135 684.106 72.6904 684.528 72.4443C684.956 72.1924 685.17 71.7734 685.17 71.1875ZM684.88 66.9512C684.88 66.4941 684.713 66.1543 684.379 65.9316C684.045 65.7031 683.497 65.5889 682.735 65.5889H680.178V68.3574H682.48C683.271 68.3574 683.869 68.2432 684.273 68.0146C684.678 67.7861 684.88 67.4316 684.88 66.9512ZM705.007 64.3672L700.999 69.0518L705.35 74H703.68L699.461 69.1133V74H698.099V69.1133L693.889 74H692.219L696.569 69.0518L692.553 64.3672H694.161L698.099 69.043V64.3672H699.461V69.043L703.416 64.3672H705.007ZM708.347 64.3672V70.4229C708.347 70.54 708.344 70.6924 708.338 70.8799C708.332 71.0615 708.323 71.2578 708.312 71.4688C708.3 71.6738 708.288 71.873 708.276 72.0664C708.271 72.2539 708.262 72.4092 708.25 72.5322L713.506 64.3672H715.299V74H713.937V68.0938C713.937 67.9062 713.939 67.666 713.945 67.373C713.951 67.0801 713.96 66.793 713.972 66.5117C713.983 66.2246 713.992 66.002 713.998 65.8438L708.76 74H706.958V64.3672H708.347ZM720.88 64.1914C721.601 64.1914 722.225 64.291 722.752 64.4902C723.279 64.6836 723.687 64.9678 723.974 65.3428C724.261 65.7178 724.404 66.1748 724.404 66.7139C724.404 67.2939 724.246 67.7568 723.93 68.1025C723.613 68.4482 723.177 68.6973 722.62 68.8496V68.9199C723.013 69.0254 723.367 69.1777 723.684 69.377C724.006 69.5703 724.261 69.8281 724.448 70.1504C724.642 70.4668 724.738 70.8623 724.738 71.3369C724.738 71.876 724.592 72.3623 724.299 72.7959C724.006 73.2236 723.561 73.5605 722.963 73.8066C722.365 74.0527 721.609 74.1758 720.695 74.1758C720.244 74.1758 719.816 74.1494 719.412 74.0967C719.008 74.0498 718.642 73.9795 718.313 73.8857C717.985 73.792 717.698 73.6807 717.452 73.5518V72.2246C717.862 72.4238 718.343 72.5996 718.894 72.752C719.444 72.9043 720.039 72.9805 720.678 72.9805C721.17 72.9805 721.612 72.9248 722.005 72.8135C722.397 72.6963 722.708 72.5117 722.937 72.2598C723.171 72.002 723.288 71.665 723.288 71.249C723.288 70.8682 723.186 70.5547 722.98 70.3086C722.775 70.0566 722.468 69.8721 722.058 69.7549C721.653 69.6318 721.141 69.5703 720.52 69.5703H719.228V68.375H720.291C721.117 68.375 721.776 68.2578 722.269 68.0234C722.761 67.7891 723.007 67.3936 723.007 66.8369C723.007 66.3564 722.816 65.999 722.436 65.7646C722.055 65.5244 721.51 65.4043 720.801 65.4043C720.273 65.4043 719.808 65.46 719.403 65.5713C718.999 65.6768 718.562 65.8291 718.094 66.0283L717.575 64.8594C718.079 64.6367 718.606 64.4697 719.157 64.3584C719.708 64.2471 720.282 64.1914 720.88 64.1914ZM728.57 64.3672V68.4102H733.94V64.3672H735.399V74H733.94V69.6494H728.57V74H727.103V64.3672H728.57ZM739.882 64.3672V70.4229C739.882 70.54 739.879 70.6924 739.873 70.8799C739.867 71.0615 739.858 71.2578 739.847 71.4688C739.835 71.6738 739.823 71.873 739.812 72.0664C739.806 72.2539 739.797 72.4092 739.785 72.5322L745.041 64.3672H746.834V74H745.472V68.0938C745.472 67.9062 745.475 67.666 745.48 67.373C745.486 67.0801 745.495 66.793 745.507 66.5117C745.519 66.2246 745.527 66.002 745.533 65.8438L740.295 74H738.493V64.3672H739.882Z" fill="#16578D"></path> </g> <defs> <filter id="filter0_d_163_14627" x="0" y="0" width="968" height="99" filterUnits="userSpaceOnUse" color-interpolation-filters="sRGB"> <feFlood flood-opacity="0" result="BackgroundImageFix"></feFlood> <feColorMatrix in="SourceAlpha" type="matrix" values="0 0 0 0 0 0 0 0 0 0 0 0 0 0 0 0 0 0 127 0" result="hardAlpha"></feColorMatrix> <feOffset dy="4"></feOffset> <feGaussianBlur stdDeviation="2"></feGaussianBlur> <feComposite in2="hardAlpha" operator="out"></feComposite> <feColorMatrix type="matrix" values="0 0 0 0 0.823529 0 0 0 0 0.72549 0 0 0 0 0.988235 0 0 0 0.68 0"></feColorMatrix> <feBlend mode="normal" in2="BackgroundImageFix" result="effect1_dropShadow_163_14627"></feBlend> <feBlend mode="normal" in="SourceGraphic" in2="effect1_dropShadow_163_14627" result="shape"></feBlend> </filter> </defs> </svg> 