<?xml version="1.0" encoding="UTF-8"?> <svg xmlns="http://www.w3.org/2000/svg" width="1068" height="114" viewBox="0 0 1068 114" fill="none"> <g filter="url(#filter0_d_163_14633)"> <rect x="4" width="1060" height="106" rx="53" fill="#B0DFE2"></rect> <path d="M351.547 50.6875C350.224 50.6875 349.245 50.3125 348.609 49.5625C348.057 48.9167 347.781 48.0885 347.781 47.0781C347.781 46.599 347.839 46.0417 347.953 45.4062C348.078 44.7708 348.26 43.9531 348.5 42.9531C348.74 41.9323 348.917 41.1198 349.031 40.5156C349.156 39.901 349.219 39.3698 349.219 38.9219C349.219 37.8281 348.833 37.2812 348.062 37.2812C347.521 37.2812 347.021 37.5677 346.562 38.1406C346.177 38.6302 345.844 39.3281 345.562 40.2344L343.391 50.5H338.781L342.172 34.5H346.781L346.438 36.1562C347.062 35.4583 347.734 34.9688 348.453 34.6875C348.984 34.4792 349.557 34.375 350.172 34.375C351.255 34.375 352.109 34.6562 352.734 35.2188C353.401 35.8333 353.734 36.7552 353.734 37.9844C353.734 38.724 353.599 39.6875 353.328 40.875C353.255 41.2188 353.135 41.7344 352.969 42.4219C352.667 43.5781 352.448 44.5 352.312 45.1875C352.229 45.625 352.188 45.9792 352.188 46.25C352.188 46.6771 352.281 47.0104 352.469 47.25C352.667 47.4792 353 47.5938 353.469 47.5938C354.104 47.5938 354.641 47.3333 355.078 46.8125C355.411 46.4167 355.771 45.7344 356.156 44.7656H357.5C356.708 47.1094 355.708 48.75 354.5 49.6875C353.646 50.3542 352.661 50.6875 351.547 50.6875ZM360.734 50.6875C359.161 50.6875 357.948 50.2917 357.094 49.5C356.188 48.6562 355.734 47.3594 355.734 45.6094C355.734 44.9531 355.802 44.224 355.938 43.4219C356.062 42.6094 356.26 41.8021 356.531 41C357.167 39.0521 358.068 37.5 359.234 36.3438C360.672 34.9271 362.375 34.2188 364.344 34.2188C365.625 34.2188 366.573 34.526 367.188 35.1406C367.667 35.6302 367.906 36.3021 367.906 37.1562C367.906 37.9062 367.74 38.4896 367.406 38.9062C367.094 39.2917 366.693 39.4844 366.203 39.4844C365.849 39.4844 365.474 39.3594 365.078 39.1094C365.339 38.4323 365.469 37.8021 365.469 37.2188C365.469 36.8125 365.391 36.4948 365.234 36.2656C365.089 36.026 364.87 35.9062 364.578 35.9062C363.953 35.9062 363.302 36.4583 362.625 37.5625C362.01 38.5417 361.5 39.7865 361.094 41.2969C360.677 42.776 360.469 44.1146 360.469 45.3125C360.469 46.3542 360.667 47.0729 361.062 47.4688C361.406 47.8229 361.979 48 362.781 48C363.938 48 364.995 47.6875 365.953 47.0625C366.359 46.8021 366.75 46.4948 367.125 46.1406C367.5 45.776 367.938 45.3177 368.438 44.7656H369.531C368.521 46.474 367.359 47.8333 366.047 48.8438C364.432 50.0729 362.661 50.6875 360.734 50.6875ZM371.609 50.6875C370.589 50.6875 369.781 50.3854 369.188 49.7812C368.521 49.1146 368.188 48.1406 368.188 46.8594C368.188 46.2552 368.271 45.5573 368.438 44.7656L370.609 34.5H375.219L372.922 45.375C372.859 45.6979 372.828 46 372.828 46.2812C372.828 47.1562 373.146 47.5938 373.781 47.5938C374.365 47.5938 374.891 47.3281 375.359 46.7969C375.734 46.349 376.062 45.6719 376.344 44.7656L378.516 34.5H383.125L380.828 45.375C380.734 45.6875 380.688 46.0312 380.688 46.4062C380.688 46.8438 380.792 47.151 381 47.3281C381.208 47.5052 381.542 47.5938 382 47.5938C382.594 47.5938 383.125 47.3281 383.594 46.7969C384.01 46.3281 384.344 45.651 384.594 44.7656H385.938C385.365 46.3906 384.672 47.6771 383.859 48.625C383.172 49.4062 382.396 49.9688 381.531 50.3125C380.896 50.5625 380.224 50.6875 379.516 50.6875C378.599 50.6875 377.87 50.4323 377.328 49.9219C376.786 49.4115 376.458 48.6562 376.344 47.6562C375.615 48.8229 374.792 49.6562 373.875 50.1562C373.219 50.5104 372.464 50.6875 371.609 50.6875ZM396.109 50.6875C395.13 50.6875 394.323 50.25 393.688 49.375C392.99 48.4167 392.495 47 392.203 45.125L387.797 50.5H385.484L391.953 43.2031L391.438 39.625C391.271 38.5938 391.094 37.8802 390.906 37.4844C390.74 37.1406 390.51 36.9688 390.219 36.9688C389.896 36.9688 389.547 37.1302 389.172 37.4531C388.807 37.776 388.432 38.2552 388.047 38.8906C387.161 40.3594 386.458 42.3177 385.938 44.7656H384.594C385.01 42.9219 385.5 41.3177 386.062 39.9531C386.74 38.2656 387.552 36.9427 388.5 35.9844C389.594 34.8906 390.807 34.3438 392.141 34.3438C393.286 34.3438 394.167 34.7708 394.781 35.625C395.229 36.2604 395.505 37.099 395.609 38.1406L395.891 40.5781C396.797 39.5677 397.474 38.6979 397.922 37.9688C398.37 37.2292 398.62 36.5625 398.672 35.9688C398.464 36.0104 398.281 36.0312 398.125 36.0312C397.604 36.0312 397.219 35.8542 396.969 35.5C396.74 35.2083 396.625 34.7917 396.625 34.25C396.625 33.7396 396.844 33.3333 397.281 33.0312C397.656 32.7917 398.161 32.6719 398.797 32.6719C399.078 32.6719 399.333 32.7552 399.562 32.9219C399.792 33.0885 399.984 33.3125 400.141 33.5938C400.286 33.875 400.396 34.1927 400.469 34.5469C400.552 34.8906 400.594 35.2396 400.594 35.5938C400.594 36.0833 400.505 36.5781 400.328 37.0781C400.151 37.5677 399.875 38.0833 399.5 38.625C399.156 39.125 398.724 39.6719 398.203 40.2656C397.693 40.8594 397.005 41.625 396.141 42.5625L396.438 44.7969C396.562 45.8177 396.786 46.5469 397.109 46.9844C397.401 47.3906 397.839 47.5938 398.422 47.5938C399.036 47.5938 399.609 47.3281 400.141 46.7969C400.651 46.2865 401.036 45.6094 401.297 44.7656H402.641C401.87 46.9948 400.802 48.6042 399.438 49.5938C398.427 50.3229 397.318 50.6875 396.109 50.6875ZM417.5 50.6875C416.562 50.6875 415.797 50.4427 415.203 49.9531C414.703 49.5573 414.349 48.974 414.141 48.2031C413.047 48.8906 411.74 49.4635 410.219 49.9219C408.667 50.3906 407.255 50.625 405.984 50.625C404.401 50.625 403.177 50.2396 402.312 49.4688C401.344 48.6146 400.859 47.3177 400.859 45.5781C400.859 44.9219 400.927 44.1979 401.062 43.4062C401.198 42.6042 401.406 41.7969 401.688 40.9844C402.333 39.0469 403.255 37.5 404.453 36.3438C405.901 34.9271 407.625 34.2188 409.625 34.2188C412.365 34.2188 413.734 35.9219 413.734 39.3281C413.734 41.2135 413.49 42.9062 413 44.4062C412.521 45.8958 411.844 47.1615 410.969 48.2031C412.229 47.776 413.234 47.3281 413.984 46.8594C414.036 46.1302 414.234 45.5573 414.578 45.1406C414.922 44.724 415.385 44.5156 415.969 44.5156C416.469 44.5156 416.87 44.6719 417.172 44.9844C417.474 45.2865 417.625 45.6875 417.625 46.1875C417.625 46.6458 417.521 47.0104 417.312 47.2812C417.104 47.5417 416.844 47.6719 416.531 47.6719C416.458 47.6719 416.401 47.6667 416.359 47.6562C416.38 47.9479 416.469 48.1719 416.625 48.3281C416.823 48.5573 417.146 48.6719 417.594 48.6719C418.094 48.6719 418.505 48.5104 418.828 48.1875C419.151 47.8646 419.432 47.3958 419.672 46.7812C419.891 46.1562 420.073 45.4896 420.219 44.7812C420.333 44.1875 420.458 43.5781 420.594 42.9531L420.703 42.4375C421.036 40.8021 421.406 39.4635 421.812 38.4219C422.229 37.3802 422.698 36.5625 423.219 35.9688C423.688 35.4167 424.214 35.0365 424.797 34.8281C425.391 34.6094 426.073 34.5 426.844 34.5H431.547L429.281 45.375C429.198 45.6458 429.156 45.9896 429.156 46.4062C429.156 46.8438 429.255 47.151 429.453 47.3281C429.661 47.5052 430 47.5938 430.469 47.5938C430.74 47.5938 430.938 47.5781 431.062 47.5469C431.188 47.5156 431.328 47.4635 431.484 47.3906C431.411 48.4531 431.021 49.2865 430.312 49.8906C430 50.1615 429.641 50.3646 429.234 50.5C428.839 50.625 428.417 50.6875 427.969 50.6875C426.99 50.6875 426.229 50.3854 425.688 49.7812C425.073 49.1146 424.766 48.1406 424.766 46.8594C424.766 46.3177 424.854 45.6198 425.031 44.7656L426.781 36.6094C426.219 36.6094 425.74 36.724 425.344 36.9531C424.948 37.1823 424.599 37.5417 424.297 38.0312C424.005 38.5 423.74 39.1094 423.5 39.8594C423.26 40.6094 423.01 41.5729 422.75 42.75L422.688 43.0625C422.365 44.5729 422.089 45.7344 421.859 46.5469C421.641 47.3594 421.375 48.0521 421.062 48.625C420.677 49.3229 420.198 49.8438 419.625 50.1875C419.062 50.5208 418.354 50.6875 417.5 50.6875ZM407.266 47.75C407.724 47.75 408.182 47.5156 408.641 47.0469C409.109 46.5677 409.536 45.9115 409.922 45.0781C410.297 44.2344 410.594 43.2656 410.812 42.1719C411.031 41.0781 411.141 39.9375 411.141 38.75C411.141 37.8333 411.052 37.1719 410.875 36.7656C410.698 36.3594 410.37 36.1562 409.891 36.1562C409.172 36.1562 408.469 36.6979 407.781 37.7812C407.146 38.7604 406.625 39.9688 406.219 41.4062C405.823 42.8125 405.625 44.0625 405.625 45.1562C405.625 45.6875 405.651 46.1198 405.703 46.4531C405.766 46.7865 405.865 47.0469 406 47.2344C406.125 47.4219 406.286 47.5573 406.484 47.6406C406.682 47.7135 406.943 47.75 407.266 47.75ZM436.234 50.625C434.651 50.625 433.427 50.2396 432.562 49.4688C431.594 48.6146 431.109 47.3177 431.109 45.5781C431.109 44.9219 431.177 44.1979 431.312 43.4062C431.448 42.6042 431.656 41.7969 431.938 40.9844C432.583 39.0469 433.505 37.5 434.703 36.3438C436.151 34.9271 437.875 34.2188 439.875 34.2188C442.615 34.2188 443.984 35.9219 443.984 39.3281V39.3594C444.047 39.3802 444.099 39.3906 444.141 39.3906H444.328C445.036 39.3906 445.875 39.1927 446.844 38.7969C447.698 38.4427 448.505 38 449.266 37.4688L449.547 38.3438C448.922 39 448.115 39.5573 447.125 40.0156C446.146 40.474 445.062 40.8021 443.875 41C443.75 42.4479 443.469 43.7708 443.031 44.9688C442.594 46.1562 442.031 47.1771 441.344 48.0312C440.667 48.8646 439.891 49.5052 439.016 49.9531C438.141 50.401 437.214 50.625 436.234 50.625ZM437.516 47.75C437.891 47.75 438.271 47.5833 438.656 47.25C439.052 46.9062 439.422 46.4323 439.766 45.8281C440.109 45.224 440.406 44.5156 440.656 43.7031C440.906 42.8906 441.094 42.0208 441.219 41.0938C440.906 41.0104 440.682 40.8542 440.547 40.625C440.422 40.3958 440.359 40.1042 440.359 39.75C440.359 39.3125 440.448 38.9479 440.625 38.6562C440.802 38.3646 441.047 38.151 441.359 38.0156C441.318 37.3385 441.208 36.8542 441.031 36.5625C440.938 36.4167 440.818 36.3125 440.672 36.25C440.536 36.1875 440.359 36.1562 440.141 36.1562C439.422 36.1562 438.719 36.6979 438.031 37.7812C437.396 38.7604 436.875 39.9688 436.469 41.4062C436.073 42.8125 435.875 44.0625 435.875 45.1562C435.875 45.6875 435.901 46.1198 435.953 46.4531C436.016 46.7865 436.115 47.0469 436.25 47.2344C436.375 47.4219 436.536 47.5573 436.734 47.6406C436.932 47.7135 437.193 47.75 437.516 47.75ZM449.906 50.6875C448.354 50.6875 447.151 50.401 446.297 49.8281C445.401 49.2344 444.953 48.3177 444.953 47.0781C444.953 46.0052 445.307 45.0625 446.016 44.25C446.297 43.9167 446.625 43.6042 447 43.3125C447.385 43.0208 447.833 42.7188 448.344 42.4062C448.99 42.0104 449.469 41.7083 449.781 41.5C450.104 41.2812 450.406 41.0417 450.688 40.7812C451.021 40.4583 451.276 40.125 451.453 39.7812C451.641 39.4375 451.734 39.0521 451.734 38.625C451.734 38.1458 451.609 37.776 451.359 37.5156C451.12 37.2552 450.755 37.125 450.266 37.125C449.568 37.125 448.938 37.3906 448.375 37.9219C447.823 38.4531 447.302 39.2969 446.812 40.4531H445.266C445.964 38.4635 446.818 36.9688 447.828 35.9688C448.995 34.8021 450.469 34.2188 452.25 34.2188C452.833 34.2188 453.38 34.2917 453.891 34.4375C454.411 34.5729 454.87 34.7812 455.266 35.0625C455.682 35.3646 456 35.75 456.219 36.2188C456.448 36.6771 456.562 37.2135 456.562 37.8281C456.562 38.651 456.406 39.375 456.094 40C455.792 40.6146 455.365 41.1771 454.812 41.6875C454.323 42.1354 453.781 42.5417 453.188 42.9062C452.469 43.3438 451.885 43.7188 451.438 44.0312C450.99 44.3333 450.615 44.6562 450.312 45C449.979 45.3854 449.812 45.8229 449.812 46.3125C449.812 46.9062 450.01 47.3385 450.406 47.6094C450.802 47.8698 451.365 48 452.094 48C453.073 48 453.974 47.7604 454.797 47.2812C455.693 46.7812 456.635 45.9427 457.625 44.7656H458.719C457.573 46.599 456.359 47.9896 455.078 48.9375C453.526 50.1042 451.802 50.6875 449.906 50.6875ZM460.797 50.6875C459.776 50.6875 458.969 50.3854 458.375 49.7812C457.708 49.1146 457.375 48.1406 457.375 46.8594C457.375 46.2552 457.458 45.5573 457.625 44.7656L459.797 34.5H464.406L462.109 45.375C462.047 45.6979 462.016 46 462.016 46.2812C462.016 47.1562 462.333 47.5938 462.969 47.5938C463.552 47.5938 464.078 47.3281 464.547 46.7969C464.922 46.349 465.25 45.6719 465.531 44.7656L467.703 34.5H472.312L470.016 45.375C469.922 45.6875 469.875 46.0312 469.875 46.4062C469.875 46.8438 469.979 47.151 470.188 47.3281C470.396 47.5052 470.729 47.5938 471.188 47.5938C471.958 47.5938 472.635 47.0312 473.219 45.9062C473.625 45.1146 473.995 43.974 474.328 42.4844C474.443 41.9427 474.552 41.401 474.656 40.8594C474.729 40.4115 474.802 40.0312 474.875 39.7188L475.969 34.5H480.562L479.328 40.4531C479.255 40.7344 479.219 41.0312 479.219 41.3438C479.219 42.2188 479.542 42.6562 480.188 42.6562C480.802 42.6562 481.339 42.3958 481.797 41.875C482.245 41.3646 482.562 40.6875 482.75 39.8438L483.859 34.5H488.469L486.172 45.375C486.089 45.6458 486.047 45.9896 486.047 46.4062C486.047 46.8438 486.146 47.151 486.344 47.3281C486.552 47.5052 486.891 47.5938 487.359 47.5938C487.63 47.5938 487.828 47.5781 487.953 47.5469C488.078 47.5156 488.219 47.4635 488.375 47.3906C488.302 48.4427 487.906 49.276 487.188 49.8906C486.875 50.151 486.516 50.349 486.109 50.4844C485.703 50.6198 485.286 50.6875 484.859 50.6875C483.839 50.6875 483.031 50.3854 482.438 49.7812C481.771 49.1146 481.438 48.1406 481.438 46.8594C481.438 46.2552 481.521 45.5573 481.688 44.7656L481.844 43.9688C481.208 44.6562 480.536 45.1406 479.828 45.4219C479.276 45.651 478.672 45.7656 478.016 45.7656C477.411 45.7656 476.865 45.6562 476.375 45.4375C475.896 45.2188 475.51 44.8802 475.219 44.4219C474.625 46.3177 473.828 47.7917 472.828 48.8438C471.682 50.0729 470.307 50.6875 468.703 50.6875C467.786 50.6875 467.057 50.4323 466.516 49.9219C465.974 49.4115 465.646 48.6562 465.531 47.6562C464.802 48.8229 463.979 49.6562 463.062 50.1562C462.406 50.5104 461.651 50.6875 460.797 50.6875ZM493.047 50.6875C491.474 50.6875 490.26 50.2917 489.406 49.5C488.5 48.6562 488.047 47.3594 488.047 45.6094C488.047 44.9531 488.115 44.224 488.25 43.4219C488.375 42.6198 488.568 41.8177 488.828 41.0156C489.12 40.1198 489.49 39.2708 489.938 38.4688C490.396 37.6667 490.927 36.9583 491.531 36.3438C492.927 34.9271 494.646 34.2188 496.688 34.2188C497.99 34.2188 498.938 34.5312 499.531 35.1562C499.99 35.6458 500.219 36.3542 500.219 37.2812C500.219 38.1875 500.021 39.0417 499.625 39.8438C499.229 40.6354 498.682 41.3385 497.984 41.9531C497.286 42.5573 496.495 43.0417 495.609 43.4062C494.724 43.7604 493.807 43.9688 492.859 44.0312C492.807 44.5729 492.781 45 492.781 45.3125C492.781 46.3542 492.979 47.0729 493.375 47.4688C493.719 47.8229 494.292 48 495.094 48C496.25 48 497.307 47.6875 498.266 47.0625C498.672 46.8021 499.062 46.4948 499.438 46.1406C499.812 45.776 500.25 45.3177 500.75 44.7656H501.844C500.833 46.474 499.672 47.8333 498.359 48.8438C496.745 50.0729 494.974 50.6875 493.047 50.6875ZM493.109 42.5C493.703 42.4583 494.281 42.2865 494.844 41.9844C495.406 41.6823 495.906 41.2865 496.344 40.7969C496.781 40.2969 497.125 39.7396 497.375 39.125C497.625 38.5 497.75 37.8646 497.75 37.2188C497.75 36.7917 497.688 36.4688 497.562 36.25C497.448 36.0208 497.245 35.9062 496.953 35.9062C496.568 35.9062 496.177 36.0938 495.781 36.4688C495.396 36.8438 495.021 37.3594 494.656 38.0156C494.323 38.6302 494.021 39.3281 493.75 40.1094C493.479 40.8906 493.266 41.6875 493.109 42.5ZM505.328 50.6875C503.755 50.6875 502.542 50.2917 501.688 49.5C500.781 48.6562 500.328 47.3594 500.328 45.6094C500.328 44.9531 500.396 44.224 500.531 43.4219C500.656 42.6094 500.854 41.8021 501.125 41C501.76 39.0521 502.661 37.5 503.828 36.3438C505.266 34.9271 506.969 34.2188 508.938 34.2188C510.219 34.2188 511.167 34.526 511.781 35.1406C512.26 35.6302 512.5 36.3021 512.5 37.1562C512.5 37.9062 512.333 38.4896 512 38.9062C511.688 39.2917 511.286 39.4844 510.797 39.4844C510.443 39.4844 510.068 39.3594 509.672 39.1094C509.932 38.4323 510.062 37.8021 510.062 37.2188C510.062 36.8125 509.984 36.4948 509.828 36.2656C509.682 36.026 509.464 35.9062 509.172 35.9062C508.547 35.9062 507.896 36.4583 507.219 37.5625C506.604 38.5417 506.094 39.7865 505.688 41.2969C505.271 42.776 505.062 44.1146 505.062 45.3125C505.062 46.3542 505.26 47.0729 505.656 47.4688C506 47.8229 506.573 48 507.375 48C508.531 48 509.589 47.6875 510.547 47.0625C510.953 46.8021 511.344 46.4948 511.719 46.1406C512.094 45.776 512.531 45.3177 513.031 44.7656H514.125C513.115 46.474 511.953 47.8333 510.641 48.8438C509.026 50.0729 507.255 50.6875 505.328 50.6875ZM524.578 50.6875C523.307 50.6875 522.344 50.375 521.688 49.75C521.042 49.125 520.719 48.2552 520.719 47.1406C520.719 46.776 520.781 46.2292 520.906 45.5C520.927 45.3333 520.948 45.2188 520.969 45.1562C520.99 44.9479 521.01 44.8073 521.031 44.7344C521.073 44.526 521.094 44.3125 521.094 44.0938C521.094 43.0729 520.688 42.5625 519.875 42.5625C519.604 42.5625 519.312 42.6562 519 42.8438L518.484 43.2188L517.828 43.75L516.422 50.5H511.812L515.234 34.5H519.844L518.469 40.8438C519.156 40.1562 519.823 39.4635 520.469 38.7656L520.703 38.5C521.943 37.1667 522.786 36.276 523.234 35.8281C523.974 35.0885 524.672 34.6094 525.328 34.3906C525.693 34.276 526.073 34.2188 526.469 34.2188C527.188 34.2188 527.734 34.4167 528.109 34.8125C528.484 35.1979 528.672 35.7031 528.672 36.3281C528.672 36.9844 528.495 37.4948 528.141 37.8594C527.797 38.224 527.302 38.4062 526.656 38.4062C526.062 38.4062 525.609 38.224 525.297 37.8594C525.016 37.5469 524.885 37.1823 524.906 36.7656C524.573 36.9635 524.255 37.1979 523.953 37.4688C523.661 37.7292 523.339 38.0417 522.984 38.4062L522.672 38.75C522.526 38.8958 522.328 39.1146 522.078 39.4062C521.818 39.7083 521.5 40.0469 521.125 40.4219C521.49 40.3385 521.938 40.2969 522.469 40.2969C523.573 40.2969 524.37 40.5521 524.859 41.0625C525.297 41.5104 525.516 42.2448 525.516 43.2656C525.516 43.6094 525.453 44.1146 525.328 44.7812C525.276 45.0417 525.229 45.3177 525.188 45.6094C525.146 45.8906 525.125 46.1562 525.125 46.4062C525.125 47.1979 525.552 47.5938 526.406 47.5938C526.729 47.5938 527.005 47.5417 527.234 47.4375C527.474 47.3229 527.693 47.1458 527.891 46.9062C528.078 46.6875 528.26 46.4115 528.438 46.0781C528.615 45.7448 528.823 45.3073 529.062 44.7656H530.406C529.062 48.7135 527.12 50.6875 524.578 50.6875ZM532.906 50.6875C531.688 50.6875 530.703 50.3073 529.953 49.5469C529.078 48.651 528.641 47.3177 528.641 45.5469C528.641 44.7969 528.719 44.0052 528.875 43.1719C529.021 42.3385 529.24 41.5156 529.531 40.7031C530.198 38.8698 531.109 37.3906 532.266 36.2656C533.599 34.9844 535.135 34.3438 536.875 34.3438C537.74 34.3438 538.385 34.4948 538.812 34.7969C539.25 35.0885 539.469 35.4792 539.469 35.9688V36.2031L539.812 34.5H544.422L542.125 45.375C542.031 45.6875 541.984 46.0312 541.984 46.4062C541.984 47.3229 542.422 47.7812 543.297 47.7812C543.88 47.7812 544.411 47.4844 544.891 46.8906C545.297 46.3906 545.63 45.6823 545.891 44.7656H547.234C546.661 46.3906 545.969 47.6771 545.156 48.625C544.469 49.4062 543.693 49.9688 542.828 50.3125C542.193 50.5625 541.521 50.6875 540.812 50.6875C539.906 50.6875 539.182 50.4427 538.641 49.9531C538.109 49.4531 537.786 48.7188 537.672 47.75C537.068 48.6042 536.432 49.2708 535.766 49.75C534.911 50.375 533.958 50.6875 532.906 50.6875ZM534.984 47.5938C535.224 47.5938 535.474 47.5312 535.734 47.4062C536.005 47.2812 536.266 47.1042 536.516 46.875C537.078 46.3333 537.453 45.6302 537.641 44.7656L539.172 37.5469C539.172 37.4427 539.146 37.3229 539.094 37.1875C539.052 37.0417 538.99 36.9062 538.906 36.7812C538.656 36.4792 538.307 36.3281 537.859 36.3281C537.432 36.3281 537.016 36.4688 536.609 36.75C536.214 37.0312 535.839 37.4219 535.484 37.9219C534.859 38.8281 534.344 40.0104 533.938 41.4688C533.75 42.1146 533.609 42.7552 533.516 43.3906C533.422 44.0156 533.375 44.5833 533.375 45.0938C533.375 46.1562 533.573 46.875 533.969 47.25C534.104 47.3958 534.255 47.4896 534.422 47.5312C534.589 47.5729 534.776 47.5938 534.984 47.5938ZM548.281 50.6875C547.146 50.6875 546.25 50.3229 545.594 49.5938C545.302 49.2708 545.078 48.8906 544.922 48.4531C544.766 48.0156 544.688 47.5573 544.688 47.0781C544.688 46.3177 544.865 45.7031 545.219 45.2344C545.573 44.7552 546.057 44.5156 546.672 44.5156C547.172 44.5156 547.573 44.6719 547.875 44.9844C548.188 45.2865 548.344 45.6875 548.344 46.1875C548.344 46.6458 548.234 47.0104 548.016 47.2812C547.807 47.5417 547.547 47.6719 547.234 47.6719C547.161 47.6719 547.104 47.6667 547.062 47.6562C547.083 47.9375 547.177 48.1615 547.344 48.3281C547.552 48.5573 547.875 48.6719 548.312 48.6719C548.677 48.6719 548.995 48.5625 549.266 48.3438C549.536 48.1146 549.776 47.7812 549.984 47.3438C550.172 46.9375 550.349 46.4479 550.516 45.875C550.682 45.2917 550.854 44.5833 551.031 43.75C550.094 43.5521 549.365 43.1562 548.844 42.5625C548.271 41.9062 547.984 41.0625 547.984 40.0312C547.984 38.3854 548.594 37.0885 549.812 36.1406C551.229 35.0469 553.427 34.5 556.406 34.5H561.266L559.562 42.4375L559 44.9062C558.865 45.5104 558.797 45.9583 558.797 46.25C558.797 47.1458 559.224 47.5938 560.078 47.5938C560.401 47.5938 560.682 47.5417 560.922 47.4375C561.161 47.3229 561.385 47.1458 561.594 46.9062C561.781 46.6875 561.958 46.4167 562.125 46.0938C562.302 45.7708 562.516 45.3281 562.766 44.7656H564.109C562.766 48.7135 560.781 50.6875 558.156 50.6875C556.927 50.6875 555.979 50.3438 555.312 49.6562C555.01 49.3542 554.781 49 554.625 48.5938C554.469 48.1771 554.391 47.7448 554.391 47.2969C554.391 46.9948 554.422 46.6302 554.484 46.2031C554.547 45.7969 554.708 44.9688 554.969 43.7188C554.396 43.8438 553.797 43.9062 553.172 43.9062C552.88 45.1354 552.604 46.1458 552.344 46.9375C552.094 47.7292 551.802 48.3906 551.469 48.9219C551.104 49.5156 550.661 49.9583 550.141 50.25C549.63 50.5417 549.01 50.6875 548.281 50.6875ZM554.844 42.4062H554.922C554.995 42.4062 555.104 42.3854 555.25 42.3438L556.594 36.2344H555.828C554.589 36.2344 553.641 36.5781 552.984 37.2656C552.661 37.5885 552.417 37.9792 552.25 38.4375C552.094 38.8958 552.016 39.3958 552.016 39.9375C552.016 40.8333 552.24 41.4792 552.688 41.875C553.073 42.2292 553.62 42.4062 554.328 42.4062H554.844ZM581.266 50.6875C579.943 50.6875 578.964 50.3125 578.328 49.5625C577.776 48.9167 577.5 48.0885 577.5 47.0781C577.5 46.599 577.557 46.0417 577.672 45.4062C577.797 44.7708 577.979 43.9531 578.219 42.9531C578.458 41.9323 578.635 41.1198 578.75 40.5156C578.875 39.901 578.938 39.3698 578.938 38.9219C578.938 37.8281 578.552 37.2812 577.781 37.2812C577.24 37.2812 576.74 37.5677 576.281 38.1406C575.896 38.6302 575.562 39.3281 575.281 40.2344L573.109 50.5H568.5L571.891 34.5H576.5L576.156 36.1562C576.781 35.4583 577.453 34.9688 578.172 34.6875C578.703 34.4792 579.276 34.375 579.891 34.375C580.974 34.375 581.828 34.6562 582.453 35.2188C583.12 35.8333 583.453 36.7552 583.453 37.9844C583.453 38.724 583.318 39.6875 583.047 40.875C582.974 41.2188 582.854 41.7344 582.688 42.4219C582.385 43.5781 582.167 44.5 582.031 45.1875C581.948 45.625 581.906 45.9792 581.906 46.25C581.906 46.6771 582 47.0104 582.188 47.25C582.385 47.4792 582.719 47.5938 583.188 47.5938C583.823 47.5938 584.359 47.3333 584.797 46.8125C585.13 46.4167 585.49 45.7344 585.875 44.7656H587.219C586.427 47.1094 585.427 48.75 584.219 49.6875C583.365 50.3542 582.38 50.6875 581.266 50.6875ZM590.547 50.625C588.964 50.625 587.74 50.2396 586.875 49.4688C585.906 48.6146 585.422 47.3177 585.422 45.5781C585.422 44.9219 585.49 44.1979 585.625 43.4062C585.76 42.6042 585.969 41.7969 586.25 40.9844C586.896 39.0469 587.818 37.5 589.016 36.3438C590.464 34.9271 592.188 34.2188 594.188 34.2188C596.927 34.2188 598.297 35.9219 598.297 39.3281V39.3594C598.359 39.3802 598.411 39.3906 598.453 39.3906H598.641C599.349 39.3906 600.188 39.1927 601.156 38.7969C602.01 38.4427 602.818 38 603.578 37.4688L603.859 38.3438C603.234 39 602.427 39.5573 601.438 40.0156C600.458 40.474 599.375 40.8021 598.188 41C598.062 42.4479 597.781 43.7708 597.344 44.9688C596.906 46.1562 596.344 47.1771 595.656 48.0312C594.979 48.8646 594.203 49.5052 593.328 49.9531C592.453 50.401 591.526 50.625 590.547 50.625ZM591.828 47.75C592.203 47.75 592.583 47.5833 592.969 47.25C593.365 46.9062 593.734 46.4323 594.078 45.8281C594.422 45.224 594.719 44.5156 594.969 43.7031C595.219 42.8906 595.406 42.0208 595.531 41.0938C595.219 41.0104 594.995 40.8542 594.859 40.625C594.734 40.3958 594.672 40.1042 594.672 39.75C594.672 39.3125 594.76 38.9479 594.938 38.6562C595.115 38.3646 595.359 38.151 595.672 38.0156C595.63 37.3385 595.521 36.8542 595.344 36.5625C595.25 36.4167 595.13 36.3125 594.984 36.25C594.849 36.1875 594.672 36.1562 594.453 36.1562C593.734 36.1562 593.031 36.6979 592.344 37.7812C591.708 38.7604 591.188 39.9688 590.781 41.4062C590.385 42.8125 590.188 44.0625 590.188 45.1562C590.188 45.6875 590.214 46.1198 590.266 46.4531C590.328 46.7865 590.427 47.0469 590.562 47.2344C590.688 47.4219 590.849 47.5573 591.047 47.6406C591.245 47.7135 591.505 47.75 591.828 47.75ZM605.594 58.5C605.094 58.5 604.625 58.4323 604.188 58.2969C603.76 58.1719 603.391 57.9792 603.078 57.7188C602.745 57.4583 602.484 57.1302 602.297 56.7344C602.109 56.349 602.016 55.901 602.016 55.3906C602.016 54.1823 602.583 53.1458 603.719 52.2812C604.573 51.6458 605.745 51.0938 607.234 50.625L607.625 48.9375C606.531 50.1042 605.25 50.6875 603.781 50.6875C602.562 50.6875 601.578 50.3073 600.828 49.5469C599.953 48.651 599.516 47.3177 599.516 45.5469C599.516 44.7969 599.594 44.0052 599.75 43.1719C599.896 42.3385 600.115 41.5156 600.406 40.7031C601.073 38.8698 601.984 37.3906 603.141 36.2656C604.474 34.9844 606.01 34.3438 607.75 34.3438C608.615 34.3438 609.26 34.4948 609.688 34.7969C610.125 35.0885 610.344 35.4792 610.344 35.9688V36.1562L610.688 34.5H615.297L612.125 49.3438C613.135 49.0104 613.943 48.5104 614.547 47.8438C615.203 47.125 615.74 46.099 616.156 44.7656H617.5C616.927 46.6615 616.073 48.125 614.938 49.1562C614.104 49.9062 613.073 50.4375 611.844 50.75L611.359 53.0625C610.953 55.1042 610.141 56.5833 608.922 57.5C608.036 58.1667 606.927 58.5 605.594 58.5ZM605.859 47.5938C606.318 47.5938 606.802 47.3802 607.312 46.9531C607.865 46.474 608.234 45.8542 608.422 45.0938L610.047 37.5156C610.047 37.4115 610.021 37.2917 609.969 37.1562C609.927 37.0208 609.865 36.8958 609.781 36.7812C609.531 36.4792 609.182 36.3281 608.734 36.3281C608.307 36.3281 607.891 36.4688 607.484 36.75C607.089 37.0312 606.714 37.4219 606.359 37.9219C605.734 38.8281 605.219 40.0104 604.812 41.4688C604.625 42.1146 604.484 42.7552 604.391 43.3906C604.297 44.0156 604.25 44.5833 604.25 45.0938C604.25 46.1562 604.448 46.875 604.844 47.25C604.979 47.3958 605.13 47.4896 605.297 47.5312C605.464 47.5729 605.651 47.5938 605.859 47.5938ZM604.859 56C605.193 56 605.536 55.7656 605.891 55.2969C606.245 54.8385 606.521 54.125 606.719 53.1562L606.906 52.2344C605.938 52.599 605.214 52.9688 604.734 53.3438C604.099 53.8229 603.781 54.3594 603.781 54.9531C603.781 55.2344 603.87 55.4688 604.047 55.6562C604.245 55.8854 604.516 56 604.859 56ZM620.438 50.6875C618.885 50.6875 617.682 50.401 616.828 49.8281C615.932 49.2344 615.484 48.3177 615.484 47.0781C615.484 46.0052 615.839 45.0625 616.547 44.25C616.828 43.9167 617.156 43.6042 617.531 43.3125C617.917 43.0208 618.365 42.7188 618.875 42.4062C619.521 42.0104 620 41.7083 620.312 41.5C620.635 41.2812 620.938 41.0417 621.219 40.7812C621.552 40.4583 621.807 40.125 621.984 39.7812C622.172 39.4375 622.266 39.0521 622.266 38.625C622.266 38.1458 622.141 37.776 621.891 37.5156C621.651 37.2552 621.286 37.125 620.797 37.125C620.099 37.125 619.469 37.3906 618.906 37.9219C618.354 38.4531 617.833 39.2969 617.344 40.4531H615.797C616.495 38.4635 617.349 36.9688 618.359 35.9688C619.526 34.8021 621 34.2188 622.781 34.2188C623.365 34.2188 623.911 34.2917 624.422 34.4375C624.943 34.5729 625.401 34.7812 625.797 35.0625C626.214 35.3646 626.531 35.75 626.75 36.2188C626.979 36.6771 627.094 37.2135 627.094 37.8281C627.094 38.651 626.938 39.375 626.625 40C626.323 40.6146 625.896 41.1771 625.344 41.6875C624.854 42.1354 624.312 42.5417 623.719 42.9062C623 43.3438 622.417 43.7188 621.969 44.0312C621.521 44.3333 621.146 44.6562 620.844 45C620.51 45.3854 620.344 45.8229 620.344 46.3125C620.344 46.9062 620.542 47.3385 620.938 47.6094C621.333 47.8698 621.896 48 622.625 48C623.604 48 624.505 47.7604 625.328 47.2812C626.224 46.7812 627.167 45.9427 628.156 44.7656H629.25C628.104 46.599 626.891 47.9896 625.609 48.9375C624.057 50.1042 622.333 50.6875 620.438 50.6875ZM632.828 50.625C631.245 50.625 630.021 50.2396 629.156 49.4688C628.188 48.6146 627.703 47.3177 627.703 45.5781C627.703 44.9219 627.771 44.1979 627.906 43.4062C628.042 42.6042 628.25 41.7969 628.531 40.9844C629.177 39.0469 630.099 37.5 631.297 36.3438C632.745 34.9271 634.469 34.2188 636.469 34.2188C639.208 34.2188 640.578 35.9219 640.578 39.3281V39.3594C640.641 39.3802 640.693 39.3906 640.734 39.3906H640.922C641.63 39.3906 642.469 39.1927 643.438 38.7969C644.292 38.4427 645.099 38 645.859 37.4688L646.141 38.3438C645.516 39 644.708 39.5573 643.719 40.0156C642.74 40.474 641.656 40.8021 640.469 41C640.344 42.4479 640.062 43.7708 639.625 44.9688C639.188 46.1562 638.625 47.1771 637.938 48.0312C637.26 48.8646 636.484 49.5052 635.609 49.9531C634.734 50.401 633.807 50.625 632.828 50.625ZM634.109 47.75C634.484 47.75 634.865 47.5833 635.25 47.25C635.646 46.9062 636.016 46.4323 636.359 45.8281C636.703 45.224 637 44.5156 637.25 43.7031C637.5 42.8906 637.688 42.0208 637.812 41.0938C637.5 41.0104 637.276 40.8542 637.141 40.625C637.016 40.3958 636.953 40.1042 636.953 39.75C636.953 39.3125 637.042 38.9479 637.219 38.6562C637.396 38.3646 637.641 38.151 637.953 38.0156C637.911 37.3385 637.802 36.8542 637.625 36.5625C637.531 36.4167 637.411 36.3125 637.266 36.25C637.13 36.1875 636.953 36.1562 636.734 36.1562C636.016 36.1562 635.312 36.6979 634.625 37.7812C633.99 38.7604 633.469 39.9688 633.062 41.4062C632.667 42.8125 632.469 44.0625 632.469 45.1562C632.469 45.6875 632.495 46.1198 632.547 46.4531C632.609 46.7865 632.708 47.0469 632.844 47.2344C632.969 47.4219 633.13 47.5573 633.328 47.6406C633.526 47.7135 633.786 47.75 634.109 47.75ZM661.672 50.6875C660.349 50.6875 659.37 50.3125 658.734 49.5625C658.182 48.9167 657.906 48.0885 657.906 47.0781C657.906 46.599 657.964 46.0417 658.078 45.4062C658.203 44.7708 658.385 43.9531 658.625 42.9531C658.865 41.9323 659.042 41.1198 659.156 40.5156C659.281 39.901 659.344 39.3698 659.344 38.9219C659.344 37.8281 658.958 37.2812 658.188 37.2812C657.646 37.2812 657.146 37.5677 656.688 38.1406C656.302 38.6302 655.969 39.3281 655.688 40.2344L653.516 50.5H648.906L651.25 39.4531C651.312 39.2031 651.344 38.9375 651.344 38.6562C651.344 38.2292 651.276 37.901 651.141 37.6719C650.964 37.3906 650.708 37.25 650.375 37.25C649.771 37.25 649.245 37.5417 648.797 38.125C648.401 38.625 648.062 39.3281 647.781 40.2344L645.609 50.5H641L644.391 34.5H649L648.656 36.1562C649.281 35.4583 649.964 34.9635 650.703 34.6719C651.286 34.4531 651.906 34.3438 652.562 34.3438C653.458 34.3438 654.172 34.5521 654.703 34.9688C655.297 35.4375 655.677 36.1458 655.844 37.0938C656.531 36.0312 657.323 35.2812 658.219 34.8438C658.854 34.5312 659.547 34.375 660.297 34.375C661.37 34.375 662.219 34.6562 662.844 35.2188C663.51 35.8333 663.844 36.7552 663.844 37.9844C663.844 38.6823 663.714 39.6458 663.453 40.875C663.349 41.3854 663.224 41.901 663.078 42.4219C662.818 43.4219 662.604 44.3438 662.438 45.1875C662.354 45.625 662.312 45.9792 662.312 46.25C662.312 46.6771 662.406 47.0104 662.594 47.25C662.792 47.4792 663.125 47.5938 663.594 47.5938C664.229 47.5938 664.766 47.3333 665.203 46.8125C665.536 46.4167 665.896 45.7344 666.281 44.7656H667.625C666.833 47.1094 665.833 48.75 664.625 49.6875C663.771 50.3542 662.786 50.6875 661.672 50.6875ZM670.953 50.625C669.37 50.625 668.146 50.2396 667.281 49.4688C666.312 48.6146 665.828 47.3177 665.828 45.5781C665.828 44.9219 665.896 44.1979 666.031 43.4062C666.167 42.6042 666.375 41.7969 666.656 40.9844C667.302 39.0469 668.224 37.5 669.422 36.3438C670.87 34.9271 672.594 34.2188 674.594 34.2188C677.333 34.2188 678.703 35.9219 678.703 39.3281V39.3594C678.766 39.3802 678.818 39.3906 678.859 39.3906H679.047C679.755 39.3906 680.594 39.1927 681.562 38.7969C682.417 38.4427 683.224 38 683.984 37.4688L684.266 38.3438C683.641 39 682.833 39.5573 681.844 40.0156C680.865 40.474 679.781 40.8021 678.594 41C678.469 42.4479 678.188 43.7708 677.75 44.9688C677.312 46.1562 676.75 47.1771 676.062 48.0312C675.385 48.8646 674.609 49.5052 673.734 49.9531C672.859 50.401 671.932 50.625 670.953 50.625ZM672.234 47.75C672.609 47.75 672.99 47.5833 673.375 47.25C673.771 46.9062 674.141 46.4323 674.484 45.8281C674.828 45.224 675.125 44.5156 675.375 43.7031C675.625 42.8906 675.812 42.0208 675.938 41.0938C675.625 41.0104 675.401 40.8542 675.266 40.625C675.141 40.3958 675.078 40.1042 675.078 39.75C675.078 39.3125 675.167 38.9479 675.344 38.6562C675.521 38.3646 675.766 38.151 676.078 38.0156C676.036 37.3385 675.927 36.8542 675.75 36.5625C675.656 36.4167 675.536 36.3125 675.391 36.25C675.255 36.1875 675.078 36.1562 674.859 36.1562C674.141 36.1562 673.438 36.6979 672.75 37.7812C672.115 38.7604 671.594 39.9688 671.188 41.4062C670.792 42.8125 670.594 44.0625 670.594 45.1562C670.594 45.6875 670.62 46.1198 670.672 46.4531C670.734 46.7865 670.833 47.0469 670.969 47.2344C671.094 47.4219 671.255 47.5573 671.453 47.6406C671.651 47.7135 671.911 47.75 672.234 47.75ZM685.203 50.625C683.453 50.625 682.109 50.0833 681.172 49C680.318 48.0104 679.891 46.6354 679.891 44.875C679.891 44.3021 679.958 43.599 680.094 42.7656C680.219 41.9219 680.401 41.0156 680.641 40.0469C681.161 37.9635 681.854 35.9271 682.719 33.9375C683.677 31.75 684.729 30 685.875 28.6875C687.167 27.2083 688.479 26.4688 689.812 26.4688C690.927 26.4688 691.781 26.8021 692.375 27.4688C693.01 28.1979 693.328 29.3281 693.328 30.8594C693.328 32.0677 693.031 33.4375 692.438 34.9688C691.99 36.125 691.417 37.3125 690.719 38.5312C691.167 38.75 691.568 39.0677 691.922 39.4844C692.849 39.4844 693.901 39.2656 695.078 38.8281C696.13 38.4531 697.031 38 697.781 37.4688L698.078 38.3438C697.484 38.9688 696.719 39.5104 695.781 39.9688C694.844 40.4167 693.802 40.7396 692.656 40.9375C692.771 41.3333 692.828 41.8646 692.828 42.5312C692.828 43.5938 692.656 44.6094 692.312 45.5781C691.969 46.5469 691.469 47.4062 690.812 48.1562C690.135 48.9375 689.318 49.5469 688.359 49.9844C687.411 50.4115 686.359 50.625 685.203 50.625ZM686.609 47.75C687.109 47.75 687.568 47.6198 687.984 47.3594C688.401 47.099 688.755 46.7396 689.047 46.2812C689.328 45.8542 689.542 45.3802 689.688 44.8594C689.833 44.3281 689.906 43.7969 689.906 43.2656C689.906 42.474 689.812 41.8906 689.625 41.5156C689.417 41.5885 689.24 41.6406 689.094 41.6719C688.958 41.6927 688.75 41.7031 688.469 41.7031C687.958 41.7031 687.552 41.5625 687.25 41.2812C686.958 41 686.812 40.6146 686.812 40.125C686.812 39.4896 687.026 39.0104 687.453 38.6875C687.797 38.4271 688.328 38.2708 689.047 38.2188C689.62 37.1875 690.135 35.974 690.594 34.5781C691.052 33.151 691.281 31.8646 691.281 30.7188C691.281 30.0729 691.198 29.6198 691.031 29.3594C690.875 29.099 690.609 28.9688 690.234 28.9688C689.901 28.9688 689.562 29.1458 689.219 29.5C688.875 29.8542 688.536 30.349 688.203 30.9844C687.599 32.1615 687.005 33.7292 686.422 35.6875C685.922 37.3438 685.495 39.125 685.141 41.0312C684.818 42.7396 684.656 44.0521 684.656 44.9688C684.656 45.8333 684.807 46.5 685.109 46.9688C685.432 47.4896 685.932 47.75 686.609 47.75ZM706.266 50.6875C704.995 50.6875 704.031 50.375 703.375 49.75C702.729 49.125 702.406 48.2552 702.406 47.1406C702.406 46.776 702.469 46.2292 702.594 45.5C702.615 45.3333 702.635 45.2188 702.656 45.1562C702.677 44.9479 702.698 44.8073 702.719 44.7344C702.76 44.526 702.781 44.3125 702.781 44.0938C702.781 43.0729 702.375 42.5625 701.562 42.5625C701.292 42.5625 701 42.6562 700.688 42.8438L700.172 43.2188L699.516 43.75L698.109 50.5H693.5L696.922 34.5H701.531L700.156 40.8438C700.844 40.1562 701.51 39.4635 702.156 38.7656L702.391 38.5C703.63 37.1667 704.474 36.276 704.922 35.8281C705.661 35.0885 706.359 34.6094 707.016 34.3906C707.38 34.276 707.76 34.2188 708.156 34.2188C708.875 34.2188 709.422 34.4167 709.797 34.8125C710.172 35.1979 710.359 35.7031 710.359 36.3281C710.359 36.9844 710.182 37.4948 709.828 37.8594C709.484 38.224 708.99 38.4062 708.344 38.4062C707.75 38.4062 707.297 38.224 706.984 37.8594C706.703 37.5469 706.573 37.1823 706.594 36.7656C706.26 36.9635 705.943 37.1979 705.641 37.4688C705.349 37.7292 705.026 38.0417 704.672 38.4062L704.359 38.75C704.214 38.8958 704.016 39.1146 703.766 39.4062C703.505 39.7083 703.188 40.0469 702.812 40.4219C703.177 40.3385 703.625 40.2969 704.156 40.2969C705.26 40.2969 706.057 40.5521 706.547 41.0625C706.984 41.5104 707.203 42.2448 707.203 43.2656C707.203 43.6094 707.141 44.1146 707.016 44.7812C706.964 45.0417 706.917 45.3177 706.875 45.6094C706.833 45.8906 706.812 46.1562 706.812 46.4062C706.812 47.1979 707.24 47.5938 708.094 47.5938C708.417 47.5938 708.693 47.5417 708.922 47.4375C709.161 47.3229 709.38 47.1458 709.578 46.9062C709.766 46.6875 709.948 46.4115 710.125 46.0781C710.302 45.7448 710.51 45.3073 710.75 44.7656H712.094C710.75 48.7135 708.807 50.6875 706.266 50.6875ZM714.594 50.6875C713.375 50.6875 712.391 50.3073 711.641 49.5469C710.766 48.651 710.328 47.3177 710.328 45.5469C710.328 44.7969 710.406 44.0052 710.562 43.1719C710.708 42.3385 710.927 41.5156 711.219 40.7031C711.885 38.8698 712.797 37.3906 713.953 36.2656C715.286 34.9844 716.823 34.3438 718.562 34.3438C719.427 34.3438 720.073 34.4948 720.5 34.7969C720.938 35.0885 721.156 35.4792 721.156 35.9688V36.2031L721.5 34.5H726.109L723.812 45.375C723.719 45.6875 723.672 46.0312 723.672 46.4062C723.672 47.3229 724.109 47.7812 724.984 47.7812C725.568 47.7812 726.099 47.4844 726.578 46.8906C726.984 46.3906 727.318 45.6823 727.578 44.7656H728.922C728.349 46.3906 727.656 47.6771 726.844 48.625C726.156 49.4062 725.38 49.9688 724.516 50.3125C723.88 50.5625 723.208 50.6875 722.5 50.6875C721.594 50.6875 720.87 50.4427 720.328 49.9531C719.797 49.4531 719.474 48.7188 719.359 47.75C718.755 48.6042 718.12 49.2708 717.453 49.75C716.599 50.375 715.646 50.6875 714.594 50.6875ZM716.672 47.5938C716.911 47.5938 717.161 47.5312 717.422 47.4062C717.693 47.2812 717.953 47.1042 718.203 46.875C718.766 46.3333 719.141 45.6302 719.328 44.7656L720.859 37.5469C720.859 37.4427 720.833 37.3229 720.781 37.1875C720.74 37.0417 720.677 36.9062 720.594 36.7812C720.344 36.4792 719.995 36.3281 719.547 36.3281C719.12 36.3281 718.703 36.4688 718.297 36.75C717.901 37.0312 717.526 37.4219 717.172 37.9219C716.547 38.8281 716.031 40.0104 715.625 41.4688C715.438 42.1146 715.297 42.7552 715.203 43.3906C715.109 44.0156 715.062 44.5833 715.062 45.0938C715.062 46.1562 715.26 46.875 715.656 47.25C715.792 47.3958 715.943 47.4896 716.109 47.5312C716.276 47.5729 716.464 47.5938 716.672 47.5938Z" fill="#16578D"></path> <path d="M228.506 71.8672V75.9102H233.876V71.8672H235.335V81.5H233.876V77.1494H228.506V81.5H227.038V71.8672H228.506ZM242.032 71.709C243.181 71.709 244.033 71.9668 244.59 72.4824C245.146 72.998 245.425 73.8213 245.425 74.9521V81.5H244.361L244.08 80.0762H244.01C243.74 80.4277 243.459 80.7236 243.166 80.9639C242.873 81.1982 242.533 81.377 242.146 81.5C241.766 81.6172 241.297 81.6758 240.74 81.6758C240.154 81.6758 239.633 81.5732 239.176 81.3682C238.725 81.1631 238.367 80.8525 238.104 80.4365C237.846 80.0205 237.717 79.4932 237.717 78.8545C237.717 77.8936 238.098 77.1553 238.859 76.6396C239.621 76.124 240.781 75.8428 242.34 75.7959L244.001 75.7256V75.1367C244.001 74.3047 243.822 73.7217 243.465 73.3877C243.107 73.0537 242.604 72.8867 241.953 72.8867C241.449 72.8867 240.969 72.96 240.512 73.1064C240.055 73.2529 239.621 73.4258 239.211 73.625L238.763 72.5176C239.196 72.2949 239.694 72.1045 240.257 71.9463C240.819 71.7881 241.411 71.709 242.032 71.709ZM243.983 76.7539L242.516 76.8154C241.314 76.8623 240.468 77.0586 239.976 77.4043C239.483 77.75 239.237 78.2393 239.237 78.8721C239.237 79.4229 239.404 79.8301 239.738 80.0938C240.072 80.3574 240.515 80.4893 241.065 80.4893C241.921 80.4893 242.621 80.252 243.166 79.7773C243.711 79.3027 243.983 78.5908 243.983 77.6416V76.7539ZM246.91 71.8672H248.475L250.602 77.457C250.725 77.7852 250.839 78.1016 250.944 78.4062C251.05 78.7051 251.144 78.9922 251.226 79.2676C251.308 79.543 251.372 79.8096 251.419 80.0674H251.48C251.562 79.7744 251.68 79.3906 251.832 78.916C251.984 78.4355 252.148 77.9463 252.324 77.4482L254.337 71.8672H255.91L251.718 82.915C251.495 83.5068 251.234 84.0225 250.936 84.4619C250.643 84.9014 250.285 85.2383 249.863 85.4727C249.441 85.7129 248.932 85.833 248.334 85.833C248.059 85.833 247.815 85.8154 247.604 85.7803C247.394 85.751 247.212 85.7158 247.06 85.6748V84.5059C247.188 84.5352 247.344 84.5615 247.525 84.585C247.713 84.6084 247.906 84.6201 248.105 84.6201C248.469 84.6201 248.782 84.5498 249.046 84.4092C249.315 84.2744 249.547 84.0752 249.74 83.8115C249.934 83.5479 250.101 83.2344 250.241 82.8711L250.769 81.5176L246.91 71.8672ZM258.723 71.8672V75.3301C258.723 75.9336 258.887 76.3789 259.215 76.666C259.549 76.9531 260.032 77.0967 260.665 77.0967C261.274 77.0967 261.828 77.0029 262.326 76.8154C262.824 76.6279 263.328 76.373 263.838 76.0508V71.8672H265.297V81.5H263.838V77.1846C263.299 77.5303 262.769 77.8027 262.247 78.002C261.726 78.2012 261.102 78.3008 260.375 78.3008C259.385 78.3008 258.617 78.043 258.072 77.5273C257.533 77.0117 257.264 76.3145 257.264 75.4355V71.8672H258.723ZM269.771 71.8672V77.9229C269.771 78.04 269.768 78.1924 269.762 78.3799C269.756 78.5615 269.747 78.7578 269.735 78.9688C269.724 79.1738 269.712 79.373 269.7 79.5664C269.694 79.7539 269.686 79.9092 269.674 80.0322L274.93 71.8672H276.723V81.5H275.36V75.5938C275.36 75.4062 275.363 75.166 275.369 74.873C275.375 74.5801 275.384 74.293 275.396 74.0117C275.407 73.7246 275.416 73.502 275.422 73.3438L270.184 81.5H268.382V71.8672H269.771ZM289.994 71.8672V81.5H288.676V75.2246C288.676 74.9668 288.682 74.7061 288.693 74.4424C288.711 74.1729 288.731 73.9033 288.755 73.6338H288.702L285.503 81.5H284.264L281.144 73.6338H281.091C281.108 73.9033 281.12 74.1729 281.126 74.4424C281.138 74.7061 281.144 74.9844 281.144 75.2773V81.5H279.816V71.8672H281.776L284.888 79.7422L288.043 71.8672H289.994ZM305.771 71.8672V81.5H304.303V73.124H299.17V81.5H297.702V71.8672H305.771ZM313.391 71.6914C314.592 71.6914 315.55 72.1045 316.265 72.9307C316.979 73.7568 317.337 74.999 317.337 76.6572C317.337 77.7529 317.173 78.6729 316.845 79.417C316.517 80.1611 316.054 80.7236 315.456 81.1045C314.864 81.4854 314.164 81.6758 313.355 81.6758C312.846 81.6758 312.397 81.6084 312.011 81.4736C311.624 81.3389 311.293 81.1572 311.018 80.9287C310.742 80.7002 310.514 80.4512 310.332 80.1816H310.227C310.244 80.4102 310.265 80.6855 310.288 81.0078C310.317 81.3301 310.332 81.6113 310.332 81.8516V85.8066H308.864V71.8672H310.068L310.262 73.291H310.332C310.52 72.998 310.748 72.7314 311.018 72.4912C311.287 72.2451 311.615 72.0518 312.002 71.9111C312.395 71.7646 312.857 71.6914 313.391 71.6914ZM313.136 72.9219C312.468 72.9219 311.929 73.0508 311.519 73.3086C311.114 73.5664 310.818 73.9531 310.631 74.4688C310.443 74.9785 310.344 75.6201 310.332 76.3936V76.6748C310.332 77.4893 310.42 78.1777 310.596 78.7402C310.777 79.3027 311.073 79.7305 311.483 80.0234C311.899 80.3164 312.456 80.4629 313.153 80.4629C313.751 80.4629 314.249 80.3018 314.647 79.9795C315.046 79.6572 315.342 79.209 315.535 78.6348C315.734 78.0547 315.834 77.3896 315.834 76.6396C315.834 75.5029 315.611 74.6006 315.166 73.9326C314.727 73.2588 314.05 72.9219 313.136 72.9219ZM323.489 71.709C324.638 71.709 325.49 71.9668 326.047 72.4824C326.604 72.998 326.882 73.8213 326.882 74.9521V81.5H325.818L325.537 80.0762H325.467C325.197 80.4277 324.916 80.7236 324.623 80.9639C324.33 81.1982 323.99 81.377 323.604 81.5C323.223 81.6172 322.754 81.6758 322.197 81.6758C321.611 81.6758 321.09 81.5732 320.633 81.3682C320.182 81.1631 319.824 80.8525 319.561 80.4365C319.303 80.0205 319.174 79.4932 319.174 78.8545C319.174 77.8936 319.555 77.1553 320.316 76.6396C321.078 76.124 322.238 75.8428 323.797 75.7959L325.458 75.7256V75.1367C325.458 74.3047 325.279 73.7217 324.922 73.3877C324.564 73.0537 324.061 72.8867 323.41 72.8867C322.906 72.8867 322.426 72.96 321.969 73.1064C321.512 73.2529 321.078 73.4258 320.668 73.625L320.22 72.5176C320.653 72.2949 321.151 72.1045 321.714 71.9463C322.276 71.7881 322.868 71.709 323.489 71.709ZM325.44 76.7539L323.973 76.8154C322.771 76.8623 321.925 77.0586 321.433 77.4043C320.94 77.75 320.694 78.2393 320.694 78.8721C320.694 79.4229 320.861 79.8301 321.195 80.0938C321.529 80.3574 321.972 80.4893 322.522 80.4893C323.378 80.4893 324.078 80.252 324.623 79.7773C325.168 79.3027 325.44 78.5908 325.44 77.6416V76.7539ZM337.543 74.2842C337.543 74.8877 337.367 75.3594 337.016 75.6992C336.664 76.0332 336.21 76.2588 335.653 76.376V76.4463C336.257 76.5283 336.775 76.7451 337.209 77.0967C337.648 77.4424 337.868 77.9727 337.868 78.6875C337.868 79.2383 337.736 79.7246 337.473 80.1465C337.209 80.5684 336.796 80.8994 336.233 81.1396C335.671 81.3799 334.938 81.5 334.036 81.5H329.888V71.8672H334.001C334.692 71.8672 335.302 71.9463 335.829 72.1045C336.362 72.2568 336.781 72.5088 337.086 72.8604C337.391 73.2119 337.543 73.6865 337.543 74.2842ZM336.348 78.6875C336.348 78.1191 336.131 77.709 335.697 77.457C335.27 77.2051 334.646 77.0791 333.825 77.0791H331.355V80.3135H333.86C334.669 80.3135 335.284 80.1904 335.706 79.9443C336.134 79.6924 336.348 79.2734 336.348 78.6875ZM336.058 74.4512C336.058 73.9941 335.891 73.6543 335.557 73.4316C335.223 73.2031 334.675 73.0889 333.913 73.0889H331.355V75.8574H333.658C334.449 75.8574 335.047 75.7432 335.451 75.5146C335.855 75.2861 336.058 74.9316 336.058 74.4512ZM341.612 71.8672V77.9229C341.612 78.04 341.609 78.1924 341.604 78.3799C341.598 78.5615 341.589 78.7578 341.577 78.9688C341.565 79.1738 341.554 79.373 341.542 79.5664C341.536 79.7539 341.527 79.9092 341.516 80.0322L346.771 71.8672H348.564V81.5H347.202V75.5938C347.202 75.4062 347.205 75.166 347.211 74.873C347.217 74.5801 347.226 74.293 347.237 74.0117C347.249 73.7246 347.258 73.502 347.264 73.3438L342.025 81.5H340.224V71.8672H341.612ZM358.892 81.5H357.406V73.0889H354.479C354.362 74.6064 354.213 75.9072 354.031 76.9912C353.855 78.0693 353.633 78.9512 353.363 79.6367C353.1 80.3164 352.777 80.8174 352.396 81.1396C352.021 81.4561 351.573 81.6143 351.052 81.6143C350.894 81.6143 350.744 81.6055 350.604 81.5879C350.463 81.5703 350.343 81.541 350.243 81.5V80.3926C350.319 80.416 350.398 80.4336 350.48 80.4453C350.568 80.457 350.659 80.4629 350.753 80.4629C351.017 80.4629 351.257 80.3545 351.474 80.1377C351.696 79.915 351.896 79.5811 352.071 79.1357C352.253 78.6904 352.414 78.1279 352.555 77.4482C352.695 76.7627 352.818 75.957 352.924 75.0312C353.035 74.0996 353.132 73.0449 353.214 71.8672H358.892V81.5ZM363.436 75.8398H366.389C367.209 75.8398 367.892 75.9424 368.437 76.1475C368.981 76.3525 369.389 76.6572 369.658 77.0615C369.934 77.4658 370.071 77.9668 370.071 78.5645C370.071 79.1621 369.937 79.6807 369.667 80.1201C369.403 80.5596 368.993 80.8994 368.437 81.1396C367.886 81.3799 367.174 81.5 366.301 81.5H361.968V71.8672H363.436V75.8398ZM368.604 78.6348C368.604 78.043 368.393 77.6328 367.971 77.4043C367.555 77.1699 366.972 77.0527 366.222 77.0527H363.436V80.3135H366.23C366.934 80.3135 367.505 80.1846 367.944 79.9268C368.384 79.6631 368.604 79.2324 368.604 78.6348ZM374.053 71.8672V75.9102H379.423V71.8672H380.882V81.5H379.423V77.1494H374.053V81.5H372.585V71.8672H374.053ZM392.281 76.666C392.281 77.457 392.179 78.1631 391.974 78.7842C391.769 79.4053 391.473 79.9297 391.086 80.3574C390.699 80.7852 390.23 81.1133 389.68 81.3418C389.135 81.5645 388.517 81.6758 387.825 81.6758C387.181 81.6758 386.589 81.5645 386.05 81.3418C385.517 81.1133 385.054 80.7852 384.661 80.3574C384.274 79.9297 383.973 79.4053 383.756 78.7842C383.545 78.1631 383.439 77.457 383.439 76.666C383.439 75.6113 383.618 74.7148 383.976 73.9766C384.333 73.2324 384.843 72.667 385.505 72.2803C386.173 71.8877 386.967 71.6914 387.887 71.6914C388.766 71.6914 389.533 71.8877 390.189 72.2803C390.852 72.6729 391.364 73.2412 391.728 73.9854C392.097 74.7236 392.281 75.6172 392.281 76.666ZM384.951 76.666C384.951 77.4395 385.054 78.1104 385.259 78.6787C385.464 79.2471 385.78 79.6865 386.208 79.9971C386.636 80.3076 387.187 80.4629 387.86 80.4629C388.528 80.4629 389.076 80.3076 389.504 79.9971C389.938 79.6865 390.257 79.2471 390.462 78.6787C390.667 78.1104 390.77 77.4395 390.77 76.666C390.77 75.8984 390.667 75.2363 390.462 74.6797C390.257 74.1172 389.94 73.6836 389.513 73.3789C389.085 73.0742 388.531 72.9219 387.852 72.9219C386.85 72.9219 386.114 73.2529 385.646 73.915C385.183 74.5771 384.951 75.4941 384.951 76.666ZM404.006 71.6914C405.207 71.6914 406.165 72.1045 406.88 72.9307C407.595 73.7568 407.952 74.999 407.952 76.6572C407.952 77.7529 407.788 78.6729 407.46 79.417C407.132 80.1611 406.669 80.7236 406.071 81.1045C405.479 81.4854 404.779 81.6758 403.971 81.6758C403.461 81.6758 403.013 81.6084 402.626 81.4736C402.239 81.3389 401.908 81.1572 401.633 80.9287C401.357 80.7002 401.129 80.4512 400.947 80.1816H400.842C400.859 80.4102 400.88 80.6855 400.903 81.0078C400.933 81.3301 400.947 81.6113 400.947 81.8516V85.8066H399.479V71.8672H400.684L400.877 73.291H400.947C401.135 72.998 401.363 72.7314 401.633 72.4912C401.902 72.2451 402.23 72.0518 402.617 71.9111C403.01 71.7646 403.473 71.6914 404.006 71.6914ZM403.751 72.9219C403.083 72.9219 402.544 73.0508 402.134 73.3086C401.729 73.5664 401.434 73.9531 401.246 74.4688C401.059 74.9785 400.959 75.6201 400.947 76.3936V76.6748C400.947 77.4893 401.035 78.1777 401.211 78.7402C401.393 79.3027 401.688 79.7305 402.099 80.0234C402.515 80.3164 403.071 80.4629 403.769 80.4629C404.366 80.4629 404.864 80.3018 405.263 79.9795C405.661 79.6572 405.957 79.209 406.15 78.6348C406.35 78.0547 406.449 77.3896 406.449 76.6396C406.449 75.5029 406.227 74.6006 405.781 73.9326C405.342 73.2588 404.665 72.9219 403.751 72.9219ZM414.104 71.709C415.253 71.709 416.105 71.9668 416.662 72.4824C417.219 72.998 417.497 73.8213 417.497 74.9521V81.5H416.434L416.152 80.0762H416.082C415.812 80.4277 415.531 80.7236 415.238 80.9639C414.945 81.1982 414.605 81.377 414.219 81.5C413.838 81.6172 413.369 81.6758 412.812 81.6758C412.227 81.6758 411.705 81.5732 411.248 81.3682C410.797 81.1631 410.439 80.8525 410.176 80.4365C409.918 80.0205 409.789 79.4932 409.789 78.8545C409.789 77.8936 410.17 77.1553 410.932 76.6396C411.693 76.124 412.854 75.8428 414.412 75.7959L416.073 75.7256V75.1367C416.073 74.3047 415.895 73.7217 415.537 73.3877C415.18 73.0537 414.676 72.8867 414.025 72.8867C413.521 72.8867 413.041 72.96 412.584 73.1064C412.127 73.2529 411.693 73.4258 411.283 73.625L410.835 72.5176C411.269 72.2949 411.767 72.1045 412.329 71.9463C412.892 71.7881 413.483 71.709 414.104 71.709ZM416.056 76.7539L414.588 76.8154C413.387 76.8623 412.54 77.0586 412.048 77.4043C411.556 77.75 411.31 78.2393 411.31 78.8721C411.31 79.4229 411.477 79.8301 411.811 80.0938C412.145 80.3574 412.587 80.4893 413.138 80.4893C413.993 80.4893 414.693 80.252 415.238 79.7773C415.783 79.3027 416.056 78.5908 416.056 77.6416V76.7539ZM420.002 75.7168C420.002 74.3457 420.134 73.1768 420.397 72.21C420.661 71.2373 421.068 70.458 421.619 69.8721C422.176 69.2803 422.891 68.876 423.764 68.6592C424.514 68.4541 425.275 68.2783 426.049 68.1318C426.822 67.9795 427.575 67.8477 428.308 67.7363L428.562 69.0195C428.193 69.0723 427.807 69.1338 427.402 69.2041C426.998 69.2686 426.594 69.3389 426.189 69.415C425.785 69.4854 425.404 69.5615 425.047 69.6436C424.689 69.7197 424.373 69.7988 424.098 69.8809C423.6 70.0156 423.169 70.25 422.806 70.584C422.448 70.918 422.164 71.3779 421.953 71.9639C421.748 72.5498 421.625 73.2881 421.584 74.1787H421.689C421.865 73.9209 422.105 73.666 422.41 73.4141C422.715 73.1621 423.078 72.9541 423.5 72.79C423.922 72.6201 424.396 72.5352 424.924 72.5352C425.756 72.5352 426.45 72.7168 427.007 73.0801C427.563 73.4375 427.982 73.9414 428.264 74.5918C428.545 75.2422 428.686 76.0039 428.686 76.877C428.686 77.9258 428.504 78.8076 428.141 79.5225C427.783 80.2373 427.279 80.7764 426.629 81.1396C425.979 81.4971 425.214 81.6758 424.335 81.6758C423.655 81.6758 423.046 81.5439 422.507 81.2803C421.974 81.0166 421.52 80.6299 421.145 80.1201C420.775 79.6104 420.491 78.9863 420.292 78.248C420.099 77.5098 420.002 76.666 420.002 75.7168ZM424.449 80.4629C425.006 80.4629 425.483 80.3457 425.882 80.1113C426.286 79.877 426.597 79.5078 426.813 79.0039C427.036 78.4941 427.147 77.832 427.147 77.0176C427.147 75.998 426.951 75.2012 426.559 74.627C426.172 74.0469 425.551 73.7568 424.695 73.7568C424.162 73.7568 423.679 73.8711 423.245 74.0996C422.812 74.3223 422.445 74.5889 422.146 74.8994C421.848 75.21 421.631 75.4883 421.496 75.7344C421.496 76.332 421.54 76.9121 421.628 77.4746C421.716 78.0371 421.868 78.5439 422.085 78.9951C422.302 79.4463 422.601 79.8037 422.981 80.0674C423.368 80.3311 423.857 80.4629 424.449 80.4629ZM439.514 76.666C439.514 77.457 439.411 78.1631 439.206 78.7842C439.001 79.4053 438.705 79.9297 438.318 80.3574C437.932 80.7852 437.463 81.1133 436.912 81.3418C436.367 81.5645 435.749 81.6758 435.058 81.6758C434.413 81.6758 433.821 81.5645 433.282 81.3418C432.749 81.1133 432.286 80.7852 431.894 80.3574C431.507 79.9297 431.205 79.4053 430.988 78.7842C430.777 78.1631 430.672 77.457 430.672 76.666C430.672 75.6113 430.851 74.7148 431.208 73.9766C431.565 73.2324 432.075 72.667 432.737 72.2803C433.405 71.8877 434.199 71.6914 435.119 71.6914C435.998 71.6914 436.766 71.8877 437.422 72.2803C438.084 72.6729 438.597 73.2412 438.96 73.9854C439.329 74.7236 439.514 75.6172 439.514 76.666ZM432.184 76.666C432.184 77.4395 432.286 78.1104 432.491 78.6787C432.696 79.2471 433.013 79.6865 433.44 79.9971C433.868 80.3076 434.419 80.4629 435.093 80.4629C435.761 80.4629 436.309 80.3076 436.736 79.9971C437.17 79.6865 437.489 79.2471 437.694 78.6787C437.899 78.1104 438.002 77.4395 438.002 76.666C438.002 75.8984 437.899 75.2363 437.694 74.6797C437.489 74.1172 437.173 73.6836 436.745 73.3789C436.317 73.0742 435.764 72.9219 435.084 72.9219C434.082 72.9219 433.347 73.2529 432.878 73.915C432.415 74.5771 432.184 75.4941 432.184 76.666ZM448.602 73.1064H445.429V81.5H443.987V73.1064H440.858V71.8672H448.602V73.1064ZM454.112 71.709C455.261 71.709 456.113 71.9668 456.67 72.4824C457.227 72.998 457.505 73.8213 457.505 74.9521V81.5H456.441L456.16 80.0762H456.09C455.82 80.4277 455.539 80.7236 455.246 80.9639C454.953 81.1982 454.613 81.377 454.227 81.5C453.846 81.6172 453.377 81.6758 452.82 81.6758C452.234 81.6758 451.713 81.5732 451.256 81.3682C450.805 81.1631 450.447 80.8525 450.184 80.4365C449.926 80.0205 449.797 79.4932 449.797 78.8545C449.797 77.8936 450.178 77.1553 450.939 76.6396C451.701 76.124 452.861 75.8428 454.42 75.7959L456.081 75.7256V75.1367C456.081 74.3047 455.902 73.7217 455.545 73.3877C455.188 73.0537 454.684 72.8867 454.033 72.8867C453.529 72.8867 453.049 72.96 452.592 73.1064C452.135 73.2529 451.701 73.4258 451.291 73.625L450.843 72.5176C451.276 72.2949 451.774 72.1045 452.337 71.9463C452.899 71.7881 453.491 71.709 454.112 71.709ZM456.063 76.7539L454.596 76.8154C453.395 76.8623 452.548 77.0586 452.056 77.4043C451.563 77.75 451.317 78.2393 451.317 78.8721C451.317 79.4229 451.484 79.8301 451.818 80.0938C452.152 80.3574 452.595 80.4893 453.146 80.4893C454.001 80.4893 454.701 80.252 455.246 79.7773C455.791 79.3027 456.063 78.5908 456.063 77.6416V76.7539ZM467.076 73.1064H463.903V81.5H462.462V73.1064H459.333V71.8672H467.076V73.1064ZM470.451 75.8398H473.404C474.225 75.8398 474.907 75.9424 475.452 76.1475C475.997 76.3525 476.404 76.6572 476.674 77.0615C476.949 77.4658 477.087 77.9668 477.087 78.5645C477.087 79.1621 476.952 79.6807 476.683 80.1201C476.419 80.5596 476.009 80.8994 475.452 81.1396C474.901 81.3799 474.189 81.5 473.316 81.5H468.983V71.8672H470.451V75.8398ZM475.619 78.6348C475.619 78.043 475.408 77.6328 474.986 77.4043C474.57 77.1699 473.987 77.0527 473.237 77.0527H470.451V80.3135H473.246C473.949 80.3135 474.521 80.1846 474.96 79.9268C475.399 79.6631 475.619 79.2324 475.619 78.6348ZM491.932 74.2842C491.932 74.8877 491.756 75.3594 491.404 75.6992C491.053 76.0332 490.599 76.2588 490.042 76.376V76.4463C490.646 76.5283 491.164 76.7451 491.598 77.0967C492.037 77.4424 492.257 77.9727 492.257 78.6875C492.257 79.2383 492.125 79.7246 491.861 80.1465C491.598 80.5684 491.185 80.8994 490.622 81.1396C490.06 81.3799 489.327 81.5 488.425 81.5H484.276V71.8672H488.39C489.081 71.8672 489.69 71.9463 490.218 72.1045C490.751 72.2568 491.17 72.5088 491.475 72.8604C491.779 73.2119 491.932 73.6865 491.932 74.2842ZM490.736 78.6875C490.736 78.1191 490.52 77.709 490.086 77.457C489.658 77.2051 489.034 77.0791 488.214 77.0791H485.744V80.3135H488.249C489.058 80.3135 489.673 80.1904 490.095 79.9443C490.522 79.6924 490.736 79.2734 490.736 78.6875ZM490.446 74.4512C490.446 73.9941 490.279 73.6543 489.945 73.4316C489.611 73.2031 489.063 73.0889 488.302 73.0889H485.744V75.8574H488.047C488.838 75.8574 489.436 75.7432 489.84 75.5146C490.244 75.2861 490.446 74.9316 490.446 74.4512ZM504.904 71.8672H506.513L502.355 76.5166L506.847 81.5H505.133L500.756 76.6133V81.5H499.288V71.8672H500.756V76.543L504.904 71.8672ZM515.812 81.5H514.326V73.0889H511.399C511.282 74.6064 511.133 75.9072 510.951 76.9912C510.775 78.0693 510.553 78.9512 510.283 79.6367C510.02 80.3164 509.697 80.8174 509.316 81.1396C508.941 81.4561 508.493 81.6143 507.972 81.6143C507.813 81.6143 507.664 81.6055 507.523 81.5879C507.383 81.5703 507.263 81.541 507.163 81.5V80.3926C507.239 80.416 507.318 80.4336 507.4 80.4453C507.488 80.457 507.579 80.4629 507.673 80.4629C507.937 80.4629 508.177 80.3545 508.394 80.1377C508.616 79.915 508.815 79.5811 508.991 79.1357C509.173 78.6904 509.334 78.1279 509.475 77.4482C509.615 76.7627 509.738 75.957 509.844 75.0312C509.955 74.0996 510.052 73.0449 510.134 71.8672H515.812V81.5ZM522.491 71.709C523.64 71.709 524.492 71.9668 525.049 72.4824C525.605 72.998 525.884 73.8213 525.884 74.9521V81.5H524.82L524.539 80.0762H524.469C524.199 80.4277 523.918 80.7236 523.625 80.9639C523.332 81.1982 522.992 81.377 522.605 81.5C522.225 81.6172 521.756 81.6758 521.199 81.6758C520.613 81.6758 520.092 81.5732 519.635 81.3682C519.184 81.1631 518.826 80.8525 518.562 80.4365C518.305 80.0205 518.176 79.4932 518.176 78.8545C518.176 77.8936 518.557 77.1553 519.318 76.6396C520.08 76.124 521.24 75.8428 522.799 75.7959L524.46 75.7256V75.1367C524.46 74.3047 524.281 73.7217 523.924 73.3877C523.566 73.0537 523.062 72.8867 522.412 72.8867C521.908 72.8867 521.428 72.96 520.971 73.1064C520.514 73.2529 520.08 73.4258 519.67 73.625L519.222 72.5176C519.655 72.2949 520.153 72.1045 520.716 71.9463C521.278 71.7881 521.87 71.709 522.491 71.709ZM524.442 76.7539L522.975 76.8154C521.773 76.8623 520.927 77.0586 520.435 77.4043C519.942 77.75 519.696 78.2393 519.696 78.8721C519.696 79.4229 519.863 79.8301 520.197 80.0938C520.531 80.3574 520.974 80.4893 521.524 80.4893C522.38 80.4893 523.08 80.252 523.625 79.7773C524.17 79.3027 524.442 78.5908 524.442 77.6416V76.7539ZM532.748 81.6758C531.881 81.6758 531.116 81.4971 530.454 81.1396C529.792 80.7822 529.276 80.2373 528.907 79.5049C528.538 78.7725 528.354 77.8496 528.354 76.7363C528.354 75.5703 528.547 74.6182 528.934 73.8799C529.326 73.1357 529.865 72.585 530.551 72.2275C531.236 71.8701 532.016 71.6914 532.889 71.6914C533.369 71.6914 533.832 71.7412 534.277 71.8408C534.729 71.9346 535.098 72.0547 535.385 72.2012L534.945 73.4229C534.652 73.3057 534.312 73.2002 533.926 73.1064C533.545 73.0127 533.188 72.9658 532.854 72.9658C532.186 72.9658 531.629 73.1094 531.184 73.3965C530.744 73.6836 530.413 74.1055 530.19 74.6621C529.974 75.2188 529.865 75.9043 529.865 76.7188C529.865 77.498 529.971 78.1631 530.182 78.7139C530.398 79.2646 530.718 79.6865 531.14 79.9795C531.567 80.2666 532.101 80.4102 532.739 80.4102C533.249 80.4102 533.709 80.3574 534.119 80.252C534.529 80.1406 534.901 80.0117 535.235 79.8652V81.166C534.913 81.3301 534.553 81.4561 534.154 81.5439C533.762 81.6318 533.293 81.6758 532.748 81.6758ZM541.379 81.6758C540.512 81.6758 539.747 81.4971 539.085 81.1396C538.423 80.7822 537.907 80.2373 537.538 79.5049C537.169 78.7725 536.984 77.8496 536.984 76.7363C536.984 75.5703 537.178 74.6182 537.564 73.8799C537.957 73.1357 538.496 72.585 539.182 72.2275C539.867 71.8701 540.646 71.6914 541.52 71.6914C542 71.6914 542.463 71.7412 542.908 71.8408C543.359 71.9346 543.729 72.0547 544.016 72.2012L543.576 73.4229C543.283 73.3057 542.943 73.2002 542.557 73.1064C542.176 73.0127 541.818 72.9658 541.484 72.9658C540.816 72.9658 540.26 73.1094 539.814 73.3965C539.375 73.6836 539.044 74.1055 538.821 74.6621C538.604 75.2188 538.496 75.9043 538.496 76.7188C538.496 77.498 538.602 78.1631 538.812 78.7139C539.029 79.2646 539.349 79.6865 539.771 79.9795C540.198 80.2666 540.731 80.4102 541.37 80.4102C541.88 80.4102 542.34 80.3574 542.75 80.252C543.16 80.1406 543.532 80.0117 543.866 79.8652V81.166C543.544 81.3301 543.184 81.4561 542.785 81.5439C542.393 81.6318 541.924 81.6758 541.379 81.6758ZM549.86 71.6914C550.681 71.6914 551.384 71.873 551.97 72.2363C552.556 72.5996 553.004 73.1094 553.314 73.7656C553.625 74.416 553.78 75.1777 553.78 76.0508V76.9561H547.127C547.145 78.0869 547.426 78.9482 547.971 79.54C548.516 80.1318 549.283 80.4277 550.273 80.4277C550.883 80.4277 551.422 80.3721 551.891 80.2607C552.359 80.1494 552.846 79.9854 553.35 79.7686V81.0518C552.863 81.2686 552.38 81.4268 551.899 81.5264C551.425 81.626 550.862 81.6758 550.212 81.6758C549.286 81.6758 548.478 81.4883 547.786 81.1133C547.101 80.7324 546.567 80.1758 546.187 79.4434C545.806 78.7109 545.615 77.8145 545.615 76.7539C545.615 75.7168 545.788 74.8203 546.134 74.0645C546.485 73.3027 546.978 72.7168 547.61 72.3066C548.249 71.8965 548.999 71.6914 549.86 71.6914ZM549.843 72.8867C549.063 72.8867 548.442 73.1416 547.979 73.6514C547.517 74.1611 547.241 74.873 547.153 75.7871H552.251C552.245 75.2129 552.154 74.709 551.979 74.2754C551.809 73.8359 551.548 73.4961 551.196 73.2559C550.845 73.0098 550.394 72.8867 549.843 72.8867ZM562.323 71.8672V77.9229C562.323 78.04 562.32 78.1924 562.314 78.3799C562.309 78.5615 562.3 78.7578 562.288 78.9688C562.276 79.1738 562.265 79.373 562.253 79.5664C562.247 79.7539 562.238 79.9092 562.227 80.0322L567.482 71.8672H569.275V81.5H567.913V75.5938C567.913 75.4062 567.916 75.166 567.922 74.873C567.928 74.5801 567.937 74.293 567.948 74.0117C567.96 73.7246 567.969 73.502 567.975 73.3438L562.736 81.5H560.935V71.8672H562.323ZM584.709 74.2842C584.709 74.8877 584.533 75.3594 584.182 75.6992C583.83 76.0332 583.376 76.2588 582.819 76.376V76.4463C583.423 76.5283 583.941 76.7451 584.375 77.0967C584.814 77.4424 585.034 77.9727 585.034 78.6875C585.034 79.2383 584.902 79.7246 584.639 80.1465C584.375 80.5684 583.962 80.8994 583.399 81.1396C582.837 81.3799 582.104 81.5 581.202 81.5H577.054V71.8672H581.167C581.858 71.8672 582.468 71.9463 582.995 72.1045C583.528 72.2568 583.947 72.5088 584.252 72.8604C584.557 73.2119 584.709 73.6865 584.709 74.2842ZM583.514 78.6875C583.514 78.1191 583.297 77.709 582.863 77.457C582.436 77.2051 581.812 77.0791 580.991 77.0791H578.521V80.3135H581.026C581.835 80.3135 582.45 80.1904 582.872 79.9443C583.3 79.6924 583.514 79.2734 583.514 78.6875ZM583.224 74.4512C583.224 73.9941 583.057 73.6543 582.723 73.4316C582.389 73.2031 581.841 73.0889 581.079 73.0889H578.521V75.8574H580.824C581.615 75.8574 582.213 75.7432 582.617 75.5146C583.021 75.2861 583.224 74.9316 583.224 74.4512ZM595.695 76.666C595.695 77.457 595.593 78.1631 595.388 78.7842C595.183 79.4053 594.887 79.9297 594.5 80.3574C594.113 80.7852 593.645 81.1133 593.094 81.3418C592.549 81.5645 591.931 81.6758 591.239 81.6758C590.595 81.6758 590.003 81.5645 589.464 81.3418C588.931 81.1133 588.468 80.7852 588.075 80.3574C587.688 79.9297 587.387 79.4053 587.17 78.7842C586.959 78.1631 586.854 77.457 586.854 76.666C586.854 75.6113 587.032 74.7148 587.39 73.9766C587.747 73.2324 588.257 72.667 588.919 72.2803C589.587 71.8877 590.381 71.6914 591.301 71.6914C592.18 71.6914 592.947 71.8877 593.604 72.2803C594.266 72.6729 594.778 73.2412 595.142 73.9854C595.511 74.7236 595.695 75.6172 595.695 76.666ZM588.365 76.666C588.365 77.4395 588.468 78.1104 588.673 78.6787C588.878 79.2471 589.194 79.6865 589.622 79.9971C590.05 80.3076 590.601 80.4629 591.274 80.4629C591.942 80.4629 592.49 80.3076 592.918 79.9971C593.352 79.6865 593.671 79.2471 593.876 78.6787C594.081 78.1104 594.184 77.4395 594.184 76.666C594.184 75.8984 594.081 75.2363 593.876 74.6797C593.671 74.1172 593.354 73.6836 592.927 73.3789C592.499 73.0742 591.945 72.9219 591.266 72.9219C590.264 72.9219 589.528 73.2529 589.06 73.915C588.597 74.5771 588.365 75.4941 588.365 76.666ZM602.076 81.6758C601.209 81.6758 600.444 81.4971 599.782 81.1396C599.12 80.7822 598.604 80.2373 598.235 79.5049C597.866 78.7725 597.682 77.8496 597.682 76.7363C597.682 75.5703 597.875 74.6182 598.262 73.8799C598.654 73.1357 599.193 72.585 599.879 72.2275C600.564 71.8701 601.344 71.6914 602.217 71.6914C602.697 71.6914 603.16 71.7412 603.605 71.8408C604.057 71.9346 604.426 72.0547 604.713 72.2012L604.273 73.4229C603.98 73.3057 603.641 73.2002 603.254 73.1064C602.873 73.0127 602.516 72.9658 602.182 72.9658C601.514 72.9658 600.957 73.1094 600.512 73.3965C600.072 73.6836 599.741 74.1055 599.519 74.6621C599.302 75.2188 599.193 75.9043 599.193 76.7188C599.193 77.498 599.299 78.1631 599.51 78.7139C599.727 79.2646 600.046 79.6865 600.468 79.9795C600.896 80.2666 601.429 80.4102 602.067 80.4102C602.577 80.4102 603.037 80.3574 603.447 80.252C603.857 80.1406 604.229 80.0117 604.563 79.8652V81.166C604.241 81.3301 603.881 81.4561 603.482 81.5439C603.09 81.6318 602.621 81.6758 602.076 81.6758ZM614.917 71.8672V81.5H613.449V73.124H608.316V81.5H606.849V71.8672H614.917ZM622.537 71.6914C623.738 71.6914 624.696 72.1045 625.411 72.9307C626.126 73.7568 626.483 74.999 626.483 76.6572C626.483 77.7529 626.319 78.6729 625.991 79.417C625.663 80.1611 625.2 80.7236 624.603 81.1045C624.011 81.4854 623.311 81.6758 622.502 81.6758C621.992 81.6758 621.544 81.6084 621.157 81.4736C620.771 81.3389 620.439 81.1572 620.164 80.9287C619.889 80.7002 619.66 80.4512 619.479 80.1816H619.373C619.391 80.4102 619.411 80.6855 619.435 81.0078C619.464 81.3301 619.479 81.6113 619.479 81.8516V85.8066H618.011V71.8672H619.215L619.408 73.291H619.479C619.666 72.998 619.895 72.7314 620.164 72.4912C620.434 72.2451 620.762 72.0518 621.148 71.9111C621.541 71.7646 622.004 71.6914 622.537 71.6914ZM622.282 72.9219C621.614 72.9219 621.075 73.0508 620.665 73.3086C620.261 73.5664 619.965 73.9531 619.777 74.4688C619.59 74.9785 619.49 75.6201 619.479 76.3936V76.6748C619.479 77.4893 619.566 78.1777 619.742 78.7402C619.924 79.3027 620.22 79.7305 620.63 80.0234C621.046 80.3164 621.603 80.4629 622.3 80.4629C622.897 80.4629 623.396 80.3018 623.794 79.9795C624.192 79.6572 624.488 79.209 624.682 78.6348C624.881 78.0547 624.98 77.3896 624.98 76.6396C624.98 75.5029 624.758 74.6006 624.312 73.9326C623.873 73.2588 623.196 72.9219 622.282 72.9219ZM630.421 71.8672V77.9229C630.421 78.04 630.418 78.1924 630.412 78.3799C630.406 78.5615 630.397 78.7578 630.386 78.9688C630.374 79.1738 630.362 79.373 630.351 79.5664C630.345 79.7539 630.336 79.9092 630.324 80.0322L635.58 71.8672H637.373V81.5H636.011V75.5938C636.011 75.4062 636.014 75.166 636.02 74.873C636.025 74.5801 636.034 74.293 636.046 74.0117C636.058 73.7246 636.066 73.502 636.072 73.3438L630.834 81.5H629.032V71.8672H630.421ZM641.943 71.8672V75.9102H647.313V71.8672H648.772V81.5H647.313V77.1494H641.943V81.5H640.476V71.8672H641.943ZM653.255 71.8672V77.9229C653.255 78.04 653.252 78.1924 653.246 78.3799C653.24 78.5615 653.231 78.7578 653.22 78.9688C653.208 79.1738 653.196 79.373 653.185 79.5664C653.179 79.7539 653.17 79.9092 653.158 80.0322L658.414 71.8672H660.207V81.5H658.845V75.5938C658.845 75.4062 658.848 75.166 658.854 74.873C658.859 74.5801 658.868 74.293 658.88 74.0117C658.892 73.7246 658.9 73.502 658.906 73.3438L653.668 81.5H651.866V71.8672H653.255ZM673.479 71.8672V81.5H672.16V75.2246C672.16 74.9668 672.166 74.7061 672.178 74.4424C672.195 74.1729 672.216 73.9033 672.239 73.6338H672.187L668.987 81.5H667.748L664.628 73.6338H664.575C664.593 73.9033 664.604 74.1729 664.61 74.4424C664.622 74.7061 664.628 74.9844 664.628 75.2773V81.5H663.301V71.8672H665.261L668.372 79.7422L671.527 71.8672H673.479ZM680.114 71.709C681.263 71.709 682.115 71.9668 682.672 72.4824C683.229 72.998 683.507 73.8213 683.507 74.9521V81.5H682.443L682.162 80.0762H682.092C681.822 80.4277 681.541 80.7236 681.248 80.9639C680.955 81.1982 680.615 81.377 680.229 81.5C679.848 81.6172 679.379 81.6758 678.822 81.6758C678.236 81.6758 677.715 81.5732 677.258 81.3682C676.807 81.1631 676.449 80.8525 676.186 80.4365C675.928 80.0205 675.799 79.4932 675.799 78.8545C675.799 77.8936 676.18 77.1553 676.941 76.6396C677.703 76.124 678.863 75.8428 680.422 75.7959L682.083 75.7256V75.1367C682.083 74.3047 681.904 73.7217 681.547 73.3877C681.189 73.0537 680.686 72.8867 680.035 72.8867C679.531 72.8867 679.051 72.96 678.594 73.1064C678.137 73.2529 677.703 73.4258 677.293 73.625L676.845 72.5176C677.278 72.2949 677.776 72.1045 678.339 71.9463C678.901 71.7881 679.493 71.709 680.114 71.709ZM682.065 76.7539L680.598 76.8154C679.396 76.8623 678.55 77.0586 678.058 77.4043C677.565 77.75 677.319 78.2393 677.319 78.8721C677.319 79.4229 677.486 79.8301 677.82 80.0938C678.154 80.3574 678.597 80.4893 679.147 80.4893C680.003 80.4893 680.703 80.252 681.248 79.7773C681.793 79.3027 682.065 78.5908 682.065 77.6416V76.7539ZM693.078 73.1064H689.905V81.5H688.464V73.1064H685.335V71.8672H693.078V73.1064ZM696.453 75.8398H699.406C700.227 75.8398 700.909 75.9424 701.454 76.1475C701.999 76.3525 702.406 76.6572 702.676 77.0615C702.951 77.4658 703.089 77.9668 703.089 78.5645C703.089 79.1621 702.954 79.6807 702.685 80.1201C702.421 80.5596 702.011 80.8994 701.454 81.1396C700.903 81.3799 700.191 81.5 699.318 81.5H694.985V71.8672H696.453V75.8398ZM701.621 78.6348C701.621 78.043 701.41 77.6328 700.988 77.4043C700.572 77.1699 699.989 77.0527 699.239 77.0527H696.453V80.3135H699.248C699.951 80.3135 700.522 80.1846 700.962 79.9268C701.401 79.6631 701.621 79.2324 701.621 78.6348ZM708.758 71.8672H710.322L712.449 77.457C712.572 77.7852 712.687 78.1016 712.792 78.4062C712.897 78.7051 712.991 78.9922 713.073 79.2676C713.155 79.543 713.22 79.8096 713.267 80.0674H713.328C713.41 79.7744 713.527 79.3906 713.68 78.916C713.832 78.4355 713.996 77.9463 714.172 77.4482L716.185 71.8672H717.758L713.565 82.915C713.343 83.5068 713.082 84.0225 712.783 84.4619C712.49 84.9014 712.133 85.2383 711.711 85.4727C711.289 85.7129 710.779 85.833 710.182 85.833C709.906 85.833 709.663 85.8154 709.452 85.7803C709.241 85.751 709.06 85.7158 708.907 85.6748V84.5059C709.036 84.5352 709.191 84.5615 709.373 84.585C709.561 84.6084 709.754 84.6201 709.953 84.6201C710.316 84.6201 710.63 84.5498 710.894 84.4092C711.163 84.2744 711.395 84.0752 711.588 83.8115C711.781 83.5479 711.948 83.2344 712.089 82.8711L712.616 81.5176L708.758 71.8672ZM720.57 71.8672V75.3301C720.57 75.9336 720.734 76.3789 721.062 76.666C721.396 76.9531 721.88 77.0967 722.513 77.0967C723.122 77.0967 723.676 77.0029 724.174 76.8154C724.672 76.6279 725.176 76.373 725.686 76.0508V71.8672H727.145V81.5H725.686V77.1846C725.146 77.5303 724.616 77.8027 724.095 78.002C723.573 78.2012 722.949 78.3008 722.223 78.3008C721.232 78.3008 720.465 78.043 719.92 77.5273C719.381 77.0117 719.111 76.3145 719.111 75.4355V71.8672H720.57ZM731.618 71.8672V77.9229C731.618 78.04 731.615 78.1924 731.609 78.3799C731.604 78.5615 731.595 78.7578 731.583 78.9688C731.571 79.1738 731.56 79.373 731.548 79.5664C731.542 79.7539 731.533 79.9092 731.521 80.0322L736.777 71.8672H738.57V81.5H737.208V75.5938C737.208 75.4062 737.211 75.166 737.217 74.873C737.223 74.5801 737.231 74.293 737.243 74.0117C737.255 73.7246 737.264 73.502 737.27 73.3438L732.031 81.5H730.229V71.8672H731.618ZM748.238 73.1064H745.065V81.5H743.624V73.1064H740.495V71.8672H748.238V73.1064ZM753.854 71.6914C754.675 71.6914 755.378 71.873 755.964 72.2363C756.55 72.5996 756.998 73.1094 757.309 73.7656C757.619 74.416 757.774 75.1777 757.774 76.0508V76.9561H751.121C751.139 78.0869 751.42 78.9482 751.965 79.54C752.51 80.1318 753.277 80.4277 754.268 80.4277C754.877 80.4277 755.416 80.3721 755.885 80.2607C756.354 80.1494 756.84 79.9854 757.344 79.7686V81.0518C756.857 81.2686 756.374 81.4268 755.894 81.5264C755.419 81.626 754.856 81.6758 754.206 81.6758C753.28 81.6758 752.472 81.4883 751.78 81.1133C751.095 80.7324 750.562 80.1758 750.181 79.4434C749.8 78.7109 749.609 77.8145 749.609 76.7539C749.609 75.7168 749.782 74.8203 750.128 74.0645C750.479 73.3027 750.972 72.7168 751.604 72.3066C752.243 71.8965 752.993 71.6914 753.854 71.6914ZM753.837 72.8867C753.058 72.8867 752.437 73.1416 751.974 73.6514C751.511 74.1611 751.235 74.873 751.147 75.7871H756.245C756.239 75.2129 756.148 74.709 755.973 74.2754C755.803 73.8359 755.542 73.4961 755.19 73.2559C754.839 73.0098 754.388 72.8867 753.837 72.8867ZM767.478 81.5H765.992V73.0889H763.065C762.948 74.6064 762.799 75.9072 762.617 76.9912C762.441 78.0693 762.219 78.9512 761.949 79.6367C761.686 80.3164 761.363 80.8174 760.982 81.1396C760.607 81.4561 760.159 81.6143 759.638 81.6143C759.479 81.6143 759.33 81.6055 759.189 81.5879C759.049 81.5703 758.929 81.541 758.829 81.5V80.3926C758.905 80.416 758.984 80.4336 759.066 80.4453C759.154 80.457 759.245 80.4629 759.339 80.4629C759.603 80.4629 759.843 80.3545 760.06 80.1377C760.282 79.915 760.481 79.5811 760.657 79.1357C760.839 78.6904 761 78.1279 761.141 77.4482C761.281 76.7627 761.404 75.957 761.51 75.0312C761.621 74.0996 761.718 73.0449 761.8 71.8672H767.478V81.5ZM771.02 81.5H769.314L772.092 77.4395C771.688 77.3516 771.312 77.2021 770.967 76.9912C770.621 76.7744 770.34 76.4785 770.123 76.1035C769.912 75.7285 769.807 75.2627 769.807 74.7061C769.807 73.7803 770.114 73.0771 770.729 72.5967C771.351 72.1104 772.168 71.8672 773.182 71.8672H777.444V81.5H775.985V77.6328H773.542L771.02 81.5ZM771.222 74.7148C771.222 75.2891 771.427 75.7168 771.837 75.998C772.247 76.2734 772.833 76.4111 773.595 76.4111H775.985V73.0889H773.34C772.59 73.0889 772.048 73.2412 771.714 73.5459C771.386 73.8447 771.222 74.2344 771.222 74.7148Z" fill="#16578D"></path> </g> <defs> <filter id="filter0_d_163_14633" x="0" y="0" width="1068" height="114" filterUnits="userSpaceOnUse" color-interpolation-filters="sRGB"> <feFlood flood-opacity="0" result="BackgroundImageFix"></feFlood> <feColorMatrix in="SourceAlpha" type="matrix" values="0 0 0 0 0 0 0 0 0 0 0 0 0 0 0 0 0 0 127 0" result="hardAlpha"></feColorMatrix> <feOffset dy="4"></feOffset> <feGaussianBlur stdDeviation="2"></feGaussianBlur> <feComposite in2="hardAlpha" operator="out"></feComposite> <feColorMatrix type="matrix" values="0 0 0 0 0.690196 0 0 0 0 0.87451 0 0 0 0 0.886275 0 0 0 0.54 0"></feColorMatrix> <feBlend mode="normal" in2="BackgroundImageFix" result="effect1_dropShadow_163_14633"></feBlend> <feBlend mode="normal" in="SourceGraphic" in2="effect1_dropShadow_163_14633" result="shape"></feBlend> </filter> </defs> </svg> 